G75*
G70*
%OFA0B0*%
%FSLAX24Y24*%
%IPPOS*%
%LPD*%
%AMOC8*
5,1,8,0,0,1.08239X$1,22.5*
%
%ADD10C,0.1200*%
%ADD11R,0.0472X0.0551*%
%ADD12C,0.0370*%
%ADD13C,0.0560*%
%ADD14R,0.0740X0.0740*%
%ADD15C,0.0740*%
%ADD16C,0.0360*%
%ADD17C,0.0200*%
%ADD18C,0.0475*%
%ADD19C,0.0160*%
%ADD20C,0.0500*%
%ADD21C,0.0320*%
%ADD22C,0.0300*%
%ADD23C,0.0400*%
%ADD24C,0.0660*%
%ADD25C,0.0080*%
%ADD26C,0.0330*%
%ADD27C,0.0100*%
%ADD28C,0.0400*%
%ADD29C,0.0396*%
%ADD30C,0.0260*%
%ADD31C,0.0531*%
D10*
X074285Y011741D03*
X077285Y011741D03*
X088085Y011741D03*
X091085Y011741D03*
X091085Y017881D03*
X088085Y017881D03*
X077285Y017881D03*
X074285Y017881D03*
D11*
X073951Y007451D03*
X074640Y007451D03*
X076851Y007451D03*
X077540Y007451D03*
X079751Y007451D03*
X080440Y007451D03*
X082651Y007451D03*
X083340Y007451D03*
X085551Y007451D03*
X086240Y007451D03*
X088451Y007451D03*
X089140Y007451D03*
X091351Y007451D03*
X092040Y007451D03*
X092040Y006191D03*
X091351Y006191D03*
X089140Y006191D03*
X088451Y006191D03*
X086240Y006191D03*
X085551Y006191D03*
X083340Y006191D03*
X082651Y006191D03*
X080440Y006191D03*
X079751Y006191D03*
X077540Y006191D03*
X076851Y006191D03*
X074640Y006191D03*
X073951Y006191D03*
X071740Y006201D03*
X071051Y006201D03*
X068840Y006191D03*
X068151Y006191D03*
X065940Y006191D03*
X065251Y006191D03*
X063040Y006191D03*
X062351Y006191D03*
X060140Y006191D03*
X059451Y006191D03*
X057240Y006191D03*
X056551Y006191D03*
X054340Y006191D03*
X053651Y006191D03*
X051340Y006191D03*
X050651Y006191D03*
X048440Y006191D03*
X047751Y006191D03*
X045540Y006191D03*
X044851Y006191D03*
X042740Y006191D03*
X042051Y006191D03*
X039840Y006191D03*
X039151Y006191D03*
X036940Y006191D03*
X036251Y006191D03*
X034040Y006191D03*
X033351Y006191D03*
X031140Y006191D03*
X030451Y006191D03*
X028240Y006191D03*
X027551Y006191D03*
X025340Y006191D03*
X024651Y006191D03*
X022440Y006191D03*
X021751Y006191D03*
X019540Y006191D03*
X018851Y006191D03*
X016640Y006191D03*
X015951Y006191D03*
X013740Y006191D03*
X013051Y006191D03*
X010840Y006191D03*
X010151Y006191D03*
X007940Y006191D03*
X007251Y006191D03*
X005040Y006191D03*
X004351Y006191D03*
X002140Y006191D03*
X001451Y006191D03*
X001451Y007451D03*
X002140Y007451D03*
X004351Y007451D03*
X005040Y007451D03*
X007251Y007451D03*
X007940Y007451D03*
X010151Y007451D03*
X010840Y007451D03*
X013051Y007451D03*
X013740Y007451D03*
X015951Y007451D03*
X016640Y007451D03*
X018851Y007451D03*
X019540Y007451D03*
X021751Y007451D03*
X022440Y007451D03*
X024651Y007451D03*
X025340Y007451D03*
X027551Y007451D03*
X028240Y007451D03*
X030451Y007451D03*
X031140Y007451D03*
X033351Y007451D03*
X034040Y007451D03*
X036251Y007451D03*
X036940Y007451D03*
X039151Y007451D03*
X039840Y007451D03*
X042051Y007451D03*
X042740Y007451D03*
X044851Y007451D03*
X045540Y007451D03*
X047751Y007451D03*
X048440Y007451D03*
X050651Y007451D03*
X051340Y007451D03*
X053651Y007451D03*
X054340Y007451D03*
X056551Y007451D03*
X057240Y007451D03*
X059451Y007451D03*
X060140Y007451D03*
X062351Y007451D03*
X063040Y007451D03*
X065251Y007451D03*
X065940Y007451D03*
X068151Y007451D03*
X068840Y007451D03*
X071051Y007461D03*
X071740Y007461D03*
D12*
X071799Y006890D03*
X070652Y006692D03*
X070519Y006170D03*
X073419Y006160D03*
X073552Y006682D03*
X074699Y006880D03*
X076452Y006682D03*
X077599Y006880D03*
X079352Y006682D03*
X080499Y006880D03*
X082252Y006682D03*
X083399Y006880D03*
X085152Y006682D03*
X086299Y006880D03*
X088052Y006682D03*
X089199Y006880D03*
X090952Y006682D03*
X092099Y006880D03*
X090819Y006160D03*
X087919Y006160D03*
X085019Y006160D03*
X082119Y006160D03*
X079219Y006160D03*
X076319Y006160D03*
X068899Y006880D03*
X067752Y006682D03*
X065999Y006880D03*
X064852Y006682D03*
X063099Y006880D03*
X061952Y006682D03*
X061819Y006160D03*
X064719Y006160D03*
X067619Y006160D03*
X060199Y006880D03*
X059052Y006682D03*
X058919Y006160D03*
X057299Y006880D03*
X056152Y006682D03*
X054399Y006880D03*
X053252Y006682D03*
X053119Y006160D03*
X050252Y006682D03*
X051399Y006880D03*
X050119Y006160D03*
X048499Y006880D03*
X047352Y006682D03*
X047219Y006160D03*
X045599Y006880D03*
X044452Y006682D03*
X042799Y006880D03*
X041652Y006682D03*
X041519Y006160D03*
X044319Y006160D03*
X039899Y006880D03*
X038752Y006682D03*
X038619Y006160D03*
X036999Y006880D03*
X035852Y006682D03*
X034099Y006880D03*
X032952Y006682D03*
X031199Y006880D03*
X030052Y006682D03*
X029919Y006160D03*
X032819Y006160D03*
X035719Y006160D03*
X028299Y006880D03*
X027152Y006682D03*
X027019Y006160D03*
X025399Y006880D03*
X024252Y006682D03*
X022499Y006880D03*
X021352Y006682D03*
X021219Y006160D03*
X018452Y006682D03*
X019599Y006880D03*
X018319Y006160D03*
X016699Y006880D03*
X015552Y006682D03*
X015419Y006160D03*
X013799Y006880D03*
X012652Y006682D03*
X010899Y006880D03*
X009752Y006682D03*
X009619Y006160D03*
X012519Y006160D03*
X007999Y006880D03*
X006852Y006682D03*
X006719Y006160D03*
X005099Y006880D03*
X003952Y006682D03*
X002199Y006880D03*
X001052Y006682D03*
X000919Y006160D03*
X003819Y006160D03*
X024119Y006160D03*
X056019Y006160D03*
D13*
X056905Y008081D03*
X054005Y008081D03*
X051005Y008081D03*
X048105Y008081D03*
X045205Y008081D03*
X042405Y008081D03*
X039505Y008081D03*
X036605Y008081D03*
X033705Y008081D03*
X030805Y008081D03*
X027905Y008081D03*
X025005Y008081D03*
X022105Y008081D03*
X019205Y008081D03*
X016305Y008081D03*
X013405Y008081D03*
X010505Y008081D03*
X007605Y008081D03*
X004705Y008081D03*
X001805Y008081D03*
X059805Y008081D03*
X062705Y008081D03*
X065605Y008081D03*
X068505Y008081D03*
X071405Y008091D03*
X074305Y008081D03*
X077205Y008081D03*
X080105Y008081D03*
X083005Y008081D03*
X085905Y008081D03*
X088805Y008081D03*
X091705Y008081D03*
D14*
X093155Y014141D03*
X088785Y021521D03*
D15*
X089785Y021421D03*
X090785Y021521D03*
X091785Y021421D03*
X093055Y013141D03*
X093155Y012141D03*
X093055Y011141D03*
D16*
X085905Y012501D03*
X086185Y015461D03*
X085305Y015821D03*
D17*
X085465Y013661D02*
X085465Y012941D01*
X085905Y012501D01*
X072825Y013181D02*
X072665Y013341D01*
X064105Y013341D01*
X063785Y013021D01*
X064345Y013021D02*
X063785Y012461D01*
X062665Y012461D01*
X064345Y013021D02*
X072105Y013021D01*
X072345Y012781D01*
X086105Y018101D02*
X086105Y018581D01*
X086825Y019301D01*
X089655Y019301D01*
X091785Y021421D01*
X090785Y021521D02*
X089005Y019781D01*
X088185Y019781D01*
D18*
X083785Y018941D03*
X083065Y016881D03*
X082465Y016061D03*
X079225Y015151D03*
X076985Y014781D03*
X080425Y014461D03*
X084265Y014701D03*
X085465Y013661D03*
D19*
X085465Y015461D01*
X085465Y015661D01*
X085305Y015821D01*
X085228Y015941D02*
X085382Y015941D01*
X085662Y015661D01*
X085828Y015661D01*
X086142Y015661D01*
X086305Y015498D01*
X086305Y013504D01*
X086182Y013381D01*
X086065Y013264D01*
X086065Y012554D01*
X086034Y012522D01*
X085985Y012405D01*
X085985Y012277D01*
X086034Y012160D01*
X086124Y012070D01*
X086241Y012021D01*
X086369Y012021D01*
X086425Y012044D01*
X086425Y010024D01*
X086262Y009861D01*
X086028Y009861D01*
X085665Y010224D01*
X085548Y010341D01*
X081308Y010341D01*
X081285Y010341D01*
X081565Y010621D01*
X082853Y010621D01*
X082884Y010590D01*
X083001Y010541D01*
X083129Y010541D01*
X083246Y010590D01*
X083336Y010680D01*
X083385Y010797D01*
X083385Y010925D01*
X083346Y011019D01*
X083425Y011098D01*
X085105Y012778D01*
X085105Y012929D01*
X085176Y013000D01*
X085225Y013117D01*
X085225Y013245D01*
X085176Y013362D01*
X085086Y013452D01*
X084969Y013501D01*
X084841Y013501D01*
X084724Y013452D01*
X084634Y013362D01*
X084585Y013245D01*
X084585Y013117D01*
X084634Y013000D01*
X084698Y012936D01*
X083745Y011984D01*
X083745Y012369D01*
X083816Y012440D01*
X083865Y012557D01*
X083865Y012685D01*
X083816Y012802D01*
X083726Y012892D01*
X083609Y012941D01*
X083481Y012941D01*
X083462Y012933D01*
X083416Y013042D01*
X083326Y013132D01*
X083209Y013181D01*
X083081Y013181D01*
X083070Y013176D01*
X083425Y013531D01*
X084297Y013531D01*
X084417Y013581D01*
X084747Y013581D01*
X084879Y013636D01*
X084980Y013737D01*
X085035Y013869D01*
X085035Y014013D01*
X084980Y014145D01*
X084879Y014246D01*
X084747Y014301D01*
X084417Y014301D01*
X084378Y014318D01*
X084490Y014364D01*
X084602Y014476D01*
X084663Y014622D01*
X084663Y014780D01*
X084602Y014926D01*
X084490Y015038D01*
X084373Y015086D01*
X085228Y015941D01*
X085070Y015783D02*
X085540Y015783D01*
X085465Y015461D02*
X086185Y015461D01*
X086305Y015466D02*
X084753Y015466D01*
X084595Y015308D02*
X086305Y015308D01*
X086305Y015149D02*
X084436Y015149D01*
X084538Y014991D02*
X086305Y014991D01*
X086305Y014832D02*
X084641Y014832D01*
X084663Y014673D02*
X086305Y014673D01*
X086305Y014515D02*
X084618Y014515D01*
X084471Y014356D02*
X086305Y014356D01*
X086305Y014198D02*
X084928Y014198D01*
X085024Y014039D02*
X086305Y014039D01*
X086305Y013881D02*
X085035Y013881D01*
X084965Y013722D02*
X086305Y013722D01*
X086305Y013564D02*
X084375Y013564D01*
X084677Y013405D02*
X083299Y013405D01*
X083140Y013247D02*
X084586Y013247D01*
X084597Y013088D02*
X083371Y013088D01*
X083637Y012929D02*
X084691Y012929D01*
X084532Y012771D02*
X083829Y012771D01*
X083865Y012612D02*
X084374Y012612D01*
X084215Y012454D02*
X083822Y012454D01*
X083745Y012295D02*
X084057Y012295D01*
X083898Y012137D02*
X083745Y012137D01*
X084147Y011820D02*
X086425Y011820D01*
X086425Y011978D02*
X084305Y011978D01*
X084464Y012137D02*
X086057Y012137D01*
X085985Y012295D02*
X084622Y012295D01*
X084781Y012454D02*
X086006Y012454D01*
X086065Y012612D02*
X084939Y012612D01*
X085098Y012771D02*
X086065Y012771D01*
X086065Y012929D02*
X085106Y012929D01*
X085213Y013088D02*
X086065Y013088D01*
X086065Y013247D02*
X085224Y013247D01*
X085134Y013405D02*
X086206Y013405D01*
X086182Y013381D02*
X086182Y013381D01*
X088298Y012771D02*
X091058Y012771D01*
X091018Y012811D02*
X092542Y011287D01*
X092525Y011247D01*
X092525Y011036D01*
X092606Y010841D01*
X092755Y010692D01*
X092950Y010611D01*
X093161Y010611D01*
X093355Y010692D01*
X093504Y010841D01*
X093585Y011036D01*
X093585Y011247D01*
X093504Y011441D01*
X093355Y011590D01*
X093283Y011620D01*
X093455Y011692D01*
X093604Y011841D01*
X093685Y012036D01*
X093685Y012247D01*
X093604Y012441D01*
X093455Y012590D01*
X093283Y012662D01*
X093355Y012692D01*
X093504Y012841D01*
X093585Y013036D01*
X093585Y013247D01*
X093825Y013247D01*
X093825Y013405D02*
X093520Y013405D01*
X093504Y013441D02*
X093355Y013590D01*
X093161Y013671D01*
X092950Y013671D01*
X092755Y013590D01*
X092606Y013441D01*
X092525Y013247D01*
X091497Y013247D01*
X091435Y013308D02*
X091312Y013431D01*
X090752Y013431D01*
X089762Y014421D01*
X089849Y014421D01*
X089966Y014470D01*
X089978Y014481D01*
X092397Y014481D01*
X092493Y014481D01*
X092581Y014518D01*
X092741Y014678D01*
X092809Y014745D01*
X092845Y014833D01*
X092845Y015969D01*
X092876Y016000D01*
X092925Y016117D01*
X092925Y016245D01*
X092876Y016362D01*
X092786Y016452D01*
X092669Y016501D01*
X092541Y016501D01*
X092424Y016452D01*
X092334Y016362D01*
X092285Y016245D01*
X092285Y016117D01*
X092334Y016000D01*
X092365Y015969D01*
X092365Y014981D01*
X092346Y014961D01*
X090018Y014961D01*
X089966Y015012D01*
X089849Y015061D01*
X089721Y015061D01*
X089604Y015012D01*
X089514Y014922D01*
X089465Y014805D01*
X089465Y014718D01*
X089435Y014748D01*
X089435Y015334D01*
X089832Y015731D01*
X089955Y015854D01*
X089955Y018014D01*
X089955Y018188D01*
X089102Y019041D01*
X089655Y019041D01*
X089706Y019041D01*
X089707Y019041D01*
X089751Y019060D01*
X089802Y019080D01*
X089802Y019081D01*
X089802Y019081D01*
X089836Y019114D01*
X091638Y020908D01*
X091680Y020891D01*
X091891Y020891D01*
X092085Y020972D01*
X092234Y021121D01*
X092315Y021316D01*
X092315Y021527D01*
X092234Y021721D01*
X092085Y021870D01*
X091891Y021951D01*
X091680Y021951D01*
X091485Y021870D01*
X091336Y021721D01*
X091306Y021649D01*
X091234Y021821D01*
X091085Y021970D01*
X090891Y022051D01*
X090680Y022051D01*
X090485Y021970D01*
X090336Y021821D01*
X090255Y021627D01*
X090255Y021416D01*
X090270Y021381D01*
X088899Y020041D01*
X088378Y020041D01*
X088366Y020052D01*
X088249Y020101D01*
X088121Y020101D01*
X088004Y020052D01*
X087914Y019962D01*
X087865Y019845D01*
X087865Y019717D01*
X087914Y019600D01*
X087953Y019561D01*
X086877Y019561D01*
X086773Y019561D01*
X086678Y019521D01*
X085958Y018801D01*
X085885Y018728D01*
X085848Y018641D01*
X085588Y018901D01*
X085422Y018901D01*
X084868Y018901D01*
X083988Y019781D01*
X083822Y019781D01*
X073782Y019781D01*
X073665Y019664D01*
X071542Y017541D01*
X071478Y017541D01*
X071406Y017612D01*
X071289Y017661D01*
X071161Y017661D01*
X071044Y017612D01*
X070954Y017522D01*
X070905Y017405D01*
X070905Y017277D01*
X070954Y017160D01*
X071044Y017070D01*
X071161Y017021D01*
X071044Y016972D01*
X070954Y016882D01*
X070905Y016765D01*
X070905Y016637D01*
X070954Y016520D01*
X071044Y016430D01*
X071065Y016421D01*
X071044Y016412D01*
X070954Y016322D01*
X070905Y016205D01*
X070905Y016077D01*
X070954Y015960D01*
X071044Y015870D01*
X071065Y015861D01*
X071044Y015852D01*
X070954Y015762D01*
X070905Y015645D01*
X070905Y015517D01*
X070954Y015400D01*
X071044Y015310D01*
X071161Y015261D01*
X071289Y015261D01*
X071406Y015310D01*
X071496Y015400D01*
X071545Y015517D01*
X071545Y015645D01*
X071529Y015683D01*
X071788Y015941D01*
X071905Y016058D01*
X071905Y016378D01*
X073525Y017998D01*
X073525Y017730D01*
X073641Y017451D01*
X073795Y017296D01*
X073795Y012326D01*
X073641Y012172D01*
X073525Y011892D01*
X073525Y011590D01*
X073641Y011311D01*
X073760Y011191D01*
X073654Y011191D01*
X072384Y012461D01*
X072409Y012461D01*
X072526Y012510D01*
X072616Y012600D01*
X072665Y012717D01*
X072665Y012845D01*
X072616Y012962D01*
X072526Y013052D01*
X072409Y013101D01*
X072393Y013101D01*
X072326Y013168D01*
X072252Y013241D01*
X072157Y013281D01*
X064397Y013281D01*
X064293Y013281D01*
X064198Y013241D01*
X063677Y012721D01*
X062858Y012721D01*
X062846Y012732D01*
X062729Y012781D01*
X062601Y012781D01*
X062484Y012732D01*
X062394Y012642D01*
X062345Y012525D01*
X062345Y012397D01*
X062394Y012280D01*
X062484Y012190D01*
X062601Y012141D01*
X062729Y012141D01*
X062846Y012190D01*
X062858Y012201D01*
X063647Y012201D01*
X063057Y011611D01*
X060265Y011614D01*
X060265Y013261D01*
X064025Y013261D01*
X064025Y013901D01*
X063990Y022223D01*
X064052Y022244D01*
X064719Y022338D01*
X065039Y022341D01*
X065061Y022341D01*
X065111Y022339D01*
X065116Y022341D01*
X094185Y022341D01*
X094427Y022327D01*
X094899Y022219D01*
X095335Y022006D01*
X095712Y021702D01*
X096010Y021320D01*
X096215Y020881D01*
X096316Y020407D01*
X096308Y019923D01*
X096191Y019453D01*
X095972Y019021D01*
X095661Y018650D01*
X095275Y018357D01*
X094832Y018160D01*
X094357Y018067D01*
X094121Y018061D01*
X094110Y018061D01*
X094059Y018063D01*
X094054Y018061D01*
X094049Y018061D01*
X094003Y018042D01*
X093955Y018024D01*
X093951Y018020D01*
X093947Y018018D01*
X093911Y017983D01*
X093873Y017947D01*
X093871Y017943D01*
X093868Y017940D01*
X093848Y017893D01*
X093827Y017846D01*
X093827Y017841D01*
X093825Y017837D01*
X093825Y017786D01*
X093824Y017735D01*
X093825Y017730D01*
X093825Y009741D01*
X089828Y009741D01*
X089068Y010501D01*
X092022Y010501D01*
X092265Y010258D01*
X092265Y010157D01*
X092314Y010040D01*
X092404Y009950D01*
X092521Y009901D01*
X092649Y009901D01*
X092766Y009950D01*
X092856Y010040D01*
X092905Y010157D01*
X092905Y010285D01*
X092856Y010402D01*
X092766Y010492D01*
X092649Y010541D01*
X092548Y010541D01*
X092188Y010901D01*
X092022Y010901D01*
X087948Y010901D01*
X087505Y011344D01*
X092485Y011344D01*
X092525Y011185D02*
X087664Y011185D01*
X087822Y011027D02*
X092529Y011027D01*
X092594Y010868D02*
X092221Y010868D01*
X092379Y010710D02*
X092737Y010710D01*
X092538Y010551D02*
X093825Y010551D01*
X093825Y010393D02*
X092860Y010393D01*
X092905Y010234D02*
X093825Y010234D01*
X093825Y010076D02*
X092871Y010076D01*
X092688Y009917D02*
X093825Y009917D01*
X093825Y009759D02*
X089811Y009759D01*
X089652Y009917D02*
X092483Y009917D01*
X092299Y010076D02*
X089493Y010076D01*
X089335Y010234D02*
X092265Y010234D01*
X092131Y010393D02*
X089176Y010393D01*
X086425Y010393D02*
X081336Y010393D01*
X081495Y010551D02*
X082977Y010551D01*
X083153Y010551D02*
X086425Y010551D01*
X086425Y010710D02*
X083349Y010710D01*
X083385Y010868D02*
X086425Y010868D01*
X086425Y011027D02*
X083354Y011027D01*
X083512Y011185D02*
X086425Y011185D01*
X086425Y011344D02*
X083671Y011344D01*
X083829Y011503D02*
X086425Y011503D01*
X086425Y011661D02*
X083988Y011661D01*
X081922Y012033D02*
X081856Y012006D01*
X081755Y011905D01*
X081700Y011773D01*
X081700Y011629D01*
X081737Y011541D01*
X078588Y011541D01*
X078422Y011541D01*
X077662Y010781D01*
X075301Y010781D01*
X076626Y012136D01*
X076525Y011892D01*
X076525Y011590D01*
X076641Y011311D01*
X076855Y011097D01*
X077134Y010981D01*
X077436Y010981D01*
X077716Y011097D01*
X077929Y011311D01*
X078045Y011590D01*
X078045Y011892D01*
X077929Y012172D01*
X077716Y012385D01*
X077702Y012391D01*
X077844Y012391D01*
X077967Y012391D01*
X078081Y012438D01*
X080434Y014791D01*
X081097Y014791D01*
X081450Y014438D01*
X081564Y014391D01*
X081687Y014391D01*
X081767Y014391D01*
X084013Y014391D01*
X084040Y014364D01*
X084072Y014351D01*
X083337Y014351D01*
X083174Y014351D01*
X083023Y014289D01*
X082233Y013499D01*
X082118Y013383D01*
X082055Y013233D01*
X082055Y012953D01*
X082030Y012926D01*
X081978Y012873D01*
X081975Y012867D01*
X081970Y012861D01*
X081944Y012791D01*
X081915Y012723D01*
X081915Y012715D01*
X081913Y012708D01*
X081915Y012634D01*
X081915Y012050D01*
X081922Y012033D01*
X081915Y012137D02*
X077944Y012137D01*
X078010Y011978D02*
X081828Y011978D01*
X081720Y011820D02*
X078045Y011820D01*
X078045Y011661D02*
X081700Y011661D01*
X081915Y012295D02*
X077806Y012295D01*
X078096Y012454D02*
X081915Y012454D01*
X081915Y012612D02*
X078255Y012612D01*
X078413Y012771D02*
X081935Y012771D01*
X082034Y012929D02*
X078572Y012929D01*
X078730Y013088D02*
X082055Y013088D01*
X082061Y013247D02*
X078889Y013247D01*
X079048Y013405D02*
X082139Y013405D01*
X082298Y013564D02*
X079206Y013564D01*
X079365Y013722D02*
X082456Y013722D01*
X082615Y013881D02*
X079523Y013881D01*
X079682Y014039D02*
X082774Y014039D01*
X082932Y014198D02*
X079840Y014198D01*
X079999Y014356D02*
X084059Y014356D01*
X081373Y014515D02*
X080157Y014515D01*
X080316Y014673D02*
X081214Y014673D01*
X081754Y015011D02*
X081488Y015277D01*
X081401Y015364D01*
X081287Y015411D01*
X080367Y015411D01*
X080244Y015411D01*
X080130Y015364D01*
X077777Y013011D01*
X076805Y013011D01*
X076803Y013012D01*
X076743Y013011D01*
X076684Y013011D01*
X076682Y013010D01*
X076680Y013010D01*
X076625Y012987D01*
X076570Y012964D01*
X076568Y012963D01*
X076567Y012962D01*
X076525Y012919D01*
X076482Y012877D01*
X076482Y012875D01*
X074835Y011191D01*
X074810Y011191D01*
X074929Y011311D01*
X075045Y011590D01*
X075045Y011892D01*
X074929Y012172D01*
X074775Y012326D01*
X074775Y017296D01*
X074870Y017391D01*
X076700Y017391D01*
X076855Y017237D01*
X077134Y017121D01*
X077436Y017121D01*
X077716Y017237D01*
X077929Y017451D01*
X078045Y017730D01*
X078045Y018032D01*
X077929Y018312D01*
X077820Y018421D01*
X080742Y018421D01*
X081342Y017821D01*
X081321Y017821D01*
X081204Y017772D01*
X081114Y017682D01*
X081065Y017565D01*
X081065Y017437D01*
X081075Y017413D01*
X081075Y016149D01*
X081065Y016125D01*
X081065Y015997D01*
X081114Y015880D01*
X081204Y015790D01*
X081321Y015741D01*
X081449Y015741D01*
X081505Y015764D01*
X081505Y015658D01*
X082145Y015018D01*
X082152Y015011D01*
X081767Y015011D01*
X081754Y015011D01*
X081616Y015149D02*
X082014Y015149D01*
X081856Y015308D02*
X081457Y015308D01*
X081697Y015466D02*
X074775Y015466D01*
X074775Y015308D02*
X080073Y015308D01*
X079915Y015149D02*
X074775Y015149D01*
X074775Y014991D02*
X079756Y014991D01*
X079598Y014832D02*
X074775Y014832D01*
X074775Y014673D02*
X079439Y014673D01*
X079281Y014515D02*
X074775Y014515D01*
X074775Y014356D02*
X079122Y014356D01*
X078964Y014198D02*
X074775Y014198D01*
X074775Y014039D02*
X078805Y014039D01*
X078646Y013881D02*
X074775Y013881D01*
X074775Y013722D02*
X078488Y013722D01*
X078329Y013564D02*
X074775Y013564D01*
X074775Y013405D02*
X078171Y013405D01*
X078012Y013247D02*
X074775Y013247D01*
X074775Y013088D02*
X077854Y013088D01*
X076535Y012929D02*
X074775Y012929D01*
X074775Y012771D02*
X076380Y012771D01*
X076225Y012612D02*
X074775Y012612D01*
X074775Y012454D02*
X076070Y012454D01*
X075915Y012295D02*
X074806Y012295D01*
X074944Y012137D02*
X075760Y012137D01*
X075605Y011978D02*
X075010Y011978D01*
X075045Y011820D02*
X075450Y011820D01*
X075295Y011661D02*
X075045Y011661D01*
X075009Y011503D02*
X075140Y011503D01*
X074985Y011344D02*
X074943Y011344D01*
X075697Y011185D02*
X076766Y011185D01*
X076627Y011344D02*
X075852Y011344D01*
X076007Y011503D02*
X076561Y011503D01*
X076525Y011661D02*
X076162Y011661D01*
X076317Y011820D02*
X076525Y011820D01*
X076561Y011978D02*
X076472Y011978D01*
X077943Y011344D02*
X078225Y011344D01*
X078067Y011185D02*
X077804Y011185D01*
X077908Y011027D02*
X077547Y011027D01*
X077750Y010868D02*
X075387Y010868D01*
X075542Y011027D02*
X077023Y011027D01*
X078009Y011503D02*
X078384Y011503D01*
X080825Y010221D02*
X081465Y010861D01*
X083065Y010861D01*
X080825Y010221D02*
X072425Y010221D01*
X072185Y009981D01*
X071265Y009821D02*
X071265Y010461D01*
X073342Y011503D02*
X073561Y011503D01*
X073525Y011661D02*
X073184Y011661D01*
X073025Y011820D02*
X073525Y011820D01*
X073561Y011978D02*
X072866Y011978D01*
X072708Y012137D02*
X073626Y012137D01*
X073765Y012295D02*
X072549Y012295D01*
X072391Y012454D02*
X073795Y012454D01*
X073795Y012612D02*
X072622Y012612D01*
X072665Y012771D02*
X073795Y012771D01*
X073795Y012929D02*
X072630Y012929D01*
X072440Y013088D02*
X073795Y013088D01*
X073795Y013247D02*
X072240Y013247D01*
X073795Y013405D02*
X064025Y013405D01*
X064025Y013564D02*
X073795Y013564D01*
X073795Y013722D02*
X064025Y013722D01*
X064025Y013881D02*
X073795Y013881D01*
X073795Y014039D02*
X064025Y014039D01*
X064024Y014198D02*
X073795Y014198D01*
X073795Y014356D02*
X064023Y014356D01*
X064023Y014515D02*
X073795Y014515D01*
X073795Y014673D02*
X064022Y014673D01*
X064021Y014832D02*
X073795Y014832D01*
X073795Y014991D02*
X064021Y014991D01*
X064020Y015149D02*
X073795Y015149D01*
X073795Y015308D02*
X071401Y015308D01*
X071524Y015466D02*
X073795Y015466D01*
X073795Y015625D02*
X071545Y015625D01*
X071630Y015783D02*
X073795Y015783D01*
X073795Y015942D02*
X071789Y015942D01*
X071905Y016100D02*
X073795Y016100D01*
X073795Y016259D02*
X071905Y016259D01*
X071944Y016417D02*
X073795Y016417D01*
X073795Y016576D02*
X072103Y016576D01*
X072261Y016734D02*
X073795Y016734D01*
X073795Y016893D02*
X072420Y016893D01*
X072578Y017052D02*
X073795Y017052D01*
X073795Y017210D02*
X072737Y017210D01*
X072896Y017369D02*
X073723Y017369D01*
X073609Y017527D02*
X073054Y017527D01*
X073213Y017686D02*
X073543Y017686D01*
X073525Y017844D02*
X073371Y017844D01*
X072163Y018161D02*
X064007Y018161D01*
X064008Y018003D02*
X072004Y018003D01*
X071846Y017844D02*
X064008Y017844D01*
X064009Y017686D02*
X071687Y017686D01*
X070959Y017527D02*
X064010Y017527D01*
X064010Y017369D02*
X070905Y017369D01*
X070933Y017210D02*
X064011Y017210D01*
X064012Y017052D02*
X071088Y017052D01*
X071161Y017021D02*
X071289Y017021D01*
X071327Y017005D01*
X071380Y017059D01*
X071289Y017021D01*
X071161Y017021D01*
X071362Y017052D02*
X071373Y017052D01*
X070965Y016893D02*
X064012Y016893D01*
X064013Y016734D02*
X070905Y016734D01*
X070931Y016576D02*
X064014Y016576D01*
X064014Y016417D02*
X071056Y016417D01*
X070928Y016259D02*
X064015Y016259D01*
X064016Y016100D02*
X070905Y016100D01*
X070972Y015942D02*
X064017Y015942D01*
X064017Y015783D02*
X070975Y015783D01*
X070905Y015625D02*
X064018Y015625D01*
X064019Y015466D02*
X070926Y015466D01*
X071049Y015308D02*
X064019Y015308D01*
X064210Y013247D02*
X060265Y013247D01*
X060265Y013088D02*
X064044Y013088D01*
X063886Y012929D02*
X060265Y012929D01*
X060265Y012771D02*
X062577Y012771D01*
X062753Y012771D02*
X063727Y012771D01*
X062381Y012612D02*
X060265Y012612D01*
X060265Y012454D02*
X062345Y012454D01*
X062387Y012295D02*
X060265Y012295D01*
X060265Y012137D02*
X063582Y012137D01*
X063424Y011978D02*
X060265Y011978D01*
X060265Y011820D02*
X063265Y011820D01*
X063107Y011661D02*
X060265Y011661D01*
X073501Y011344D02*
X073627Y011344D01*
X085655Y010234D02*
X086425Y010234D01*
X086425Y010076D02*
X085813Y010076D01*
X085972Y009917D02*
X086318Y009917D01*
X087505Y008688D02*
X087505Y008538D01*
X087622Y008421D01*
X087745Y008298D01*
X087862Y008181D01*
X088588Y008181D01*
X088705Y008298D01*
X088748Y008341D01*
X088902Y008341D01*
X089062Y008181D01*
X089126Y008181D01*
X089201Y008106D01*
X089321Y008056D01*
X089450Y008056D01*
X089569Y008106D01*
X089594Y008130D01*
X089622Y008101D01*
X089782Y007941D01*
X089948Y007941D01*
X091148Y007941D01*
X091265Y008058D01*
X091548Y008341D01*
X091782Y008341D01*
X092305Y007818D01*
X092305Y007184D01*
X092294Y007173D01*
X092168Y007225D01*
X092030Y007225D01*
X091903Y007173D01*
X091822Y007091D01*
X091747Y007166D01*
X091747Y007793D01*
X091653Y007887D01*
X091048Y007887D01*
X090955Y007793D01*
X090955Y007109D01*
X091048Y007016D01*
X091021Y007027D01*
X090883Y007027D01*
X090757Y006974D01*
X090660Y006877D01*
X090607Y006751D01*
X090607Y006613D01*
X090660Y006487D01*
X090674Y006473D01*
X090624Y006452D01*
X090527Y006355D01*
X090474Y006228D01*
X090474Y006091D01*
X090503Y006022D01*
X090422Y005941D01*
X089536Y005941D01*
X089536Y006533D01*
X089442Y006627D01*
X089433Y006627D01*
X089491Y006685D01*
X089544Y006811D01*
X089544Y006949D01*
X089491Y007076D01*
X089394Y007173D01*
X089268Y007225D01*
X089130Y007225D01*
X089003Y007173D01*
X088942Y007111D01*
X088847Y007206D01*
X088847Y007793D01*
X088753Y007887D01*
X088148Y007887D01*
X088055Y007793D01*
X088055Y007109D01*
X088148Y007016D01*
X088121Y007027D01*
X087983Y007027D01*
X087857Y006974D01*
X087760Y006877D01*
X087707Y006751D01*
X087707Y006613D01*
X087760Y006487D01*
X087774Y006473D01*
X087724Y006452D01*
X087627Y006355D01*
X087574Y006228D01*
X087574Y006133D01*
X087382Y005941D01*
X086985Y005941D01*
X087006Y005950D01*
X087096Y006040D01*
X087145Y006157D01*
X087145Y006258D01*
X087745Y006858D01*
X087745Y007024D01*
X087745Y007169D01*
X087816Y007240D01*
X087865Y007357D01*
X087865Y007485D01*
X087816Y007602D01*
X087726Y007692D01*
X087609Y007741D01*
X087481Y007741D01*
X087364Y007692D01*
X087274Y007602D01*
X087225Y007485D01*
X087225Y007357D01*
X087274Y007240D01*
X087345Y007169D01*
X087345Y007024D01*
X086862Y006541D01*
X086761Y006541D01*
X086644Y006492D01*
X086636Y006484D01*
X086636Y006533D01*
X086542Y006627D01*
X086533Y006627D01*
X086591Y006685D01*
X086644Y006811D01*
X086644Y006949D01*
X086591Y007076D01*
X086494Y007173D01*
X086368Y007225D01*
X086230Y007225D01*
X086103Y007173D01*
X086022Y007091D01*
X085947Y007166D01*
X085947Y007793D01*
X085853Y007887D01*
X085248Y007887D01*
X085155Y007793D01*
X085155Y007109D01*
X085248Y007016D01*
X085221Y007027D01*
X085083Y007027D01*
X084957Y006974D01*
X084860Y006877D01*
X084807Y006751D01*
X084807Y006613D01*
X084860Y006487D01*
X084874Y006473D01*
X084824Y006452D01*
X084731Y006360D01*
X084521Y006360D01*
X084404Y006243D01*
X084102Y005941D01*
X083736Y005941D01*
X083736Y006533D01*
X083642Y006627D01*
X083633Y006627D01*
X083691Y006685D01*
X083744Y006811D01*
X083744Y006949D01*
X083691Y007076D01*
X083594Y007173D01*
X083468Y007225D01*
X083330Y007225D01*
X083203Y007173D01*
X083122Y007091D01*
X083047Y007166D01*
X083047Y007793D01*
X082953Y007887D01*
X082498Y007887D01*
X082404Y007981D01*
X082489Y007981D01*
X082606Y008030D01*
X082696Y008120D01*
X082745Y008237D01*
X082745Y008338D01*
X082748Y008341D01*
X083622Y008341D01*
X083625Y008338D01*
X083625Y008237D01*
X083674Y008120D01*
X083764Y008030D01*
X083881Y007981D01*
X084009Y007981D01*
X084126Y008030D01*
X084216Y008120D01*
X084265Y008237D01*
X084265Y008365D01*
X084216Y008482D01*
X084198Y008501D01*
X086982Y008501D01*
X087148Y008501D01*
X087183Y008536D01*
X087290Y008536D01*
X087409Y008586D01*
X087501Y008677D01*
X087505Y008688D01*
X087505Y008649D02*
X087472Y008649D01*
X087553Y008490D02*
X084209Y008490D01*
X084265Y008332D02*
X087712Y008332D01*
X088739Y008332D02*
X088912Y008332D01*
X089134Y008173D02*
X084239Y008173D01*
X084090Y008015D02*
X089709Y008015D01*
X089140Y007746D02*
X088805Y008081D01*
X088805Y008081D01*
X085905Y008081D01*
X084505Y008061D01*
X084345Y007901D01*
X083705Y007901D01*
X083525Y008081D01*
X083005Y008081D01*
X083340Y007746D01*
X083340Y007451D01*
X083322Y007222D02*
X083047Y007222D01*
X083047Y007380D02*
X085155Y007380D01*
X085155Y007222D02*
X083475Y007222D01*
X083696Y007063D02*
X085200Y007063D01*
X084887Y006905D02*
X083744Y006905D01*
X083717Y006746D02*
X084807Y006746D01*
X084818Y006588D02*
X083681Y006588D01*
X083736Y006429D02*
X084801Y006429D01*
X084432Y006271D02*
X083736Y006271D01*
X083736Y006112D02*
X084273Y006112D01*
X084115Y005954D02*
X083736Y005954D01*
X081145Y005954D02*
X080836Y005954D01*
X080836Y005941D02*
X080836Y006533D01*
X080742Y006627D01*
X080733Y006627D01*
X080791Y006685D01*
X080844Y006811D01*
X080844Y006949D01*
X080791Y007076D01*
X080694Y007173D01*
X080568Y007225D01*
X080430Y007225D01*
X080303Y007173D01*
X080222Y007091D01*
X080147Y007166D01*
X080147Y007793D01*
X080053Y007887D01*
X079448Y007887D01*
X079355Y007793D01*
X079355Y007109D01*
X079448Y007016D01*
X079421Y007027D01*
X079283Y007027D01*
X079157Y006974D01*
X079060Y006877D01*
X079007Y006751D01*
X079007Y006613D01*
X079060Y006487D01*
X079074Y006473D01*
X079024Y006452D01*
X078927Y006355D01*
X078874Y006228D01*
X078874Y006091D01*
X078927Y005964D01*
X078950Y005941D01*
X077936Y005941D01*
X077936Y006533D01*
X077842Y006627D01*
X077833Y006627D01*
X077891Y006685D01*
X077944Y006811D01*
X077944Y006949D01*
X077891Y007076D01*
X077794Y007173D01*
X077668Y007225D01*
X077530Y007225D01*
X077403Y007173D01*
X077307Y007076D01*
X077247Y007136D01*
X077247Y007793D01*
X077153Y007887D01*
X076548Y007887D01*
X076455Y007793D01*
X076455Y007109D01*
X076548Y007016D01*
X076521Y007027D01*
X076383Y007027D01*
X076257Y006974D01*
X076160Y006877D01*
X076107Y006751D01*
X076107Y006613D01*
X076160Y006487D01*
X076174Y006473D01*
X076124Y006452D01*
X076027Y006355D01*
X075974Y006228D01*
X075974Y006091D01*
X076027Y005964D01*
X076050Y005941D01*
X075036Y005941D01*
X075036Y006533D01*
X074942Y006627D01*
X074933Y006627D01*
X074991Y006685D01*
X075044Y006811D01*
X075044Y006949D01*
X074991Y007076D01*
X074894Y007173D01*
X074768Y007225D01*
X074630Y007225D01*
X074503Y007173D01*
X074417Y007086D01*
X074347Y007156D01*
X074347Y007793D01*
X074253Y007887D01*
X073648Y007887D01*
X073555Y007793D01*
X073555Y007109D01*
X073648Y007016D01*
X073621Y007027D01*
X073483Y007027D01*
X073357Y006974D01*
X073260Y006877D01*
X073207Y006751D01*
X073207Y006613D01*
X073260Y006487D01*
X073274Y006473D01*
X073224Y006452D01*
X073127Y006355D01*
X073074Y006228D01*
X073074Y006091D01*
X073127Y005964D01*
X073150Y005941D01*
X072136Y005941D01*
X072136Y006543D01*
X072042Y006637D01*
X072033Y006637D01*
X072091Y006695D01*
X072144Y006821D01*
X072144Y006959D01*
X072091Y007086D01*
X071994Y007183D01*
X071868Y007235D01*
X071730Y007235D01*
X071603Y007183D01*
X071522Y007101D01*
X071447Y007176D01*
X071447Y007803D01*
X071353Y007897D01*
X070898Y007897D01*
X070454Y008341D01*
X081145Y008341D01*
X081145Y005941D01*
X080836Y005941D01*
X080836Y006112D02*
X081145Y006112D01*
X081145Y006271D02*
X080836Y006271D01*
X080836Y006429D02*
X081145Y006429D01*
X081145Y006588D02*
X080781Y006588D01*
X080817Y006746D02*
X081145Y006746D01*
X081145Y006905D02*
X080844Y006905D01*
X080796Y007063D02*
X081145Y007063D01*
X081145Y007222D02*
X080575Y007222D01*
X080422Y007222D02*
X080147Y007222D01*
X080147Y007380D02*
X081145Y007380D01*
X081145Y007539D02*
X080147Y007539D01*
X080147Y007698D02*
X081145Y007698D01*
X081145Y007856D02*
X080084Y007856D01*
X080105Y008081D02*
X080440Y007746D01*
X080440Y007451D01*
X079355Y007380D02*
X077247Y007380D01*
X077247Y007222D02*
X077522Y007222D01*
X077675Y007222D02*
X079355Y007222D01*
X079400Y007063D02*
X077896Y007063D01*
X077944Y006905D02*
X079087Y006905D01*
X079007Y006746D02*
X077917Y006746D01*
X077881Y006588D02*
X079018Y006588D01*
X079001Y006429D02*
X077936Y006429D01*
X077936Y006271D02*
X078892Y006271D01*
X078874Y006112D02*
X077936Y006112D01*
X077936Y005954D02*
X078938Y005954D01*
X076101Y006429D02*
X075036Y006429D01*
X075036Y006271D02*
X075992Y006271D01*
X075974Y006112D02*
X075036Y006112D01*
X075036Y005954D02*
X076038Y005954D01*
X076118Y006588D02*
X074981Y006588D01*
X075017Y006746D02*
X076107Y006746D01*
X076187Y006905D02*
X075044Y006905D01*
X074996Y007063D02*
X076500Y007063D01*
X076455Y007222D02*
X074775Y007222D01*
X074622Y007222D02*
X074347Y007222D01*
X074347Y007380D02*
X076455Y007380D01*
X076455Y007539D02*
X074347Y007539D01*
X074347Y007698D02*
X076455Y007698D01*
X076518Y007856D02*
X074284Y007856D01*
X074258Y008033D02*
X074305Y008081D01*
X077205Y008081D01*
X080105Y008081D01*
X079418Y007856D02*
X077184Y007856D01*
X077247Y007698D02*
X079355Y007698D01*
X079355Y007539D02*
X077247Y007539D01*
X077540Y007451D02*
X077540Y007746D01*
X077205Y008081D01*
X074640Y007746D02*
X074640Y007451D01*
X074640Y007746D02*
X074305Y008081D01*
X074258Y008033D02*
X071463Y008033D01*
X071740Y007756D01*
X071740Y007461D01*
X071698Y007222D02*
X071447Y007222D01*
X071447Y007380D02*
X073555Y007380D01*
X073555Y007222D02*
X071899Y007222D01*
X072101Y007063D02*
X073600Y007063D01*
X073287Y006905D02*
X072144Y006905D01*
X072113Y006746D02*
X073207Y006746D01*
X073218Y006588D02*
X072091Y006588D01*
X072136Y006429D02*
X073201Y006429D01*
X073092Y006271D02*
X072136Y006271D01*
X072136Y006112D02*
X073074Y006112D01*
X073138Y005954D02*
X072136Y005954D01*
X069785Y005954D02*
X069236Y005954D01*
X069236Y005941D02*
X069236Y006533D01*
X069142Y006627D01*
X069133Y006627D01*
X069191Y006685D01*
X069244Y006811D01*
X069244Y006949D01*
X069191Y007076D01*
X069094Y007173D01*
X068968Y007225D01*
X068830Y007225D01*
X068703Y007173D01*
X068637Y007106D01*
X068547Y007196D01*
X068547Y007793D01*
X068453Y007887D01*
X067848Y007887D01*
X067755Y007793D01*
X067755Y007109D01*
X067848Y007016D01*
X067821Y007027D01*
X067683Y007027D01*
X067557Y006974D01*
X067460Y006877D01*
X067407Y006751D01*
X067407Y006613D01*
X067460Y006487D01*
X067474Y006473D01*
X067424Y006452D01*
X067327Y006355D01*
X067274Y006228D01*
X067274Y006091D01*
X067327Y005964D01*
X067350Y005941D01*
X066336Y005941D01*
X066336Y006533D01*
X066242Y006627D01*
X066233Y006627D01*
X066291Y006685D01*
X066344Y006811D01*
X066344Y006949D01*
X066291Y007076D01*
X066194Y007173D01*
X066068Y007225D01*
X065930Y007225D01*
X065803Y007173D01*
X065707Y007076D01*
X065647Y007136D01*
X065647Y007793D01*
X065553Y007887D01*
X064948Y007887D01*
X064855Y007793D01*
X064855Y007109D01*
X064948Y007016D01*
X064921Y007027D01*
X064783Y007027D01*
X064657Y006974D01*
X064560Y006877D01*
X064507Y006751D01*
X064507Y006613D01*
X064560Y006487D01*
X064574Y006473D01*
X064524Y006452D01*
X064427Y006355D01*
X064374Y006228D01*
X064374Y006091D01*
X064427Y005964D01*
X064450Y005941D01*
X063436Y005941D01*
X063436Y006533D01*
X063342Y006627D01*
X063333Y006627D01*
X063391Y006685D01*
X063444Y006811D01*
X063444Y006949D01*
X063391Y007076D01*
X063294Y007173D01*
X063168Y007225D01*
X063030Y007225D01*
X062903Y007173D01*
X062817Y007086D01*
X062747Y007156D01*
X062747Y007793D01*
X062653Y007887D01*
X062048Y007887D01*
X061955Y007793D01*
X061955Y007109D01*
X062048Y007016D01*
X062021Y007027D01*
X061883Y007027D01*
X061757Y006974D01*
X061660Y006877D01*
X061607Y006751D01*
X061607Y006613D01*
X061660Y006487D01*
X061674Y006473D01*
X061624Y006452D01*
X061527Y006355D01*
X061474Y006228D01*
X061474Y006091D01*
X061527Y005964D01*
X061550Y005941D01*
X060536Y005941D01*
X060536Y006533D01*
X060442Y006627D01*
X060433Y006627D01*
X060491Y006685D01*
X060544Y006811D01*
X060544Y006949D01*
X060491Y007076D01*
X060394Y007173D01*
X060268Y007225D01*
X060130Y007225D01*
X060003Y007173D01*
X059927Y007096D01*
X059847Y007176D01*
X059847Y007793D01*
X059753Y007887D01*
X059298Y007887D01*
X058844Y008341D01*
X069785Y008341D01*
X069785Y005941D01*
X069236Y005941D01*
X069236Y006112D02*
X069785Y006112D01*
X069785Y006271D02*
X069236Y006271D01*
X069236Y006429D02*
X069785Y006429D01*
X069785Y006588D02*
X069181Y006588D01*
X069217Y006746D02*
X069785Y006746D01*
X069785Y006905D02*
X069244Y006905D01*
X069196Y007063D02*
X069785Y007063D01*
X069785Y007222D02*
X068975Y007222D01*
X068822Y007222D02*
X068547Y007222D01*
X068547Y007380D02*
X069785Y007380D01*
X069785Y007539D02*
X068547Y007539D01*
X068547Y007698D02*
X069785Y007698D01*
X069785Y007856D02*
X068484Y007856D01*
X068505Y008081D02*
X068840Y007746D01*
X068840Y007451D01*
X067755Y007380D02*
X065647Y007380D01*
X065647Y007222D02*
X065922Y007222D01*
X066075Y007222D02*
X067755Y007222D01*
X067800Y007063D02*
X066296Y007063D01*
X066344Y006905D02*
X067487Y006905D01*
X067407Y006746D02*
X066317Y006746D01*
X066281Y006588D02*
X067418Y006588D01*
X067401Y006429D02*
X066336Y006429D01*
X066336Y006271D02*
X067292Y006271D01*
X067274Y006112D02*
X066336Y006112D01*
X066336Y005954D02*
X067338Y005954D01*
X064501Y006429D02*
X063436Y006429D01*
X063436Y006271D02*
X064392Y006271D01*
X064374Y006112D02*
X063436Y006112D01*
X063436Y005954D02*
X064438Y005954D01*
X064518Y006588D02*
X063381Y006588D01*
X063417Y006746D02*
X064507Y006746D01*
X064587Y006905D02*
X063444Y006905D01*
X063396Y007063D02*
X064900Y007063D01*
X064855Y007222D02*
X063175Y007222D01*
X063022Y007222D02*
X062747Y007222D01*
X062747Y007380D02*
X064855Y007380D01*
X064855Y007539D02*
X062747Y007539D01*
X062747Y007698D02*
X064855Y007698D01*
X064918Y007856D02*
X062684Y007856D01*
X062705Y008081D02*
X065605Y008081D01*
X068505Y008081D01*
X067818Y007856D02*
X065584Y007856D01*
X065647Y007698D02*
X067755Y007698D01*
X067755Y007539D02*
X065647Y007539D01*
X065940Y007451D02*
X065940Y007746D01*
X065605Y008081D01*
X063040Y007746D02*
X063040Y007451D01*
X063040Y007746D02*
X062705Y008081D01*
X059805Y008081D01*
X060140Y007746D01*
X060140Y007451D01*
X060122Y007222D02*
X059847Y007222D01*
X059847Y007380D02*
X061955Y007380D01*
X061955Y007222D02*
X060275Y007222D01*
X060496Y007063D02*
X062000Y007063D01*
X061687Y006905D02*
X060544Y006905D01*
X060517Y006746D02*
X061607Y006746D01*
X061618Y006588D02*
X060481Y006588D01*
X060536Y006429D02*
X061601Y006429D01*
X061492Y006271D02*
X060536Y006271D01*
X060536Y006112D02*
X061474Y006112D01*
X061538Y005954D02*
X060536Y005954D01*
X058105Y005954D02*
X057636Y005954D01*
X057636Y005941D02*
X057636Y006533D01*
X057542Y006627D01*
X057533Y006627D01*
X057591Y006685D01*
X057644Y006811D01*
X057644Y006949D01*
X057591Y007076D01*
X057494Y007173D01*
X057368Y007225D01*
X057230Y007225D01*
X057103Y007173D01*
X057037Y007106D01*
X056947Y007196D01*
X056947Y007793D01*
X056853Y007887D01*
X056248Y007887D01*
X056155Y007793D01*
X056155Y007109D01*
X056248Y007016D01*
X056221Y007027D01*
X056083Y007027D01*
X055957Y006974D01*
X055860Y006877D01*
X055807Y006751D01*
X055807Y006613D01*
X055860Y006487D01*
X055874Y006473D01*
X055824Y006452D01*
X055727Y006355D01*
X055674Y006228D01*
X055674Y006091D01*
X055727Y005964D01*
X055750Y005941D01*
X054736Y005941D01*
X054736Y006533D01*
X054642Y006627D01*
X054633Y006627D01*
X054691Y006685D01*
X054744Y006811D01*
X054744Y006949D01*
X054691Y007076D01*
X054594Y007173D01*
X054468Y007225D01*
X054330Y007225D01*
X054203Y007173D01*
X054107Y007076D01*
X054047Y007136D01*
X054047Y007793D01*
X053953Y007887D01*
X053348Y007887D01*
X053255Y007793D01*
X053255Y007109D01*
X053348Y007016D01*
X053321Y007027D01*
X053183Y007027D01*
X053057Y006974D01*
X052960Y006877D01*
X052907Y006751D01*
X052907Y006613D01*
X052960Y006487D01*
X052974Y006473D01*
X052924Y006452D01*
X052827Y006355D01*
X052774Y006228D01*
X052774Y006091D01*
X052827Y005964D01*
X052850Y005941D01*
X051736Y005941D01*
X051736Y006533D01*
X051642Y006627D01*
X051633Y006627D01*
X051691Y006685D01*
X051744Y006811D01*
X051744Y006949D01*
X051691Y007076D01*
X051594Y007173D01*
X051468Y007225D01*
X051330Y007225D01*
X051203Y007173D01*
X051127Y007096D01*
X051047Y007176D01*
X051047Y007793D01*
X050953Y007887D01*
X050348Y007887D01*
X050255Y007793D01*
X050255Y007109D01*
X050348Y007016D01*
X050321Y007027D01*
X050183Y007027D01*
X050057Y006974D01*
X049960Y006877D01*
X049907Y006751D01*
X049907Y006613D01*
X049960Y006487D01*
X049974Y006473D01*
X049924Y006452D01*
X049827Y006355D01*
X049774Y006228D01*
X049774Y006091D01*
X049827Y005964D01*
X049850Y005941D01*
X048836Y005941D01*
X048836Y006533D01*
X048742Y006627D01*
X048733Y006627D01*
X048791Y006685D01*
X048844Y006811D01*
X048844Y006949D01*
X048791Y007076D01*
X048694Y007173D01*
X048568Y007225D01*
X048430Y007225D01*
X048303Y007173D01*
X048237Y007106D01*
X048147Y007196D01*
X048147Y007793D01*
X048053Y007887D01*
X047598Y007887D01*
X047144Y008341D01*
X058105Y008341D01*
X058105Y005941D01*
X057636Y005941D01*
X057636Y006112D02*
X058105Y006112D01*
X058105Y006271D02*
X057636Y006271D01*
X057636Y006429D02*
X058105Y006429D01*
X058105Y006588D02*
X057581Y006588D01*
X057617Y006746D02*
X058105Y006746D01*
X058105Y006905D02*
X057644Y006905D01*
X057596Y007063D02*
X058105Y007063D01*
X058105Y007222D02*
X057375Y007222D01*
X057222Y007222D02*
X056947Y007222D01*
X056947Y007380D02*
X058105Y007380D01*
X058105Y007539D02*
X056947Y007539D01*
X056947Y007698D02*
X058105Y007698D01*
X058105Y007856D02*
X056884Y007856D01*
X056905Y008081D02*
X057240Y007746D01*
X057240Y007451D01*
X056155Y007380D02*
X054047Y007380D01*
X054047Y007222D02*
X054322Y007222D01*
X054475Y007222D02*
X056155Y007222D01*
X056200Y007063D02*
X054696Y007063D01*
X054744Y006905D02*
X055887Y006905D01*
X055807Y006746D02*
X054717Y006746D01*
X054681Y006588D02*
X055818Y006588D01*
X055801Y006429D02*
X054736Y006429D01*
X054736Y006271D02*
X055692Y006271D01*
X055674Y006112D02*
X054736Y006112D01*
X054736Y005954D02*
X055738Y005954D01*
X052901Y006429D02*
X051736Y006429D01*
X051736Y006271D02*
X052792Y006271D01*
X052774Y006112D02*
X051736Y006112D01*
X051736Y005954D02*
X052838Y005954D01*
X052918Y006588D02*
X051681Y006588D01*
X051717Y006746D02*
X052907Y006746D01*
X052987Y006905D02*
X051744Y006905D01*
X051696Y007063D02*
X053300Y007063D01*
X053255Y007222D02*
X051475Y007222D01*
X051322Y007222D02*
X051047Y007222D01*
X051047Y007380D02*
X053255Y007380D01*
X053255Y007539D02*
X051047Y007539D01*
X051047Y007698D02*
X053255Y007698D01*
X053318Y007856D02*
X050984Y007856D01*
X051005Y008081D02*
X054005Y008081D01*
X056905Y008081D01*
X056218Y007856D02*
X053984Y007856D01*
X054047Y007698D02*
X056155Y007698D01*
X056155Y007539D02*
X054047Y007539D01*
X054340Y007451D02*
X054340Y007746D01*
X054005Y008081D01*
X051340Y007746D02*
X051340Y007451D01*
X051340Y007746D02*
X051005Y008081D01*
X048105Y008081D01*
X048440Y007746D01*
X048440Y007451D01*
X048422Y007222D02*
X048147Y007222D01*
X048147Y007380D02*
X050255Y007380D01*
X050255Y007222D02*
X048575Y007222D01*
X048796Y007063D02*
X050300Y007063D01*
X049987Y006905D02*
X048844Y006905D01*
X048817Y006746D02*
X049907Y006746D01*
X049918Y006588D02*
X048781Y006588D01*
X048836Y006429D02*
X049901Y006429D01*
X049792Y006271D02*
X048836Y006271D01*
X048836Y006112D02*
X049774Y006112D01*
X049838Y005954D02*
X048836Y005954D01*
X046425Y005954D02*
X045936Y005954D01*
X045936Y005941D02*
X045936Y006533D01*
X045842Y006627D01*
X045833Y006627D01*
X045891Y006685D01*
X045944Y006811D01*
X045944Y006949D01*
X045891Y007076D01*
X045794Y007173D01*
X045668Y007225D01*
X045530Y007225D01*
X045403Y007173D01*
X045307Y007076D01*
X045247Y007136D01*
X045247Y007793D01*
X045153Y007887D01*
X044548Y007887D01*
X044455Y007793D01*
X044455Y007109D01*
X044548Y007016D01*
X044521Y007027D01*
X044383Y007027D01*
X044257Y006974D01*
X044160Y006877D01*
X044107Y006751D01*
X044107Y006613D01*
X044160Y006487D01*
X044174Y006473D01*
X044124Y006452D01*
X044027Y006355D01*
X043974Y006228D01*
X043974Y006091D01*
X044027Y005964D01*
X044050Y005941D01*
X043136Y005941D01*
X043136Y006533D01*
X043042Y006627D01*
X043033Y006627D01*
X043091Y006685D01*
X043144Y006811D01*
X043144Y006949D01*
X043091Y007076D01*
X042994Y007173D01*
X042868Y007225D01*
X042730Y007225D01*
X042603Y007173D01*
X042507Y007076D01*
X042447Y007136D01*
X042447Y007793D01*
X042353Y007887D01*
X041748Y007887D01*
X041655Y007793D01*
X041655Y007109D01*
X041748Y007016D01*
X041721Y007027D01*
X041583Y007027D01*
X041457Y006974D01*
X041360Y006877D01*
X041307Y006751D01*
X041307Y006613D01*
X041360Y006487D01*
X041374Y006473D01*
X041324Y006452D01*
X041227Y006355D01*
X041174Y006228D01*
X041174Y006091D01*
X041227Y005964D01*
X041250Y005941D01*
X040236Y005941D01*
X040236Y006533D01*
X040142Y006627D01*
X040133Y006627D01*
X040191Y006685D01*
X040244Y006811D01*
X040244Y006949D01*
X040191Y007076D01*
X040094Y007173D01*
X039968Y007225D01*
X039830Y007225D01*
X039703Y007173D01*
X039617Y007086D01*
X039547Y007156D01*
X039547Y007793D01*
X039453Y007887D01*
X038848Y007887D01*
X038755Y007793D01*
X038755Y007109D01*
X038848Y007016D01*
X038821Y007027D01*
X038683Y007027D01*
X038557Y006974D01*
X038460Y006877D01*
X038407Y006751D01*
X038407Y006613D01*
X038460Y006487D01*
X038474Y006473D01*
X038424Y006452D01*
X038327Y006355D01*
X038274Y006228D01*
X038274Y006091D01*
X038327Y005964D01*
X038350Y005941D01*
X037336Y005941D01*
X037336Y006533D01*
X037242Y006627D01*
X037233Y006627D01*
X037291Y006685D01*
X037344Y006811D01*
X037344Y006949D01*
X037291Y007076D01*
X037194Y007173D01*
X037068Y007225D01*
X036930Y007225D01*
X036803Y007173D01*
X036727Y007096D01*
X036647Y007176D01*
X036647Y007793D01*
X036553Y007887D01*
X036098Y007887D01*
X035644Y008341D01*
X046425Y008341D01*
X046425Y005941D01*
X045936Y005941D01*
X045936Y006112D02*
X046425Y006112D01*
X046425Y006271D02*
X045936Y006271D01*
X045936Y006429D02*
X046425Y006429D01*
X046425Y006588D02*
X045881Y006588D01*
X045917Y006746D02*
X046425Y006746D01*
X046425Y006905D02*
X045944Y006905D01*
X045896Y007063D02*
X046425Y007063D01*
X046425Y007222D02*
X045675Y007222D01*
X045522Y007222D02*
X045247Y007222D01*
X045247Y007380D02*
X046425Y007380D01*
X046425Y007539D02*
X045247Y007539D01*
X045247Y007698D02*
X046425Y007698D01*
X046425Y007856D02*
X045184Y007856D01*
X045205Y008081D02*
X045540Y007746D01*
X045540Y007451D01*
X044455Y007380D02*
X042447Y007380D01*
X042447Y007222D02*
X042722Y007222D01*
X042875Y007222D02*
X044455Y007222D01*
X044500Y007063D02*
X043096Y007063D01*
X043144Y006905D02*
X044187Y006905D01*
X044107Y006746D02*
X043117Y006746D01*
X043081Y006588D02*
X044118Y006588D01*
X044101Y006429D02*
X043136Y006429D01*
X043136Y006271D02*
X043992Y006271D01*
X043974Y006112D02*
X043136Y006112D01*
X043136Y005954D02*
X044038Y005954D01*
X041301Y006429D02*
X040236Y006429D01*
X040236Y006271D02*
X041192Y006271D01*
X041174Y006112D02*
X040236Y006112D01*
X040236Y005954D02*
X041238Y005954D01*
X038401Y006429D02*
X037336Y006429D01*
X037336Y006271D02*
X038292Y006271D01*
X038274Y006112D02*
X037336Y006112D01*
X037336Y005954D02*
X038338Y005954D01*
X038418Y006588D02*
X037281Y006588D01*
X037317Y006746D02*
X038407Y006746D01*
X038487Y006905D02*
X037344Y006905D01*
X037296Y007063D02*
X038800Y007063D01*
X038755Y007222D02*
X037075Y007222D01*
X036922Y007222D02*
X036647Y007222D01*
X036647Y007380D02*
X038755Y007380D01*
X038755Y007539D02*
X036647Y007539D01*
X036647Y007698D02*
X038755Y007698D01*
X038818Y007856D02*
X036584Y007856D01*
X036605Y008081D02*
X036940Y007746D01*
X036940Y007451D01*
X036605Y008081D02*
X039505Y008081D01*
X042405Y008081D01*
X045205Y008081D01*
X044518Y007856D02*
X042384Y007856D01*
X042447Y007698D02*
X044455Y007698D01*
X044455Y007539D02*
X042447Y007539D01*
X042740Y007451D02*
X042740Y007746D01*
X042405Y008081D01*
X041718Y007856D02*
X039484Y007856D01*
X039547Y007698D02*
X041655Y007698D01*
X041655Y007539D02*
X039547Y007539D01*
X039547Y007380D02*
X041655Y007380D01*
X041655Y007222D02*
X039975Y007222D01*
X039822Y007222D02*
X039547Y007222D01*
X039840Y007451D02*
X039840Y007746D01*
X039505Y008081D01*
X040196Y007063D02*
X041700Y007063D01*
X041387Y006905D02*
X040244Y006905D01*
X040217Y006746D02*
X041307Y006746D01*
X041318Y006588D02*
X040181Y006588D01*
X034905Y006588D02*
X034381Y006588D01*
X034342Y006627D02*
X034333Y006627D01*
X034391Y006685D01*
X034444Y006811D01*
X034444Y006949D01*
X034391Y007076D01*
X034294Y007173D01*
X034168Y007225D01*
X034030Y007225D01*
X033903Y007173D01*
X033806Y007076D01*
X033805Y007071D01*
X033792Y007071D01*
X033747Y007116D01*
X033747Y007793D01*
X033653Y007887D01*
X033048Y007887D01*
X032955Y007793D01*
X032955Y007109D01*
X033048Y007016D01*
X033021Y007027D01*
X032883Y007027D01*
X032757Y006974D01*
X032660Y006877D01*
X032607Y006751D01*
X032607Y006613D01*
X032660Y006487D01*
X032674Y006473D01*
X032624Y006452D01*
X032527Y006355D01*
X032474Y006228D01*
X032474Y006091D01*
X032527Y005964D01*
X032550Y005941D01*
X031536Y005941D01*
X031536Y006533D01*
X031442Y006627D01*
X031433Y006627D01*
X031491Y006685D01*
X031544Y006811D01*
X031544Y006949D01*
X031491Y007076D01*
X031394Y007173D01*
X031268Y007225D01*
X031130Y007225D01*
X031003Y007173D01*
X030907Y007076D01*
X030847Y007136D01*
X030847Y007793D01*
X030753Y007887D01*
X030148Y007887D01*
X030055Y007793D01*
X030055Y007109D01*
X030148Y007016D01*
X030121Y007027D01*
X029983Y007027D01*
X029857Y006974D01*
X029760Y006877D01*
X029707Y006751D01*
X029707Y006613D01*
X029760Y006487D01*
X029774Y006473D01*
X029724Y006452D01*
X029627Y006355D01*
X029574Y006228D01*
X029574Y006091D01*
X029627Y005964D01*
X029650Y005941D01*
X028636Y005941D01*
X028636Y006533D01*
X028542Y006627D01*
X028533Y006627D01*
X028591Y006685D01*
X028644Y006811D01*
X028644Y006949D01*
X028591Y007076D01*
X028494Y007173D01*
X028368Y007225D01*
X028230Y007225D01*
X028103Y007173D01*
X028017Y007086D01*
X027947Y007156D01*
X027947Y007793D01*
X027853Y007887D01*
X027248Y007887D01*
X027155Y007793D01*
X027155Y007109D01*
X027248Y007016D01*
X027221Y007027D01*
X027083Y007027D01*
X026957Y006974D01*
X026860Y006877D01*
X026807Y006751D01*
X026807Y006613D01*
X026860Y006487D01*
X026874Y006473D01*
X026824Y006452D01*
X026727Y006355D01*
X026674Y006228D01*
X026674Y006091D01*
X026727Y005964D01*
X026750Y005941D01*
X025736Y005941D01*
X025736Y006533D01*
X025642Y006627D01*
X025633Y006627D01*
X025691Y006685D01*
X025744Y006811D01*
X025744Y006949D01*
X025691Y007076D01*
X025594Y007173D01*
X025468Y007225D01*
X025330Y007225D01*
X025203Y007173D01*
X025127Y007096D01*
X025047Y007176D01*
X025047Y007793D01*
X024953Y007887D01*
X024498Y007887D01*
X024044Y008341D01*
X034905Y008341D01*
X034905Y005941D01*
X034436Y005941D01*
X034436Y006533D01*
X034342Y006627D01*
X034417Y006746D02*
X034905Y006746D01*
X034905Y006905D02*
X034444Y006905D01*
X034396Y007063D02*
X034905Y007063D01*
X034905Y007222D02*
X034175Y007222D01*
X034022Y007222D02*
X033747Y007222D01*
X033747Y007380D02*
X034905Y007380D01*
X034905Y007539D02*
X033747Y007539D01*
X033747Y007698D02*
X034905Y007698D01*
X034905Y007856D02*
X033684Y007856D01*
X033705Y008081D02*
X034040Y007746D01*
X034040Y007451D01*
X032955Y007380D02*
X030847Y007380D01*
X030847Y007222D02*
X031122Y007222D01*
X031275Y007222D02*
X032955Y007222D01*
X033000Y007063D02*
X031496Y007063D01*
X031544Y006905D02*
X032687Y006905D01*
X032607Y006746D02*
X031517Y006746D01*
X031481Y006588D02*
X032618Y006588D01*
X032601Y006429D02*
X031536Y006429D01*
X031536Y006271D02*
X032492Y006271D01*
X032474Y006112D02*
X031536Y006112D01*
X031536Y005954D02*
X032538Y005954D01*
X034436Y005954D02*
X034905Y005954D01*
X034905Y006112D02*
X034436Y006112D01*
X034436Y006271D02*
X034905Y006271D01*
X034905Y006429D02*
X034436Y006429D01*
X030100Y007063D02*
X028596Y007063D01*
X028644Y006905D02*
X029787Y006905D01*
X029707Y006746D02*
X028617Y006746D01*
X028581Y006588D02*
X029718Y006588D01*
X029701Y006429D02*
X028636Y006429D01*
X028636Y006271D02*
X029592Y006271D01*
X029574Y006112D02*
X028636Y006112D01*
X028636Y005954D02*
X029638Y005954D01*
X026801Y006429D02*
X025736Y006429D01*
X025736Y006271D02*
X026692Y006271D01*
X026674Y006112D02*
X025736Y006112D01*
X025736Y005954D02*
X026738Y005954D01*
X026818Y006588D02*
X025681Y006588D01*
X025717Y006746D02*
X026807Y006746D01*
X026887Y006905D02*
X025744Y006905D01*
X025696Y007063D02*
X027200Y007063D01*
X027155Y007222D02*
X025475Y007222D01*
X025322Y007222D02*
X025047Y007222D01*
X025047Y007380D02*
X027155Y007380D01*
X027155Y007539D02*
X025047Y007539D01*
X025047Y007698D02*
X027155Y007698D01*
X027218Y007856D02*
X024984Y007856D01*
X025005Y008081D02*
X025340Y007746D01*
X025340Y007451D01*
X025005Y008081D02*
X027905Y008081D01*
X030805Y008081D01*
X033705Y008081D01*
X033018Y007856D02*
X030784Y007856D01*
X030847Y007698D02*
X032955Y007698D01*
X032955Y007539D02*
X030847Y007539D01*
X031140Y007451D02*
X031140Y007746D01*
X030805Y008081D01*
X030118Y007856D02*
X027884Y007856D01*
X027947Y007698D02*
X030055Y007698D01*
X030055Y007539D02*
X027947Y007539D01*
X027947Y007380D02*
X030055Y007380D01*
X030055Y007222D02*
X028375Y007222D01*
X028222Y007222D02*
X027947Y007222D01*
X028240Y007451D02*
X028240Y007746D01*
X027905Y008081D01*
X024370Y008015D02*
X034905Y008015D01*
X034905Y008173D02*
X024212Y008173D01*
X024053Y008332D02*
X034905Y008332D01*
X035653Y008332D02*
X046425Y008332D01*
X046425Y008173D02*
X035812Y008173D01*
X035970Y008015D02*
X046425Y008015D01*
X047153Y008332D02*
X058105Y008332D01*
X058105Y008173D02*
X047311Y008173D01*
X047470Y008015D02*
X058105Y008015D01*
X058853Y008332D02*
X069785Y008332D01*
X069785Y008173D02*
X059011Y008173D01*
X059170Y008015D02*
X069785Y008015D01*
X070463Y008332D02*
X081145Y008332D01*
X081145Y008173D02*
X070621Y008173D01*
X070780Y008015D02*
X081145Y008015D01*
X082570Y008015D02*
X083801Y008015D01*
X083652Y008173D02*
X082719Y008173D01*
X082745Y008332D02*
X083625Y008332D01*
X082984Y007856D02*
X085218Y007856D01*
X085155Y007698D02*
X083047Y007698D01*
X083047Y007539D02*
X085155Y007539D01*
X085947Y007539D02*
X087248Y007539D01*
X087225Y007380D02*
X085947Y007380D01*
X085947Y007222D02*
X086222Y007222D01*
X086375Y007222D02*
X087292Y007222D01*
X087345Y007063D02*
X086596Y007063D01*
X086644Y006905D02*
X087226Y006905D01*
X087068Y006746D02*
X086617Y006746D01*
X086581Y006588D02*
X086909Y006588D01*
X087158Y006271D02*
X087592Y006271D01*
X087553Y006112D02*
X087126Y006112D01*
X087010Y005954D02*
X087395Y005954D01*
X087316Y006429D02*
X087701Y006429D01*
X087718Y006588D02*
X087475Y006588D01*
X087633Y006746D02*
X087707Y006746D01*
X087745Y006905D02*
X087787Y006905D01*
X087745Y007063D02*
X088100Y007063D01*
X088055Y007222D02*
X087799Y007222D01*
X087865Y007380D02*
X088055Y007380D01*
X088055Y007539D02*
X087843Y007539D01*
X087714Y007698D02*
X088055Y007698D01*
X088118Y007856D02*
X085884Y007856D01*
X085947Y007698D02*
X087376Y007698D01*
X086240Y007746D02*
X086240Y007451D01*
X086240Y007746D02*
X085905Y008081D01*
X088784Y007856D02*
X091018Y007856D01*
X090955Y007698D02*
X088847Y007698D01*
X088847Y007539D02*
X090955Y007539D01*
X090955Y007380D02*
X088847Y007380D01*
X088847Y007222D02*
X089122Y007222D01*
X089275Y007222D02*
X090955Y007222D01*
X091000Y007063D02*
X089496Y007063D01*
X089544Y006905D02*
X090687Y006905D01*
X090607Y006746D02*
X089517Y006746D01*
X089481Y006588D02*
X090618Y006588D01*
X090601Y006429D02*
X089536Y006429D01*
X089536Y006271D02*
X090492Y006271D01*
X090474Y006112D02*
X089536Y006112D01*
X089536Y005954D02*
X090435Y005954D01*
X091747Y007222D02*
X092022Y007222D01*
X092175Y007222D02*
X092305Y007222D01*
X092305Y007380D02*
X091747Y007380D01*
X091747Y007539D02*
X092305Y007539D01*
X092305Y007698D02*
X091747Y007698D01*
X091684Y007856D02*
X092267Y007856D01*
X092109Y008015D02*
X091222Y008015D01*
X091380Y008173D02*
X091950Y008173D01*
X091792Y008332D02*
X091539Y008332D01*
X091645Y008081D02*
X091465Y007901D01*
X088985Y007901D01*
X088805Y008081D01*
X089140Y007746D02*
X089140Y007451D01*
X091645Y008081D02*
X091705Y008081D01*
X092040Y007746D01*
X092040Y007451D01*
X093373Y010710D02*
X093825Y010710D01*
X093825Y010868D02*
X093516Y010868D01*
X093582Y011027D02*
X093825Y011027D01*
X093825Y011185D02*
X093585Y011185D01*
X093545Y011344D02*
X093825Y011344D01*
X093825Y011503D02*
X093443Y011503D01*
X093381Y011661D02*
X093825Y011661D01*
X093825Y011820D02*
X093583Y011820D01*
X093661Y011978D02*
X093825Y011978D01*
X093825Y012137D02*
X093685Y012137D01*
X093665Y012295D02*
X093825Y012295D01*
X093825Y012454D02*
X093592Y012454D01*
X093402Y012612D02*
X093825Y012612D01*
X093825Y012771D02*
X093435Y012771D01*
X093541Y012929D02*
X093825Y012929D01*
X093825Y013088D02*
X093585Y013088D01*
X093585Y013247D02*
X093504Y013441D01*
X093382Y013564D02*
X093825Y013564D01*
X093825Y013722D02*
X090461Y013722D01*
X090620Y013564D02*
X092728Y013564D01*
X092591Y013405D02*
X091338Y013405D01*
X091435Y013308D02*
X092392Y012351D01*
X092669Y012351D01*
X092706Y012441D01*
X092855Y012590D01*
X092927Y012620D01*
X092755Y012692D01*
X092606Y012841D01*
X092525Y013036D01*
X092525Y013247D01*
X092525Y013088D02*
X091655Y013088D01*
X091814Y012929D02*
X092569Y012929D01*
X092676Y012771D02*
X091972Y012771D01*
X092131Y012612D02*
X092908Y012612D01*
X092718Y012454D02*
X092289Y012454D01*
X091693Y012137D02*
X087664Y012137D01*
X087822Y012295D02*
X091534Y012295D01*
X091375Y012454D02*
X087981Y012454D01*
X088139Y012612D02*
X091217Y012612D01*
X091018Y012811D02*
X090632Y012811D01*
X090458Y012811D01*
X088938Y014331D01*
X088815Y014454D01*
X088815Y015454D01*
X088815Y015628D01*
X089330Y016143D01*
X089229Y016101D01*
X089101Y016101D01*
X088984Y016150D01*
X088939Y016195D01*
X088545Y015816D01*
X088545Y013184D01*
X088545Y013018D01*
X087505Y011978D01*
X091851Y011978D01*
X092010Y011820D02*
X087505Y011820D01*
X087505Y011978D02*
X087505Y011344D01*
X087505Y011503D02*
X092327Y011503D01*
X092168Y011661D02*
X087505Y011661D01*
X088456Y012929D02*
X090340Y012929D01*
X090181Y013088D02*
X088545Y013088D01*
X088545Y013247D02*
X090023Y013247D01*
X089864Y013405D02*
X088545Y013405D01*
X088545Y013564D02*
X089706Y013564D01*
X089547Y013722D02*
X088545Y013722D01*
X088545Y013881D02*
X089389Y013881D01*
X089230Y014039D02*
X088545Y014039D01*
X088545Y014198D02*
X089071Y014198D01*
X088913Y014356D02*
X088545Y014356D01*
X088545Y014515D02*
X088815Y014515D01*
X088815Y014673D02*
X088545Y014673D01*
X088545Y014832D02*
X088815Y014832D01*
X088815Y014991D02*
X088545Y014991D01*
X088545Y015149D02*
X088815Y015149D01*
X088815Y015308D02*
X088545Y015308D01*
X088545Y015466D02*
X088815Y015466D01*
X088815Y015625D02*
X088545Y015625D01*
X088545Y015783D02*
X088970Y015783D01*
X089129Y015942D02*
X088676Y015942D01*
X088840Y016100D02*
X089287Y016100D01*
X089726Y015625D02*
X092365Y015625D01*
X092365Y015783D02*
X089884Y015783D01*
X089955Y015942D02*
X092365Y015942D01*
X092292Y016100D02*
X089955Y016100D01*
X089955Y016259D02*
X092291Y016259D01*
X092389Y016417D02*
X089955Y016417D01*
X089955Y016576D02*
X093825Y016576D01*
X093825Y016734D02*
X089955Y016734D01*
X089955Y016893D02*
X093825Y016893D01*
X093825Y017052D02*
X089955Y017052D01*
X089955Y017210D02*
X090719Y017210D01*
X090655Y017237D02*
X090934Y017121D01*
X091236Y017121D01*
X091516Y017237D01*
X091729Y017451D01*
X091845Y017730D01*
X091845Y018032D01*
X091729Y018312D01*
X091516Y018525D01*
X091236Y018641D01*
X090934Y018641D01*
X090655Y018525D01*
X090441Y018312D01*
X090325Y018032D01*
X090325Y017730D01*
X090441Y017451D01*
X090655Y017237D01*
X090523Y017369D02*
X089955Y017369D01*
X089955Y017527D02*
X090409Y017527D01*
X090343Y017686D02*
X089955Y017686D01*
X089955Y017844D02*
X090325Y017844D01*
X090325Y018003D02*
X089955Y018003D01*
X089955Y018161D02*
X090379Y018161D01*
X090449Y018320D02*
X089823Y018320D01*
X089665Y018478D02*
X090608Y018478D01*
X090924Y018637D02*
X089506Y018637D01*
X089348Y018796D02*
X093736Y018796D01*
X093613Y018829D02*
X093287Y019017D01*
X093021Y019283D01*
X092833Y019609D01*
X092735Y019973D01*
X092735Y020349D01*
X092833Y020713D01*
X093021Y021039D01*
X093287Y021305D01*
X093613Y021494D01*
X093977Y021591D01*
X094353Y021591D01*
X094717Y021494D01*
X095043Y021305D01*
X095309Y021039D01*
X095498Y020713D01*
X095595Y020349D01*
X095595Y019973D01*
X095498Y019609D01*
X095309Y019283D01*
X095043Y019017D01*
X094717Y018829D01*
X094353Y018731D01*
X093977Y018731D01*
X093613Y018829D01*
X093396Y018954D02*
X089189Y018954D01*
X089707Y019041D02*
X089707Y019041D01*
X089834Y019113D02*
X093191Y019113D01*
X093033Y019271D02*
X089994Y019271D01*
X090153Y019430D02*
X092936Y019430D01*
X092845Y019588D02*
X090312Y019588D01*
X090471Y019747D02*
X092796Y019747D01*
X092753Y019905D02*
X090631Y019905D01*
X090790Y020064D02*
X092735Y020064D01*
X092735Y020222D02*
X090949Y020222D01*
X091109Y020381D02*
X092744Y020381D01*
X092786Y020540D02*
X091268Y020540D01*
X091427Y020698D02*
X092829Y020698D01*
X092916Y020857D02*
X091587Y020857D01*
X092129Y021015D02*
X093007Y021015D01*
X093155Y021174D02*
X092256Y021174D01*
X092315Y021332D02*
X093334Y021332D01*
X093608Y021491D02*
X092315Y021491D01*
X092264Y021649D02*
X095752Y021649D01*
X095876Y021491D02*
X094722Y021491D01*
X094997Y021332D02*
X096000Y021332D01*
X096078Y021174D02*
X095175Y021174D01*
X095323Y021015D02*
X096152Y021015D01*
X096220Y020857D02*
X095415Y020857D01*
X095502Y020698D02*
X096254Y020698D01*
X096288Y020540D02*
X095544Y020540D01*
X095587Y020381D02*
X096316Y020381D01*
X096313Y020222D02*
X095595Y020222D01*
X095595Y020064D02*
X096311Y020064D01*
X096304Y019905D02*
X095577Y019905D01*
X095535Y019747D02*
X096264Y019747D01*
X096225Y019588D02*
X095486Y019588D01*
X095394Y019430D02*
X096180Y019430D01*
X096099Y019271D02*
X095298Y019271D01*
X095139Y019113D02*
X096019Y019113D01*
X095916Y018954D02*
X094935Y018954D01*
X094594Y018796D02*
X095783Y018796D01*
X095645Y018637D02*
X091246Y018637D01*
X091563Y018478D02*
X095435Y018478D01*
X095191Y018320D02*
X091721Y018320D01*
X091792Y018161D02*
X094836Y018161D01*
X093931Y018003D02*
X091845Y018003D01*
X091845Y017844D02*
X093827Y017844D01*
X093825Y017686D02*
X091827Y017686D01*
X091761Y017527D02*
X093825Y017527D01*
X093825Y017369D02*
X091648Y017369D01*
X091451Y017210D02*
X093825Y017210D01*
X093825Y016417D02*
X092821Y016417D01*
X092919Y016259D02*
X093825Y016259D01*
X093825Y016100D02*
X092918Y016100D01*
X092845Y015942D02*
X093825Y015942D01*
X093825Y015783D02*
X092845Y015783D01*
X092845Y015625D02*
X093825Y015625D01*
X093825Y015466D02*
X092845Y015466D01*
X092845Y015308D02*
X093825Y015308D01*
X093825Y015149D02*
X092845Y015149D01*
X092845Y014991D02*
X093825Y014991D01*
X093825Y014832D02*
X092845Y014832D01*
X092737Y014673D02*
X093825Y014673D01*
X093825Y014515D02*
X092574Y014515D01*
X092445Y014721D02*
X092605Y014881D01*
X092605Y016181D01*
X092365Y015466D02*
X089567Y015466D01*
X089435Y015308D02*
X092365Y015308D01*
X092365Y015149D02*
X089435Y015149D01*
X089435Y014991D02*
X089582Y014991D01*
X089476Y014832D02*
X089435Y014832D01*
X089785Y014741D02*
X089805Y014721D01*
X092445Y014721D01*
X092365Y014991D02*
X089988Y014991D01*
X089827Y014356D02*
X093825Y014356D01*
X093825Y014198D02*
X089985Y014198D01*
X090144Y014039D02*
X093825Y014039D01*
X093825Y013881D02*
X090303Y013881D01*
X086179Y015625D02*
X084912Y015625D01*
X081539Y015625D02*
X074775Y015625D01*
X074775Y015783D02*
X081220Y015783D01*
X081088Y015942D02*
X074775Y015942D01*
X074775Y016100D02*
X081065Y016100D01*
X081075Y016259D02*
X074775Y016259D01*
X074775Y016417D02*
X081075Y016417D01*
X081075Y016576D02*
X074775Y016576D01*
X074775Y016734D02*
X081075Y016734D01*
X081075Y016893D02*
X074775Y016893D01*
X074775Y017052D02*
X081075Y017052D01*
X081075Y017210D02*
X077651Y017210D01*
X077848Y017369D02*
X081075Y017369D01*
X081065Y017527D02*
X077961Y017527D01*
X078027Y017686D02*
X081117Y017686D01*
X081319Y017844D02*
X078045Y017844D01*
X078045Y018003D02*
X081161Y018003D01*
X081002Y018161D02*
X077992Y018161D01*
X077921Y018320D02*
X080844Y018320D01*
X084339Y019430D02*
X086586Y019430D01*
X086428Y019271D02*
X084498Y019271D01*
X084656Y019113D02*
X086269Y019113D01*
X086111Y018954D02*
X084815Y018954D01*
X085694Y018796D02*
X085952Y018796D01*
X084181Y019588D02*
X087925Y019588D01*
X087865Y019747D02*
X084022Y019747D01*
X084056Y020804D02*
X084199Y020804D01*
X084330Y020858D01*
X084430Y020959D01*
X084485Y021090D01*
X084485Y021232D01*
X084430Y021363D01*
X084330Y021464D01*
X084199Y021518D01*
X084056Y021518D01*
X083925Y021464D01*
X083825Y021363D01*
X083770Y021232D01*
X083770Y021090D01*
X083825Y020959D01*
X083925Y020858D01*
X084056Y020804D01*
X083929Y020857D02*
X063996Y020857D01*
X063995Y021015D02*
X083801Y021015D01*
X083770Y021174D02*
X063994Y021174D01*
X063994Y021332D02*
X083812Y021332D01*
X083990Y021491D02*
X063993Y021491D01*
X063992Y021649D02*
X088255Y021649D01*
X088255Y021491D02*
X087060Y021491D01*
X087125Y021464D02*
X086994Y021518D01*
X086852Y021518D01*
X086721Y021464D01*
X086620Y021363D01*
X086566Y021232D01*
X086566Y021090D01*
X086620Y020959D01*
X086721Y020858D01*
X086852Y020804D01*
X086994Y020804D01*
X087125Y020858D01*
X087226Y020959D01*
X087280Y021090D01*
X087280Y021232D01*
X087226Y021363D01*
X087125Y021464D01*
X087239Y021332D02*
X088255Y021332D01*
X088255Y021174D02*
X087280Y021174D01*
X087249Y021015D02*
X088325Y021015D01*
X088349Y020991D02*
X088255Y021085D01*
X088255Y021957D01*
X088349Y022051D01*
X089221Y022051D01*
X089315Y021957D01*
X089315Y021085D01*
X089221Y020991D01*
X088349Y020991D01*
X089246Y021015D02*
X089896Y021015D01*
X090058Y021174D02*
X089315Y021174D01*
X089315Y021332D02*
X090220Y021332D01*
X090255Y021491D02*
X089315Y021491D01*
X089315Y021649D02*
X090265Y021649D01*
X090330Y021808D02*
X089315Y021808D01*
X089306Y021966D02*
X090481Y021966D01*
X091089Y021966D02*
X095384Y021966D01*
X095580Y021808D02*
X092148Y021808D01*
X091422Y021808D02*
X091240Y021808D01*
X091306Y021649D02*
X091306Y021649D01*
X088255Y021808D02*
X063992Y021808D01*
X063991Y021966D02*
X088264Y021966D01*
X086786Y021491D02*
X084265Y021491D01*
X084443Y021332D02*
X086607Y021332D01*
X086566Y021174D02*
X084485Y021174D01*
X084454Y021015D02*
X086597Y021015D01*
X086725Y020857D02*
X084326Y020857D01*
X087121Y020857D02*
X089734Y020857D01*
X089571Y020698D02*
X063996Y020698D01*
X063997Y020540D02*
X089409Y020540D01*
X089247Y020381D02*
X063998Y020381D01*
X063998Y020222D02*
X089085Y020222D01*
X088923Y020064D02*
X088339Y020064D01*
X088032Y020064D02*
X063999Y020064D01*
X064000Y019905D02*
X087890Y019905D01*
X094618Y022284D02*
X064334Y022284D01*
X063990Y022125D02*
X095091Y022125D01*
X076723Y017369D02*
X074848Y017369D01*
X074775Y017210D02*
X076919Y017210D01*
X072480Y018478D02*
X064006Y018478D01*
X064006Y018320D02*
X072321Y018320D01*
X072638Y018637D02*
X064005Y018637D01*
X064004Y018796D02*
X072797Y018796D01*
X072955Y018954D02*
X064004Y018954D01*
X064003Y019113D02*
X073114Y019113D01*
X073272Y019271D02*
X064002Y019271D01*
X064002Y019430D02*
X073431Y019430D01*
X073590Y019588D02*
X064001Y019588D01*
X064000Y019747D02*
X073748Y019747D01*
X023225Y008341D02*
X023225Y005941D01*
X022836Y005941D01*
X022836Y006533D01*
X022742Y006627D01*
X022733Y006627D01*
X022791Y006685D01*
X022844Y006811D01*
X022844Y006949D01*
X022791Y007076D01*
X022694Y007173D01*
X022568Y007225D01*
X022430Y007225D01*
X022303Y007173D01*
X022237Y007106D01*
X022147Y007196D01*
X022147Y007793D01*
X022053Y007887D01*
X021448Y007887D01*
X021355Y007793D01*
X021355Y007109D01*
X021448Y007016D01*
X021421Y007027D01*
X021283Y007027D01*
X021157Y006974D01*
X021060Y006877D01*
X021007Y006751D01*
X021007Y006613D01*
X021060Y006487D01*
X021074Y006473D01*
X021024Y006452D01*
X020927Y006355D01*
X020874Y006228D01*
X020874Y006091D01*
X020927Y005964D01*
X020950Y005941D01*
X019936Y005941D01*
X019936Y006533D01*
X019842Y006627D01*
X019833Y006627D01*
X019891Y006685D01*
X019944Y006811D01*
X019944Y006949D01*
X019891Y007076D01*
X019794Y007173D01*
X019668Y007225D01*
X019530Y007225D01*
X019403Y007173D01*
X019307Y007076D01*
X019247Y007136D01*
X019247Y007793D01*
X019153Y007887D01*
X018548Y007887D01*
X018455Y007793D01*
X018455Y007109D01*
X018548Y007016D01*
X018521Y007027D01*
X018383Y007027D01*
X018257Y006974D01*
X018160Y006877D01*
X018107Y006751D01*
X018107Y006613D01*
X018160Y006487D01*
X018174Y006473D01*
X018124Y006452D01*
X018027Y006355D01*
X017974Y006228D01*
X017974Y006091D01*
X018027Y005964D01*
X018050Y005941D01*
X017036Y005941D01*
X017036Y006533D01*
X016942Y006627D01*
X016933Y006627D01*
X016991Y006685D01*
X017044Y006811D01*
X017044Y006949D01*
X016991Y007076D01*
X016894Y007173D01*
X016768Y007225D01*
X016630Y007225D01*
X016503Y007173D01*
X016417Y007086D01*
X016347Y007156D01*
X016347Y007793D01*
X016253Y007887D01*
X015648Y007887D01*
X015555Y007793D01*
X015555Y007109D01*
X015648Y007016D01*
X015621Y007027D01*
X015483Y007027D01*
X015357Y006974D01*
X015260Y006877D01*
X015207Y006751D01*
X015207Y006613D01*
X015260Y006487D01*
X015274Y006473D01*
X015224Y006452D01*
X015127Y006355D01*
X015074Y006228D01*
X015074Y006091D01*
X015127Y005964D01*
X015150Y005941D01*
X014136Y005941D01*
X014136Y006533D01*
X014042Y006627D01*
X014033Y006627D01*
X014091Y006685D01*
X014144Y006811D01*
X014144Y006949D01*
X014091Y007076D01*
X013994Y007173D01*
X013868Y007225D01*
X013730Y007225D01*
X013603Y007173D01*
X013527Y007096D01*
X013447Y007176D01*
X013447Y007793D01*
X013353Y007887D01*
X012898Y007887D01*
X012444Y008341D01*
X023225Y008341D01*
X023225Y008332D02*
X012453Y008332D01*
X012612Y008173D02*
X023225Y008173D01*
X023225Y008015D02*
X012770Y008015D01*
X013384Y007856D02*
X015618Y007856D01*
X015555Y007698D02*
X013447Y007698D01*
X013447Y007539D02*
X015555Y007539D01*
X015555Y007380D02*
X013447Y007380D01*
X013447Y007222D02*
X013722Y007222D01*
X013875Y007222D02*
X015555Y007222D01*
X015600Y007063D02*
X014096Y007063D01*
X014144Y006905D02*
X015287Y006905D01*
X015207Y006746D02*
X014117Y006746D01*
X014081Y006588D02*
X015218Y006588D01*
X015201Y006429D02*
X014136Y006429D01*
X014136Y006271D02*
X015092Y006271D01*
X015074Y006112D02*
X014136Y006112D01*
X014136Y005954D02*
X015138Y005954D01*
X017036Y005954D02*
X018038Y005954D01*
X017974Y006112D02*
X017036Y006112D01*
X017036Y006271D02*
X017992Y006271D01*
X018101Y006429D02*
X017036Y006429D01*
X016981Y006588D02*
X018118Y006588D01*
X018107Y006746D02*
X017017Y006746D01*
X017044Y006905D02*
X018187Y006905D01*
X018500Y007063D02*
X016996Y007063D01*
X016775Y007222D02*
X018455Y007222D01*
X018455Y007380D02*
X016347Y007380D01*
X016347Y007222D02*
X016622Y007222D01*
X016640Y007451D02*
X016640Y007746D01*
X016305Y008081D01*
X019205Y008081D01*
X022105Y008081D01*
X022440Y007746D01*
X022440Y007451D01*
X022422Y007222D02*
X022147Y007222D01*
X022147Y007380D02*
X023225Y007380D01*
X023225Y007222D02*
X022575Y007222D01*
X022796Y007063D02*
X023225Y007063D01*
X023225Y006905D02*
X022844Y006905D01*
X022817Y006746D02*
X023225Y006746D01*
X023225Y006588D02*
X022781Y006588D01*
X022836Y006429D02*
X023225Y006429D01*
X023225Y006271D02*
X022836Y006271D01*
X022836Y006112D02*
X023225Y006112D01*
X023225Y005954D02*
X022836Y005954D01*
X021001Y006429D02*
X019936Y006429D01*
X019936Y006271D02*
X020892Y006271D01*
X020874Y006112D02*
X019936Y006112D01*
X019936Y005954D02*
X020938Y005954D01*
X021018Y006588D02*
X019881Y006588D01*
X019917Y006746D02*
X021007Y006746D01*
X021087Y006905D02*
X019944Y006905D01*
X019896Y007063D02*
X021400Y007063D01*
X021355Y007222D02*
X019675Y007222D01*
X019522Y007222D02*
X019247Y007222D01*
X019247Y007380D02*
X021355Y007380D01*
X021355Y007539D02*
X019247Y007539D01*
X019247Y007698D02*
X021355Y007698D01*
X021418Y007856D02*
X019184Y007856D01*
X019205Y008081D02*
X019540Y007746D01*
X019540Y007451D01*
X018455Y007539D02*
X016347Y007539D01*
X016347Y007698D02*
X018455Y007698D01*
X018518Y007856D02*
X016284Y007856D01*
X016305Y008081D02*
X013405Y008081D01*
X013740Y007746D01*
X013740Y007451D01*
X011705Y007380D02*
X010547Y007380D01*
X010547Y007222D02*
X010822Y007222D01*
X010830Y007225D02*
X010703Y007173D01*
X010637Y007106D01*
X010547Y007196D01*
X010547Y007793D01*
X010453Y007887D01*
X009848Y007887D01*
X009755Y007793D01*
X009755Y007109D01*
X009848Y007016D01*
X009821Y007027D01*
X009683Y007027D01*
X009557Y006974D01*
X009460Y006877D01*
X009407Y006751D01*
X009407Y006613D01*
X009460Y006487D01*
X009474Y006473D01*
X009424Y006452D01*
X009327Y006355D01*
X009274Y006228D01*
X009274Y006091D01*
X009327Y005964D01*
X009350Y005941D01*
X008336Y005941D01*
X008336Y006533D01*
X008242Y006627D01*
X008233Y006627D01*
X008291Y006685D01*
X008344Y006811D01*
X008344Y006949D01*
X008291Y007076D01*
X008194Y007173D01*
X008068Y007225D01*
X007930Y007225D01*
X007803Y007173D01*
X007747Y007116D01*
X007647Y007216D01*
X007647Y007793D01*
X007553Y007887D01*
X006948Y007887D01*
X006855Y007793D01*
X006855Y007109D01*
X006948Y007016D01*
X006921Y007027D01*
X006783Y007027D01*
X006657Y006974D01*
X006560Y006877D01*
X006507Y006751D01*
X006507Y006613D01*
X006560Y006487D01*
X006574Y006473D01*
X006524Y006452D01*
X006427Y006355D01*
X006374Y006228D01*
X006374Y006091D01*
X006427Y005964D01*
X006450Y005941D01*
X005436Y005941D01*
X005436Y006533D01*
X005342Y006627D01*
X005333Y006627D01*
X005391Y006685D01*
X005444Y006811D01*
X005444Y006949D01*
X005391Y007076D01*
X005294Y007173D01*
X005168Y007225D01*
X005030Y007225D01*
X004903Y007173D01*
X004817Y007086D01*
X004747Y007156D01*
X004747Y007793D01*
X004653Y007887D01*
X004048Y007887D01*
X003955Y007793D01*
X003955Y007109D01*
X004048Y007016D01*
X004021Y007027D01*
X003883Y007027D01*
X003757Y006974D01*
X003660Y006877D01*
X003607Y006751D01*
X003607Y006613D01*
X003660Y006487D01*
X003674Y006473D01*
X003624Y006452D01*
X003527Y006355D01*
X003482Y006247D01*
X003308Y006421D01*
X003142Y006421D01*
X002822Y006421D01*
X002705Y006304D01*
X002536Y006135D01*
X002536Y006533D01*
X002442Y006627D01*
X002433Y006627D01*
X002491Y006685D01*
X002544Y006811D01*
X002544Y006949D01*
X002491Y007076D01*
X002394Y007173D01*
X002268Y007225D01*
X002130Y007225D01*
X002003Y007173D01*
X001927Y007096D01*
X001847Y007176D01*
X001847Y007793D01*
X001753Y007887D01*
X001148Y007887D01*
X001055Y007793D01*
X001055Y007109D01*
X001148Y007016D01*
X001121Y007027D01*
X000983Y007027D01*
X000857Y006974D01*
X000760Y006877D01*
X000707Y006751D01*
X000707Y006613D01*
X000760Y006487D01*
X000774Y006473D01*
X000724Y006452D01*
X000665Y006393D01*
X000665Y010732D01*
X000688Y010948D01*
X000819Y011367D01*
X001054Y011738D01*
X001377Y012036D01*
X001766Y012240D01*
X002194Y012336D01*
X002406Y012341D01*
X002419Y012341D01*
X002469Y012339D01*
X002475Y012341D01*
X011705Y012341D01*
X011705Y009624D01*
X011622Y009541D01*
X010750Y009541D01*
X010750Y009566D01*
X010701Y009685D01*
X010609Y009777D01*
X010490Y009826D01*
X010361Y009826D01*
X010241Y009777D01*
X010150Y009685D01*
X010100Y009566D01*
X010100Y009436D01*
X010123Y009381D01*
X009788Y009381D01*
X009468Y009701D01*
X009302Y009701D01*
X008742Y009701D01*
X008625Y009584D01*
X008262Y009221D01*
X007708Y009221D01*
X007630Y009299D01*
X007630Y009406D01*
X007581Y009525D01*
X007489Y009617D01*
X007370Y009666D01*
X007241Y009666D01*
X007121Y009617D01*
X007030Y009525D01*
X006980Y009406D01*
X006980Y009276D01*
X007030Y009157D01*
X007121Y009066D01*
X007132Y009061D01*
X006428Y009061D01*
X006108Y009381D01*
X005942Y009381D01*
X005622Y009381D01*
X005505Y009264D01*
X005345Y009104D01*
X005345Y008938D01*
X005345Y008901D01*
X004990Y008901D01*
X004990Y008926D01*
X004941Y009045D01*
X004849Y009137D01*
X004730Y009186D01*
X004601Y009186D01*
X004481Y009137D01*
X004390Y009045D01*
X004340Y008926D01*
X004340Y008796D01*
X004363Y008741D01*
X004228Y008741D01*
X004087Y008741D01*
X004289Y008943D01*
X004478Y009269D01*
X004575Y009633D01*
X004575Y010009D01*
X004478Y010373D01*
X004289Y010699D01*
X004023Y010965D01*
X003697Y011154D01*
X003333Y011251D01*
X002957Y011251D01*
X002593Y011154D01*
X002267Y010965D01*
X002001Y010699D01*
X001813Y010373D01*
X001715Y010009D01*
X001715Y009633D01*
X001813Y009269D01*
X002001Y008943D01*
X002267Y008677D01*
X002593Y008489D01*
X002625Y008480D01*
X002550Y008405D01*
X002500Y008286D01*
X002500Y008156D01*
X002550Y008037D01*
X002641Y007946D01*
X002761Y007896D01*
X002890Y007896D01*
X003009Y007946D01*
X003085Y008021D01*
X003908Y008021D01*
X004025Y008138D01*
X004228Y008341D01*
X011705Y008341D01*
X011705Y005941D01*
X011236Y005941D01*
X011236Y006533D01*
X011142Y006627D01*
X011133Y006627D01*
X011191Y006685D01*
X011244Y006811D01*
X011244Y006949D01*
X011191Y007076D01*
X011094Y007173D01*
X010968Y007225D01*
X010830Y007225D01*
X010975Y007222D02*
X011705Y007222D01*
X011705Y007063D02*
X011196Y007063D01*
X011244Y006905D02*
X011705Y006905D01*
X011705Y006746D02*
X011217Y006746D01*
X011181Y006588D02*
X011705Y006588D01*
X011705Y006429D02*
X011236Y006429D01*
X011236Y006271D02*
X011705Y006271D01*
X011705Y006112D02*
X011236Y006112D01*
X011236Y005954D02*
X011705Y005954D01*
X009401Y006429D02*
X008336Y006429D01*
X008336Y006271D02*
X009292Y006271D01*
X009274Y006112D02*
X008336Y006112D01*
X008336Y005954D02*
X009338Y005954D01*
X006501Y006429D02*
X005436Y006429D01*
X005436Y006271D02*
X006392Y006271D01*
X006374Y006112D02*
X005436Y006112D01*
X005436Y005954D02*
X006438Y005954D01*
X006518Y006588D02*
X005381Y006588D01*
X005417Y006746D02*
X006507Y006746D01*
X006587Y006905D02*
X005444Y006905D01*
X005396Y007063D02*
X006900Y007063D01*
X006855Y007222D02*
X005175Y007222D01*
X005022Y007222D02*
X004747Y007222D01*
X004747Y007380D02*
X006855Y007380D01*
X006855Y007539D02*
X004747Y007539D01*
X004747Y007698D02*
X006855Y007698D01*
X006918Y007856D02*
X004684Y007856D01*
X004705Y008081D02*
X005040Y007746D01*
X005040Y007451D01*
X003955Y007380D02*
X001847Y007380D01*
X001847Y007222D02*
X002122Y007222D01*
X002275Y007222D02*
X003955Y007222D01*
X004000Y007063D02*
X002496Y007063D01*
X002544Y006905D02*
X003687Y006905D01*
X003607Y006746D02*
X002517Y006746D01*
X002481Y006588D02*
X003618Y006588D01*
X003601Y006429D02*
X002536Y006429D01*
X002536Y006271D02*
X002672Y006271D01*
X003458Y006271D02*
X003492Y006271D01*
X001100Y007063D02*
X000665Y007063D01*
X000665Y006905D02*
X000787Y006905D01*
X000707Y006746D02*
X000665Y006746D01*
X000665Y006588D02*
X000718Y006588D01*
X000701Y006429D02*
X000665Y006429D01*
X000665Y007222D02*
X001055Y007222D01*
X001055Y007380D02*
X000665Y007380D01*
X000665Y007539D02*
X001055Y007539D01*
X001055Y007698D02*
X000665Y007698D01*
X000665Y007856D02*
X001118Y007856D01*
X000665Y008015D02*
X002572Y008015D01*
X002500Y008173D02*
X000665Y008173D01*
X000665Y008332D02*
X002519Y008332D01*
X002590Y008490D02*
X000665Y008490D01*
X000665Y008649D02*
X002316Y008649D01*
X002137Y008807D02*
X000665Y008807D01*
X000665Y008966D02*
X001988Y008966D01*
X001896Y009124D02*
X000665Y009124D01*
X000665Y009283D02*
X001809Y009283D01*
X001766Y009441D02*
X000665Y009441D01*
X000665Y009600D02*
X001724Y009600D01*
X001715Y009759D02*
X000665Y009759D01*
X000665Y009917D02*
X001715Y009917D01*
X001733Y010076D02*
X000665Y010076D01*
X000665Y010234D02*
X001775Y010234D01*
X001824Y010393D02*
X000665Y010393D01*
X000665Y010551D02*
X001916Y010551D01*
X002012Y010710D02*
X000665Y010710D01*
X000680Y010868D02*
X002170Y010868D01*
X002374Y011027D02*
X000713Y011027D01*
X000762Y011185D02*
X002712Y011185D01*
X003578Y011185D02*
X011705Y011185D01*
X011705Y011027D02*
X003917Y011027D01*
X004120Y010868D02*
X011705Y010868D01*
X011705Y010710D02*
X004279Y010710D01*
X004375Y010551D02*
X011705Y010551D01*
X011705Y010393D02*
X004466Y010393D01*
X004515Y010234D02*
X011705Y010234D01*
X011705Y010076D02*
X004557Y010076D01*
X004575Y009917D02*
X011705Y009917D01*
X011705Y009759D02*
X010627Y009759D01*
X010736Y009600D02*
X011681Y009600D01*
X010223Y009759D02*
X004575Y009759D01*
X004566Y009600D02*
X007105Y009600D01*
X006995Y009441D02*
X004524Y009441D01*
X004481Y009283D02*
X005524Y009283D01*
X005366Y009124D02*
X004861Y009124D01*
X004974Y008966D02*
X005345Y008966D01*
X004469Y009124D02*
X004394Y009124D01*
X004357Y008966D02*
X004303Y008966D01*
X004340Y008807D02*
X004154Y008807D01*
X004219Y008332D02*
X011705Y008332D01*
X011705Y008173D02*
X004060Y008173D01*
X004105Y008061D02*
X003545Y007501D01*
X002905Y007501D01*
X002325Y008081D01*
X001805Y008081D01*
X002140Y007746D01*
X002140Y007451D01*
X001847Y007539D02*
X003955Y007539D01*
X003955Y007698D02*
X001847Y007698D01*
X001784Y007856D02*
X004018Y007856D01*
X004105Y008061D02*
X004705Y008081D01*
X007605Y008081D01*
X010505Y008081D01*
X010840Y007746D01*
X010840Y007451D01*
X010547Y007539D02*
X011705Y007539D01*
X011705Y007698D02*
X010547Y007698D01*
X010484Y007856D02*
X011705Y007856D01*
X011705Y008015D02*
X003078Y008015D01*
X006365Y009124D02*
X007062Y009124D01*
X006980Y009283D02*
X006206Y009283D01*
X007506Y009600D02*
X008641Y009600D01*
X008483Y009441D02*
X007615Y009441D01*
X007646Y009283D02*
X008324Y009283D01*
X009569Y009600D02*
X010114Y009600D01*
X010100Y009441D02*
X009728Y009441D01*
X007940Y007746D02*
X007605Y008081D01*
X007584Y007856D02*
X009818Y007856D01*
X009755Y007698D02*
X007647Y007698D01*
X007647Y007539D02*
X009755Y007539D01*
X009755Y007380D02*
X007647Y007380D01*
X007647Y007222D02*
X007922Y007222D01*
X008075Y007222D02*
X009755Y007222D01*
X009800Y007063D02*
X008296Y007063D01*
X008344Y006905D02*
X009487Y006905D01*
X009407Y006746D02*
X008317Y006746D01*
X008281Y006588D02*
X009418Y006588D01*
X007940Y007451D02*
X007940Y007746D01*
X022084Y007856D02*
X023225Y007856D01*
X023225Y007698D02*
X022147Y007698D01*
X022147Y007539D02*
X023225Y007539D01*
X011705Y011344D02*
X000812Y011344D01*
X000905Y011503D02*
X011705Y011503D01*
X011705Y011661D02*
X001005Y011661D01*
X001142Y011820D02*
X011705Y011820D01*
X011705Y011978D02*
X001314Y011978D01*
X001569Y012137D02*
X011705Y012137D01*
X011705Y012295D02*
X002013Y012295D01*
X048084Y007856D02*
X050318Y007856D01*
X050255Y007698D02*
X048147Y007698D01*
X048147Y007539D02*
X050255Y007539D01*
X059784Y007856D02*
X062018Y007856D01*
X061955Y007698D02*
X059847Y007698D01*
X059847Y007539D02*
X061955Y007539D01*
X071394Y007856D02*
X073618Y007856D01*
X073555Y007698D02*
X071447Y007698D01*
X071447Y007539D02*
X073555Y007539D01*
X071463Y008033D02*
X071405Y008091D01*
D20*
X088085Y011741D02*
X091085Y011741D01*
X083255Y013941D02*
X082465Y013151D01*
X082465Y012791D01*
X082325Y012641D01*
X082325Y012131D01*
X083255Y013941D02*
X084215Y013941D01*
X083225Y016061D02*
X082465Y016061D01*
X083225Y016061D02*
X085145Y017981D01*
X085405Y018251D01*
D21*
X086665Y018381D03*
X086705Y017941D03*
X089225Y017741D03*
X089185Y017241D03*
X089185Y016821D03*
X089165Y016421D03*
X085865Y016221D03*
X081385Y016061D03*
X081385Y017501D03*
X088185Y019781D03*
X092605Y016181D03*
X089785Y014741D03*
X087145Y013261D03*
X086825Y013021D03*
X086585Y012701D03*
X086305Y012341D03*
X084905Y013181D03*
X083145Y012861D03*
X083545Y012621D03*
X081785Y013101D03*
X083065Y011741D03*
X083065Y010861D03*
X083465Y009821D03*
X088265Y009581D03*
X090265Y008621D03*
X087545Y007421D03*
X083945Y008301D03*
X082425Y008301D03*
X082025Y008541D03*
X092585Y010221D03*
X086825Y006221D03*
X071265Y009821D03*
X071705Y009901D03*
X072185Y009981D03*
X071265Y010461D03*
X065025Y011941D03*
X064425Y011941D03*
X062665Y012461D03*
X063785Y013021D03*
X072345Y012781D03*
X072825Y012781D03*
X072825Y013181D03*
X072665Y012381D03*
X071225Y015581D03*
X071225Y016141D03*
X071225Y016701D03*
X071225Y017341D03*
X021665Y011381D03*
D22*
X021745Y011341D02*
X063185Y011301D01*
X064505Y012621D01*
X071785Y012621D01*
X073505Y010901D01*
X074985Y010901D02*
X076745Y012701D01*
X077905Y012701D01*
X080305Y015101D01*
X081225Y015101D01*
X081625Y014701D01*
X081705Y014701D01*
X084265Y014701D01*
X081785Y013101D02*
X080425Y014461D01*
X081385Y016061D02*
X081385Y017501D01*
X092025Y017581D02*
X092025Y019661D01*
X092405Y020041D01*
X092405Y021791D01*
X092025Y022171D01*
X090535Y022171D01*
X089785Y021421D01*
X092025Y017581D02*
X093305Y016301D01*
X093305Y014381D01*
X093325Y014321D01*
X093155Y014141D01*
D23*
X084675Y013941D02*
X084215Y013941D01*
X079225Y015151D02*
X079145Y014781D01*
X076985Y014781D01*
X083065Y016881D02*
X083785Y017601D01*
X083785Y018941D01*
X082325Y012131D02*
X082330Y012126D01*
X082325Y012131D02*
X082325Y012121D01*
X082325Y012131D02*
X082300Y012106D01*
X082300Y011821D01*
X082180Y011701D01*
X082060Y011701D01*
D24*
X074285Y011741D02*
X074285Y017881D01*
X077285Y017881D01*
D25*
X012585Y004781D02*
X012265Y005101D01*
X011065Y005101D01*
X010905Y004941D01*
X012345Y005261D02*
X012665Y004941D01*
X013145Y004941D01*
X013465Y005261D01*
X014985Y005261D01*
X015305Y004941D01*
X015625Y004941D01*
X015945Y005261D01*
X018025Y005261D01*
X018185Y005101D01*
X018345Y005261D01*
X024025Y005261D01*
X024345Y004941D01*
X024905Y004941D01*
X025225Y005261D01*
X026585Y005261D01*
X026905Y004941D01*
X027225Y004941D01*
X027545Y005261D01*
X029785Y005261D01*
X029945Y005101D01*
X030105Y005261D01*
X035705Y005261D01*
X036025Y004941D01*
X036505Y004941D01*
X036825Y005261D01*
X038025Y005261D01*
X038345Y004941D01*
X038825Y004941D01*
X039145Y005261D01*
X041305Y005261D01*
X041465Y005101D01*
X041625Y005261D01*
X047145Y005261D01*
X047465Y004941D01*
X047945Y004941D01*
X048265Y005261D01*
X049545Y005261D01*
X049865Y004941D01*
X050185Y004941D01*
X050505Y005261D01*
X052985Y005261D01*
X053145Y005101D01*
X053305Y005261D01*
X058825Y005261D01*
X059145Y004941D01*
X059705Y004941D01*
X060025Y005261D01*
X061305Y005261D01*
X061625Y004941D01*
X061945Y004941D01*
X062265Y005261D01*
X064505Y005261D01*
X064665Y005101D01*
X064825Y005261D01*
X070345Y005261D01*
X070665Y004941D01*
X071225Y004941D01*
X071545Y005261D01*
X072985Y005261D01*
X073305Y004941D01*
X073705Y004941D01*
X074025Y005261D01*
X076025Y005261D01*
X076185Y005101D01*
X076345Y005261D01*
X082185Y005261D01*
X082265Y005181D01*
X082905Y005181D01*
X083305Y005581D01*
X084265Y005581D01*
X084425Y005741D01*
X087465Y005741D01*
X087884Y006160D01*
X087919Y006160D01*
X087545Y006941D02*
X086825Y006221D01*
X086240Y006191D02*
X085749Y006682D01*
X085152Y006682D01*
X085019Y006160D02*
X084604Y006160D01*
X084185Y005741D01*
X083225Y005741D01*
X082825Y005341D01*
X082345Y005341D01*
X082265Y005421D01*
X073625Y005421D01*
X073465Y005261D01*
X073305Y005421D01*
X071465Y005421D01*
X071145Y005101D01*
X070745Y005101D01*
X070425Y005421D01*
X061945Y005421D01*
X061819Y005295D01*
X061785Y005261D01*
X061625Y005421D01*
X059945Y005421D01*
X059625Y005101D01*
X059225Y005101D01*
X058905Y005421D01*
X050185Y005421D01*
X050025Y005261D01*
X049865Y005421D01*
X048185Y005421D01*
X047865Y005101D01*
X047545Y005101D01*
X047225Y005421D01*
X038745Y005421D01*
X038585Y005261D01*
X038425Y005421D01*
X036745Y005421D01*
X036425Y005101D01*
X036105Y005101D01*
X035785Y005421D01*
X027225Y005421D01*
X027065Y005261D01*
X026905Y005421D01*
X025145Y005421D01*
X024825Y005101D01*
X024425Y005101D01*
X024105Y005421D01*
X015625Y005421D01*
X015465Y005261D01*
X015305Y005421D01*
X013385Y005421D01*
X013065Y005101D01*
X012745Y005101D01*
X012425Y005421D01*
X005305Y005421D01*
X005145Y005261D01*
X003705Y005741D02*
X013145Y005741D01*
X013065Y005821D01*
X013065Y006177D01*
X013051Y006191D01*
X013249Y006682D02*
X013740Y006191D01*
X013249Y006682D02*
X012652Y006682D01*
X010840Y006191D02*
X010349Y006682D01*
X009752Y006682D01*
X007940Y006191D02*
X007449Y006682D01*
X006852Y006682D01*
X005040Y006191D02*
X004549Y006682D01*
X003952Y006682D01*
X003225Y006221D02*
X002905Y006221D01*
X002425Y005741D01*
X001625Y005741D01*
X001545Y005821D01*
X001545Y006097D01*
X001451Y006191D01*
X001649Y006682D02*
X002140Y006191D01*
X002505Y005581D02*
X002905Y005981D01*
X003225Y005981D01*
X003625Y005581D01*
X012745Y005581D01*
X012905Y005421D01*
X013065Y005581D01*
X024425Y005581D01*
X024585Y005421D01*
X024745Y005581D01*
X036105Y005581D01*
X036265Y005421D01*
X036425Y005581D01*
X047545Y005581D01*
X047705Y005421D01*
X047865Y005581D01*
X059225Y005581D01*
X059385Y005421D01*
X059545Y005581D01*
X070825Y005581D01*
X070985Y005421D01*
X071145Y005581D01*
X082345Y005581D01*
X082425Y005661D01*
X082585Y005661D01*
X082201Y005741D02*
X071305Y005741D01*
X059705Y005741D01*
X048025Y005741D01*
X036585Y005741D01*
X024825Y005741D01*
X013145Y005741D01*
X013545Y005101D02*
X014905Y005101D01*
X015225Y004781D01*
X015705Y004781D01*
X016025Y005101D01*
X017705Y005101D01*
X018025Y004781D01*
X018425Y004781D01*
X018745Y005101D01*
X020825Y005101D01*
X020985Y004941D01*
X021145Y005101D01*
X023945Y005101D01*
X024265Y004781D01*
X024985Y004781D01*
X025305Y005101D01*
X026505Y005101D01*
X026825Y004781D01*
X027305Y004781D01*
X027625Y005101D01*
X029465Y005101D01*
X029785Y004781D01*
X030185Y004781D01*
X030505Y005101D01*
X032665Y005101D01*
X032825Y004941D01*
X032985Y005101D01*
X035625Y005101D01*
X035945Y004781D01*
X036585Y004781D01*
X036905Y005101D01*
X037945Y005101D01*
X038265Y004781D01*
X038905Y004781D01*
X039225Y005101D01*
X040985Y005101D01*
X041305Y004781D01*
X041625Y004781D01*
X041945Y005101D01*
X044025Y005101D01*
X044185Y004941D01*
X044345Y005101D01*
X047065Y005101D01*
X047385Y004781D01*
X048025Y004781D01*
X048345Y005101D01*
X049385Y005101D01*
X049705Y004781D01*
X050265Y004781D01*
X050585Y005101D01*
X052665Y005101D01*
X052985Y004781D01*
X053305Y004781D01*
X053625Y005101D01*
X055785Y005101D01*
X055945Y004941D01*
X056105Y005101D01*
X058745Y005101D01*
X059065Y004781D01*
X059785Y004781D01*
X060105Y005101D01*
X061225Y005101D01*
X061545Y004781D01*
X062025Y004781D01*
X062345Y005101D01*
X064185Y005101D01*
X064505Y004781D01*
X064825Y004781D01*
X065145Y005101D01*
X067305Y005101D01*
X067465Y004941D01*
X067625Y005101D01*
X070265Y005101D01*
X070585Y004781D01*
X071305Y004781D01*
X071625Y005101D01*
X072905Y005101D01*
X073225Y004781D01*
X073785Y004781D01*
X074105Y005101D01*
X075705Y005101D01*
X076025Y004781D01*
X076345Y004781D01*
X076665Y005101D01*
X078985Y005101D01*
X079145Y004941D01*
X079305Y005101D01*
X082105Y005101D01*
X082185Y005021D01*
X082985Y005021D01*
X083385Y005421D01*
X084345Y005421D01*
X084505Y005581D01*
X087625Y005581D01*
X087785Y005741D01*
X090505Y005741D01*
X090819Y006055D01*
X090819Y006160D01*
X091549Y006682D02*
X092040Y006191D01*
X092075Y006191D01*
X092665Y006781D01*
X092665Y007981D01*
X091945Y008701D01*
X091385Y008701D01*
X090985Y008301D01*
X089945Y008301D01*
X089865Y008381D01*
X089865Y008621D01*
X089625Y008861D01*
X088825Y008861D01*
X088505Y009181D01*
X088105Y009181D01*
X087945Y009341D01*
X088025Y009341D01*
X088265Y009581D01*
X087945Y009341D02*
X087625Y009661D01*
X086825Y009661D01*
X086505Y009341D01*
X085785Y009341D01*
X085305Y009821D01*
X084825Y009821D01*
X084505Y009501D01*
X082105Y009501D01*
X081785Y009821D01*
X081145Y009821D01*
X080825Y009501D01*
X079465Y009501D01*
X079305Y009661D01*
X079065Y009661D01*
X078905Y009821D01*
X078105Y009821D01*
X077785Y009501D01*
X076905Y009501D01*
X076585Y009821D01*
X075145Y009821D01*
X074825Y009501D01*
X073785Y009501D01*
X073465Y009821D01*
X072985Y009821D01*
X072665Y009501D01*
X069705Y009501D01*
X069305Y009901D01*
X068585Y009901D01*
X068185Y009501D01*
X067945Y009501D01*
X067785Y009661D01*
X067545Y009661D01*
X067385Y009821D01*
X066585Y009821D01*
X066265Y009501D01*
X065465Y009501D01*
X065145Y009821D01*
X063625Y009821D01*
X063305Y009501D01*
X062265Y009501D01*
X061945Y009821D01*
X061465Y009821D01*
X061145Y009501D01*
X057945Y009501D01*
X057625Y009821D01*
X056985Y009821D01*
X056665Y009501D01*
X056185Y009501D01*
X056025Y009661D01*
X055785Y009661D01*
X055625Y009821D01*
X054825Y009821D01*
X054505Y009501D01*
X053625Y009501D01*
X053305Y009821D01*
X051785Y009821D01*
X051465Y009501D01*
X050745Y009501D01*
X050425Y009821D01*
X049945Y009821D01*
X049625Y009501D01*
X046185Y009501D01*
X045865Y009821D01*
X045225Y009821D01*
X044905Y009501D01*
X044585Y009501D01*
X044425Y009661D01*
X044265Y009661D01*
X044105Y009821D01*
X043305Y009821D01*
X042985Y009501D01*
X042105Y009501D01*
X041785Y009821D01*
X040345Y009821D01*
X040025Y009501D01*
X038985Y009501D01*
X038665Y009821D01*
X038185Y009821D01*
X037865Y009501D01*
X034825Y009501D01*
X034505Y009821D01*
X033785Y009821D01*
X033465Y009501D01*
X032905Y009501D01*
X032745Y009661D01*
X032505Y009661D01*
X032345Y009821D01*
X031545Y009821D01*
X031225Y009501D01*
X030345Y009501D01*
X030025Y009821D01*
X028505Y009821D01*
X028185Y009501D01*
X027625Y009501D01*
X027305Y009821D01*
X026825Y009821D01*
X026505Y009501D01*
X023225Y009501D01*
X022905Y009821D01*
X022265Y009821D01*
X021945Y009501D01*
X021465Y009501D01*
X021305Y009661D01*
X021065Y009661D01*
X020905Y009821D01*
X020105Y009821D01*
X019785Y009501D01*
X018905Y009501D01*
X018585Y009821D01*
X017065Y009821D01*
X016745Y009501D01*
X016105Y009501D01*
X015785Y009821D01*
X015305Y009821D01*
X014985Y009501D01*
X013145Y009501D01*
X012825Y009821D01*
X012185Y009821D01*
X011705Y009341D01*
X010585Y009341D01*
X010425Y009501D01*
X009705Y009181D02*
X011785Y009181D01*
X012265Y009661D01*
X012745Y009661D01*
X013065Y009341D01*
X015065Y009341D01*
X015385Y009661D01*
X015705Y009661D01*
X016025Y009341D01*
X016825Y009341D01*
X017145Y009661D01*
X017945Y009661D01*
X018105Y009501D01*
X018345Y009501D01*
X018505Y009341D01*
X019865Y009341D01*
X020185Y009661D01*
X020825Y009661D01*
X021145Y009341D01*
X022025Y009341D01*
X022345Y009661D01*
X022825Y009661D01*
X023145Y009341D01*
X026585Y009341D01*
X026905Y009661D01*
X027225Y009661D01*
X027545Y009341D01*
X028265Y009341D01*
X028585Y009661D01*
X029545Y009661D01*
X029705Y009501D01*
X029865Y009501D01*
X030025Y009341D01*
X031305Y009341D01*
X031625Y009661D01*
X032265Y009661D01*
X032585Y009341D01*
X033545Y009341D01*
X033865Y009661D01*
X034425Y009661D01*
X034745Y009341D01*
X037945Y009341D01*
X038265Y009661D01*
X038585Y009661D01*
X038905Y009341D01*
X040105Y009341D01*
X040425Y009661D01*
X041225Y009661D01*
X041385Y009501D01*
X041625Y009501D01*
X041785Y009341D01*
X043065Y009341D01*
X043385Y009661D01*
X044025Y009661D01*
X044345Y009341D01*
X044985Y009341D01*
X045305Y009661D01*
X045785Y009661D01*
X046105Y009341D01*
X049705Y009341D01*
X050025Y009661D01*
X050345Y009661D01*
X050665Y009341D01*
X051545Y009341D01*
X051865Y009661D01*
X052665Y009661D01*
X052825Y009501D01*
X053145Y009501D01*
X053305Y009341D01*
X054585Y009341D01*
X054905Y009661D01*
X055545Y009661D01*
X055865Y009341D01*
X056745Y009341D01*
X057065Y009661D01*
X057545Y009661D01*
X057865Y009341D01*
X061225Y009341D01*
X061545Y009661D01*
X061865Y009661D01*
X062185Y009341D01*
X063385Y009341D01*
X063705Y009661D01*
X064505Y009661D01*
X064665Y009501D01*
X064985Y009501D01*
X065145Y009341D01*
X066345Y009341D01*
X066665Y009661D01*
X067305Y009661D01*
X067625Y009341D01*
X068265Y009341D01*
X068665Y009741D01*
X069225Y009741D01*
X069625Y009341D01*
X072745Y009341D01*
X073065Y009661D01*
X073385Y009661D01*
X073705Y009341D01*
X074905Y009341D01*
X075225Y009661D01*
X076025Y009661D01*
X076185Y009501D01*
X076345Y009501D01*
X076505Y009341D01*
X077865Y009341D01*
X078185Y009661D01*
X078825Y009661D01*
X079145Y009341D01*
X080905Y009341D01*
X081225Y009661D01*
X081705Y009661D01*
X082025Y009341D01*
X084585Y009341D01*
X084905Y009661D01*
X085225Y009661D01*
X085705Y009181D01*
X086585Y009181D01*
X086905Y009501D01*
X087545Y009501D01*
X088185Y008861D01*
X088265Y008861D01*
X088425Y008541D02*
X088025Y008541D01*
X087865Y008701D01*
X087865Y008941D01*
X087465Y009341D01*
X086985Y009341D01*
X086665Y009021D01*
X081625Y009021D01*
X081465Y009181D01*
X081305Y009021D01*
X078985Y009021D01*
X078665Y009341D01*
X078345Y009341D01*
X078025Y009021D01*
X076185Y009021D01*
X075865Y009341D01*
X075385Y009341D01*
X075065Y009021D01*
X068905Y009021D01*
X068905Y009261D01*
X068905Y009021D02*
X067465Y009021D01*
X067145Y009341D01*
X066825Y009341D01*
X066505Y009021D01*
X064665Y009021D01*
X064345Y009341D01*
X063865Y009341D01*
X063545Y009021D01*
X057465Y009021D01*
X057305Y009181D01*
X057145Y009021D01*
X055705Y009021D01*
X055385Y009341D01*
X055065Y009341D01*
X054745Y009021D01*
X052825Y009021D01*
X052505Y009341D01*
X052025Y009341D01*
X051705Y009021D01*
X045705Y009021D01*
X045545Y009181D01*
X045385Y009021D01*
X044185Y009021D01*
X043865Y009341D01*
X043545Y009341D01*
X043225Y009021D01*
X041385Y009021D01*
X041065Y009341D01*
X040585Y009341D01*
X040265Y009021D01*
X034265Y009021D01*
X034105Y009181D01*
X033945Y009021D01*
X032425Y009021D01*
X032105Y009341D01*
X031785Y009341D01*
X031465Y009021D01*
X029625Y009021D01*
X029305Y009341D01*
X028745Y009341D01*
X028425Y009021D01*
X022745Y009021D01*
X022585Y009181D01*
X022425Y009021D01*
X020985Y009021D01*
X020665Y009341D01*
X020345Y009341D01*
X020025Y009021D01*
X018105Y009021D01*
X017785Y009341D01*
X017305Y009341D01*
X016985Y009021D01*
X012665Y009021D01*
X012505Y009181D01*
X012345Y009501D02*
X011865Y009021D01*
X009625Y009021D01*
X009305Y009341D01*
X008905Y009341D01*
X008425Y008861D01*
X006345Y008861D01*
X006025Y009181D01*
X005705Y009181D01*
X005545Y009021D01*
X005545Y008781D01*
X005465Y008701D01*
X004825Y008701D01*
X004665Y008861D01*
X004145Y008541D02*
X003825Y008221D01*
X002825Y008221D01*
X004145Y008541D02*
X011961Y008541D01*
X023561Y008541D01*
X035161Y008541D01*
X046661Y008541D01*
X058361Y008541D01*
X069971Y008541D01*
X081561Y008541D01*
X082651Y007451D01*
X082425Y008301D02*
X082665Y008541D01*
X083705Y008541D01*
X083945Y008301D01*
X082025Y008541D02*
X082025Y008701D01*
X075785Y008701D01*
X075625Y008861D01*
X075465Y008701D01*
X064265Y008701D01*
X064105Y008861D01*
X064025Y008861D01*
X063865Y008701D01*
X052425Y008701D01*
X052265Y008861D01*
X052185Y008861D01*
X052025Y008701D01*
X040985Y008701D01*
X040825Y008861D01*
X040745Y008861D01*
X040585Y008701D01*
X029225Y008701D01*
X029065Y008861D01*
X028985Y008861D01*
X028825Y008701D01*
X017705Y008701D01*
X017545Y008861D01*
X017385Y008701D01*
X006025Y008701D01*
X005865Y008861D01*
X007305Y009341D02*
X007625Y009021D01*
X008345Y009021D01*
X008825Y009501D01*
X009385Y009501D01*
X009705Y009181D01*
X009225Y008861D02*
X009065Y009021D01*
X009225Y008861D02*
X017065Y008861D01*
X017385Y009181D01*
X017705Y009181D01*
X018025Y008861D01*
X020425Y008861D01*
X020505Y008941D01*
X020505Y009021D01*
X020665Y008861D01*
X028505Y008861D01*
X028825Y009181D01*
X029225Y009181D01*
X029545Y008861D01*
X031705Y008861D01*
X031865Y009021D01*
X031945Y009021D01*
X032105Y008861D01*
X040345Y008861D01*
X040665Y009181D01*
X040985Y009181D01*
X041305Y008861D01*
X043545Y008861D01*
X043705Y009021D01*
X043865Y008861D01*
X051785Y008861D01*
X052105Y009181D01*
X052425Y009181D01*
X052745Y008861D01*
X055065Y008861D01*
X055225Y009021D01*
X055385Y008861D01*
X063625Y008861D01*
X063945Y009181D01*
X064265Y009181D01*
X064585Y008861D01*
X066825Y008861D01*
X066985Y009021D01*
X067145Y008861D01*
X075145Y008861D01*
X075465Y009181D01*
X075785Y009181D01*
X076105Y008861D01*
X078345Y008861D01*
X078505Y009021D01*
X078665Y008861D01*
X086745Y008861D01*
X087065Y009181D01*
X087385Y009181D01*
X087705Y008861D01*
X087705Y008621D01*
X087945Y008381D01*
X088505Y008381D01*
X088665Y008541D01*
X088985Y008541D01*
X089145Y008381D01*
X089385Y008381D01*
X089705Y008301D02*
X089865Y008141D01*
X091065Y008141D01*
X091465Y008541D01*
X091865Y008541D01*
X092505Y007901D01*
X092505Y007101D01*
X092284Y006880D01*
X092099Y006880D01*
X091549Y006682D02*
X090952Y006682D01*
X089140Y006191D02*
X088649Y006682D01*
X088052Y006682D01*
X087545Y006941D02*
X087545Y007421D01*
X089705Y008301D02*
X089705Y008541D01*
X089545Y008701D01*
X088585Y008701D01*
X088425Y008541D01*
X089945Y008941D02*
X090265Y008621D01*
X089945Y008941D02*
X089945Y009341D01*
X088745Y010541D01*
X087785Y010541D01*
X087065Y011261D01*
X087065Y012141D01*
X088105Y013181D01*
X088105Y015981D01*
X088925Y016821D01*
X089185Y016821D01*
X089165Y016421D02*
X088885Y016421D01*
X088345Y015901D01*
X088345Y013101D01*
X087305Y012061D01*
X087305Y011261D01*
X087865Y010701D01*
X092105Y010701D01*
X092585Y010221D01*
X086825Y009901D02*
X086425Y009501D01*
X085865Y009501D01*
X085385Y009981D01*
X084745Y009981D01*
X084425Y009661D01*
X083625Y009661D01*
X083465Y009821D01*
X084905Y009181D02*
X081945Y009181D01*
X081625Y009501D01*
X081305Y009501D01*
X080985Y009181D01*
X079065Y009181D01*
X078745Y009501D01*
X078265Y009501D01*
X077945Y009181D01*
X076265Y009181D01*
X075945Y009501D01*
X075305Y009501D01*
X074985Y009181D01*
X073385Y009181D01*
X073225Y009341D01*
X073065Y009181D01*
X069545Y009181D01*
X069145Y009581D01*
X068745Y009581D01*
X068345Y009181D01*
X067545Y009181D01*
X067225Y009501D01*
X066745Y009501D01*
X066425Y009181D01*
X064745Y009181D01*
X064425Y009501D01*
X063785Y009501D01*
X063465Y009181D01*
X061865Y009181D01*
X061705Y009341D01*
X061545Y009181D01*
X057785Y009181D01*
X057465Y009501D01*
X057145Y009501D01*
X056825Y009181D01*
X055785Y009181D01*
X055465Y009501D01*
X054985Y009501D01*
X054665Y009181D01*
X052905Y009181D01*
X052585Y009501D01*
X051945Y009501D01*
X051625Y009181D01*
X050345Y009181D01*
X050185Y009341D01*
X050025Y009181D01*
X046025Y009181D01*
X045705Y009501D01*
X045385Y009501D01*
X045065Y009181D01*
X044265Y009181D01*
X043945Y009501D01*
X043465Y009501D01*
X043145Y009181D01*
X041465Y009181D01*
X041145Y009501D01*
X040505Y009501D01*
X040185Y009181D01*
X038585Y009181D01*
X038425Y009341D01*
X038265Y009181D01*
X034665Y009181D01*
X034345Y009501D01*
X033945Y009501D01*
X033625Y009181D01*
X032505Y009181D01*
X032185Y009501D01*
X031705Y009501D01*
X031385Y009181D01*
X029705Y009181D01*
X029385Y009501D01*
X028665Y009501D01*
X028345Y009181D01*
X027225Y009181D01*
X027065Y009341D01*
X026905Y009181D01*
X023065Y009181D01*
X022745Y009501D01*
X022425Y009501D01*
X022105Y009181D01*
X021065Y009181D01*
X020745Y009501D01*
X020265Y009501D01*
X019945Y009181D01*
X018185Y009181D01*
X017865Y009501D01*
X017225Y009501D01*
X016905Y009181D01*
X015705Y009181D01*
X015545Y009341D01*
X015385Y009181D01*
X012985Y009181D01*
X012665Y009501D01*
X012345Y009501D01*
X011961Y008541D02*
X013051Y007451D01*
X015552Y006682D02*
X016149Y006682D01*
X016640Y006191D01*
X018452Y006682D02*
X019049Y006682D01*
X019540Y006191D01*
X021352Y006682D02*
X021949Y006682D01*
X022440Y006191D01*
X024252Y006682D02*
X024849Y006682D01*
X025340Y006191D01*
X024825Y005741D02*
X024651Y005915D01*
X024651Y006191D01*
X027152Y006682D02*
X027749Y006682D01*
X028240Y006191D01*
X030052Y006682D02*
X030649Y006682D01*
X031140Y006191D01*
X032952Y006682D02*
X033549Y006682D01*
X034040Y006191D01*
X035852Y006682D02*
X036449Y006682D01*
X036940Y006191D01*
X036585Y005741D02*
X036251Y006075D01*
X036251Y006191D01*
X038752Y006682D02*
X039349Y006682D01*
X039840Y006191D01*
X041652Y006682D02*
X042249Y006682D01*
X042740Y006191D01*
X044452Y006682D02*
X045049Y006682D01*
X045540Y006191D01*
X047352Y006682D02*
X047949Y006682D01*
X048440Y006191D01*
X048025Y005741D02*
X047751Y006015D01*
X047751Y006191D01*
X050252Y006682D02*
X050849Y006682D01*
X051340Y006191D01*
X053252Y006682D02*
X053849Y006682D01*
X054340Y006191D01*
X056152Y006682D02*
X056749Y006682D01*
X057240Y006191D01*
X059052Y006682D02*
X059649Y006682D01*
X060140Y006191D01*
X059705Y005741D02*
X059451Y005995D01*
X059451Y006191D01*
X061952Y006682D02*
X062549Y006682D01*
X063040Y006191D01*
X064852Y006682D02*
X065449Y006682D01*
X065940Y006191D01*
X067752Y006682D02*
X068349Y006682D01*
X068840Y006191D01*
X070652Y006692D02*
X071249Y006692D01*
X071740Y006201D01*
X071305Y005741D02*
X071051Y005995D01*
X071051Y006201D01*
X073552Y006682D02*
X074149Y006682D01*
X074640Y006191D01*
X076452Y006682D02*
X077049Y006682D01*
X077540Y006191D01*
X079352Y006682D02*
X079949Y006682D01*
X080440Y006191D01*
X082201Y005741D02*
X082619Y006160D01*
X082849Y006682D02*
X083340Y006191D01*
X082849Y006682D02*
X082252Y006682D01*
X082025Y008701D02*
X087065Y008701D01*
X087225Y008861D01*
X085065Y009341D02*
X084905Y009181D01*
X085465Y010141D02*
X085945Y009661D01*
X086345Y009661D01*
X086625Y009941D01*
X086625Y012341D01*
X087625Y013341D01*
X087625Y016141D01*
X089225Y017741D01*
X089185Y017241D02*
X089025Y017241D01*
X087865Y016061D01*
X087865Y013261D01*
X086825Y012221D01*
X086825Y009901D01*
X085465Y010141D02*
X081225Y010141D01*
X080745Y009661D01*
X079865Y009661D01*
X079505Y010021D01*
X072865Y010021D01*
X072505Y009661D01*
X071945Y009661D01*
X071705Y009901D01*
X072625Y010421D02*
X071025Y012021D01*
X065065Y012021D01*
X065025Y011941D01*
X064745Y012261D02*
X064425Y011941D01*
X064745Y012261D02*
X071185Y012261D01*
X072865Y010581D01*
X077745Y010581D01*
X078505Y011341D01*
X083145Y011341D01*
X083545Y011741D01*
X083545Y012621D01*
X083145Y012861D02*
X083145Y011821D01*
X083065Y011741D01*
X083225Y011181D02*
X078665Y011181D01*
X077905Y010421D01*
X072625Y010421D01*
X076345Y009501D02*
X076425Y009501D01*
X071051Y007461D02*
X069971Y008541D01*
X059451Y007451D02*
X058361Y008541D01*
X047751Y007451D02*
X046661Y008541D01*
X044505Y009661D02*
X044425Y009661D01*
X036251Y007451D02*
X035161Y008541D01*
X024651Y007451D02*
X023561Y008541D01*
X021745Y011341D02*
X021665Y011381D01*
X001649Y006682D02*
X001052Y006682D01*
X003225Y006221D02*
X003705Y005741D01*
X002505Y005581D02*
X001265Y005581D01*
X001225Y005621D01*
X007945Y005101D02*
X008105Y005261D01*
X012345Y005261D01*
X013225Y004781D02*
X013545Y005101D01*
X013225Y004781D02*
X012585Y004781D01*
X071225Y015581D02*
X071225Y015661D01*
X071705Y016141D01*
X071705Y016461D01*
X073865Y018621D01*
X080825Y018621D01*
X081705Y017741D01*
X081705Y015741D01*
X082345Y015101D01*
X084105Y015101D01*
X085145Y016141D01*
X085465Y016141D01*
X085745Y015861D01*
X086225Y015861D01*
X086505Y015581D01*
X086505Y013421D01*
X086265Y013181D01*
X086265Y012381D01*
X086305Y012341D01*
X086585Y012701D02*
X086425Y012861D01*
X086425Y013101D01*
X086665Y013341D01*
X086665Y015661D01*
X086105Y016221D01*
X085865Y016221D01*
X085785Y016301D01*
X085065Y016301D01*
X084025Y015261D01*
X082425Y015261D01*
X081865Y015821D01*
X081865Y017821D01*
X080905Y018781D01*
X073705Y018781D01*
X071545Y016621D01*
X071545Y016461D01*
X071225Y016141D01*
X071225Y016701D02*
X071305Y016701D01*
X073625Y019021D01*
X080905Y019021D01*
X082025Y017901D01*
X082025Y015901D01*
X082505Y015421D01*
X083945Y015421D01*
X085065Y016541D01*
X086025Y016541D01*
X086825Y015741D01*
X086825Y013021D01*
X087145Y013261D02*
X086985Y013421D01*
X086985Y015861D01*
X086105Y016741D01*
X086105Y018101D01*
X085505Y018701D01*
X084785Y018701D01*
X083905Y019581D01*
X073865Y019581D01*
X071625Y017341D01*
X071225Y017341D01*
X084905Y013181D02*
X084905Y012861D01*
X083225Y011181D01*
D26*
X079305Y009661D03*
X081465Y009181D03*
X078505Y009021D03*
X076425Y009501D03*
X075625Y008861D03*
X073225Y009341D03*
X068905Y009261D03*
X067785Y009661D03*
X064985Y009501D03*
X066985Y009021D03*
X064105Y008861D03*
X061705Y009341D03*
X057305Y009181D03*
X056025Y009661D03*
X055225Y009021D03*
X053145Y009501D03*
X050185Y009341D03*
X052265Y008861D03*
X045545Y009181D03*
X043705Y009021D03*
X041625Y009501D03*
X044505Y009661D03*
X040825Y008861D03*
X038425Y009341D03*
X034105Y009181D03*
X032745Y009661D03*
X029865Y009501D03*
X031945Y009021D03*
X029065Y008861D03*
X027065Y009341D03*
X022585Y009181D03*
X021305Y009661D03*
X020505Y009021D03*
X018345Y009501D03*
X017545Y008861D03*
X015545Y009341D03*
X012505Y009181D03*
X010425Y009501D03*
X009065Y009021D03*
X007305Y009341D03*
X005865Y008861D03*
X004665Y008861D03*
X002825Y008221D03*
X001225Y005621D03*
X005145Y005261D03*
X007945Y005101D03*
X010905Y004941D03*
X012905Y005421D03*
X015465Y005261D03*
X018185Y005101D03*
X020985Y004941D03*
X024585Y005421D03*
X027065Y005261D03*
X029945Y005101D03*
X032825Y004941D03*
X036265Y005421D03*
X038585Y005261D03*
X041465Y005101D03*
X044185Y004941D03*
X047705Y005421D03*
X050025Y005261D03*
X053145Y005101D03*
X055945Y004941D03*
X059385Y005421D03*
X061819Y005295D03*
X064665Y005101D03*
X067465Y004941D03*
X070985Y005421D03*
X073465Y005261D03*
X076185Y005101D03*
X079145Y004941D03*
X082585Y005661D03*
X089385Y008381D03*
X088265Y008861D03*
X087225Y008861D03*
X085065Y009341D03*
D27*
X085551Y007451D02*
X085551Y007265D01*
X085975Y006841D01*
X086260Y006841D01*
X086299Y006880D01*
X088451Y007305D02*
X088875Y006881D01*
X089198Y006881D01*
X089199Y006880D01*
X088451Y007305D02*
X088451Y007451D01*
X091351Y007451D02*
X091351Y007265D01*
X091775Y006841D01*
X092060Y006841D01*
X092099Y006880D01*
X091351Y006191D02*
X091319Y006160D01*
X090819Y006160D01*
X088451Y006191D02*
X088419Y006160D01*
X087919Y006160D01*
X085551Y006191D02*
X085519Y006160D01*
X085019Y006160D01*
X082651Y006191D02*
X082619Y006160D01*
X082119Y006160D01*
X083055Y006861D02*
X083380Y006861D01*
X083399Y006880D01*
X083055Y006861D02*
X082651Y007265D01*
X082651Y007451D01*
X080499Y006880D02*
X080498Y006881D01*
X080135Y006881D01*
X079751Y007265D01*
X079751Y007451D01*
X077225Y006861D02*
X076851Y007235D01*
X076851Y007451D01*
X077225Y006861D02*
X077580Y006861D01*
X077599Y006880D01*
X074699Y006880D02*
X074680Y006861D01*
X074345Y006861D01*
X073951Y007255D01*
X073951Y007451D01*
X071799Y006890D02*
X071770Y006861D01*
X071465Y006861D01*
X071051Y007275D01*
X071051Y007461D01*
X068585Y006861D02*
X068151Y007295D01*
X068151Y007451D01*
X068585Y006861D02*
X068880Y006861D01*
X068899Y006880D01*
X065999Y006880D02*
X065980Y006861D01*
X065625Y006861D01*
X065251Y007235D01*
X065251Y007451D01*
X063099Y006880D02*
X063080Y006861D01*
X062745Y006861D01*
X062351Y007255D01*
X062351Y007451D01*
X060199Y006880D02*
X060180Y006861D01*
X059865Y006861D01*
X059451Y007275D01*
X059451Y007451D01*
X056985Y006861D02*
X056551Y007295D01*
X056551Y007451D01*
X056985Y006861D02*
X057280Y006861D01*
X057299Y006880D01*
X054399Y006880D02*
X054380Y006861D01*
X054025Y006861D01*
X053651Y007235D01*
X053651Y007451D01*
X051399Y006880D02*
X051380Y006861D01*
X051065Y006861D01*
X050651Y007275D01*
X050651Y007451D01*
X048499Y006880D02*
X048480Y006861D01*
X048185Y006861D01*
X047751Y007295D01*
X047751Y007451D01*
X045225Y006861D02*
X044851Y007235D01*
X044851Y007451D01*
X045225Y006861D02*
X045580Y006861D01*
X045599Y006880D01*
X042799Y006880D02*
X042780Y006861D01*
X042425Y006861D01*
X042051Y007235D01*
X042051Y007451D01*
X039899Y006880D02*
X039880Y006861D01*
X039545Y006861D01*
X039151Y007255D01*
X039151Y007451D01*
X036665Y006861D02*
X036251Y007275D01*
X036251Y007451D01*
X036665Y006861D02*
X036980Y006861D01*
X036999Y006880D01*
X034099Y006880D02*
X034080Y006861D01*
X033705Y006861D01*
X033351Y007215D01*
X033351Y007451D01*
X031199Y006880D02*
X031180Y006861D01*
X030825Y006861D01*
X030451Y007235D01*
X030451Y007451D01*
X028299Y006880D02*
X028280Y006861D01*
X027945Y006861D01*
X027551Y007255D01*
X027551Y007451D01*
X025065Y006861D02*
X024651Y007275D01*
X024651Y007451D01*
X025065Y006861D02*
X025380Y006861D01*
X025399Y006880D01*
X022499Y006880D02*
X022480Y006861D01*
X022185Y006861D01*
X021751Y007295D01*
X021751Y007451D01*
X019599Y006880D02*
X019580Y006861D01*
X019225Y006861D01*
X018851Y007235D01*
X018851Y007451D01*
X016699Y006880D02*
X016680Y006861D01*
X016345Y006861D01*
X015951Y007255D01*
X015951Y007451D01*
X013465Y006861D02*
X013051Y007275D01*
X013051Y007451D01*
X013465Y006861D02*
X013780Y006861D01*
X013799Y006880D01*
X010899Y006880D02*
X010880Y006861D01*
X010585Y006861D01*
X010151Y007295D01*
X010151Y007451D01*
X007999Y006880D02*
X007980Y006861D01*
X007705Y006861D01*
X007251Y007315D01*
X007251Y007451D01*
X004745Y006861D02*
X004351Y007255D01*
X004351Y007451D01*
X004745Y006861D02*
X005080Y006861D01*
X005099Y006880D01*
X002199Y006880D02*
X002180Y006861D01*
X001865Y006861D01*
X001451Y007275D01*
X001451Y007451D01*
X001451Y006191D02*
X001419Y006160D01*
X000919Y006160D01*
X003819Y006160D02*
X004319Y006160D01*
X004351Y006191D01*
X006719Y006160D02*
X007219Y006160D01*
X007251Y006191D01*
X009619Y006160D02*
X010119Y006160D01*
X010151Y006191D01*
X012519Y006160D02*
X013019Y006160D01*
X013051Y006191D01*
X015419Y006160D02*
X015919Y006160D01*
X015951Y006191D01*
X018319Y006160D02*
X018819Y006160D01*
X018851Y006191D01*
X021219Y006160D02*
X021719Y006160D01*
X021751Y006191D01*
X024119Y006160D02*
X024619Y006160D01*
X024651Y006191D01*
X027019Y006160D02*
X027519Y006160D01*
X027551Y006191D01*
X029919Y006160D02*
X030419Y006160D01*
X030451Y006191D01*
X032819Y006160D02*
X033319Y006160D01*
X033351Y006191D01*
X035719Y006160D02*
X036219Y006160D01*
X036251Y006191D01*
X038619Y006160D02*
X039119Y006160D01*
X039151Y006191D01*
X041519Y006160D02*
X042019Y006160D01*
X042051Y006191D01*
X044319Y006160D02*
X044819Y006160D01*
X044851Y006191D01*
X047219Y006160D02*
X047719Y006160D01*
X047751Y006191D01*
X050119Y006160D02*
X050619Y006160D01*
X050651Y006191D01*
X053119Y006160D02*
X053619Y006160D01*
X053651Y006191D01*
X056019Y006160D02*
X056519Y006160D01*
X056551Y006191D01*
X058919Y006160D02*
X059419Y006160D01*
X059451Y006191D01*
X061819Y006160D02*
X062319Y006160D01*
X062351Y006191D01*
X064719Y006160D02*
X065219Y006160D01*
X065251Y006191D01*
X067619Y006160D02*
X068119Y006160D01*
X068151Y006191D01*
X070519Y006170D02*
X071019Y006170D01*
X071051Y006201D01*
X073419Y006160D02*
X073919Y006160D01*
X073951Y006191D01*
X076319Y006160D02*
X076819Y006160D01*
X076851Y006191D01*
X079219Y006160D02*
X079719Y006160D01*
X079751Y006191D01*
X091105Y013021D02*
X092975Y011151D01*
X093055Y011141D01*
X093155Y012141D02*
X092305Y012141D01*
X091225Y013221D01*
X090665Y013221D01*
X089225Y014661D01*
X089225Y015421D01*
X089745Y015941D01*
X089745Y018101D01*
X088785Y019061D01*
X087865Y019061D01*
X087185Y018381D01*
X086665Y018381D01*
X086865Y018101D02*
X086705Y017941D01*
X086865Y018101D02*
X087185Y018101D01*
X087945Y018861D01*
X088665Y018861D01*
X089545Y017981D01*
X089545Y016061D01*
X089025Y015541D01*
X089025Y014541D01*
X090545Y013021D01*
X091105Y013021D01*
D28*
X084675Y013941D03*
X084215Y013941D03*
X082325Y012121D03*
D29*
X082060Y011701D03*
D30*
X074985Y010901D02*
X073505Y010901D01*
D31*
X085405Y018251D03*
M02*
