G75*
G70*
%OFA0B0*%
%FSLAX24Y24*%
%IPPOS*%
%LPD*%
%AMOC8*
5,1,8,0,0,1.08239X$1,22.5*
%
%ADD10C,0.0200*%
%ADD11C,0.0130*%
%ADD12C,0.0100*%
%ADD13C,0.0060*%
%ADD14C,0.0080*%
%ADD15R,0.1100X0.0148*%
%ADD16R,0.0148X0.1100*%
%ADD17C,0.0050*%
%ADD18C,0.0020*%
%ADD19C,0.0040*%
%ADD20C,0.0030*%
%ADD21C,0.0160*%
%ADD22C,0.0010*%
D10*
X071165Y008926D02*
X071165Y009460D01*
X071432Y009727D01*
X071699Y009460D01*
X071699Y008926D01*
X072086Y008926D02*
X072086Y009727D01*
X072620Y008926D01*
X072620Y009727D01*
X073007Y009727D02*
X073274Y009727D01*
X073140Y009727D02*
X073140Y008926D01*
X073007Y008926D02*
X073274Y008926D01*
X073621Y008926D02*
X074021Y008926D01*
X074154Y009060D01*
X074154Y009193D01*
X074021Y009327D01*
X073621Y009327D01*
X074021Y009327D02*
X074154Y009460D01*
X074154Y009594D01*
X074021Y009727D01*
X073621Y009727D01*
X073621Y008926D01*
X074541Y008926D02*
X074808Y008926D01*
X074675Y008926D02*
X074675Y009727D01*
X074808Y009727D02*
X074541Y009727D01*
X075155Y009727D02*
X075155Y008926D01*
X075155Y009193D02*
X075689Y009727D01*
X076076Y009727D02*
X076076Y008926D01*
X076610Y008926D01*
X076343Y009327D02*
X076076Y009327D01*
X075689Y008926D02*
X075289Y009327D01*
X076076Y009727D02*
X076610Y009727D01*
X071699Y009327D02*
X071165Y009327D01*
D11*
X073050Y008407D02*
X073145Y008502D01*
X073335Y008502D01*
X073431Y008407D01*
X073431Y008312D01*
X073050Y007931D01*
X073431Y007931D01*
X073695Y008122D02*
X073885Y007931D01*
X074075Y008122D01*
X074075Y008502D01*
X074339Y008502D02*
X074720Y008502D01*
X074720Y008407D01*
X074339Y008027D01*
X074339Y007931D01*
X073695Y008122D02*
X073695Y008502D01*
X075628Y008502D02*
X075914Y008502D01*
X076009Y008407D01*
X076009Y008312D01*
X075914Y008217D01*
X075628Y008217D01*
X075628Y008502D02*
X075628Y007931D01*
X075914Y007931D01*
X076009Y008027D01*
X076009Y008122D01*
X075914Y008217D01*
X076463Y008502D02*
X076463Y007931D01*
X076273Y008502D02*
X076653Y008502D01*
D12*
X083195Y008036D02*
X083195Y010386D01*
X085639Y013421D02*
X085641Y013441D01*
X085646Y013461D01*
X085656Y013479D01*
X085668Y013496D01*
X085683Y013510D01*
X085701Y013520D01*
X085720Y013528D01*
X085740Y013532D01*
X085760Y013532D01*
X085780Y013528D01*
X085799Y013520D01*
X085817Y013510D01*
X085832Y013496D01*
X085844Y013479D01*
X085854Y013461D01*
X085859Y013441D01*
X085861Y013421D01*
X085859Y013401D01*
X085854Y013381D01*
X085844Y013363D01*
X085832Y013346D01*
X085817Y013332D01*
X085799Y013322D01*
X085780Y013314D01*
X085760Y013310D01*
X085740Y013310D01*
X085720Y013314D01*
X085701Y013322D01*
X085683Y013332D01*
X085668Y013346D01*
X085656Y013363D01*
X085646Y013381D01*
X085641Y013401D01*
X085639Y013421D01*
X011277Y009790D02*
X011010Y009523D01*
X011077Y009456D01*
X011210Y009456D01*
X011277Y009523D01*
X011277Y009790D01*
X011210Y009857D01*
X011077Y009857D01*
X011010Y009790D01*
X011010Y009523D01*
X010817Y009456D02*
X010550Y009456D01*
X010683Y009456D02*
X010683Y009857D01*
X010550Y009723D01*
X010356Y009790D02*
X010090Y009523D01*
X010156Y009456D01*
X010290Y009456D01*
X010356Y009523D01*
X010356Y009790D01*
X010290Y009857D01*
X010156Y009857D01*
X010090Y009790D01*
X010090Y009523D01*
X009896Y009456D02*
X009629Y009456D01*
X009896Y009723D01*
X009896Y009790D01*
X009829Y009857D01*
X009696Y009857D01*
X009629Y009790D01*
X008995Y009723D02*
X008862Y009857D01*
X008995Y009723D02*
X008995Y009590D01*
X008862Y009456D01*
X008669Y009523D02*
X008602Y009456D01*
X008468Y009456D01*
X008402Y009523D01*
X008402Y009790D01*
X008468Y009857D01*
X008602Y009857D01*
X008669Y009790D01*
X008228Y009857D02*
X008095Y009723D01*
X008095Y009590D01*
X008228Y009456D01*
X007471Y009456D02*
X007404Y009456D01*
X007404Y009523D01*
X007471Y009523D01*
X007471Y009456D01*
X007211Y009456D02*
X007211Y009857D01*
X007077Y009723D01*
X006944Y009857D01*
X006944Y009456D01*
X006290Y009523D02*
X006290Y009790D01*
X006223Y009857D01*
X006023Y009857D01*
X006023Y009456D01*
X006223Y009456D01*
X006290Y009523D01*
X005850Y009456D02*
X005716Y009456D01*
X005783Y009456D02*
X005783Y009857D01*
X005716Y009857D02*
X005850Y009857D01*
X005523Y009857D02*
X005523Y009590D01*
X005389Y009456D01*
X005256Y009590D01*
X005256Y009857D01*
X005062Y009723D02*
X004929Y009857D01*
X004796Y009723D01*
X004796Y009456D01*
X004796Y009657D02*
X005062Y009657D01*
X005062Y009723D02*
X005062Y009456D01*
X004602Y009523D02*
X004602Y009790D01*
X004535Y009857D01*
X004335Y009857D01*
X004335Y009456D01*
X004535Y009456D01*
X004602Y009523D01*
D13*
X082795Y010640D02*
X082838Y010596D01*
X083012Y010596D01*
X083055Y010640D01*
X083055Y010727D01*
X083012Y010770D01*
X083055Y010891D02*
X083055Y011065D01*
X083055Y010978D02*
X082795Y010978D01*
X082882Y010891D01*
X082838Y010770D02*
X082795Y010727D01*
X082795Y010640D01*
X083710Y010926D02*
X083877Y010759D01*
X084211Y011093D02*
X084044Y011260D01*
X083055Y011186D02*
X082882Y011359D01*
X082838Y011359D01*
X082795Y011316D01*
X082795Y011229D01*
X082838Y011186D01*
X083055Y011186D02*
X083055Y011359D01*
X090591Y011113D02*
X090591Y010940D01*
X090635Y010896D01*
X090721Y010896D01*
X090765Y010940D01*
X090886Y010896D02*
X091059Y010896D01*
X090973Y010896D02*
X090973Y011157D01*
X090886Y011070D01*
X090765Y011113D02*
X090721Y011157D01*
X090635Y011157D01*
X090591Y011113D01*
X091181Y011070D02*
X091267Y011157D01*
X091267Y010896D01*
X091181Y010896D02*
X091354Y010896D01*
X087690Y009127D02*
X087560Y008997D01*
X087733Y008997D01*
X087690Y009127D02*
X087690Y008866D01*
X087439Y008910D02*
X087395Y008866D01*
X087309Y008866D01*
X087265Y008910D01*
X087265Y009083D01*
X087309Y009127D01*
X087395Y009127D01*
X087439Y009083D01*
D14*
X087205Y008686D02*
X087205Y007986D01*
X088665Y007986D01*
X088665Y008686D01*
X087205Y008686D01*
X090395Y009236D02*
X090395Y010536D01*
X091495Y010536D02*
X091495Y009236D01*
X089215Y010114D02*
X089057Y009957D01*
X085593Y009957D01*
X085435Y010114D01*
X085435Y013579D01*
X085593Y013736D01*
X089057Y013736D01*
X089215Y013579D01*
X089215Y010114D01*
X083590Y010328D02*
X083590Y010407D01*
X081622Y010407D01*
X081622Y010328D01*
X081135Y010516D02*
X082435Y010516D01*
X082435Y011616D02*
X081135Y011616D01*
X086555Y014856D02*
X086555Y015556D01*
X088015Y015556D01*
X088015Y014856D01*
X086555Y014856D01*
X083590Y008084D02*
X083590Y008005D01*
X081622Y008005D01*
X081622Y008084D01*
D15*
X090945Y009773D03*
D16*
X081672Y011066D03*
D17*
X001175Y004435D02*
X001057Y004553D01*
X001057Y004572D01*
X001195Y004572D01*
X001195Y004454D01*
X001097Y004553D01*
X001136Y004553D01*
X001156Y004533D01*
X001156Y004553D01*
X001057Y004572D02*
X001057Y005458D01*
X001097Y005498D01*
X001215Y005498D01*
X001726Y005498D02*
X001884Y005498D01*
X002396Y005498D02*
X002474Y005498D01*
X002514Y005458D01*
X002514Y004474D01*
X002474Y004435D01*
X002396Y004435D01*
X001884Y004435D02*
X001687Y004435D01*
X001466Y004946D02*
X001468Y004981D01*
X001474Y005016D01*
X001483Y005050D01*
X001497Y005083D01*
X001513Y005114D01*
X001533Y005143D01*
X001557Y005169D01*
X001583Y005193D01*
X001611Y005214D01*
X001642Y005232D01*
X001674Y005246D01*
X001707Y005256D01*
X001742Y005263D01*
X001777Y005266D01*
X001812Y005265D01*
X001847Y005260D01*
X001882Y005251D01*
X001915Y005239D01*
X001946Y005223D01*
X001976Y005204D01*
X002003Y005181D01*
X002027Y005156D01*
X002049Y005128D01*
X002067Y005098D01*
X002082Y005066D01*
X002094Y005033D01*
X002102Y004999D01*
X002106Y004964D01*
X002106Y004928D01*
X002102Y004893D01*
X002094Y004859D01*
X002082Y004826D01*
X002067Y004794D01*
X002049Y004764D01*
X002027Y004736D01*
X002003Y004711D01*
X001976Y004688D01*
X001946Y004669D01*
X001915Y004653D01*
X001882Y004641D01*
X001847Y004632D01*
X001812Y004627D01*
X001777Y004626D01*
X001742Y004629D01*
X001707Y004636D01*
X001674Y004646D01*
X001642Y004660D01*
X001611Y004678D01*
X001583Y004699D01*
X001557Y004723D01*
X001533Y004749D01*
X001513Y004778D01*
X001497Y004809D01*
X001483Y004842D01*
X001474Y004876D01*
X001468Y004911D01*
X001466Y004946D01*
X003957Y004572D02*
X004095Y004572D01*
X004095Y004454D01*
X003997Y004553D01*
X004036Y004553D01*
X004056Y004533D01*
X004056Y004553D01*
X003957Y004553D02*
X004075Y004435D01*
X003957Y004553D02*
X003957Y004572D01*
X003957Y005458D01*
X003997Y005498D01*
X004115Y005498D01*
X004626Y005498D02*
X004784Y005498D01*
X005296Y005498D02*
X005374Y005498D01*
X005414Y005458D01*
X005414Y004474D01*
X005374Y004435D01*
X005296Y004435D01*
X004784Y004435D02*
X004587Y004435D01*
X006857Y004553D02*
X006975Y004435D01*
X006995Y004454D02*
X006897Y004553D01*
X006936Y004553D01*
X006956Y004533D01*
X006956Y004553D01*
X006995Y004572D02*
X006995Y004454D01*
X006995Y004572D02*
X006857Y004572D01*
X006857Y004553D01*
X006857Y004572D02*
X006857Y005458D01*
X006897Y005498D01*
X007015Y005498D01*
X007526Y005498D02*
X007684Y005498D01*
X008196Y005498D02*
X008274Y005498D01*
X008314Y005458D01*
X008314Y004474D01*
X008274Y004435D01*
X008196Y004435D01*
X007684Y004435D02*
X007487Y004435D01*
X009757Y004553D02*
X009875Y004435D01*
X009895Y004454D02*
X009797Y004553D01*
X009836Y004553D01*
X009856Y004533D01*
X009856Y004553D01*
X009895Y004572D02*
X009895Y004454D01*
X009895Y004572D02*
X009757Y004572D01*
X009757Y004553D01*
X009757Y004572D02*
X009757Y005458D01*
X009797Y005498D01*
X009915Y005498D01*
X010426Y005498D02*
X010584Y005498D01*
X011096Y005498D02*
X011174Y005498D01*
X011214Y005458D01*
X011214Y004474D01*
X011174Y004435D01*
X011096Y004435D01*
X010584Y004435D02*
X010387Y004435D01*
X012657Y004553D02*
X012775Y004435D01*
X012795Y004454D02*
X012697Y004553D01*
X012736Y004553D01*
X012756Y004533D01*
X012756Y004553D01*
X012795Y004572D02*
X012657Y004572D01*
X012657Y004553D01*
X012657Y004572D02*
X012657Y005458D01*
X012697Y005498D01*
X012815Y005498D01*
X013326Y005498D02*
X013484Y005498D01*
X013996Y005498D02*
X014074Y005498D01*
X014114Y005458D01*
X014114Y004474D01*
X014074Y004435D01*
X013996Y004435D01*
X013484Y004435D02*
X013287Y004435D01*
X012795Y004454D02*
X012795Y004572D01*
X013066Y004946D02*
X013068Y004981D01*
X013074Y005016D01*
X013083Y005050D01*
X013097Y005083D01*
X013113Y005114D01*
X013133Y005143D01*
X013157Y005169D01*
X013183Y005193D01*
X013211Y005214D01*
X013242Y005232D01*
X013274Y005246D01*
X013307Y005256D01*
X013342Y005263D01*
X013377Y005266D01*
X013412Y005265D01*
X013447Y005260D01*
X013482Y005251D01*
X013515Y005239D01*
X013546Y005223D01*
X013576Y005204D01*
X013603Y005181D01*
X013627Y005156D01*
X013649Y005128D01*
X013667Y005098D01*
X013682Y005066D01*
X013694Y005033D01*
X013702Y004999D01*
X013706Y004964D01*
X013706Y004928D01*
X013702Y004893D01*
X013694Y004859D01*
X013682Y004826D01*
X013667Y004794D01*
X013649Y004764D01*
X013627Y004736D01*
X013603Y004711D01*
X013576Y004688D01*
X013546Y004669D01*
X013515Y004653D01*
X013482Y004641D01*
X013447Y004632D01*
X013412Y004627D01*
X013377Y004626D01*
X013342Y004629D01*
X013307Y004636D01*
X013274Y004646D01*
X013242Y004660D01*
X013211Y004678D01*
X013183Y004699D01*
X013157Y004723D01*
X013133Y004749D01*
X013113Y004778D01*
X013097Y004809D01*
X013083Y004842D01*
X013074Y004876D01*
X013068Y004911D01*
X013066Y004946D01*
X015557Y004572D02*
X015695Y004572D01*
X015695Y004454D01*
X015597Y004553D01*
X015636Y004553D01*
X015656Y004533D01*
X015656Y004553D01*
X015557Y004553D02*
X015675Y004435D01*
X015557Y004553D02*
X015557Y004572D01*
X015557Y005458D01*
X015597Y005498D01*
X015715Y005498D01*
X016226Y005498D02*
X016384Y005498D01*
X016896Y005498D02*
X016974Y005498D01*
X017014Y005458D01*
X017014Y004474D01*
X016974Y004435D01*
X016896Y004435D01*
X016384Y004435D02*
X016187Y004435D01*
X018457Y004553D02*
X018575Y004435D01*
X018595Y004454D02*
X018497Y004553D01*
X018536Y004553D01*
X018556Y004533D01*
X018556Y004553D01*
X018595Y004572D02*
X018595Y004454D01*
X018595Y004572D02*
X018457Y004572D01*
X018457Y004553D01*
X018457Y004572D02*
X018457Y005458D01*
X018497Y005498D01*
X018615Y005498D01*
X019126Y005498D02*
X019284Y005498D01*
X019796Y005498D02*
X019874Y005498D01*
X019914Y005458D01*
X019914Y004474D01*
X019874Y004435D01*
X019796Y004435D01*
X019284Y004435D02*
X019087Y004435D01*
X021357Y004553D02*
X021475Y004435D01*
X021495Y004454D02*
X021397Y004553D01*
X021436Y004553D01*
X021456Y004533D01*
X021456Y004553D01*
X021495Y004572D02*
X021495Y004454D01*
X021495Y004572D02*
X021357Y004572D01*
X021357Y004553D01*
X021357Y004572D02*
X021357Y005458D01*
X021397Y005498D01*
X021515Y005498D01*
X022026Y005498D02*
X022184Y005498D01*
X022696Y005498D02*
X022774Y005498D01*
X022814Y005458D01*
X022814Y004474D01*
X022774Y004435D01*
X022696Y004435D01*
X022184Y004435D02*
X021987Y004435D01*
X024257Y004553D02*
X024375Y004435D01*
X024395Y004454D02*
X024297Y004553D01*
X024336Y004553D01*
X024356Y004533D01*
X024356Y004553D01*
X024395Y004572D02*
X024395Y004454D01*
X024395Y004572D02*
X024257Y004572D01*
X024257Y004553D01*
X024257Y004572D02*
X024257Y005458D01*
X024297Y005498D01*
X024415Y005498D01*
X024926Y005498D02*
X025084Y005498D01*
X025596Y005498D02*
X025674Y005498D01*
X025714Y005458D01*
X025714Y004474D01*
X025674Y004435D01*
X025596Y004435D01*
X025084Y004435D02*
X024887Y004435D01*
X027157Y004553D02*
X027275Y004435D01*
X027295Y004454D02*
X027197Y004553D01*
X027236Y004553D01*
X027256Y004533D01*
X027256Y004553D01*
X027295Y004572D02*
X027295Y004454D01*
X027295Y004572D02*
X027157Y004572D01*
X027157Y004553D01*
X027157Y004572D02*
X027157Y005458D01*
X027197Y005498D01*
X027315Y005498D01*
X027826Y005498D02*
X027984Y005498D01*
X028496Y005498D02*
X028574Y005498D01*
X028614Y005458D01*
X028614Y004474D01*
X028574Y004435D01*
X028496Y004435D01*
X027984Y004435D02*
X027787Y004435D01*
X030057Y004553D02*
X030175Y004435D01*
X030195Y004454D02*
X030097Y004553D01*
X030136Y004553D01*
X030156Y004533D01*
X030156Y004553D01*
X030195Y004572D02*
X030195Y004454D01*
X030195Y004572D02*
X030057Y004572D01*
X030057Y004553D01*
X030057Y004572D02*
X030057Y005458D01*
X030097Y005498D01*
X030215Y005498D01*
X030726Y005498D02*
X030884Y005498D01*
X031396Y005498D02*
X031474Y005498D01*
X031514Y005458D01*
X031514Y004474D01*
X031474Y004435D01*
X031396Y004435D01*
X030884Y004435D02*
X030687Y004435D01*
X032957Y004553D02*
X033075Y004435D01*
X033095Y004454D02*
X032997Y004553D01*
X033036Y004553D01*
X033056Y004533D01*
X033056Y004553D01*
X033095Y004572D02*
X033095Y004454D01*
X033095Y004572D02*
X032957Y004572D01*
X032957Y004553D01*
X032957Y004572D02*
X032957Y005458D01*
X032997Y005498D01*
X033115Y005498D01*
X033626Y005498D02*
X033784Y005498D01*
X034296Y005498D02*
X034374Y005498D01*
X034414Y005458D01*
X034414Y004474D01*
X034374Y004435D01*
X034296Y004435D01*
X033784Y004435D02*
X033587Y004435D01*
X035857Y004553D02*
X035975Y004435D01*
X035995Y004454D02*
X035897Y004553D01*
X035936Y004553D01*
X035956Y004533D01*
X035956Y004553D01*
X035995Y004572D02*
X035995Y004454D01*
X035995Y004572D02*
X035857Y004572D01*
X035857Y004553D01*
X035857Y004572D02*
X035857Y005458D01*
X035897Y005498D01*
X036015Y005498D01*
X036526Y005498D02*
X036684Y005498D01*
X037196Y005498D02*
X037274Y005498D01*
X037314Y005458D01*
X037314Y004474D01*
X037274Y004435D01*
X037196Y004435D01*
X036684Y004435D02*
X036487Y004435D01*
X038757Y004553D02*
X038875Y004435D01*
X038895Y004454D02*
X038797Y004553D01*
X038836Y004553D01*
X038856Y004533D01*
X038856Y004553D01*
X038895Y004572D02*
X038895Y004454D01*
X038895Y004572D02*
X038757Y004572D01*
X038757Y004553D01*
X038757Y004572D02*
X038757Y005458D01*
X038797Y005498D01*
X038915Y005498D01*
X039426Y005498D02*
X039584Y005498D01*
X040096Y005498D02*
X040174Y005498D01*
X040214Y005458D01*
X040214Y004474D01*
X040174Y004435D01*
X040096Y004435D01*
X039584Y004435D02*
X039387Y004435D01*
X041657Y004553D02*
X041775Y004435D01*
X041795Y004454D02*
X041697Y004553D01*
X041736Y004553D01*
X041756Y004533D01*
X041756Y004553D01*
X041795Y004572D02*
X041795Y004454D01*
X041795Y004572D02*
X041657Y004572D01*
X041657Y004553D01*
X041657Y004572D02*
X041657Y005458D01*
X041697Y005498D01*
X041815Y005498D01*
X042326Y005498D02*
X042484Y005498D01*
X042996Y005498D02*
X043074Y005498D01*
X043114Y005458D01*
X043114Y004474D01*
X043074Y004435D01*
X042996Y004435D01*
X042484Y004435D02*
X042287Y004435D01*
X044457Y004553D02*
X044575Y004435D01*
X044595Y004454D02*
X044497Y004553D01*
X044536Y004553D01*
X044556Y004533D01*
X044556Y004553D01*
X044595Y004572D02*
X044595Y004454D01*
X044595Y004572D02*
X044457Y004572D01*
X044457Y004553D01*
X044457Y004572D02*
X044457Y005458D01*
X044497Y005498D01*
X044615Y005498D01*
X045126Y005498D02*
X045284Y005498D01*
X045796Y005498D02*
X045874Y005498D01*
X045914Y005458D01*
X045914Y004474D01*
X045874Y004435D01*
X045796Y004435D01*
X045284Y004435D02*
X045087Y004435D01*
X044866Y004946D02*
X044868Y004981D01*
X044874Y005016D01*
X044883Y005050D01*
X044897Y005083D01*
X044913Y005114D01*
X044933Y005143D01*
X044957Y005169D01*
X044983Y005193D01*
X045011Y005214D01*
X045042Y005232D01*
X045074Y005246D01*
X045107Y005256D01*
X045142Y005263D01*
X045177Y005266D01*
X045212Y005265D01*
X045247Y005260D01*
X045282Y005251D01*
X045315Y005239D01*
X045346Y005223D01*
X045376Y005204D01*
X045403Y005181D01*
X045427Y005156D01*
X045449Y005128D01*
X045467Y005098D01*
X045482Y005066D01*
X045494Y005033D01*
X045502Y004999D01*
X045506Y004964D01*
X045506Y004928D01*
X045502Y004893D01*
X045494Y004859D01*
X045482Y004826D01*
X045467Y004794D01*
X045449Y004764D01*
X045427Y004736D01*
X045403Y004711D01*
X045376Y004688D01*
X045346Y004669D01*
X045315Y004653D01*
X045282Y004641D01*
X045247Y004632D01*
X045212Y004627D01*
X045177Y004626D01*
X045142Y004629D01*
X045107Y004636D01*
X045074Y004646D01*
X045042Y004660D01*
X045011Y004678D01*
X044983Y004699D01*
X044957Y004723D01*
X044933Y004749D01*
X044913Y004778D01*
X044897Y004809D01*
X044883Y004842D01*
X044874Y004876D01*
X044868Y004911D01*
X044866Y004946D01*
X042066Y004946D02*
X042068Y004981D01*
X042074Y005016D01*
X042083Y005050D01*
X042097Y005083D01*
X042113Y005114D01*
X042133Y005143D01*
X042157Y005169D01*
X042183Y005193D01*
X042211Y005214D01*
X042242Y005232D01*
X042274Y005246D01*
X042307Y005256D01*
X042342Y005263D01*
X042377Y005266D01*
X042412Y005265D01*
X042447Y005260D01*
X042482Y005251D01*
X042515Y005239D01*
X042546Y005223D01*
X042576Y005204D01*
X042603Y005181D01*
X042627Y005156D01*
X042649Y005128D01*
X042667Y005098D01*
X042682Y005066D01*
X042694Y005033D01*
X042702Y004999D01*
X042706Y004964D01*
X042706Y004928D01*
X042702Y004893D01*
X042694Y004859D01*
X042682Y004826D01*
X042667Y004794D01*
X042649Y004764D01*
X042627Y004736D01*
X042603Y004711D01*
X042576Y004688D01*
X042546Y004669D01*
X042515Y004653D01*
X042482Y004641D01*
X042447Y004632D01*
X042412Y004627D01*
X042377Y004626D01*
X042342Y004629D01*
X042307Y004636D01*
X042274Y004646D01*
X042242Y004660D01*
X042211Y004678D01*
X042183Y004699D01*
X042157Y004723D01*
X042133Y004749D01*
X042113Y004778D01*
X042097Y004809D01*
X042083Y004842D01*
X042074Y004876D01*
X042068Y004911D01*
X042066Y004946D01*
X039166Y004946D02*
X039168Y004981D01*
X039174Y005016D01*
X039183Y005050D01*
X039197Y005083D01*
X039213Y005114D01*
X039233Y005143D01*
X039257Y005169D01*
X039283Y005193D01*
X039311Y005214D01*
X039342Y005232D01*
X039374Y005246D01*
X039407Y005256D01*
X039442Y005263D01*
X039477Y005266D01*
X039512Y005265D01*
X039547Y005260D01*
X039582Y005251D01*
X039615Y005239D01*
X039646Y005223D01*
X039676Y005204D01*
X039703Y005181D01*
X039727Y005156D01*
X039749Y005128D01*
X039767Y005098D01*
X039782Y005066D01*
X039794Y005033D01*
X039802Y004999D01*
X039806Y004964D01*
X039806Y004928D01*
X039802Y004893D01*
X039794Y004859D01*
X039782Y004826D01*
X039767Y004794D01*
X039749Y004764D01*
X039727Y004736D01*
X039703Y004711D01*
X039676Y004688D01*
X039646Y004669D01*
X039615Y004653D01*
X039582Y004641D01*
X039547Y004632D01*
X039512Y004627D01*
X039477Y004626D01*
X039442Y004629D01*
X039407Y004636D01*
X039374Y004646D01*
X039342Y004660D01*
X039311Y004678D01*
X039283Y004699D01*
X039257Y004723D01*
X039233Y004749D01*
X039213Y004778D01*
X039197Y004809D01*
X039183Y004842D01*
X039174Y004876D01*
X039168Y004911D01*
X039166Y004946D01*
X036266Y004946D02*
X036268Y004981D01*
X036274Y005016D01*
X036283Y005050D01*
X036297Y005083D01*
X036313Y005114D01*
X036333Y005143D01*
X036357Y005169D01*
X036383Y005193D01*
X036411Y005214D01*
X036442Y005232D01*
X036474Y005246D01*
X036507Y005256D01*
X036542Y005263D01*
X036577Y005266D01*
X036612Y005265D01*
X036647Y005260D01*
X036682Y005251D01*
X036715Y005239D01*
X036746Y005223D01*
X036776Y005204D01*
X036803Y005181D01*
X036827Y005156D01*
X036849Y005128D01*
X036867Y005098D01*
X036882Y005066D01*
X036894Y005033D01*
X036902Y004999D01*
X036906Y004964D01*
X036906Y004928D01*
X036902Y004893D01*
X036894Y004859D01*
X036882Y004826D01*
X036867Y004794D01*
X036849Y004764D01*
X036827Y004736D01*
X036803Y004711D01*
X036776Y004688D01*
X036746Y004669D01*
X036715Y004653D01*
X036682Y004641D01*
X036647Y004632D01*
X036612Y004627D01*
X036577Y004626D01*
X036542Y004629D01*
X036507Y004636D01*
X036474Y004646D01*
X036442Y004660D01*
X036411Y004678D01*
X036383Y004699D01*
X036357Y004723D01*
X036333Y004749D01*
X036313Y004778D01*
X036297Y004809D01*
X036283Y004842D01*
X036274Y004876D01*
X036268Y004911D01*
X036266Y004946D01*
X033366Y004946D02*
X033368Y004981D01*
X033374Y005016D01*
X033383Y005050D01*
X033397Y005083D01*
X033413Y005114D01*
X033433Y005143D01*
X033457Y005169D01*
X033483Y005193D01*
X033511Y005214D01*
X033542Y005232D01*
X033574Y005246D01*
X033607Y005256D01*
X033642Y005263D01*
X033677Y005266D01*
X033712Y005265D01*
X033747Y005260D01*
X033782Y005251D01*
X033815Y005239D01*
X033846Y005223D01*
X033876Y005204D01*
X033903Y005181D01*
X033927Y005156D01*
X033949Y005128D01*
X033967Y005098D01*
X033982Y005066D01*
X033994Y005033D01*
X034002Y004999D01*
X034006Y004964D01*
X034006Y004928D01*
X034002Y004893D01*
X033994Y004859D01*
X033982Y004826D01*
X033967Y004794D01*
X033949Y004764D01*
X033927Y004736D01*
X033903Y004711D01*
X033876Y004688D01*
X033846Y004669D01*
X033815Y004653D01*
X033782Y004641D01*
X033747Y004632D01*
X033712Y004627D01*
X033677Y004626D01*
X033642Y004629D01*
X033607Y004636D01*
X033574Y004646D01*
X033542Y004660D01*
X033511Y004678D01*
X033483Y004699D01*
X033457Y004723D01*
X033433Y004749D01*
X033413Y004778D01*
X033397Y004809D01*
X033383Y004842D01*
X033374Y004876D01*
X033368Y004911D01*
X033366Y004946D01*
X030466Y004946D02*
X030468Y004981D01*
X030474Y005016D01*
X030483Y005050D01*
X030497Y005083D01*
X030513Y005114D01*
X030533Y005143D01*
X030557Y005169D01*
X030583Y005193D01*
X030611Y005214D01*
X030642Y005232D01*
X030674Y005246D01*
X030707Y005256D01*
X030742Y005263D01*
X030777Y005266D01*
X030812Y005265D01*
X030847Y005260D01*
X030882Y005251D01*
X030915Y005239D01*
X030946Y005223D01*
X030976Y005204D01*
X031003Y005181D01*
X031027Y005156D01*
X031049Y005128D01*
X031067Y005098D01*
X031082Y005066D01*
X031094Y005033D01*
X031102Y004999D01*
X031106Y004964D01*
X031106Y004928D01*
X031102Y004893D01*
X031094Y004859D01*
X031082Y004826D01*
X031067Y004794D01*
X031049Y004764D01*
X031027Y004736D01*
X031003Y004711D01*
X030976Y004688D01*
X030946Y004669D01*
X030915Y004653D01*
X030882Y004641D01*
X030847Y004632D01*
X030812Y004627D01*
X030777Y004626D01*
X030742Y004629D01*
X030707Y004636D01*
X030674Y004646D01*
X030642Y004660D01*
X030611Y004678D01*
X030583Y004699D01*
X030557Y004723D01*
X030533Y004749D01*
X030513Y004778D01*
X030497Y004809D01*
X030483Y004842D01*
X030474Y004876D01*
X030468Y004911D01*
X030466Y004946D01*
X027566Y004946D02*
X027568Y004981D01*
X027574Y005016D01*
X027583Y005050D01*
X027597Y005083D01*
X027613Y005114D01*
X027633Y005143D01*
X027657Y005169D01*
X027683Y005193D01*
X027711Y005214D01*
X027742Y005232D01*
X027774Y005246D01*
X027807Y005256D01*
X027842Y005263D01*
X027877Y005266D01*
X027912Y005265D01*
X027947Y005260D01*
X027982Y005251D01*
X028015Y005239D01*
X028046Y005223D01*
X028076Y005204D01*
X028103Y005181D01*
X028127Y005156D01*
X028149Y005128D01*
X028167Y005098D01*
X028182Y005066D01*
X028194Y005033D01*
X028202Y004999D01*
X028206Y004964D01*
X028206Y004928D01*
X028202Y004893D01*
X028194Y004859D01*
X028182Y004826D01*
X028167Y004794D01*
X028149Y004764D01*
X028127Y004736D01*
X028103Y004711D01*
X028076Y004688D01*
X028046Y004669D01*
X028015Y004653D01*
X027982Y004641D01*
X027947Y004632D01*
X027912Y004627D01*
X027877Y004626D01*
X027842Y004629D01*
X027807Y004636D01*
X027774Y004646D01*
X027742Y004660D01*
X027711Y004678D01*
X027683Y004699D01*
X027657Y004723D01*
X027633Y004749D01*
X027613Y004778D01*
X027597Y004809D01*
X027583Y004842D01*
X027574Y004876D01*
X027568Y004911D01*
X027566Y004946D01*
X024666Y004946D02*
X024668Y004981D01*
X024674Y005016D01*
X024683Y005050D01*
X024697Y005083D01*
X024713Y005114D01*
X024733Y005143D01*
X024757Y005169D01*
X024783Y005193D01*
X024811Y005214D01*
X024842Y005232D01*
X024874Y005246D01*
X024907Y005256D01*
X024942Y005263D01*
X024977Y005266D01*
X025012Y005265D01*
X025047Y005260D01*
X025082Y005251D01*
X025115Y005239D01*
X025146Y005223D01*
X025176Y005204D01*
X025203Y005181D01*
X025227Y005156D01*
X025249Y005128D01*
X025267Y005098D01*
X025282Y005066D01*
X025294Y005033D01*
X025302Y004999D01*
X025306Y004964D01*
X025306Y004928D01*
X025302Y004893D01*
X025294Y004859D01*
X025282Y004826D01*
X025267Y004794D01*
X025249Y004764D01*
X025227Y004736D01*
X025203Y004711D01*
X025176Y004688D01*
X025146Y004669D01*
X025115Y004653D01*
X025082Y004641D01*
X025047Y004632D01*
X025012Y004627D01*
X024977Y004626D01*
X024942Y004629D01*
X024907Y004636D01*
X024874Y004646D01*
X024842Y004660D01*
X024811Y004678D01*
X024783Y004699D01*
X024757Y004723D01*
X024733Y004749D01*
X024713Y004778D01*
X024697Y004809D01*
X024683Y004842D01*
X024674Y004876D01*
X024668Y004911D01*
X024666Y004946D01*
X021766Y004946D02*
X021768Y004981D01*
X021774Y005016D01*
X021783Y005050D01*
X021797Y005083D01*
X021813Y005114D01*
X021833Y005143D01*
X021857Y005169D01*
X021883Y005193D01*
X021911Y005214D01*
X021942Y005232D01*
X021974Y005246D01*
X022007Y005256D01*
X022042Y005263D01*
X022077Y005266D01*
X022112Y005265D01*
X022147Y005260D01*
X022182Y005251D01*
X022215Y005239D01*
X022246Y005223D01*
X022276Y005204D01*
X022303Y005181D01*
X022327Y005156D01*
X022349Y005128D01*
X022367Y005098D01*
X022382Y005066D01*
X022394Y005033D01*
X022402Y004999D01*
X022406Y004964D01*
X022406Y004928D01*
X022402Y004893D01*
X022394Y004859D01*
X022382Y004826D01*
X022367Y004794D01*
X022349Y004764D01*
X022327Y004736D01*
X022303Y004711D01*
X022276Y004688D01*
X022246Y004669D01*
X022215Y004653D01*
X022182Y004641D01*
X022147Y004632D01*
X022112Y004627D01*
X022077Y004626D01*
X022042Y004629D01*
X022007Y004636D01*
X021974Y004646D01*
X021942Y004660D01*
X021911Y004678D01*
X021883Y004699D01*
X021857Y004723D01*
X021833Y004749D01*
X021813Y004778D01*
X021797Y004809D01*
X021783Y004842D01*
X021774Y004876D01*
X021768Y004911D01*
X021766Y004946D01*
X018866Y004946D02*
X018868Y004981D01*
X018874Y005016D01*
X018883Y005050D01*
X018897Y005083D01*
X018913Y005114D01*
X018933Y005143D01*
X018957Y005169D01*
X018983Y005193D01*
X019011Y005214D01*
X019042Y005232D01*
X019074Y005246D01*
X019107Y005256D01*
X019142Y005263D01*
X019177Y005266D01*
X019212Y005265D01*
X019247Y005260D01*
X019282Y005251D01*
X019315Y005239D01*
X019346Y005223D01*
X019376Y005204D01*
X019403Y005181D01*
X019427Y005156D01*
X019449Y005128D01*
X019467Y005098D01*
X019482Y005066D01*
X019494Y005033D01*
X019502Y004999D01*
X019506Y004964D01*
X019506Y004928D01*
X019502Y004893D01*
X019494Y004859D01*
X019482Y004826D01*
X019467Y004794D01*
X019449Y004764D01*
X019427Y004736D01*
X019403Y004711D01*
X019376Y004688D01*
X019346Y004669D01*
X019315Y004653D01*
X019282Y004641D01*
X019247Y004632D01*
X019212Y004627D01*
X019177Y004626D01*
X019142Y004629D01*
X019107Y004636D01*
X019074Y004646D01*
X019042Y004660D01*
X019011Y004678D01*
X018983Y004699D01*
X018957Y004723D01*
X018933Y004749D01*
X018913Y004778D01*
X018897Y004809D01*
X018883Y004842D01*
X018874Y004876D01*
X018868Y004911D01*
X018866Y004946D01*
X015966Y004946D02*
X015968Y004981D01*
X015974Y005016D01*
X015983Y005050D01*
X015997Y005083D01*
X016013Y005114D01*
X016033Y005143D01*
X016057Y005169D01*
X016083Y005193D01*
X016111Y005214D01*
X016142Y005232D01*
X016174Y005246D01*
X016207Y005256D01*
X016242Y005263D01*
X016277Y005266D01*
X016312Y005265D01*
X016347Y005260D01*
X016382Y005251D01*
X016415Y005239D01*
X016446Y005223D01*
X016476Y005204D01*
X016503Y005181D01*
X016527Y005156D01*
X016549Y005128D01*
X016567Y005098D01*
X016582Y005066D01*
X016594Y005033D01*
X016602Y004999D01*
X016606Y004964D01*
X016606Y004928D01*
X016602Y004893D01*
X016594Y004859D01*
X016582Y004826D01*
X016567Y004794D01*
X016549Y004764D01*
X016527Y004736D01*
X016503Y004711D01*
X016476Y004688D01*
X016446Y004669D01*
X016415Y004653D01*
X016382Y004641D01*
X016347Y004632D01*
X016312Y004627D01*
X016277Y004626D01*
X016242Y004629D01*
X016207Y004636D01*
X016174Y004646D01*
X016142Y004660D01*
X016111Y004678D01*
X016083Y004699D01*
X016057Y004723D01*
X016033Y004749D01*
X016013Y004778D01*
X015997Y004809D01*
X015983Y004842D01*
X015974Y004876D01*
X015968Y004911D01*
X015966Y004946D01*
X010166Y004946D02*
X010168Y004981D01*
X010174Y005016D01*
X010183Y005050D01*
X010197Y005083D01*
X010213Y005114D01*
X010233Y005143D01*
X010257Y005169D01*
X010283Y005193D01*
X010311Y005214D01*
X010342Y005232D01*
X010374Y005246D01*
X010407Y005256D01*
X010442Y005263D01*
X010477Y005266D01*
X010512Y005265D01*
X010547Y005260D01*
X010582Y005251D01*
X010615Y005239D01*
X010646Y005223D01*
X010676Y005204D01*
X010703Y005181D01*
X010727Y005156D01*
X010749Y005128D01*
X010767Y005098D01*
X010782Y005066D01*
X010794Y005033D01*
X010802Y004999D01*
X010806Y004964D01*
X010806Y004928D01*
X010802Y004893D01*
X010794Y004859D01*
X010782Y004826D01*
X010767Y004794D01*
X010749Y004764D01*
X010727Y004736D01*
X010703Y004711D01*
X010676Y004688D01*
X010646Y004669D01*
X010615Y004653D01*
X010582Y004641D01*
X010547Y004632D01*
X010512Y004627D01*
X010477Y004626D01*
X010442Y004629D01*
X010407Y004636D01*
X010374Y004646D01*
X010342Y004660D01*
X010311Y004678D01*
X010283Y004699D01*
X010257Y004723D01*
X010233Y004749D01*
X010213Y004778D01*
X010197Y004809D01*
X010183Y004842D01*
X010174Y004876D01*
X010168Y004911D01*
X010166Y004946D01*
X007266Y004946D02*
X007268Y004981D01*
X007274Y005016D01*
X007283Y005050D01*
X007297Y005083D01*
X007313Y005114D01*
X007333Y005143D01*
X007357Y005169D01*
X007383Y005193D01*
X007411Y005214D01*
X007442Y005232D01*
X007474Y005246D01*
X007507Y005256D01*
X007542Y005263D01*
X007577Y005266D01*
X007612Y005265D01*
X007647Y005260D01*
X007682Y005251D01*
X007715Y005239D01*
X007746Y005223D01*
X007776Y005204D01*
X007803Y005181D01*
X007827Y005156D01*
X007849Y005128D01*
X007867Y005098D01*
X007882Y005066D01*
X007894Y005033D01*
X007902Y004999D01*
X007906Y004964D01*
X007906Y004928D01*
X007902Y004893D01*
X007894Y004859D01*
X007882Y004826D01*
X007867Y004794D01*
X007849Y004764D01*
X007827Y004736D01*
X007803Y004711D01*
X007776Y004688D01*
X007746Y004669D01*
X007715Y004653D01*
X007682Y004641D01*
X007647Y004632D01*
X007612Y004627D01*
X007577Y004626D01*
X007542Y004629D01*
X007507Y004636D01*
X007474Y004646D01*
X007442Y004660D01*
X007411Y004678D01*
X007383Y004699D01*
X007357Y004723D01*
X007333Y004749D01*
X007313Y004778D01*
X007297Y004809D01*
X007283Y004842D01*
X007274Y004876D01*
X007268Y004911D01*
X007266Y004946D01*
X004366Y004946D02*
X004368Y004981D01*
X004374Y005016D01*
X004383Y005050D01*
X004397Y005083D01*
X004413Y005114D01*
X004433Y005143D01*
X004457Y005169D01*
X004483Y005193D01*
X004511Y005214D01*
X004542Y005232D01*
X004574Y005246D01*
X004607Y005256D01*
X004642Y005263D01*
X004677Y005266D01*
X004712Y005265D01*
X004747Y005260D01*
X004782Y005251D01*
X004815Y005239D01*
X004846Y005223D01*
X004876Y005204D01*
X004903Y005181D01*
X004927Y005156D01*
X004949Y005128D01*
X004967Y005098D01*
X004982Y005066D01*
X004994Y005033D01*
X005002Y004999D01*
X005006Y004964D01*
X005006Y004928D01*
X005002Y004893D01*
X004994Y004859D01*
X004982Y004826D01*
X004967Y004794D01*
X004949Y004764D01*
X004927Y004736D01*
X004903Y004711D01*
X004876Y004688D01*
X004846Y004669D01*
X004815Y004653D01*
X004782Y004641D01*
X004747Y004632D01*
X004712Y004627D01*
X004677Y004626D01*
X004642Y004629D01*
X004607Y004636D01*
X004574Y004646D01*
X004542Y004660D01*
X004511Y004678D01*
X004483Y004699D01*
X004457Y004723D01*
X004433Y004749D01*
X004413Y004778D01*
X004397Y004809D01*
X004383Y004842D01*
X004374Y004876D01*
X004368Y004911D01*
X004366Y004946D01*
X047357Y004572D02*
X047495Y004572D01*
X047495Y004454D01*
X047397Y004553D01*
X047436Y004553D01*
X047456Y004533D01*
X047456Y004553D01*
X047357Y004553D02*
X047475Y004435D01*
X047357Y004553D02*
X047357Y004572D01*
X047357Y005458D01*
X047397Y005498D01*
X047515Y005498D01*
X048026Y005498D02*
X048184Y005498D01*
X048696Y005498D02*
X048774Y005498D01*
X048814Y005458D01*
X048814Y004474D01*
X048774Y004435D01*
X048696Y004435D01*
X048184Y004435D02*
X047987Y004435D01*
X047766Y004946D02*
X047768Y004981D01*
X047774Y005016D01*
X047783Y005050D01*
X047797Y005083D01*
X047813Y005114D01*
X047833Y005143D01*
X047857Y005169D01*
X047883Y005193D01*
X047911Y005214D01*
X047942Y005232D01*
X047974Y005246D01*
X048007Y005256D01*
X048042Y005263D01*
X048077Y005266D01*
X048112Y005265D01*
X048147Y005260D01*
X048182Y005251D01*
X048215Y005239D01*
X048246Y005223D01*
X048276Y005204D01*
X048303Y005181D01*
X048327Y005156D01*
X048349Y005128D01*
X048367Y005098D01*
X048382Y005066D01*
X048394Y005033D01*
X048402Y004999D01*
X048406Y004964D01*
X048406Y004928D01*
X048402Y004893D01*
X048394Y004859D01*
X048382Y004826D01*
X048367Y004794D01*
X048349Y004764D01*
X048327Y004736D01*
X048303Y004711D01*
X048276Y004688D01*
X048246Y004669D01*
X048215Y004653D01*
X048182Y004641D01*
X048147Y004632D01*
X048112Y004627D01*
X048077Y004626D01*
X048042Y004629D01*
X048007Y004636D01*
X047974Y004646D01*
X047942Y004660D01*
X047911Y004678D01*
X047883Y004699D01*
X047857Y004723D01*
X047833Y004749D01*
X047813Y004778D01*
X047797Y004809D01*
X047783Y004842D01*
X047774Y004876D01*
X047768Y004911D01*
X047766Y004946D01*
X050257Y004572D02*
X050395Y004572D01*
X050395Y004454D01*
X050297Y004553D01*
X050336Y004553D01*
X050356Y004533D01*
X050356Y004553D01*
X050257Y004553D02*
X050375Y004435D01*
X050257Y004553D02*
X050257Y004572D01*
X050257Y005458D01*
X050297Y005498D01*
X050415Y005498D01*
X050926Y005498D02*
X051084Y005498D01*
X051596Y005498D02*
X051674Y005498D01*
X051714Y005458D01*
X051714Y004474D01*
X051674Y004435D01*
X051596Y004435D01*
X051084Y004435D02*
X050887Y004435D01*
X050666Y004946D02*
X050668Y004981D01*
X050674Y005016D01*
X050683Y005050D01*
X050697Y005083D01*
X050713Y005114D01*
X050733Y005143D01*
X050757Y005169D01*
X050783Y005193D01*
X050811Y005214D01*
X050842Y005232D01*
X050874Y005246D01*
X050907Y005256D01*
X050942Y005263D01*
X050977Y005266D01*
X051012Y005265D01*
X051047Y005260D01*
X051082Y005251D01*
X051115Y005239D01*
X051146Y005223D01*
X051176Y005204D01*
X051203Y005181D01*
X051227Y005156D01*
X051249Y005128D01*
X051267Y005098D01*
X051282Y005066D01*
X051294Y005033D01*
X051302Y004999D01*
X051306Y004964D01*
X051306Y004928D01*
X051302Y004893D01*
X051294Y004859D01*
X051282Y004826D01*
X051267Y004794D01*
X051249Y004764D01*
X051227Y004736D01*
X051203Y004711D01*
X051176Y004688D01*
X051146Y004669D01*
X051115Y004653D01*
X051082Y004641D01*
X051047Y004632D01*
X051012Y004627D01*
X050977Y004626D01*
X050942Y004629D01*
X050907Y004636D01*
X050874Y004646D01*
X050842Y004660D01*
X050811Y004678D01*
X050783Y004699D01*
X050757Y004723D01*
X050733Y004749D01*
X050713Y004778D01*
X050697Y004809D01*
X050683Y004842D01*
X050674Y004876D01*
X050668Y004911D01*
X050666Y004946D01*
X053257Y004572D02*
X053395Y004572D01*
X053395Y004454D01*
X053297Y004553D01*
X053336Y004553D01*
X053356Y004533D01*
X053356Y004553D01*
X053257Y004553D02*
X053375Y004435D01*
X053257Y004553D02*
X053257Y004572D01*
X053257Y005458D01*
X053297Y005498D01*
X053415Y005498D01*
X053926Y005498D02*
X054084Y005498D01*
X054596Y005498D02*
X054674Y005498D01*
X054714Y005458D01*
X054714Y004474D01*
X054674Y004435D01*
X054596Y004435D01*
X054084Y004435D02*
X053887Y004435D01*
X053666Y004946D02*
X053668Y004981D01*
X053674Y005016D01*
X053683Y005050D01*
X053697Y005083D01*
X053713Y005114D01*
X053733Y005143D01*
X053757Y005169D01*
X053783Y005193D01*
X053811Y005214D01*
X053842Y005232D01*
X053874Y005246D01*
X053907Y005256D01*
X053942Y005263D01*
X053977Y005266D01*
X054012Y005265D01*
X054047Y005260D01*
X054082Y005251D01*
X054115Y005239D01*
X054146Y005223D01*
X054176Y005204D01*
X054203Y005181D01*
X054227Y005156D01*
X054249Y005128D01*
X054267Y005098D01*
X054282Y005066D01*
X054294Y005033D01*
X054302Y004999D01*
X054306Y004964D01*
X054306Y004928D01*
X054302Y004893D01*
X054294Y004859D01*
X054282Y004826D01*
X054267Y004794D01*
X054249Y004764D01*
X054227Y004736D01*
X054203Y004711D01*
X054176Y004688D01*
X054146Y004669D01*
X054115Y004653D01*
X054082Y004641D01*
X054047Y004632D01*
X054012Y004627D01*
X053977Y004626D01*
X053942Y004629D01*
X053907Y004636D01*
X053874Y004646D01*
X053842Y004660D01*
X053811Y004678D01*
X053783Y004699D01*
X053757Y004723D01*
X053733Y004749D01*
X053713Y004778D01*
X053697Y004809D01*
X053683Y004842D01*
X053674Y004876D01*
X053668Y004911D01*
X053666Y004946D01*
X056157Y004572D02*
X056295Y004572D01*
X056295Y004454D01*
X056197Y004553D01*
X056236Y004553D01*
X056256Y004533D01*
X056256Y004553D01*
X056157Y004553D02*
X056275Y004435D01*
X056157Y004553D02*
X056157Y004572D01*
X056157Y005458D01*
X056197Y005498D01*
X056315Y005498D01*
X056826Y005498D02*
X056984Y005498D01*
X057496Y005498D02*
X057574Y005498D01*
X057614Y005458D01*
X057614Y004474D01*
X057574Y004435D01*
X057496Y004435D01*
X056984Y004435D02*
X056787Y004435D01*
X056566Y004946D02*
X056568Y004981D01*
X056574Y005016D01*
X056583Y005050D01*
X056597Y005083D01*
X056613Y005114D01*
X056633Y005143D01*
X056657Y005169D01*
X056683Y005193D01*
X056711Y005214D01*
X056742Y005232D01*
X056774Y005246D01*
X056807Y005256D01*
X056842Y005263D01*
X056877Y005266D01*
X056912Y005265D01*
X056947Y005260D01*
X056982Y005251D01*
X057015Y005239D01*
X057046Y005223D01*
X057076Y005204D01*
X057103Y005181D01*
X057127Y005156D01*
X057149Y005128D01*
X057167Y005098D01*
X057182Y005066D01*
X057194Y005033D01*
X057202Y004999D01*
X057206Y004964D01*
X057206Y004928D01*
X057202Y004893D01*
X057194Y004859D01*
X057182Y004826D01*
X057167Y004794D01*
X057149Y004764D01*
X057127Y004736D01*
X057103Y004711D01*
X057076Y004688D01*
X057046Y004669D01*
X057015Y004653D01*
X056982Y004641D01*
X056947Y004632D01*
X056912Y004627D01*
X056877Y004626D01*
X056842Y004629D01*
X056807Y004636D01*
X056774Y004646D01*
X056742Y004660D01*
X056711Y004678D01*
X056683Y004699D01*
X056657Y004723D01*
X056633Y004749D01*
X056613Y004778D01*
X056597Y004809D01*
X056583Y004842D01*
X056574Y004876D01*
X056568Y004911D01*
X056566Y004946D01*
X059057Y004572D02*
X059195Y004572D01*
X059195Y004454D01*
X059097Y004553D01*
X059136Y004553D01*
X059156Y004533D01*
X059156Y004553D01*
X059057Y004553D02*
X059175Y004435D01*
X059057Y004553D02*
X059057Y004572D01*
X059057Y005458D01*
X059097Y005498D01*
X059215Y005498D01*
X059726Y005498D02*
X059884Y005498D01*
X060396Y005498D02*
X060474Y005498D01*
X060514Y005458D01*
X060514Y004474D01*
X060474Y004435D01*
X060396Y004435D01*
X059884Y004435D02*
X059687Y004435D01*
X059466Y004946D02*
X059468Y004981D01*
X059474Y005016D01*
X059483Y005050D01*
X059497Y005083D01*
X059513Y005114D01*
X059533Y005143D01*
X059557Y005169D01*
X059583Y005193D01*
X059611Y005214D01*
X059642Y005232D01*
X059674Y005246D01*
X059707Y005256D01*
X059742Y005263D01*
X059777Y005266D01*
X059812Y005265D01*
X059847Y005260D01*
X059882Y005251D01*
X059915Y005239D01*
X059946Y005223D01*
X059976Y005204D01*
X060003Y005181D01*
X060027Y005156D01*
X060049Y005128D01*
X060067Y005098D01*
X060082Y005066D01*
X060094Y005033D01*
X060102Y004999D01*
X060106Y004964D01*
X060106Y004928D01*
X060102Y004893D01*
X060094Y004859D01*
X060082Y004826D01*
X060067Y004794D01*
X060049Y004764D01*
X060027Y004736D01*
X060003Y004711D01*
X059976Y004688D01*
X059946Y004669D01*
X059915Y004653D01*
X059882Y004641D01*
X059847Y004632D01*
X059812Y004627D01*
X059777Y004626D01*
X059742Y004629D01*
X059707Y004636D01*
X059674Y004646D01*
X059642Y004660D01*
X059611Y004678D01*
X059583Y004699D01*
X059557Y004723D01*
X059533Y004749D01*
X059513Y004778D01*
X059497Y004809D01*
X059483Y004842D01*
X059474Y004876D01*
X059468Y004911D01*
X059466Y004946D01*
X061957Y004572D02*
X062095Y004572D01*
X062095Y004454D01*
X061997Y004553D01*
X062036Y004553D01*
X062056Y004533D01*
X062056Y004553D01*
X061957Y004553D02*
X062075Y004435D01*
X061957Y004553D02*
X061957Y004572D01*
X061957Y005458D01*
X061997Y005498D01*
X062115Y005498D01*
X062626Y005498D02*
X062784Y005498D01*
X063296Y005498D02*
X063374Y005498D01*
X063414Y005458D01*
X063414Y004474D01*
X063374Y004435D01*
X063296Y004435D01*
X062784Y004435D02*
X062587Y004435D01*
X064857Y004553D02*
X064975Y004435D01*
X064995Y004454D02*
X064897Y004553D01*
X064936Y004553D01*
X064956Y004533D01*
X064956Y004553D01*
X064995Y004572D02*
X064995Y004454D01*
X064995Y004572D02*
X064857Y004572D01*
X064857Y004553D01*
X064857Y004572D02*
X064857Y005458D01*
X064897Y005498D01*
X065015Y005498D01*
X065526Y005498D02*
X065684Y005498D01*
X066196Y005498D02*
X066274Y005498D01*
X066314Y005458D01*
X066314Y004474D01*
X066274Y004435D01*
X066196Y004435D01*
X065684Y004435D02*
X065487Y004435D01*
X067757Y004553D02*
X067875Y004435D01*
X067895Y004454D02*
X067797Y004553D01*
X067836Y004553D01*
X067856Y004533D01*
X067856Y004553D01*
X067895Y004572D02*
X067895Y004454D01*
X067895Y004572D02*
X067757Y004572D01*
X067757Y004553D01*
X067757Y004572D02*
X067757Y005458D01*
X067797Y005498D01*
X067915Y005498D01*
X068426Y005498D02*
X068584Y005498D01*
X069096Y005498D02*
X069174Y005498D01*
X069214Y005458D01*
X069214Y004474D01*
X069174Y004435D01*
X069096Y004435D01*
X068584Y004435D02*
X068387Y004435D01*
X070657Y004563D02*
X070775Y004445D01*
X070795Y004464D02*
X070697Y004563D01*
X070736Y004563D01*
X070756Y004543D01*
X070756Y004563D01*
X070795Y004582D02*
X070795Y004464D01*
X070795Y004582D02*
X070657Y004582D01*
X070657Y004563D01*
X070657Y004582D02*
X070657Y005468D01*
X070697Y005508D01*
X070815Y005508D01*
X071326Y005508D02*
X071484Y005508D01*
X071996Y005508D02*
X072074Y005508D01*
X072114Y005468D01*
X072114Y004484D01*
X072074Y004445D01*
X071996Y004445D01*
X071484Y004445D02*
X071287Y004445D01*
X073557Y004553D02*
X073675Y004435D01*
X073695Y004454D02*
X073597Y004553D01*
X073636Y004553D01*
X073656Y004533D01*
X073656Y004553D01*
X073695Y004572D02*
X073695Y004454D01*
X073695Y004572D02*
X073557Y004572D01*
X073557Y004553D01*
X073557Y004572D02*
X073557Y005458D01*
X073597Y005498D01*
X073715Y005498D01*
X074226Y005498D02*
X074384Y005498D01*
X074896Y005498D02*
X074974Y005498D01*
X075014Y005458D01*
X075014Y004474D01*
X074974Y004435D01*
X074896Y004435D01*
X074384Y004435D02*
X074187Y004435D01*
X076457Y004553D02*
X076575Y004435D01*
X076595Y004454D02*
X076497Y004553D01*
X076536Y004553D01*
X076556Y004533D01*
X076556Y004553D01*
X076595Y004572D02*
X076595Y004454D01*
X076595Y004572D02*
X076457Y004572D01*
X076457Y004553D01*
X076457Y004572D02*
X076457Y005458D01*
X076497Y005498D01*
X076615Y005498D01*
X077126Y005498D02*
X077284Y005498D01*
X077796Y005498D02*
X077874Y005498D01*
X077914Y005458D01*
X077914Y004474D01*
X077874Y004435D01*
X077796Y004435D01*
X077284Y004435D02*
X077087Y004435D01*
X079357Y004553D02*
X079475Y004435D01*
X079495Y004454D02*
X079397Y004553D01*
X079436Y004553D01*
X079456Y004533D01*
X079456Y004553D01*
X079495Y004572D02*
X079495Y004454D01*
X079495Y004572D02*
X079357Y004572D01*
X079357Y004553D01*
X079357Y004572D02*
X079357Y005458D01*
X079397Y005498D01*
X079515Y005498D01*
X080026Y005498D02*
X080184Y005498D01*
X080696Y005498D02*
X080774Y005498D01*
X080814Y005458D01*
X080814Y004474D01*
X080774Y004435D01*
X080696Y004435D01*
X080184Y004435D02*
X079987Y004435D01*
X082257Y004553D02*
X082375Y004435D01*
X082395Y004454D02*
X082297Y004553D01*
X082336Y004553D01*
X082356Y004533D01*
X082356Y004553D01*
X082395Y004572D02*
X082395Y004454D01*
X082395Y004572D02*
X082257Y004572D01*
X082257Y004553D01*
X082257Y004572D02*
X082257Y005458D01*
X082297Y005498D01*
X082415Y005498D01*
X082926Y005498D02*
X083084Y005498D01*
X083596Y005498D02*
X083674Y005498D01*
X083714Y005458D01*
X083714Y004474D01*
X083674Y004435D01*
X083596Y004435D01*
X083084Y004435D02*
X082887Y004435D01*
X085157Y004553D02*
X085275Y004435D01*
X085295Y004454D02*
X085197Y004553D01*
X085236Y004553D01*
X085256Y004533D01*
X085256Y004553D01*
X085295Y004572D02*
X085295Y004454D01*
X085295Y004572D02*
X085157Y004572D01*
X085157Y004553D01*
X085157Y004572D02*
X085157Y005458D01*
X085197Y005498D01*
X085315Y005498D01*
X085826Y005498D02*
X085984Y005498D01*
X086496Y005498D02*
X086574Y005498D01*
X086614Y005458D01*
X086614Y004474D01*
X086574Y004435D01*
X086496Y004435D01*
X085984Y004435D02*
X085787Y004435D01*
X088057Y004553D02*
X088175Y004435D01*
X088195Y004454D02*
X088097Y004553D01*
X088136Y004553D01*
X088156Y004533D01*
X088156Y004553D01*
X088195Y004572D02*
X088195Y004454D01*
X088195Y004572D02*
X088057Y004572D01*
X088057Y004553D01*
X088057Y004572D02*
X088057Y005458D01*
X088097Y005498D01*
X088215Y005498D01*
X088726Y005498D02*
X088884Y005498D01*
X089396Y005498D02*
X089474Y005498D01*
X089514Y005458D01*
X089514Y004474D01*
X089474Y004435D01*
X089396Y004435D01*
X088884Y004435D02*
X088687Y004435D01*
X090957Y004553D02*
X091075Y004435D01*
X091095Y004454D02*
X090997Y004553D01*
X091036Y004553D01*
X091056Y004533D01*
X091056Y004553D01*
X091095Y004572D02*
X091095Y004454D01*
X091095Y004572D02*
X090957Y004572D01*
X090957Y004553D01*
X090957Y004572D02*
X090957Y005458D01*
X090997Y005498D01*
X091115Y005498D01*
X091626Y005498D02*
X091784Y005498D01*
X092296Y005498D02*
X092374Y005498D01*
X092414Y005458D01*
X092414Y004474D01*
X092374Y004435D01*
X092296Y004435D01*
X091784Y004435D02*
X091587Y004435D01*
X091366Y004946D02*
X091368Y004981D01*
X091374Y005016D01*
X091383Y005050D01*
X091397Y005083D01*
X091413Y005114D01*
X091433Y005143D01*
X091457Y005169D01*
X091483Y005193D01*
X091511Y005214D01*
X091542Y005232D01*
X091574Y005246D01*
X091607Y005256D01*
X091642Y005263D01*
X091677Y005266D01*
X091712Y005265D01*
X091747Y005260D01*
X091782Y005251D01*
X091815Y005239D01*
X091846Y005223D01*
X091876Y005204D01*
X091903Y005181D01*
X091927Y005156D01*
X091949Y005128D01*
X091967Y005098D01*
X091982Y005066D01*
X091994Y005033D01*
X092002Y004999D01*
X092006Y004964D01*
X092006Y004928D01*
X092002Y004893D01*
X091994Y004859D01*
X091982Y004826D01*
X091967Y004794D01*
X091949Y004764D01*
X091927Y004736D01*
X091903Y004711D01*
X091876Y004688D01*
X091846Y004669D01*
X091815Y004653D01*
X091782Y004641D01*
X091747Y004632D01*
X091712Y004627D01*
X091677Y004626D01*
X091642Y004629D01*
X091607Y004636D01*
X091574Y004646D01*
X091542Y004660D01*
X091511Y004678D01*
X091483Y004699D01*
X091457Y004723D01*
X091433Y004749D01*
X091413Y004778D01*
X091397Y004809D01*
X091383Y004842D01*
X091374Y004876D01*
X091368Y004911D01*
X091366Y004946D01*
X088466Y004946D02*
X088468Y004981D01*
X088474Y005016D01*
X088483Y005050D01*
X088497Y005083D01*
X088513Y005114D01*
X088533Y005143D01*
X088557Y005169D01*
X088583Y005193D01*
X088611Y005214D01*
X088642Y005232D01*
X088674Y005246D01*
X088707Y005256D01*
X088742Y005263D01*
X088777Y005266D01*
X088812Y005265D01*
X088847Y005260D01*
X088882Y005251D01*
X088915Y005239D01*
X088946Y005223D01*
X088976Y005204D01*
X089003Y005181D01*
X089027Y005156D01*
X089049Y005128D01*
X089067Y005098D01*
X089082Y005066D01*
X089094Y005033D01*
X089102Y004999D01*
X089106Y004964D01*
X089106Y004928D01*
X089102Y004893D01*
X089094Y004859D01*
X089082Y004826D01*
X089067Y004794D01*
X089049Y004764D01*
X089027Y004736D01*
X089003Y004711D01*
X088976Y004688D01*
X088946Y004669D01*
X088915Y004653D01*
X088882Y004641D01*
X088847Y004632D01*
X088812Y004627D01*
X088777Y004626D01*
X088742Y004629D01*
X088707Y004636D01*
X088674Y004646D01*
X088642Y004660D01*
X088611Y004678D01*
X088583Y004699D01*
X088557Y004723D01*
X088533Y004749D01*
X088513Y004778D01*
X088497Y004809D01*
X088483Y004842D01*
X088474Y004876D01*
X088468Y004911D01*
X088466Y004946D01*
X085566Y004946D02*
X085568Y004981D01*
X085574Y005016D01*
X085583Y005050D01*
X085597Y005083D01*
X085613Y005114D01*
X085633Y005143D01*
X085657Y005169D01*
X085683Y005193D01*
X085711Y005214D01*
X085742Y005232D01*
X085774Y005246D01*
X085807Y005256D01*
X085842Y005263D01*
X085877Y005266D01*
X085912Y005265D01*
X085947Y005260D01*
X085982Y005251D01*
X086015Y005239D01*
X086046Y005223D01*
X086076Y005204D01*
X086103Y005181D01*
X086127Y005156D01*
X086149Y005128D01*
X086167Y005098D01*
X086182Y005066D01*
X086194Y005033D01*
X086202Y004999D01*
X086206Y004964D01*
X086206Y004928D01*
X086202Y004893D01*
X086194Y004859D01*
X086182Y004826D01*
X086167Y004794D01*
X086149Y004764D01*
X086127Y004736D01*
X086103Y004711D01*
X086076Y004688D01*
X086046Y004669D01*
X086015Y004653D01*
X085982Y004641D01*
X085947Y004632D01*
X085912Y004627D01*
X085877Y004626D01*
X085842Y004629D01*
X085807Y004636D01*
X085774Y004646D01*
X085742Y004660D01*
X085711Y004678D01*
X085683Y004699D01*
X085657Y004723D01*
X085633Y004749D01*
X085613Y004778D01*
X085597Y004809D01*
X085583Y004842D01*
X085574Y004876D01*
X085568Y004911D01*
X085566Y004946D01*
X082666Y004946D02*
X082668Y004981D01*
X082674Y005016D01*
X082683Y005050D01*
X082697Y005083D01*
X082713Y005114D01*
X082733Y005143D01*
X082757Y005169D01*
X082783Y005193D01*
X082811Y005214D01*
X082842Y005232D01*
X082874Y005246D01*
X082907Y005256D01*
X082942Y005263D01*
X082977Y005266D01*
X083012Y005265D01*
X083047Y005260D01*
X083082Y005251D01*
X083115Y005239D01*
X083146Y005223D01*
X083176Y005204D01*
X083203Y005181D01*
X083227Y005156D01*
X083249Y005128D01*
X083267Y005098D01*
X083282Y005066D01*
X083294Y005033D01*
X083302Y004999D01*
X083306Y004964D01*
X083306Y004928D01*
X083302Y004893D01*
X083294Y004859D01*
X083282Y004826D01*
X083267Y004794D01*
X083249Y004764D01*
X083227Y004736D01*
X083203Y004711D01*
X083176Y004688D01*
X083146Y004669D01*
X083115Y004653D01*
X083082Y004641D01*
X083047Y004632D01*
X083012Y004627D01*
X082977Y004626D01*
X082942Y004629D01*
X082907Y004636D01*
X082874Y004646D01*
X082842Y004660D01*
X082811Y004678D01*
X082783Y004699D01*
X082757Y004723D01*
X082733Y004749D01*
X082713Y004778D01*
X082697Y004809D01*
X082683Y004842D01*
X082674Y004876D01*
X082668Y004911D01*
X082666Y004946D01*
X079766Y004946D02*
X079768Y004981D01*
X079774Y005016D01*
X079783Y005050D01*
X079797Y005083D01*
X079813Y005114D01*
X079833Y005143D01*
X079857Y005169D01*
X079883Y005193D01*
X079911Y005214D01*
X079942Y005232D01*
X079974Y005246D01*
X080007Y005256D01*
X080042Y005263D01*
X080077Y005266D01*
X080112Y005265D01*
X080147Y005260D01*
X080182Y005251D01*
X080215Y005239D01*
X080246Y005223D01*
X080276Y005204D01*
X080303Y005181D01*
X080327Y005156D01*
X080349Y005128D01*
X080367Y005098D01*
X080382Y005066D01*
X080394Y005033D01*
X080402Y004999D01*
X080406Y004964D01*
X080406Y004928D01*
X080402Y004893D01*
X080394Y004859D01*
X080382Y004826D01*
X080367Y004794D01*
X080349Y004764D01*
X080327Y004736D01*
X080303Y004711D01*
X080276Y004688D01*
X080246Y004669D01*
X080215Y004653D01*
X080182Y004641D01*
X080147Y004632D01*
X080112Y004627D01*
X080077Y004626D01*
X080042Y004629D01*
X080007Y004636D01*
X079974Y004646D01*
X079942Y004660D01*
X079911Y004678D01*
X079883Y004699D01*
X079857Y004723D01*
X079833Y004749D01*
X079813Y004778D01*
X079797Y004809D01*
X079783Y004842D01*
X079774Y004876D01*
X079768Y004911D01*
X079766Y004946D01*
X076866Y004946D02*
X076868Y004981D01*
X076874Y005016D01*
X076883Y005050D01*
X076897Y005083D01*
X076913Y005114D01*
X076933Y005143D01*
X076957Y005169D01*
X076983Y005193D01*
X077011Y005214D01*
X077042Y005232D01*
X077074Y005246D01*
X077107Y005256D01*
X077142Y005263D01*
X077177Y005266D01*
X077212Y005265D01*
X077247Y005260D01*
X077282Y005251D01*
X077315Y005239D01*
X077346Y005223D01*
X077376Y005204D01*
X077403Y005181D01*
X077427Y005156D01*
X077449Y005128D01*
X077467Y005098D01*
X077482Y005066D01*
X077494Y005033D01*
X077502Y004999D01*
X077506Y004964D01*
X077506Y004928D01*
X077502Y004893D01*
X077494Y004859D01*
X077482Y004826D01*
X077467Y004794D01*
X077449Y004764D01*
X077427Y004736D01*
X077403Y004711D01*
X077376Y004688D01*
X077346Y004669D01*
X077315Y004653D01*
X077282Y004641D01*
X077247Y004632D01*
X077212Y004627D01*
X077177Y004626D01*
X077142Y004629D01*
X077107Y004636D01*
X077074Y004646D01*
X077042Y004660D01*
X077011Y004678D01*
X076983Y004699D01*
X076957Y004723D01*
X076933Y004749D01*
X076913Y004778D01*
X076897Y004809D01*
X076883Y004842D01*
X076874Y004876D01*
X076868Y004911D01*
X076866Y004946D01*
X073966Y004946D02*
X073968Y004981D01*
X073974Y005016D01*
X073983Y005050D01*
X073997Y005083D01*
X074013Y005114D01*
X074033Y005143D01*
X074057Y005169D01*
X074083Y005193D01*
X074111Y005214D01*
X074142Y005232D01*
X074174Y005246D01*
X074207Y005256D01*
X074242Y005263D01*
X074277Y005266D01*
X074312Y005265D01*
X074347Y005260D01*
X074382Y005251D01*
X074415Y005239D01*
X074446Y005223D01*
X074476Y005204D01*
X074503Y005181D01*
X074527Y005156D01*
X074549Y005128D01*
X074567Y005098D01*
X074582Y005066D01*
X074594Y005033D01*
X074602Y004999D01*
X074606Y004964D01*
X074606Y004928D01*
X074602Y004893D01*
X074594Y004859D01*
X074582Y004826D01*
X074567Y004794D01*
X074549Y004764D01*
X074527Y004736D01*
X074503Y004711D01*
X074476Y004688D01*
X074446Y004669D01*
X074415Y004653D01*
X074382Y004641D01*
X074347Y004632D01*
X074312Y004627D01*
X074277Y004626D01*
X074242Y004629D01*
X074207Y004636D01*
X074174Y004646D01*
X074142Y004660D01*
X074111Y004678D01*
X074083Y004699D01*
X074057Y004723D01*
X074033Y004749D01*
X074013Y004778D01*
X073997Y004809D01*
X073983Y004842D01*
X073974Y004876D01*
X073968Y004911D01*
X073966Y004946D01*
X071066Y004956D02*
X071068Y004991D01*
X071074Y005026D01*
X071083Y005060D01*
X071097Y005093D01*
X071113Y005124D01*
X071133Y005153D01*
X071157Y005179D01*
X071183Y005203D01*
X071211Y005224D01*
X071242Y005242D01*
X071274Y005256D01*
X071307Y005266D01*
X071342Y005273D01*
X071377Y005276D01*
X071412Y005275D01*
X071447Y005270D01*
X071482Y005261D01*
X071515Y005249D01*
X071546Y005233D01*
X071576Y005214D01*
X071603Y005191D01*
X071627Y005166D01*
X071649Y005138D01*
X071667Y005108D01*
X071682Y005076D01*
X071694Y005043D01*
X071702Y005009D01*
X071706Y004974D01*
X071706Y004938D01*
X071702Y004903D01*
X071694Y004869D01*
X071682Y004836D01*
X071667Y004804D01*
X071649Y004774D01*
X071627Y004746D01*
X071603Y004721D01*
X071576Y004698D01*
X071546Y004679D01*
X071515Y004663D01*
X071482Y004651D01*
X071447Y004642D01*
X071412Y004637D01*
X071377Y004636D01*
X071342Y004639D01*
X071307Y004646D01*
X071274Y004656D01*
X071242Y004670D01*
X071211Y004688D01*
X071183Y004709D01*
X071157Y004733D01*
X071133Y004759D01*
X071113Y004788D01*
X071097Y004819D01*
X071083Y004852D01*
X071074Y004886D01*
X071068Y004921D01*
X071066Y004956D01*
X068166Y004946D02*
X068168Y004981D01*
X068174Y005016D01*
X068183Y005050D01*
X068197Y005083D01*
X068213Y005114D01*
X068233Y005143D01*
X068257Y005169D01*
X068283Y005193D01*
X068311Y005214D01*
X068342Y005232D01*
X068374Y005246D01*
X068407Y005256D01*
X068442Y005263D01*
X068477Y005266D01*
X068512Y005265D01*
X068547Y005260D01*
X068582Y005251D01*
X068615Y005239D01*
X068646Y005223D01*
X068676Y005204D01*
X068703Y005181D01*
X068727Y005156D01*
X068749Y005128D01*
X068767Y005098D01*
X068782Y005066D01*
X068794Y005033D01*
X068802Y004999D01*
X068806Y004964D01*
X068806Y004928D01*
X068802Y004893D01*
X068794Y004859D01*
X068782Y004826D01*
X068767Y004794D01*
X068749Y004764D01*
X068727Y004736D01*
X068703Y004711D01*
X068676Y004688D01*
X068646Y004669D01*
X068615Y004653D01*
X068582Y004641D01*
X068547Y004632D01*
X068512Y004627D01*
X068477Y004626D01*
X068442Y004629D01*
X068407Y004636D01*
X068374Y004646D01*
X068342Y004660D01*
X068311Y004678D01*
X068283Y004699D01*
X068257Y004723D01*
X068233Y004749D01*
X068213Y004778D01*
X068197Y004809D01*
X068183Y004842D01*
X068174Y004876D01*
X068168Y004911D01*
X068166Y004946D01*
X065266Y004946D02*
X065268Y004981D01*
X065274Y005016D01*
X065283Y005050D01*
X065297Y005083D01*
X065313Y005114D01*
X065333Y005143D01*
X065357Y005169D01*
X065383Y005193D01*
X065411Y005214D01*
X065442Y005232D01*
X065474Y005246D01*
X065507Y005256D01*
X065542Y005263D01*
X065577Y005266D01*
X065612Y005265D01*
X065647Y005260D01*
X065682Y005251D01*
X065715Y005239D01*
X065746Y005223D01*
X065776Y005204D01*
X065803Y005181D01*
X065827Y005156D01*
X065849Y005128D01*
X065867Y005098D01*
X065882Y005066D01*
X065894Y005033D01*
X065902Y004999D01*
X065906Y004964D01*
X065906Y004928D01*
X065902Y004893D01*
X065894Y004859D01*
X065882Y004826D01*
X065867Y004794D01*
X065849Y004764D01*
X065827Y004736D01*
X065803Y004711D01*
X065776Y004688D01*
X065746Y004669D01*
X065715Y004653D01*
X065682Y004641D01*
X065647Y004632D01*
X065612Y004627D01*
X065577Y004626D01*
X065542Y004629D01*
X065507Y004636D01*
X065474Y004646D01*
X065442Y004660D01*
X065411Y004678D01*
X065383Y004699D01*
X065357Y004723D01*
X065333Y004749D01*
X065313Y004778D01*
X065297Y004809D01*
X065283Y004842D01*
X065274Y004876D01*
X065268Y004911D01*
X065266Y004946D01*
X062366Y004946D02*
X062368Y004981D01*
X062374Y005016D01*
X062383Y005050D01*
X062397Y005083D01*
X062413Y005114D01*
X062433Y005143D01*
X062457Y005169D01*
X062483Y005193D01*
X062511Y005214D01*
X062542Y005232D01*
X062574Y005246D01*
X062607Y005256D01*
X062642Y005263D01*
X062677Y005266D01*
X062712Y005265D01*
X062747Y005260D01*
X062782Y005251D01*
X062815Y005239D01*
X062846Y005223D01*
X062876Y005204D01*
X062903Y005181D01*
X062927Y005156D01*
X062949Y005128D01*
X062967Y005098D01*
X062982Y005066D01*
X062994Y005033D01*
X063002Y004999D01*
X063006Y004964D01*
X063006Y004928D01*
X063002Y004893D01*
X062994Y004859D01*
X062982Y004826D01*
X062967Y004794D01*
X062949Y004764D01*
X062927Y004736D01*
X062903Y004711D01*
X062876Y004688D01*
X062846Y004669D01*
X062815Y004653D01*
X062782Y004641D01*
X062747Y004632D01*
X062712Y004627D01*
X062677Y004626D01*
X062642Y004629D01*
X062607Y004636D01*
X062574Y004646D01*
X062542Y004660D01*
X062511Y004678D01*
X062483Y004699D01*
X062457Y004723D01*
X062433Y004749D01*
X062413Y004778D01*
X062397Y004809D01*
X062383Y004842D01*
X062374Y004876D01*
X062368Y004911D01*
X062366Y004946D01*
X078681Y007393D02*
X078683Y007422D01*
X078689Y007450D01*
X078698Y007477D01*
X078711Y007503D01*
X078727Y007526D01*
X078747Y007548D01*
X078768Y007566D01*
X078793Y007582D01*
X078819Y007594D01*
X078846Y007602D01*
X078874Y007607D01*
X078903Y007608D01*
X078932Y007605D01*
X078960Y007598D01*
X078987Y007588D01*
X079012Y007574D01*
X079035Y007557D01*
X079055Y007537D01*
X079073Y007515D01*
X079088Y007490D01*
X079099Y007464D01*
X079107Y007436D01*
X079111Y007407D01*
X079111Y007379D01*
X079107Y007350D01*
X079099Y007322D01*
X079088Y007296D01*
X079073Y007271D01*
X079055Y007249D01*
X079035Y007229D01*
X079012Y007212D01*
X078987Y007198D01*
X078960Y007188D01*
X078932Y007181D01*
X078903Y007178D01*
X078874Y007179D01*
X078846Y007184D01*
X078819Y007192D01*
X078793Y007204D01*
X078768Y007220D01*
X078747Y007238D01*
X078727Y007260D01*
X078711Y007283D01*
X078698Y007309D01*
X078689Y007336D01*
X078683Y007364D01*
X078681Y007393D01*
X082754Y008336D02*
X082756Y008359D01*
X082762Y008382D01*
X082771Y008403D01*
X082784Y008423D01*
X082800Y008440D01*
X082818Y008454D01*
X082838Y008465D01*
X082860Y008473D01*
X082883Y008477D01*
X082907Y008477D01*
X082930Y008473D01*
X082952Y008465D01*
X082972Y008454D01*
X082990Y008440D01*
X083006Y008423D01*
X083019Y008403D01*
X083028Y008382D01*
X083034Y008359D01*
X083036Y008336D01*
X083034Y008313D01*
X083028Y008290D01*
X083019Y008269D01*
X083006Y008249D01*
X082990Y008232D01*
X082972Y008218D01*
X082952Y008207D01*
X082930Y008199D01*
X082907Y008195D01*
X082883Y008195D01*
X082860Y008199D01*
X082838Y008207D01*
X082818Y008218D01*
X082800Y008232D01*
X082784Y008249D01*
X082771Y008269D01*
X082762Y008290D01*
X082756Y008313D01*
X082754Y008336D01*
X085216Y008444D02*
X085216Y008129D01*
X085295Y008129D01*
X085373Y008208D01*
X085452Y008208D01*
X085531Y008129D01*
X085610Y008129D01*
X085688Y008208D01*
X085767Y008208D01*
X085846Y008129D01*
X085925Y008129D01*
X086003Y008208D01*
X086082Y008208D01*
X086161Y008129D01*
X086240Y008129D01*
X086318Y008208D01*
X086397Y008208D01*
X086476Y008129D01*
X086554Y008129D01*
X086554Y008444D01*
X086476Y008444D01*
X086397Y008365D01*
X086318Y008365D01*
X086240Y008444D01*
X086161Y008444D01*
X086082Y008365D01*
X086003Y008365D01*
X085925Y008444D01*
X085846Y008444D01*
X085767Y008365D01*
X085688Y008365D01*
X085610Y008444D01*
X085531Y008444D01*
X085452Y008365D01*
X085373Y008365D01*
X085295Y008444D01*
X085216Y008444D01*
X089216Y008224D02*
X089216Y007909D01*
X089295Y007909D01*
X089373Y007988D01*
X089452Y007988D01*
X089531Y007909D01*
X089610Y007909D01*
X089688Y007988D01*
X089767Y007988D01*
X089846Y007909D01*
X089925Y007909D01*
X090003Y007988D01*
X090082Y007988D01*
X090161Y007909D01*
X090240Y007909D01*
X090318Y007988D01*
X090397Y007988D01*
X090476Y007909D01*
X090554Y007909D01*
X090554Y008224D01*
X090476Y008224D01*
X090397Y008145D01*
X090318Y008145D01*
X090240Y008224D01*
X090161Y008224D01*
X090082Y008145D01*
X090003Y008145D01*
X089925Y008224D01*
X089846Y008224D01*
X089767Y008145D01*
X089688Y008145D01*
X089610Y008224D01*
X089531Y008224D01*
X089452Y008145D01*
X089373Y008145D01*
X089295Y008224D01*
X089216Y008224D01*
X091625Y007586D02*
X091625Y011586D01*
X093325Y011586D01*
X093325Y011086D01*
X092825Y011086D01*
X092825Y008086D01*
X093325Y008086D01*
X093325Y007586D01*
X091625Y007586D01*
X093325Y008086D02*
X093325Y011086D01*
X091083Y012567D02*
X091083Y012646D01*
X091004Y012725D01*
X091004Y012803D01*
X091083Y012882D01*
X091083Y012961D01*
X091004Y013040D01*
X091004Y013118D01*
X091083Y013197D01*
X091083Y013276D01*
X091004Y013355D01*
X091004Y013433D01*
X091083Y013512D01*
X091083Y013591D01*
X091004Y013670D01*
X091004Y013748D01*
X091083Y013827D01*
X091083Y013906D01*
X090768Y013906D01*
X090768Y013827D01*
X090846Y013748D01*
X090846Y013670D01*
X090768Y013591D01*
X090768Y013512D01*
X090846Y013433D01*
X090846Y013355D01*
X090768Y013276D01*
X090768Y013197D01*
X090846Y013118D01*
X090846Y013040D01*
X090768Y012961D01*
X090768Y012882D01*
X090846Y012803D01*
X090846Y012725D01*
X090768Y012646D01*
X090768Y012567D01*
X091083Y012567D01*
X092205Y014566D02*
X088205Y014566D01*
X088205Y016266D01*
X088705Y016266D01*
X088705Y015766D01*
X091705Y015766D01*
X091705Y016266D01*
X092205Y016266D01*
X092205Y014566D01*
X091705Y016266D02*
X088705Y016266D01*
X079690Y009066D02*
X079692Y009095D01*
X079698Y009123D01*
X079707Y009150D01*
X079720Y009176D01*
X079736Y009199D01*
X079756Y009221D01*
X079777Y009239D01*
X079802Y009255D01*
X079828Y009267D01*
X079855Y009275D01*
X079883Y009280D01*
X079912Y009281D01*
X079941Y009278D01*
X079969Y009271D01*
X079996Y009261D01*
X080021Y009247D01*
X080044Y009230D01*
X080064Y009210D01*
X080082Y009188D01*
X080097Y009163D01*
X080108Y009137D01*
X080116Y009109D01*
X080120Y009080D01*
X080120Y009052D01*
X080116Y009023D01*
X080108Y008995D01*
X080097Y008969D01*
X080082Y008944D01*
X080064Y008922D01*
X080044Y008902D01*
X080021Y008885D01*
X079996Y008871D01*
X079969Y008861D01*
X079941Y008854D01*
X079912Y008851D01*
X079883Y008852D01*
X079855Y008857D01*
X079828Y008865D01*
X079802Y008877D01*
X079777Y008893D01*
X079756Y008911D01*
X079736Y008933D01*
X079720Y008956D01*
X079707Y008982D01*
X079698Y009009D01*
X079692Y009037D01*
X079690Y009066D01*
X077739Y009067D02*
X077741Y009096D01*
X077747Y009124D01*
X077756Y009151D01*
X077769Y009177D01*
X077785Y009200D01*
X077805Y009222D01*
X077826Y009240D01*
X077851Y009256D01*
X077877Y009268D01*
X077904Y009276D01*
X077932Y009281D01*
X077961Y009282D01*
X077990Y009279D01*
X078018Y009272D01*
X078045Y009262D01*
X078070Y009248D01*
X078093Y009231D01*
X078113Y009211D01*
X078131Y009189D01*
X078146Y009164D01*
X078157Y009138D01*
X078165Y009110D01*
X078169Y009081D01*
X078169Y009053D01*
X078165Y009024D01*
X078157Y008996D01*
X078146Y008970D01*
X078131Y008945D01*
X078113Y008923D01*
X078093Y008903D01*
X078070Y008886D01*
X078045Y008872D01*
X078018Y008862D01*
X077990Y008855D01*
X077961Y008852D01*
X077932Y008853D01*
X077904Y008858D01*
X077877Y008866D01*
X077851Y008878D01*
X077826Y008894D01*
X077805Y008912D01*
X077785Y008934D01*
X077769Y008957D01*
X077756Y008983D01*
X077747Y009010D01*
X077741Y009038D01*
X077739Y009067D01*
D18*
X082666Y007927D02*
X082739Y007927D01*
X082703Y007927D02*
X082703Y007706D01*
X082739Y007706D02*
X082666Y007706D01*
X082813Y007743D02*
X082850Y007706D01*
X082923Y007706D01*
X082960Y007743D01*
X083034Y007743D02*
X083071Y007706D01*
X083144Y007706D01*
X083181Y007743D01*
X083181Y007817D01*
X083144Y007853D01*
X083108Y007853D01*
X083034Y007817D01*
X083034Y007927D01*
X083181Y007927D01*
X082960Y007890D02*
X082923Y007927D01*
X082850Y007927D01*
X082813Y007890D01*
X082813Y007743D01*
X085305Y008849D02*
X085305Y009069D01*
X085415Y009069D01*
X085451Y009032D01*
X085451Y008959D01*
X085415Y008922D01*
X085305Y008922D01*
X085378Y008922D02*
X085451Y008849D01*
X085526Y008849D02*
X085526Y009069D01*
X085672Y008849D01*
X085672Y009069D01*
X085747Y009032D02*
X085783Y009069D01*
X085857Y009069D01*
X085893Y009032D01*
X085893Y008996D01*
X085857Y008959D01*
X085893Y008922D01*
X085893Y008886D01*
X085857Y008849D01*
X085783Y008849D01*
X085747Y008886D01*
X085820Y008959D02*
X085857Y008959D01*
X089305Y008849D02*
X089305Y008629D01*
X089305Y008702D02*
X089415Y008702D01*
X089451Y008739D01*
X089451Y008812D01*
X089415Y008849D01*
X089305Y008849D01*
X089378Y008702D02*
X089451Y008629D01*
X089526Y008629D02*
X089526Y008849D01*
X089672Y008629D01*
X089672Y008849D01*
X089747Y008776D02*
X089820Y008849D01*
X089820Y008629D01*
X089747Y008629D02*
X089893Y008629D01*
X089835Y005482D02*
X089835Y005335D01*
X089688Y005482D01*
X089652Y005482D01*
X089615Y005446D01*
X089615Y005372D01*
X089652Y005335D01*
X089652Y005261D02*
X089615Y005225D01*
X089615Y005114D01*
X089835Y005114D01*
X089835Y005225D01*
X089799Y005261D01*
X089652Y005261D01*
X086935Y005225D02*
X086899Y005261D01*
X086752Y005261D01*
X086715Y005225D01*
X086715Y005114D01*
X086935Y005114D01*
X086935Y005225D01*
X086899Y005335D02*
X086935Y005372D01*
X086935Y005446D01*
X086899Y005482D01*
X086862Y005482D01*
X086825Y005446D01*
X086825Y005409D01*
X086825Y005446D02*
X086788Y005482D01*
X086752Y005482D01*
X086715Y005446D01*
X086715Y005372D01*
X086752Y005335D01*
X084035Y005225D02*
X083999Y005261D01*
X083852Y005261D01*
X083815Y005225D01*
X083815Y005114D01*
X084035Y005114D01*
X084035Y005225D01*
X083925Y005335D02*
X083925Y005482D01*
X083815Y005446D02*
X083925Y005335D01*
X084035Y005446D02*
X083815Y005446D01*
X081135Y005446D02*
X081135Y005372D01*
X081099Y005335D01*
X081099Y005261D02*
X080952Y005261D01*
X080915Y005225D01*
X080915Y005114D01*
X081135Y005114D01*
X081135Y005225D01*
X081099Y005261D01*
X081025Y005335D02*
X080988Y005409D01*
X080988Y005446D01*
X081025Y005482D01*
X081099Y005482D01*
X081135Y005446D01*
X081025Y005335D02*
X080915Y005335D01*
X080915Y005482D01*
X078235Y005446D02*
X078199Y005482D01*
X078162Y005482D01*
X078125Y005446D01*
X078125Y005335D01*
X078199Y005335D01*
X078235Y005372D01*
X078235Y005446D01*
X078125Y005335D02*
X078052Y005409D01*
X078015Y005482D01*
X078052Y005261D02*
X078015Y005225D01*
X078015Y005114D01*
X078235Y005114D01*
X078235Y005225D01*
X078199Y005261D01*
X078052Y005261D01*
X075335Y005225D02*
X075299Y005261D01*
X075152Y005261D01*
X075115Y005225D01*
X075115Y005114D01*
X075335Y005114D01*
X075335Y005225D01*
X075335Y005335D02*
X075299Y005335D01*
X075152Y005482D01*
X075115Y005482D01*
X075115Y005335D01*
X072435Y005382D02*
X072399Y005345D01*
X072362Y005345D01*
X072325Y005382D01*
X072325Y005456D01*
X072362Y005492D01*
X072399Y005492D01*
X072435Y005456D01*
X072435Y005382D01*
X072325Y005382D02*
X072288Y005345D01*
X072252Y005345D01*
X072215Y005382D01*
X072215Y005456D01*
X072252Y005492D01*
X072288Y005492D01*
X072325Y005456D01*
X072252Y005271D02*
X072215Y005235D01*
X072215Y005124D01*
X072435Y005124D01*
X072435Y005235D01*
X072399Y005271D01*
X072252Y005271D01*
X069535Y005225D02*
X069499Y005261D01*
X069352Y005261D01*
X069315Y005225D01*
X069315Y005114D01*
X069535Y005114D01*
X069535Y005225D01*
X069499Y005335D02*
X069535Y005372D01*
X069535Y005446D01*
X069499Y005482D01*
X069352Y005482D01*
X069315Y005446D01*
X069315Y005372D01*
X069352Y005335D01*
X069388Y005335D01*
X069425Y005372D01*
X069425Y005482D01*
X066635Y005446D02*
X066635Y005372D01*
X066599Y005335D01*
X066452Y005482D01*
X066599Y005482D01*
X066635Y005446D01*
X066599Y005335D02*
X066452Y005335D01*
X066415Y005372D01*
X066415Y005446D01*
X066452Y005482D01*
X066635Y005261D02*
X066635Y005114D01*
X066635Y005188D02*
X066415Y005188D01*
X066488Y005114D01*
X066452Y005040D02*
X066415Y005004D01*
X066415Y004894D01*
X066635Y004894D01*
X066635Y005004D01*
X066599Y005040D01*
X066452Y005040D01*
X063735Y005004D02*
X063699Y005040D01*
X063552Y005040D01*
X063515Y005004D01*
X063515Y004894D01*
X063735Y004894D01*
X063735Y005004D01*
X063735Y005114D02*
X063735Y005261D01*
X063735Y005188D02*
X063515Y005188D01*
X063588Y005114D01*
X063588Y005335D02*
X063515Y005409D01*
X063735Y005409D01*
X063735Y005482D02*
X063735Y005335D01*
X060835Y005335D02*
X060688Y005482D01*
X060652Y005482D01*
X060615Y005446D01*
X060615Y005372D01*
X060652Y005335D01*
X060615Y005188D02*
X060835Y005188D01*
X060835Y005261D02*
X060835Y005114D01*
X060799Y005040D02*
X060652Y005040D01*
X060615Y005004D01*
X060615Y004894D01*
X060835Y004894D01*
X060835Y005004D01*
X060799Y005040D01*
X060688Y005114D02*
X060615Y005188D01*
X060835Y005335D02*
X060835Y005482D01*
X057935Y005446D02*
X057935Y005372D01*
X057899Y005335D01*
X057935Y005261D02*
X057935Y005114D01*
X057935Y005188D02*
X057715Y005188D01*
X057788Y005114D01*
X057752Y005040D02*
X057715Y005004D01*
X057715Y004894D01*
X057935Y004894D01*
X057935Y005004D01*
X057899Y005040D01*
X057752Y005040D01*
X057752Y005335D02*
X057715Y005372D01*
X057715Y005446D01*
X057752Y005482D01*
X057788Y005482D01*
X057825Y005446D01*
X057862Y005482D01*
X057899Y005482D01*
X057935Y005446D01*
X057825Y005446D02*
X057825Y005409D01*
X055035Y005446D02*
X054815Y005446D01*
X054925Y005335D01*
X054925Y005482D01*
X055035Y005261D02*
X055035Y005114D01*
X055035Y005188D02*
X054815Y005188D01*
X054888Y005114D01*
X054852Y005040D02*
X054815Y005004D01*
X054815Y004894D01*
X055035Y004894D01*
X055035Y005004D01*
X054999Y005040D01*
X054852Y005040D01*
X052035Y005004D02*
X051999Y005040D01*
X051852Y005040D01*
X051815Y005004D01*
X051815Y004894D01*
X052035Y004894D01*
X052035Y005004D01*
X052035Y005114D02*
X052035Y005261D01*
X052035Y005188D02*
X051815Y005188D01*
X051888Y005114D01*
X051925Y005335D02*
X051888Y005409D01*
X051888Y005446D01*
X051925Y005482D01*
X051999Y005482D01*
X052035Y005446D01*
X052035Y005372D01*
X051999Y005335D01*
X051925Y005335D02*
X051815Y005335D01*
X051815Y005482D01*
X049135Y005446D02*
X049099Y005482D01*
X049062Y005482D01*
X049025Y005446D01*
X049025Y005335D01*
X049099Y005335D01*
X049135Y005372D01*
X049135Y005446D01*
X049025Y005335D02*
X048952Y005409D01*
X048915Y005482D01*
X048915Y005188D02*
X049135Y005188D01*
X049135Y005261D02*
X049135Y005114D01*
X049099Y005040D02*
X048952Y005040D01*
X048915Y005004D01*
X048915Y004894D01*
X049135Y004894D01*
X049135Y005004D01*
X049099Y005040D01*
X048988Y005114D02*
X048915Y005188D01*
X046235Y005188D02*
X046015Y005188D01*
X046088Y005114D01*
X046052Y005040D02*
X046015Y005004D01*
X046015Y004894D01*
X046235Y004894D01*
X046235Y005004D01*
X046199Y005040D01*
X046052Y005040D01*
X046235Y005114D02*
X046235Y005261D01*
X046235Y005335D02*
X046199Y005335D01*
X046052Y005482D01*
X046015Y005482D01*
X046015Y005335D01*
X043435Y005372D02*
X043399Y005335D01*
X043362Y005335D01*
X043325Y005372D01*
X043325Y005446D01*
X043362Y005482D01*
X043399Y005482D01*
X043435Y005446D01*
X043435Y005372D01*
X043325Y005372D02*
X043288Y005335D01*
X043252Y005335D01*
X043215Y005372D01*
X043215Y005446D01*
X043252Y005482D01*
X043288Y005482D01*
X043325Y005446D01*
X043435Y005261D02*
X043435Y005114D01*
X043435Y005188D02*
X043215Y005188D01*
X043288Y005114D01*
X043252Y005040D02*
X043215Y005004D01*
X043215Y004894D01*
X043435Y004894D01*
X043435Y005004D01*
X043399Y005040D01*
X043252Y005040D01*
X040535Y005004D02*
X040499Y005040D01*
X040352Y005040D01*
X040315Y005004D01*
X040315Y004894D01*
X040535Y004894D01*
X040535Y005004D01*
X040535Y005114D02*
X040535Y005261D01*
X040535Y005188D02*
X040315Y005188D01*
X040388Y005114D01*
X040388Y005335D02*
X040425Y005372D01*
X040425Y005482D01*
X040352Y005482D02*
X040315Y005446D01*
X040315Y005372D01*
X040352Y005335D01*
X040388Y005335D01*
X040499Y005335D02*
X040535Y005372D01*
X040535Y005446D01*
X040499Y005482D01*
X040352Y005482D01*
X037635Y005446D02*
X037635Y005372D01*
X037599Y005335D01*
X037452Y005482D01*
X037599Y005482D01*
X037635Y005446D01*
X037599Y005335D02*
X037452Y005335D01*
X037415Y005372D01*
X037415Y005446D01*
X037452Y005482D01*
X037452Y005261D02*
X037415Y005225D01*
X037415Y005151D01*
X037452Y005114D01*
X037452Y005040D02*
X037415Y005004D01*
X037415Y004894D01*
X037635Y004894D01*
X037635Y005004D01*
X037599Y005040D01*
X037452Y005040D01*
X037635Y005114D02*
X037488Y005261D01*
X037452Y005261D01*
X037635Y005261D02*
X037635Y005114D01*
X034735Y005114D02*
X034588Y005261D01*
X034552Y005261D01*
X034515Y005225D01*
X034515Y005151D01*
X034552Y005114D01*
X034552Y005040D02*
X034515Y005004D01*
X034515Y004894D01*
X034735Y004894D01*
X034735Y005004D01*
X034699Y005040D01*
X034552Y005040D01*
X034735Y005114D02*
X034735Y005261D01*
X034735Y005335D02*
X034735Y005482D01*
X034735Y005409D02*
X034515Y005409D01*
X034588Y005335D01*
X031835Y005335D02*
X031688Y005482D01*
X031652Y005482D01*
X031615Y005446D01*
X031615Y005372D01*
X031652Y005335D01*
X031652Y005261D02*
X031615Y005225D01*
X031615Y005151D01*
X031652Y005114D01*
X031652Y005040D02*
X031615Y005004D01*
X031615Y004894D01*
X031835Y004894D01*
X031835Y005004D01*
X031799Y005040D01*
X031652Y005040D01*
X031835Y005114D02*
X031688Y005261D01*
X031652Y005261D01*
X031835Y005261D02*
X031835Y005114D01*
X031835Y005335D02*
X031835Y005482D01*
X028935Y005446D02*
X028935Y005372D01*
X028899Y005335D01*
X028935Y005261D02*
X028935Y005114D01*
X028788Y005261D01*
X028752Y005261D01*
X028715Y005225D01*
X028715Y005151D01*
X028752Y005114D01*
X028752Y005040D02*
X028715Y005004D01*
X028715Y004894D01*
X028935Y004894D01*
X028935Y005004D01*
X028899Y005040D01*
X028752Y005040D01*
X028752Y005335D02*
X028715Y005372D01*
X028715Y005446D01*
X028752Y005482D01*
X028788Y005482D01*
X028825Y005446D01*
X028862Y005482D01*
X028899Y005482D01*
X028935Y005446D01*
X028825Y005446D02*
X028825Y005409D01*
X026035Y005446D02*
X025815Y005446D01*
X025925Y005335D01*
X025925Y005482D01*
X025888Y005261D02*
X025852Y005261D01*
X025815Y005225D01*
X025815Y005151D01*
X025852Y005114D01*
X025852Y005040D02*
X025815Y005004D01*
X025815Y004894D01*
X026035Y004894D01*
X026035Y005004D01*
X025999Y005040D01*
X025852Y005040D01*
X026035Y005114D02*
X025888Y005261D01*
X026035Y005261D02*
X026035Y005114D01*
X023135Y005114D02*
X022988Y005261D01*
X022952Y005261D01*
X022915Y005225D01*
X022915Y005151D01*
X022952Y005114D01*
X022952Y005040D02*
X022915Y005004D01*
X022915Y004894D01*
X023135Y004894D01*
X023135Y005004D01*
X023099Y005040D01*
X022952Y005040D01*
X023135Y005114D02*
X023135Y005261D01*
X023099Y005335D02*
X023135Y005372D01*
X023135Y005446D01*
X023099Y005482D01*
X023025Y005482D01*
X022988Y005446D01*
X022988Y005409D01*
X023025Y005335D01*
X022915Y005335D01*
X022915Y005482D01*
X020235Y005446D02*
X020199Y005482D01*
X020162Y005482D01*
X020125Y005446D01*
X020125Y005335D01*
X020199Y005335D01*
X020235Y005372D01*
X020235Y005446D01*
X020125Y005335D02*
X020052Y005409D01*
X020015Y005482D01*
X020052Y005261D02*
X020015Y005225D01*
X020015Y005151D01*
X020052Y005114D01*
X020052Y005040D02*
X020015Y005004D01*
X020015Y004894D01*
X020235Y004894D01*
X020235Y005004D01*
X020199Y005040D01*
X020052Y005040D01*
X020235Y005114D02*
X020088Y005261D01*
X020052Y005261D01*
X020235Y005261D02*
X020235Y005114D01*
X017335Y005114D02*
X017188Y005261D01*
X017152Y005261D01*
X017115Y005225D01*
X017115Y005151D01*
X017152Y005114D01*
X017152Y005040D02*
X017115Y005004D01*
X017115Y004894D01*
X017335Y004894D01*
X017335Y005004D01*
X017299Y005040D01*
X017152Y005040D01*
X017335Y005114D02*
X017335Y005261D01*
X017335Y005335D02*
X017299Y005335D01*
X017152Y005482D01*
X017115Y005482D01*
X017115Y005335D01*
X014435Y005372D02*
X014399Y005335D01*
X014362Y005335D01*
X014325Y005372D01*
X014325Y005446D01*
X014362Y005482D01*
X014399Y005482D01*
X014435Y005446D01*
X014435Y005372D01*
X014325Y005372D02*
X014288Y005335D01*
X014252Y005335D01*
X014215Y005372D01*
X014215Y005446D01*
X014252Y005482D01*
X014288Y005482D01*
X014325Y005446D01*
X014288Y005261D02*
X014252Y005261D01*
X014215Y005225D01*
X014215Y005151D01*
X014252Y005114D01*
X014252Y005040D02*
X014215Y005004D01*
X014215Y004894D01*
X014435Y004894D01*
X014435Y005004D01*
X014399Y005040D01*
X014252Y005040D01*
X014435Y005114D02*
X014288Y005261D01*
X014435Y005261D02*
X014435Y005114D01*
X011535Y005114D02*
X011388Y005261D01*
X011352Y005261D01*
X011315Y005225D01*
X011315Y005151D01*
X011352Y005114D01*
X011352Y005040D02*
X011315Y005004D01*
X011315Y004894D01*
X011535Y004894D01*
X011535Y005004D01*
X011499Y005040D01*
X011352Y005040D01*
X011535Y005114D02*
X011535Y005261D01*
X011499Y005335D02*
X011535Y005372D01*
X011535Y005446D01*
X011499Y005482D01*
X011352Y005482D01*
X011315Y005446D01*
X011315Y005372D01*
X011352Y005335D01*
X011388Y005335D01*
X011425Y005372D01*
X011425Y005482D01*
X008635Y005446D02*
X008635Y005372D01*
X008599Y005335D01*
X008452Y005482D01*
X008599Y005482D01*
X008635Y005446D01*
X008599Y005335D02*
X008452Y005335D01*
X008415Y005372D01*
X008415Y005446D01*
X008452Y005482D01*
X008452Y005261D02*
X008488Y005261D01*
X008525Y005225D01*
X008562Y005261D01*
X008599Y005261D01*
X008635Y005225D01*
X008635Y005151D01*
X008599Y005114D01*
X008599Y005040D02*
X008452Y005040D01*
X008415Y005004D01*
X008415Y004894D01*
X008635Y004894D01*
X008635Y005004D01*
X008599Y005040D01*
X008452Y005114D02*
X008415Y005151D01*
X008415Y005225D01*
X008452Y005261D01*
X008525Y005225D02*
X008525Y005188D01*
X005735Y005151D02*
X005699Y005114D01*
X005735Y005151D02*
X005735Y005225D01*
X005699Y005261D01*
X005662Y005261D01*
X005625Y005225D01*
X005625Y005188D01*
X005625Y005225D02*
X005588Y005261D01*
X005552Y005261D01*
X005515Y005225D01*
X005515Y005151D01*
X005552Y005114D01*
X005552Y005040D02*
X005515Y005004D01*
X005515Y004894D01*
X005735Y004894D01*
X005735Y005004D01*
X005699Y005040D01*
X005552Y005040D01*
X005588Y005335D02*
X005515Y005409D01*
X005735Y005409D01*
X005735Y005482D02*
X005735Y005335D01*
X002835Y005335D02*
X002688Y005482D01*
X002652Y005482D01*
X002615Y005446D01*
X002615Y005372D01*
X002652Y005335D01*
X002652Y005261D02*
X002688Y005261D01*
X002725Y005225D01*
X002762Y005261D01*
X002799Y005261D01*
X002835Y005225D01*
X002835Y005151D01*
X002799Y005114D01*
X002799Y005040D02*
X002652Y005040D01*
X002615Y005004D01*
X002615Y004894D01*
X002835Y004894D01*
X002835Y005004D01*
X002799Y005040D01*
X002652Y005114D02*
X002615Y005151D01*
X002615Y005225D01*
X002652Y005261D01*
X002725Y005225D02*
X002725Y005188D01*
X002835Y005335D02*
X002835Y005482D01*
X090143Y012656D02*
X090143Y012766D01*
X090179Y012803D01*
X090253Y012803D01*
X090289Y012766D01*
X090289Y012656D01*
X090289Y012729D02*
X090363Y012803D01*
X090363Y012877D02*
X090143Y012877D01*
X090363Y013024D01*
X090143Y013024D01*
X090143Y013098D02*
X090253Y013098D01*
X090216Y013171D01*
X090216Y013208D01*
X090253Y013245D01*
X090326Y013245D01*
X090363Y013208D01*
X090363Y013135D01*
X090326Y013098D01*
X090143Y013098D02*
X090143Y013245D01*
X090143Y012656D02*
X090363Y012656D01*
X092735Y005482D02*
X092735Y005335D01*
X092735Y005409D02*
X092515Y005409D01*
X092588Y005335D01*
X092552Y005261D02*
X092515Y005225D01*
X092515Y005114D01*
X092735Y005114D01*
X092735Y005225D01*
X092699Y005261D01*
X092552Y005261D01*
D19*
X092305Y011606D02*
X091845Y011913D01*
X091998Y012067D02*
X091845Y012220D01*
X092305Y012220D01*
X092305Y012067D02*
X092305Y012374D01*
X092305Y011913D02*
X091845Y011606D01*
X088072Y014786D02*
X087765Y014786D01*
X088072Y015093D01*
X088072Y015170D01*
X087995Y015247D01*
X087841Y015247D01*
X087765Y015170D01*
X087611Y015247D02*
X087304Y014786D01*
X087611Y014786D02*
X087304Y015247D01*
X088085Y015259D02*
X088085Y015326D01*
X088118Y015359D01*
X088152Y015359D01*
X088185Y015326D01*
X088219Y015359D01*
X088252Y015359D01*
X088285Y015326D01*
X088285Y015259D01*
X088252Y015225D01*
X088252Y015138D02*
X088285Y015105D01*
X088285Y015038D01*
X088252Y015004D01*
X088118Y015004D01*
X088085Y015038D01*
X088085Y015105D01*
X088118Y015138D01*
X088118Y015225D02*
X088085Y015259D01*
X088185Y015292D02*
X088185Y015326D01*
D20*
X089240Y014182D02*
X089364Y014182D01*
X089302Y014182D02*
X089302Y013811D01*
X089240Y013811D02*
X089364Y013811D01*
X089486Y013873D02*
X089486Y014120D01*
X089547Y014182D01*
X089671Y014182D01*
X089733Y014120D01*
X089854Y014120D02*
X089916Y014182D01*
X090039Y014182D01*
X090101Y014120D01*
X090101Y014058D01*
X089854Y013811D01*
X090101Y013811D01*
X089733Y013873D02*
X089671Y013811D01*
X089547Y013811D01*
X089486Y013873D01*
D21*
X079345Y009506D02*
X078545Y009506D01*
X078615Y008803D02*
X078632Y008852D01*
X078646Y008903D01*
X078655Y008955D01*
X078661Y009007D01*
X078663Y009060D01*
X078661Y009112D01*
X078655Y009165D01*
X078645Y009216D01*
X078631Y009267D01*
X078614Y009317D01*
X078593Y009365D01*
X078568Y009412D01*
X078540Y009456D01*
X078509Y009498D01*
X078475Y009538D01*
X078437Y009575D01*
X078398Y009610D01*
X078355Y009641D01*
X078311Y009669D01*
X078264Y009693D01*
X078216Y009714D01*
X078166Y009732D01*
X078115Y009745D01*
X078064Y009755D01*
X078011Y009761D01*
X077959Y009763D01*
X077906Y009761D01*
X077854Y009755D01*
X077802Y009745D01*
X077751Y009732D01*
X077702Y009714D01*
X077654Y009693D01*
X077607Y009669D01*
X077562Y009641D01*
X077520Y009609D01*
X077480Y009575D01*
X077443Y009538D01*
X077409Y009498D01*
X077377Y009456D01*
X077349Y009411D01*
X077325Y009365D01*
X077304Y009316D01*
X077286Y009267D01*
X077273Y009216D01*
X077263Y009164D01*
X077257Y009112D01*
X077255Y009059D01*
X077257Y009007D01*
X077263Y008955D01*
X077273Y008903D01*
X077286Y008852D01*
X077303Y008802D01*
X077324Y008754D01*
X077349Y008708D01*
X077377Y008663D01*
X077408Y008621D01*
X077442Y008581D01*
X077480Y008543D01*
X077519Y008509D01*
X077562Y008478D01*
X077606Y008450D01*
X077653Y008425D01*
X077701Y008404D01*
X077751Y008387D01*
X077801Y008373D01*
X077853Y008363D01*
X077853Y008362D02*
X078233Y007704D01*
X078795Y008098D02*
X078743Y008088D01*
X078693Y008074D01*
X078643Y008057D01*
X078595Y008036D01*
X078548Y008011D01*
X078504Y007983D01*
X078461Y007952D01*
X078422Y007918D01*
X078384Y007880D01*
X078350Y007840D01*
X078319Y007798D01*
X078291Y007753D01*
X078266Y007707D01*
X078245Y007659D01*
X078228Y007609D01*
X078215Y007558D01*
X078205Y007506D01*
X078199Y007454D01*
X078197Y007402D01*
X078199Y007349D01*
X078205Y007297D01*
X078215Y007245D01*
X078228Y007194D01*
X078246Y007145D01*
X078267Y007096D01*
X078291Y007050D01*
X078319Y007005D01*
X078351Y006963D01*
X078385Y006923D01*
X078422Y006886D01*
X078462Y006852D01*
X078504Y006820D01*
X078549Y006792D01*
X078596Y006768D01*
X078644Y006747D01*
X078693Y006729D01*
X078744Y006716D01*
X078796Y006706D01*
X078848Y006700D01*
X078901Y006698D01*
X078953Y006700D01*
X079006Y006706D01*
X079057Y006716D01*
X079108Y006729D01*
X079158Y006747D01*
X079206Y006768D01*
X079253Y006792D01*
X079297Y006820D01*
X079340Y006851D01*
X079379Y006886D01*
X079417Y006923D01*
X079451Y006963D01*
X079482Y007005D01*
X079510Y007049D01*
X079535Y007096D01*
X079556Y007144D01*
X079573Y007194D01*
X079587Y007245D01*
X079597Y007296D01*
X079603Y007349D01*
X079605Y007401D01*
X079603Y007454D01*
X079597Y007506D01*
X079588Y007558D01*
X079574Y007609D01*
X079557Y007658D01*
X079937Y008316D01*
X079345Y008626D02*
X078745Y008626D01*
X078616Y008802D02*
X078876Y008304D01*
X078795Y008098D02*
X079095Y008596D01*
X079345Y008626D02*
X079380Y008586D01*
X079417Y008549D01*
X079457Y008515D01*
X079499Y008484D01*
X079544Y008456D01*
X079590Y008431D01*
X079639Y008410D01*
X079688Y008393D01*
X079739Y008379D01*
X079791Y008370D01*
X079843Y008364D01*
X079896Y008362D01*
X079948Y008364D01*
X080001Y008370D01*
X080052Y008380D01*
X080103Y008393D01*
X080153Y008411D01*
X080201Y008432D01*
X080247Y008457D01*
X080292Y008485D01*
X080334Y008516D01*
X080374Y008550D01*
X080411Y008587D01*
X080446Y008627D01*
X080477Y008670D01*
X080505Y008714D01*
X080529Y008761D01*
X080550Y008809D01*
X080568Y008859D01*
X080581Y008909D01*
X080591Y008961D01*
X080597Y009013D01*
X080599Y009066D01*
X080597Y009119D01*
X080591Y009171D01*
X080581Y009223D01*
X080568Y009273D01*
X080550Y009323D01*
X080529Y009371D01*
X080505Y009418D01*
X080477Y009462D01*
X080446Y009505D01*
X080411Y009545D01*
X080374Y009582D01*
X080334Y009616D01*
X080292Y009647D01*
X080247Y009675D01*
X080201Y009700D01*
X080153Y009721D01*
X080103Y009739D01*
X080052Y009752D01*
X080001Y009762D01*
X079948Y009768D01*
X079896Y009770D01*
X079843Y009768D01*
X079791Y009762D01*
X079739Y009753D01*
X079688Y009739D01*
X079639Y009722D01*
X079590Y009701D01*
X079544Y009676D01*
X079499Y009648D01*
X079457Y009617D01*
X079417Y009583D01*
X079380Y009546D01*
X079345Y009506D01*
D22*
X084089Y011347D02*
X084160Y011276D01*
X084125Y011312D02*
X084231Y011418D01*
X084160Y011418D01*
X084109Y011434D02*
X084074Y011434D01*
X084021Y011487D01*
X084056Y011451D02*
X084056Y011381D01*
X084109Y011434D02*
X084144Y011469D01*
X084144Y011504D01*
X084091Y011557D01*
X083985Y011451D01*
M02*
