G75*
G70*
%OFA0B0*%
%FSLAX24Y24*%
%IPPOS*%
%LPD*%
%AMOC8*
5,1,8,0,0,1.08239X$1,22.5*
%
%ADD10C,0.0100*%
%ADD11C,0.0220*%
%ADD12C,0.0140*%
%ADD13C,0.0020*%
%ADD14C,0.0050*%
%ADD15C,0.0060*%
%ADD16C,0.0040*%
%ADD17C,0.0080*%
%ADD18R,0.0148X0.1100*%
%ADD19C,0.0030*%
%ADD20R,0.1100X0.0148*%
%ADD21C,0.0010*%
%ADD22R,0.0180X0.0300*%
%ADD23R,0.0300X0.0180*%
%ADD24C,0.0160*%
D10*
X004445Y011686D02*
X004645Y011686D01*
X004712Y011753D01*
X004712Y012020D01*
X004645Y012086D01*
X004445Y012086D01*
X004445Y011686D01*
X004906Y011686D02*
X004906Y011953D01*
X005039Y012086D01*
X005172Y011953D01*
X005172Y011686D01*
X005172Y011886D02*
X004906Y011886D01*
X005366Y011820D02*
X005499Y011686D01*
X005633Y011820D01*
X005633Y012086D01*
X005826Y012086D02*
X005960Y012086D01*
X005893Y012086D02*
X005893Y011686D01*
X005826Y011686D02*
X005960Y011686D01*
X006133Y011686D02*
X006333Y011686D01*
X006400Y011753D01*
X006400Y012020D01*
X006333Y012086D01*
X006133Y012086D01*
X006133Y011686D01*
X005366Y011820D02*
X005366Y012086D01*
X007054Y012086D02*
X007187Y011953D01*
X007321Y012086D01*
X007321Y011686D01*
X007514Y011686D02*
X007581Y011686D01*
X007581Y011753D01*
X007514Y011753D01*
X007514Y011686D01*
X007054Y011686D02*
X007054Y012086D01*
X008205Y011953D02*
X008338Y012086D01*
X008512Y012020D02*
X008512Y011753D01*
X008578Y011686D01*
X008712Y011686D01*
X008779Y011753D01*
X008972Y011686D02*
X009105Y011820D01*
X009105Y011953D01*
X008972Y012086D01*
X008779Y012020D02*
X008712Y012086D01*
X008578Y012086D01*
X008512Y012020D01*
X008205Y011953D02*
X008205Y011820D01*
X008338Y011686D01*
X009739Y011686D02*
X010006Y011953D01*
X010006Y012020D01*
X009939Y012086D01*
X009806Y012086D01*
X009739Y012020D01*
X010200Y012020D02*
X010266Y012086D01*
X010400Y012086D01*
X010466Y012020D01*
X010200Y011753D01*
X010266Y011686D01*
X010400Y011686D01*
X010466Y011753D01*
X010466Y012020D01*
X010660Y011953D02*
X010793Y012086D01*
X010793Y011686D01*
X010660Y011686D02*
X010927Y011686D01*
X011120Y011753D02*
X011387Y012020D01*
X011387Y011753D01*
X011320Y011686D01*
X011187Y011686D01*
X011120Y011753D01*
X011120Y012020D01*
X011187Y012086D01*
X011320Y012086D01*
X011387Y012020D01*
X010200Y012020D02*
X010200Y011753D01*
X010006Y011686D02*
X009739Y011686D01*
X083195Y012261D02*
X083195Y009911D01*
X083627Y014361D02*
X083629Y014381D01*
X083634Y014401D01*
X083644Y014419D01*
X083656Y014436D01*
X083671Y014450D01*
X083689Y014460D01*
X083708Y014468D01*
X083728Y014472D01*
X083748Y014472D01*
X083768Y014468D01*
X083787Y014460D01*
X083805Y014450D01*
X083820Y014436D01*
X083832Y014419D01*
X083842Y014401D01*
X083847Y014381D01*
X083849Y014361D01*
X083847Y014341D01*
X083842Y014321D01*
X083832Y014303D01*
X083820Y014286D01*
X083805Y014272D01*
X083787Y014262D01*
X083768Y014254D01*
X083748Y014250D01*
X083728Y014250D01*
X083708Y014254D01*
X083689Y014262D01*
X083671Y014272D01*
X083656Y014286D01*
X083644Y014303D01*
X083634Y014321D01*
X083629Y014341D01*
X083627Y014361D01*
D11*
X072764Y021131D02*
X072177Y021131D01*
X072177Y022012D01*
X072764Y022012D01*
X071751Y022012D02*
X071164Y021425D01*
X071311Y021571D02*
X071751Y021131D01*
X071164Y021131D02*
X071164Y022012D01*
X070783Y022012D02*
X070489Y022012D01*
X070636Y022012D02*
X070636Y021131D01*
X070489Y021131D02*
X070783Y021131D01*
X070063Y021278D02*
X069916Y021131D01*
X069476Y021131D01*
X069476Y022012D01*
X069916Y022012D01*
X070063Y021865D01*
X070063Y021718D01*
X069916Y021571D01*
X069476Y021571D01*
X069916Y021571D02*
X070063Y021425D01*
X070063Y021278D01*
X069094Y021131D02*
X068801Y021131D01*
X068948Y021131D02*
X068948Y022012D01*
X069094Y022012D02*
X068801Y022012D01*
X068375Y022012D02*
X068375Y021131D01*
X067788Y022012D01*
X067788Y021131D01*
X067362Y021131D02*
X067362Y021718D01*
X067069Y022012D01*
X066775Y021718D01*
X066775Y021131D01*
X066775Y021571D02*
X067362Y021571D01*
X072177Y021571D02*
X072471Y021571D01*
D12*
X072438Y020772D02*
X072811Y020772D01*
X072625Y020772D02*
X072625Y020211D01*
X072167Y020304D02*
X072074Y020211D01*
X071793Y020211D01*
X071793Y020772D01*
X072074Y020772D01*
X072167Y020678D01*
X072167Y020585D01*
X072074Y020491D01*
X071793Y020491D01*
X072074Y020491D02*
X072167Y020398D01*
X072167Y020304D01*
X070878Y020678D02*
X070504Y020304D01*
X070504Y020211D01*
X070233Y020398D02*
X070233Y020772D01*
X070504Y020772D02*
X070878Y020772D01*
X070878Y020678D01*
X069860Y020772D02*
X069860Y020398D01*
X070047Y020211D01*
X070233Y020398D01*
X069589Y020585D02*
X069215Y020211D01*
X069589Y020211D01*
X069589Y020585D02*
X069589Y020678D01*
X069495Y020772D01*
X069309Y020772D01*
X069215Y020678D01*
X082995Y020894D02*
X083088Y020801D01*
X083462Y020801D01*
X083555Y020894D01*
X083555Y021081D01*
X083462Y021175D01*
X083088Y021175D01*
X082995Y021081D01*
X082995Y020894D01*
X082995Y021446D02*
X083555Y021819D01*
X082995Y021819D01*
X082995Y021446D02*
X083555Y021446D01*
X087515Y021460D02*
X087515Y021834D01*
X087795Y021647D02*
X087795Y021460D01*
X088075Y021460D02*
X087515Y021460D01*
X087515Y021189D02*
X087515Y020816D01*
X088075Y020816D01*
X087795Y020816D02*
X087795Y021002D01*
X087982Y020545D02*
X087608Y020545D01*
X087515Y020451D01*
X087515Y020264D01*
X087608Y020171D01*
X087982Y020171D01*
X088075Y020264D01*
X088075Y020451D01*
X087982Y020545D01*
D13*
X088383Y016879D02*
X088383Y016733D01*
X088493Y016733D01*
X088456Y016806D01*
X088456Y016843D01*
X088493Y016879D01*
X088566Y016879D01*
X088603Y016843D01*
X088603Y016769D01*
X088566Y016733D01*
X088603Y016658D02*
X088383Y016658D01*
X088383Y016512D02*
X088603Y016658D01*
X088603Y016512D02*
X088383Y016512D01*
X088419Y016437D02*
X088493Y016437D01*
X088529Y016401D01*
X088529Y016291D01*
X088529Y016364D02*
X088603Y016437D01*
X088603Y016291D02*
X088383Y016291D01*
X088383Y016401D01*
X088419Y016437D01*
X090329Y014642D02*
X090331Y014669D01*
X090337Y014696D01*
X090346Y014722D01*
X090359Y014746D01*
X090375Y014769D01*
X090394Y014788D01*
X090416Y014805D01*
X090440Y014819D01*
X090465Y014829D01*
X090492Y014836D01*
X090519Y014839D01*
X090547Y014838D01*
X090574Y014833D01*
X090600Y014825D01*
X090624Y014813D01*
X090647Y014797D01*
X090668Y014779D01*
X090685Y014758D01*
X090700Y014734D01*
X090711Y014709D01*
X090719Y014683D01*
X090723Y014656D01*
X090723Y014628D01*
X090719Y014601D01*
X090711Y014575D01*
X090700Y014550D01*
X090685Y014526D01*
X090668Y014505D01*
X090647Y014487D01*
X090625Y014471D01*
X090600Y014459D01*
X090574Y014451D01*
X090547Y014446D01*
X090519Y014445D01*
X090492Y014448D01*
X090465Y014455D01*
X090440Y014465D01*
X090416Y014479D01*
X090394Y014496D01*
X090375Y014515D01*
X090359Y014538D01*
X090346Y014562D01*
X090337Y014588D01*
X090331Y014615D01*
X090329Y014642D01*
X089253Y012984D02*
X089149Y012881D01*
X089201Y012933D02*
X089046Y013088D01*
X089046Y012984D01*
X088941Y012984D02*
X089097Y012828D01*
X088837Y012880D01*
X088993Y012724D01*
X088941Y012672D02*
X088837Y012672D01*
X088863Y012698D02*
X088785Y012620D01*
X088837Y012568D02*
X088681Y012724D01*
X088759Y012802D01*
X088811Y012802D01*
X088863Y012750D01*
X088863Y012698D01*
X085893Y011227D02*
X085893Y011190D01*
X085857Y011154D01*
X085893Y011117D01*
X085893Y011080D01*
X085857Y011044D01*
X085783Y011044D01*
X085747Y011080D01*
X085672Y011044D02*
X085672Y011264D01*
X085747Y011227D02*
X085783Y011264D01*
X085857Y011264D01*
X085893Y011227D01*
X085857Y011154D02*
X085820Y011154D01*
X085672Y011044D02*
X085526Y011264D01*
X085526Y011044D01*
X085451Y011044D02*
X085378Y011117D01*
X085415Y011117D02*
X085305Y011117D01*
X085305Y011044D02*
X085305Y011264D01*
X085415Y011264D01*
X085451Y011227D01*
X085451Y011154D01*
X085415Y011117D01*
X083181Y009801D02*
X083034Y009801D01*
X083034Y009691D01*
X083108Y009728D01*
X083144Y009728D01*
X083181Y009691D01*
X083181Y009618D01*
X083144Y009581D01*
X083071Y009581D01*
X083034Y009618D01*
X082960Y009618D02*
X082923Y009581D01*
X082850Y009581D01*
X082813Y009618D01*
X082813Y009765D01*
X082850Y009801D01*
X082923Y009801D01*
X082960Y009765D01*
X082739Y009801D02*
X082666Y009801D01*
X082703Y009801D02*
X082703Y009581D01*
X082739Y009581D02*
X082666Y009581D01*
X083815Y007320D02*
X083925Y007210D01*
X083925Y007357D01*
X084035Y007320D02*
X083815Y007320D01*
X083852Y007136D02*
X083815Y007099D01*
X083815Y006989D01*
X084035Y006989D01*
X084035Y007099D01*
X083999Y007136D01*
X083852Y007136D01*
X081135Y007099D02*
X081099Y007136D01*
X080952Y007136D01*
X080915Y007099D01*
X080915Y006989D01*
X081135Y006989D01*
X081135Y007099D01*
X081099Y007210D02*
X081135Y007247D01*
X081135Y007320D01*
X081099Y007357D01*
X081025Y007357D01*
X080988Y007320D01*
X080988Y007284D01*
X081025Y007210D01*
X080915Y007210D01*
X080915Y007357D01*
X078235Y007320D02*
X078199Y007357D01*
X078162Y007357D01*
X078125Y007320D01*
X078125Y007210D01*
X078199Y007210D01*
X078235Y007247D01*
X078235Y007320D01*
X078125Y007210D02*
X078052Y007284D01*
X078015Y007357D01*
X078052Y007136D02*
X078015Y007099D01*
X078015Y006989D01*
X078235Y006989D01*
X078235Y007099D01*
X078199Y007136D01*
X078052Y007136D01*
X075335Y007099D02*
X075299Y007136D01*
X075152Y007136D01*
X075115Y007099D01*
X075115Y006989D01*
X075335Y006989D01*
X075335Y007099D01*
X075335Y007210D02*
X075299Y007210D01*
X075152Y007357D01*
X075115Y007357D01*
X075115Y007210D01*
X072435Y007257D02*
X072399Y007220D01*
X072362Y007220D01*
X072325Y007257D01*
X072325Y007330D01*
X072362Y007367D01*
X072399Y007367D01*
X072435Y007330D01*
X072435Y007257D01*
X072325Y007257D02*
X072288Y007220D01*
X072252Y007220D01*
X072215Y007257D01*
X072215Y007330D01*
X072252Y007367D01*
X072288Y007367D01*
X072325Y007330D01*
X072252Y007146D02*
X072215Y007109D01*
X072215Y006999D01*
X072435Y006999D01*
X072435Y007109D01*
X072399Y007146D01*
X072252Y007146D01*
X069535Y007099D02*
X069499Y007136D01*
X069352Y007136D01*
X069315Y007099D01*
X069315Y006989D01*
X069535Y006989D01*
X069535Y007099D01*
X069499Y007210D02*
X069535Y007247D01*
X069535Y007320D01*
X069499Y007357D01*
X069352Y007357D01*
X069315Y007320D01*
X069315Y007247D01*
X069352Y007210D01*
X069388Y007210D01*
X069425Y007247D01*
X069425Y007357D01*
X066635Y007320D02*
X066635Y007247D01*
X066599Y007210D01*
X066452Y007357D01*
X066599Y007357D01*
X066635Y007320D01*
X066599Y007210D02*
X066452Y007210D01*
X066415Y007247D01*
X066415Y007320D01*
X066452Y007357D01*
X066635Y007136D02*
X066635Y006989D01*
X066635Y007063D02*
X066415Y007063D01*
X066488Y006989D01*
X066452Y006915D02*
X066415Y006878D01*
X066415Y006768D01*
X066635Y006768D01*
X066635Y006878D01*
X066599Y006915D01*
X066452Y006915D01*
X063735Y006878D02*
X063699Y006915D01*
X063552Y006915D01*
X063515Y006878D01*
X063515Y006768D01*
X063735Y006768D01*
X063735Y006878D01*
X063735Y006989D02*
X063735Y007136D01*
X063735Y007063D02*
X063515Y007063D01*
X063588Y006989D01*
X063588Y007210D02*
X063515Y007284D01*
X063735Y007284D01*
X063735Y007357D02*
X063735Y007210D01*
X060835Y007210D02*
X060688Y007357D01*
X060652Y007357D01*
X060615Y007320D01*
X060615Y007247D01*
X060652Y007210D01*
X060615Y007063D02*
X060835Y007063D01*
X060835Y007136D02*
X060835Y006989D01*
X060799Y006915D02*
X060652Y006915D01*
X060615Y006878D01*
X060615Y006768D01*
X060835Y006768D01*
X060835Y006878D01*
X060799Y006915D01*
X060688Y006989D02*
X060615Y007063D01*
X060835Y007210D02*
X060835Y007357D01*
X057935Y007320D02*
X057935Y007247D01*
X057899Y007210D01*
X057935Y007136D02*
X057935Y006989D01*
X057935Y007063D02*
X057715Y007063D01*
X057788Y006989D01*
X057752Y006915D02*
X057715Y006878D01*
X057715Y006768D01*
X057935Y006768D01*
X057935Y006878D01*
X057899Y006915D01*
X057752Y006915D01*
X057752Y007210D02*
X057715Y007247D01*
X057715Y007320D01*
X057752Y007357D01*
X057788Y007357D01*
X057825Y007320D01*
X057862Y007357D01*
X057899Y007357D01*
X057935Y007320D01*
X057825Y007320D02*
X057825Y007284D01*
X055035Y007320D02*
X054815Y007320D01*
X054925Y007210D01*
X054925Y007357D01*
X055035Y007136D02*
X055035Y006989D01*
X055035Y007063D02*
X054815Y007063D01*
X054888Y006989D01*
X054852Y006915D02*
X054815Y006878D01*
X054815Y006768D01*
X055035Y006768D01*
X055035Y006878D01*
X054999Y006915D01*
X054852Y006915D01*
X052035Y006878D02*
X051999Y006915D01*
X051852Y006915D01*
X051815Y006878D01*
X051815Y006768D01*
X052035Y006768D01*
X052035Y006878D01*
X052035Y006989D02*
X052035Y007136D01*
X052035Y007063D02*
X051815Y007063D01*
X051888Y006989D01*
X051925Y007210D02*
X051888Y007284D01*
X051888Y007320D01*
X051925Y007357D01*
X051999Y007357D01*
X052035Y007320D01*
X052035Y007247D01*
X051999Y007210D01*
X051925Y007210D02*
X051815Y007210D01*
X051815Y007357D01*
X049135Y007320D02*
X049099Y007357D01*
X049062Y007357D01*
X049025Y007320D01*
X049025Y007210D01*
X049099Y007210D01*
X049135Y007247D01*
X049135Y007320D01*
X049025Y007210D02*
X048952Y007284D01*
X048915Y007357D01*
X048915Y007063D02*
X049135Y007063D01*
X049135Y007136D02*
X049135Y006989D01*
X049099Y006915D02*
X048952Y006915D01*
X048915Y006878D01*
X048915Y006768D01*
X049135Y006768D01*
X049135Y006878D01*
X049099Y006915D01*
X048988Y006989D02*
X048915Y007063D01*
X046235Y007063D02*
X046015Y007063D01*
X046088Y006989D01*
X046052Y006915D02*
X046015Y006878D01*
X046015Y006768D01*
X046235Y006768D01*
X046235Y006878D01*
X046199Y006915D01*
X046052Y006915D01*
X046235Y006989D02*
X046235Y007136D01*
X046235Y007210D02*
X046199Y007210D01*
X046052Y007357D01*
X046015Y007357D01*
X046015Y007210D01*
X043435Y007247D02*
X043399Y007210D01*
X043362Y007210D01*
X043325Y007247D01*
X043325Y007320D01*
X043362Y007357D01*
X043399Y007357D01*
X043435Y007320D01*
X043435Y007247D01*
X043325Y007247D02*
X043288Y007210D01*
X043252Y007210D01*
X043215Y007247D01*
X043215Y007320D01*
X043252Y007357D01*
X043288Y007357D01*
X043325Y007320D01*
X043435Y007136D02*
X043435Y006989D01*
X043435Y007063D02*
X043215Y007063D01*
X043288Y006989D01*
X043252Y006915D02*
X043215Y006878D01*
X043215Y006768D01*
X043435Y006768D01*
X043435Y006878D01*
X043399Y006915D01*
X043252Y006915D01*
X040535Y006878D02*
X040499Y006915D01*
X040352Y006915D01*
X040315Y006878D01*
X040315Y006768D01*
X040535Y006768D01*
X040535Y006878D01*
X040535Y006989D02*
X040535Y007136D01*
X040535Y007063D02*
X040315Y007063D01*
X040388Y006989D01*
X040388Y007210D02*
X040425Y007247D01*
X040425Y007357D01*
X040352Y007357D02*
X040315Y007320D01*
X040315Y007247D01*
X040352Y007210D01*
X040388Y007210D01*
X040499Y007210D02*
X040535Y007247D01*
X040535Y007320D01*
X040499Y007357D01*
X040352Y007357D01*
X037635Y007320D02*
X037635Y007247D01*
X037599Y007210D01*
X037452Y007357D01*
X037599Y007357D01*
X037635Y007320D01*
X037599Y007210D02*
X037452Y007210D01*
X037415Y007247D01*
X037415Y007320D01*
X037452Y007357D01*
X037452Y007136D02*
X037415Y007099D01*
X037415Y007026D01*
X037452Y006989D01*
X037452Y006915D02*
X037415Y006878D01*
X037415Y006768D01*
X037635Y006768D01*
X037635Y006878D01*
X037599Y006915D01*
X037452Y006915D01*
X037635Y006989D02*
X037488Y007136D01*
X037452Y007136D01*
X037635Y007136D02*
X037635Y006989D01*
X034735Y006989D02*
X034588Y007136D01*
X034552Y007136D01*
X034515Y007099D01*
X034515Y007026D01*
X034552Y006989D01*
X034552Y006915D02*
X034515Y006878D01*
X034515Y006768D01*
X034735Y006768D01*
X034735Y006878D01*
X034699Y006915D01*
X034552Y006915D01*
X034735Y006989D02*
X034735Y007136D01*
X034735Y007210D02*
X034735Y007357D01*
X034735Y007284D02*
X034515Y007284D01*
X034588Y007210D01*
X031835Y007210D02*
X031688Y007357D01*
X031652Y007357D01*
X031615Y007320D01*
X031615Y007247D01*
X031652Y007210D01*
X031652Y007136D02*
X031615Y007099D01*
X031615Y007026D01*
X031652Y006989D01*
X031652Y006915D02*
X031615Y006878D01*
X031615Y006768D01*
X031835Y006768D01*
X031835Y006878D01*
X031799Y006915D01*
X031652Y006915D01*
X031835Y006989D02*
X031688Y007136D01*
X031652Y007136D01*
X031835Y007136D02*
X031835Y006989D01*
X031835Y007210D02*
X031835Y007357D01*
X028935Y007320D02*
X028935Y007247D01*
X028899Y007210D01*
X028935Y007136D02*
X028935Y006989D01*
X028788Y007136D01*
X028752Y007136D01*
X028715Y007099D01*
X028715Y007026D01*
X028752Y006989D01*
X028752Y006915D02*
X028715Y006878D01*
X028715Y006768D01*
X028935Y006768D01*
X028935Y006878D01*
X028899Y006915D01*
X028752Y006915D01*
X028752Y007210D02*
X028715Y007247D01*
X028715Y007320D01*
X028752Y007357D01*
X028788Y007357D01*
X028825Y007320D01*
X028862Y007357D01*
X028899Y007357D01*
X028935Y007320D01*
X028825Y007320D02*
X028825Y007284D01*
X026035Y007320D02*
X025815Y007320D01*
X025925Y007210D01*
X025925Y007357D01*
X025888Y007136D02*
X025852Y007136D01*
X025815Y007099D01*
X025815Y007026D01*
X025852Y006989D01*
X025852Y006915D02*
X025815Y006878D01*
X025815Y006768D01*
X026035Y006768D01*
X026035Y006878D01*
X025999Y006915D01*
X025852Y006915D01*
X026035Y006989D02*
X025888Y007136D01*
X026035Y007136D02*
X026035Y006989D01*
X023135Y006989D02*
X022988Y007136D01*
X022952Y007136D01*
X022915Y007099D01*
X022915Y007026D01*
X022952Y006989D01*
X022952Y006915D02*
X022915Y006878D01*
X022915Y006768D01*
X023135Y006768D01*
X023135Y006878D01*
X023099Y006915D01*
X022952Y006915D01*
X023135Y006989D02*
X023135Y007136D01*
X023099Y007210D02*
X023135Y007247D01*
X023135Y007320D01*
X023099Y007357D01*
X023025Y007357D01*
X022988Y007320D01*
X022988Y007284D01*
X023025Y007210D01*
X022915Y007210D01*
X022915Y007357D01*
X020235Y007320D02*
X020199Y007357D01*
X020162Y007357D01*
X020125Y007320D01*
X020125Y007210D01*
X020199Y007210D01*
X020235Y007247D01*
X020235Y007320D01*
X020125Y007210D02*
X020052Y007284D01*
X020015Y007357D01*
X020052Y007136D02*
X020015Y007099D01*
X020015Y007026D01*
X020052Y006989D01*
X020052Y006915D02*
X020015Y006878D01*
X020015Y006768D01*
X020235Y006768D01*
X020235Y006878D01*
X020199Y006915D01*
X020052Y006915D01*
X020235Y006989D02*
X020088Y007136D01*
X020052Y007136D01*
X020235Y007136D02*
X020235Y006989D01*
X017335Y006989D02*
X017188Y007136D01*
X017152Y007136D01*
X017115Y007099D01*
X017115Y007026D01*
X017152Y006989D01*
X017152Y006915D02*
X017115Y006878D01*
X017115Y006768D01*
X017335Y006768D01*
X017335Y006878D01*
X017299Y006915D01*
X017152Y006915D01*
X017335Y006989D02*
X017335Y007136D01*
X017335Y007210D02*
X017299Y007210D01*
X017152Y007357D01*
X017115Y007357D01*
X017115Y007210D01*
X014435Y007247D02*
X014399Y007210D01*
X014362Y007210D01*
X014325Y007247D01*
X014325Y007320D01*
X014362Y007357D01*
X014399Y007357D01*
X014435Y007320D01*
X014435Y007247D01*
X014325Y007247D02*
X014288Y007210D01*
X014252Y007210D01*
X014215Y007247D01*
X014215Y007320D01*
X014252Y007357D01*
X014288Y007357D01*
X014325Y007320D01*
X014288Y007136D02*
X014252Y007136D01*
X014215Y007099D01*
X014215Y007026D01*
X014252Y006989D01*
X014252Y006915D02*
X014215Y006878D01*
X014215Y006768D01*
X014435Y006768D01*
X014435Y006878D01*
X014399Y006915D01*
X014252Y006915D01*
X014435Y006989D02*
X014288Y007136D01*
X014435Y007136D02*
X014435Y006989D01*
X011535Y006989D02*
X011388Y007136D01*
X011352Y007136D01*
X011315Y007099D01*
X011315Y007026D01*
X011352Y006989D01*
X011352Y006915D02*
X011315Y006878D01*
X011315Y006768D01*
X011535Y006768D01*
X011535Y006878D01*
X011499Y006915D01*
X011352Y006915D01*
X011535Y006989D02*
X011535Y007136D01*
X011499Y007210D02*
X011535Y007247D01*
X011535Y007320D01*
X011499Y007357D01*
X011352Y007357D01*
X011315Y007320D01*
X011315Y007247D01*
X011352Y007210D01*
X011388Y007210D01*
X011425Y007247D01*
X011425Y007357D01*
X008635Y007320D02*
X008635Y007247D01*
X008599Y007210D01*
X008452Y007357D01*
X008599Y007357D01*
X008635Y007320D01*
X008599Y007210D02*
X008452Y007210D01*
X008415Y007247D01*
X008415Y007320D01*
X008452Y007357D01*
X008452Y007136D02*
X008488Y007136D01*
X008525Y007099D01*
X008562Y007136D01*
X008599Y007136D01*
X008635Y007099D01*
X008635Y007026D01*
X008599Y006989D01*
X008599Y006915D02*
X008452Y006915D01*
X008415Y006878D01*
X008415Y006768D01*
X008635Y006768D01*
X008635Y006878D01*
X008599Y006915D01*
X008452Y006989D02*
X008415Y007026D01*
X008415Y007099D01*
X008452Y007136D01*
X008525Y007099D02*
X008525Y007063D01*
X005735Y007099D02*
X005735Y007026D01*
X005699Y006989D01*
X005699Y006915D02*
X005552Y006915D01*
X005515Y006878D01*
X005515Y006768D01*
X005735Y006768D01*
X005735Y006878D01*
X005699Y006915D01*
X005552Y006989D02*
X005515Y007026D01*
X005515Y007099D01*
X005552Y007136D01*
X005588Y007136D01*
X005625Y007099D01*
X005662Y007136D01*
X005699Y007136D01*
X005735Y007099D01*
X005625Y007099D02*
X005625Y007063D01*
X005588Y007210D02*
X005515Y007284D01*
X005735Y007284D01*
X005735Y007357D02*
X005735Y007210D01*
X002835Y007210D02*
X002688Y007357D01*
X002652Y007357D01*
X002615Y007320D01*
X002615Y007247D01*
X002652Y007210D01*
X002652Y007136D02*
X002688Y007136D01*
X002725Y007099D01*
X002762Y007136D01*
X002799Y007136D01*
X002835Y007099D01*
X002835Y007026D01*
X002799Y006989D01*
X002799Y006915D02*
X002652Y006915D01*
X002615Y006878D01*
X002615Y006768D01*
X002835Y006768D01*
X002835Y006878D01*
X002799Y006915D01*
X002652Y006989D02*
X002615Y007026D01*
X002615Y007099D01*
X002652Y007136D01*
X002725Y007099D02*
X002725Y007063D01*
X002835Y007210D02*
X002835Y007357D01*
X018682Y011680D02*
X018756Y011680D01*
X018719Y011680D02*
X018719Y011901D01*
X018682Y011901D02*
X018756Y011901D01*
X018829Y011864D02*
X018829Y011717D01*
X018866Y011680D01*
X018940Y011680D01*
X018976Y011717D01*
X019050Y011790D02*
X019197Y011790D01*
X019161Y011680D02*
X019161Y011901D01*
X019050Y011790D01*
X018976Y011864D02*
X018940Y011901D01*
X018866Y011901D01*
X018829Y011864D01*
X080065Y016350D02*
X080139Y016350D01*
X080102Y016350D02*
X080102Y016570D01*
X080065Y016570D02*
X080139Y016570D01*
X080212Y016533D02*
X080212Y016387D01*
X080249Y016350D01*
X080323Y016350D01*
X080359Y016387D01*
X080433Y016350D02*
X080580Y016350D01*
X080507Y016350D02*
X080507Y016570D01*
X080433Y016497D01*
X080359Y016533D02*
X080323Y016570D01*
X080249Y016570D01*
X080212Y016533D01*
X086752Y007357D02*
X086788Y007357D01*
X086825Y007320D01*
X086862Y007357D01*
X086899Y007357D01*
X086935Y007320D01*
X086935Y007247D01*
X086899Y007210D01*
X086899Y007136D02*
X086752Y007136D01*
X086715Y007099D01*
X086715Y006989D01*
X086935Y006989D01*
X086935Y007099D01*
X086899Y007136D01*
X086752Y007210D02*
X086715Y007247D01*
X086715Y007320D01*
X086752Y007357D01*
X086825Y007320D02*
X086825Y007284D01*
X089615Y007320D02*
X089615Y007247D01*
X089652Y007210D01*
X089652Y007136D02*
X089615Y007099D01*
X089615Y006989D01*
X089835Y006989D01*
X089835Y007099D01*
X089799Y007136D01*
X089652Y007136D01*
X089615Y007320D02*
X089652Y007357D01*
X089688Y007357D01*
X089835Y007210D01*
X089835Y007357D01*
X092515Y007284D02*
X092588Y007210D01*
X092552Y007136D02*
X092515Y007099D01*
X092515Y006989D01*
X092735Y006989D01*
X092735Y007099D01*
X092699Y007136D01*
X092552Y007136D01*
X092515Y007284D02*
X092735Y007284D01*
X092735Y007357D02*
X092735Y007210D01*
D14*
X001175Y006309D02*
X001057Y006427D01*
X001057Y006447D01*
X001195Y006447D01*
X001195Y006329D01*
X001097Y006427D01*
X001136Y006427D01*
X001156Y006408D01*
X001156Y006427D01*
X001057Y006447D02*
X001057Y007333D01*
X001097Y007372D01*
X001215Y007372D01*
X001726Y007372D02*
X001884Y007372D01*
X002396Y007372D02*
X002474Y007372D01*
X002514Y007333D01*
X002514Y006349D01*
X002474Y006309D01*
X002396Y006309D01*
X001884Y006309D02*
X001687Y006309D01*
X001466Y006821D02*
X001468Y006856D01*
X001474Y006891D01*
X001483Y006925D01*
X001497Y006958D01*
X001513Y006989D01*
X001533Y007018D01*
X001557Y007044D01*
X001583Y007068D01*
X001611Y007089D01*
X001642Y007107D01*
X001674Y007121D01*
X001707Y007131D01*
X001742Y007138D01*
X001777Y007141D01*
X001812Y007140D01*
X001847Y007135D01*
X001882Y007126D01*
X001915Y007114D01*
X001946Y007098D01*
X001976Y007079D01*
X002003Y007056D01*
X002027Y007031D01*
X002049Y007003D01*
X002067Y006973D01*
X002082Y006941D01*
X002094Y006908D01*
X002102Y006874D01*
X002106Y006839D01*
X002106Y006803D01*
X002102Y006768D01*
X002094Y006734D01*
X002082Y006701D01*
X002067Y006669D01*
X002049Y006639D01*
X002027Y006611D01*
X002003Y006586D01*
X001976Y006563D01*
X001946Y006544D01*
X001915Y006528D01*
X001882Y006516D01*
X001847Y006507D01*
X001812Y006502D01*
X001777Y006501D01*
X001742Y006504D01*
X001707Y006511D01*
X001674Y006521D01*
X001642Y006535D01*
X001611Y006553D01*
X001583Y006574D01*
X001557Y006598D01*
X001533Y006624D01*
X001513Y006653D01*
X001497Y006684D01*
X001483Y006717D01*
X001474Y006751D01*
X001468Y006786D01*
X001466Y006821D01*
X003957Y006447D02*
X004095Y006447D01*
X004095Y006329D01*
X003997Y006427D01*
X004036Y006427D01*
X004056Y006408D01*
X004056Y006427D01*
X003957Y006427D02*
X004075Y006309D01*
X003957Y006427D02*
X003957Y006447D01*
X003957Y007333D01*
X003997Y007372D01*
X004115Y007372D01*
X004626Y007372D02*
X004784Y007372D01*
X005296Y007372D02*
X005374Y007372D01*
X005414Y007333D01*
X005414Y006349D01*
X005374Y006309D01*
X005296Y006309D01*
X004784Y006309D02*
X004587Y006309D01*
X004366Y006821D02*
X004368Y006856D01*
X004374Y006891D01*
X004383Y006925D01*
X004397Y006958D01*
X004413Y006989D01*
X004433Y007018D01*
X004457Y007044D01*
X004483Y007068D01*
X004511Y007089D01*
X004542Y007107D01*
X004574Y007121D01*
X004607Y007131D01*
X004642Y007138D01*
X004677Y007141D01*
X004712Y007140D01*
X004747Y007135D01*
X004782Y007126D01*
X004815Y007114D01*
X004846Y007098D01*
X004876Y007079D01*
X004903Y007056D01*
X004927Y007031D01*
X004949Y007003D01*
X004967Y006973D01*
X004982Y006941D01*
X004994Y006908D01*
X005002Y006874D01*
X005006Y006839D01*
X005006Y006803D01*
X005002Y006768D01*
X004994Y006734D01*
X004982Y006701D01*
X004967Y006669D01*
X004949Y006639D01*
X004927Y006611D01*
X004903Y006586D01*
X004876Y006563D01*
X004846Y006544D01*
X004815Y006528D01*
X004782Y006516D01*
X004747Y006507D01*
X004712Y006502D01*
X004677Y006501D01*
X004642Y006504D01*
X004607Y006511D01*
X004574Y006521D01*
X004542Y006535D01*
X004511Y006553D01*
X004483Y006574D01*
X004457Y006598D01*
X004433Y006624D01*
X004413Y006653D01*
X004397Y006684D01*
X004383Y006717D01*
X004374Y006751D01*
X004368Y006786D01*
X004366Y006821D01*
X006857Y006447D02*
X006995Y006447D01*
X006995Y006329D01*
X006897Y006427D01*
X006936Y006427D01*
X006956Y006408D01*
X006956Y006427D01*
X006857Y006427D02*
X006975Y006309D01*
X006857Y006427D02*
X006857Y006447D01*
X006857Y007333D01*
X006897Y007372D01*
X007015Y007372D01*
X007526Y007372D02*
X007684Y007372D01*
X008196Y007372D02*
X008274Y007372D01*
X008314Y007333D01*
X008314Y006349D01*
X008274Y006309D01*
X008196Y006309D01*
X007684Y006309D02*
X007487Y006309D01*
X007266Y006821D02*
X007268Y006856D01*
X007274Y006891D01*
X007283Y006925D01*
X007297Y006958D01*
X007313Y006989D01*
X007333Y007018D01*
X007357Y007044D01*
X007383Y007068D01*
X007411Y007089D01*
X007442Y007107D01*
X007474Y007121D01*
X007507Y007131D01*
X007542Y007138D01*
X007577Y007141D01*
X007612Y007140D01*
X007647Y007135D01*
X007682Y007126D01*
X007715Y007114D01*
X007746Y007098D01*
X007776Y007079D01*
X007803Y007056D01*
X007827Y007031D01*
X007849Y007003D01*
X007867Y006973D01*
X007882Y006941D01*
X007894Y006908D01*
X007902Y006874D01*
X007906Y006839D01*
X007906Y006803D01*
X007902Y006768D01*
X007894Y006734D01*
X007882Y006701D01*
X007867Y006669D01*
X007849Y006639D01*
X007827Y006611D01*
X007803Y006586D01*
X007776Y006563D01*
X007746Y006544D01*
X007715Y006528D01*
X007682Y006516D01*
X007647Y006507D01*
X007612Y006502D01*
X007577Y006501D01*
X007542Y006504D01*
X007507Y006511D01*
X007474Y006521D01*
X007442Y006535D01*
X007411Y006553D01*
X007383Y006574D01*
X007357Y006598D01*
X007333Y006624D01*
X007313Y006653D01*
X007297Y006684D01*
X007283Y006717D01*
X007274Y006751D01*
X007268Y006786D01*
X007266Y006821D01*
X009757Y006447D02*
X009895Y006447D01*
X009895Y006329D01*
X009797Y006427D01*
X009836Y006427D01*
X009856Y006408D01*
X009856Y006427D01*
X009757Y006427D02*
X009875Y006309D01*
X009757Y006427D02*
X009757Y006447D01*
X009757Y007333D01*
X009797Y007372D01*
X009915Y007372D01*
X010426Y007372D02*
X010584Y007372D01*
X011096Y007372D02*
X011174Y007372D01*
X011214Y007333D01*
X011214Y006349D01*
X011174Y006309D01*
X011096Y006309D01*
X010584Y006309D02*
X010387Y006309D01*
X010166Y006821D02*
X010168Y006856D01*
X010174Y006891D01*
X010183Y006925D01*
X010197Y006958D01*
X010213Y006989D01*
X010233Y007018D01*
X010257Y007044D01*
X010283Y007068D01*
X010311Y007089D01*
X010342Y007107D01*
X010374Y007121D01*
X010407Y007131D01*
X010442Y007138D01*
X010477Y007141D01*
X010512Y007140D01*
X010547Y007135D01*
X010582Y007126D01*
X010615Y007114D01*
X010646Y007098D01*
X010676Y007079D01*
X010703Y007056D01*
X010727Y007031D01*
X010749Y007003D01*
X010767Y006973D01*
X010782Y006941D01*
X010794Y006908D01*
X010802Y006874D01*
X010806Y006839D01*
X010806Y006803D01*
X010802Y006768D01*
X010794Y006734D01*
X010782Y006701D01*
X010767Y006669D01*
X010749Y006639D01*
X010727Y006611D01*
X010703Y006586D01*
X010676Y006563D01*
X010646Y006544D01*
X010615Y006528D01*
X010582Y006516D01*
X010547Y006507D01*
X010512Y006502D01*
X010477Y006501D01*
X010442Y006504D01*
X010407Y006511D01*
X010374Y006521D01*
X010342Y006535D01*
X010311Y006553D01*
X010283Y006574D01*
X010257Y006598D01*
X010233Y006624D01*
X010213Y006653D01*
X010197Y006684D01*
X010183Y006717D01*
X010174Y006751D01*
X010168Y006786D01*
X010166Y006821D01*
X012657Y006447D02*
X012795Y006447D01*
X012795Y006329D01*
X012697Y006427D01*
X012736Y006427D01*
X012756Y006408D01*
X012756Y006427D01*
X012657Y006427D02*
X012775Y006309D01*
X012657Y006427D02*
X012657Y006447D01*
X012657Y007333D01*
X012697Y007372D01*
X012815Y007372D01*
X013326Y007372D02*
X013484Y007372D01*
X013996Y007372D02*
X014074Y007372D01*
X014114Y007333D01*
X014114Y006349D01*
X014074Y006309D01*
X013996Y006309D01*
X013484Y006309D02*
X013287Y006309D01*
X013066Y006821D02*
X013068Y006856D01*
X013074Y006891D01*
X013083Y006925D01*
X013097Y006958D01*
X013113Y006989D01*
X013133Y007018D01*
X013157Y007044D01*
X013183Y007068D01*
X013211Y007089D01*
X013242Y007107D01*
X013274Y007121D01*
X013307Y007131D01*
X013342Y007138D01*
X013377Y007141D01*
X013412Y007140D01*
X013447Y007135D01*
X013482Y007126D01*
X013515Y007114D01*
X013546Y007098D01*
X013576Y007079D01*
X013603Y007056D01*
X013627Y007031D01*
X013649Y007003D01*
X013667Y006973D01*
X013682Y006941D01*
X013694Y006908D01*
X013702Y006874D01*
X013706Y006839D01*
X013706Y006803D01*
X013702Y006768D01*
X013694Y006734D01*
X013682Y006701D01*
X013667Y006669D01*
X013649Y006639D01*
X013627Y006611D01*
X013603Y006586D01*
X013576Y006563D01*
X013546Y006544D01*
X013515Y006528D01*
X013482Y006516D01*
X013447Y006507D01*
X013412Y006502D01*
X013377Y006501D01*
X013342Y006504D01*
X013307Y006511D01*
X013274Y006521D01*
X013242Y006535D01*
X013211Y006553D01*
X013183Y006574D01*
X013157Y006598D01*
X013133Y006624D01*
X013113Y006653D01*
X013097Y006684D01*
X013083Y006717D01*
X013074Y006751D01*
X013068Y006786D01*
X013066Y006821D01*
X015557Y006447D02*
X015695Y006447D01*
X015695Y006329D01*
X015597Y006427D01*
X015636Y006427D01*
X015656Y006408D01*
X015656Y006427D01*
X015557Y006427D02*
X015675Y006309D01*
X015557Y006427D02*
X015557Y006447D01*
X015557Y007333D01*
X015597Y007372D01*
X015715Y007372D01*
X016226Y007372D02*
X016384Y007372D01*
X016896Y007372D02*
X016974Y007372D01*
X017014Y007333D01*
X017014Y006349D01*
X016974Y006309D01*
X016896Y006309D01*
X016384Y006309D02*
X016187Y006309D01*
X015966Y006821D02*
X015968Y006856D01*
X015974Y006891D01*
X015983Y006925D01*
X015997Y006958D01*
X016013Y006989D01*
X016033Y007018D01*
X016057Y007044D01*
X016083Y007068D01*
X016111Y007089D01*
X016142Y007107D01*
X016174Y007121D01*
X016207Y007131D01*
X016242Y007138D01*
X016277Y007141D01*
X016312Y007140D01*
X016347Y007135D01*
X016382Y007126D01*
X016415Y007114D01*
X016446Y007098D01*
X016476Y007079D01*
X016503Y007056D01*
X016527Y007031D01*
X016549Y007003D01*
X016567Y006973D01*
X016582Y006941D01*
X016594Y006908D01*
X016602Y006874D01*
X016606Y006839D01*
X016606Y006803D01*
X016602Y006768D01*
X016594Y006734D01*
X016582Y006701D01*
X016567Y006669D01*
X016549Y006639D01*
X016527Y006611D01*
X016503Y006586D01*
X016476Y006563D01*
X016446Y006544D01*
X016415Y006528D01*
X016382Y006516D01*
X016347Y006507D01*
X016312Y006502D01*
X016277Y006501D01*
X016242Y006504D01*
X016207Y006511D01*
X016174Y006521D01*
X016142Y006535D01*
X016111Y006553D01*
X016083Y006574D01*
X016057Y006598D01*
X016033Y006624D01*
X016013Y006653D01*
X015997Y006684D01*
X015983Y006717D01*
X015974Y006751D01*
X015968Y006786D01*
X015966Y006821D01*
X018457Y006447D02*
X018595Y006447D01*
X018595Y006329D01*
X018497Y006427D01*
X018536Y006427D01*
X018556Y006408D01*
X018556Y006427D01*
X018457Y006427D02*
X018575Y006309D01*
X018457Y006427D02*
X018457Y006447D01*
X018457Y007333D01*
X018497Y007372D01*
X018615Y007372D01*
X019126Y007372D02*
X019284Y007372D01*
X019796Y007372D02*
X019874Y007372D01*
X019914Y007333D01*
X019914Y006349D01*
X019874Y006309D01*
X019796Y006309D01*
X019284Y006309D02*
X019087Y006309D01*
X018866Y006821D02*
X018868Y006856D01*
X018874Y006891D01*
X018883Y006925D01*
X018897Y006958D01*
X018913Y006989D01*
X018933Y007018D01*
X018957Y007044D01*
X018983Y007068D01*
X019011Y007089D01*
X019042Y007107D01*
X019074Y007121D01*
X019107Y007131D01*
X019142Y007138D01*
X019177Y007141D01*
X019212Y007140D01*
X019247Y007135D01*
X019282Y007126D01*
X019315Y007114D01*
X019346Y007098D01*
X019376Y007079D01*
X019403Y007056D01*
X019427Y007031D01*
X019449Y007003D01*
X019467Y006973D01*
X019482Y006941D01*
X019494Y006908D01*
X019502Y006874D01*
X019506Y006839D01*
X019506Y006803D01*
X019502Y006768D01*
X019494Y006734D01*
X019482Y006701D01*
X019467Y006669D01*
X019449Y006639D01*
X019427Y006611D01*
X019403Y006586D01*
X019376Y006563D01*
X019346Y006544D01*
X019315Y006528D01*
X019282Y006516D01*
X019247Y006507D01*
X019212Y006502D01*
X019177Y006501D01*
X019142Y006504D01*
X019107Y006511D01*
X019074Y006521D01*
X019042Y006535D01*
X019011Y006553D01*
X018983Y006574D01*
X018957Y006598D01*
X018933Y006624D01*
X018913Y006653D01*
X018897Y006684D01*
X018883Y006717D01*
X018874Y006751D01*
X018868Y006786D01*
X018866Y006821D01*
X021357Y006447D02*
X021495Y006447D01*
X021495Y006329D01*
X021397Y006427D01*
X021436Y006427D01*
X021456Y006408D01*
X021456Y006427D01*
X021357Y006427D02*
X021475Y006309D01*
X021357Y006427D02*
X021357Y006447D01*
X021357Y007333D01*
X021397Y007372D01*
X021515Y007372D01*
X022026Y007372D02*
X022184Y007372D01*
X022696Y007372D02*
X022774Y007372D01*
X022814Y007333D01*
X022814Y006349D01*
X022774Y006309D01*
X022696Y006309D01*
X022184Y006309D02*
X021987Y006309D01*
X021766Y006821D02*
X021768Y006856D01*
X021774Y006891D01*
X021783Y006925D01*
X021797Y006958D01*
X021813Y006989D01*
X021833Y007018D01*
X021857Y007044D01*
X021883Y007068D01*
X021911Y007089D01*
X021942Y007107D01*
X021974Y007121D01*
X022007Y007131D01*
X022042Y007138D01*
X022077Y007141D01*
X022112Y007140D01*
X022147Y007135D01*
X022182Y007126D01*
X022215Y007114D01*
X022246Y007098D01*
X022276Y007079D01*
X022303Y007056D01*
X022327Y007031D01*
X022349Y007003D01*
X022367Y006973D01*
X022382Y006941D01*
X022394Y006908D01*
X022402Y006874D01*
X022406Y006839D01*
X022406Y006803D01*
X022402Y006768D01*
X022394Y006734D01*
X022382Y006701D01*
X022367Y006669D01*
X022349Y006639D01*
X022327Y006611D01*
X022303Y006586D01*
X022276Y006563D01*
X022246Y006544D01*
X022215Y006528D01*
X022182Y006516D01*
X022147Y006507D01*
X022112Y006502D01*
X022077Y006501D01*
X022042Y006504D01*
X022007Y006511D01*
X021974Y006521D01*
X021942Y006535D01*
X021911Y006553D01*
X021883Y006574D01*
X021857Y006598D01*
X021833Y006624D01*
X021813Y006653D01*
X021797Y006684D01*
X021783Y006717D01*
X021774Y006751D01*
X021768Y006786D01*
X021766Y006821D01*
X024257Y006447D02*
X024395Y006447D01*
X024395Y006329D01*
X024297Y006427D01*
X024336Y006427D01*
X024356Y006408D01*
X024356Y006427D01*
X024257Y006427D02*
X024375Y006309D01*
X024257Y006427D02*
X024257Y006447D01*
X024257Y007333D01*
X024297Y007372D01*
X024415Y007372D01*
X024926Y007372D02*
X025084Y007372D01*
X025596Y007372D02*
X025674Y007372D01*
X025714Y007333D01*
X025714Y006349D01*
X025674Y006309D01*
X025596Y006309D01*
X025084Y006309D02*
X024887Y006309D01*
X024666Y006821D02*
X024668Y006856D01*
X024674Y006891D01*
X024683Y006925D01*
X024697Y006958D01*
X024713Y006989D01*
X024733Y007018D01*
X024757Y007044D01*
X024783Y007068D01*
X024811Y007089D01*
X024842Y007107D01*
X024874Y007121D01*
X024907Y007131D01*
X024942Y007138D01*
X024977Y007141D01*
X025012Y007140D01*
X025047Y007135D01*
X025082Y007126D01*
X025115Y007114D01*
X025146Y007098D01*
X025176Y007079D01*
X025203Y007056D01*
X025227Y007031D01*
X025249Y007003D01*
X025267Y006973D01*
X025282Y006941D01*
X025294Y006908D01*
X025302Y006874D01*
X025306Y006839D01*
X025306Y006803D01*
X025302Y006768D01*
X025294Y006734D01*
X025282Y006701D01*
X025267Y006669D01*
X025249Y006639D01*
X025227Y006611D01*
X025203Y006586D01*
X025176Y006563D01*
X025146Y006544D01*
X025115Y006528D01*
X025082Y006516D01*
X025047Y006507D01*
X025012Y006502D01*
X024977Y006501D01*
X024942Y006504D01*
X024907Y006511D01*
X024874Y006521D01*
X024842Y006535D01*
X024811Y006553D01*
X024783Y006574D01*
X024757Y006598D01*
X024733Y006624D01*
X024713Y006653D01*
X024697Y006684D01*
X024683Y006717D01*
X024674Y006751D01*
X024668Y006786D01*
X024666Y006821D01*
X027157Y006447D02*
X027295Y006447D01*
X027295Y006329D01*
X027197Y006427D01*
X027236Y006427D01*
X027256Y006408D01*
X027256Y006427D01*
X027157Y006427D02*
X027275Y006309D01*
X027157Y006427D02*
X027157Y006447D01*
X027157Y007333D01*
X027197Y007372D01*
X027315Y007372D01*
X027826Y007372D02*
X027984Y007372D01*
X028496Y007372D02*
X028574Y007372D01*
X028614Y007333D01*
X028614Y006349D01*
X028574Y006309D01*
X028496Y006309D01*
X027984Y006309D02*
X027787Y006309D01*
X027566Y006821D02*
X027568Y006856D01*
X027574Y006891D01*
X027583Y006925D01*
X027597Y006958D01*
X027613Y006989D01*
X027633Y007018D01*
X027657Y007044D01*
X027683Y007068D01*
X027711Y007089D01*
X027742Y007107D01*
X027774Y007121D01*
X027807Y007131D01*
X027842Y007138D01*
X027877Y007141D01*
X027912Y007140D01*
X027947Y007135D01*
X027982Y007126D01*
X028015Y007114D01*
X028046Y007098D01*
X028076Y007079D01*
X028103Y007056D01*
X028127Y007031D01*
X028149Y007003D01*
X028167Y006973D01*
X028182Y006941D01*
X028194Y006908D01*
X028202Y006874D01*
X028206Y006839D01*
X028206Y006803D01*
X028202Y006768D01*
X028194Y006734D01*
X028182Y006701D01*
X028167Y006669D01*
X028149Y006639D01*
X028127Y006611D01*
X028103Y006586D01*
X028076Y006563D01*
X028046Y006544D01*
X028015Y006528D01*
X027982Y006516D01*
X027947Y006507D01*
X027912Y006502D01*
X027877Y006501D01*
X027842Y006504D01*
X027807Y006511D01*
X027774Y006521D01*
X027742Y006535D01*
X027711Y006553D01*
X027683Y006574D01*
X027657Y006598D01*
X027633Y006624D01*
X027613Y006653D01*
X027597Y006684D01*
X027583Y006717D01*
X027574Y006751D01*
X027568Y006786D01*
X027566Y006821D01*
X030057Y006447D02*
X030195Y006447D01*
X030195Y006329D01*
X030097Y006427D01*
X030136Y006427D01*
X030156Y006408D01*
X030156Y006427D01*
X030057Y006427D02*
X030175Y006309D01*
X030057Y006427D02*
X030057Y006447D01*
X030057Y007333D01*
X030097Y007372D01*
X030215Y007372D01*
X030726Y007372D02*
X030884Y007372D01*
X031396Y007372D02*
X031474Y007372D01*
X031514Y007333D01*
X031514Y006349D01*
X031474Y006309D01*
X031396Y006309D01*
X030884Y006309D02*
X030687Y006309D01*
X030466Y006821D02*
X030468Y006856D01*
X030474Y006891D01*
X030483Y006925D01*
X030497Y006958D01*
X030513Y006989D01*
X030533Y007018D01*
X030557Y007044D01*
X030583Y007068D01*
X030611Y007089D01*
X030642Y007107D01*
X030674Y007121D01*
X030707Y007131D01*
X030742Y007138D01*
X030777Y007141D01*
X030812Y007140D01*
X030847Y007135D01*
X030882Y007126D01*
X030915Y007114D01*
X030946Y007098D01*
X030976Y007079D01*
X031003Y007056D01*
X031027Y007031D01*
X031049Y007003D01*
X031067Y006973D01*
X031082Y006941D01*
X031094Y006908D01*
X031102Y006874D01*
X031106Y006839D01*
X031106Y006803D01*
X031102Y006768D01*
X031094Y006734D01*
X031082Y006701D01*
X031067Y006669D01*
X031049Y006639D01*
X031027Y006611D01*
X031003Y006586D01*
X030976Y006563D01*
X030946Y006544D01*
X030915Y006528D01*
X030882Y006516D01*
X030847Y006507D01*
X030812Y006502D01*
X030777Y006501D01*
X030742Y006504D01*
X030707Y006511D01*
X030674Y006521D01*
X030642Y006535D01*
X030611Y006553D01*
X030583Y006574D01*
X030557Y006598D01*
X030533Y006624D01*
X030513Y006653D01*
X030497Y006684D01*
X030483Y006717D01*
X030474Y006751D01*
X030468Y006786D01*
X030466Y006821D01*
X032957Y006447D02*
X033095Y006447D01*
X033095Y006329D01*
X032997Y006427D01*
X033036Y006427D01*
X033056Y006408D01*
X033056Y006427D01*
X032957Y006427D02*
X033075Y006309D01*
X032957Y006427D02*
X032957Y006447D01*
X032957Y007333D01*
X032997Y007372D01*
X033115Y007372D01*
X033626Y007372D02*
X033784Y007372D01*
X034296Y007372D02*
X034374Y007372D01*
X034414Y007333D01*
X034414Y006349D01*
X034374Y006309D01*
X034296Y006309D01*
X033784Y006309D02*
X033587Y006309D01*
X033366Y006821D02*
X033368Y006856D01*
X033374Y006891D01*
X033383Y006925D01*
X033397Y006958D01*
X033413Y006989D01*
X033433Y007018D01*
X033457Y007044D01*
X033483Y007068D01*
X033511Y007089D01*
X033542Y007107D01*
X033574Y007121D01*
X033607Y007131D01*
X033642Y007138D01*
X033677Y007141D01*
X033712Y007140D01*
X033747Y007135D01*
X033782Y007126D01*
X033815Y007114D01*
X033846Y007098D01*
X033876Y007079D01*
X033903Y007056D01*
X033927Y007031D01*
X033949Y007003D01*
X033967Y006973D01*
X033982Y006941D01*
X033994Y006908D01*
X034002Y006874D01*
X034006Y006839D01*
X034006Y006803D01*
X034002Y006768D01*
X033994Y006734D01*
X033982Y006701D01*
X033967Y006669D01*
X033949Y006639D01*
X033927Y006611D01*
X033903Y006586D01*
X033876Y006563D01*
X033846Y006544D01*
X033815Y006528D01*
X033782Y006516D01*
X033747Y006507D01*
X033712Y006502D01*
X033677Y006501D01*
X033642Y006504D01*
X033607Y006511D01*
X033574Y006521D01*
X033542Y006535D01*
X033511Y006553D01*
X033483Y006574D01*
X033457Y006598D01*
X033433Y006624D01*
X033413Y006653D01*
X033397Y006684D01*
X033383Y006717D01*
X033374Y006751D01*
X033368Y006786D01*
X033366Y006821D01*
X035857Y006447D02*
X035995Y006447D01*
X035995Y006329D01*
X035897Y006427D01*
X035936Y006427D01*
X035956Y006408D01*
X035956Y006427D01*
X035857Y006427D02*
X035975Y006309D01*
X035857Y006427D02*
X035857Y006447D01*
X035857Y007333D01*
X035897Y007372D01*
X036015Y007372D01*
X036526Y007372D02*
X036684Y007372D01*
X037196Y007372D02*
X037274Y007372D01*
X037314Y007333D01*
X037314Y006349D01*
X037274Y006309D01*
X037196Y006309D01*
X036684Y006309D02*
X036487Y006309D01*
X036266Y006821D02*
X036268Y006856D01*
X036274Y006891D01*
X036283Y006925D01*
X036297Y006958D01*
X036313Y006989D01*
X036333Y007018D01*
X036357Y007044D01*
X036383Y007068D01*
X036411Y007089D01*
X036442Y007107D01*
X036474Y007121D01*
X036507Y007131D01*
X036542Y007138D01*
X036577Y007141D01*
X036612Y007140D01*
X036647Y007135D01*
X036682Y007126D01*
X036715Y007114D01*
X036746Y007098D01*
X036776Y007079D01*
X036803Y007056D01*
X036827Y007031D01*
X036849Y007003D01*
X036867Y006973D01*
X036882Y006941D01*
X036894Y006908D01*
X036902Y006874D01*
X036906Y006839D01*
X036906Y006803D01*
X036902Y006768D01*
X036894Y006734D01*
X036882Y006701D01*
X036867Y006669D01*
X036849Y006639D01*
X036827Y006611D01*
X036803Y006586D01*
X036776Y006563D01*
X036746Y006544D01*
X036715Y006528D01*
X036682Y006516D01*
X036647Y006507D01*
X036612Y006502D01*
X036577Y006501D01*
X036542Y006504D01*
X036507Y006511D01*
X036474Y006521D01*
X036442Y006535D01*
X036411Y006553D01*
X036383Y006574D01*
X036357Y006598D01*
X036333Y006624D01*
X036313Y006653D01*
X036297Y006684D01*
X036283Y006717D01*
X036274Y006751D01*
X036268Y006786D01*
X036266Y006821D01*
X038757Y006447D02*
X038895Y006447D01*
X038895Y006329D01*
X038797Y006427D01*
X038836Y006427D01*
X038856Y006408D01*
X038856Y006427D01*
X038757Y006427D02*
X038875Y006309D01*
X038757Y006427D02*
X038757Y006447D01*
X038757Y007333D01*
X038797Y007372D01*
X038915Y007372D01*
X039426Y007372D02*
X039584Y007372D01*
X040096Y007372D02*
X040174Y007372D01*
X040214Y007333D01*
X040214Y006349D01*
X040174Y006309D01*
X040096Y006309D01*
X039584Y006309D02*
X039387Y006309D01*
X039166Y006821D02*
X039168Y006856D01*
X039174Y006891D01*
X039183Y006925D01*
X039197Y006958D01*
X039213Y006989D01*
X039233Y007018D01*
X039257Y007044D01*
X039283Y007068D01*
X039311Y007089D01*
X039342Y007107D01*
X039374Y007121D01*
X039407Y007131D01*
X039442Y007138D01*
X039477Y007141D01*
X039512Y007140D01*
X039547Y007135D01*
X039582Y007126D01*
X039615Y007114D01*
X039646Y007098D01*
X039676Y007079D01*
X039703Y007056D01*
X039727Y007031D01*
X039749Y007003D01*
X039767Y006973D01*
X039782Y006941D01*
X039794Y006908D01*
X039802Y006874D01*
X039806Y006839D01*
X039806Y006803D01*
X039802Y006768D01*
X039794Y006734D01*
X039782Y006701D01*
X039767Y006669D01*
X039749Y006639D01*
X039727Y006611D01*
X039703Y006586D01*
X039676Y006563D01*
X039646Y006544D01*
X039615Y006528D01*
X039582Y006516D01*
X039547Y006507D01*
X039512Y006502D01*
X039477Y006501D01*
X039442Y006504D01*
X039407Y006511D01*
X039374Y006521D01*
X039342Y006535D01*
X039311Y006553D01*
X039283Y006574D01*
X039257Y006598D01*
X039233Y006624D01*
X039213Y006653D01*
X039197Y006684D01*
X039183Y006717D01*
X039174Y006751D01*
X039168Y006786D01*
X039166Y006821D01*
X041657Y006447D02*
X041795Y006447D01*
X041795Y006329D01*
X041697Y006427D01*
X041736Y006427D01*
X041756Y006408D01*
X041756Y006427D01*
X041657Y006427D02*
X041775Y006309D01*
X041657Y006427D02*
X041657Y006447D01*
X041657Y007333D01*
X041697Y007372D01*
X041815Y007372D01*
X042326Y007372D02*
X042484Y007372D01*
X042996Y007372D02*
X043074Y007372D01*
X043114Y007333D01*
X043114Y006349D01*
X043074Y006309D01*
X042996Y006309D01*
X042484Y006309D02*
X042287Y006309D01*
X042066Y006821D02*
X042068Y006856D01*
X042074Y006891D01*
X042083Y006925D01*
X042097Y006958D01*
X042113Y006989D01*
X042133Y007018D01*
X042157Y007044D01*
X042183Y007068D01*
X042211Y007089D01*
X042242Y007107D01*
X042274Y007121D01*
X042307Y007131D01*
X042342Y007138D01*
X042377Y007141D01*
X042412Y007140D01*
X042447Y007135D01*
X042482Y007126D01*
X042515Y007114D01*
X042546Y007098D01*
X042576Y007079D01*
X042603Y007056D01*
X042627Y007031D01*
X042649Y007003D01*
X042667Y006973D01*
X042682Y006941D01*
X042694Y006908D01*
X042702Y006874D01*
X042706Y006839D01*
X042706Y006803D01*
X042702Y006768D01*
X042694Y006734D01*
X042682Y006701D01*
X042667Y006669D01*
X042649Y006639D01*
X042627Y006611D01*
X042603Y006586D01*
X042576Y006563D01*
X042546Y006544D01*
X042515Y006528D01*
X042482Y006516D01*
X042447Y006507D01*
X042412Y006502D01*
X042377Y006501D01*
X042342Y006504D01*
X042307Y006511D01*
X042274Y006521D01*
X042242Y006535D01*
X042211Y006553D01*
X042183Y006574D01*
X042157Y006598D01*
X042133Y006624D01*
X042113Y006653D01*
X042097Y006684D01*
X042083Y006717D01*
X042074Y006751D01*
X042068Y006786D01*
X042066Y006821D01*
X044457Y006447D02*
X044595Y006447D01*
X044595Y006329D01*
X044497Y006427D01*
X044536Y006427D01*
X044556Y006408D01*
X044556Y006427D01*
X044457Y006427D02*
X044575Y006309D01*
X044457Y006427D02*
X044457Y006447D01*
X044457Y007333D01*
X044497Y007372D01*
X044615Y007372D01*
X045126Y007372D02*
X045284Y007372D01*
X045796Y007372D02*
X045874Y007372D01*
X045914Y007333D01*
X045914Y006349D01*
X045874Y006309D01*
X045796Y006309D01*
X045284Y006309D02*
X045087Y006309D01*
X044866Y006821D02*
X044868Y006856D01*
X044874Y006891D01*
X044883Y006925D01*
X044897Y006958D01*
X044913Y006989D01*
X044933Y007018D01*
X044957Y007044D01*
X044983Y007068D01*
X045011Y007089D01*
X045042Y007107D01*
X045074Y007121D01*
X045107Y007131D01*
X045142Y007138D01*
X045177Y007141D01*
X045212Y007140D01*
X045247Y007135D01*
X045282Y007126D01*
X045315Y007114D01*
X045346Y007098D01*
X045376Y007079D01*
X045403Y007056D01*
X045427Y007031D01*
X045449Y007003D01*
X045467Y006973D01*
X045482Y006941D01*
X045494Y006908D01*
X045502Y006874D01*
X045506Y006839D01*
X045506Y006803D01*
X045502Y006768D01*
X045494Y006734D01*
X045482Y006701D01*
X045467Y006669D01*
X045449Y006639D01*
X045427Y006611D01*
X045403Y006586D01*
X045376Y006563D01*
X045346Y006544D01*
X045315Y006528D01*
X045282Y006516D01*
X045247Y006507D01*
X045212Y006502D01*
X045177Y006501D01*
X045142Y006504D01*
X045107Y006511D01*
X045074Y006521D01*
X045042Y006535D01*
X045011Y006553D01*
X044983Y006574D01*
X044957Y006598D01*
X044933Y006624D01*
X044913Y006653D01*
X044897Y006684D01*
X044883Y006717D01*
X044874Y006751D01*
X044868Y006786D01*
X044866Y006821D01*
X047357Y006447D02*
X047495Y006447D01*
X047495Y006329D01*
X047397Y006427D01*
X047436Y006427D01*
X047456Y006408D01*
X047456Y006427D01*
X047357Y006427D02*
X047475Y006309D01*
X047357Y006427D02*
X047357Y006447D01*
X047357Y007333D01*
X047397Y007372D01*
X047515Y007372D01*
X048026Y007372D02*
X048184Y007372D01*
X048696Y007372D02*
X048774Y007372D01*
X048814Y007333D01*
X048814Y006349D01*
X048774Y006309D01*
X048696Y006309D01*
X048184Y006309D02*
X047987Y006309D01*
X047766Y006821D02*
X047768Y006856D01*
X047774Y006891D01*
X047783Y006925D01*
X047797Y006958D01*
X047813Y006989D01*
X047833Y007018D01*
X047857Y007044D01*
X047883Y007068D01*
X047911Y007089D01*
X047942Y007107D01*
X047974Y007121D01*
X048007Y007131D01*
X048042Y007138D01*
X048077Y007141D01*
X048112Y007140D01*
X048147Y007135D01*
X048182Y007126D01*
X048215Y007114D01*
X048246Y007098D01*
X048276Y007079D01*
X048303Y007056D01*
X048327Y007031D01*
X048349Y007003D01*
X048367Y006973D01*
X048382Y006941D01*
X048394Y006908D01*
X048402Y006874D01*
X048406Y006839D01*
X048406Y006803D01*
X048402Y006768D01*
X048394Y006734D01*
X048382Y006701D01*
X048367Y006669D01*
X048349Y006639D01*
X048327Y006611D01*
X048303Y006586D01*
X048276Y006563D01*
X048246Y006544D01*
X048215Y006528D01*
X048182Y006516D01*
X048147Y006507D01*
X048112Y006502D01*
X048077Y006501D01*
X048042Y006504D01*
X048007Y006511D01*
X047974Y006521D01*
X047942Y006535D01*
X047911Y006553D01*
X047883Y006574D01*
X047857Y006598D01*
X047833Y006624D01*
X047813Y006653D01*
X047797Y006684D01*
X047783Y006717D01*
X047774Y006751D01*
X047768Y006786D01*
X047766Y006821D01*
X050257Y006447D02*
X050395Y006447D01*
X050395Y006329D01*
X050297Y006427D01*
X050336Y006427D01*
X050356Y006408D01*
X050356Y006427D01*
X050257Y006427D02*
X050375Y006309D01*
X050257Y006427D02*
X050257Y006447D01*
X050257Y007333D01*
X050297Y007372D01*
X050415Y007372D01*
X050926Y007372D02*
X051084Y007372D01*
X051596Y007372D02*
X051674Y007372D01*
X051714Y007333D01*
X051714Y006349D01*
X051674Y006309D01*
X051596Y006309D01*
X051084Y006309D02*
X050887Y006309D01*
X050666Y006821D02*
X050668Y006856D01*
X050674Y006891D01*
X050683Y006925D01*
X050697Y006958D01*
X050713Y006989D01*
X050733Y007018D01*
X050757Y007044D01*
X050783Y007068D01*
X050811Y007089D01*
X050842Y007107D01*
X050874Y007121D01*
X050907Y007131D01*
X050942Y007138D01*
X050977Y007141D01*
X051012Y007140D01*
X051047Y007135D01*
X051082Y007126D01*
X051115Y007114D01*
X051146Y007098D01*
X051176Y007079D01*
X051203Y007056D01*
X051227Y007031D01*
X051249Y007003D01*
X051267Y006973D01*
X051282Y006941D01*
X051294Y006908D01*
X051302Y006874D01*
X051306Y006839D01*
X051306Y006803D01*
X051302Y006768D01*
X051294Y006734D01*
X051282Y006701D01*
X051267Y006669D01*
X051249Y006639D01*
X051227Y006611D01*
X051203Y006586D01*
X051176Y006563D01*
X051146Y006544D01*
X051115Y006528D01*
X051082Y006516D01*
X051047Y006507D01*
X051012Y006502D01*
X050977Y006501D01*
X050942Y006504D01*
X050907Y006511D01*
X050874Y006521D01*
X050842Y006535D01*
X050811Y006553D01*
X050783Y006574D01*
X050757Y006598D01*
X050733Y006624D01*
X050713Y006653D01*
X050697Y006684D01*
X050683Y006717D01*
X050674Y006751D01*
X050668Y006786D01*
X050666Y006821D01*
X053257Y006447D02*
X053395Y006447D01*
X053395Y006329D01*
X053297Y006427D01*
X053336Y006427D01*
X053356Y006408D01*
X053356Y006427D01*
X053257Y006427D02*
X053375Y006309D01*
X053257Y006427D02*
X053257Y006447D01*
X053257Y007333D01*
X053297Y007372D01*
X053415Y007372D01*
X053926Y007372D02*
X054084Y007372D01*
X054596Y007372D02*
X054674Y007372D01*
X054714Y007333D01*
X054714Y006349D01*
X054674Y006309D01*
X054596Y006309D01*
X054084Y006309D02*
X053887Y006309D01*
X053666Y006821D02*
X053668Y006856D01*
X053674Y006891D01*
X053683Y006925D01*
X053697Y006958D01*
X053713Y006989D01*
X053733Y007018D01*
X053757Y007044D01*
X053783Y007068D01*
X053811Y007089D01*
X053842Y007107D01*
X053874Y007121D01*
X053907Y007131D01*
X053942Y007138D01*
X053977Y007141D01*
X054012Y007140D01*
X054047Y007135D01*
X054082Y007126D01*
X054115Y007114D01*
X054146Y007098D01*
X054176Y007079D01*
X054203Y007056D01*
X054227Y007031D01*
X054249Y007003D01*
X054267Y006973D01*
X054282Y006941D01*
X054294Y006908D01*
X054302Y006874D01*
X054306Y006839D01*
X054306Y006803D01*
X054302Y006768D01*
X054294Y006734D01*
X054282Y006701D01*
X054267Y006669D01*
X054249Y006639D01*
X054227Y006611D01*
X054203Y006586D01*
X054176Y006563D01*
X054146Y006544D01*
X054115Y006528D01*
X054082Y006516D01*
X054047Y006507D01*
X054012Y006502D01*
X053977Y006501D01*
X053942Y006504D01*
X053907Y006511D01*
X053874Y006521D01*
X053842Y006535D01*
X053811Y006553D01*
X053783Y006574D01*
X053757Y006598D01*
X053733Y006624D01*
X053713Y006653D01*
X053697Y006684D01*
X053683Y006717D01*
X053674Y006751D01*
X053668Y006786D01*
X053666Y006821D01*
X056157Y006447D02*
X056295Y006447D01*
X056295Y006329D01*
X056197Y006427D01*
X056236Y006427D01*
X056256Y006408D01*
X056256Y006427D01*
X056157Y006427D02*
X056275Y006309D01*
X056157Y006427D02*
X056157Y006447D01*
X056157Y007333D01*
X056197Y007372D01*
X056315Y007372D01*
X056826Y007372D02*
X056984Y007372D01*
X057496Y007372D02*
X057574Y007372D01*
X057614Y007333D01*
X057614Y006349D01*
X057574Y006309D01*
X057496Y006309D01*
X056984Y006309D02*
X056787Y006309D01*
X056566Y006821D02*
X056568Y006856D01*
X056574Y006891D01*
X056583Y006925D01*
X056597Y006958D01*
X056613Y006989D01*
X056633Y007018D01*
X056657Y007044D01*
X056683Y007068D01*
X056711Y007089D01*
X056742Y007107D01*
X056774Y007121D01*
X056807Y007131D01*
X056842Y007138D01*
X056877Y007141D01*
X056912Y007140D01*
X056947Y007135D01*
X056982Y007126D01*
X057015Y007114D01*
X057046Y007098D01*
X057076Y007079D01*
X057103Y007056D01*
X057127Y007031D01*
X057149Y007003D01*
X057167Y006973D01*
X057182Y006941D01*
X057194Y006908D01*
X057202Y006874D01*
X057206Y006839D01*
X057206Y006803D01*
X057202Y006768D01*
X057194Y006734D01*
X057182Y006701D01*
X057167Y006669D01*
X057149Y006639D01*
X057127Y006611D01*
X057103Y006586D01*
X057076Y006563D01*
X057046Y006544D01*
X057015Y006528D01*
X056982Y006516D01*
X056947Y006507D01*
X056912Y006502D01*
X056877Y006501D01*
X056842Y006504D01*
X056807Y006511D01*
X056774Y006521D01*
X056742Y006535D01*
X056711Y006553D01*
X056683Y006574D01*
X056657Y006598D01*
X056633Y006624D01*
X056613Y006653D01*
X056597Y006684D01*
X056583Y006717D01*
X056574Y006751D01*
X056568Y006786D01*
X056566Y006821D01*
X059057Y006447D02*
X059195Y006447D01*
X059195Y006329D01*
X059097Y006427D01*
X059136Y006427D01*
X059156Y006408D01*
X059156Y006427D01*
X059057Y006427D02*
X059175Y006309D01*
X059057Y006427D02*
X059057Y006447D01*
X059057Y007333D01*
X059097Y007372D01*
X059215Y007372D01*
X059726Y007372D02*
X059884Y007372D01*
X060396Y007372D02*
X060474Y007372D01*
X060514Y007333D01*
X060514Y006349D01*
X060474Y006309D01*
X060396Y006309D01*
X059884Y006309D02*
X059687Y006309D01*
X059466Y006821D02*
X059468Y006856D01*
X059474Y006891D01*
X059483Y006925D01*
X059497Y006958D01*
X059513Y006989D01*
X059533Y007018D01*
X059557Y007044D01*
X059583Y007068D01*
X059611Y007089D01*
X059642Y007107D01*
X059674Y007121D01*
X059707Y007131D01*
X059742Y007138D01*
X059777Y007141D01*
X059812Y007140D01*
X059847Y007135D01*
X059882Y007126D01*
X059915Y007114D01*
X059946Y007098D01*
X059976Y007079D01*
X060003Y007056D01*
X060027Y007031D01*
X060049Y007003D01*
X060067Y006973D01*
X060082Y006941D01*
X060094Y006908D01*
X060102Y006874D01*
X060106Y006839D01*
X060106Y006803D01*
X060102Y006768D01*
X060094Y006734D01*
X060082Y006701D01*
X060067Y006669D01*
X060049Y006639D01*
X060027Y006611D01*
X060003Y006586D01*
X059976Y006563D01*
X059946Y006544D01*
X059915Y006528D01*
X059882Y006516D01*
X059847Y006507D01*
X059812Y006502D01*
X059777Y006501D01*
X059742Y006504D01*
X059707Y006511D01*
X059674Y006521D01*
X059642Y006535D01*
X059611Y006553D01*
X059583Y006574D01*
X059557Y006598D01*
X059533Y006624D01*
X059513Y006653D01*
X059497Y006684D01*
X059483Y006717D01*
X059474Y006751D01*
X059468Y006786D01*
X059466Y006821D01*
X061957Y006447D02*
X062095Y006447D01*
X062095Y006329D01*
X061997Y006427D01*
X062036Y006427D01*
X062056Y006408D01*
X062056Y006427D01*
X061957Y006427D02*
X062075Y006309D01*
X061957Y006427D02*
X061957Y006447D01*
X061957Y007333D01*
X061997Y007372D01*
X062115Y007372D01*
X062626Y007372D02*
X062784Y007372D01*
X063296Y007372D02*
X063374Y007372D01*
X063414Y007333D01*
X063414Y006349D01*
X063374Y006309D01*
X063296Y006309D01*
X062784Y006309D02*
X062587Y006309D01*
X062366Y006821D02*
X062368Y006856D01*
X062374Y006891D01*
X062383Y006925D01*
X062397Y006958D01*
X062413Y006989D01*
X062433Y007018D01*
X062457Y007044D01*
X062483Y007068D01*
X062511Y007089D01*
X062542Y007107D01*
X062574Y007121D01*
X062607Y007131D01*
X062642Y007138D01*
X062677Y007141D01*
X062712Y007140D01*
X062747Y007135D01*
X062782Y007126D01*
X062815Y007114D01*
X062846Y007098D01*
X062876Y007079D01*
X062903Y007056D01*
X062927Y007031D01*
X062949Y007003D01*
X062967Y006973D01*
X062982Y006941D01*
X062994Y006908D01*
X063002Y006874D01*
X063006Y006839D01*
X063006Y006803D01*
X063002Y006768D01*
X062994Y006734D01*
X062982Y006701D01*
X062967Y006669D01*
X062949Y006639D01*
X062927Y006611D01*
X062903Y006586D01*
X062876Y006563D01*
X062846Y006544D01*
X062815Y006528D01*
X062782Y006516D01*
X062747Y006507D01*
X062712Y006502D01*
X062677Y006501D01*
X062642Y006504D01*
X062607Y006511D01*
X062574Y006521D01*
X062542Y006535D01*
X062511Y006553D01*
X062483Y006574D01*
X062457Y006598D01*
X062433Y006624D01*
X062413Y006653D01*
X062397Y006684D01*
X062383Y006717D01*
X062374Y006751D01*
X062368Y006786D01*
X062366Y006821D01*
X064857Y006447D02*
X064995Y006447D01*
X064995Y006329D01*
X064897Y006427D01*
X064936Y006427D01*
X064956Y006408D01*
X064956Y006427D01*
X064857Y006427D02*
X064975Y006309D01*
X064857Y006427D02*
X064857Y006447D01*
X064857Y007333D01*
X064897Y007372D01*
X065015Y007372D01*
X065526Y007372D02*
X065684Y007372D01*
X066196Y007372D02*
X066274Y007372D01*
X066314Y007333D01*
X066314Y006349D01*
X066274Y006309D01*
X066196Y006309D01*
X065684Y006309D02*
X065487Y006309D01*
X065266Y006821D02*
X065268Y006856D01*
X065274Y006891D01*
X065283Y006925D01*
X065297Y006958D01*
X065313Y006989D01*
X065333Y007018D01*
X065357Y007044D01*
X065383Y007068D01*
X065411Y007089D01*
X065442Y007107D01*
X065474Y007121D01*
X065507Y007131D01*
X065542Y007138D01*
X065577Y007141D01*
X065612Y007140D01*
X065647Y007135D01*
X065682Y007126D01*
X065715Y007114D01*
X065746Y007098D01*
X065776Y007079D01*
X065803Y007056D01*
X065827Y007031D01*
X065849Y007003D01*
X065867Y006973D01*
X065882Y006941D01*
X065894Y006908D01*
X065902Y006874D01*
X065906Y006839D01*
X065906Y006803D01*
X065902Y006768D01*
X065894Y006734D01*
X065882Y006701D01*
X065867Y006669D01*
X065849Y006639D01*
X065827Y006611D01*
X065803Y006586D01*
X065776Y006563D01*
X065746Y006544D01*
X065715Y006528D01*
X065682Y006516D01*
X065647Y006507D01*
X065612Y006502D01*
X065577Y006501D01*
X065542Y006504D01*
X065507Y006511D01*
X065474Y006521D01*
X065442Y006535D01*
X065411Y006553D01*
X065383Y006574D01*
X065357Y006598D01*
X065333Y006624D01*
X065313Y006653D01*
X065297Y006684D01*
X065283Y006717D01*
X065274Y006751D01*
X065268Y006786D01*
X065266Y006821D01*
X067757Y006447D02*
X067895Y006447D01*
X067895Y006329D01*
X067797Y006427D01*
X067836Y006427D01*
X067856Y006408D01*
X067856Y006427D01*
X067757Y006427D02*
X067875Y006309D01*
X067757Y006427D02*
X067757Y006447D01*
X067757Y007333D01*
X067797Y007372D01*
X067915Y007372D01*
X068426Y007372D02*
X068584Y007372D01*
X069096Y007372D02*
X069174Y007372D01*
X069214Y007333D01*
X069214Y006349D01*
X069174Y006309D01*
X069096Y006309D01*
X068584Y006309D02*
X068387Y006309D01*
X068166Y006821D02*
X068168Y006856D01*
X068174Y006891D01*
X068183Y006925D01*
X068197Y006958D01*
X068213Y006989D01*
X068233Y007018D01*
X068257Y007044D01*
X068283Y007068D01*
X068311Y007089D01*
X068342Y007107D01*
X068374Y007121D01*
X068407Y007131D01*
X068442Y007138D01*
X068477Y007141D01*
X068512Y007140D01*
X068547Y007135D01*
X068582Y007126D01*
X068615Y007114D01*
X068646Y007098D01*
X068676Y007079D01*
X068703Y007056D01*
X068727Y007031D01*
X068749Y007003D01*
X068767Y006973D01*
X068782Y006941D01*
X068794Y006908D01*
X068802Y006874D01*
X068806Y006839D01*
X068806Y006803D01*
X068802Y006768D01*
X068794Y006734D01*
X068782Y006701D01*
X068767Y006669D01*
X068749Y006639D01*
X068727Y006611D01*
X068703Y006586D01*
X068676Y006563D01*
X068646Y006544D01*
X068615Y006528D01*
X068582Y006516D01*
X068547Y006507D01*
X068512Y006502D01*
X068477Y006501D01*
X068442Y006504D01*
X068407Y006511D01*
X068374Y006521D01*
X068342Y006535D01*
X068311Y006553D01*
X068283Y006574D01*
X068257Y006598D01*
X068233Y006624D01*
X068213Y006653D01*
X068197Y006684D01*
X068183Y006717D01*
X068174Y006751D01*
X068168Y006786D01*
X068166Y006821D01*
X070657Y006457D02*
X070795Y006457D01*
X070795Y006339D01*
X070697Y006437D01*
X070736Y006437D01*
X070756Y006418D01*
X070756Y006437D01*
X070657Y006437D02*
X070775Y006319D01*
X070657Y006437D02*
X070657Y006457D01*
X070657Y007343D01*
X070697Y007382D01*
X070815Y007382D01*
X071326Y007382D02*
X071484Y007382D01*
X071996Y007382D02*
X072074Y007382D01*
X072114Y007343D01*
X072114Y006359D01*
X072074Y006319D01*
X071996Y006319D01*
X071484Y006319D02*
X071287Y006319D01*
X071066Y006831D02*
X071068Y006866D01*
X071074Y006901D01*
X071083Y006935D01*
X071097Y006968D01*
X071113Y006999D01*
X071133Y007028D01*
X071157Y007054D01*
X071183Y007078D01*
X071211Y007099D01*
X071242Y007117D01*
X071274Y007131D01*
X071307Y007141D01*
X071342Y007148D01*
X071377Y007151D01*
X071412Y007150D01*
X071447Y007145D01*
X071482Y007136D01*
X071515Y007124D01*
X071546Y007108D01*
X071576Y007089D01*
X071603Y007066D01*
X071627Y007041D01*
X071649Y007013D01*
X071667Y006983D01*
X071682Y006951D01*
X071694Y006918D01*
X071702Y006884D01*
X071706Y006849D01*
X071706Y006813D01*
X071702Y006778D01*
X071694Y006744D01*
X071682Y006711D01*
X071667Y006679D01*
X071649Y006649D01*
X071627Y006621D01*
X071603Y006596D01*
X071576Y006573D01*
X071546Y006554D01*
X071515Y006538D01*
X071482Y006526D01*
X071447Y006517D01*
X071412Y006512D01*
X071377Y006511D01*
X071342Y006514D01*
X071307Y006521D01*
X071274Y006531D01*
X071242Y006545D01*
X071211Y006563D01*
X071183Y006584D01*
X071157Y006608D01*
X071133Y006634D01*
X071113Y006663D01*
X071097Y006694D01*
X071083Y006727D01*
X071074Y006761D01*
X071068Y006796D01*
X071066Y006831D01*
X073557Y006447D02*
X073695Y006447D01*
X073695Y006329D01*
X073597Y006427D01*
X073636Y006427D01*
X073656Y006408D01*
X073656Y006427D01*
X073557Y006427D02*
X073675Y006309D01*
X073557Y006427D02*
X073557Y006447D01*
X073557Y007333D01*
X073597Y007372D01*
X073715Y007372D01*
X074226Y007372D02*
X074384Y007372D01*
X074896Y007372D02*
X074974Y007372D01*
X075014Y007333D01*
X075014Y006349D01*
X074974Y006309D01*
X074896Y006309D01*
X074384Y006309D02*
X074187Y006309D01*
X073966Y006821D02*
X073968Y006856D01*
X073974Y006891D01*
X073983Y006925D01*
X073997Y006958D01*
X074013Y006989D01*
X074033Y007018D01*
X074057Y007044D01*
X074083Y007068D01*
X074111Y007089D01*
X074142Y007107D01*
X074174Y007121D01*
X074207Y007131D01*
X074242Y007138D01*
X074277Y007141D01*
X074312Y007140D01*
X074347Y007135D01*
X074382Y007126D01*
X074415Y007114D01*
X074446Y007098D01*
X074476Y007079D01*
X074503Y007056D01*
X074527Y007031D01*
X074549Y007003D01*
X074567Y006973D01*
X074582Y006941D01*
X074594Y006908D01*
X074602Y006874D01*
X074606Y006839D01*
X074606Y006803D01*
X074602Y006768D01*
X074594Y006734D01*
X074582Y006701D01*
X074567Y006669D01*
X074549Y006639D01*
X074527Y006611D01*
X074503Y006586D01*
X074476Y006563D01*
X074446Y006544D01*
X074415Y006528D01*
X074382Y006516D01*
X074347Y006507D01*
X074312Y006502D01*
X074277Y006501D01*
X074242Y006504D01*
X074207Y006511D01*
X074174Y006521D01*
X074142Y006535D01*
X074111Y006553D01*
X074083Y006574D01*
X074057Y006598D01*
X074033Y006624D01*
X074013Y006653D01*
X073997Y006684D01*
X073983Y006717D01*
X073974Y006751D01*
X073968Y006786D01*
X073966Y006821D01*
X076457Y006447D02*
X076595Y006447D01*
X076595Y006329D01*
X076497Y006427D01*
X076536Y006427D01*
X076556Y006408D01*
X076556Y006427D01*
X076457Y006427D02*
X076575Y006309D01*
X076457Y006427D02*
X076457Y006447D01*
X076457Y007333D01*
X076497Y007372D01*
X076615Y007372D01*
X077126Y007372D02*
X077284Y007372D01*
X077796Y007372D02*
X077874Y007372D01*
X077914Y007333D01*
X077914Y006349D01*
X077874Y006309D01*
X077796Y006309D01*
X077284Y006309D02*
X077087Y006309D01*
X076866Y006821D02*
X076868Y006856D01*
X076874Y006891D01*
X076883Y006925D01*
X076897Y006958D01*
X076913Y006989D01*
X076933Y007018D01*
X076957Y007044D01*
X076983Y007068D01*
X077011Y007089D01*
X077042Y007107D01*
X077074Y007121D01*
X077107Y007131D01*
X077142Y007138D01*
X077177Y007141D01*
X077212Y007140D01*
X077247Y007135D01*
X077282Y007126D01*
X077315Y007114D01*
X077346Y007098D01*
X077376Y007079D01*
X077403Y007056D01*
X077427Y007031D01*
X077449Y007003D01*
X077467Y006973D01*
X077482Y006941D01*
X077494Y006908D01*
X077502Y006874D01*
X077506Y006839D01*
X077506Y006803D01*
X077502Y006768D01*
X077494Y006734D01*
X077482Y006701D01*
X077467Y006669D01*
X077449Y006639D01*
X077427Y006611D01*
X077403Y006586D01*
X077376Y006563D01*
X077346Y006544D01*
X077315Y006528D01*
X077282Y006516D01*
X077247Y006507D01*
X077212Y006502D01*
X077177Y006501D01*
X077142Y006504D01*
X077107Y006511D01*
X077074Y006521D01*
X077042Y006535D01*
X077011Y006553D01*
X076983Y006574D01*
X076957Y006598D01*
X076933Y006624D01*
X076913Y006653D01*
X076897Y006684D01*
X076883Y006717D01*
X076874Y006751D01*
X076868Y006786D01*
X076866Y006821D01*
X079357Y006447D02*
X079495Y006447D01*
X079495Y006329D01*
X079397Y006427D01*
X079436Y006427D01*
X079456Y006408D01*
X079456Y006427D01*
X079357Y006427D02*
X079475Y006309D01*
X079357Y006427D02*
X079357Y006447D01*
X079357Y007333D01*
X079397Y007372D01*
X079515Y007372D01*
X080026Y007372D02*
X080184Y007372D01*
X080696Y007372D02*
X080774Y007372D01*
X080814Y007333D01*
X080814Y006349D01*
X080774Y006309D01*
X080696Y006309D01*
X080184Y006309D02*
X079987Y006309D01*
X079766Y006821D02*
X079768Y006856D01*
X079774Y006891D01*
X079783Y006925D01*
X079797Y006958D01*
X079813Y006989D01*
X079833Y007018D01*
X079857Y007044D01*
X079883Y007068D01*
X079911Y007089D01*
X079942Y007107D01*
X079974Y007121D01*
X080007Y007131D01*
X080042Y007138D01*
X080077Y007141D01*
X080112Y007140D01*
X080147Y007135D01*
X080182Y007126D01*
X080215Y007114D01*
X080246Y007098D01*
X080276Y007079D01*
X080303Y007056D01*
X080327Y007031D01*
X080349Y007003D01*
X080367Y006973D01*
X080382Y006941D01*
X080394Y006908D01*
X080402Y006874D01*
X080406Y006839D01*
X080406Y006803D01*
X080402Y006768D01*
X080394Y006734D01*
X080382Y006701D01*
X080367Y006669D01*
X080349Y006639D01*
X080327Y006611D01*
X080303Y006586D01*
X080276Y006563D01*
X080246Y006544D01*
X080215Y006528D01*
X080182Y006516D01*
X080147Y006507D01*
X080112Y006502D01*
X080077Y006501D01*
X080042Y006504D01*
X080007Y006511D01*
X079974Y006521D01*
X079942Y006535D01*
X079911Y006553D01*
X079883Y006574D01*
X079857Y006598D01*
X079833Y006624D01*
X079813Y006653D01*
X079797Y006684D01*
X079783Y006717D01*
X079774Y006751D01*
X079768Y006786D01*
X079766Y006821D01*
X082257Y006447D02*
X082395Y006447D01*
X082395Y006329D01*
X082297Y006427D01*
X082336Y006427D01*
X082356Y006408D01*
X082356Y006427D01*
X082257Y006427D02*
X082375Y006309D01*
X082257Y006427D02*
X082257Y006447D01*
X082257Y007333D01*
X082297Y007372D01*
X082415Y007372D01*
X082926Y007372D02*
X083084Y007372D01*
X083596Y007372D02*
X083674Y007372D01*
X083714Y007333D01*
X083714Y006349D01*
X083674Y006309D01*
X083596Y006309D01*
X083084Y006309D02*
X082887Y006309D01*
X082666Y006821D02*
X082668Y006856D01*
X082674Y006891D01*
X082683Y006925D01*
X082697Y006958D01*
X082713Y006989D01*
X082733Y007018D01*
X082757Y007044D01*
X082783Y007068D01*
X082811Y007089D01*
X082842Y007107D01*
X082874Y007121D01*
X082907Y007131D01*
X082942Y007138D01*
X082977Y007141D01*
X083012Y007140D01*
X083047Y007135D01*
X083082Y007126D01*
X083115Y007114D01*
X083146Y007098D01*
X083176Y007079D01*
X083203Y007056D01*
X083227Y007031D01*
X083249Y007003D01*
X083267Y006973D01*
X083282Y006941D01*
X083294Y006908D01*
X083302Y006874D01*
X083306Y006839D01*
X083306Y006803D01*
X083302Y006768D01*
X083294Y006734D01*
X083282Y006701D01*
X083267Y006669D01*
X083249Y006639D01*
X083227Y006611D01*
X083203Y006586D01*
X083176Y006563D01*
X083146Y006544D01*
X083115Y006528D01*
X083082Y006516D01*
X083047Y006507D01*
X083012Y006502D01*
X082977Y006501D01*
X082942Y006504D01*
X082907Y006511D01*
X082874Y006521D01*
X082842Y006535D01*
X082811Y006553D01*
X082783Y006574D01*
X082757Y006598D01*
X082733Y006624D01*
X082713Y006653D01*
X082697Y006684D01*
X082683Y006717D01*
X082674Y006751D01*
X082668Y006786D01*
X082666Y006821D01*
X085157Y006447D02*
X085295Y006447D01*
X085295Y006329D01*
X085197Y006427D01*
X085236Y006427D01*
X085256Y006408D01*
X085256Y006427D01*
X085157Y006427D02*
X085275Y006309D01*
X085157Y006427D02*
X085157Y006447D01*
X085157Y007333D01*
X085197Y007372D01*
X085315Y007372D01*
X085826Y007372D02*
X085984Y007372D01*
X086496Y007372D02*
X086574Y007372D01*
X086614Y007333D01*
X086614Y006349D01*
X086574Y006309D01*
X086496Y006309D01*
X085984Y006309D02*
X085787Y006309D01*
X085566Y006821D02*
X085568Y006856D01*
X085574Y006891D01*
X085583Y006925D01*
X085597Y006958D01*
X085613Y006989D01*
X085633Y007018D01*
X085657Y007044D01*
X085683Y007068D01*
X085711Y007089D01*
X085742Y007107D01*
X085774Y007121D01*
X085807Y007131D01*
X085842Y007138D01*
X085877Y007141D01*
X085912Y007140D01*
X085947Y007135D01*
X085982Y007126D01*
X086015Y007114D01*
X086046Y007098D01*
X086076Y007079D01*
X086103Y007056D01*
X086127Y007031D01*
X086149Y007003D01*
X086167Y006973D01*
X086182Y006941D01*
X086194Y006908D01*
X086202Y006874D01*
X086206Y006839D01*
X086206Y006803D01*
X086202Y006768D01*
X086194Y006734D01*
X086182Y006701D01*
X086167Y006669D01*
X086149Y006639D01*
X086127Y006611D01*
X086103Y006586D01*
X086076Y006563D01*
X086046Y006544D01*
X086015Y006528D01*
X085982Y006516D01*
X085947Y006507D01*
X085912Y006502D01*
X085877Y006501D01*
X085842Y006504D01*
X085807Y006511D01*
X085774Y006521D01*
X085742Y006535D01*
X085711Y006553D01*
X085683Y006574D01*
X085657Y006598D01*
X085633Y006624D01*
X085613Y006653D01*
X085597Y006684D01*
X085583Y006717D01*
X085574Y006751D01*
X085568Y006786D01*
X085566Y006821D01*
X088057Y006447D02*
X088195Y006447D01*
X088195Y006329D01*
X088097Y006427D01*
X088136Y006427D01*
X088156Y006408D01*
X088156Y006427D01*
X088057Y006427D02*
X088175Y006309D01*
X088057Y006427D02*
X088057Y006447D01*
X088057Y007333D01*
X088097Y007372D01*
X088215Y007372D01*
X088726Y007372D02*
X088884Y007372D01*
X089396Y007372D02*
X089474Y007372D01*
X089514Y007333D01*
X089514Y006349D01*
X089474Y006309D01*
X089396Y006309D01*
X088884Y006309D02*
X088687Y006309D01*
X088466Y006821D02*
X088468Y006856D01*
X088474Y006891D01*
X088483Y006925D01*
X088497Y006958D01*
X088513Y006989D01*
X088533Y007018D01*
X088557Y007044D01*
X088583Y007068D01*
X088611Y007089D01*
X088642Y007107D01*
X088674Y007121D01*
X088707Y007131D01*
X088742Y007138D01*
X088777Y007141D01*
X088812Y007140D01*
X088847Y007135D01*
X088882Y007126D01*
X088915Y007114D01*
X088946Y007098D01*
X088976Y007079D01*
X089003Y007056D01*
X089027Y007031D01*
X089049Y007003D01*
X089067Y006973D01*
X089082Y006941D01*
X089094Y006908D01*
X089102Y006874D01*
X089106Y006839D01*
X089106Y006803D01*
X089102Y006768D01*
X089094Y006734D01*
X089082Y006701D01*
X089067Y006669D01*
X089049Y006639D01*
X089027Y006611D01*
X089003Y006586D01*
X088976Y006563D01*
X088946Y006544D01*
X088915Y006528D01*
X088882Y006516D01*
X088847Y006507D01*
X088812Y006502D01*
X088777Y006501D01*
X088742Y006504D01*
X088707Y006511D01*
X088674Y006521D01*
X088642Y006535D01*
X088611Y006553D01*
X088583Y006574D01*
X088557Y006598D01*
X088533Y006624D01*
X088513Y006653D01*
X088497Y006684D01*
X088483Y006717D01*
X088474Y006751D01*
X088468Y006786D01*
X088466Y006821D01*
X090957Y006447D02*
X091095Y006447D01*
X091095Y006329D01*
X090997Y006427D01*
X091036Y006427D01*
X091056Y006408D01*
X091056Y006427D01*
X090957Y006427D02*
X091075Y006309D01*
X090957Y006427D02*
X090957Y006447D01*
X090957Y007333D01*
X090997Y007372D01*
X091115Y007372D01*
X091626Y007372D02*
X091784Y007372D01*
X092296Y007372D02*
X092374Y007372D01*
X092414Y007333D01*
X092414Y006349D01*
X092374Y006309D01*
X092296Y006309D01*
X091784Y006309D02*
X091587Y006309D01*
X091366Y006821D02*
X091368Y006856D01*
X091374Y006891D01*
X091383Y006925D01*
X091397Y006958D01*
X091413Y006989D01*
X091433Y007018D01*
X091457Y007044D01*
X091483Y007068D01*
X091511Y007089D01*
X091542Y007107D01*
X091574Y007121D01*
X091607Y007131D01*
X091642Y007138D01*
X091677Y007141D01*
X091712Y007140D01*
X091747Y007135D01*
X091782Y007126D01*
X091815Y007114D01*
X091846Y007098D01*
X091876Y007079D01*
X091903Y007056D01*
X091927Y007031D01*
X091949Y007003D01*
X091967Y006973D01*
X091982Y006941D01*
X091994Y006908D01*
X092002Y006874D01*
X092006Y006839D01*
X092006Y006803D01*
X092002Y006768D01*
X091994Y006734D01*
X091982Y006701D01*
X091967Y006669D01*
X091949Y006639D01*
X091927Y006611D01*
X091903Y006586D01*
X091876Y006563D01*
X091846Y006544D01*
X091815Y006528D01*
X091782Y006516D01*
X091747Y006507D01*
X091712Y006502D01*
X091677Y006501D01*
X091642Y006504D01*
X091607Y006511D01*
X091574Y006521D01*
X091542Y006535D01*
X091511Y006553D01*
X091483Y006574D01*
X091457Y006598D01*
X091433Y006624D01*
X091413Y006653D01*
X091397Y006684D01*
X091383Y006717D01*
X091374Y006751D01*
X091368Y006786D01*
X091366Y006821D01*
X086554Y010324D02*
X086554Y010639D01*
X086476Y010639D01*
X086397Y010560D01*
X086318Y010560D01*
X086240Y010639D01*
X086161Y010639D01*
X086082Y010560D01*
X086003Y010560D01*
X085925Y010639D01*
X085846Y010639D01*
X085767Y010560D01*
X085688Y010560D01*
X085610Y010639D01*
X085531Y010639D01*
X085452Y010560D01*
X085373Y010560D01*
X085295Y010639D01*
X085216Y010639D01*
X085216Y010324D01*
X085295Y010324D01*
X085373Y010402D01*
X085452Y010402D01*
X085531Y010324D01*
X085610Y010324D01*
X085688Y010402D01*
X085767Y010402D01*
X085846Y010324D01*
X085925Y010324D01*
X086003Y010402D01*
X086082Y010402D01*
X086161Y010324D01*
X086240Y010324D01*
X086318Y010402D01*
X086397Y010402D01*
X086476Y010324D01*
X086554Y010324D01*
X082754Y010211D02*
X082756Y010234D01*
X082762Y010257D01*
X082771Y010278D01*
X082784Y010298D01*
X082800Y010315D01*
X082818Y010329D01*
X082838Y010340D01*
X082860Y010348D01*
X082883Y010352D01*
X082907Y010352D01*
X082930Y010348D01*
X082952Y010340D01*
X082972Y010329D01*
X082990Y010315D01*
X083006Y010298D01*
X083019Y010278D01*
X083028Y010257D01*
X083034Y010234D01*
X083036Y010211D01*
X083034Y010188D01*
X083028Y010165D01*
X083019Y010144D01*
X083006Y010124D01*
X082990Y010107D01*
X082972Y010093D01*
X082952Y010082D01*
X082930Y010074D01*
X082907Y010070D01*
X082883Y010070D01*
X082860Y010074D01*
X082838Y010082D01*
X082818Y010093D01*
X082800Y010107D01*
X082784Y010124D01*
X082771Y010144D01*
X082762Y010165D01*
X082756Y010188D01*
X082754Y010211D01*
X089061Y012219D02*
X089283Y011996D01*
X089339Y012052D01*
X089339Y012164D01*
X089395Y012219D01*
X089506Y012219D01*
X089562Y012275D01*
X089562Y012386D01*
X089617Y012442D01*
X089729Y012442D01*
X089784Y012498D01*
X089784Y012609D01*
X089840Y012665D01*
X089951Y012665D01*
X090007Y012720D01*
X090007Y012832D01*
X090063Y012887D01*
X090174Y012887D01*
X090230Y012943D01*
X090007Y013166D01*
X089951Y013110D01*
X089951Y012999D01*
X089896Y012943D01*
X089784Y012943D01*
X089729Y012887D01*
X089729Y012776D01*
X089673Y012720D01*
X089562Y012720D01*
X089506Y012665D01*
X089506Y012553D01*
X089450Y012498D01*
X089339Y012498D01*
X089283Y012442D01*
X089283Y012331D01*
X089228Y012275D01*
X089116Y012275D01*
X089061Y012219D01*
X092105Y011141D02*
X092605Y011141D01*
X092605Y014141D01*
X092105Y014141D01*
X092105Y014641D01*
X093805Y014641D01*
X093805Y010641D01*
X092105Y010641D01*
X092105Y011141D01*
X092105Y014141D01*
X089935Y014256D02*
X089935Y014406D01*
X089935Y014331D02*
X089485Y014331D01*
X089485Y014256D02*
X089485Y014406D01*
X089560Y014563D02*
X089860Y014563D01*
X089935Y014638D01*
X089935Y014788D01*
X089860Y014863D01*
X089860Y015023D02*
X089935Y015098D01*
X089935Y015249D01*
X089860Y015324D01*
X089785Y015324D01*
X089710Y015249D01*
X089710Y015173D01*
X089710Y015249D02*
X089635Y015324D01*
X089560Y015324D01*
X089485Y015249D01*
X089485Y015098D01*
X089560Y015023D01*
X089560Y014863D02*
X089485Y014788D01*
X089485Y014638D01*
X089560Y014563D01*
X089323Y016202D02*
X089323Y016281D01*
X089244Y016359D01*
X089244Y016438D01*
X089323Y016517D01*
X089323Y016596D01*
X089244Y016674D01*
X089244Y016753D01*
X089323Y016832D01*
X089323Y016910D01*
X089244Y016989D01*
X089244Y017068D01*
X089323Y017147D01*
X089323Y017225D01*
X089244Y017304D01*
X089244Y017383D01*
X089323Y017462D01*
X089323Y017540D01*
X089008Y017540D01*
X089008Y017462D01*
X089086Y017383D01*
X089086Y017304D01*
X089008Y017225D01*
X089008Y017147D01*
X089086Y017068D01*
X089086Y016989D01*
X089008Y016910D01*
X089008Y016832D01*
X089086Y016753D01*
X089086Y016674D01*
X089008Y016596D01*
X089008Y016517D01*
X089086Y016438D01*
X089086Y016359D01*
X089008Y016281D01*
X089008Y016202D01*
X089323Y016202D01*
X081255Y017046D02*
X081176Y017046D01*
X081255Y017046D02*
X081255Y017676D01*
X081176Y017676D01*
X080195Y017367D02*
X080195Y017289D01*
X080038Y017289D01*
X080117Y017367D01*
X080117Y017210D01*
X080195Y017289D01*
X080117Y017367D01*
X080038Y017367D01*
X080038Y017289D01*
X080117Y017210D01*
X080038Y017210D01*
X080038Y017289D01*
X080117Y017367D02*
X080195Y017367D01*
X080195Y017289D02*
X080195Y017210D01*
X080117Y017210D01*
X080074Y017046D02*
X079995Y017046D01*
X079995Y017676D01*
X080074Y017676D01*
X074761Y019668D02*
X074763Y019697D01*
X074769Y019725D01*
X074778Y019752D01*
X074791Y019778D01*
X074807Y019801D01*
X074827Y019823D01*
X074848Y019841D01*
X074873Y019857D01*
X074899Y019869D01*
X074926Y019877D01*
X074954Y019882D01*
X074983Y019883D01*
X075012Y019880D01*
X075040Y019873D01*
X075067Y019863D01*
X075092Y019849D01*
X075115Y019832D01*
X075135Y019812D01*
X075153Y019790D01*
X075168Y019765D01*
X075179Y019739D01*
X075187Y019711D01*
X075191Y019682D01*
X075191Y019654D01*
X075187Y019625D01*
X075179Y019597D01*
X075168Y019571D01*
X075153Y019546D01*
X075135Y019524D01*
X075115Y019504D01*
X075092Y019487D01*
X075067Y019473D01*
X075040Y019463D01*
X075012Y019456D01*
X074983Y019453D01*
X074954Y019454D01*
X074926Y019459D01*
X074899Y019467D01*
X074873Y019479D01*
X074848Y019495D01*
X074827Y019513D01*
X074807Y019535D01*
X074791Y019558D01*
X074778Y019584D01*
X074769Y019611D01*
X074763Y019639D01*
X074761Y019668D01*
X072229Y018980D02*
X072229Y013861D01*
X061638Y013861D01*
X061638Y018980D01*
X072229Y018980D01*
X063465Y018941D02*
X063465Y013901D01*
X088285Y020471D02*
X088785Y020471D01*
X088785Y020971D01*
X091785Y020971D01*
X091785Y020471D01*
X088785Y020471D01*
X088285Y020471D02*
X088285Y022171D01*
X092285Y022171D01*
X092285Y020471D01*
X091785Y020471D01*
X075770Y021341D02*
X075772Y021370D01*
X075778Y021398D01*
X075787Y021425D01*
X075800Y021451D01*
X075816Y021474D01*
X075836Y021496D01*
X075857Y021514D01*
X075882Y021530D01*
X075908Y021542D01*
X075935Y021550D01*
X075963Y021555D01*
X075992Y021556D01*
X076021Y021553D01*
X076049Y021546D01*
X076076Y021536D01*
X076101Y021522D01*
X076124Y021505D01*
X076144Y021485D01*
X076162Y021463D01*
X076177Y021438D01*
X076188Y021412D01*
X076196Y021384D01*
X076200Y021355D01*
X076200Y021327D01*
X076196Y021298D01*
X076188Y021270D01*
X076177Y021244D01*
X076162Y021219D01*
X076144Y021197D01*
X076124Y021177D01*
X076101Y021160D01*
X076076Y021146D01*
X076049Y021136D01*
X076021Y021129D01*
X075992Y021126D01*
X075963Y021127D01*
X075935Y021132D01*
X075908Y021140D01*
X075882Y021152D01*
X075857Y021168D01*
X075836Y021186D01*
X075816Y021208D01*
X075800Y021231D01*
X075787Y021257D01*
X075778Y021284D01*
X075772Y021312D01*
X075770Y021341D01*
X073819Y021342D02*
X073821Y021371D01*
X073827Y021399D01*
X073836Y021426D01*
X073849Y021452D01*
X073865Y021475D01*
X073885Y021497D01*
X073906Y021515D01*
X073931Y021531D01*
X073957Y021543D01*
X073984Y021551D01*
X074012Y021556D01*
X074041Y021557D01*
X074070Y021554D01*
X074098Y021547D01*
X074125Y021537D01*
X074150Y021523D01*
X074173Y021506D01*
X074193Y021486D01*
X074211Y021464D01*
X074226Y021439D01*
X074237Y021413D01*
X074245Y021385D01*
X074249Y021356D01*
X074249Y021328D01*
X074245Y021299D01*
X074237Y021271D01*
X074226Y021245D01*
X074211Y021220D01*
X074193Y021198D01*
X074173Y021178D01*
X074150Y021161D01*
X074125Y021147D01*
X074098Y021137D01*
X074070Y021130D01*
X074041Y021127D01*
X074012Y021128D01*
X073984Y021133D01*
X073957Y021141D01*
X073931Y021153D01*
X073906Y021169D01*
X073885Y021187D01*
X073865Y021209D01*
X073849Y021232D01*
X073836Y021258D01*
X073827Y021285D01*
X073821Y021313D01*
X073819Y021342D01*
X019400Y011611D02*
X019400Y011552D01*
X019400Y011611D02*
X018711Y011611D01*
X018711Y011178D01*
X019400Y011159D02*
X019400Y010804D01*
X019066Y010529D02*
X019068Y010548D01*
X019073Y010567D01*
X019083Y010583D01*
X019095Y010598D01*
X019110Y010610D01*
X019126Y010620D01*
X019145Y010625D01*
X019164Y010627D01*
X019183Y010625D01*
X019202Y010620D01*
X019218Y010610D01*
X019233Y010598D01*
X019245Y010583D01*
X019255Y010567D01*
X019260Y010548D01*
X019262Y010529D01*
X019260Y010510D01*
X019255Y010491D01*
X019245Y010475D01*
X019233Y010460D01*
X019218Y010448D01*
X019202Y010438D01*
X019183Y010433D01*
X019164Y010431D01*
X019145Y010433D01*
X019126Y010438D01*
X019110Y010448D01*
X019095Y010460D01*
X019083Y010475D01*
X019073Y010491D01*
X019068Y010510D01*
X019066Y010529D01*
X019400Y010411D02*
X019400Y010351D01*
X018711Y010351D01*
X018711Y010785D01*
D15*
X021095Y011122D02*
X021095Y011252D01*
X021138Y011295D01*
X021225Y011295D01*
X021268Y011252D01*
X021268Y011122D01*
X021268Y011209D02*
X021355Y011295D01*
X021355Y011122D02*
X021095Y011122D01*
X021225Y011416D02*
X021225Y011590D01*
X021095Y011547D02*
X021225Y011416D01*
X021355Y011547D02*
X021095Y011547D01*
X068875Y012471D02*
X068875Y012731D01*
X069005Y012731D01*
X069049Y012688D01*
X069049Y012601D01*
X069005Y012558D01*
X068875Y012558D01*
X068962Y012558D02*
X069049Y012471D01*
X069170Y012514D02*
X069213Y012471D01*
X069300Y012471D01*
X069343Y012514D01*
X069343Y012558D01*
X069300Y012601D01*
X069257Y012601D01*
X069300Y012601D02*
X069343Y012645D01*
X069343Y012688D01*
X069300Y012731D01*
X069213Y012731D01*
X069170Y012688D01*
X082795Y012601D02*
X082795Y012514D01*
X082838Y012471D01*
X083012Y012471D01*
X083055Y012514D01*
X083055Y012601D01*
X083012Y012645D01*
X083055Y012766D02*
X083055Y012939D01*
X083055Y012852D02*
X082795Y012852D01*
X082882Y012766D01*
X082838Y012645D02*
X082795Y012601D01*
X082838Y013060D02*
X082795Y013104D01*
X082795Y013190D01*
X082838Y013234D01*
X082882Y013234D01*
X083055Y013060D01*
X083055Y013234D01*
X090062Y014199D02*
X090062Y015967D01*
X090063Y015984D01*
X090068Y016001D01*
X090075Y016016D01*
X090085Y016030D01*
X090097Y016042D01*
X090111Y016052D01*
X090126Y016059D01*
X090143Y016064D01*
X090160Y016065D01*
X090164Y016065D02*
X090215Y016065D01*
X090459Y016065D02*
X090711Y016065D01*
X090959Y016065D02*
X091211Y016065D01*
X091459Y016065D02*
X091711Y016065D01*
X091955Y016065D02*
X092014Y016065D01*
X092010Y016065D02*
X092027Y016064D01*
X092044Y016059D01*
X092059Y016052D01*
X092073Y016042D01*
X092085Y016030D01*
X092095Y016016D01*
X092102Y016001D01*
X092107Y015984D01*
X092108Y015967D01*
X092109Y015967D02*
X092109Y014195D01*
X092108Y014195D02*
X092107Y014178D01*
X092102Y014161D01*
X092095Y014146D01*
X092085Y014132D01*
X092073Y014120D01*
X092059Y014110D01*
X092044Y014103D01*
X092027Y014098D01*
X092010Y014097D01*
X092003Y014097D02*
X091951Y014097D01*
X091711Y014097D02*
X091455Y014097D01*
X091211Y014097D02*
X090955Y014097D01*
X090711Y014097D02*
X090459Y014097D01*
X090215Y014097D02*
X090164Y014097D01*
X090160Y014097D02*
X090143Y014098D01*
X090126Y014103D01*
X090111Y014110D01*
X090097Y014120D01*
X090085Y014132D01*
X090075Y014146D01*
X090068Y014161D01*
X090063Y014178D01*
X090062Y014195D01*
X091579Y012341D02*
X091536Y012298D01*
X091536Y012124D01*
X091579Y012081D01*
X091666Y012081D01*
X091709Y012124D01*
X091831Y012211D02*
X092004Y012211D01*
X091961Y012081D02*
X091961Y012341D01*
X091831Y012211D01*
X091709Y012298D02*
X091666Y012341D01*
X091579Y012341D01*
X074863Y016871D02*
X074690Y016871D01*
X074863Y017045D01*
X074863Y017088D01*
X074820Y017131D01*
X074733Y017131D01*
X074690Y017088D01*
X074569Y017088D02*
X074525Y017131D01*
X074439Y017131D01*
X074395Y017088D01*
X074395Y016914D01*
X074439Y016871D01*
X074525Y016871D01*
X074569Y016914D01*
X081886Y018574D02*
X081929Y018531D01*
X082016Y018531D01*
X082059Y018574D01*
X082181Y018531D02*
X082354Y018531D01*
X082267Y018531D02*
X082267Y018791D01*
X082181Y018705D01*
X082059Y018748D02*
X082016Y018791D01*
X081929Y018791D01*
X081886Y018748D01*
X081886Y018574D01*
X084815Y018467D02*
X085075Y018467D01*
X085075Y018380D02*
X085075Y018554D01*
X084902Y018380D02*
X084815Y018467D01*
X084815Y018172D02*
X085075Y018172D01*
X085075Y018086D02*
X085075Y018259D01*
X084902Y018086D02*
X084815Y018172D01*
X084858Y017965D02*
X084815Y017921D01*
X084815Y017834D01*
X084858Y017791D01*
X085032Y017791D01*
X085075Y017834D01*
X085075Y017921D01*
X085032Y017965D01*
D16*
X084482Y017499D02*
X084434Y017546D01*
X084387Y017546D01*
X084293Y017452D01*
X084293Y017405D01*
X084340Y017357D01*
X084387Y017357D01*
X084449Y017295D02*
X084449Y017248D01*
X084496Y017201D01*
X084544Y017201D01*
X084567Y017225D01*
X084567Y017272D01*
X084544Y017296D01*
X084567Y017272D02*
X084614Y017272D01*
X084638Y017295D01*
X084638Y017343D01*
X084591Y017390D01*
X084544Y017390D01*
X084482Y017452D02*
X084482Y017499D01*
X082418Y013961D02*
X082351Y013928D01*
X082284Y013861D01*
X082384Y013861D01*
X082418Y013828D01*
X082418Y013794D01*
X082384Y013761D01*
X082318Y013761D01*
X082284Y013794D01*
X082284Y013861D01*
X082197Y013794D02*
X082163Y013761D01*
X082097Y013761D01*
X082063Y013794D01*
X082063Y013928D01*
X082097Y013961D01*
X082163Y013961D01*
X082197Y013928D01*
X093125Y010354D02*
X093585Y010354D01*
X093585Y010201D02*
X093585Y010508D01*
X093278Y010201D02*
X093125Y010354D01*
X093125Y010047D02*
X093585Y009740D01*
X093585Y010047D02*
X093125Y009740D01*
X064945Y014901D02*
X064485Y014901D01*
X064638Y015055D01*
X064485Y015208D01*
X064945Y015208D01*
X064945Y015361D02*
X064945Y015668D01*
X064945Y015515D02*
X064485Y015515D01*
X064638Y015361D01*
X062993Y015771D02*
X062686Y015771D01*
X062532Y015925D01*
X062686Y016078D01*
X062993Y016078D01*
X062993Y016232D02*
X062532Y016232D01*
X062993Y016538D01*
X062532Y016538D01*
X062532Y016692D02*
X062532Y016999D01*
X062532Y016845D02*
X062993Y016845D01*
X062762Y016078D02*
X062762Y015771D01*
X092305Y021491D02*
X092612Y021951D01*
X092766Y021875D02*
X092842Y021951D01*
X092996Y021951D01*
X093072Y021875D01*
X093072Y021798D01*
X092766Y021491D01*
X093072Y021491D01*
X092612Y021491D02*
X092305Y021951D01*
D17*
X087297Y021850D02*
X087297Y020472D01*
X087100Y020472D01*
X083950Y020472D02*
X083754Y020472D01*
X083754Y021850D01*
X087297Y021850D01*
X084455Y018811D02*
X083155Y018811D01*
X082495Y018171D02*
X082495Y016871D01*
X081395Y016871D02*
X081395Y018171D01*
X079957Y018031D02*
X079957Y016771D01*
X078933Y016771D02*
X078933Y018031D01*
X083155Y017711D02*
X084455Y017711D01*
X084114Y017485D02*
X084609Y016990D01*
X083576Y015957D01*
X083081Y016452D01*
X084114Y017485D01*
X085854Y016922D02*
X086077Y016922D01*
X088526Y014472D01*
X088526Y014250D01*
X086077Y011800D01*
X085854Y011800D01*
X083404Y014250D01*
X083404Y014472D01*
X085854Y016922D01*
X082615Y015491D02*
X081915Y015491D01*
X081915Y014031D01*
X082615Y014031D01*
X082615Y015491D01*
X075715Y015591D02*
X074415Y015591D01*
X074415Y016691D02*
X075715Y016691D01*
X081135Y013491D02*
X082435Y013491D01*
X082435Y012391D02*
X081135Y012391D01*
X081622Y012282D02*
X081622Y012203D01*
X081622Y012282D02*
X083590Y012282D01*
X083590Y012203D01*
X090665Y012521D02*
X090665Y013221D01*
X092125Y013221D01*
X092125Y012521D01*
X090665Y012521D01*
X083590Y009959D02*
X083590Y009880D01*
X081622Y009880D01*
X081622Y009959D01*
X070275Y011591D02*
X070275Y012291D01*
X068815Y012291D01*
X068815Y011591D01*
X070275Y011591D01*
X020915Y011711D02*
X020915Y010251D01*
X020215Y010251D01*
X020215Y011711D01*
X020915Y011711D01*
D18*
X075179Y016141D03*
X083692Y018261D03*
X081672Y012941D03*
D19*
X085930Y017105D02*
X086017Y017192D01*
X085973Y017148D02*
X085712Y017410D01*
X085755Y017454D02*
X085668Y017366D01*
X085885Y017496D02*
X086060Y017322D01*
X086147Y017322D01*
X086234Y017409D01*
X086234Y017496D01*
X086364Y017539D02*
X086364Y017888D01*
X086320Y017931D01*
X086233Y017931D01*
X086146Y017844D01*
X086146Y017757D01*
X086060Y017671D02*
X085972Y017671D01*
X085885Y017584D01*
X085885Y017496D01*
X086364Y017539D02*
X086538Y017713D01*
X086155Y018926D02*
X085909Y018926D01*
X086155Y019173D01*
X086155Y019235D01*
X086094Y019296D01*
X085970Y019296D01*
X085909Y019235D01*
X085787Y019235D02*
X085725Y019296D01*
X085602Y019296D01*
X085540Y019235D01*
X085540Y019173D01*
X085602Y019111D01*
X085725Y019111D01*
X085787Y019050D01*
X085787Y018988D01*
X085725Y018926D01*
X085602Y018926D01*
X085540Y018988D01*
D20*
X081945Y017408D03*
D21*
X078897Y017626D02*
X078897Y017726D01*
X078897Y017774D02*
X078897Y017874D01*
X078897Y017824D02*
X078747Y017824D01*
X078797Y017774D01*
X078747Y017626D02*
X078897Y017626D01*
X080280Y018826D02*
X080280Y018976D01*
X080355Y018976D01*
X080380Y018951D01*
X080380Y018901D01*
X080355Y018876D01*
X080280Y018876D01*
X080330Y018876D02*
X080380Y018826D01*
X080428Y018826D02*
X080528Y018826D01*
X080478Y018826D02*
X080478Y018976D01*
X080428Y018926D01*
X080606Y015856D02*
X080681Y015856D01*
X080706Y015831D01*
X080706Y015781D01*
X080681Y015756D01*
X080606Y015756D01*
X080656Y015756D02*
X080706Y015706D01*
X080753Y015706D02*
X080853Y015806D01*
X080853Y015831D01*
X080828Y015856D01*
X080778Y015856D01*
X080753Y015831D01*
X080753Y015706D02*
X080853Y015706D01*
X080606Y015706D02*
X080606Y015856D01*
X084930Y011499D02*
X084930Y011399D01*
X085005Y011399D01*
X084980Y011449D01*
X084980Y011474D01*
X085005Y011499D01*
X085055Y011499D01*
X085080Y011474D01*
X085080Y011424D01*
X085055Y011399D01*
X085080Y011352D02*
X085030Y011301D01*
X085030Y011326D02*
X085030Y011251D01*
X085080Y011251D02*
X084930Y011251D01*
X084930Y011326D01*
X084955Y011352D01*
X085005Y011352D01*
X085030Y011326D01*
D22*
X080545Y016161D03*
X080625Y018521D03*
D23*
X084625Y011191D03*
D24*
X075637Y019932D02*
X075654Y019883D01*
X075668Y019832D01*
X075677Y019780D01*
X075683Y019728D01*
X075685Y019675D01*
X075683Y019623D01*
X075677Y019570D01*
X075667Y019519D01*
X075653Y019468D01*
X075636Y019418D01*
X075615Y019370D01*
X075590Y019323D01*
X075562Y019279D01*
X075531Y019237D01*
X075497Y019197D01*
X075459Y019160D01*
X075420Y019125D01*
X075377Y019094D01*
X075333Y019066D01*
X075286Y019042D01*
X075238Y019021D01*
X075188Y019003D01*
X075137Y018990D01*
X075086Y018980D01*
X075033Y018974D01*
X074981Y018972D01*
X074928Y018974D01*
X074876Y018980D01*
X074824Y018990D01*
X074773Y019003D01*
X074724Y019021D01*
X074676Y019042D01*
X074629Y019066D01*
X074584Y019094D01*
X074542Y019126D01*
X074502Y019160D01*
X074465Y019197D01*
X074431Y019237D01*
X074399Y019279D01*
X074371Y019324D01*
X074347Y019370D01*
X074326Y019419D01*
X074308Y019468D01*
X074295Y019519D01*
X074285Y019571D01*
X074279Y019623D01*
X074277Y019676D01*
X074279Y019728D01*
X074285Y019780D01*
X074295Y019832D01*
X074308Y019883D01*
X074325Y019933D01*
X074346Y019981D01*
X074371Y020027D01*
X074399Y020072D01*
X074430Y020114D01*
X074464Y020154D01*
X074502Y020192D01*
X074541Y020226D01*
X074584Y020257D01*
X074628Y020285D01*
X074675Y020310D01*
X074723Y020331D01*
X074773Y020348D01*
X074823Y020362D01*
X074875Y020372D01*
X074875Y020373D02*
X075175Y020871D01*
X075425Y020901D02*
X074825Y020901D01*
X074696Y021077D02*
X074956Y020579D01*
X074313Y019979D02*
X073933Y020637D01*
X075637Y019933D02*
X076017Y020591D01*
X075425Y020901D02*
X075460Y020861D01*
X075497Y020824D01*
X075537Y020790D01*
X075579Y020759D01*
X075624Y020731D01*
X075670Y020706D01*
X075719Y020685D01*
X075768Y020668D01*
X075819Y020654D01*
X075871Y020645D01*
X075923Y020639D01*
X075976Y020637D01*
X076028Y020639D01*
X076081Y020645D01*
X076132Y020655D01*
X076183Y020668D01*
X076233Y020686D01*
X076281Y020707D01*
X076327Y020732D01*
X076372Y020760D01*
X076414Y020791D01*
X076454Y020825D01*
X076491Y020862D01*
X076526Y020902D01*
X076557Y020945D01*
X076585Y020989D01*
X076609Y021036D01*
X076630Y021084D01*
X076648Y021134D01*
X076661Y021184D01*
X076671Y021236D01*
X076677Y021288D01*
X076679Y021341D01*
X076677Y021394D01*
X076671Y021446D01*
X076661Y021498D01*
X076648Y021548D01*
X076630Y021598D01*
X076609Y021646D01*
X076585Y021693D01*
X076557Y021737D01*
X076526Y021780D01*
X076491Y021820D01*
X076454Y021857D01*
X076414Y021891D01*
X076372Y021922D01*
X076327Y021950D01*
X076281Y021975D01*
X076233Y021996D01*
X076183Y022014D01*
X076132Y022027D01*
X076081Y022037D01*
X076028Y022043D01*
X075976Y022045D01*
X075923Y022043D01*
X075871Y022037D01*
X075819Y022028D01*
X075768Y022014D01*
X075719Y021997D01*
X075670Y021976D01*
X075624Y021951D01*
X075579Y021923D01*
X075537Y021892D01*
X075497Y021858D01*
X075460Y021821D01*
X075425Y021781D01*
X074625Y021781D01*
X074695Y021077D02*
X074712Y021126D01*
X074726Y021177D01*
X074735Y021229D01*
X074741Y021281D01*
X074743Y021334D01*
X074741Y021386D01*
X074735Y021439D01*
X074725Y021490D01*
X074711Y021541D01*
X074694Y021591D01*
X074673Y021639D01*
X074648Y021686D01*
X074620Y021730D01*
X074589Y021772D01*
X074555Y021812D01*
X074517Y021849D01*
X074478Y021884D01*
X074435Y021915D01*
X074391Y021943D01*
X074344Y021967D01*
X074296Y021988D01*
X074246Y022006D01*
X074195Y022019D01*
X074144Y022029D01*
X074091Y022035D01*
X074039Y022037D01*
X073986Y022035D01*
X073934Y022029D01*
X073882Y022019D01*
X073831Y022006D01*
X073782Y021988D01*
X073734Y021967D01*
X073687Y021943D01*
X073642Y021915D01*
X073600Y021883D01*
X073560Y021849D01*
X073523Y021812D01*
X073489Y021772D01*
X073457Y021730D01*
X073429Y021685D01*
X073405Y021639D01*
X073384Y021590D01*
X073366Y021541D01*
X073353Y021490D01*
X073343Y021438D01*
X073337Y021386D01*
X073335Y021333D01*
X073337Y021281D01*
X073343Y021229D01*
X073353Y021177D01*
X073366Y021126D01*
X073383Y021076D01*
X073404Y021028D01*
X073429Y020982D01*
X073457Y020937D01*
X073488Y020895D01*
X073522Y020855D01*
X073560Y020817D01*
X073599Y020783D01*
X073642Y020752D01*
X073686Y020724D01*
X073733Y020699D01*
X073781Y020678D01*
X073831Y020661D01*
X073881Y020647D01*
X073933Y020637D01*
M02*
