%
M48
M72
T01C0.0160
T02C0.0170
T03C0.0200
T04C0.0236
T05C0.0300
T06C0.0315
T07C0.0354
T08C0.0400
T09C0.0700
T10C0.1500
T11C0.2500
%
T01
X21665Y11381
X62665Y12461
X64425Y11941
X65025Y11941
X63785Y13021
X72345Y12781
X72825Y12781
X72825Y13181
X72665Y12381
X71265Y10461
X71705Y9901
X71265Y9821
X72185Y9981
X82025Y8541
X82425Y8301
X83945Y8301
X87545Y7421
X86825Y6221
X90265Y8621
X88265Y9581
X92585Y10221
X83465Y9821
X83065Y10861
X83065Y11741
X86305Y12341
X86585Y12701
X86825Y13021
X87145Y13261
X84905Y13181
X83145Y12861
X83545Y12621
X81785Y13101
X89785Y14741
X92605Y16181
X89165Y16421
X89185Y16821
X89185Y17241
X89225Y17741
X86705Y17941
X86665Y18381
X81385Y17501
X85865Y16221
X81385Y16061
X71225Y16141
X71225Y16701
X71225Y17341
X71225Y15581
X88185Y19781
T02
X79305Y9661
X81465Y9181
X78505Y9021
X76425Y9501
X75625Y8861
X73225Y9341
X68905Y9261
X67785Y9661
X64985Y9501
X66985Y9021
X64105Y8861
X61705Y9341
X57305Y9181
X56025Y9661
X55225Y9021
X53145Y9501
X50185Y9341
X52265Y8861
X45545Y9181
X43705Y9021
X41625Y9501
X44505Y9661
X40825Y8861
X38425Y9341
X34105Y9181
X32745Y9661
X29865Y9501
X31945Y9021
X29065Y8861
X27065Y9341
X22585Y9181
X21305Y9661
X20505Y9021
X18345Y9501
X17545Y8861
X15545Y9341
X12505Y9181
X10425Y9501
X9065Y9021
X7305Y9341
X5865Y8861
X4665Y8861
X2825Y8221
X2199Y6880
X3952Y6682
X5099Y6880
X6852Y6682
X7999Y6880
X9752Y6682
X10899Y6880
X12652Y6682
X13799Y6880
X15552Y6682
X16699Y6880
X18452Y6682
X19599Y6880
X21352Y6682
X22499Y6880
X24252Y6682
X25399Y6880
X27152Y6682
X28299Y6880
X30052Y6682
X31199Y6880
X32952Y6682
X32819Y6160
X29919Y6160
X27019Y6160
X24585Y5421
X27065Y5261
X29945Y5101
X32825Y4941
X36265Y5421
X38585Y5261
X41465Y5101
X44185Y4941
X47705Y5421
X47219Y6160
X47352Y6682
X48499Y6880
X50252Y6682
X51399Y6880
X53252Y6682
X54399Y6880
X56152Y6682
X57299Y6880
X59052Y6682
X60199Y6880
X61952Y6682
X63099Y6880
X64852Y6682
X64719Y6160
X61819Y6160
X61819Y5295
X64665Y5101
X67465Y4941
X70985Y5421
X70519Y6170
X70652Y6692
X71799Y6890
X73552Y6682
X74699Y6880
X76452Y6682
X77599Y6880
X79352Y6682
X80499Y6880
X82252Y6682
X83399Y6880
X85152Y6682
X86299Y6880
X88052Y6682
X89199Y6880
X90952Y6682
X92099Y6880
X90819Y6160
X87919Y6160
X85019Y6160
X82585Y5661
X82119Y6160
X79219Y6160
X76319Y6160
X73419Y6160
X73465Y5261
X76185Y5101
X79145Y4941
X68899Y6880
X67752Y6682
X65999Y6880
X67619Y6160
X59385Y5421
X58919Y6160
X56019Y6160
X53119Y6160
X50119Y6160
X50025Y5261
X53145Y5101
X55945Y4941
X45599Y6880
X44452Y6682
X42799Y6880
X41652Y6682
X41519Y6160
X44319Y6160
X39899Y6880
X38752Y6682
X38619Y6160
X36999Y6880
X35852Y6682
X34099Y6880
X35719Y6160
X24119Y6160
X21219Y6160
X18319Y6160
X15419Y6160
X12905Y5421
X10905Y4941
X7945Y5101
X5145Y5261
X1225Y5621
X919Y6160
X1052Y6682
X3819Y6160
X6719Y6160
X9619Y6160
X12519Y6160
X15465Y5261
X18185Y5101
X20985Y4941
X85065Y9341
X87225Y8861
X88265Y8861
X89385Y8381
T03
X85905Y12501
X86185Y15461
X85305Y15821
T04
X84675Y13941
X84215Y13941
X82325Y12121
X82060Y11701
T05
X83005Y8081
X80105Y8081
X77205Y8081
X74305Y8081
X71405Y8091
X68505Y8081
X65605Y8081
X62705Y8081
X59805Y8081
X56905Y8081
X54005Y8081
X51005Y8081
X48105Y8081
X45205Y8081
X42405Y8081
X39505Y8081
X36605Y8081
X33705Y8081
X30805Y8081
X27905Y8081
X25005Y8081
X22105Y8081
X19205Y8081
X16305Y8081
X13405Y8081
X10505Y8081
X7605Y8081
X4705Y8081
X1805Y8081
X85905Y8081
X88805Y8081
X91705Y8081
T06
X85465Y13661
X84265Y14701
X80425Y14461
X79225Y15151
X76985Y14781
X82465Y16061
X83065Y16881
X83785Y18941
T07
X85405Y18251
X84128Y21161
X86923Y21161
T08
X88785Y21521
X89785Y21421
X90785Y21521
X91785Y21421
X93155Y14141
X93055Y13141
X93155Y12141
X93055Y11141
T09
X91085Y11741
X88085Y11741
X77285Y11741
X74285Y11741
X74285Y17881
X77285Y17881
X88085Y17881
X91085Y17881
T10
X62935Y19351
T11
X3025Y4261
X3145Y9821
X94105Y6861
X94165Y20161
M30
