G75*
G70*
%OFA0B0*%
%FSLAX24Y24*%
%IPPOS*%
%LPD*%
%AMOC8*
5,1,8,0,0,1.08239X$1,22.5*
%
%ADD10C,0.1200*%
%ADD11R,0.0740X0.0740*%
%ADD12C,0.0740*%
%ADD13R,0.0472X0.0551*%
%ADD14C,0.0560*%
%ADD15C,0.0475*%
%ADD16C,0.0360*%
%ADD17C,0.0160*%
%ADD18C,0.0200*%
%ADD19C,0.0320*%
%ADD20C,0.0510*%
%ADD21C,0.0450*%
%ADD22C,0.0650*%
%ADD23C,0.0300*%
%ADD24C,0.0080*%
%ADD25C,0.0660*%
%ADD26C,0.0500*%
%ADD27C,0.0396*%
%ADD28C,0.0400*%
%ADD29C,0.0436*%
%ADD30C,0.0100*%
%ADD31C,0.0140*%
%ADD32C,0.0591*%
D10*
X074265Y011046D03*
X077265Y011046D03*
X088065Y011046D03*
X091065Y011046D03*
X091065Y017546D03*
X088065Y017546D03*
X077265Y017546D03*
X074265Y017546D03*
D11*
X088445Y021046D03*
X093135Y015366D03*
D12*
X093035Y014366D03*
X093135Y013366D03*
X093035Y012366D03*
X091445Y020946D03*
X090445Y021046D03*
X089445Y020946D03*
X092445Y021046D03*
D13*
X092575Y007106D03*
X093245Y007106D03*
X090285Y007106D03*
X089615Y007106D03*
X087325Y007106D03*
X086655Y007106D03*
X084365Y007106D03*
X083695Y007106D03*
X081405Y007106D03*
X080735Y007106D03*
X078445Y007106D03*
X077775Y007106D03*
X075485Y007106D03*
X074815Y007106D03*
X072525Y007106D03*
X071855Y007106D03*
X069565Y007106D03*
X068895Y007106D03*
X066605Y007106D03*
X065935Y007106D03*
X063645Y007106D03*
X062975Y007106D03*
X060685Y007106D03*
X060015Y007106D03*
X057725Y007106D03*
X057055Y007106D03*
X054765Y007106D03*
X054095Y007106D03*
X051885Y007106D03*
X051215Y007106D03*
X049005Y007106D03*
X048335Y007106D03*
X046125Y007106D03*
X045455Y007106D03*
X043245Y007106D03*
X042575Y007106D03*
X040365Y007106D03*
X039695Y007106D03*
X037405Y007106D03*
X036735Y007106D03*
X034445Y007106D03*
X033775Y007106D03*
X031485Y007106D03*
X030815Y007106D03*
X028525Y007106D03*
X027855Y007106D03*
X025565Y007106D03*
X024895Y007106D03*
X022605Y007106D03*
X021935Y007106D03*
X019645Y007106D03*
X018975Y007106D03*
X016685Y007106D03*
X016015Y007106D03*
X013725Y007106D03*
X013055Y007106D03*
X010765Y007106D03*
X010095Y007106D03*
X007805Y007106D03*
X007135Y007106D03*
X004845Y007106D03*
X004175Y007106D03*
X001885Y007106D03*
X001215Y007106D03*
X001215Y005866D03*
X001885Y005866D03*
X004175Y005866D03*
X004845Y005866D03*
X007135Y005866D03*
X007805Y005866D03*
X010095Y005866D03*
X010765Y005866D03*
X013055Y005866D03*
X013725Y005866D03*
X016015Y005866D03*
X016685Y005866D03*
X018975Y005866D03*
X019645Y005866D03*
X021935Y005866D03*
X022605Y005866D03*
X024895Y005866D03*
X025565Y005866D03*
X027855Y005866D03*
X028525Y005866D03*
X030815Y005866D03*
X031485Y005866D03*
X033775Y005866D03*
X034445Y005866D03*
X036735Y005866D03*
X037405Y005866D03*
X039695Y005866D03*
X040365Y005866D03*
X042575Y005866D03*
X043245Y005866D03*
X045455Y005866D03*
X046125Y005866D03*
X048335Y005866D03*
X049005Y005866D03*
X051215Y005866D03*
X051885Y005866D03*
X054095Y005866D03*
X054765Y005866D03*
X057055Y005866D03*
X057725Y005866D03*
X060015Y005866D03*
X060685Y005866D03*
X062975Y005866D03*
X063645Y005866D03*
X065935Y005866D03*
X066605Y005866D03*
X068895Y005866D03*
X069565Y005866D03*
X071855Y005866D03*
X072525Y005866D03*
X074815Y005866D03*
X075485Y005866D03*
X077775Y005866D03*
X078445Y005866D03*
X080735Y005866D03*
X081405Y005866D03*
X083695Y005866D03*
X084365Y005866D03*
X086655Y005866D03*
X087325Y005866D03*
X089615Y005866D03*
X090285Y005866D03*
X092575Y005866D03*
X093245Y005866D03*
D14*
X092925Y008086D03*
X089965Y008086D03*
X087005Y008086D03*
X084045Y008086D03*
X081085Y008086D03*
X078125Y008086D03*
X075165Y008086D03*
X072205Y008086D03*
X069245Y008086D03*
X066285Y008086D03*
X063325Y008086D03*
X060365Y008086D03*
X057405Y008086D03*
X054445Y008086D03*
X051565Y008086D03*
X048685Y008086D03*
X045805Y008086D03*
X042925Y008086D03*
X040045Y008086D03*
X037085Y008086D03*
X034125Y008086D03*
X031165Y008086D03*
X028205Y008086D03*
X025245Y008086D03*
X022285Y008086D03*
X019325Y008086D03*
X016365Y008086D03*
X013405Y008086D03*
X010445Y008086D03*
X007485Y008086D03*
X004525Y008086D03*
X001565Y008086D03*
D15*
X078805Y016046D03*
X081125Y016646D03*
X082805Y016146D03*
X082805Y018486D03*
X085045Y012966D03*
D16*
X086165Y014686D03*
X085285Y015126D03*
D17*
X085445Y014966D01*
X085445Y014686D01*
X086165Y014686D01*
X085445Y014686D02*
X085405Y014646D01*
X085405Y013326D01*
X085045Y012966D01*
X084845Y012526D02*
X084405Y012966D01*
X085045Y013606D01*
X085045Y013806D01*
X085045Y014486D01*
X084085Y013606D02*
X083525Y014166D01*
X079965Y014166D01*
X079845Y014046D01*
X079845Y013606D01*
X080085Y013366D01*
X080325Y013086D02*
X080245Y013006D01*
X076805Y013006D01*
X076205Y012406D01*
X076125Y012406D01*
X075685Y012846D01*
X075685Y012966D01*
X076285Y012126D02*
X076925Y012766D01*
X080485Y012766D01*
X080525Y012726D01*
X080325Y013086D02*
X080885Y013086D01*
X080845Y013446D02*
X080485Y013806D01*
X080165Y013806D01*
X081005Y013806D02*
X082005Y013806D01*
X083165Y012646D01*
X082725Y012206D01*
X082725Y012246D01*
X082685Y012646D02*
X082685Y012726D01*
X081965Y013446D01*
X080845Y013446D01*
X082925Y013406D02*
X083125Y013406D01*
X083565Y012966D01*
X084405Y012966D01*
X084245Y013246D02*
X083685Y013246D01*
X083125Y013806D01*
X083005Y013806D01*
X084245Y013246D02*
X084605Y013606D01*
X084605Y013646D01*
X084845Y012526D02*
X085245Y012526D01*
X076285Y012126D02*
X075885Y012126D01*
X075605Y012406D01*
X068245Y011366D02*
X066205Y011366D01*
X065645Y010806D01*
X021685Y010806D01*
X021125Y010246D01*
X019125Y010246D01*
X017845Y011526D01*
X024485Y010006D02*
X024485Y009446D01*
X023685Y008646D01*
X022605Y007766D02*
X022285Y008086D01*
X022005Y008086D01*
X021285Y007366D01*
X020325Y007366D01*
X019605Y008086D01*
X019325Y008086D01*
X019645Y007766D01*
X019645Y007106D01*
X019645Y006846D01*
X019285Y006486D01*
X018565Y006486D01*
X018405Y006326D01*
X017205Y006326D01*
X016965Y006566D01*
X016405Y006566D01*
X016685Y006846D01*
X016685Y007106D01*
X016685Y007766D01*
X016365Y008086D01*
X013725Y007766D02*
X013405Y008086D01*
X013725Y007766D02*
X013725Y007106D01*
X013845Y006986D01*
X013845Y006726D01*
X014005Y006566D01*
X016405Y006566D01*
X010765Y007106D02*
X010765Y007766D01*
X010445Y008086D01*
X010285Y007926D01*
X009765Y007926D01*
X009445Y007606D01*
X009445Y007366D01*
X009285Y007206D01*
X008565Y007206D01*
X007685Y008086D01*
X007485Y008086D01*
X007805Y007766D01*
X007805Y007106D01*
X007125Y008086D02*
X006245Y007206D01*
X005605Y007206D01*
X005045Y007766D01*
X004845Y007766D01*
X004525Y008086D01*
X004085Y008086D01*
X003365Y007366D01*
X002565Y007366D01*
X001845Y008086D01*
X001565Y008086D01*
X001885Y007766D01*
X001885Y007106D01*
X004845Y007106D02*
X004845Y007766D01*
X007125Y008086D02*
X007485Y008086D01*
X022605Y007766D02*
X022605Y007106D01*
X025565Y007106D02*
X025605Y006986D01*
X026005Y006566D01*
X026085Y006486D01*
X028965Y006486D01*
X031205Y006486D01*
X031485Y006766D01*
X031485Y007106D01*
X031485Y007766D01*
X031165Y008086D01*
X031365Y008086D01*
X032085Y007366D01*
X033125Y007366D01*
X033845Y008086D01*
X034125Y008086D01*
X034445Y007766D01*
X034445Y007106D01*
X037405Y007106D02*
X037525Y006986D01*
X037525Y006646D01*
X037925Y006246D01*
X038565Y006246D01*
X038805Y006486D01*
X040005Y006486D01*
X040165Y006646D01*
X040485Y006646D01*
X040965Y006166D01*
X041285Y006166D01*
X041605Y006486D01*
X042805Y006486D01*
X043245Y006926D01*
X043245Y007106D01*
X043385Y007286D01*
X044725Y007286D01*
X045465Y008026D01*
X045745Y008026D01*
X045805Y008086D01*
X046125Y007766D01*
X046125Y007106D01*
X049005Y007106D02*
X049045Y007066D01*
X049045Y006566D01*
X049125Y006486D01*
X049365Y006486D01*
X049605Y006246D01*
X050485Y006246D01*
X050725Y006486D01*
X051525Y006486D01*
X051565Y006526D01*
X052125Y006526D01*
X051925Y006726D01*
X051925Y007066D01*
X051885Y007106D01*
X051885Y007766D01*
X051565Y008086D01*
X054445Y008086D02*
X054765Y007766D01*
X054765Y007106D01*
X054765Y006686D01*
X054565Y006486D01*
X053845Y006486D01*
X053525Y006166D01*
X052485Y006166D01*
X052125Y006526D01*
X049005Y007106D02*
X049005Y007766D01*
X048685Y008086D01*
X047165Y008606D02*
X047165Y009886D01*
X043245Y007766D02*
X042925Y008086D01*
X043245Y007766D02*
X043245Y007106D01*
X040485Y006986D02*
X040485Y006646D01*
X040485Y006986D02*
X040365Y007106D01*
X040365Y007766D01*
X040045Y008086D01*
X037405Y007766D02*
X037085Y008086D01*
X037405Y007766D02*
X037405Y007106D01*
X035365Y008646D02*
X035365Y009446D01*
X036245Y010326D01*
X066205Y010326D01*
X066605Y010726D01*
X067605Y010726D01*
X066805Y010406D02*
X066485Y010086D01*
X059565Y010086D01*
X058965Y009486D01*
X058965Y008886D01*
X058725Y008646D01*
X057725Y007766D02*
X057405Y008086D01*
X057125Y008086D01*
X056405Y007366D01*
X055365Y007366D01*
X054645Y008086D01*
X054445Y008086D01*
X057725Y007766D02*
X057725Y007106D01*
X060365Y008086D02*
X060685Y007766D01*
X060685Y007106D01*
X060745Y007046D01*
X062085Y007046D01*
X063125Y008086D01*
X063325Y008086D01*
X063645Y007766D01*
X063645Y007106D01*
X063785Y007126D01*
X064565Y007126D01*
X064805Y006886D01*
X065205Y006886D01*
X065525Y006566D01*
X066325Y006566D01*
X066605Y006846D01*
X066605Y007106D01*
X066605Y007766D01*
X066285Y008086D01*
X066565Y008086D01*
X067525Y007126D01*
X068005Y007126D01*
X068965Y008086D01*
X069245Y008086D01*
X069565Y007766D01*
X069565Y007106D01*
X072205Y008086D02*
X072525Y007766D01*
X072725Y007766D01*
X073445Y007046D01*
X073925Y007046D01*
X074645Y007766D01*
X074845Y007766D01*
X075165Y008086D01*
X075485Y007766D01*
X075685Y007766D01*
X076245Y007206D01*
X076965Y007206D01*
X077525Y007766D01*
X077805Y007766D01*
X078125Y008086D01*
X078445Y007766D01*
X078445Y007106D01*
X078445Y007086D01*
X078725Y007366D01*
X080005Y007366D01*
X080725Y008086D01*
X081085Y008086D01*
X081405Y007766D01*
X081405Y007106D01*
X084365Y007106D02*
X084365Y007766D01*
X084045Y008086D01*
X082445Y008086D02*
X081085Y008086D01*
X085805Y008526D02*
X085805Y007086D01*
X086245Y006646D01*
X087285Y006646D01*
X087285Y007066D01*
X087325Y007106D01*
X087325Y007766D01*
X087005Y008086D01*
X089965Y008086D02*
X090285Y007766D01*
X090285Y007106D01*
X092925Y007646D02*
X093245Y007326D01*
X093245Y007106D01*
X092925Y007646D02*
X092925Y008086D01*
X075485Y007766D02*
X075485Y007106D01*
X072525Y007106D02*
X072525Y007766D01*
X070645Y008326D02*
X069685Y009286D01*
X069165Y009286D01*
X068445Y010006D01*
X066805Y010406D02*
X071365Y010406D01*
X072085Y009686D01*
X067925Y011046D02*
X066405Y011046D01*
X065925Y010566D01*
X025045Y010566D01*
X024485Y010006D01*
X025245Y008086D02*
X025565Y007766D01*
X025565Y007106D01*
X028205Y008086D02*
X028525Y007766D01*
X028525Y007106D01*
X028565Y006906D01*
X028965Y006486D01*
X088445Y021046D02*
X088505Y021046D01*
D18*
X089445Y020946D02*
X089445Y020546D01*
X092405Y017606D01*
X092405Y017086D01*
X089925Y016966D02*
X088845Y016966D01*
X078965Y014566D02*
X076565Y014566D01*
X071125Y014606D02*
X069485Y012966D01*
X064485Y012966D01*
X063845Y012326D01*
X060005Y012326D01*
X058965Y011926D02*
X064005Y011926D01*
X064405Y012326D01*
X071925Y012326D01*
X072085Y012206D01*
X091845Y013366D02*
X093135Y013366D01*
X092515Y012886D02*
X093035Y012366D01*
X091445Y020006D02*
X091445Y020946D01*
X090445Y021046D02*
X090445Y020086D01*
D19*
X091005Y020166D03*
X085845Y019806D03*
X085525Y019446D03*
X080565Y019286D03*
X072565Y019046D03*
X080325Y016886D03*
X076085Y016446D03*
X080285Y014806D03*
X078965Y014566D03*
X076565Y014566D03*
X080165Y013806D03*
X081005Y013806D03*
X080085Y013366D03*
X080885Y013086D03*
X080525Y012726D03*
X082685Y012646D03*
X082725Y012246D03*
X083325Y012246D03*
X083565Y011926D03*
X083245Y011606D03*
X084005Y011286D03*
X083045Y011206D03*
X082405Y011486D03*
X081805Y011726D03*
X081245Y011566D03*
X080685Y011446D03*
X079405Y011486D03*
X078925Y011486D03*
X078885Y010566D03*
X079285Y010366D03*
X079605Y010646D03*
X081005Y010326D03*
X083485Y009646D03*
X082125Y009166D03*
X080005Y008966D03*
X079405Y008646D03*
X079685Y008246D03*
X082445Y008086D03*
X082485Y007246D03*
X085045Y006486D03*
X085525Y006486D03*
X085525Y006046D03*
X085965Y005646D03*
X084965Y005766D03*
X083085Y006086D03*
X082565Y005686D03*
X082165Y005206D03*
X079845Y006006D03*
X078965Y005686D03*
X076885Y005686D03*
X076165Y005766D03*
X074165Y005686D03*
X073365Y005766D03*
X071125Y005766D03*
X070485Y005366D03*
X068085Y005846D03*
X067205Y005686D03*
X064325Y005766D03*
X062245Y005766D03*
X061445Y005766D03*
X059125Y006086D03*
X058725Y005446D03*
X056165Y005206D03*
X054085Y004726D03*
X052085Y004566D03*
X051125Y004406D03*
X049765Y004246D03*
X048405Y004086D03*
X047845Y003926D03*
X045685Y003286D03*
X045125Y003446D03*
X044405Y003606D03*
X041845Y004566D03*
X042565Y004726D03*
X043285Y004886D03*
X039685Y004406D03*
X040565Y003766D03*
X038645Y003926D03*
X037685Y004246D03*
X036565Y004086D03*
X033605Y003446D03*
X032885Y003606D03*
X034405Y003126D03*
X029125Y003766D03*
X028485Y003926D03*
X027765Y004406D03*
X025605Y004246D03*
X024965Y004086D03*
X021925Y003286D03*
X021285Y003446D03*
X020805Y003606D03*
X017205Y003766D03*
X016645Y003926D03*
X015925Y004406D03*
X014885Y004006D03*
X013765Y004246D03*
X013045Y004086D03*
X012245Y003926D03*
X010725Y003766D03*
X009525Y004006D03*
X005445Y005286D03*
X006405Y005766D03*
X006085Y006566D03*
X008965Y006806D03*
X011685Y006086D03*
X012325Y005766D03*
X014485Y006006D03*
X015205Y006086D03*
X017525Y005766D03*
X018165Y005846D03*
X020165Y005686D03*
X021125Y005766D03*
X020805Y006246D03*
X020805Y006806D03*
X017845Y006646D03*
X015045Y006966D03*
X015205Y007686D03*
X017845Y007606D03*
X020805Y008326D03*
X020485Y008886D03*
X021205Y009286D03*
X023685Y008646D03*
X026725Y008646D03*
X029685Y008566D03*
X029685Y007766D03*
X026805Y007766D03*
X026805Y007046D03*
X029685Y006966D03*
X032325Y006966D03*
X035125Y007206D03*
X035845Y007206D03*
X035445Y006566D03*
X038325Y006566D03*
X038965Y005846D03*
X038165Y005766D03*
X036085Y005766D03*
X035285Y005206D03*
X033045Y005846D03*
X032005Y005686D03*
X029925Y005766D03*
X029285Y005686D03*
X027125Y005686D03*
X026325Y005686D03*
X026565Y006086D03*
X024325Y005766D03*
X023445Y005206D03*
X019685Y004886D03*
X018965Y004726D03*
X018405Y004566D03*
X026565Y002966D03*
X030085Y004566D03*
X030805Y004726D03*
X031605Y004886D03*
X023845Y006646D03*
X017845Y008566D03*
X014805Y008646D03*
X017605Y009446D03*
X014805Y009606D03*
X008965Y008646D03*
X006005Y008406D03*
X003125Y007926D03*
X003125Y006966D03*
X011925Y006886D03*
X026725Y009606D03*
X029845Y009446D03*
X032405Y008886D03*
X033125Y009286D03*
X035365Y008646D03*
X032645Y008246D03*
X038565Y008566D03*
X041525Y008566D03*
X041525Y007846D03*
X038565Y007606D03*
X041125Y006566D03*
X041765Y005846D03*
X041125Y005686D03*
X043845Y005686D03*
X044405Y006086D03*
X044325Y006886D03*
X047445Y006646D03*
X050245Y007046D03*
X050245Y007846D03*
X052885Y008086D03*
X052725Y008806D03*
X053365Y009446D03*
X055685Y008726D03*
X055925Y008246D03*
X058725Y008646D03*
X056245Y009286D03*
X061765Y009606D03*
X064805Y009446D03*
X067605Y008646D03*
X067765Y009286D03*
X070445Y009046D03*
X071085Y008886D03*
X073685Y008886D03*
X074645Y009326D03*
X075125Y009326D03*
X076245Y009246D03*
X076725Y009246D03*
X077205Y009246D03*
X073645Y008406D03*
X073685Y007606D03*
X076645Y007926D03*
X076645Y006806D03*
X077005Y006326D03*
X073965Y006366D03*
X073685Y006686D03*
X071045Y006526D03*
X070485Y006966D03*
X067685Y006526D03*
X067325Y006766D03*
X065045Y006406D03*
X064325Y006726D03*
X062165Y006406D03*
X065045Y007286D03*
X064405Y008006D03*
X064805Y008566D03*
X067765Y008166D03*
X070645Y008326D03*
X072085Y009686D03*
X072765Y010326D03*
X068445Y010006D03*
X067605Y010726D03*
X067925Y011046D03*
X068245Y011366D03*
X072085Y012206D03*
X074885Y012166D03*
X075605Y012406D03*
X075685Y012966D03*
X076125Y012966D03*
X082925Y013406D03*
X084085Y013606D03*
X084605Y013646D03*
X085045Y013806D03*
X086005Y013886D03*
X087165Y013446D03*
X087965Y013366D03*
X089885Y013446D03*
X090285Y013766D03*
X090765Y012886D03*
X090445Y012426D03*
X091405Y012146D03*
X092005Y011646D03*
X088845Y012006D03*
X088445Y011846D03*
X086565Y011846D03*
X086165Y012446D03*
X086685Y012726D03*
X087085Y012606D03*
X085565Y013006D03*
X085965Y013126D03*
X085245Y012526D03*
X083005Y013806D03*
X084525Y014366D03*
X085045Y014486D03*
X086805Y014526D03*
X087205Y014526D03*
X089325Y014286D03*
X091245Y014726D03*
X091685Y014606D03*
X090885Y015126D03*
X090525Y015486D03*
X089725Y015909D03*
X089005Y016046D03*
X088845Y016446D03*
X088845Y016966D03*
X089925Y016966D03*
X086205Y016766D03*
X085685Y016726D03*
X086085Y015606D03*
X085645Y015486D03*
X071125Y014606D03*
X060005Y012326D03*
X058965Y011926D03*
X050085Y009606D03*
X047165Y009886D03*
X044725Y009366D03*
X042005Y009446D03*
X044085Y008726D03*
X044325Y008246D03*
X047165Y008606D03*
X050085Y008646D03*
X055925Y006886D03*
X056005Y006486D03*
X055525Y005926D03*
X053285Y005766D03*
X052645Y005686D03*
X050565Y005766D03*
X049845Y005686D03*
X047525Y006006D03*
X046965Y005206D03*
X050405Y003926D03*
X053045Y003606D03*
X055205Y003446D03*
X056565Y003286D03*
X057125Y003126D03*
X056005Y002886D03*
X060725Y003446D03*
X061365Y003926D03*
X060725Y004246D03*
X059925Y004086D03*
X062965Y004406D03*
X063685Y004566D03*
X065925Y004726D03*
X066645Y004886D03*
X071365Y003926D03*
X071925Y004086D03*
X072565Y004246D03*
X073205Y003766D03*
X074805Y004406D03*
X075525Y004566D03*
X077845Y004726D03*
X078805Y004886D03*
X082965Y004086D03*
X083685Y004086D03*
X084325Y004086D03*
X085045Y004246D03*
X085925Y004406D03*
X086645Y004406D03*
X087285Y004406D03*
X087685Y004166D03*
X087925Y004566D03*
X088645Y004726D03*
X089245Y004246D03*
X090005Y003846D03*
X090725Y003486D03*
X086845Y003246D03*
X092005Y004366D03*
X093045Y004246D03*
X092405Y004686D03*
X091725Y005046D03*
X090725Y004886D03*
X091245Y005526D03*
X091845Y005926D03*
X091085Y006166D03*
X094005Y006646D03*
X091805Y006806D03*
X091405Y007006D03*
X087965Y006966D03*
X091405Y007886D03*
X091805Y008006D03*
X091485Y008326D03*
X089925Y008606D03*
X088385Y008826D03*
X087965Y008746D03*
X086325Y008926D03*
X085805Y009006D03*
X085365Y009166D03*
X085005Y009686D03*
X086215Y009676D03*
X086165Y010246D03*
X086885Y010546D03*
X087185Y010886D03*
X085885Y010846D03*
X084715Y010806D03*
X090715Y009406D03*
X090285Y009166D03*
X092965Y009686D03*
X092565Y009926D03*
X092165Y010126D03*
X091765Y010486D03*
X093405Y010126D03*
X085805Y008526D03*
X085045Y008366D03*
X088485Y008166D03*
X079365Y006326D03*
X088085Y005686D03*
X088645Y005766D03*
X080165Y003286D03*
X080805Y003046D03*
X076805Y003366D03*
X076405Y003606D03*
X068485Y002966D03*
X067925Y003286D03*
X065365Y003126D03*
X064805Y003526D03*
X052965Y006566D03*
X061765Y007606D03*
X061765Y008566D03*
X038565Y009606D03*
X020443Y010660D03*
X017845Y011526D03*
X049445Y002806D03*
D20*
X092405Y017086D03*
D21*
X081445Y019406D02*
X081445Y019806D01*
X080885Y020366D01*
X078325Y020366D01*
X077005Y019046D01*
X072565Y019046D01*
D22*
X081445Y019406D03*
X065405Y011406D03*
X064405Y011406D03*
D23*
X076125Y012966D02*
X076125Y014126D01*
X076565Y014566D01*
X080325Y016886D02*
X080325Y019046D01*
X080565Y019286D01*
X088065Y011046D02*
X091065Y011046D01*
D24*
X011685Y002966D02*
X011285Y003366D01*
X010165Y003366D01*
X010085Y003446D01*
X010085Y004486D01*
X010005Y004566D01*
X004405Y004566D01*
X003685Y005286D01*
X003685Y006406D01*
X004085Y006406D01*
X004245Y006566D01*
X005445Y006566D01*
X005765Y006246D01*
X006565Y006246D01*
X006805Y006486D01*
X008645Y006486D01*
X008725Y006406D01*
X009205Y006406D01*
X009285Y006486D01*
X011045Y006486D01*
X011205Y006646D01*
X011205Y007046D01*
X011445Y007286D01*
X012325Y007286D01*
X012405Y007206D01*
X012405Y006726D01*
X013045Y006086D01*
X013055Y005866D01*
X013705Y005866D02*
X013725Y005866D01*
X013705Y005866D02*
X014165Y006326D01*
X014725Y006326D01*
X014885Y006166D01*
X014885Y004006D01*
X014485Y004966D02*
X013765Y004246D01*
X013045Y004086D02*
X012325Y004806D01*
X012325Y005766D01*
X011685Y005606D02*
X011685Y006086D01*
X011785Y006886D02*
X010765Y005866D01*
X010095Y005866D02*
X010085Y005766D01*
X010085Y005446D01*
X010165Y005366D01*
X011445Y005366D01*
X011685Y005606D01*
X011045Y005206D02*
X008725Y005206D01*
X008065Y005866D01*
X007805Y005866D01*
X007135Y005866D02*
X006505Y005866D01*
X006405Y005766D01*
X006405Y004886D02*
X005425Y005866D01*
X004845Y005866D01*
X004565Y006406D02*
X004175Y006016D01*
X004175Y005866D01*
X004565Y006406D02*
X005205Y006406D01*
X006565Y005046D01*
X010565Y005046D01*
X012005Y003606D01*
X013045Y003606D01*
X013125Y003686D01*
X016405Y003686D01*
X016645Y003926D01*
X016485Y004086D01*
X016485Y004726D01*
X016015Y005196D01*
X016015Y005866D01*
X016685Y005866D02*
X016685Y005086D01*
X017205Y004566D01*
X017205Y003846D01*
X016885Y003526D01*
X013205Y003526D01*
X013125Y003446D01*
X011925Y003446D01*
X010485Y004886D01*
X006405Y004886D01*
X005925Y004726D02*
X005445Y005286D01*
X005925Y004726D02*
X010405Y004726D01*
X011845Y003286D01*
X013205Y003286D01*
X013285Y003366D01*
X020565Y003366D01*
X020805Y003606D01*
X020005Y004406D01*
X019445Y004406D01*
X019285Y004566D01*
X019285Y005126D01*
X018975Y005436D01*
X018975Y005866D01*
X019645Y005866D02*
X019645Y006126D01*
X019845Y006326D01*
X020245Y006326D01*
X020565Y006006D01*
X020565Y005206D01*
X021285Y004486D01*
X021285Y003446D01*
X021045Y003206D01*
X013365Y003206D01*
X013285Y003126D01*
X011765Y003126D01*
X011125Y003766D01*
X010725Y003766D01*
X011045Y005206D02*
X012245Y003926D01*
X013365Y002966D02*
X013445Y003046D01*
X021525Y003046D01*
X021605Y002966D01*
X022165Y002966D01*
X022245Y003046D01*
X024965Y003046D01*
X025045Y002966D01*
X026085Y002966D01*
X026405Y002646D01*
X026725Y002646D01*
X027205Y003126D01*
X033845Y003126D01*
X034085Y003366D01*
X034085Y004086D01*
X032645Y005526D01*
X032645Y006486D01*
X032805Y006646D01*
X033285Y006646D01*
X033365Y006566D01*
X034805Y006566D01*
X035125Y006886D01*
X035125Y007206D01*
X035125Y006886D02*
X035685Y006886D01*
X036655Y005916D01*
X036735Y005866D01*
X036085Y005766D02*
X036085Y004566D01*
X036565Y004086D01*
X037205Y004086D02*
X037205Y004726D01*
X037405Y004926D01*
X037405Y005866D01*
X037405Y006206D01*
X037125Y006486D01*
X036405Y006486D01*
X035845Y007046D01*
X035845Y007206D01*
X036165Y007526D02*
X036585Y007106D01*
X036735Y007106D01*
X038165Y007526D02*
X038405Y007286D01*
X038725Y007286D01*
X038965Y007526D01*
X038965Y007766D01*
X039765Y008566D01*
X040245Y008566D01*
X040805Y008006D01*
X040805Y007766D01*
X041205Y007366D01*
X041845Y007366D01*
X042165Y007686D01*
X042165Y008006D01*
X042725Y008566D01*
X043045Y008566D01*
X044085Y007526D01*
X044565Y007526D01*
X045605Y008566D01*
X045925Y008566D01*
X046405Y008086D01*
X046405Y007686D01*
X046845Y007246D01*
X047365Y007246D01*
X047685Y007566D01*
X047875Y007566D01*
X048125Y007816D01*
X048125Y008486D01*
X048205Y008566D01*
X048885Y008566D01*
X049925Y007526D01*
X050405Y007526D01*
X051445Y008566D01*
X051685Y008566D01*
X052725Y007526D01*
X053125Y007526D01*
X054165Y008566D01*
X054645Y008566D01*
X055605Y007606D01*
X056245Y007606D01*
X057205Y008566D01*
X057525Y008566D01*
X058325Y007766D01*
X059045Y007766D01*
X059605Y008326D01*
X059845Y008566D01*
X060565Y008566D01*
X060965Y008166D01*
X060965Y007846D01*
X061525Y007286D01*
X062005Y007286D01*
X062565Y007846D01*
X062565Y008006D01*
X063125Y008566D01*
X063525Y008566D01*
X063845Y008246D01*
X063845Y007846D01*
X064245Y007446D01*
X064645Y007446D01*
X064885Y007686D01*
X065205Y007686D01*
X066085Y008566D01*
X066405Y008566D01*
X067605Y007366D01*
X067925Y007366D01*
X069125Y008566D01*
X069365Y008566D01*
X069845Y008086D01*
X069845Y007686D01*
X070005Y007526D01*
X071525Y007526D01*
X071525Y008086D01*
X072005Y008566D01*
X072405Y008566D01*
X072725Y008246D01*
X072725Y008086D01*
X073525Y007286D01*
X073845Y007286D01*
X074725Y008166D01*
X074725Y008246D01*
X075045Y008566D01*
X075365Y008566D01*
X075605Y008326D01*
X075605Y008166D01*
X076325Y007446D01*
X076885Y007446D01*
X078005Y008566D01*
X078285Y008566D01*
X079245Y007606D01*
X079925Y007606D01*
X080885Y008566D01*
X081205Y008566D01*
X081445Y008326D01*
X082165Y008326D01*
X082245Y008406D01*
X082605Y008406D01*
X083245Y007766D01*
X082845Y007246D01*
X082485Y007246D01*
X083685Y007126D02*
X083685Y007766D01*
X083245Y007766D01*
X084605Y007966D02*
X084845Y007726D01*
X084845Y006846D01*
X084445Y006446D01*
X083445Y006446D01*
X083085Y006086D01*
X082725Y006006D02*
X082565Y006006D01*
X081925Y006646D01*
X080085Y006646D01*
X079565Y006126D01*
X079565Y005686D01*
X080165Y005086D01*
X081365Y005086D01*
X081405Y005046D01*
X081405Y002926D01*
X081205Y002726D01*
X080085Y002726D01*
X079525Y003286D01*
X077285Y003286D01*
X077045Y003046D01*
X076485Y003046D01*
X076165Y003366D01*
X070325Y003366D01*
X069445Y004246D01*
X069445Y005666D01*
X069565Y005866D01*
X069565Y006046D01*
X069805Y006046D01*
X070485Y006726D01*
X070485Y006966D01*
X070325Y007366D02*
X070005Y007046D01*
X070005Y006646D01*
X069845Y006486D01*
X068685Y006486D01*
X068085Y005886D01*
X068085Y005846D01*
X067725Y005766D02*
X068083Y005407D01*
X068899Y005407D01*
X068895Y005866D01*
X067725Y005766D02*
X067725Y006486D01*
X067685Y006526D01*
X067525Y006926D02*
X067325Y006766D01*
X067525Y006926D02*
X068485Y006926D01*
X068725Y007166D01*
X068805Y007166D01*
X068755Y007086D01*
X068895Y007106D01*
X070325Y007366D02*
X070645Y007366D01*
X070885Y007126D01*
X070885Y006806D01*
X070325Y006246D01*
X070325Y005686D01*
X070485Y005526D01*
X070485Y005366D01*
X070645Y005686D02*
X070885Y005446D01*
X070885Y004406D01*
X071365Y003926D01*
X071925Y004086D02*
X071125Y004886D01*
X071125Y005766D01*
X070645Y005686D02*
X070645Y006006D01*
X070885Y006246D01*
X071005Y006246D01*
X071045Y006286D01*
X071045Y006526D01*
X071005Y006246D02*
X071525Y006246D01*
X071855Y005916D01*
X071855Y005866D01*
X072525Y005866D02*
X072525Y006206D01*
X072725Y006406D01*
X073205Y006406D01*
X073605Y006006D01*
X073685Y006006D01*
X073765Y005926D01*
X073765Y004326D01*
X073205Y003766D01*
X072565Y004246D02*
X073365Y005046D01*
X073365Y005766D01*
X074165Y005686D02*
X074165Y005046D01*
X074805Y004406D01*
X075125Y004406D02*
X075125Y005046D01*
X074815Y005356D01*
X074815Y005866D01*
X074315Y006366D01*
X073965Y006366D01*
X074085Y006686D02*
X073685Y006686D01*
X074085Y006686D02*
X074505Y007106D01*
X074815Y007106D01*
X073845Y007606D02*
X073685Y007606D01*
X073445Y007606D01*
X072885Y008166D01*
X072885Y008326D01*
X072485Y008726D01*
X071925Y008726D01*
X071365Y008166D01*
X071365Y007766D01*
X071285Y007686D01*
X070085Y007686D01*
X070005Y007766D01*
X070005Y008166D01*
X069445Y008726D01*
X069045Y008726D01*
X067925Y007606D01*
X067605Y007606D01*
X066485Y008726D01*
X066005Y008726D01*
X065125Y007846D01*
X064805Y007846D01*
X064565Y007606D01*
X064325Y007606D01*
X064005Y007926D01*
X064005Y008326D01*
X063605Y008726D01*
X062965Y008726D01*
X062405Y008166D01*
X062405Y008006D01*
X062005Y007606D01*
X061765Y007606D01*
X061525Y007606D01*
X061125Y008006D01*
X061125Y008246D01*
X060645Y008726D01*
X059765Y008726D01*
X058965Y007926D01*
X058405Y007926D01*
X057605Y008726D01*
X057125Y008726D01*
X056165Y007766D01*
X055685Y007766D01*
X054725Y008726D01*
X054085Y008726D01*
X053045Y007686D01*
X052805Y007686D01*
X051765Y008726D01*
X051365Y008726D01*
X050485Y007846D01*
X050245Y007846D01*
X049845Y007846D01*
X048965Y008726D01*
X048125Y008726D01*
X047965Y008566D01*
X047965Y007886D01*
X047805Y007726D01*
X047605Y007726D01*
X047285Y007406D01*
X046925Y007406D01*
X046565Y007766D01*
X046565Y008166D01*
X046005Y008726D01*
X045525Y008726D01*
X044485Y007686D01*
X044165Y007686D01*
X043125Y008726D01*
X042645Y008726D01*
X042005Y008086D01*
X042005Y007766D01*
X041765Y007526D01*
X041285Y007526D01*
X040965Y007846D01*
X040965Y008086D01*
X040325Y008726D01*
X039685Y008726D01*
X038565Y007606D01*
X037445Y008726D01*
X036325Y008726D01*
X036005Y008406D01*
X036005Y008086D01*
X035925Y008006D01*
X035045Y008006D01*
X034325Y008726D01*
X033845Y008726D01*
X032885Y007766D01*
X032325Y007766D01*
X031365Y008726D01*
X030885Y008726D01*
X030085Y007926D01*
X030085Y007686D01*
X029845Y007446D01*
X029525Y007446D01*
X029285Y007686D01*
X029285Y007926D01*
X028485Y008726D01*
X027845Y008726D01*
X026885Y007766D01*
X026805Y007766D01*
X026485Y007766D01*
X025525Y008726D01*
X024725Y008726D01*
X024165Y008166D01*
X024165Y008086D01*
X024005Y007926D01*
X023285Y007926D01*
X022485Y008726D01*
X022005Y008726D01*
X021045Y007766D01*
X020565Y007766D01*
X019605Y008726D01*
X019045Y008726D01*
X018325Y008006D01*
X018325Y007526D01*
X018005Y007206D01*
X017685Y007206D01*
X017365Y007526D01*
X017365Y008006D01*
X016645Y008726D01*
X015925Y008726D01*
X015205Y008006D01*
X015205Y007686D01*
X014725Y007686D01*
X013685Y008726D01*
X010005Y008726D01*
X009365Y008086D01*
X008405Y008086D01*
X007765Y008726D01*
X007125Y008726D01*
X006405Y008006D01*
X005525Y008006D01*
X004645Y008886D01*
X004325Y008886D01*
X003365Y007926D01*
X003125Y007926D01*
X003285Y007606D02*
X002645Y007606D01*
X001685Y008566D01*
X001285Y008566D01*
X000725Y008006D01*
X000725Y007606D01*
X001215Y007116D01*
X001215Y007106D01*
X003125Y006966D02*
X004155Y007126D01*
X004175Y007106D01*
X003285Y007606D02*
X004245Y008566D01*
X004725Y008566D01*
X005445Y007846D01*
X006485Y007846D01*
X007205Y008566D01*
X007685Y008566D01*
X008325Y007926D01*
X009445Y007926D01*
X010085Y008566D01*
X012805Y008566D01*
X012405Y008166D01*
X012405Y007606D01*
X012905Y007106D01*
X013055Y007106D01*
X011925Y006886D02*
X011785Y006886D01*
X010095Y007106D02*
X009795Y006806D01*
X008965Y006806D01*
X007135Y007106D02*
X006595Y006566D01*
X006085Y006566D01*
X003685Y006406D02*
X001525Y006406D01*
X001215Y006096D01*
X001215Y005866D01*
X001885Y005866D02*
X003505Y004246D01*
X009285Y004246D01*
X009525Y004006D01*
X011685Y002966D02*
X013365Y002966D01*
X017205Y003766D02*
X017205Y003846D01*
X015925Y004406D02*
X015205Y005126D01*
X015205Y006086D01*
X014485Y006006D02*
X014485Y004966D01*
X017525Y005446D02*
X017525Y005766D01*
X017525Y005446D02*
X018405Y004566D01*
X018965Y004726D02*
X018165Y005526D01*
X018165Y005846D01*
X020165Y005686D02*
X020165Y005366D01*
X019685Y004886D01*
X021925Y005606D02*
X022485Y005046D01*
X022485Y003846D01*
X021925Y003286D01*
X024325Y004726D02*
X024965Y004086D01*
X025285Y004326D02*
X025205Y004406D01*
X025205Y005556D01*
X024895Y005866D01*
X024325Y005766D02*
X024325Y004726D01*
X023845Y004966D02*
X023685Y004806D01*
X023045Y004806D01*
X022605Y005246D01*
X022605Y005866D01*
X021935Y005866D02*
X021925Y005606D01*
X021225Y005866D02*
X021125Y005766D01*
X021225Y005866D02*
X021935Y005866D01*
X020805Y006246D02*
X020805Y006326D01*
X020965Y006486D01*
X023045Y006486D01*
X023285Y006246D01*
X023285Y005366D01*
X023445Y005206D01*
X023845Y004966D02*
X023845Y006646D01*
X024825Y007106D02*
X024895Y007106D01*
X024235Y007766D01*
X024165Y007766D01*
X024405Y008006D01*
X024405Y008166D01*
X024805Y008566D01*
X025445Y008566D01*
X026645Y007366D01*
X026965Y007366D01*
X027205Y007606D01*
X027205Y007846D01*
X027925Y008566D01*
X028405Y008566D01*
X029125Y007846D01*
X029125Y007606D01*
X029445Y007286D01*
X029925Y007286D01*
X030245Y007606D01*
X030245Y007846D01*
X030965Y008566D01*
X031285Y008566D01*
X032245Y007606D01*
X032965Y007606D01*
X033925Y008566D01*
X034245Y008566D01*
X034965Y007846D01*
X036165Y007846D01*
X036165Y007526D01*
X036165Y007846D02*
X036165Y008006D01*
X036725Y008566D01*
X037365Y008566D01*
X038165Y007766D01*
X038165Y007526D01*
X038405Y008006D02*
X037525Y008886D01*
X036245Y008886D01*
X035845Y008486D01*
X035845Y008246D01*
X035765Y008166D01*
X035125Y008166D01*
X034405Y008886D01*
X033765Y008886D01*
X032805Y007926D01*
X032405Y007926D01*
X031445Y008886D01*
X030805Y008886D01*
X029685Y007766D01*
X029605Y007766D01*
X029605Y007846D01*
X028565Y008886D01*
X027765Y008886D01*
X026965Y008086D01*
X026405Y008086D01*
X025605Y008886D01*
X024645Y008886D01*
X024005Y008246D01*
X024005Y008166D01*
X023925Y008086D01*
X023365Y008086D01*
X022565Y008886D01*
X021925Y008886D01*
X020965Y007926D01*
X020645Y007926D01*
X019685Y008886D01*
X018965Y008886D01*
X018165Y008086D01*
X018165Y007766D01*
X018005Y007606D01*
X017845Y007606D01*
X017765Y007606D01*
X017605Y007766D01*
X017605Y008006D01*
X016725Y008886D01*
X015845Y008886D01*
X015045Y008086D01*
X014565Y008086D01*
X013765Y008886D01*
X009925Y008886D01*
X009285Y008246D01*
X008485Y008246D01*
X007845Y008886D01*
X007045Y008886D01*
X006565Y008406D01*
X006005Y008406D01*
X008965Y008646D02*
X009445Y008646D01*
X009845Y009046D01*
X013845Y009046D01*
X014645Y008246D01*
X014965Y008246D01*
X015765Y009046D01*
X016805Y009046D01*
X017685Y008166D01*
X018005Y008166D01*
X018885Y009046D01*
X019765Y009046D01*
X020485Y008326D01*
X020805Y008326D01*
X021125Y008326D01*
X021845Y009046D01*
X022645Y009046D01*
X023445Y008246D01*
X023765Y008246D01*
X024565Y009046D01*
X025685Y009046D01*
X026485Y008246D01*
X026885Y008246D01*
X027685Y009046D01*
X028645Y009046D01*
X029605Y008086D01*
X029765Y008086D01*
X030725Y009046D01*
X031605Y009046D01*
X032405Y008246D01*
X032645Y008246D01*
X032885Y008246D01*
X033685Y009046D01*
X034485Y009046D01*
X035205Y008326D01*
X035605Y008326D01*
X035685Y008406D01*
X035685Y008566D01*
X036165Y009046D01*
X037605Y009046D01*
X038485Y008166D01*
X038645Y008166D01*
X039525Y009046D01*
X040485Y009046D01*
X041365Y008166D01*
X041605Y008166D01*
X042485Y009046D01*
X043285Y009046D01*
X044085Y008246D01*
X044325Y008246D01*
X044485Y008246D01*
X045365Y009046D01*
X046165Y009046D01*
X046885Y008326D01*
X046885Y007926D01*
X047085Y007726D01*
X047125Y007726D01*
X047445Y008046D01*
X047645Y008046D01*
X047645Y008806D01*
X047925Y009046D01*
X049125Y009046D01*
X049845Y008326D01*
X050485Y008326D01*
X051205Y009046D01*
X051925Y009046D01*
X052565Y008406D01*
X053285Y008406D01*
X053925Y009046D01*
X054885Y009046D01*
X055685Y008246D01*
X055925Y008246D01*
X056165Y008246D01*
X056965Y009046D01*
X057765Y009046D01*
X058565Y008246D01*
X058805Y008246D01*
X059605Y009046D01*
X060805Y009046D01*
X061445Y008406D01*
X061445Y008246D01*
X061605Y008086D01*
X062005Y008086D01*
X062085Y008166D01*
X062085Y008326D01*
X062805Y009046D01*
X063765Y009046D01*
X064645Y008166D01*
X064965Y008166D01*
X065845Y009046D01*
X066645Y009046D01*
X067525Y008166D01*
X067765Y008166D01*
X067925Y008166D01*
X068805Y009046D01*
X069605Y009046D01*
X070325Y008326D01*
X070325Y008086D01*
X070405Y008006D01*
X070965Y008006D01*
X071045Y008086D01*
X071045Y008326D01*
X071765Y009046D01*
X072645Y009046D01*
X073205Y008486D01*
X073205Y008326D01*
X073445Y008086D01*
X073845Y008086D01*
X074805Y009046D01*
X075605Y009046D01*
X076405Y008246D01*
X076805Y008246D01*
X077605Y009046D01*
X078525Y009046D01*
X079325Y008246D01*
X079685Y008246D01*
X079725Y008246D01*
X080525Y009046D01*
X081445Y009046D01*
X081605Y008886D01*
X082645Y008886D01*
X082765Y009006D01*
X082765Y010326D01*
X085295Y010326D01*
X085685Y009936D01*
X085685Y009766D01*
X086045Y009386D01*
X086425Y009386D01*
X086845Y009846D01*
X088165Y009846D01*
X088455Y009546D01*
X088465Y009536D01*
X090585Y009536D01*
X090715Y009406D01*
X090285Y009166D02*
X090285Y008966D01*
X089925Y008606D01*
X089285Y008486D02*
X088665Y009106D01*
X088385Y008826D01*
X088665Y009106D02*
X088085Y009686D01*
X087085Y009686D01*
X086625Y009226D01*
X085985Y009226D01*
X085525Y009686D01*
X085525Y009856D01*
X085215Y010166D01*
X082925Y010166D01*
X082925Y008926D01*
X082725Y008726D01*
X082085Y008726D01*
X082005Y008646D01*
X081605Y008646D01*
X081365Y008886D01*
X080725Y008886D01*
X079765Y007926D01*
X079405Y007926D01*
X078445Y008886D01*
X077845Y008886D01*
X076885Y007926D01*
X076645Y007926D01*
X076485Y007926D01*
X075525Y008886D01*
X074885Y008886D01*
X073925Y007926D01*
X073365Y007926D01*
X073045Y008246D01*
X073045Y008406D01*
X072565Y008886D01*
X071845Y008886D01*
X071205Y008246D01*
X071205Y007926D01*
X071125Y007846D01*
X070245Y007846D01*
X070165Y007926D01*
X070165Y008246D01*
X069525Y008886D01*
X068965Y008886D01*
X067925Y007846D01*
X067605Y007846D01*
X066565Y008886D01*
X065925Y008886D01*
X065045Y008006D01*
X064405Y008006D01*
X064165Y008246D01*
X064165Y008406D01*
X063685Y008886D01*
X062885Y008886D01*
X062245Y008246D01*
X062245Y008086D01*
X062085Y007926D01*
X061525Y007926D01*
X061285Y008166D01*
X061285Y008326D01*
X060725Y008886D01*
X059685Y008886D01*
X058885Y008086D01*
X058485Y008086D01*
X057685Y008886D01*
X057045Y008886D01*
X056085Y007926D01*
X055765Y007926D01*
X054805Y008886D01*
X054005Y008886D01*
X053205Y008086D01*
X052885Y008086D01*
X052645Y008086D01*
X051845Y008886D01*
X051285Y008886D01*
X050565Y008166D01*
X049765Y008166D01*
X049045Y008886D01*
X048005Y008886D01*
X047805Y008686D01*
X047805Y007966D01*
X047725Y007886D01*
X047525Y007886D01*
X047205Y007566D01*
X047005Y007566D01*
X046725Y007846D01*
X046725Y008246D01*
X046085Y008886D01*
X045445Y008886D01*
X044405Y007846D01*
X044245Y007846D01*
X043205Y008886D01*
X042565Y008886D01*
X041525Y007846D01*
X041445Y007846D01*
X040405Y008886D01*
X039605Y008886D01*
X038725Y008006D01*
X038405Y008006D01*
X038565Y008566D02*
X038565Y009606D01*
X041525Y008966D02*
X041525Y008566D01*
X041525Y008966D02*
X042005Y009446D01*
X044085Y008726D02*
X044725Y009366D01*
X050085Y009606D02*
X050085Y008646D01*
X052725Y008806D02*
X053365Y009446D01*
X055685Y008726D02*
X056245Y009286D01*
X059605Y008326D02*
X059605Y007446D01*
X059945Y007106D01*
X060015Y007106D01*
X058405Y006246D02*
X058085Y006566D01*
X056325Y006566D01*
X056245Y006486D01*
X056005Y006486D01*
X056485Y006166D02*
X056725Y006406D01*
X057525Y006406D01*
X057765Y006066D01*
X057725Y005866D01*
X058165Y005426D01*
X058165Y004086D01*
X059525Y002726D01*
X065765Y002726D01*
X066005Y002966D01*
X066005Y003926D01*
X064885Y005046D01*
X064885Y006006D01*
X064325Y006566D01*
X064325Y006726D01*
X065045Y006406D02*
X065045Y005606D01*
X065925Y004726D01*
X066245Y004566D02*
X066245Y005286D01*
X065935Y005596D01*
X065935Y005866D01*
X066585Y005866D02*
X066805Y006086D01*
X067365Y006086D01*
X067525Y005926D01*
X067525Y005286D01*
X068325Y004486D01*
X068325Y003126D01*
X068485Y002966D01*
X068645Y002566D02*
X068915Y002836D01*
X068915Y003206D01*
X076085Y003206D01*
X076405Y002886D01*
X077125Y002886D01*
X077365Y003126D01*
X079445Y003126D01*
X080005Y002566D01*
X081285Y002566D01*
X081765Y003046D01*
X081765Y005446D01*
X081925Y005606D01*
X081925Y006166D01*
X081765Y006326D01*
X080885Y006326D01*
X080735Y006176D01*
X080735Y005866D01*
X081405Y005866D02*
X081405Y005046D01*
X082165Y005206D02*
X082165Y006166D01*
X081845Y006486D01*
X080325Y006486D01*
X079845Y006006D01*
X078965Y005686D02*
X078965Y005046D01*
X078805Y004886D01*
X078405Y004566D02*
X078405Y005206D01*
X078445Y005246D01*
X078445Y005866D01*
X077775Y005866D02*
X077285Y006356D01*
X077005Y006326D01*
X076565Y005846D02*
X076165Y006246D01*
X075925Y006246D01*
X075545Y005866D01*
X075485Y005866D01*
X076165Y005766D02*
X076165Y005206D01*
X075525Y004566D01*
X075285Y004246D02*
X075125Y004406D01*
X075285Y004246D02*
X075765Y004246D01*
X076405Y003606D01*
X076805Y003366D02*
X077045Y003606D01*
X077045Y004326D01*
X076565Y004806D01*
X076565Y005846D01*
X076885Y005686D02*
X077845Y004726D01*
X078245Y004886D02*
X077775Y005356D01*
X077775Y005866D01*
X079365Y006326D02*
X079925Y006886D01*
X080515Y006886D01*
X080735Y007106D01*
X079845Y007766D02*
X079325Y007766D01*
X078365Y008726D01*
X077925Y008726D01*
X076805Y007606D01*
X076405Y007606D01*
X075765Y008246D01*
X075765Y008406D01*
X075445Y008726D01*
X074965Y008726D01*
X073845Y007606D01*
X071855Y007116D02*
X071855Y007106D01*
X071855Y007116D02*
X071525Y007526D01*
X073645Y008406D02*
X073725Y008406D01*
X074645Y009326D01*
X075125Y009326D02*
X076165Y009326D01*
X076245Y009246D01*
X076725Y009246D02*
X077165Y009726D01*
X077285Y009846D01*
X078765Y009846D01*
X079285Y010366D01*
X079605Y010606D02*
X079605Y010646D01*
X079605Y010606D02*
X079685Y010526D01*
X079685Y010006D01*
X078925Y009246D01*
X077205Y009246D01*
X077285Y009246D01*
X076765Y009646D02*
X074205Y009646D01*
X073685Y009126D01*
X073685Y008886D01*
X072885Y009806D02*
X072285Y009206D01*
X071405Y009206D01*
X071085Y008886D01*
X070725Y009366D02*
X070445Y009046D01*
X070725Y009366D02*
X072205Y009366D01*
X072765Y009926D01*
X072765Y010326D01*
X073432Y010730D02*
X073551Y010730D01*
X073519Y010809D02*
X073353Y010809D01*
X073275Y010887D02*
X073486Y010887D01*
X073485Y010890D02*
X073604Y010604D01*
X073782Y010426D01*
X073736Y010426D01*
X072254Y011908D01*
X072278Y011917D01*
X072373Y012013D01*
X072425Y012138D01*
X072425Y012273D01*
X072373Y012398D01*
X072278Y012494D01*
X072153Y012546D01*
X072101Y012546D01*
X072084Y012563D01*
X072065Y012571D01*
X072048Y012583D01*
X072014Y012592D01*
X071981Y012606D01*
X071960Y012606D01*
X071941Y012611D01*
X071905Y012606D01*
X064461Y012606D01*
X064349Y012606D01*
X064246Y012563D01*
X063889Y012206D01*
X059166Y012206D01*
X059158Y012214D01*
X059033Y012266D01*
X058897Y012266D01*
X058831Y012238D01*
X059149Y012556D01*
X060381Y012556D01*
X060503Y012434D01*
X060595Y012396D01*
X060695Y012396D01*
X063815Y012396D01*
X063907Y012434D01*
X063977Y012504D01*
X064589Y013116D01*
X068596Y013116D01*
X068597Y013115D01*
X068647Y013116D01*
X068695Y013116D01*
X068696Y013116D01*
X068697Y013116D01*
X068742Y013135D01*
X068787Y013154D01*
X068787Y013154D01*
X068788Y013155D01*
X068824Y013191D01*
X068857Y013224D01*
X068857Y013225D01*
X073870Y018316D01*
X074086Y018316D01*
X073823Y018207D01*
X073604Y017987D01*
X073485Y017701D01*
X073485Y017390D01*
X073604Y017104D01*
X073755Y016953D01*
X073755Y011639D01*
X073604Y011487D01*
X073485Y011201D01*
X073485Y010890D01*
X073485Y010966D02*
X073196Y010966D01*
X073118Y011044D02*
X073485Y011044D01*
X073485Y011123D02*
X073039Y011123D01*
X072960Y011201D02*
X073485Y011201D01*
X073518Y011280D02*
X072882Y011280D01*
X072803Y011358D02*
X073550Y011358D01*
X073583Y011437D02*
X072725Y011437D01*
X072646Y011515D02*
X073632Y011515D01*
X073710Y011594D02*
X072568Y011594D01*
X072489Y011673D02*
X073755Y011673D01*
X073755Y011751D02*
X072411Y011751D01*
X072332Y011830D02*
X073755Y011830D01*
X073755Y011908D02*
X072255Y011908D01*
X072347Y011987D02*
X073755Y011987D01*
X073755Y012065D02*
X072395Y012065D01*
X072425Y012144D02*
X073755Y012144D01*
X073755Y012222D02*
X072425Y012222D01*
X072414Y012301D02*
X073755Y012301D01*
X073755Y012379D02*
X072381Y012379D01*
X072313Y012458D02*
X073755Y012458D01*
X073755Y012537D02*
X072175Y012537D01*
X073755Y012615D02*
X064088Y012615D01*
X064009Y012537D02*
X064220Y012537D01*
X064141Y012458D02*
X063931Y012458D01*
X063977Y012504D02*
X063977Y012504D01*
X064063Y012379D02*
X058972Y012379D01*
X058894Y012301D02*
X063984Y012301D01*
X063906Y012222D02*
X059137Y012222D01*
X059051Y012458D02*
X060479Y012458D01*
X060401Y012537D02*
X059129Y012537D01*
X060559Y013046D02*
X063685Y013046D01*
X063685Y018570D01*
X063883Y018769D01*
X064025Y019111D01*
X064025Y019481D01*
X063883Y019822D01*
X063685Y020021D01*
X063685Y021435D01*
X064032Y021548D01*
X064699Y021643D01*
X065019Y021646D01*
X065040Y021646D01*
X065091Y021644D01*
X065096Y021646D01*
X094112Y021646D01*
X094114Y021645D01*
X094167Y021646D01*
X094171Y021646D01*
X094426Y021636D01*
X094927Y021537D01*
X095397Y021335D01*
X095814Y021039D01*
X096159Y020661D01*
X096417Y020220D01*
X096576Y019734D01*
X096630Y019226D01*
X096576Y018717D01*
X096417Y018231D01*
X096159Y017790D01*
X095814Y017413D01*
X095397Y017116D01*
X094927Y016914D01*
X094426Y016815D01*
X094171Y016806D01*
X094168Y016806D01*
X094114Y016807D01*
X094112Y016806D01*
X094109Y016806D01*
X094062Y016786D01*
X094010Y016766D01*
X094009Y016764D01*
X094006Y016763D01*
X093970Y016727D01*
X093930Y016688D01*
X093929Y016686D01*
X093928Y016684D01*
X093908Y016636D01*
X093886Y016586D01*
X093886Y016584D01*
X093885Y016581D01*
X093885Y016528D01*
X093884Y016475D01*
X093885Y016472D01*
X093885Y008406D01*
X093556Y008406D01*
X093505Y008457D01*
X093505Y009799D01*
X093598Y009837D01*
X093693Y009933D01*
X093745Y010058D01*
X093745Y010193D01*
X093693Y010318D01*
X093598Y010414D01*
X093473Y010466D01*
X093337Y010466D01*
X093212Y010414D01*
X093117Y010318D01*
X093065Y010193D01*
X093065Y010097D01*
X093065Y010012D01*
X093033Y010026D01*
X092897Y010026D01*
X092892Y010024D01*
X092853Y010118D01*
X092758Y010214D01*
X092633Y010266D01*
X092497Y010266D01*
X092478Y010258D01*
X092453Y010318D01*
X092358Y010414D01*
X092233Y010466D01*
X092105Y010466D01*
X092105Y010553D01*
X092053Y010678D01*
X091958Y010774D01*
X091833Y010826D01*
X091697Y010826D01*
X091572Y010774D01*
X091477Y010678D01*
X091425Y010553D01*
X091425Y010466D01*
X087776Y010466D01*
X087594Y010466D01*
X087514Y010386D01*
X087187Y010386D01*
X087225Y010478D01*
X087225Y010546D01*
X087253Y010546D01*
X087378Y010597D01*
X087473Y010693D01*
X087525Y010818D01*
X087525Y010953D01*
X087473Y011078D01*
X087405Y011146D01*
X087405Y011516D01*
X088225Y012352D01*
X088225Y012106D01*
X088157Y012038D01*
X088105Y011913D01*
X088105Y011778D01*
X088157Y011653D01*
X088252Y011557D01*
X088377Y011506D01*
X088513Y011506D01*
X088625Y011552D01*
X088625Y011515D01*
X088536Y011515D01*
X088625Y011515D02*
X088754Y011386D01*
X088994Y011146D01*
X089176Y011146D01*
X090376Y011146D01*
X090505Y011275D01*
X090816Y011586D01*
X091665Y011586D01*
X091665Y011578D01*
X091717Y011453D01*
X091812Y011357D01*
X091937Y011306D01*
X092073Y011306D01*
X092198Y011357D01*
X092293Y011453D01*
X092345Y011578D01*
X092345Y011713D01*
X092293Y011838D01*
X092198Y011934D01*
X092073Y011986D01*
X091976Y011986D01*
X091936Y012026D01*
X091754Y012026D01*
X091723Y012026D01*
X091745Y012078D01*
X091745Y012213D01*
X091723Y012266D01*
X091914Y012266D01*
X092505Y011675D01*
X092634Y011546D01*
X093130Y011546D01*
X093231Y011445D01*
X093370Y011388D01*
X093520Y011388D01*
X093659Y011445D01*
X093766Y011551D01*
X093823Y011690D01*
X093823Y011841D01*
X093766Y011980D01*
X093659Y012086D01*
X093536Y012137D01*
X093585Y012256D01*
X093585Y012475D01*
X093501Y012677D01*
X093347Y012832D01*
X093315Y012845D01*
X093447Y012899D01*
X093601Y013054D01*
X093685Y013256D01*
X093685Y013475D01*
X093601Y013677D01*
X093447Y013832D01*
X093315Y013886D01*
X093347Y013899D01*
X093501Y014054D01*
X093585Y014256D01*
X093585Y014475D01*
X093501Y014677D01*
X093347Y014832D01*
X093144Y014916D01*
X092926Y014916D01*
X092723Y014832D01*
X092569Y014677D01*
X092485Y014475D01*
X092485Y014256D01*
X092569Y014054D01*
X092723Y013899D01*
X092855Y013845D01*
X092823Y013832D01*
X092669Y013677D01*
X092656Y013646D01*
X091876Y013646D01*
X091107Y014415D01*
X091177Y014386D01*
X091313Y014386D01*
X091394Y014419D01*
X091397Y014413D01*
X091492Y014317D01*
X091617Y014266D01*
X091753Y014266D01*
X091878Y014317D01*
X091973Y014413D01*
X092025Y014538D01*
X092025Y014673D01*
X091973Y014798D01*
X091905Y014866D01*
X091905Y015995D01*
X092016Y016106D01*
X093114Y016106D01*
X093296Y016106D01*
X093376Y016186D01*
X093505Y016315D01*
X093505Y018075D01*
X093505Y018163D01*
X093587Y018081D01*
X093913Y017893D01*
X094277Y017796D01*
X094653Y017796D01*
X095017Y017893D01*
X095343Y018081D01*
X095609Y018348D01*
X095798Y018674D01*
X095895Y019037D01*
X095895Y019414D01*
X095798Y019778D01*
X095609Y020104D01*
X095343Y020370D01*
X095017Y020558D01*
X094653Y020656D01*
X094277Y020656D01*
X093913Y020558D01*
X093587Y020370D01*
X093321Y020104D01*
X093132Y019778D01*
X093035Y019414D01*
X093035Y019037D01*
X093132Y018674D01*
X093193Y018569D01*
X091725Y020037D01*
X091725Y020466D01*
X091757Y020479D01*
X091911Y020634D01*
X091966Y020766D01*
X091979Y020734D01*
X092133Y020579D01*
X092336Y020496D01*
X092554Y020496D01*
X092757Y020579D01*
X092911Y020734D01*
X092995Y020936D01*
X092995Y021155D01*
X092911Y021357D01*
X092757Y021512D01*
X092554Y021596D01*
X092336Y021596D01*
X092133Y021512D01*
X091979Y021357D01*
X091924Y021226D01*
X091911Y021257D01*
X091757Y021412D01*
X091554Y021496D01*
X091336Y021496D01*
X091133Y021412D01*
X090979Y021257D01*
X090966Y021226D01*
X090911Y021357D01*
X090757Y021512D01*
X090554Y021596D01*
X090336Y021596D01*
X090133Y021512D01*
X089979Y021357D01*
X089895Y021155D01*
X089895Y020936D01*
X089979Y020734D01*
X090133Y020579D01*
X090165Y020566D01*
X090165Y020030D01*
X090208Y019927D01*
X090286Y019848D01*
X090389Y019806D01*
X090414Y019806D01*
X092745Y017475D01*
X092745Y016866D01*
X091594Y016866D01*
X091465Y016737D01*
X090554Y015826D01*
X090457Y015826D01*
X090345Y015779D01*
X090345Y016035D01*
X090345Y016217D01*
X089896Y016666D01*
X089714Y016666D01*
X089106Y016666D01*
X089038Y016734D01*
X088913Y016786D01*
X088777Y016786D01*
X088652Y016734D01*
X088557Y016638D01*
X088505Y016513D01*
X088505Y016378D01*
X088536Y016304D01*
X088066Y016766D01*
X088220Y016766D01*
X088507Y016884D01*
X088726Y017104D01*
X088731Y017116D01*
X090399Y017116D01*
X090404Y017104D01*
X090623Y016884D01*
X090910Y016766D01*
X091220Y016766D01*
X091507Y016884D01*
X091726Y017104D01*
X091845Y017390D01*
X091845Y017701D01*
X091726Y017987D01*
X091507Y018207D01*
X091220Y018326D01*
X090910Y018326D01*
X090623Y018207D01*
X090404Y017987D01*
X090399Y017976D01*
X088731Y017976D01*
X088726Y017987D01*
X088507Y018207D01*
X088220Y018326D01*
X087910Y018326D01*
X087623Y018207D01*
X087404Y017987D01*
X087285Y017701D01*
X087285Y017533D01*
X086398Y018404D01*
X086065Y018737D01*
X086065Y019545D01*
X086133Y019613D01*
X086185Y019738D01*
X086185Y019873D01*
X086133Y019998D01*
X087042Y019998D01*
X087033Y019971D02*
X086403Y019341D01*
X086360Y019323D01*
X086248Y019211D01*
X086187Y019065D01*
X086187Y018906D01*
X086248Y018760D01*
X086360Y018648D01*
X086506Y018588D01*
X086664Y018588D01*
X086810Y018648D01*
X086922Y018760D01*
X086940Y018803D01*
X087590Y019453D01*
X087603Y019460D01*
X087643Y019506D01*
X087687Y019550D01*
X087692Y019563D01*
X087702Y019574D01*
X087721Y019633D01*
X087745Y019690D01*
X087745Y019704D01*
X087777Y019799D01*
X088487Y020496D01*
X088890Y020496D01*
X088995Y020601D01*
X088995Y021490D01*
X088890Y021596D01*
X088000Y021596D01*
X087895Y021490D01*
X087895Y020980D01*
X087222Y020319D01*
X087207Y020312D01*
X087168Y020266D01*
X087125Y020224D01*
X087119Y020209D01*
X087108Y020198D01*
X087089Y020140D01*
X087066Y020085D01*
X087066Y020069D01*
X087033Y019971D01*
X086982Y019920D02*
X086166Y019920D01*
X086185Y019841D02*
X086903Y019841D01*
X086825Y019763D02*
X086185Y019763D01*
X086163Y019684D02*
X086746Y019684D01*
X086667Y019605D02*
X086126Y019605D01*
X086065Y019527D02*
X086589Y019527D01*
X086510Y019448D02*
X086065Y019448D01*
X086065Y019370D02*
X086432Y019370D01*
X086328Y019291D02*
X086065Y019291D01*
X086065Y019213D02*
X086250Y019213D01*
X086216Y019134D02*
X086065Y019134D01*
X086065Y019056D02*
X086187Y019056D01*
X086187Y018977D02*
X086065Y018977D01*
X086065Y018899D02*
X086191Y018899D01*
X086223Y018820D02*
X086065Y018820D01*
X086065Y018741D02*
X086267Y018741D01*
X086345Y018663D02*
X086139Y018663D01*
X086217Y018584D02*
X091635Y018584D01*
X091714Y018506D02*
X086296Y018506D01*
X086374Y018427D02*
X091792Y018427D01*
X091871Y018349D02*
X086454Y018349D01*
X086534Y018270D02*
X087776Y018270D01*
X087608Y018192D02*
X086614Y018192D01*
X086694Y018113D02*
X087529Y018113D01*
X087451Y018035D02*
X086774Y018035D01*
X086854Y017956D02*
X087391Y017956D01*
X087358Y017877D02*
X086934Y017877D01*
X087014Y017799D02*
X087326Y017799D01*
X087293Y017720D02*
X087094Y017720D01*
X087174Y017642D02*
X087285Y017642D01*
X087285Y017563D02*
X087254Y017563D01*
X086434Y017426D02*
X086270Y017426D01*
X086260Y017436D01*
X086070Y017436D01*
X085700Y017066D01*
X085617Y017066D01*
X085492Y017014D01*
X085397Y016918D01*
X085345Y016793D01*
X085345Y016658D01*
X085397Y016533D01*
X085492Y016437D01*
X085617Y016386D01*
X085753Y016386D01*
X085878Y016437D01*
X085965Y016525D01*
X086012Y016477D01*
X086137Y016426D01*
X086154Y016426D01*
X085554Y015826D01*
X085537Y015809D01*
X085452Y015774D01*
X085357Y015678D01*
X085305Y015553D01*
X085305Y015418D01*
X085357Y015293D01*
X085452Y015197D01*
X085577Y015146D01*
X085713Y015146D01*
X085838Y015197D01*
X085933Y015293D01*
X085936Y015299D01*
X086017Y015266D01*
X086114Y015266D01*
X086585Y014795D01*
X086585Y014786D01*
X086517Y014718D01*
X086465Y014593D01*
X086465Y014466D01*
X086274Y014466D01*
X086145Y014337D01*
X086034Y014226D01*
X085937Y014226D01*
X085812Y014174D01*
X085717Y014078D01*
X085665Y013953D01*
X085665Y013818D01*
X085717Y013693D01*
X085812Y013597D01*
X085937Y013546D01*
X085985Y013546D01*
X085985Y013475D01*
X085985Y013466D01*
X085897Y013466D01*
X085772Y013414D01*
X085683Y013325D01*
X085633Y013346D01*
X085497Y013346D01*
X085372Y013294D01*
X085277Y013198D01*
X085225Y013073D01*
X085225Y012938D01*
X085255Y012866D01*
X085177Y012866D01*
X085052Y012814D01*
X085024Y012786D01*
X084953Y012786D01*
X084773Y012966D01*
X085192Y013385D01*
X085192Y013385D01*
X085265Y013458D01*
X085305Y013554D01*
X085305Y013585D01*
X085333Y013613D01*
X085385Y013738D01*
X085385Y013873D01*
X085333Y013998D01*
X085305Y014026D01*
X085305Y014265D01*
X085333Y014293D01*
X085385Y014418D01*
X085385Y014553D01*
X085333Y014678D01*
X085238Y014774D01*
X085113Y014826D01*
X084977Y014826D01*
X084852Y014774D01*
X084757Y014678D01*
X084738Y014633D01*
X084718Y014654D01*
X084593Y014706D01*
X084539Y014706D01*
X083947Y015298D01*
X083855Y015336D01*
X083755Y015336D01*
X083712Y015336D01*
X083727Y015350D01*
X083727Y015350D01*
X085207Y016830D01*
X085265Y016970D01*
X085265Y017121D01*
X085265Y018321D01*
X085207Y018461D01*
X085100Y018568D01*
X084880Y018788D01*
X084880Y018820D01*
X085305Y018820D01*
X085305Y018899D02*
X084848Y018899D01*
X084815Y018977D02*
X085305Y018977D01*
X085305Y019056D02*
X084747Y019056D01*
X084808Y018995D02*
X084674Y019129D01*
X084500Y019201D01*
X084310Y019201D01*
X084136Y019129D01*
X084002Y018995D01*
X083930Y018820D01*
X083061Y018820D01*
X083041Y018840D02*
X082888Y018903D01*
X082722Y018903D01*
X082569Y018840D01*
X082451Y018722D01*
X082388Y018569D01*
X082388Y018403D01*
X082425Y018312D01*
X082425Y016319D01*
X082388Y016229D01*
X082388Y016063D01*
X082436Y015946D01*
X082398Y015946D01*
X081513Y016799D01*
X081479Y016882D01*
X081361Y017000D01*
X081208Y017063D01*
X081042Y017063D01*
X080889Y017000D01*
X080771Y016882D01*
X080708Y016729D01*
X080708Y016656D01*
X080675Y016656D01*
X080576Y016656D01*
X080613Y016693D01*
X080665Y016818D01*
X080665Y016953D01*
X080655Y016977D01*
X080655Y018909D01*
X080733Y018987D01*
X080758Y018997D01*
X080853Y019093D01*
X080905Y019218D01*
X080905Y019353D01*
X080853Y019478D01*
X080758Y019574D01*
X080633Y019626D01*
X080497Y019626D01*
X080372Y019574D01*
X080277Y019478D01*
X080267Y019454D01*
X080138Y019325D01*
X080045Y019233D01*
X079995Y019111D01*
X079995Y016977D01*
X079985Y016953D01*
X079985Y016818D01*
X080013Y016752D01*
X077987Y018778D01*
X077895Y018816D01*
X077795Y018816D01*
X073814Y018816D01*
X073813Y018816D01*
X073763Y018816D01*
X073715Y018816D01*
X073714Y018815D01*
X073713Y018815D01*
X073668Y018796D01*
X073623Y018778D01*
X073623Y018777D01*
X073622Y018776D01*
X073587Y018741D01*
X063856Y018741D01*
X063905Y018820D02*
X079995Y018820D01*
X079995Y018899D02*
X063937Y018899D01*
X063970Y018977D02*
X079995Y018977D01*
X079995Y019056D02*
X064002Y019056D01*
X064025Y019134D02*
X080005Y019134D01*
X080037Y019213D02*
X064025Y019213D01*
X064025Y019291D02*
X080104Y019291D01*
X080183Y019370D02*
X064025Y019370D01*
X064025Y019448D02*
X080261Y019448D01*
X080325Y019527D02*
X064006Y019527D01*
X063973Y019605D02*
X080449Y019605D01*
X080681Y019605D02*
X085223Y019605D01*
X085237Y019638D02*
X085185Y019513D01*
X085185Y019378D01*
X085237Y019253D01*
X085305Y019185D01*
X085305Y018555D01*
X085434Y018426D01*
X086434Y017426D01*
X086375Y017485D02*
X085265Y017485D01*
X085265Y017563D02*
X086296Y017563D01*
X086218Y017642D02*
X085265Y017642D01*
X085265Y017720D02*
X086139Y017720D01*
X086061Y017799D02*
X085265Y017799D01*
X085265Y017877D02*
X085982Y017877D01*
X085904Y017956D02*
X085265Y017956D01*
X085265Y018035D02*
X085825Y018035D01*
X085746Y018113D02*
X085265Y018113D01*
X085265Y018192D02*
X085668Y018192D01*
X085589Y018270D02*
X085265Y018270D01*
X085254Y018349D02*
X085511Y018349D01*
X085432Y018427D02*
X085221Y018427D01*
X085162Y018506D02*
X085354Y018506D01*
X085305Y018584D02*
X085084Y018584D01*
X085100Y018568D02*
X085100Y018568D01*
X085005Y018663D02*
X085305Y018663D01*
X085305Y018741D02*
X084927Y018741D01*
X084880Y018820D02*
X084808Y018995D01*
X084661Y019134D02*
X085305Y019134D01*
X085277Y019213D02*
X080903Y019213D01*
X080905Y019291D02*
X085221Y019291D01*
X085188Y019370D02*
X080898Y019370D01*
X080866Y019448D02*
X085185Y019448D01*
X085191Y019527D02*
X080805Y019527D01*
X080870Y019134D02*
X084149Y019134D01*
X084063Y019056D02*
X080816Y019056D01*
X080723Y018977D02*
X083995Y018977D01*
X083962Y018899D02*
X082899Y018899D01*
X083041Y018840D02*
X083159Y018722D01*
X083222Y018569D01*
X083222Y018403D01*
X083185Y018312D01*
X083185Y016319D01*
X083222Y016229D01*
X083222Y016063D01*
X083174Y015946D01*
X083248Y015946D01*
X084505Y017203D01*
X084505Y018088D01*
X084343Y018250D01*
X084310Y018250D01*
X084136Y018323D01*
X084002Y018456D01*
X083930Y018631D01*
X083930Y018820D01*
X083930Y018741D02*
X083140Y018741D01*
X083183Y018663D02*
X083930Y018663D01*
X083949Y018584D02*
X083216Y018584D01*
X083222Y018506D02*
X083982Y018506D01*
X084031Y018427D02*
X083222Y018427D01*
X083200Y018349D02*
X084110Y018349D01*
X084263Y018270D02*
X083185Y018270D01*
X083185Y018192D02*
X084402Y018192D01*
X084480Y018113D02*
X083185Y018113D01*
X083185Y018035D02*
X084505Y018035D01*
X084505Y017956D02*
X083185Y017956D01*
X083185Y017877D02*
X084505Y017877D01*
X084505Y017799D02*
X083185Y017799D01*
X083185Y017720D02*
X084505Y017720D01*
X084505Y017642D02*
X083185Y017642D01*
X083185Y017563D02*
X084505Y017563D01*
X084505Y017485D02*
X083185Y017485D01*
X083185Y017406D02*
X084505Y017406D01*
X084505Y017328D02*
X083185Y017328D01*
X083185Y017249D02*
X084505Y017249D01*
X084473Y017171D02*
X083185Y017171D01*
X083185Y017092D02*
X084394Y017092D01*
X084316Y017014D02*
X083185Y017014D01*
X083185Y016935D02*
X084237Y016935D01*
X084158Y016856D02*
X083185Y016856D01*
X083185Y016778D02*
X084080Y016778D01*
X084001Y016699D02*
X083185Y016699D01*
X083185Y016621D02*
X083923Y016621D01*
X083844Y016542D02*
X083185Y016542D01*
X083185Y016464D02*
X083766Y016464D01*
X083687Y016385D02*
X083185Y016385D01*
X083190Y016307D02*
X083609Y016307D01*
X083530Y016228D02*
X083222Y016228D01*
X083222Y016150D02*
X083452Y016150D01*
X083373Y016071D02*
X083222Y016071D01*
X083193Y015992D02*
X083294Y015992D01*
X084055Y015678D02*
X085357Y015678D01*
X085324Y015600D02*
X083976Y015600D01*
X083898Y015521D02*
X085305Y015521D01*
X085305Y015443D02*
X083819Y015443D01*
X083741Y015364D02*
X085327Y015364D01*
X085364Y015286D02*
X083959Y015286D01*
X084037Y015207D02*
X085443Y015207D01*
X085645Y015486D02*
X085645Y015606D01*
X086605Y016566D01*
X086645Y016566D01*
X088125Y015126D01*
X088925Y015126D01*
X089965Y014086D01*
X090525Y014086D01*
X090645Y013966D01*
X090645Y013246D01*
X089885Y012486D01*
X088525Y012486D01*
X088445Y012406D01*
X088445Y011846D01*
X088135Y011987D02*
X087867Y011987D01*
X087944Y012065D02*
X088184Y012065D01*
X088225Y012144D02*
X088021Y012144D01*
X088098Y012222D02*
X088225Y012222D01*
X088225Y012301D02*
X088175Y012301D01*
X087845Y012526D02*
X087845Y012886D01*
X087245Y013446D01*
X087165Y013446D01*
X087085Y013126D02*
X087005Y013126D01*
X086685Y013446D01*
X086685Y013526D01*
X086925Y013766D01*
X088005Y013766D01*
X088165Y013606D01*
X089725Y013606D01*
X089885Y013446D01*
X090285Y013766D02*
X088285Y013766D01*
X088125Y013926D01*
X086805Y013926D01*
X086445Y013566D01*
X086445Y013406D01*
X087085Y012766D01*
X087085Y012606D01*
X087445Y012486D02*
X087445Y012766D01*
X087085Y013126D01*
X086685Y012846D02*
X086205Y013326D01*
X086205Y013566D01*
X086725Y014086D01*
X088245Y014086D01*
X088405Y013926D01*
X088965Y013926D01*
X089325Y014286D01*
X090165Y014486D02*
X089125Y015526D01*
X088365Y015526D01*
X086685Y017206D01*
X086165Y017206D01*
X086040Y017406D02*
X085265Y017406D01*
X085265Y017328D02*
X085962Y017328D01*
X085883Y017249D02*
X085265Y017249D01*
X085265Y017171D02*
X085805Y017171D01*
X085726Y017092D02*
X085265Y017092D01*
X085265Y017014D02*
X085492Y017014D01*
X085414Y016935D02*
X085250Y016935D01*
X085218Y016856D02*
X085371Y016856D01*
X085345Y016778D02*
X085155Y016778D01*
X085076Y016699D02*
X085345Y016699D01*
X085360Y016621D02*
X084998Y016621D01*
X084919Y016542D02*
X085393Y016542D01*
X085466Y016464D02*
X084840Y016464D01*
X084762Y016385D02*
X086113Y016385D01*
X086046Y016464D02*
X085904Y016464D01*
X086035Y016307D02*
X084683Y016307D01*
X084605Y016228D02*
X085956Y016228D01*
X085878Y016150D02*
X084526Y016150D01*
X084448Y016071D02*
X085799Y016071D01*
X085721Y015992D02*
X084369Y015992D01*
X084291Y015914D02*
X085642Y015914D01*
X085564Y015835D02*
X084212Y015835D01*
X084134Y015757D02*
X085435Y015757D01*
X086085Y015606D02*
X086805Y014886D01*
X086805Y014526D01*
X086492Y014657D02*
X085342Y014657D01*
X085375Y014579D02*
X086465Y014579D01*
X086465Y014500D02*
X085385Y014500D01*
X085385Y014422D02*
X086230Y014422D01*
X086151Y014343D02*
X085354Y014343D01*
X085305Y014264D02*
X086073Y014264D01*
X085842Y014186D02*
X085305Y014186D01*
X085305Y014107D02*
X085746Y014107D01*
X085696Y014029D02*
X085305Y014029D01*
X085353Y013950D02*
X085665Y013950D01*
X085665Y013872D02*
X085385Y013872D01*
X085385Y013793D02*
X085675Y013793D01*
X085708Y013715D02*
X085375Y013715D01*
X085343Y013636D02*
X085774Y013636D01*
X085909Y013558D02*
X085305Y013558D01*
X085274Y013479D02*
X085985Y013479D01*
X085759Y013401D02*
X085208Y013401D01*
X085129Y013322D02*
X085440Y013322D01*
X085322Y013243D02*
X085050Y013243D01*
X084972Y013165D02*
X085263Y013165D01*
X085230Y013086D02*
X084893Y013086D01*
X084815Y013008D02*
X085225Y013008D01*
X085229Y012929D02*
X084809Y012929D01*
X084888Y012851D02*
X085141Y012851D01*
X085565Y013006D02*
X085565Y012366D01*
X085445Y012246D01*
X083325Y012246D01*
X083565Y011926D02*
X082605Y011926D01*
X082485Y012046D01*
X081805Y012046D01*
X081805Y011726D01*
X082125Y011646D02*
X082245Y011766D01*
X083085Y011766D01*
X083245Y011606D01*
X084005Y011286D02*
X084565Y011846D01*
X085925Y011846D01*
X086005Y011926D01*
X086005Y012286D01*
X086165Y012446D01*
X085845Y012846D02*
X085725Y012726D01*
X085725Y012046D01*
X084285Y012046D01*
X083525Y011206D01*
X083045Y011206D01*
X082405Y011486D02*
X082005Y011086D01*
X078925Y011086D01*
X078005Y010166D01*
X077045Y010166D01*
X076685Y009806D01*
X072885Y009806D01*
X073565Y010046D02*
X074725Y010046D01*
X075245Y010566D01*
X075245Y011366D01*
X075485Y011606D01*
X076565Y011606D01*
X077165Y012206D01*
X078205Y012206D01*
X078925Y011486D01*
X078885Y011846D02*
X079045Y011846D01*
X079405Y011486D01*
X078885Y011846D02*
X078365Y012366D01*
X077085Y012366D01*
X076485Y011766D01*
X075405Y011766D01*
X075085Y011446D01*
X075085Y010726D01*
X074565Y010206D01*
X073645Y010206D01*
X071965Y011886D01*
X064885Y011886D01*
X064405Y011406D01*
X065405Y011406D02*
X065725Y011726D01*
X071885Y011726D01*
X073565Y010046D01*
X073667Y010494D02*
X073713Y010494D01*
X073635Y010573D02*
X073589Y010573D01*
X073584Y010651D02*
X073510Y010651D01*
X076765Y009646D02*
X077125Y010006D01*
X078325Y010006D01*
X078885Y010566D01*
X081005Y010326D02*
X081520Y010841D01*
X084677Y010841D01*
X084712Y010806D01*
X084715Y010806D01*
X084755Y010846D01*
X085885Y010846D01*
X086885Y010546D02*
X086885Y011566D01*
X087845Y012526D01*
X088205Y012646D02*
X088205Y013126D01*
X087965Y013366D01*
X086365Y014246D02*
X086005Y013886D01*
X086365Y014246D02*
X087045Y014246D01*
X087205Y014406D01*
X087205Y014526D01*
X086565Y014814D02*
X085140Y014814D01*
X085276Y014736D02*
X086534Y014736D01*
X086487Y014893D02*
X084351Y014893D01*
X084273Y014971D02*
X086408Y014971D01*
X086330Y015050D02*
X084194Y015050D01*
X084116Y015128D02*
X086251Y015128D01*
X086173Y015207D02*
X085847Y015207D01*
X085926Y015286D02*
X085969Y015286D01*
X084950Y014814D02*
X084430Y014814D01*
X084508Y014736D02*
X084814Y014736D01*
X084748Y014657D02*
X084710Y014657D01*
X084185Y014352D02*
X084185Y014298D01*
X084237Y014173D01*
X084332Y014077D01*
X084457Y014026D01*
X084593Y014026D01*
X084718Y014077D01*
X084785Y014145D01*
X084785Y014026D01*
X084757Y013998D01*
X084740Y013958D01*
X084673Y013986D01*
X084537Y013986D01*
X084412Y013934D01*
X084325Y013846D01*
X084278Y013894D01*
X084153Y013946D01*
X084113Y013946D01*
X083672Y014386D01*
X083577Y014426D01*
X083473Y014426D01*
X079913Y014426D01*
X079818Y014386D01*
X079745Y014313D01*
X079625Y014193D01*
X079585Y014097D01*
X079585Y013994D01*
X079585Y013554D01*
X079625Y013458D01*
X079698Y013385D01*
X079745Y013338D01*
X079745Y013298D01*
X079758Y013266D01*
X076857Y013266D01*
X076753Y013266D01*
X076658Y013226D01*
X076465Y013033D01*
X076465Y013033D01*
X076455Y013057D01*
X076455Y013989D01*
X076733Y014267D01*
X076758Y014277D01*
X076766Y014286D01*
X078764Y014286D01*
X078772Y014277D01*
X078897Y014226D01*
X079033Y014226D01*
X079158Y014277D01*
X079253Y014373D01*
X079305Y014498D01*
X079305Y014633D01*
X079253Y014758D01*
X079158Y014854D01*
X079033Y014906D01*
X078897Y014906D01*
X078772Y014854D01*
X078764Y014846D01*
X076766Y014846D01*
X076758Y014854D01*
X076633Y014906D01*
X076497Y014906D01*
X076372Y014854D01*
X076277Y014758D01*
X076267Y014734D01*
X075938Y014405D01*
X075845Y014313D01*
X075795Y014191D01*
X075795Y013288D01*
X075753Y013306D01*
X075617Y013306D01*
X075492Y013254D01*
X075397Y013158D01*
X075345Y013033D01*
X075345Y012898D01*
X075397Y012773D01*
X075457Y012712D01*
X075412Y012694D01*
X074775Y012694D01*
X074775Y012772D02*
X075398Y012772D01*
X075412Y012694D02*
X075317Y012598D01*
X075265Y012473D01*
X075265Y012338D01*
X075317Y012213D01*
X075384Y012146D01*
X075225Y012146D01*
X075225Y012233D01*
X075173Y012358D01*
X075078Y012454D01*
X074953Y012506D01*
X074817Y012506D01*
X074775Y012488D01*
X074775Y016953D01*
X074858Y017036D01*
X076672Y017036D01*
X076823Y016884D01*
X077110Y016766D01*
X077420Y016766D01*
X077707Y016884D01*
X077926Y017104D01*
X078045Y017390D01*
X078045Y017701D01*
X077926Y017987D01*
X077707Y018207D01*
X077444Y018316D01*
X077741Y018316D01*
X079793Y016264D01*
X079863Y016194D01*
X079955Y016156D01*
X080621Y016156D01*
X081833Y014944D01*
X081903Y014874D01*
X081995Y014836D01*
X083701Y014836D01*
X084185Y014352D01*
X084185Y014343D02*
X083715Y014343D01*
X083794Y014264D02*
X084199Y014264D01*
X084231Y014186D02*
X083872Y014186D01*
X083951Y014107D02*
X084302Y014107D01*
X084450Y014029D02*
X084029Y014029D01*
X084108Y013950D02*
X084452Y013950D01*
X084350Y013872D02*
X084300Y013872D01*
X084600Y014029D02*
X084785Y014029D01*
X084785Y014107D02*
X084748Y014107D01*
X084116Y014422D02*
X083587Y014422D01*
X083880Y014657D02*
X080591Y014657D01*
X080573Y014613D02*
X080625Y014738D01*
X080625Y014873D01*
X080573Y014998D01*
X080505Y015066D01*
X080505Y015315D01*
X080505Y015497D01*
X079465Y016537D01*
X079336Y016666D01*
X076346Y016666D01*
X076278Y016734D01*
X076153Y016786D01*
X076017Y016786D01*
X075892Y016734D01*
X075797Y016638D01*
X075745Y016513D01*
X075745Y016378D01*
X075797Y016253D01*
X075892Y016157D01*
X076017Y016106D01*
X076153Y016106D01*
X076278Y016157D01*
X076346Y016226D01*
X079154Y016226D01*
X080065Y015315D01*
X080065Y015066D01*
X079997Y014998D01*
X079945Y014873D01*
X079945Y014738D01*
X079997Y014613D01*
X080092Y014517D01*
X080217Y014466D01*
X080353Y014466D01*
X080478Y014517D01*
X080573Y014613D01*
X080539Y014579D02*
X083959Y014579D01*
X084037Y014500D02*
X080436Y014500D01*
X080624Y014736D02*
X083801Y014736D01*
X083723Y014814D02*
X080625Y014814D01*
X080617Y014893D02*
X081884Y014893D01*
X081806Y014971D02*
X080584Y014971D01*
X080522Y015050D02*
X081727Y015050D01*
X081649Y015128D02*
X080505Y015128D01*
X080505Y015207D02*
X081570Y015207D01*
X081492Y015286D02*
X080505Y015286D01*
X080505Y015364D02*
X081413Y015364D01*
X081335Y015443D02*
X080505Y015443D01*
X080481Y015521D02*
X081256Y015521D01*
X081177Y015600D02*
X080402Y015600D01*
X080324Y015678D02*
X081099Y015678D01*
X081020Y015757D02*
X080245Y015757D01*
X080166Y015835D02*
X080942Y015835D01*
X080863Y015914D02*
X080088Y015914D01*
X080009Y015992D02*
X080785Y015992D01*
X080706Y016071D02*
X079931Y016071D01*
X079852Y016150D02*
X080628Y016150D01*
X079829Y016228D02*
X079774Y016228D01*
X079751Y016307D02*
X079695Y016307D01*
X079672Y016385D02*
X079617Y016385D01*
X079593Y016464D02*
X079538Y016464D01*
X079515Y016542D02*
X079460Y016542D01*
X079436Y016621D02*
X079381Y016621D01*
X079358Y016699D02*
X076312Y016699D01*
X076171Y016778D02*
X077080Y016778D01*
X076891Y016856D02*
X074775Y016856D01*
X074775Y016778D02*
X075999Y016778D01*
X075858Y016699D02*
X074775Y016699D01*
X074775Y016621D02*
X075790Y016621D01*
X075757Y016542D02*
X074775Y016542D01*
X074775Y016464D02*
X075745Y016464D01*
X075745Y016385D02*
X074775Y016385D01*
X074775Y016307D02*
X075775Y016307D01*
X075822Y016228D02*
X074775Y016228D01*
X074775Y016150D02*
X075911Y016150D01*
X076085Y016446D02*
X079245Y016446D01*
X080285Y015406D01*
X080285Y014806D01*
X080049Y015050D02*
X074775Y015050D01*
X074775Y015128D02*
X080065Y015128D01*
X080065Y015207D02*
X074775Y015207D01*
X074775Y015286D02*
X080065Y015286D01*
X080015Y015364D02*
X074775Y015364D01*
X074775Y015443D02*
X079937Y015443D01*
X079858Y015521D02*
X074775Y015521D01*
X074775Y015600D02*
X079780Y015600D01*
X079701Y015678D02*
X074775Y015678D01*
X074775Y015757D02*
X079623Y015757D01*
X079544Y015835D02*
X074775Y015835D01*
X074775Y015914D02*
X079466Y015914D01*
X079387Y015992D02*
X074775Y015992D01*
X074775Y016071D02*
X079309Y016071D01*
X079230Y016150D02*
X076259Y016150D01*
X077450Y016778D02*
X079279Y016778D01*
X079201Y016856D02*
X077639Y016856D01*
X077757Y016935D02*
X079122Y016935D01*
X079044Y017014D02*
X077836Y017014D01*
X077914Y017092D02*
X078965Y017092D01*
X078887Y017171D02*
X077954Y017171D01*
X077986Y017249D02*
X078808Y017249D01*
X078729Y017328D02*
X078019Y017328D01*
X078045Y017406D02*
X078651Y017406D01*
X078572Y017485D02*
X078045Y017485D01*
X078045Y017563D02*
X078494Y017563D01*
X078415Y017642D02*
X078045Y017642D01*
X078037Y017720D02*
X078337Y017720D01*
X078258Y017799D02*
X078004Y017799D01*
X077972Y017877D02*
X078180Y017877D01*
X078101Y017956D02*
X077939Y017956D01*
X077879Y018035D02*
X078023Y018035D01*
X077944Y018113D02*
X077801Y018113D01*
X077866Y018192D02*
X077722Y018192D01*
X077787Y018270D02*
X077554Y018270D01*
X078101Y018663D02*
X079995Y018663D01*
X079995Y018741D02*
X078023Y018741D01*
X078180Y018584D02*
X079995Y018584D01*
X079995Y018506D02*
X078258Y018506D01*
X078337Y018427D02*
X079995Y018427D01*
X079995Y018349D02*
X078415Y018349D01*
X078494Y018270D02*
X079995Y018270D01*
X079995Y018192D02*
X078573Y018192D01*
X078651Y018113D02*
X079995Y018113D01*
X079995Y018035D02*
X078730Y018035D01*
X078808Y017956D02*
X079995Y017956D01*
X079995Y017877D02*
X078887Y017877D01*
X078965Y017799D02*
X079995Y017799D01*
X079995Y017720D02*
X079044Y017720D01*
X079122Y017642D02*
X079995Y017642D01*
X079995Y017563D02*
X079201Y017563D01*
X079279Y017485D02*
X079995Y017485D01*
X079995Y017406D02*
X079358Y017406D01*
X079436Y017328D02*
X079995Y017328D01*
X079995Y017249D02*
X079515Y017249D01*
X079594Y017171D02*
X079995Y017171D01*
X079995Y017092D02*
X079672Y017092D01*
X079751Y017014D02*
X079995Y017014D01*
X079985Y016935D02*
X079829Y016935D01*
X079908Y016856D02*
X079985Y016856D01*
X079986Y016778D02*
X080002Y016778D01*
X080616Y016699D02*
X080708Y016699D01*
X080728Y016778D02*
X080648Y016778D01*
X080665Y016856D02*
X080760Y016856D01*
X080824Y016935D02*
X080665Y016935D01*
X080655Y017014D02*
X080922Y017014D01*
X080655Y017092D02*
X082425Y017092D01*
X082425Y017014D02*
X081328Y017014D01*
X081426Y016935D02*
X082425Y016935D01*
X082425Y016856D02*
X081490Y016856D01*
X081535Y016778D02*
X082425Y016778D01*
X082425Y016699D02*
X081617Y016699D01*
X081698Y016621D02*
X082425Y016621D01*
X082425Y016542D02*
X081780Y016542D01*
X081861Y016464D02*
X082425Y016464D01*
X082425Y016385D02*
X081943Y016385D01*
X082024Y016307D02*
X082420Y016307D01*
X082388Y016228D02*
X082106Y016228D01*
X082187Y016150D02*
X082388Y016150D01*
X082388Y016071D02*
X082268Y016071D01*
X082350Y015992D02*
X082417Y015992D01*
X079986Y014971D02*
X074775Y014971D01*
X074775Y014893D02*
X076466Y014893D01*
X076333Y014814D02*
X074775Y014814D01*
X074775Y014736D02*
X076268Y014736D01*
X076190Y014657D02*
X074775Y014657D01*
X074775Y014579D02*
X076111Y014579D01*
X076033Y014500D02*
X074775Y014500D01*
X074775Y014422D02*
X075954Y014422D01*
X075876Y014343D02*
X074775Y014343D01*
X074775Y014264D02*
X075825Y014264D01*
X075795Y014186D02*
X074775Y014186D01*
X074775Y014107D02*
X075795Y014107D01*
X075795Y014029D02*
X074775Y014029D01*
X074775Y013950D02*
X075795Y013950D01*
X075795Y013872D02*
X074775Y013872D01*
X074775Y013793D02*
X075795Y013793D01*
X075795Y013715D02*
X074775Y013715D01*
X074775Y013636D02*
X075795Y013636D01*
X075795Y013558D02*
X074775Y013558D01*
X074775Y013479D02*
X075795Y013479D01*
X075795Y013401D02*
X074775Y013401D01*
X074775Y013322D02*
X075795Y013322D01*
X075482Y013243D02*
X074775Y013243D01*
X074775Y013165D02*
X075403Y013165D01*
X075367Y013086D02*
X074775Y013086D01*
X074775Y013008D02*
X075345Y013008D01*
X075345Y012929D02*
X074775Y012929D01*
X074775Y012851D02*
X075365Y012851D01*
X076455Y013086D02*
X076518Y013086D01*
X076455Y013165D02*
X076597Y013165D01*
X076700Y013243D02*
X076455Y013243D01*
X076455Y013322D02*
X079745Y013322D01*
X079682Y013401D02*
X076455Y013401D01*
X076455Y013479D02*
X079616Y013479D01*
X079585Y013558D02*
X076455Y013558D01*
X076455Y013636D02*
X079585Y013636D01*
X079585Y013715D02*
X076455Y013715D01*
X076455Y013793D02*
X079585Y013793D01*
X079585Y013872D02*
X076455Y013872D01*
X076455Y013950D02*
X079585Y013950D01*
X079585Y014029D02*
X076495Y014029D01*
X076573Y014107D02*
X079589Y014107D01*
X079622Y014186D02*
X076652Y014186D01*
X076730Y014264D02*
X078804Y014264D01*
X079126Y014264D02*
X079696Y014264D01*
X079775Y014343D02*
X079223Y014343D01*
X079273Y014422D02*
X079904Y014422D01*
X080031Y014579D02*
X079305Y014579D01*
X079295Y014657D02*
X079979Y014657D01*
X079946Y014736D02*
X079263Y014736D01*
X079197Y014814D02*
X079945Y014814D01*
X079953Y014893D02*
X079064Y014893D01*
X078866Y014893D02*
X076664Y014893D01*
X079305Y014500D02*
X080134Y014500D01*
X085845Y013006D02*
X085965Y013126D01*
X085845Y013006D02*
X085845Y012846D01*
X086685Y012846D02*
X086685Y012726D01*
X086965Y012006D02*
X087445Y012486D01*
X088205Y012646D02*
X087185Y011606D01*
X087185Y010886D01*
X087429Y011123D02*
X093885Y011123D01*
X093885Y011201D02*
X090432Y011201D01*
X090510Y011280D02*
X093885Y011280D01*
X093885Y011358D02*
X092199Y011358D01*
X092277Y011437D02*
X093251Y011437D01*
X093160Y011515D02*
X092319Y011515D01*
X092345Y011594D02*
X092586Y011594D01*
X092507Y011673D02*
X092345Y011673D01*
X092329Y011751D02*
X092428Y011751D01*
X092350Y011830D02*
X092297Y011830D01*
X092271Y011908D02*
X092223Y011908D01*
X092193Y011987D02*
X091975Y011987D01*
X092114Y012065D02*
X091740Y012065D01*
X091745Y012144D02*
X092036Y012144D01*
X091957Y012222D02*
X091741Y012222D01*
X091405Y012146D02*
X090745Y012146D01*
X090445Y012426D01*
X090765Y012886D02*
X091165Y012486D01*
X092005Y012486D01*
X092725Y011766D01*
X093445Y011766D01*
X093795Y011908D02*
X093885Y011908D01*
X093885Y011830D02*
X093823Y011830D01*
X093823Y011751D02*
X093885Y011751D01*
X093885Y011673D02*
X093816Y011673D01*
X093783Y011594D02*
X093885Y011594D01*
X093885Y011515D02*
X093730Y011515D01*
X093639Y011437D02*
X093885Y011437D01*
X093885Y011044D02*
X087487Y011044D01*
X087520Y010966D02*
X093885Y010966D01*
X093885Y010887D02*
X087525Y010887D01*
X087521Y010809D02*
X091656Y010809D01*
X091529Y010730D02*
X087489Y010730D01*
X087432Y010651D02*
X091466Y010651D01*
X091433Y010573D02*
X087319Y010573D01*
X087225Y010494D02*
X091425Y010494D01*
X091525Y010246D02*
X091765Y010486D01*
X091525Y010246D02*
X087685Y010246D01*
X087605Y010166D01*
X086245Y010166D01*
X086165Y010246D01*
X086215Y009746D02*
X085435Y010486D01*
X082645Y010486D01*
X082125Y009966D01*
X082125Y009166D01*
X081525Y008486D02*
X081285Y008726D01*
X080805Y008726D01*
X079845Y007766D01*
X081525Y008486D02*
X082085Y008486D01*
X082165Y008566D01*
X082805Y008566D01*
X083085Y008846D01*
X083085Y010006D01*
X085135Y010006D01*
X085345Y009796D01*
X085345Y009606D01*
X085805Y009146D01*
X085805Y009006D01*
X086125Y008686D01*
X086125Y008676D01*
X086115Y008686D01*
X086125Y008676D02*
X086125Y007286D01*
X086485Y007286D01*
X086655Y007106D01*
X085965Y006526D02*
X085605Y006886D01*
X085605Y008286D01*
X085485Y008406D01*
X085485Y008726D01*
X085365Y008846D01*
X085365Y009166D01*
X085005Y008926D02*
X085325Y008606D01*
X085325Y008286D01*
X085405Y008206D01*
X085405Y006606D01*
X085525Y006486D01*
X085765Y006286D02*
X085525Y006046D01*
X085245Y006086D02*
X085245Y005726D01*
X085405Y005566D01*
X085565Y005566D01*
X085645Y005646D01*
X085645Y005766D01*
X085965Y006086D01*
X086125Y006086D01*
X086405Y006366D01*
X088605Y006366D01*
X088725Y006486D01*
X090405Y006486D01*
X090685Y006766D01*
X090685Y008566D01*
X091165Y009046D01*
X092125Y009046D01*
X092205Y009126D01*
X092205Y010086D01*
X092165Y010126D01*
X092478Y010259D02*
X092481Y010259D01*
X092434Y010337D02*
X093136Y010337D01*
X093092Y010259D02*
X092649Y010259D01*
X092791Y010180D02*
X093065Y010180D01*
X093065Y010102D02*
X092860Y010102D01*
X093039Y010023D02*
X093065Y010023D01*
X093285Y010006D02*
X093405Y010126D01*
X093285Y010006D02*
X093285Y008366D01*
X093645Y008006D01*
X093645Y006266D01*
X093245Y005866D01*
X093245Y006326D01*
X093085Y006486D01*
X091885Y006486D01*
X091245Y005846D01*
X091005Y005846D01*
X090885Y005726D01*
X090885Y005246D01*
X091125Y005006D01*
X091125Y004406D01*
X090165Y003446D01*
X087205Y003446D01*
X087045Y003606D01*
X083725Y003606D01*
X083245Y004086D01*
X083245Y005486D01*
X082725Y006006D01*
X082565Y005686D02*
X082565Y004486D01*
X082965Y004086D01*
X083805Y003246D01*
X086845Y003246D01*
X086485Y002886D02*
X086365Y003006D01*
X081785Y003006D01*
X081765Y003046D01*
X080805Y003046D02*
X080565Y003366D01*
X080565Y003606D01*
X079685Y004486D01*
X078485Y004486D01*
X078405Y004566D01*
X078245Y004406D02*
X078245Y004886D01*
X078245Y004406D02*
X078485Y004166D01*
X079285Y004166D01*
X080165Y003286D01*
X083685Y004086D02*
X083685Y005856D01*
X083695Y005866D01*
X084325Y005826D02*
X084365Y005866D01*
X084665Y006166D01*
X085165Y006166D01*
X085245Y006086D01*
X085045Y006486D02*
X085045Y008366D01*
X084605Y007966D02*
X084605Y008806D01*
X083765Y009646D01*
X083485Y009646D01*
X085005Y009686D02*
X085005Y008926D01*
X086325Y008926D02*
X086365Y008886D01*
X087825Y008886D01*
X087965Y008746D01*
X089285Y008486D02*
X089285Y007446D01*
X089605Y007126D01*
X089615Y007106D01*
X088485Y007846D02*
X087965Y007326D01*
X087965Y006966D01*
X088685Y006206D02*
X088805Y006326D01*
X090485Y006326D01*
X090845Y006686D01*
X090845Y008486D01*
X091245Y008886D01*
X092205Y008886D01*
X092565Y009246D01*
X092565Y009926D01*
X092965Y009686D02*
X092965Y009406D01*
X092285Y008726D01*
X091325Y008726D01*
X091005Y008406D01*
X091005Y006586D01*
X090285Y005866D01*
X090165Y005746D01*
X090165Y005166D01*
X089245Y004246D01*
X089125Y004606D02*
X088685Y004166D01*
X087685Y004166D01*
X087285Y004406D02*
X087285Y005826D01*
X087325Y005866D01*
X087665Y006206D01*
X088685Y006206D01*
X089125Y005366D02*
X089605Y005856D01*
X089615Y005866D01*
X088645Y005766D02*
X088645Y004726D01*
X089125Y004606D02*
X089125Y005366D01*
X088085Y005686D02*
X088085Y004726D01*
X087925Y004566D01*
X086645Y004406D02*
X086645Y005856D01*
X086655Y005866D01*
X085965Y005646D02*
X085925Y005606D01*
X085925Y004406D01*
X086485Y003846D01*
X090005Y003846D01*
X090725Y003486D02*
X091285Y004046D01*
X091285Y005486D01*
X091245Y005526D01*
X091725Y005806D02*
X091845Y005926D01*
X091725Y005806D02*
X091725Y005046D01*
X092325Y005126D02*
X091445Y004246D01*
X091445Y003686D01*
X090885Y003126D01*
X087485Y003126D01*
X087245Y002886D01*
X086485Y002886D01*
X084325Y004086D02*
X084325Y005826D01*
X084965Y005766D02*
X085045Y005686D01*
X085045Y004246D01*
X090725Y004886D02*
X090725Y005966D01*
X090925Y006166D01*
X091085Y006166D01*
X092325Y005616D02*
X092575Y005866D01*
X092325Y005616D02*
X092325Y005126D01*
X092405Y004686D02*
X093005Y005366D01*
X093525Y005366D01*
X093645Y005486D01*
X093645Y006006D01*
X093845Y006206D01*
X093845Y006486D01*
X094005Y006646D01*
X092575Y007106D02*
X092365Y007316D01*
X092365Y008046D01*
X092085Y008326D01*
X091485Y008326D01*
X091805Y008006D02*
X091805Y006806D01*
X091405Y007006D02*
X091405Y007886D01*
X093509Y008452D02*
X093885Y008452D01*
X093885Y008531D02*
X093505Y008531D01*
X093505Y008609D02*
X093885Y008609D01*
X093885Y008688D02*
X093505Y008688D01*
X093505Y008766D02*
X093885Y008766D01*
X093885Y008845D02*
X093505Y008845D01*
X093505Y008924D02*
X093885Y008924D01*
X093885Y009002D02*
X093505Y009002D01*
X093505Y009081D02*
X093885Y009081D01*
X093885Y009159D02*
X093505Y009159D01*
X093505Y009238D02*
X093885Y009238D01*
X093885Y009316D02*
X093505Y009316D01*
X093505Y009395D02*
X093885Y009395D01*
X093885Y009473D02*
X093505Y009473D01*
X093505Y009552D02*
X093885Y009552D01*
X093885Y009630D02*
X093505Y009630D01*
X093505Y009709D02*
X093885Y009709D01*
X093885Y009788D02*
X093505Y009788D01*
X093626Y009866D02*
X093885Y009866D01*
X093885Y009945D02*
X093698Y009945D01*
X093731Y010023D02*
X093885Y010023D01*
X093885Y010102D02*
X093745Y010102D01*
X093745Y010180D02*
X093885Y010180D01*
X093885Y010259D02*
X093718Y010259D01*
X093674Y010337D02*
X093885Y010337D01*
X093885Y010416D02*
X093593Y010416D01*
X093885Y010494D02*
X092105Y010494D01*
X092097Y010573D02*
X093885Y010573D01*
X093885Y010651D02*
X092064Y010651D01*
X092001Y010730D02*
X093885Y010730D01*
X093885Y010809D02*
X091874Y010809D01*
X091811Y011358D02*
X090589Y011358D01*
X090667Y011437D02*
X091733Y011437D01*
X091691Y011515D02*
X090746Y011515D01*
X090725Y011806D02*
X090285Y011366D01*
X089085Y011366D01*
X088845Y011606D01*
X088845Y012006D01*
X088105Y011908D02*
X087790Y011908D01*
X087713Y011830D02*
X088105Y011830D01*
X088116Y011751D02*
X087636Y011751D01*
X087559Y011673D02*
X088149Y011673D01*
X088216Y011594D02*
X087482Y011594D01*
X087405Y011515D02*
X088354Y011515D01*
X088703Y011437D02*
X087405Y011437D01*
X087405Y011358D02*
X088781Y011358D01*
X088860Y011280D02*
X087405Y011280D01*
X087405Y011201D02*
X088938Y011201D01*
X091845Y011806D02*
X092005Y011646D01*
X091845Y011806D02*
X090725Y011806D01*
X093538Y012144D02*
X093885Y012144D01*
X093885Y012222D02*
X093571Y012222D01*
X093585Y012301D02*
X093885Y012301D01*
X093885Y012379D02*
X093585Y012379D01*
X093585Y012458D02*
X093885Y012458D01*
X093885Y012537D02*
X093560Y012537D01*
X093527Y012615D02*
X093885Y012615D01*
X093885Y012694D02*
X093485Y012694D01*
X093406Y012772D02*
X093885Y012772D01*
X093885Y012851D02*
X093329Y012851D01*
X093476Y012929D02*
X093885Y012929D01*
X093885Y013008D02*
X093555Y013008D01*
X093615Y013086D02*
X093885Y013086D01*
X093885Y013165D02*
X093647Y013165D01*
X093680Y013243D02*
X093885Y013243D01*
X093885Y013322D02*
X093685Y013322D01*
X093685Y013401D02*
X093885Y013401D01*
X093885Y013479D02*
X093683Y013479D01*
X093651Y013558D02*
X093885Y013558D01*
X093885Y013636D02*
X093618Y013636D01*
X093564Y013715D02*
X093885Y013715D01*
X093885Y013793D02*
X093485Y013793D01*
X093350Y013872D02*
X093885Y013872D01*
X093885Y013950D02*
X093397Y013950D01*
X093476Y014029D02*
X093885Y014029D01*
X093885Y014107D02*
X093523Y014107D01*
X093556Y014186D02*
X093885Y014186D01*
X093885Y014264D02*
X093585Y014264D01*
X093585Y014343D02*
X093885Y014343D01*
X093885Y014422D02*
X093585Y014422D01*
X093575Y014500D02*
X093885Y014500D01*
X093885Y014579D02*
X093542Y014579D01*
X093510Y014657D02*
X093885Y014657D01*
X093885Y014736D02*
X093443Y014736D01*
X093364Y014814D02*
X093885Y014814D01*
X093885Y014893D02*
X093199Y014893D01*
X092871Y014893D02*
X091905Y014893D01*
X091905Y014971D02*
X093885Y014971D01*
X093885Y015050D02*
X091905Y015050D01*
X091905Y015128D02*
X093885Y015128D01*
X093885Y015207D02*
X091905Y015207D01*
X091905Y015286D02*
X093885Y015286D01*
X093885Y015364D02*
X091905Y015364D01*
X091905Y015443D02*
X093885Y015443D01*
X093885Y015521D02*
X091905Y015521D01*
X091905Y015600D02*
X093885Y015600D01*
X093885Y015678D02*
X091905Y015678D01*
X091905Y015757D02*
X093885Y015757D01*
X093885Y015835D02*
X091905Y015835D01*
X091905Y015914D02*
X093885Y015914D01*
X093885Y015992D02*
X091905Y015992D01*
X091981Y016071D02*
X093885Y016071D01*
X093885Y016150D02*
X093340Y016150D01*
X093419Y016228D02*
X093885Y016228D01*
X093885Y016307D02*
X093497Y016307D01*
X093505Y016385D02*
X093885Y016385D01*
X093885Y016464D02*
X093505Y016464D01*
X093505Y016542D02*
X093885Y016542D01*
X093901Y016621D02*
X093505Y016621D01*
X093505Y016699D02*
X093942Y016699D01*
X094041Y016778D02*
X093505Y016778D01*
X093505Y016856D02*
X094636Y016856D01*
X094976Y016935D02*
X093505Y016935D01*
X093505Y017014D02*
X095158Y017014D01*
X095341Y017092D02*
X093505Y017092D01*
X093505Y017171D02*
X095473Y017171D01*
X095584Y017249D02*
X093505Y017249D01*
X093505Y017328D02*
X095694Y017328D01*
X095805Y017406D02*
X093505Y017406D01*
X093505Y017485D02*
X095880Y017485D01*
X095951Y017563D02*
X093505Y017563D01*
X093505Y017642D02*
X096023Y017642D01*
X096095Y017720D02*
X093505Y017720D01*
X093505Y017799D02*
X094265Y017799D01*
X093971Y017877D02*
X093505Y017877D01*
X093505Y017956D02*
X093804Y017956D01*
X093668Y018035D02*
X093505Y018035D01*
X093505Y018113D02*
X093555Y018113D01*
X093285Y018166D02*
X091445Y020006D01*
X091725Y020077D02*
X093305Y020077D01*
X093260Y019998D02*
X091764Y019998D01*
X091842Y019920D02*
X093214Y019920D01*
X093169Y019841D02*
X091921Y019841D01*
X091999Y019763D02*
X093128Y019763D01*
X093107Y019684D02*
X092078Y019684D01*
X092156Y019605D02*
X093086Y019605D01*
X093065Y019527D02*
X092235Y019527D01*
X092313Y019448D02*
X093044Y019448D01*
X093035Y019370D02*
X092392Y019370D01*
X092471Y019291D02*
X093035Y019291D01*
X093035Y019213D02*
X092549Y019213D01*
X092628Y019134D02*
X093035Y019134D01*
X093035Y019056D02*
X092706Y019056D01*
X092785Y018977D02*
X093051Y018977D01*
X093072Y018899D02*
X092863Y018899D01*
X092942Y018820D02*
X093093Y018820D01*
X093114Y018741D02*
X093020Y018741D01*
X093099Y018663D02*
X093139Y018663D01*
X093177Y018584D02*
X093184Y018584D01*
X093285Y018166D02*
X093285Y016406D01*
X093205Y016326D01*
X091925Y016326D01*
X091685Y016086D01*
X091685Y014606D01*
X091999Y014736D02*
X092627Y014736D01*
X092561Y014657D02*
X092025Y014657D01*
X092025Y014579D02*
X092528Y014579D01*
X092495Y014500D02*
X092009Y014500D01*
X091977Y014422D02*
X092485Y014422D01*
X092485Y014343D02*
X091903Y014343D01*
X091467Y014343D02*
X091179Y014343D01*
X091257Y014264D02*
X092485Y014264D01*
X092514Y014186D02*
X091336Y014186D01*
X091414Y014107D02*
X092547Y014107D01*
X092594Y014029D02*
X091493Y014029D01*
X091571Y013950D02*
X092673Y013950D01*
X092790Y013872D02*
X091650Y013872D01*
X091729Y013793D02*
X092785Y013793D01*
X092706Y013715D02*
X091807Y013715D01*
X091845Y013366D02*
X090725Y014486D01*
X090165Y014486D01*
X090445Y014646D02*
X091165Y014646D01*
X091245Y014726D01*
X090885Y015126D02*
X091125Y015366D01*
X091125Y015806D01*
X091805Y016486D01*
X093125Y016486D01*
X093125Y017726D01*
X091005Y019846D01*
X091005Y020166D01*
X090445Y020086D02*
X092965Y017566D01*
X092965Y016646D01*
X091685Y016646D01*
X090525Y015486D01*
X090564Y015835D02*
X090345Y015835D01*
X090345Y015914D02*
X090642Y015914D01*
X090721Y015992D02*
X090345Y015992D01*
X090345Y016071D02*
X090799Y016071D01*
X090878Y016150D02*
X090345Y016150D01*
X090334Y016228D02*
X090956Y016228D01*
X091035Y016307D02*
X090255Y016307D01*
X090177Y016385D02*
X091113Y016385D01*
X091192Y016464D02*
X090098Y016464D01*
X090020Y016542D02*
X091271Y016542D01*
X091349Y016621D02*
X089941Y016621D01*
X089805Y016446D02*
X088845Y016446D01*
X088535Y016307D02*
X088533Y016307D01*
X088505Y016385D02*
X088453Y016385D01*
X088505Y016464D02*
X088373Y016464D01*
X088293Y016542D02*
X088517Y016542D01*
X088550Y016621D02*
X088213Y016621D01*
X088133Y016699D02*
X088618Y016699D01*
X088759Y016778D02*
X088250Y016778D01*
X088439Y016856D02*
X090691Y016856D01*
X090573Y016935D02*
X088557Y016935D01*
X088636Y017014D02*
X090494Y017014D01*
X090416Y017092D02*
X088714Y017092D01*
X088931Y016778D02*
X090880Y016778D01*
X091250Y016778D02*
X091506Y016778D01*
X091439Y016856D02*
X091585Y016856D01*
X091557Y016935D02*
X092745Y016935D01*
X092745Y017014D02*
X091636Y017014D01*
X091714Y017092D02*
X092745Y017092D01*
X092745Y017171D02*
X091754Y017171D01*
X091786Y017249D02*
X092745Y017249D01*
X092745Y017328D02*
X091819Y017328D01*
X091845Y017406D02*
X092745Y017406D01*
X092735Y017485D02*
X091845Y017485D01*
X091845Y017563D02*
X092656Y017563D01*
X092578Y017642D02*
X091845Y017642D01*
X091837Y017720D02*
X092499Y017720D01*
X092421Y017799D02*
X091804Y017799D01*
X091772Y017877D02*
X092342Y017877D01*
X092264Y017956D02*
X091739Y017956D01*
X091679Y018035D02*
X092185Y018035D01*
X092106Y018113D02*
X091601Y018113D01*
X091522Y018192D02*
X092028Y018192D01*
X091949Y018270D02*
X091354Y018270D01*
X091557Y018663D02*
X086825Y018663D01*
X086903Y018741D02*
X091478Y018741D01*
X091400Y018820D02*
X086957Y018820D01*
X087035Y018899D02*
X091321Y018899D01*
X091242Y018977D02*
X087114Y018977D01*
X087192Y019056D02*
X091164Y019056D01*
X091085Y019134D02*
X087271Y019134D01*
X087349Y019213D02*
X091007Y019213D01*
X090928Y019291D02*
X087428Y019291D01*
X087507Y019370D02*
X090850Y019370D01*
X090771Y019448D02*
X087585Y019448D01*
X087664Y019527D02*
X090693Y019527D01*
X090614Y019605D02*
X087712Y019605D01*
X087742Y019684D02*
X090536Y019684D01*
X090457Y019763D02*
X087764Y019763D01*
X087820Y019841D02*
X090304Y019841D01*
X090215Y019920D02*
X087900Y019920D01*
X087980Y019998D02*
X090178Y019998D01*
X090165Y020077D02*
X088060Y020077D01*
X088140Y020155D02*
X090165Y020155D01*
X090165Y020234D02*
X088220Y020234D01*
X088300Y020312D02*
X090165Y020312D01*
X090165Y020391D02*
X088380Y020391D01*
X088460Y020469D02*
X090165Y020469D01*
X090165Y020548D02*
X088942Y020548D01*
X088995Y020626D02*
X090086Y020626D01*
X090008Y020705D02*
X088995Y020705D01*
X088995Y020784D02*
X089958Y020784D01*
X089926Y020862D02*
X088995Y020862D01*
X088995Y020941D02*
X089895Y020941D01*
X089895Y021019D02*
X088995Y021019D01*
X088995Y021098D02*
X089895Y021098D01*
X089904Y021176D02*
X088995Y021176D01*
X088995Y021255D02*
X089936Y021255D01*
X089969Y021333D02*
X088995Y021333D01*
X088995Y021412D02*
X090034Y021412D01*
X090112Y021490D02*
X088995Y021490D01*
X088916Y021569D02*
X090271Y021569D01*
X090619Y021569D02*
X092271Y021569D01*
X092112Y021490D02*
X091567Y021490D01*
X091756Y021412D02*
X092034Y021412D01*
X091969Y021333D02*
X091835Y021333D01*
X091912Y021255D02*
X091936Y021255D01*
X091323Y021490D02*
X090778Y021490D01*
X090857Y021412D02*
X091134Y021412D01*
X091055Y021333D02*
X090921Y021333D01*
X090954Y021255D02*
X090978Y021255D01*
X091941Y020705D02*
X092008Y020705D01*
X092086Y020626D02*
X091904Y020626D01*
X091825Y020548D02*
X092209Y020548D01*
X092681Y020548D02*
X093895Y020548D01*
X093759Y020469D02*
X091732Y020469D01*
X091725Y020391D02*
X093623Y020391D01*
X093529Y020312D02*
X091725Y020312D01*
X091725Y020234D02*
X093451Y020234D01*
X093372Y020155D02*
X091725Y020155D01*
X092804Y020626D02*
X094168Y020626D01*
X094762Y020626D02*
X096179Y020626D01*
X096225Y020548D02*
X095035Y020548D01*
X095171Y020469D02*
X096271Y020469D01*
X096317Y020391D02*
X095307Y020391D01*
X095401Y020312D02*
X096363Y020312D01*
X096409Y020234D02*
X095479Y020234D01*
X095558Y020155D02*
X096438Y020155D01*
X096464Y020077D02*
X095625Y020077D01*
X095670Y019998D02*
X096490Y019998D01*
X096515Y019920D02*
X095716Y019920D01*
X095761Y019841D02*
X096541Y019841D01*
X096567Y019763D02*
X095802Y019763D01*
X095823Y019684D02*
X096582Y019684D01*
X096590Y019605D02*
X095844Y019605D01*
X095865Y019527D02*
X096598Y019527D01*
X096607Y019448D02*
X095886Y019448D01*
X095895Y019370D02*
X096615Y019370D01*
X096623Y019291D02*
X095895Y019291D01*
X095895Y019213D02*
X096629Y019213D01*
X096621Y019134D02*
X095895Y019134D01*
X095895Y019056D02*
X096612Y019056D01*
X096604Y018977D02*
X095879Y018977D01*
X095858Y018899D02*
X096596Y018899D01*
X096587Y018820D02*
X095837Y018820D01*
X095816Y018741D02*
X096579Y018741D01*
X096559Y018663D02*
X095791Y018663D01*
X095746Y018584D02*
X096533Y018584D01*
X096507Y018506D02*
X095701Y018506D01*
X095655Y018427D02*
X096481Y018427D01*
X096455Y018349D02*
X095610Y018349D01*
X095532Y018270D02*
X096430Y018270D01*
X096394Y018192D02*
X095453Y018192D01*
X095375Y018113D02*
X096348Y018113D01*
X096302Y018035D02*
X095262Y018035D01*
X095126Y017956D02*
X096256Y017956D01*
X096210Y017877D02*
X094959Y017877D01*
X094665Y017799D02*
X096164Y017799D01*
X091428Y016699D02*
X089072Y016699D01*
X089805Y016446D02*
X090125Y016126D01*
X090125Y014966D01*
X090445Y014646D01*
X091957Y014814D02*
X092706Y014814D01*
X089725Y015909D02*
X089549Y015726D01*
X088445Y015726D01*
X085525Y018646D01*
X085525Y019446D01*
X085402Y019763D02*
X063908Y019763D01*
X063941Y019684D02*
X085283Y019684D01*
X085237Y019638D02*
X085332Y019734D01*
X085457Y019786D01*
X085505Y019786D01*
X085505Y019873D01*
X085557Y019998D01*
X063708Y019998D01*
X063685Y020077D02*
X085635Y020077D01*
X085652Y020094D02*
X085557Y019998D01*
X085524Y019920D02*
X063786Y019920D01*
X063865Y019841D02*
X085505Y019841D01*
X085845Y019806D02*
X085845Y018646D01*
X086245Y018246D01*
X088485Y016046D01*
X089005Y016046D01*
X082425Y017171D02*
X080655Y017171D01*
X080655Y017249D02*
X082425Y017249D01*
X082425Y017328D02*
X080655Y017328D01*
X080655Y017406D02*
X082425Y017406D01*
X082425Y017485D02*
X080655Y017485D01*
X080655Y017563D02*
X082425Y017563D01*
X082425Y017642D02*
X080655Y017642D01*
X080655Y017720D02*
X082425Y017720D01*
X082425Y017799D02*
X080655Y017799D01*
X080655Y017877D02*
X082425Y017877D01*
X082425Y017956D02*
X080655Y017956D01*
X080655Y018035D02*
X082425Y018035D01*
X082425Y018113D02*
X080655Y018113D01*
X080655Y018192D02*
X082425Y018192D01*
X082425Y018270D02*
X080655Y018270D01*
X080655Y018349D02*
X082410Y018349D01*
X082388Y018427D02*
X080655Y018427D01*
X080655Y018506D02*
X082388Y018506D01*
X082394Y018584D02*
X080655Y018584D01*
X080655Y018663D02*
X082427Y018663D01*
X082470Y018741D02*
X080655Y018741D01*
X080655Y018820D02*
X082549Y018820D01*
X082711Y018899D02*
X080655Y018899D01*
X086038Y020094D02*
X086133Y019998D01*
X086055Y020077D02*
X087066Y020077D01*
X087094Y020155D02*
X063685Y020155D01*
X063685Y020234D02*
X087135Y020234D01*
X087209Y020312D02*
X063685Y020312D01*
X063685Y020391D02*
X087295Y020391D01*
X087375Y020469D02*
X085412Y020469D01*
X085445Y020483D02*
X085545Y020583D01*
X085600Y020715D01*
X085600Y020857D01*
X085545Y020988D01*
X085445Y021088D01*
X085314Y021143D01*
X085172Y021143D01*
X085040Y021088D01*
X084940Y020988D01*
X084886Y020857D01*
X084886Y020715D01*
X084940Y020583D01*
X085040Y020483D01*
X085172Y020429D01*
X085314Y020429D01*
X085445Y020483D01*
X085510Y020548D02*
X087455Y020548D01*
X087535Y020626D02*
X085563Y020626D01*
X085596Y020705D02*
X087615Y020705D01*
X087695Y020784D02*
X085600Y020784D01*
X085598Y020862D02*
X087775Y020862D01*
X087855Y020941D02*
X085565Y020941D01*
X085514Y021019D02*
X087895Y021019D01*
X087895Y021098D02*
X085422Y021098D01*
X085063Y021098D02*
X082627Y021098D01*
X082650Y021088D02*
X082518Y021143D01*
X082376Y021143D01*
X082245Y021088D01*
X082145Y020988D01*
X082090Y020857D01*
X082090Y020715D01*
X082145Y020583D01*
X082245Y020483D01*
X082376Y020429D01*
X082518Y020429D01*
X082650Y020483D01*
X082750Y020583D01*
X082805Y020715D01*
X082805Y020857D01*
X082750Y020988D01*
X082650Y021088D01*
X082719Y021019D02*
X084971Y021019D01*
X084920Y020941D02*
X082770Y020941D01*
X082802Y020862D02*
X084888Y020862D01*
X084886Y020784D02*
X082805Y020784D01*
X082801Y020705D02*
X084889Y020705D01*
X084922Y020626D02*
X082768Y020626D01*
X082715Y020548D02*
X084975Y020548D01*
X085073Y020469D02*
X082617Y020469D01*
X082278Y020469D02*
X063685Y020469D01*
X063685Y020548D02*
X082180Y020548D01*
X082127Y020626D02*
X063685Y020626D01*
X063685Y020705D02*
X082094Y020705D01*
X082090Y020784D02*
X063685Y020784D01*
X063685Y020862D02*
X082093Y020862D01*
X082125Y020941D02*
X063685Y020941D01*
X063685Y021019D02*
X082176Y021019D01*
X082268Y021098D02*
X063685Y021098D01*
X063685Y021176D02*
X087895Y021176D01*
X087895Y021255D02*
X063685Y021255D01*
X063685Y021333D02*
X087895Y021333D01*
X087895Y021412D02*
X063685Y021412D01*
X063855Y021490D02*
X087895Y021490D01*
X087974Y021569D02*
X064180Y021569D01*
X068540Y013616D02*
X073553Y018706D01*
X073553Y018707D01*
X073587Y018741D01*
X073510Y018663D02*
X063777Y018663D01*
X063699Y018584D02*
X073433Y018584D01*
X073355Y018506D02*
X063685Y018506D01*
X063685Y018427D02*
X073278Y018427D01*
X073201Y018349D02*
X063685Y018349D01*
X063685Y018270D02*
X073123Y018270D01*
X073046Y018192D02*
X063685Y018192D01*
X063685Y018113D02*
X072969Y018113D01*
X072891Y018035D02*
X063685Y018035D01*
X063685Y017956D02*
X072814Y017956D01*
X072737Y017877D02*
X063685Y017877D01*
X063685Y017799D02*
X072659Y017799D01*
X072582Y017720D02*
X063685Y017720D01*
X063685Y017642D02*
X072505Y017642D01*
X072427Y017563D02*
X063685Y017563D01*
X063685Y017485D02*
X072350Y017485D01*
X072273Y017406D02*
X063685Y017406D01*
X063685Y017328D02*
X072195Y017328D01*
X072118Y017249D02*
X063685Y017249D01*
X063685Y017171D02*
X072041Y017171D01*
X071963Y017092D02*
X063685Y017092D01*
X063685Y017014D02*
X071886Y017014D01*
X071809Y016935D02*
X063685Y016935D01*
X063685Y016856D02*
X071731Y016856D01*
X071654Y016778D02*
X063685Y016778D01*
X063685Y016699D02*
X071577Y016699D01*
X071499Y016621D02*
X063685Y016621D01*
X063685Y016542D02*
X071422Y016542D01*
X071345Y016464D02*
X063685Y016464D01*
X063685Y016385D02*
X071267Y016385D01*
X071190Y016307D02*
X063685Y016307D01*
X063685Y016228D02*
X071113Y016228D01*
X071035Y016150D02*
X063685Y016150D01*
X063685Y016071D02*
X070958Y016071D01*
X070881Y015992D02*
X063685Y015992D01*
X063685Y015914D02*
X070803Y015914D01*
X070726Y015835D02*
X063685Y015835D01*
X063685Y015757D02*
X070649Y015757D01*
X070571Y015678D02*
X063685Y015678D01*
X063685Y015600D02*
X070494Y015600D01*
X070417Y015521D02*
X063685Y015521D01*
X063685Y015443D02*
X070339Y015443D01*
X070262Y015364D02*
X063685Y015364D01*
X063685Y015286D02*
X070185Y015286D01*
X070107Y015207D02*
X063685Y015207D01*
X063685Y015128D02*
X070030Y015128D01*
X069953Y015050D02*
X063685Y015050D01*
X063685Y014971D02*
X069875Y014971D01*
X069798Y014893D02*
X063685Y014893D01*
X063685Y014814D02*
X069721Y014814D01*
X069643Y014736D02*
X063685Y014736D01*
X063685Y014657D02*
X069566Y014657D01*
X069489Y014579D02*
X063685Y014579D01*
X063685Y014500D02*
X069411Y014500D01*
X069334Y014422D02*
X063685Y014422D01*
X063685Y014343D02*
X069257Y014343D01*
X069179Y014264D02*
X063685Y014264D01*
X063685Y014186D02*
X069102Y014186D01*
X069025Y014107D02*
X063685Y014107D01*
X063685Y014029D02*
X068947Y014029D01*
X068870Y013950D02*
X063685Y013950D01*
X063685Y013872D02*
X068793Y013872D01*
X068715Y013793D02*
X063685Y013793D01*
X063685Y013715D02*
X068638Y013715D01*
X068561Y013636D02*
X063685Y013636D01*
X063685Y013558D02*
X064324Y013558D01*
X064343Y013578D02*
X063662Y012896D01*
X060749Y012896D01*
X060697Y012947D01*
X060627Y013018D01*
X060559Y013046D01*
X060636Y013008D02*
X063774Y013008D01*
X063852Y013086D02*
X063685Y013086D01*
X063685Y013165D02*
X063931Y013165D01*
X064009Y013243D02*
X063685Y013243D01*
X063685Y013322D02*
X064088Y013322D01*
X064166Y013401D02*
X063685Y013401D01*
X063685Y013479D02*
X064245Y013479D01*
X064343Y013578D02*
X064435Y013616D01*
X064535Y013616D01*
X068540Y013616D01*
X068953Y013322D02*
X073755Y013322D01*
X073755Y013401D02*
X069030Y013401D01*
X069107Y013479D02*
X073755Y013479D01*
X073755Y013558D02*
X069185Y013558D01*
X069262Y013636D02*
X073755Y013636D01*
X073755Y013715D02*
X069339Y013715D01*
X069417Y013793D02*
X073755Y013793D01*
X073755Y013872D02*
X069494Y013872D01*
X069571Y013950D02*
X073755Y013950D01*
X073755Y014029D02*
X069649Y014029D01*
X069726Y014107D02*
X073755Y014107D01*
X073755Y014186D02*
X069803Y014186D01*
X069881Y014264D02*
X073755Y014264D01*
X073755Y014343D02*
X069958Y014343D01*
X070035Y014422D02*
X073755Y014422D01*
X073755Y014500D02*
X070113Y014500D01*
X070190Y014579D02*
X073755Y014579D01*
X073755Y014657D02*
X070267Y014657D01*
X070345Y014736D02*
X073755Y014736D01*
X073755Y014814D02*
X070422Y014814D01*
X070499Y014893D02*
X073755Y014893D01*
X073755Y014971D02*
X070577Y014971D01*
X070654Y015050D02*
X073755Y015050D01*
X073755Y015128D02*
X070731Y015128D01*
X070809Y015207D02*
X073755Y015207D01*
X073755Y015286D02*
X070886Y015286D01*
X070964Y015364D02*
X073755Y015364D01*
X073755Y015443D02*
X071041Y015443D01*
X071118Y015521D02*
X073755Y015521D01*
X073755Y015600D02*
X071196Y015600D01*
X071273Y015678D02*
X073755Y015678D01*
X073755Y015757D02*
X071350Y015757D01*
X071428Y015835D02*
X073755Y015835D01*
X073755Y015914D02*
X071505Y015914D01*
X071582Y015992D02*
X073755Y015992D01*
X073755Y016071D02*
X071660Y016071D01*
X071737Y016150D02*
X073755Y016150D01*
X073755Y016228D02*
X071814Y016228D01*
X071891Y016307D02*
X073755Y016307D01*
X073755Y016385D02*
X071969Y016385D01*
X072046Y016464D02*
X073755Y016464D01*
X073755Y016542D02*
X072124Y016542D01*
X072201Y016621D02*
X073755Y016621D01*
X073755Y016699D02*
X072278Y016699D01*
X072356Y016778D02*
X073755Y016778D01*
X073755Y016856D02*
X072433Y016856D01*
X072510Y016935D02*
X073755Y016935D01*
X073694Y017014D02*
X072588Y017014D01*
X072665Y017092D02*
X073616Y017092D01*
X073576Y017171D02*
X072742Y017171D01*
X072820Y017249D02*
X073544Y017249D01*
X073511Y017328D02*
X072897Y017328D01*
X072974Y017406D02*
X073485Y017406D01*
X073485Y017485D02*
X073052Y017485D01*
X073129Y017563D02*
X073485Y017563D01*
X073485Y017642D02*
X073206Y017642D01*
X073284Y017720D02*
X073493Y017720D01*
X073526Y017799D02*
X073361Y017799D01*
X073438Y017877D02*
X073558Y017877D01*
X073591Y017956D02*
X073516Y017956D01*
X073593Y018035D02*
X073651Y018035D01*
X073670Y018113D02*
X073729Y018113D01*
X073748Y018192D02*
X073808Y018192D01*
X073825Y018270D02*
X073976Y018270D01*
X074836Y017014D02*
X076694Y017014D01*
X076773Y016935D02*
X074775Y016935D01*
X088354Y018270D02*
X090776Y018270D01*
X090608Y018192D02*
X088522Y018192D01*
X088601Y018113D02*
X090529Y018113D01*
X090451Y018035D02*
X088679Y018035D01*
X086038Y020094D02*
X085913Y020146D01*
X085777Y020146D01*
X085652Y020094D01*
X092619Y021569D02*
X094767Y021569D01*
X095036Y021490D02*
X092778Y021490D01*
X092857Y021412D02*
X095218Y021412D01*
X095399Y021333D02*
X092921Y021333D01*
X092954Y021255D02*
X095510Y021255D01*
X095620Y021176D02*
X092986Y021176D01*
X092995Y021098D02*
X095730Y021098D01*
X095831Y021019D02*
X092995Y021019D01*
X092995Y020941D02*
X095903Y020941D01*
X095975Y020862D02*
X092964Y020862D01*
X092932Y020784D02*
X096047Y020784D01*
X096119Y020705D02*
X092882Y020705D01*
X073755Y013243D02*
X068875Y013243D01*
X068798Y013165D02*
X073755Y013165D01*
X073755Y013086D02*
X064559Y013086D01*
X064481Y013008D02*
X073755Y013008D01*
X073755Y012929D02*
X064402Y012929D01*
X064324Y012851D02*
X073755Y012851D01*
X073755Y012772D02*
X064245Y012772D01*
X064166Y012694D02*
X073755Y012694D01*
X074775Y012615D02*
X075334Y012615D01*
X075291Y012537D02*
X074775Y012537D01*
X075068Y012458D02*
X075265Y012458D01*
X075265Y012379D02*
X075152Y012379D01*
X075197Y012301D02*
X075280Y012301D01*
X075313Y012222D02*
X075225Y012222D01*
X075125Y011926D02*
X074885Y012166D01*
X075125Y011926D02*
X076405Y011926D01*
X077005Y012526D01*
X080245Y012526D01*
X080365Y012406D01*
X081005Y012406D01*
X081205Y012206D01*
X080685Y011446D01*
X081245Y011566D02*
X081285Y011526D01*
X081525Y011526D01*
X081645Y011406D01*
X081925Y011406D01*
X082125Y011606D01*
X082125Y011646D01*
X086565Y011846D02*
X086765Y012046D01*
X086965Y012006D01*
X093680Y012065D02*
X093885Y012065D01*
X093885Y011987D02*
X093759Y011987D01*
X093217Y010416D02*
X092353Y010416D01*
X087544Y010416D02*
X087199Y010416D01*
X086215Y009746D02*
X086215Y009676D01*
X080005Y008966D02*
X079685Y008646D01*
X079405Y008646D01*
X077775Y007106D02*
X077675Y007206D01*
X077365Y007206D01*
X077125Y006966D01*
X076645Y006966D01*
X076645Y006806D01*
X083685Y007126D02*
X083695Y007106D01*
X085965Y006526D02*
X085965Y006286D01*
X085765Y006286D01*
X088485Y007846D02*
X088485Y008166D01*
X092005Y004366D02*
X092925Y004366D01*
X093045Y004246D01*
X068915Y003206D02*
X068899Y005407D01*
X067205Y005446D02*
X067205Y005686D01*
X067205Y005446D02*
X066645Y004886D01*
X066245Y004566D02*
X066405Y004406D01*
X066805Y004406D01*
X067925Y003286D01*
X065365Y003126D02*
X065205Y003286D01*
X065205Y004166D01*
X064725Y004646D01*
X064725Y005926D01*
X064405Y006246D01*
X064005Y006246D01*
X063645Y005886D01*
X063645Y005866D01*
X062975Y005866D02*
X062975Y005276D01*
X063285Y004966D01*
X063285Y004406D01*
X063605Y004086D01*
X064245Y004086D01*
X064805Y003526D01*
X062965Y004406D02*
X062245Y005126D01*
X062245Y005766D01*
X061845Y006006D02*
X061525Y006326D01*
X061125Y006326D01*
X060965Y006486D01*
X060405Y006486D01*
X060015Y006096D01*
X060015Y005866D01*
X060685Y005866D02*
X060685Y005486D01*
X060325Y005126D01*
X060325Y003846D01*
X060725Y003446D01*
X061365Y003926D02*
X061845Y004406D01*
X061845Y006006D01*
X061445Y005766D02*
X061445Y004966D01*
X060725Y004246D01*
X059925Y004086D02*
X059125Y004886D01*
X059125Y006086D01*
X058405Y006246D02*
X058405Y005766D01*
X058725Y005446D01*
X057055Y005866D02*
X057055Y004956D01*
X059445Y002566D01*
X054885Y002566D01*
X049765Y002566D01*
X049685Y002486D01*
X049285Y002486D01*
X049045Y002726D01*
X045365Y002726D01*
X045285Y002806D01*
X041205Y002806D01*
X041125Y002726D01*
X040085Y002726D01*
X039845Y002966D01*
X036085Y002966D01*
X034565Y002966D01*
X034405Y003126D01*
X033605Y003446D02*
X032325Y004726D01*
X032325Y006006D01*
X032165Y006166D01*
X031685Y006166D01*
X031485Y005966D01*
X031485Y005866D01*
X032005Y005686D02*
X032005Y005286D01*
X031605Y004886D01*
X031205Y004726D02*
X031205Y005126D01*
X030815Y005516D01*
X030815Y005866D01*
X029925Y005766D02*
X029925Y005606D01*
X030805Y004726D01*
X031205Y004726D02*
X031685Y004246D01*
X032245Y004246D01*
X032885Y003606D01*
X033775Y005276D02*
X036085Y002966D01*
X036165Y003126D02*
X035645Y003646D01*
X035645Y005726D01*
X035445Y005926D01*
X035445Y006566D01*
X035125Y006246D02*
X034965Y006406D01*
X033445Y006406D01*
X033045Y006006D01*
X033045Y005846D01*
X033775Y005866D02*
X033775Y005276D01*
X035125Y005366D02*
X035125Y006246D01*
X034445Y005866D02*
X034445Y004846D01*
X035645Y003646D01*
X037205Y004086D02*
X037365Y003926D01*
X038645Y003926D01*
X040165Y004166D02*
X040165Y004646D01*
X039695Y005116D01*
X039695Y005866D01*
X040365Y005866D02*
X040365Y005246D01*
X041525Y004086D01*
X043925Y004086D01*
X044405Y003606D01*
X044325Y004246D02*
X045125Y003446D01*
X045525Y003446D02*
X045525Y004246D01*
X044405Y005366D01*
X044405Y005606D01*
X043845Y006166D01*
X043445Y006166D01*
X043245Y005966D01*
X043245Y005866D01*
X043845Y005686D02*
X043845Y005446D01*
X043285Y004886D01*
X042885Y005126D02*
X042885Y004486D01*
X042965Y004406D01*
X043285Y004406D01*
X043445Y004246D01*
X044325Y004246D01*
X042565Y004726D02*
X041765Y005526D01*
X041765Y005846D01*
X041125Y005686D02*
X041125Y005286D01*
X041845Y004566D01*
X042575Y005436D02*
X042885Y005126D01*
X042575Y005436D02*
X042575Y005866D01*
X044405Y006086D02*
X044725Y006086D01*
X045125Y006486D01*
X046565Y006486D01*
X046725Y006326D01*
X046725Y005446D01*
X046965Y005206D01*
X047285Y005526D02*
X046965Y005846D01*
X046965Y006806D01*
X047205Y007046D01*
X047605Y007046D01*
X047845Y006806D01*
X047845Y006726D01*
X048005Y006566D01*
X048565Y006566D01*
X049005Y006126D01*
X049005Y005866D01*
X048335Y005866D02*
X048225Y005866D01*
X047445Y006646D01*
X048335Y007106D02*
X047875Y007566D01*
X048335Y007116D02*
X048335Y007106D01*
X050245Y007046D02*
X051045Y007046D01*
X051065Y007106D01*
X051215Y007106D01*
X052965Y006566D02*
X053515Y006566D01*
X054095Y007106D01*
X055925Y006886D02*
X056835Y006886D01*
X057055Y007106D01*
X056485Y006166D02*
X056485Y005046D01*
X057765Y003766D01*
X057765Y002886D01*
X057685Y002806D01*
X056085Y002806D01*
X056005Y002886D01*
X055845Y003046D01*
X054725Y003046D01*
X054485Y003286D01*
X047765Y003286D01*
X046125Y004926D01*
X046125Y005866D01*
X045455Y005866D02*
X045455Y005276D01*
X047605Y003126D01*
X054325Y003126D01*
X054885Y002566D01*
X056885Y003366D02*
X057125Y003126D01*
X056885Y003366D02*
X056885Y003686D01*
X055205Y005366D01*
X055205Y005526D01*
X054765Y005966D01*
X054765Y005866D01*
X054095Y005866D02*
X054095Y005516D01*
X055125Y004486D01*
X055765Y004486D01*
X056565Y003686D01*
X056565Y003286D01*
X055205Y003446D02*
X054725Y003926D01*
X053605Y003926D01*
X053445Y004086D01*
X051845Y004086D01*
X051685Y004246D01*
X051685Y004966D01*
X051885Y005166D01*
X051885Y005866D01*
X051215Y005866D02*
X051215Y005276D01*
X051525Y004966D01*
X051525Y004086D01*
X051845Y003766D01*
X052885Y003766D01*
X053045Y003606D01*
X050405Y003926D02*
X049445Y003926D01*
X049365Y004006D01*
X049365Y004486D01*
X048335Y005516D01*
X048335Y005866D01*
X047525Y006006D02*
X047525Y004966D01*
X048405Y004086D01*
X047845Y003926D02*
X047285Y004486D01*
X047285Y005526D01*
X049845Y005686D02*
X049845Y004326D01*
X049765Y004246D01*
X050565Y004966D02*
X051125Y004406D01*
X052085Y004566D02*
X052645Y005126D01*
X052645Y005686D01*
X053285Y005766D02*
X053285Y005526D01*
X054085Y004726D01*
X055525Y005846D02*
X056165Y005206D01*
X055525Y005846D02*
X055525Y005926D01*
X050565Y005766D02*
X050565Y004966D01*
X045685Y003286D02*
X045525Y003446D01*
X045365Y002966D02*
X041125Y002966D01*
X041045Y002886D01*
X040165Y002886D01*
X039925Y003126D01*
X036165Y003126D01*
X040165Y004166D02*
X040565Y003766D01*
X039685Y004406D02*
X038965Y005126D01*
X038965Y005846D01*
X038165Y005766D02*
X038165Y004726D01*
X037685Y004246D01*
X035285Y005206D02*
X035125Y005366D01*
X030085Y004566D02*
X029285Y005366D01*
X029285Y005686D01*
X028525Y005866D02*
X028525Y005086D01*
X028965Y004646D01*
X028965Y003926D01*
X029125Y003766D01*
X028485Y003926D02*
X028405Y004006D01*
X028405Y004646D01*
X027855Y005196D01*
X027855Y005866D01*
X027125Y005686D02*
X027125Y005046D01*
X027765Y004406D01*
X026325Y004966D02*
X025605Y004246D01*
X025285Y004326D02*
X025285Y003366D01*
X024965Y003046D01*
X026565Y002966D02*
X026725Y003126D01*
X026725Y005926D01*
X026565Y006086D01*
X025685Y006086D01*
X025565Y005966D01*
X025565Y005866D01*
X026325Y005686D02*
X026325Y004966D01*
X018805Y007126D02*
X018325Y006646D01*
X017845Y006646D01*
X017605Y007046D02*
X017205Y007446D01*
X017205Y007926D01*
X016565Y008566D01*
X016005Y008566D01*
X015605Y008166D01*
X015605Y007526D01*
X015365Y007286D01*
X014885Y007286D01*
X013605Y008566D01*
X012805Y008566D01*
X014805Y008646D02*
X014805Y009606D01*
X017605Y009446D02*
X017765Y009206D01*
X017845Y008566D01*
X018485Y007926D02*
X019125Y008566D01*
X019525Y008566D01*
X020485Y007606D01*
X021125Y007606D01*
X022085Y008566D01*
X022405Y008566D01*
X023205Y007766D01*
X024165Y007766D01*
X021935Y007106D02*
X021715Y006886D01*
X021045Y006886D01*
X020965Y006806D01*
X020805Y006806D01*
X018975Y007106D02*
X018805Y007126D01*
X018485Y007446D02*
X018085Y007046D01*
X017605Y007046D01*
X018485Y007446D02*
X018485Y007926D01*
X016015Y007106D02*
X015835Y006966D01*
X015045Y006966D01*
X020485Y008886D02*
X020805Y008886D01*
X021205Y009286D01*
X026725Y009606D02*
X026725Y008646D01*
X029685Y008566D02*
X029685Y009286D01*
X029845Y009446D01*
X032405Y008886D02*
X032725Y008886D01*
X033125Y009286D01*
X033775Y007106D02*
X033635Y006966D01*
X032325Y006966D01*
X030815Y007106D02*
X030645Y007046D01*
X030485Y006966D01*
X029685Y006966D01*
X027855Y007106D02*
X027675Y007046D01*
X026805Y007046D01*
X038325Y006566D02*
X038565Y006806D01*
X039205Y006806D01*
X039545Y007106D01*
X039695Y007106D01*
X041285Y006566D02*
X041525Y006806D01*
X042245Y006806D01*
X042325Y006886D01*
X042575Y007106D01*
X041285Y006566D02*
X041125Y006566D01*
X044325Y006886D02*
X045235Y006886D01*
X045455Y007106D01*
X061765Y008566D02*
X061765Y009606D01*
X064805Y009446D02*
X064805Y008566D01*
X067605Y008646D02*
X067765Y008806D01*
X067765Y009286D01*
X065765Y007286D02*
X065045Y007286D01*
X065765Y007286D02*
X065935Y007106D01*
X062885Y007046D02*
X062885Y006726D01*
X062565Y006406D01*
X062165Y006406D01*
X062825Y007106D02*
X062885Y007046D01*
X066585Y005866D02*
X066605Y005866D01*
X064325Y005766D02*
X064325Y005206D01*
X063685Y004566D01*
X059445Y002566D02*
X068645Y002566D01*
X049445Y002806D02*
X049365Y002886D01*
X045445Y002886D01*
X045365Y002966D01*
X060715Y012929D02*
X063695Y012929D01*
D25*
X074265Y011046D02*
X074265Y017546D01*
X077265Y017546D01*
D26*
X088065Y017546D02*
X091065Y017546D01*
D27*
X093445Y011766D03*
D28*
X084885Y017046D02*
X083405Y015566D01*
X082245Y015566D01*
X081125Y016646D01*
X082805Y016146D02*
X082805Y018486D01*
X084405Y018726D02*
X084885Y018246D01*
X084885Y017046D01*
X086585Y018986D02*
X087365Y019766D01*
X087445Y020006D01*
X088505Y021046D01*
D29*
X086585Y018986D03*
D30*
X086165Y017206D02*
X085685Y016726D01*
X086205Y016766D02*
X086365Y016926D01*
X086605Y016926D01*
X088205Y015366D01*
X088245Y015326D01*
X089045Y015326D01*
X090085Y014286D01*
X090645Y014286D01*
X090845Y014086D01*
X090845Y013526D01*
X091485Y012886D01*
X092515Y012886D01*
D31*
X084525Y014366D02*
X083805Y015086D01*
X082045Y015086D01*
X080725Y016406D01*
X080005Y016406D01*
X077845Y018566D01*
X073765Y018566D01*
X068645Y013366D01*
X064485Y013366D01*
X063765Y012646D01*
X060645Y012646D01*
X060485Y012806D01*
X059045Y012806D01*
X057605Y011366D01*
X021045Y011366D01*
X020443Y010764D01*
X020443Y010660D01*
D32*
X084405Y018726D03*
M02*
