M48
INCH,TZ
VER,1
FMAT,2
T01C0.016F100B1000S6H2000
T02C0.02F100B1000S6H2000
T03C0.0236F100B1000S6H2000
T04C0.0315F100B1000S6H2000
T05C0.04F100B1000S6H2000
T06C0.25F100B1000S6H2000
DETECT,ON
ATC,ON
%
T01
X86960Y94500
X85440Y94340
X84640Y94180
X83920Y94020
X82800Y94260
X81760Y93860
X81040Y94340
X80480Y94500
X79280Y93700
X78720Y93540
X78000Y93380
X74240Y93060
X73360Y92500
X71360Y92580
X70560
X71120Y92180
X73840Y91620
X70880Y91220
X68000Y91300
X65360
X62560Y91060
X61840
X62240Y91700
X59360
X58720Y92420
X59520Y92500
X61600
X62400Y93060
X64640Y92420
X65680Y92580
X67760Y92500
X68400Y92580
X66880Y93540
X67600Y93700
X66080Y93380
X68560Y94500
X69200Y94340
X69920Y93860
X72080Y94020
X72720Y94180
X75760Y94980
X76400Y94820
X76880Y94660
X71120Y95300
X64800Y94660
X64080Y94820
X63280Y95140
X61120Y94180
X60000Y94020
X59040Y94340
X57120Y94500
X58000Y93860
X55840Y93700
X55120Y93540
X54400Y93380
X50720Y93060
X50160Y92260
X47840Y92580
X47120Y92500
X45040Y92580
X44400Y92500
X42160Y92340
X41680Y91780
X41760Y91380
X44720Y91700
X47440Y91220
X50240Y91620
X53280Y92180
X53840Y92580
X55920Y92420
X56560Y92580
Y91700
X53360Y91380
X56160Y90420
X59120Y90660
Y89700
X56160
X53600Y89540
X53360Y90020
X50520Y89660
X47600Y89620
X44960Y89460
X44800Y90180
X47440Y90420
X42000Y89540
X41760Y90020
X38960Y89620
X41440Y88980
X44320Y88820
X47600Y88660
X50520Y88380
X52960Y88900
X55680Y88820
X59120Y88660
X62320Y89620
X64560Y88980
X65280Y89380
X65040Y90020
X68000Y89700
Y90500
X70880
X70960Y89620
X74000
X76480Y88980
X77200Y89380
X76880Y89940
X79840Y89700
X82880Y89620
X80080Y88820
X79520Y88020
X82880Y88660
X88720Y89620
X91680Y89860
X94560Y90340
Y91300
X91600Y91700
X88720Y91460
X86000Y92180
X85360Y92500
X83200Y92260
X82480Y92180
X80160Y92500
X79520Y92420
X77520Y92580
X76560Y92500
X76880Y92020
Y91460
X79840Y91620
X82640Y91300
X82480Y90580
X79840Y90660
X85760Y91380
X91280Y92500
X92240Y92980
X88160Y94260
X67840Y88820
X70960Y88660
X47920Y94020
X49280Y94180
X49840Y94340
X52000Y94980
X52560Y94820
X53280Y94660
X48240Y95460
X44640Y94660
X42480Y94820
X41120Y94980
X40560Y95140
X41680Y95380
X36960Y94820
X36320Y94340
X37760Y94180
X36960Y94020
X34720Y93860
X34000Y93700
X31760Y93540
X31040Y93380
X27200Y92900
X26560Y92500
X24320
X23520Y92580
X21520Y92500
X20800Y92580
X18720
X17840Y92260
X18320Y91940
X20680
X21040Y91460
X23720Y91900
X24000Y91580
X26640Y91740
X27200Y91300
X30000Y91740
X30360Y91500
X32640Y91860
X33360Y91540
X35520Y91860
X35440Y92500
X36240
X38560Y92180
X38960Y92820
X41520Y93060
X43600Y93540
X45600Y93700
X46560Y93860
X47280Y94340
X33360Y92500
X30480Y92580
X29600Y92420
X32640Y90980
X33280Y90260
X32880Y89700
X30080Y89620
X29920Y88980
X27240Y89220
X26600Y89380
X24000
X23040Y88940
X22560
X21440Y89020
X20960
X20480
X18280Y89620
X17680Y89300
X15560Y89100
X14200Y88620
X12680Y88580
X11470Y88590
X11520Y88020
X10800Y87720
X10500Y87380
X11800Y87420
X12970Y87460
X13560Y87060
X14400Y86700
X14080Y86380
X15280Y86820
X15880
X14680Y87060
X17680Y86300
X18080Y86460
X19400Y86260
X19080Y85980
X19720Y86580
X17160Y85540
X16800Y85180
X17600Y84900
X17520Y84460
X16680
X14760Y84860
X13600Y84660
X13080Y84620
X12640Y84460
X11680Y84380
X10520Y84820
X9720Y84900
X7800Y84820
X7400Y84500
X6920Y85380
X7240Y85840
X6280Y86120
X8840Y86260
X9240Y86420
X11120
X11520Y85820
X11000Y85540
X10600Y85660
X11720Y85140
X12120Y85260
X12440Y85740
X14360Y86020
X14960
X15000Y85620
X14680Y84460
X12640Y83780
X10880Y83740
X10480
X8360Y83980
X6440Y83540
X6000Y83660
X6800Y83140
X7360Y82980
X9080Y82420
X11600Y82660
X12040Y82780
X6800Y81900
X11480Y81500
X12000Y81540
X18000Y83060
X18800Y83820
X5680Y86620
X5920Y87780
X5520Y88140
X5120Y88340
X4720Y88580
X4280Y88140
X6970Y88860
X7400Y89100
X9300Y89440
X9720Y89520
X11360Y89340
X11880Y89260
X12320Y89100
X11880Y89740
X12640Y89900
X15240Y90180
X15200Y91020
X12640Y91780
X12160
Y92220
X11720Y92620
X12720Y92500
X14600Y92180
X15120Y92580
X15520Y93060
X18880Y93380
X19840Y93540
X22160Y93700
X22880Y93860
X24480Y94500
X25760Y94180
X26320Y94340
X25120Y94020
X21280Y94660
X20880Y94900
X17520Y94980
X16880Y95220
X14720Y94180
X14000
X13360
X12640Y94020
X11760Y93860
X11040
X10400
X10000Y94100
X9760Y93700
X9040Y93540
X8440Y94020
X7680Y94420
X6960Y94780
X10840Y95020
X5680Y93900
X4640Y94020
X5280Y93580
X5960Y93220
X6960Y93380
X6440Y92740
X5840Y92340
X6600Y92100
X3680Y91620
X5880Y91460
X6280Y91260
Y90380
X5880Y90260
X6200Y89940
X7760Y89660
X9200Y90100
X9720Y91300
X9600Y92580
X9040Y92500
X18000Y90020
X21040Y90340
X24000Y90660
X27040Y89940
X24040Y89860
X25600Y88580
X24920Y87940
X23320Y87780
X22840Y87820
X22040Y87940
X18800Y87700
X18400Y87900
X18080Y87620
X16680Y87940
X29240Y88260
X30160Y87780
X30720Y87540
X31360Y87300
X35920Y88660
X32880Y88820
X35920Y89700
Y90660
X29920Y90100
X32880Y94740
X32320Y95140
X29760Y94980
X29200Y95300
X10590Y71000
X12110Y71160
X12910Y71320
X13630Y71480
X14750Y71240
X15790Y71640
X16510Y71160
X17070Y71000
X18270Y71800
X18830Y71960
X19550Y72120
X23310Y72440
X24190Y73000
X26190Y72920
X26990
X26430Y73320
X23710Y73880
X26670Y74280
X29550Y74200
X32190
X34990Y74440
X35710
X35310Y73800
X38190
X38830Y73080
X38030Y73000
X35950
X35150Y72440
X32910Y73080
X31870Y72920
X29790Y73000
X29150Y72920
X30670Y71960
X29950Y71800
X31470Y72120
X28990Y71000
X28350Y71160
X27630Y71640
X25470Y71480
X24830Y71320
X21790Y70520
X21150Y70680
X20670Y70840
X26430Y70200
X32750Y70840
X33470Y70680
X34270Y70360
X36430Y71320
X37550Y71480
X38510Y71160
X40430Y71000
X39550Y71640
X41710Y71800
X42430Y71960
X43150Y72120
X46830Y72440
X47390Y73240
X49710Y72920
X50430Y73000
X52510Y72920
X53150Y73000
X55390Y73160
X55870Y73720
X55790Y74120
X52830Y73800
X50110Y74280
X47310Y73880
X44270Y73320
X43710Y72920
X41630Y73080
X40990Y72920
Y73800
X44190Y74120
X41390Y75080
X38430Y74840
Y75800
X41390
X43950Y75960
X44190Y75480
X47030Y75840
X49950Y75880
X52590Y76040
X52750Y75320
X50110Y75080
X55550Y75960
X55790Y75480
X58590Y75880
X56110Y76520
X53230Y76680
X49950Y76840
X47030Y77120
X44590Y76600
X41870Y76680
X38430Y76840
X35230Y75880
X32990Y76520
X32270Y76120
X32510Y75480
X29550Y75800
Y75000
X26670
X26590Y75880
X23550
X21070Y76520
X20350Y76120
X20670Y75560
X17710Y75800
X14670Y75880
X17470Y76680
X18030Y77480
X14670Y76840
X8830Y75880
X5870Y75640
X2990Y75160
Y74200
X5950Y73800
X8830Y74040
X11550Y73320
X12190Y73000
X14350Y73240
X15070Y73320
X17390Y73000
X18030Y73080
X20030Y72920
X20990Y73000
X20670Y73480
Y74040
X17710Y73880
X14910Y74200
X15070Y74920
X17710Y74840
X11790Y74120
X6270Y73000
X5310Y72520
X9390Y71240
X29710Y76680
X26590Y76840
X49630Y71480
X48270Y71320
X47710Y71160
X45550Y70520
X44990Y70680
X44270Y70840
X49310Y70040
X52910Y70840
X55070Y70680
X56430Y70520
X56990Y70360
X55870Y70120
X60590Y70680
X61230Y71160
X59790Y71320
X60590Y71480
X62830Y71640
X63550Y71800
X65790Y71960
X66510Y72120
X70350Y72600
X70990Y73000
X73230
X74030Y72920
X76030Y73000
X76750Y72920
X78830
X79710Y73240
X79230Y73560
X76870
X76510Y74040
X73830Y73600
X73550Y73920
X70910Y73760
X70350Y74200
X67550Y73760
X67190Y74000
X64910Y73640
X64190Y73960
X62030Y73640
X62110Y73000
X61310
X58990Y73320
X58590Y72680
X56030Y72440
X53950Y71960
X51950Y71800
X50990Y71640
X50270Y71160
X64190Y73000
X67070Y72920
X67950Y73080
X64910Y74520
X64270Y75240
X64670Y75800
X67470Y75880
X67630Y76520
X70310Y76280
X70950Y76120
X73550
X74510Y76560
X74990
X76110Y76480
X76590
X77070
X79270Y75880
X79870Y76200
X81990Y76400
X83350Y76880
X84870Y76920
X86080Y76910
X86030Y77480
X86750Y77780
X87050Y78120
X85750Y78080
X84580Y78040
X83990Y78440
X83150Y78800
X83470Y79120
X82270Y78680
X81670
X82870Y78440
X79870Y79200
X79470Y79040
X78150Y79240
X78470Y79520
X77830Y78920
X80390Y79960
X80750Y80320
X79950Y80600
X80030Y81040
X80870
X82790Y80640
X83950Y80840
X84470Y80880
X84910Y81040
X85870Y81120
X87030Y80680
X87830Y80600
X89750Y80680
X90150Y81000
X90630Y80120
X90310Y79660
X91270Y79380
X88710Y79240
X88310Y79080
X86430
X86030Y79680
X86550Y79960
X86950Y79840
X85830Y80360
X85430Y80240
X85110Y79760
X83190Y79480
X82590
X82550Y79880
X82870Y81040
X84910Y81720
X86670Y81760
X87070
X89190Y81520
X91110Y81960
X91550Y81840
X90750Y82360
X90190Y82520
X88470Y83080
X85950Y82840
X85510Y82720
X90750Y83600
X86070Y84000
X85550Y83960
X79550Y82440
X78750Y81680
X91870Y78880
X91630Y77720
X92030Y77360
X92430Y77160
X92830Y76920
X93270Y77360
X90580Y76640
X90150Y76400
X88250Y76060
X87830Y75980
X86190Y76160
X85670Y76240
X85230Y76400
X85670Y75760
X84910Y75600
X82310Y75320
X82350Y74480
X84910Y73720
X85390
Y73280
X85830Y72880
X84830Y73000
X82950Y73320
X82430Y72920
X82030Y72440
X78670Y72120
X77710Y71960
X75390Y71800
X74670Y71640
X73070Y71000
X71790Y71320
X71230Y71160
X72430Y71480
X76270Y70840
X76670Y70600
X80030Y70520
X80670Y70280
X82830Y71320
X83550
X84190
X84910Y71480
X85790Y71640
X86510
X87150
X87550Y71400
X87790Y71800
X88510Y71960
X89110Y71480
X89870Y71080
X90590Y70720
X86710Y70480
X91870Y71600
X92910Y71480
X92270Y71920
X91590Y72280
X90590Y72120
X91110Y72760
X91710Y73160
X90950Y73400
X93870Y73880
X91670Y74040
X91270Y74240
Y75120
X91670Y75240
X91350Y75560
X89790Y75840
X88350Y75400
X87830Y74200
X87950Y72920
X88510Y73000
X79550Y75480
X76510Y75160
X73550Y74840
X70510Y75560
X73510Y75640
X71950Y76920
X72630Y77560
X74230Y77720
X74710Y77680
X75510Y77560
X78750Y77800
X79150Y77600
X79470Y77880
X80870Y77560
X68310Y77240
X67390Y77720
X66830Y77960
X66190Y78200
X61630Y76840
X64670Y76680
X61630Y75800
Y74840
X67630Y75400
X64670Y70760
X65230Y70360
X67790Y70520
X68350Y70200
X86960Y124000
X85440Y123840
X84640Y123680
X83920Y123520
X82800Y123760
X81760Y123360
X81040Y123840
X80480Y124000
X79280Y123200
X78720Y123040
X78000Y122880
X74240Y122560
X73360Y122000
X71360Y122080
X70560
X71120Y121680
X73840Y121120
X70880Y120720
X68000Y120800
X65360
X62560Y120560
X61840
X62240Y121200
X59360
X58720Y121920
X59520Y122000
X61600
X62400Y122560
X64640Y121920
X65680Y122080
X67760Y122000
X68400Y122080
X66880Y123040
X67600Y123200
X66080Y122880
X68560Y124000
X69200Y123840
X69920Y123360
X72080Y123520
X72720Y123680
X75760Y124480
X76400Y124320
X76880Y124160
X71120Y124800
X64800Y124160
X64080Y124320
X63280Y124640
X61120Y123680
X60000Y123520
X59040Y123840
X57120Y124000
X58000Y123360
X55840Y123200
X55120Y123040
X54400Y122880
X50720Y122560
X50160Y121760
X47840Y122080
X47120Y122000
X45040Y122080
X44400Y122000
X42160Y121840
X41680Y121280
X41760Y120880
X44720Y121200
X47440Y120720
X50240Y121120
X53280Y121680
X53840Y122080
X55920Y121920
X56560Y122080
Y121200
X53360Y120880
X56160Y119920
X59120Y120160
Y119200
X56160
X53600Y119040
X53360Y119520
X50520Y119160
X47600Y119120
X44960Y118960
X44800Y119680
X47440Y119920
X42000Y119040
X41760Y119520
X38960Y119120
X41440Y118480
X44320Y118320
X47600Y118160
X50520Y117880
X52960Y118400
X55680Y118320
X59120Y118160
X62320Y119120
X64560Y118480
X65280Y118880
X65040Y119520
X68000Y119200
Y120000
X70880
X70960Y119120
X74000
X76480Y118480
X77200Y118880
X76880Y119440
X79840Y119200
X82880Y119120
X80080Y118320
X79520Y117520
X82880Y118160
X88720Y119120
X91680Y119360
X94560Y119840
Y120800
X91600Y121200
X88720Y120960
X86000Y121680
X85360Y122000
X83200Y121760
X82480Y121680
X80160Y122000
X79520Y121920
X77520Y122080
X76560Y122000
X76880Y121520
Y120960
X79840Y121120
X82640Y120800
X82480Y120080
X79840Y120160
X85760Y120880
X91280Y122000
X92240Y122480
X88160Y123760
X67840Y118320
X70960Y118160
X47920Y123520
X49280Y123680
X49840Y123840
X52000Y124480
X52560Y124320
X53280Y124160
X48240Y124960
X44640Y124160
X42480Y124320
X41120Y124480
X40560Y124640
X41680Y124880
X36960Y124320
X36320Y123840
X37760Y123680
X36960Y123520
X34720Y123360
X34000Y123200
X31760Y123040
X31040Y122880
X27200Y122400
X26560Y122000
X24320
X23520Y122080
X21520Y122000
X20800Y122080
X18720
X17840Y121760
X18320Y121440
X20680
X21040Y120960
X23720Y121400
X24000Y121080
X26640Y121240
X27200Y120800
X30000Y121240
X30360Y121000
X32640Y121360
X33360Y121040
X35520Y121360
X35440Y122000
X36240
X38560Y121680
X38960Y122320
X41520Y122560
X43600Y123040
X45600Y123200
X46560Y123360
X47280Y123840
X33360Y122000
X30480Y122080
X29600Y121920
X32640Y120480
X33280Y119760
X32880Y119200
X30080Y119120
X29920Y118480
X27240Y118720
X26600Y118880
X24000
X23040Y118440
X22560
X21440Y118520
X20960
X20480
X18280Y119120
X17680Y118800
X15560Y118600
X14200Y118120
X12680Y118080
X11470Y118090
X11520Y117520
X10800Y117220
X10500Y116880
X11800Y116920
X12970Y116960
X13560Y116560
X14400Y116200
X14080Y115880
X15280Y116320
X15880
X14680Y116560
X17680Y115800
X18080Y115960
X19400Y115760
X19080Y115480
X19720Y116080
X17160Y115040
X16800Y114680
X17600Y114400
X17520Y113960
X16680
X14760Y114360
X13600Y114160
X13080Y114120
X12640Y113960
X11680Y113880
X10520Y114320
X9720Y114400
X7800Y114320
X7400Y114000
X6920Y114880
X7240Y115340
X6280Y115620
X8840Y115760
X9240Y115920
X11120
X11520Y115320
X11000Y115040
X10600Y115160
X11720Y114640
X12120Y114760
X12440Y115240
X14360Y115520
X14960
X15000Y115120
X14680Y113960
X12640Y113280
X10880Y113240
X10480
X8360Y113480
X6440Y113040
X6000Y113160
X6800Y112640
X7360Y112480
X9080Y111920
X11600Y112160
X12040Y112280
X6800Y111400
X11480Y111000
X12000Y111040
X18000Y112560
X18800Y113320
X5680Y116120
X5920Y117280
X5520Y117640
X5120Y117840
X4720Y118080
X4280Y117640
X6970Y118360
X7400Y118600
X9300Y118940
X9720Y119020
X11360Y118840
X11880Y118760
X12320Y118600
X11880Y119240
X12640Y119400
X15240Y119680
X15200Y120520
X12640Y121280
X12160
Y121720
X11720Y122120
X12720Y122000
X14600Y121680
X15120Y122080
X15520Y122560
X18880Y122880
X19840Y123040
X22160Y123200
X22880Y123360
X24480Y124000
X25760Y123680
X26320Y123840
X25120Y123520
X21280Y124160
X20880Y124400
X17520Y124480
X16880Y124720
X14720Y123680
X14000
X13360
X12640Y123520
X11760Y123360
X11040
X10400
X10000Y123600
X9760Y123200
X9040Y123040
X8440Y123520
X7680Y123920
X6960Y124280
X10840Y124520
X5680Y123400
X4640Y123520
X5280Y123080
X5960Y122720
X6960Y122880
X6440Y122240
X5840Y121840
X6600Y121600
X3680Y121120
X5880Y120960
X6280Y120760
Y119880
X5880Y119760
X6200Y119440
X7760Y119160
X9200Y119600
X9720Y120800
X9600Y122080
X9040Y122000
X18000Y119520
X21040Y119840
X24000Y120160
X27040Y119440
X24040Y119360
X25600Y118080
X24920Y117440
X23320Y117280
X22840Y117320
X22040Y117440
X18800Y117200
X18400Y117400
X18080Y117120
X16680Y117440
X29240Y117760
X30160Y117280
X30720Y117040
X31360Y116800
X35920Y118160
X32880Y118320
X35920Y119200
Y120160
X29920Y119600
X32880Y124240
X32320Y124640
X29760Y124480
X29200Y124800
X10590Y100500
X12110Y100660
X12910Y100820
X13630Y100980
X14750Y100740
X15790Y101140
X16510Y100660
X17070Y100500
X18270Y101300
X18830Y101460
X19550Y101620
X23310Y101940
X24190Y102500
X26190Y102420
X26990
X26430Y102820
X23710Y103380
X26670Y103780
X29550Y103700
X32190
X34990Y103940
X35710
X35310Y103300
X38190
X38830Y102580
X38030Y102500
X35950
X35150Y101940
X32910Y102580
X31870Y102420
X29790Y102500
X29150Y102420
X30670Y101460
X29950Y101300
X31470Y101620
X28990Y100500
X28350Y100660
X27630Y101140
X25470Y100980
X24830Y100820
X21790Y100020
X21150Y100180
X20670Y100340
X26430Y99700
X32750Y100340
X33470Y100180
X34270Y99860
X36430Y100820
X37550Y100980
X38510Y100660
X40430Y100500
X39550Y101140
X41710Y101300
X42430Y101460
X43150Y101620
X46830Y101940
X47390Y102740
X49710Y102420
X50430Y102500
X52510Y102420
X53150Y102500
X55390Y102660
X55870Y103220
X55790Y103620
X52830Y103300
X50110Y103780
X47310Y103380
X44270Y102820
X43710Y102420
X41630Y102580
X40990Y102420
Y103300
X44190Y103620
X41390Y104580
X38430Y104340
Y105300
X41390
X43950Y105460
X44190Y104980
X47030Y105340
X49950Y105380
X52590Y105540
X52750Y104820
X50110Y104580
X55550Y105460
X55790Y104980
X58590Y105380
X56110Y106020
X53230Y106180
X49950Y106340
X47030Y106620
X44590Y106100
X41870Y106180
X38430Y106340
X35230Y105380
X32990Y106020
X32270Y105620
X32510Y104980
X29550Y105300
Y104500
X26670
X26590Y105380
X23550
X21070Y106020
X20350Y105620
X20670Y105060
X17710Y105300
X14670Y105380
X17470Y106180
X18030Y106980
X14670Y106340
X8830Y105380
X5870Y105140
X2990Y104660
Y103700
X5950Y103300
X8830Y103540
X11550Y102820
X12190Y102500
X14350Y102740
X15070Y102820
X17390Y102500
X18030Y102580
X20030Y102420
X20990Y102500
X20670Y102980
Y103540
X17710Y103380
X14910Y103700
X15070Y104420
X17710Y104340
X11790Y103620
X6270Y102500
X5310Y102020
X9390Y100740
X29710Y106180
X26590Y106340
X49630Y100980
X48270Y100820
X47710Y100660
X45550Y100020
X44990Y100180
X44270Y100340
X49310Y99540
X52910Y100340
X55070Y100180
X56430Y100020
X56990Y99860
X55870Y99620
X60590Y100180
X61230Y100660
X59790Y100820
X60590Y100980
X62830Y101140
X63550Y101300
X65790Y101460
X66510Y101620
X70350Y102100
X70990Y102500
X73230
X74030Y102420
X76030Y102500
X76750Y102420
X78830
X79710Y102740
X79230Y103060
X76870
X76510Y103540
X73830Y103100
X73550Y103420
X70910Y103260
X70350Y103700
X67550Y103260
X67190Y103500
X64910Y103140
X64190Y103460
X62030Y103140
X62110Y102500
X61310
X58990Y102820
X58590Y102180
X56030Y101940
X53950Y101460
X51950Y101300
X50990Y101140
X50270Y100660
X64190Y102500
X67070Y102420
X67950Y102580
X64910Y104020
X64270Y104740
X64670Y105300
X67470Y105380
X67630Y106020
X70310Y105780
X70950Y105620
X73550
X74510Y106060
X74990
X76110Y105980
X76590
X77070
X79270Y105380
X79870Y105700
X81990Y105900
X83350Y106380
X84870Y106420
X86080Y106410
X86030Y106980
X86750Y107280
X87050Y107620
X85750Y107580
X84580Y107540
X83990Y107940
X83150Y108300
X83470Y108620
X82270Y108180
X81670
X82870Y107940
X79870Y108700
X79470Y108540
X78150Y108740
X78470Y109020
X77830Y108420
X80390Y109460
X80750Y109820
X79950Y110100
X80030Y110540
X80870
X82790Y110140
X83950Y110340
X84470Y110380
X84910Y110540
X85870Y110620
X87030Y110180
X87830Y110100
X89750Y110180
X90150Y110500
X90630Y109620
X90310Y109160
X91270Y108880
X88710Y108740
X88310Y108580
X86430
X86030Y109180
X86550Y109460
X86950Y109340
X85830Y109860
X85430Y109740
X85110Y109260
X83190Y108980
X82590
X82550Y109380
X82870Y110540
X84910Y111220
X86670Y111260
X87070
X89190Y111020
X91110Y111460
X91550Y111340
X90750Y111860
X90190Y112020
X88470Y112580
X85950Y112340
X85510Y112220
X90750Y113100
X86070Y113500
X85550Y113460
X79550Y111940
X78750Y111180
X91870Y108380
X91630Y107220
X92030Y106860
X92430Y106660
X92830Y106420
X93270Y106860
X90580Y106140
X90150Y105900
X88250Y105560
X87830Y105480
X86190Y105660
X85670Y105740
X85230Y105900
X85670Y105260
X84910Y105100
X82310Y104820
X82350Y103980
X84910Y103220
X85390
Y102780
X85830Y102380
X84830Y102500
X82950Y102820
X82430Y102420
X82030Y101940
X78670Y101620
X77710Y101460
X75390Y101300
X74670Y101140
X73070Y100500
X71790Y100820
X71230Y100660
X72430Y100980
X76270Y100340
X76670Y100100
X80030Y100020
X80670Y99780
X82830Y100820
X83550
X84190
X84910Y100980
X85790Y101140
X86510
X87150
X87550Y100900
X87790Y101300
X88510Y101460
X89110Y100980
X89870Y100580
X90590Y100220
X86710Y99980
X91870Y101100
X92910Y100980
X92270Y101420
X91590Y101780
X90590Y101620
X91110Y102260
X91710Y102660
X90950Y102900
X93870Y103380
X91670Y103540
X91270Y103740
Y104620
X91670Y104740
X91350Y105060
X89790Y105340
X88350Y104900
X87830Y103700
X87950Y102420
X88510Y102500
X79550Y104980
X76510Y104660
X73550Y104340
X70510Y105060
X73510Y105140
X71950Y106420
X72630Y107060
X74230Y107220
X74710Y107180
X75510Y107060
X78750Y107300
X79150Y107100
X79470Y107380
X80870Y107060
X68310Y106740
X67390Y107220
X66830Y107460
X66190Y107700
X61630Y106340
X64670Y106180
X61630Y105300
Y104340
X67630Y104900
X64670Y100260
X65230Y99860
X67790Y100020
X68350Y99700
X10778Y129946
X12298Y130106
X13098Y130266
X13818Y130426
X14938Y130186
X15978Y130586
X16698Y130106
X17258Y129946
X18458Y130746
X19018Y130906
X19738Y131066
X23498Y131386
X24378Y131946
X26378Y131866
X27178
X26618Y132266
X23898Y132826
X26858Y133226
X29738Y133146
X32378
X35178Y133386
X35898
X35498Y132746
X38378
X39018Y132026
X38218Y131946
X36138
X35338Y131386
X33098Y132026
X32058Y131866
X29978Y131946
X29338Y131866
X30858Y130906
X30138Y130746
X31658Y131066
X29178Y129946
X28538Y130106
X27818Y130586
X25658Y130426
X25018Y130266
X21978Y129466
X21338Y129626
X20858Y129786
X26618Y129146
X32938Y129786
X33658Y129626
X34458Y129306
X36618Y130266
X37738Y130426
X38698Y130106
X40618Y129946
X39738Y130586
X41898Y130746
X42618Y130906
X43338Y131066
X47018Y131386
X47578Y132186
X49898Y131866
X50618Y131946
X52698Y131866
X53338Y131946
X55578Y132106
X56058Y132666
X55978Y133066
X53018Y132746
X50298Y133226
X47498Y132826
X44458Y132266
X43898Y131866
X41818Y132026
X41178Y131866
Y132746
X44378Y133066
X41578Y134026
X38618Y133786
Y134746
X41578
X44138Y134906
X44378Y134426
X47218Y134786
X50138Y134826
X52778Y134986
X52938Y134266
X50298Y134026
X55738Y134906
X55978Y134426
X58778Y134826
X56298Y135466
X53418Y135626
X50138Y135786
X47218Y136066
X44778Y135546
X42058Y135626
X38618Y135786
X35418Y134826
X33178Y135466
X32458Y135066
X32698Y134426
X29738Y134746
Y133946
X26858
X26778Y134826
X23738
X21258Y135466
X20538Y135066
X20858Y134506
X17898Y134746
X14858Y134826
X17658Y135626
X18218Y136426
X14858Y135786
X9018Y134826
X6058Y134586
X3178Y134106
Y133146
X6138Y132746
X9018Y132986
X11738Y132266
X12378Y131946
X14538Y132186
X15258Y132266
X17578Y131946
X18218Y132026
X20218Y131866
X21178Y131946
X20858Y132426
Y132986
X17898Y132826
X15098Y133146
X15258Y133866
X17898Y133786
X11978Y133066
X6458Y131946
X5498Y131466
X9578Y130186
X29898Y135626
X26778Y135786
X49818Y130426
X48458Y130266
X47898Y130106
X45738Y129466
X45178Y129626
X44458Y129786
X49498Y128986
X53098Y129786
X55258Y129626
X56618Y129466
X57178Y129306
X56058Y129066
X60778Y129626
X61418Y130106
X59978Y130266
X60778Y130426
X63018Y130586
X63738Y130746
X65978Y130906
X66698Y131066
X70538Y131546
X71178Y131946
X73418
X74218Y131866
X76218Y131946
X76938Y131866
X79018
X79898Y132186
X79418Y132506
X77058
X76698Y132986
X74018Y132546
X73738Y132866
X71098Y132706
X70538Y133146
X67738Y132706
X67378Y132946
X65098Y132586
X64378Y132906
X62218Y132586
X62298Y131946
X61498
X59178Y132266
X58778Y131626
X56218Y131386
X54138Y130906
X52138Y130746
X51178Y130586
X50458Y130106
X64378Y131946
X67258Y131866
X68138Y132026
X65098Y133466
X64458Y134186
X64858Y134746
X67658Y134826
X67818Y135466
X70498Y135226
X71138Y135066
X73738
X74698Y135506
X75178
X76298Y135426
X76778
X77258
X79458Y134826
X80058Y135146
X82178Y135346
X83538Y135826
X85058Y135866
X86268Y135856
X86218Y136426
X86938Y136726
X87238Y137066
X85938Y137026
X84768Y136986
X84178Y137386
X83338Y137746
X83658Y138066
X82458Y137626
X81858
X83058Y137386
X80058Y138146
X79658Y137986
X78338Y138186
X78658Y138466
X78018Y137866
X80578Y138906
X80938Y139266
X80138Y139546
X80218Y139986
X81058
X82978Y139586
X84138Y139786
X84658Y139826
X85098Y139986
X86058Y140066
X87218Y139626
X88018Y139546
X89938Y139626
X90338Y139946
X90818Y139066
X90498Y138606
X91458Y138326
X88898Y138186
X88498Y138026
X86618
X86218Y138626
X86738Y138906
X87138Y138786
X86018Y139306
X85618Y139186
X85298Y138706
X83378Y138426
X82778
X82738Y138826
X83058Y139986
X85098Y140666
X86858Y140706
X87258
X89378Y140466
X91298Y140906
X91738Y140786
X90938Y141306
X90378Y141466
X88658Y142026
X86138Y141786
X85698Y141666
X90938Y142546
X86258Y142946
X85738Y142906
X79738Y141386
X78938Y140626
X92058Y137826
X91818Y136666
X92218Y136306
X92618Y136106
X93018Y135866
X93458Y136306
X90768Y135586
X90338Y135346
X88438Y135006
X88018Y134926
X86378Y135106
X85858Y135186
X85418Y135346
X85858Y134706
X85098Y134546
X82498Y134266
X82538Y133426
X85098Y132666
X85578
Y132226
X86018Y131826
X85018Y131946
X83138Y132266
X82618Y131866
X82218Y131386
X78858Y131066
X77898Y130906
X75578Y130746
X74858Y130586
X73258Y129946
X71978Y130266
X71418Y130106
X72618Y130426
X76458Y129786
X76858Y129546
X80218Y129466
X80858Y129226
X83018Y130266
X83738
X84378
X85098Y130426
X85978Y130586
X86698
X87338
X87738Y130346
X87978Y130746
X88698Y130906
X89298Y130426
X90058Y130026
X90778Y129666
X86898Y129426
X92058Y130546
X93098Y130426
X92458Y130866
X91778Y131226
X90778Y131066
X91298Y131706
X91898Y132106
X91138Y132346
X94058Y132826
X91858Y132986
X91458Y133186
Y134066
X91858Y134186
X91538Y134506
X89978Y134786
X88538Y134346
X88018Y133146
X88138Y131866
X88698Y131946
X79738Y134426
X76698Y134106
X73738Y133786
X70698Y134506
X73698Y134586
X72138Y135866
X72818Y136506
X74418Y136666
X74898Y136626
X75698Y136506
X78938Y136746
X79338Y136546
X79658Y136826
X81058Y136506
X68498Y136186
X67578Y136666
X67018Y136906
X66378Y137146
X61818Y135786
X64858Y135626
X61818Y134746
Y133786
X67818Y134346
X64858Y129706
X65418Y129306
X67978Y129466
X68538Y129146
T02
X11520Y83580
X12400Y83140
X12880Y81380
X15280Y80740
X86030Y81920
X85150Y82360
X84670Y84120
X82270Y84760
X11520Y113080
X12400Y112640
X12880Y110880
X15280Y110240
X86030Y111420
X85150Y111860
X84670Y113620
X82270Y114260
X86218Y140866
X85338Y141306
X84858Y143066
X82458Y143706
T03
X4240Y86500
X93310Y79000
X4240Y116000
X93310Y108500
X93498Y137946
T04
X12640Y85300
X13640Y90180
X16600
X19560
X22520
X25480
X28440
X31400
X34360
X37320
X40280
X43240
X46120
X49000
X51880
X54760
X57640
X60600
X63560
X66520
X69480
X72440
X75400
X78360
X81320
X84280
X87240
X90200
X93160
X96120
X10680
X7720
X4760
X84910Y80200
X83910Y75320
X80950
X77990
X75030
X72070
X69110
X66150
X63190
X60230
X57270
X54310
X51430
X48550
X45670
X42790
X39910
X36950
X33990
X31030
X28070
X25110
X22150
X19190
X16230
X13270
X10310
X7350
X4390
X1430
X86870
X89830
X92790
X12640Y114800
X13640Y119680
X16600
X19560
X22520
X25480
X28440
X31400
X34360
X37320
X40280
X43240
X46120
X49000
X51880
X54760
X57640
X60600
X63560
X66520
X69480
X72440
X75400
X78360
X81320
X84280
X87240
X90200
X93160
X96120
X10680
X7720
X4760
X84910Y109700
X83910Y104820
X80950
X77990
X75030
X72070
X69110
X66150
X63190
X60230
X57270
X54310
X51430
X48550
X45670
X42790
X39910
X36950
X33990
X31030
X28070
X25110
X22150
X19190
X16230
X13270
X10310
X7350
X4390
X1430
X86870
X89830
X92790
X85098Y139146
X84098Y134266
X81138
X78178
X75218
X72258
X69298
X66338
X63378
X60418
X57458
X54498
X51618
X48738
X45858
X42978
X40098
X37138
X34178
X31218
X28258
X25298
X22338
X19378
X16418
X13458
X10498
X7538
X4578
X1618
X87058
X90018
X92978
T05
X4650Y85900
X4550Y84900
X4650Y83900
X4550Y82900
X6360Y81240
X7360Y81140
X8360Y81240
X9360Y81140
X5360
X16760Y81070
Y82210
X92900Y79600
X93000Y80600
X92900Y81600
X93000Y82600
X91190Y84260
X90190Y84360
X89190Y84260
X88190Y84360
X92190
X80790Y84430
Y83290
X4650Y115400
X4550Y114400
X4650Y113400
X4550Y112400
X6360Y110740
X7360Y110640
X8360Y110740
X9360Y110640
X5360
X16760Y110570
Y111710
X92900Y109100
X93000Y110100
X92900Y111100
X93000Y112100
X91190Y113760
X90190Y113860
X89190Y113760
X88190Y113860
X92190
X80790Y113930
Y112790
X93088Y138546
X93188Y139546
X93088Y140546
X93188Y141546
X91378Y143206
X90378Y143306
X89378Y143206
X88378Y143306
X92378
X80978Y143376
Y142236
T06
X95140Y95560
X94760Y88420
X2640Y92860
X2500Y83500
X2410Y69940
X2790Y77080
X94910Y72640
X95050Y82000
X95140Y125060
X94760Y117920
X2640Y122360
X2500Y113000
X2410Y99440
X2790Y106580
X94910Y102140
X95050Y111500
X2598Y128886
X2978Y136026
X95098Y131586
X95238Y140946
M30
