G75*
G70*
%OFA0B0*%
%FSLAX24Y24*%
%IPPOS*%
%LPD*%
%AMOC8*
5,1,8,0,0,1.08239X$1,22.5*
%
%ADD10C,0.0100*%
%ADD11C,0.0220*%
%ADD12C,0.0140*%
%ADD13C,0.0010*%
%ADD14C,0.0020*%
%ADD15C,0.0050*%
%ADD16C,0.0060*%
%ADD17C,0.0030*%
%ADD18C,0.0080*%
%ADD19R,0.0148X0.1100*%
%ADD20R,0.1100X0.0148*%
%ADD21R,0.0180X0.0300*%
%ADD22C,0.0040*%
%ADD23R,0.0300X0.0180*%
%ADD24C,0.0160*%
D10*
X000665Y005886D02*
X000765Y005886D01*
X000865Y005886D01*
X000665Y006086D01*
X000665Y005986D01*
X000665Y006086D01*
X000665Y006186D01*
X000965Y005886D01*
X000865Y005886D01*
X000765Y005886D02*
X000665Y005986D01*
X000665Y005886D01*
X000665Y006186D02*
X000665Y006986D01*
X000965Y006986D01*
X001465Y006986D02*
X001665Y006986D01*
X002165Y006986D02*
X002465Y006986D01*
X002465Y005886D01*
X002165Y005886D01*
X001665Y005886D02*
X001465Y005886D01*
X003625Y005886D02*
X003725Y005886D01*
X003825Y005886D01*
X003625Y006086D01*
X003625Y005986D01*
X003625Y006086D01*
X003625Y006186D01*
X003925Y005886D01*
X003825Y005886D01*
X003725Y005886D02*
X003625Y005986D01*
X003625Y005886D01*
X003625Y006186D02*
X003625Y006986D01*
X003925Y006986D01*
X004425Y006986D02*
X004625Y006986D01*
X005125Y006986D02*
X005425Y006986D01*
X005425Y005886D01*
X005125Y005886D01*
X004625Y005886D02*
X004425Y005886D01*
X006585Y005886D02*
X006685Y005886D01*
X006785Y005886D01*
X006585Y006086D01*
X006585Y005986D01*
X006585Y006086D01*
X006585Y006186D01*
X006885Y005886D01*
X006785Y005886D01*
X006685Y005886D02*
X006585Y005986D01*
X006585Y005886D01*
X006585Y006186D02*
X006585Y006986D01*
X006885Y006986D01*
X007385Y006986D02*
X007585Y006986D01*
X008085Y006986D02*
X008385Y006986D01*
X008385Y005886D01*
X008085Y005886D01*
X007585Y005886D02*
X007385Y005886D01*
X009545Y005886D02*
X009645Y005886D01*
X009745Y005886D01*
X009545Y006086D01*
X009545Y005986D01*
X009545Y006086D01*
X009545Y006186D01*
X009845Y005886D01*
X009745Y005886D01*
X009645Y005886D02*
X009545Y005986D01*
X009545Y005886D01*
X009545Y006186D02*
X009545Y006986D01*
X009845Y006986D01*
X010345Y006986D02*
X010545Y006986D01*
X011045Y006986D02*
X011345Y006986D01*
X011345Y005886D01*
X011045Y005886D01*
X010545Y005886D02*
X010345Y005886D01*
X012505Y005886D02*
X012605Y005886D01*
X012705Y005886D01*
X012505Y006086D01*
X012505Y005986D01*
X012505Y006086D01*
X012505Y006186D01*
X012805Y005886D01*
X012705Y005886D01*
X012605Y005886D02*
X012505Y005986D01*
X012505Y005886D01*
X012505Y006186D02*
X012505Y006986D01*
X012805Y006986D01*
X013305Y006986D02*
X013505Y006986D01*
X014005Y006986D02*
X014305Y006986D01*
X014305Y005886D01*
X014005Y005886D01*
X013505Y005886D02*
X013305Y005886D01*
X015465Y005886D02*
X015565Y005886D01*
X015665Y005886D01*
X015465Y006086D01*
X015465Y005986D01*
X015465Y006086D01*
X015465Y006186D01*
X015765Y005886D01*
X015665Y005886D01*
X015565Y005886D02*
X015465Y005986D01*
X015465Y005886D01*
X015465Y006186D02*
X015465Y006986D01*
X015765Y006986D01*
X016265Y006986D02*
X016465Y006986D01*
X016965Y006986D02*
X017265Y006986D01*
X017265Y005886D01*
X016965Y005886D01*
X016465Y005886D02*
X016265Y005886D01*
X018425Y005886D02*
X018525Y005886D01*
X018625Y005886D01*
X018425Y006086D01*
X018425Y005986D01*
X018425Y006086D01*
X018425Y006186D01*
X018725Y005886D01*
X018625Y005886D01*
X018525Y005886D02*
X018425Y005986D01*
X018425Y005886D01*
X018425Y006186D02*
X018425Y006986D01*
X018725Y006986D01*
X019225Y006986D02*
X019425Y006986D01*
X019925Y006986D02*
X020225Y006986D01*
X020225Y005886D01*
X019925Y005886D01*
X019425Y005886D02*
X019225Y005886D01*
X021385Y005886D02*
X021485Y005886D01*
X021585Y005886D01*
X021385Y006086D01*
X021385Y005986D01*
X021385Y006086D01*
X021385Y006186D01*
X021685Y005886D01*
X021585Y005886D01*
X021485Y005886D02*
X021385Y005986D01*
X021385Y005886D01*
X021385Y006186D02*
X021385Y006986D01*
X021685Y006986D01*
X022185Y006986D02*
X022385Y006986D01*
X022885Y006986D02*
X023185Y006986D01*
X023185Y005886D01*
X022885Y005886D01*
X022385Y005886D02*
X022185Y005886D01*
X024345Y005886D02*
X024445Y005886D01*
X024545Y005886D01*
X024345Y006086D01*
X024345Y005986D01*
X024345Y006086D01*
X024345Y006186D01*
X024645Y005886D01*
X024545Y005886D01*
X024445Y005886D02*
X024345Y005986D01*
X024345Y005886D01*
X024345Y006186D02*
X024345Y006986D01*
X024645Y006986D01*
X025145Y006986D02*
X025345Y006986D01*
X025845Y006986D02*
X026145Y006986D01*
X026145Y005886D01*
X025845Y005886D01*
X025345Y005886D02*
X025145Y005886D01*
X027305Y005886D02*
X027405Y005886D01*
X027505Y005886D01*
X027305Y006086D01*
X027305Y005986D01*
X027305Y006086D01*
X027305Y006186D01*
X027605Y005886D01*
X027505Y005886D01*
X027405Y005886D02*
X027305Y005986D01*
X027305Y005886D01*
X027305Y006186D02*
X027305Y006986D01*
X027605Y006986D01*
X028105Y006986D02*
X028305Y006986D01*
X028805Y006986D02*
X029105Y006986D01*
X029105Y005886D01*
X028805Y005886D01*
X028305Y005886D02*
X028105Y005886D01*
X030265Y005886D02*
X030365Y005886D01*
X030465Y005886D01*
X030265Y006086D01*
X030265Y005986D01*
X030265Y006086D01*
X030265Y006186D01*
X030565Y005886D01*
X030465Y005886D01*
X030365Y005886D02*
X030265Y005986D01*
X030265Y005886D01*
X030265Y006186D02*
X030265Y006986D01*
X030565Y006986D01*
X031065Y006986D02*
X031265Y006986D01*
X031765Y006986D02*
X032065Y006986D01*
X032065Y005886D01*
X031765Y005886D01*
X031265Y005886D02*
X031065Y005886D01*
X033225Y005886D02*
X033325Y005886D01*
X033425Y005886D01*
X033225Y006086D01*
X033225Y005986D01*
X033225Y006086D01*
X033225Y006186D01*
X033525Y005886D01*
X033425Y005886D01*
X033325Y005886D02*
X033225Y005986D01*
X033225Y005886D01*
X033225Y006186D02*
X033225Y006986D01*
X033525Y006986D01*
X034025Y006986D02*
X034225Y006986D01*
X034725Y006986D02*
X035025Y006986D01*
X035025Y005886D01*
X034725Y005886D01*
X034225Y005886D02*
X034025Y005886D01*
X036185Y005886D02*
X036285Y005886D01*
X036385Y005886D01*
X036185Y006086D01*
X036185Y005986D01*
X036185Y006086D01*
X036185Y006186D01*
X036485Y005886D01*
X036385Y005886D01*
X036285Y005886D02*
X036185Y005986D01*
X036185Y005886D01*
X036185Y006186D02*
X036185Y006986D01*
X036485Y006986D01*
X036985Y006986D02*
X037185Y006986D01*
X037685Y006986D02*
X037985Y006986D01*
X037985Y005886D01*
X037685Y005886D01*
X037185Y005886D02*
X036985Y005886D01*
X039145Y005886D02*
X039245Y005886D01*
X039345Y005886D01*
X039145Y006086D01*
X039145Y005986D01*
X039145Y006086D01*
X039145Y006186D01*
X039445Y005886D01*
X039345Y005886D01*
X039245Y005886D02*
X039145Y005986D01*
X039145Y005886D01*
X039145Y006186D02*
X039145Y006986D01*
X039445Y006986D01*
X039945Y006986D02*
X040145Y006986D01*
X040645Y006986D02*
X040945Y006986D01*
X040945Y005886D01*
X040645Y005886D01*
X040145Y005886D02*
X039945Y005886D01*
X042025Y005886D02*
X042125Y005886D01*
X042225Y005886D01*
X042025Y006086D01*
X042025Y005986D01*
X042025Y006086D01*
X042025Y006186D01*
X042325Y005886D01*
X042225Y005886D01*
X042125Y005886D02*
X042025Y005986D01*
X042025Y005886D01*
X042025Y006186D02*
X042025Y006986D01*
X042325Y006986D01*
X042825Y006986D02*
X043025Y006986D01*
X043525Y006986D02*
X043825Y006986D01*
X043825Y005886D01*
X043525Y005886D01*
X043025Y005886D02*
X042825Y005886D01*
X044905Y005886D02*
X045005Y005886D01*
X045105Y005886D01*
X044905Y006086D01*
X044905Y005986D01*
X044905Y006086D01*
X044905Y006186D01*
X045205Y005886D01*
X045105Y005886D01*
X045005Y005886D02*
X044905Y005986D01*
X044905Y005886D01*
X044905Y006186D02*
X044905Y006986D01*
X045205Y006986D01*
X045705Y006986D02*
X045905Y006986D01*
X046405Y006986D02*
X046705Y006986D01*
X046705Y005886D01*
X046405Y005886D01*
X045905Y005886D02*
X045705Y005886D01*
X047785Y005886D02*
X047885Y005886D01*
X047985Y005886D01*
X047785Y006086D01*
X047785Y005986D01*
X047785Y006086D01*
X047785Y006186D01*
X048085Y005886D01*
X047985Y005886D01*
X047885Y005886D02*
X047785Y005986D01*
X047785Y005886D01*
X047785Y006186D02*
X047785Y006986D01*
X048085Y006986D01*
X048585Y006986D02*
X048785Y006986D01*
X049285Y006986D02*
X049585Y006986D01*
X049585Y005886D01*
X049285Y005886D01*
X048785Y005886D02*
X048585Y005886D01*
X050665Y005886D02*
X050765Y005886D01*
X050865Y005886D01*
X050665Y006086D01*
X050665Y005986D01*
X050665Y006086D01*
X050665Y006186D01*
X050965Y005886D01*
X050865Y005886D01*
X050765Y005886D02*
X050665Y005986D01*
X050665Y005886D01*
X050665Y006186D02*
X050665Y006986D01*
X050965Y006986D01*
X051465Y006986D02*
X051665Y006986D01*
X052165Y006986D02*
X052465Y006986D01*
X052465Y005886D01*
X052165Y005886D01*
X051665Y005886D02*
X051465Y005886D01*
X053545Y005886D02*
X053645Y005886D01*
X053745Y005886D01*
X053545Y006086D01*
X053545Y005986D01*
X053545Y006086D01*
X053545Y006186D01*
X053845Y005886D01*
X053745Y005886D01*
X053645Y005886D02*
X053545Y005986D01*
X053545Y005886D01*
X053545Y006186D02*
X053545Y006986D01*
X053845Y006986D01*
X054345Y006986D02*
X054545Y006986D01*
X055045Y006986D02*
X055345Y006986D01*
X055345Y005886D01*
X055045Y005886D01*
X054545Y005886D02*
X054345Y005886D01*
X056505Y005886D02*
X056605Y005886D01*
X056705Y005886D01*
X056505Y006086D01*
X056505Y005986D01*
X056505Y006086D01*
X056505Y006186D01*
X056805Y005886D01*
X056705Y005886D01*
X056605Y005886D02*
X056505Y005986D01*
X056505Y005886D01*
X056505Y006186D02*
X056505Y006986D01*
X056805Y006986D01*
X057305Y006986D02*
X057505Y006986D01*
X058005Y006986D02*
X058305Y006986D01*
X058305Y005886D01*
X058005Y005886D01*
X057505Y005886D02*
X057305Y005886D01*
X059465Y005886D02*
X059565Y005886D01*
X059665Y005886D01*
X059465Y006086D01*
X059465Y005986D01*
X059465Y006086D01*
X059465Y006186D01*
X059765Y005886D01*
X059665Y005886D01*
X059565Y005886D02*
X059465Y005986D01*
X059465Y005886D01*
X059465Y006186D02*
X059465Y006986D01*
X059765Y006986D01*
X060265Y006986D02*
X060465Y006986D01*
X060965Y006986D02*
X061265Y006986D01*
X061265Y005886D01*
X060965Y005886D01*
X060465Y005886D02*
X060265Y005886D01*
X062425Y005886D02*
X062525Y005886D01*
X062625Y005886D01*
X062425Y006086D01*
X062425Y005986D01*
X062425Y006086D01*
X062425Y006186D01*
X062725Y005886D01*
X062625Y005886D01*
X062525Y005886D02*
X062425Y005986D01*
X062425Y005886D01*
X062425Y006186D02*
X062425Y006986D01*
X062725Y006986D01*
X063225Y006986D02*
X063425Y006986D01*
X063925Y006986D02*
X064225Y006986D01*
X064225Y005886D01*
X063925Y005886D01*
X063425Y005886D02*
X063225Y005886D01*
X065385Y005886D02*
X065485Y005886D01*
X065585Y005886D01*
X065385Y006086D01*
X065385Y005986D01*
X065385Y006086D01*
X065385Y006186D01*
X065685Y005886D01*
X065585Y005886D01*
X065485Y005886D02*
X065385Y005986D01*
X065385Y005886D01*
X065385Y006186D02*
X065385Y006986D01*
X065685Y006986D01*
X066185Y006986D02*
X066385Y006986D01*
X066885Y006986D02*
X067185Y006986D01*
X067185Y005886D01*
X066885Y005886D01*
X066385Y005886D02*
X066185Y005886D01*
X068345Y005886D02*
X068445Y005886D01*
X068545Y005886D01*
X068345Y006086D01*
X068345Y005986D01*
X068345Y006086D01*
X068345Y006186D01*
X068645Y005886D01*
X068545Y005886D01*
X068445Y005886D02*
X068345Y005986D01*
X068345Y005886D01*
X068345Y006186D02*
X068345Y006986D01*
X068645Y006986D01*
X069145Y006986D02*
X069345Y006986D01*
X069845Y006986D02*
X070145Y006986D01*
X070145Y005886D01*
X069845Y005886D01*
X069345Y005886D02*
X069145Y005886D01*
X071305Y005886D02*
X071405Y005886D01*
X071505Y005886D01*
X071305Y006086D01*
X071305Y005986D01*
X071305Y006086D01*
X071305Y006186D01*
X071605Y005886D01*
X071505Y005886D01*
X071405Y005886D02*
X071305Y005986D01*
X071305Y005886D01*
X071305Y006186D02*
X071305Y006986D01*
X071605Y006986D01*
X072105Y006986D02*
X072305Y006986D01*
X072805Y006986D02*
X073105Y006986D01*
X073105Y005886D01*
X072805Y005886D01*
X072305Y005886D02*
X072105Y005886D01*
X074265Y005886D02*
X074365Y005886D01*
X074465Y005886D01*
X074265Y006086D01*
X074265Y005986D01*
X074265Y006086D01*
X074265Y006186D01*
X074565Y005886D01*
X074465Y005886D01*
X074365Y005886D02*
X074265Y005986D01*
X074265Y005886D01*
X074265Y006186D02*
X074265Y006986D01*
X074565Y006986D01*
X075065Y006986D02*
X075265Y006986D01*
X075765Y006986D02*
X076065Y006986D01*
X076065Y005886D01*
X075765Y005886D01*
X075265Y005886D02*
X075065Y005886D01*
X077225Y005886D02*
X077325Y005886D01*
X077425Y005886D01*
X077225Y006086D01*
X077225Y005986D01*
X077225Y006086D01*
X077225Y006186D01*
X077525Y005886D01*
X077425Y005886D01*
X077325Y005886D02*
X077225Y005986D01*
X077225Y005886D01*
X077225Y006186D02*
X077225Y006986D01*
X077525Y006986D01*
X078025Y006986D02*
X078225Y006986D01*
X078725Y006986D02*
X079025Y006986D01*
X079025Y005886D01*
X078725Y005886D01*
X078225Y005886D02*
X078025Y005886D01*
X080185Y005886D02*
X080285Y005886D01*
X080385Y005886D01*
X080185Y006086D01*
X080185Y005986D01*
X080185Y006086D01*
X080185Y006186D01*
X080485Y005886D01*
X080385Y005886D01*
X080285Y005886D02*
X080185Y005986D01*
X080185Y005886D01*
X080185Y006186D02*
X080185Y006986D01*
X080485Y006986D01*
X080985Y006986D02*
X081185Y006986D01*
X081685Y006986D02*
X081985Y006986D01*
X081985Y005886D01*
X081685Y005886D01*
X081185Y005886D02*
X080985Y005886D01*
X083145Y005886D02*
X083245Y005886D01*
X083345Y005886D01*
X083145Y006086D01*
X083145Y005986D01*
X083145Y006086D01*
X083145Y006186D01*
X083445Y005886D01*
X083345Y005886D01*
X083245Y005886D02*
X083145Y005986D01*
X083145Y005886D01*
X083145Y006186D02*
X083145Y006986D01*
X083445Y006986D01*
X083945Y006986D02*
X084145Y006986D01*
X084645Y006986D02*
X084945Y006986D01*
X084945Y005886D01*
X084645Y005886D01*
X084145Y005886D02*
X083945Y005886D01*
X086105Y005886D02*
X086205Y005886D01*
X086305Y005886D01*
X086105Y006086D01*
X086105Y005986D01*
X086105Y006086D01*
X086105Y006186D01*
X086405Y005886D01*
X086305Y005886D01*
X086205Y005886D02*
X086105Y005986D01*
X086105Y005886D01*
X086105Y006186D02*
X086105Y006986D01*
X086405Y006986D01*
X086905Y006986D02*
X087105Y006986D01*
X087605Y006986D02*
X087905Y006986D01*
X087905Y005886D01*
X087605Y005886D01*
X087105Y005886D02*
X086905Y005886D01*
X089065Y005886D02*
X089165Y005886D01*
X089265Y005886D01*
X089065Y006086D01*
X089065Y005986D01*
X089065Y006086D01*
X089065Y006186D01*
X089365Y005886D01*
X089265Y005886D01*
X089165Y005886D02*
X089065Y005986D01*
X089065Y005886D01*
X089065Y006186D02*
X089065Y006986D01*
X089365Y006986D01*
X089865Y006986D02*
X090065Y006986D01*
X090565Y006986D02*
X090865Y006986D01*
X090865Y005886D01*
X090565Y005886D01*
X090065Y005886D02*
X089865Y005886D01*
X092025Y005886D02*
X092125Y005886D01*
X092225Y005886D01*
X092025Y006086D01*
X092025Y005986D01*
X092025Y006086D01*
X092025Y006186D01*
X092325Y005886D01*
X092225Y005886D01*
X092125Y005886D02*
X092025Y005986D01*
X092025Y005886D01*
X092025Y006186D02*
X092025Y006986D01*
X092325Y006986D01*
X092825Y006986D02*
X093025Y006986D01*
X093525Y006986D02*
X093825Y006986D01*
X093825Y005886D01*
X093525Y005886D01*
X093025Y005886D02*
X092825Y005886D01*
X081215Y012096D02*
X081215Y014446D01*
X083607Y013666D02*
X083609Y013686D01*
X083614Y013706D01*
X083624Y013724D01*
X083636Y013741D01*
X083651Y013755D01*
X083669Y013765D01*
X083688Y013773D01*
X083708Y013777D01*
X083728Y013777D01*
X083748Y013773D01*
X083767Y013765D01*
X083785Y013755D01*
X083800Y013741D01*
X083812Y013724D01*
X083822Y013706D01*
X083827Y013686D01*
X083829Y013666D01*
X083827Y013646D01*
X083822Y013626D01*
X083812Y013608D01*
X083800Y013591D01*
X083785Y013577D01*
X083767Y013567D01*
X083748Y013559D01*
X083728Y013555D01*
X083708Y013555D01*
X083688Y013559D01*
X083669Y013567D01*
X083651Y013577D01*
X083636Y013591D01*
X083624Y013608D01*
X083614Y013626D01*
X083609Y013646D01*
X083607Y013666D01*
X011367Y010991D02*
X011100Y010991D01*
X011234Y010991D02*
X011234Y011391D01*
X011100Y011258D01*
X010907Y010991D02*
X010640Y010991D01*
X010773Y010991D02*
X010773Y011391D01*
X010640Y011258D01*
X010446Y011324D02*
X010179Y011057D01*
X010246Y010991D01*
X010380Y010991D01*
X010446Y011057D01*
X010446Y011324D01*
X010380Y011391D01*
X010246Y011391D01*
X010179Y011324D01*
X010179Y011057D01*
X009986Y010991D02*
X009719Y010991D01*
X009986Y011258D01*
X009986Y011324D01*
X009919Y011391D01*
X009786Y011391D01*
X009719Y011324D01*
X009085Y011258D02*
X009085Y011124D01*
X008952Y010991D01*
X008758Y011057D02*
X008692Y010991D01*
X008558Y010991D01*
X008491Y011057D01*
X008491Y011324D01*
X008558Y011391D01*
X008692Y011391D01*
X008758Y011324D01*
X008952Y011391D02*
X009085Y011258D01*
X008318Y011391D02*
X008185Y011258D01*
X008185Y011124D01*
X008318Y010991D01*
X007561Y010991D02*
X007494Y010991D01*
X007494Y011057D01*
X007561Y011057D01*
X007561Y010991D01*
X007301Y010991D02*
X007301Y011391D01*
X007167Y011258D01*
X007034Y011391D01*
X007034Y010991D01*
X006380Y011057D02*
X006380Y011324D01*
X006313Y011391D01*
X006113Y011391D01*
X006113Y010991D01*
X006313Y010991D01*
X006380Y011057D01*
X005940Y010991D02*
X005806Y010991D01*
X005873Y010991D02*
X005873Y011391D01*
X005806Y011391D02*
X005940Y011391D01*
X005613Y011391D02*
X005613Y011124D01*
X005479Y010991D01*
X005346Y011124D01*
X005346Y011391D01*
X005152Y011258D02*
X005152Y010991D01*
X005152Y011191D02*
X004885Y011191D01*
X004885Y011258D02*
X004885Y010991D01*
X004692Y011057D02*
X004692Y011324D01*
X004625Y011391D01*
X004425Y011391D01*
X004425Y010991D01*
X004625Y010991D01*
X004692Y011057D01*
X004885Y011258D02*
X005019Y011391D01*
X005152Y011258D01*
D11*
X066755Y020436D02*
X066755Y021023D01*
X067049Y021316D01*
X067342Y021023D01*
X067342Y020436D01*
X067768Y020436D02*
X067768Y021316D01*
X068355Y020436D01*
X068355Y021316D01*
X068781Y021316D02*
X069074Y021316D01*
X068927Y021316D02*
X068927Y020436D01*
X068781Y020436D02*
X069074Y020436D01*
X069456Y020436D02*
X069896Y020436D01*
X070043Y020582D01*
X070043Y020729D01*
X069896Y020876D01*
X069456Y020876D01*
X069896Y020876D02*
X070043Y021023D01*
X070043Y021170D01*
X069896Y021316D01*
X069456Y021316D01*
X069456Y020436D01*
X070469Y020436D02*
X070762Y020436D01*
X070616Y020436D02*
X070616Y021316D01*
X070762Y021316D02*
X070469Y021316D01*
X071144Y021316D02*
X071144Y020436D01*
X071144Y020729D02*
X071731Y021316D01*
X072157Y021316D02*
X072157Y020436D01*
X072744Y020436D01*
X071731Y020436D02*
X071291Y020876D01*
X072157Y020876D02*
X072450Y020876D01*
X072157Y021316D02*
X072744Y021316D01*
X067342Y020876D02*
X066755Y020876D01*
D12*
X069195Y019983D02*
X069288Y020076D01*
X069475Y020076D01*
X069569Y019983D01*
X069569Y019889D01*
X069195Y019516D01*
X069569Y019516D01*
X069840Y019702D02*
X070026Y019516D01*
X070213Y019702D01*
X070213Y020076D01*
X070484Y019983D02*
X070484Y019889D01*
X070577Y019796D01*
X070764Y019796D01*
X070858Y019702D01*
X070858Y019609D01*
X070764Y019516D01*
X070577Y019516D01*
X070484Y019609D01*
X070484Y019702D01*
X070577Y019796D01*
X070764Y019796D02*
X070858Y019889D01*
X070858Y019983D01*
X070764Y020076D01*
X070577Y020076D01*
X070484Y019983D01*
X069840Y020076D02*
X069840Y019702D01*
X071773Y019796D02*
X072053Y019796D01*
X072147Y019702D01*
X072147Y019609D01*
X072053Y019516D01*
X071773Y019516D01*
X071773Y020076D01*
X072053Y020076D01*
X072147Y019983D01*
X072147Y019889D01*
X072053Y019796D01*
X072418Y020076D02*
X072791Y020076D01*
X072604Y020076D02*
X072604Y019516D01*
X080845Y021049D02*
X080845Y021423D01*
X080938Y021516D01*
X081125Y021516D01*
X081219Y021423D01*
X081219Y021049D01*
X081125Y020956D01*
X080938Y020956D01*
X080845Y021049D01*
X081490Y020956D02*
X081490Y021516D01*
X081863Y020956D01*
X081863Y021516D01*
X085835Y021423D02*
X085835Y021049D01*
X085928Y020956D01*
X086115Y020956D01*
X086209Y021049D01*
X086209Y021423D01*
X086115Y021516D01*
X085928Y021516D01*
X085835Y021423D01*
X086480Y021516D02*
X086853Y021516D01*
X087124Y021516D02*
X087498Y021516D01*
X087124Y021516D02*
X087124Y020956D01*
X087124Y021236D02*
X087311Y021236D01*
X086666Y021236D02*
X086480Y021236D01*
X086480Y020956D02*
X086480Y021516D01*
D13*
X079577Y020161D02*
X079577Y020011D01*
X079527Y020011D02*
X079627Y020011D01*
X079527Y020111D02*
X079577Y020161D01*
X079480Y020136D02*
X079480Y020086D01*
X079455Y020061D01*
X079380Y020061D01*
X079430Y020061D02*
X079480Y020011D01*
X079380Y020011D02*
X079380Y020161D01*
X079455Y020161D01*
X079480Y020136D01*
X078817Y018658D02*
X078817Y018558D01*
X078817Y018511D02*
X078817Y018411D01*
X078667Y018411D01*
X078717Y018558D02*
X078667Y018608D01*
X078817Y018608D01*
X079545Y016601D02*
X079620Y016601D01*
X079645Y016576D01*
X079645Y016526D01*
X079620Y016501D01*
X079545Y016501D01*
X079545Y016451D02*
X079545Y016601D01*
X079595Y016501D02*
X079645Y016451D01*
X079693Y016451D02*
X079793Y016551D01*
X079793Y016576D01*
X079768Y016601D01*
X079718Y016601D01*
X079693Y016576D01*
X079693Y016451D02*
X079793Y016451D01*
X082750Y014163D02*
X082750Y014063D01*
X082825Y014063D01*
X082800Y014113D01*
X082800Y014138D01*
X082825Y014163D01*
X082875Y014163D01*
X082900Y014138D01*
X082900Y014088D01*
X082875Y014063D01*
X082900Y014016D02*
X082850Y013966D01*
X082850Y013991D02*
X082850Y013916D01*
X082900Y013916D02*
X082750Y013916D01*
X082750Y013991D01*
X082775Y014016D01*
X082825Y014016D01*
X082850Y013991D01*
X065605Y011976D02*
X065605Y011876D01*
X065580Y011851D01*
X065505Y011851D01*
X065505Y012001D01*
X065580Y012001D01*
X065605Y011976D01*
X065457Y012001D02*
X065357Y011851D01*
X065260Y011851D02*
X065260Y012001D01*
X065210Y012001D02*
X065310Y012001D01*
X065357Y012001D02*
X065457Y011851D01*
X064565Y011876D02*
X064565Y011976D01*
X064540Y012001D01*
X064465Y012001D01*
X064465Y011851D01*
X064540Y011851D01*
X064565Y011876D01*
X064417Y011851D02*
X064317Y012001D01*
X064270Y011976D02*
X064270Y011926D01*
X064245Y011901D01*
X064170Y011901D01*
X064220Y011901D02*
X064270Y011851D01*
X064317Y011851D02*
X064417Y012001D01*
X064270Y011976D02*
X064245Y012001D01*
X064170Y012001D01*
X064170Y011851D01*
D14*
X080686Y011766D02*
X080759Y011766D01*
X080722Y011766D02*
X080722Y011986D01*
X080686Y011986D02*
X080759Y011986D01*
X080833Y011949D02*
X080833Y011802D01*
X080870Y011766D01*
X080943Y011766D01*
X080980Y011802D01*
X081054Y011802D02*
X081091Y011766D01*
X081164Y011766D01*
X081201Y011802D01*
X081201Y011876D01*
X081164Y011912D01*
X081127Y011912D01*
X081054Y011876D01*
X081054Y011986D01*
X081201Y011986D01*
X080980Y011949D02*
X080943Y011986D01*
X080870Y011986D01*
X080833Y011949D01*
X083284Y011228D02*
X083395Y011228D01*
X083431Y011192D01*
X083431Y011118D01*
X083395Y011081D01*
X083284Y011081D01*
X083284Y011008D02*
X083284Y011228D01*
X083358Y011081D02*
X083431Y011008D01*
X083505Y011008D02*
X083505Y011228D01*
X083652Y011008D01*
X083652Y011228D01*
X083726Y011192D02*
X083763Y011228D01*
X083837Y011228D01*
X083873Y011192D01*
X083873Y011155D01*
X083837Y011118D01*
X083873Y011081D01*
X083873Y011045D01*
X083837Y011008D01*
X083763Y011008D01*
X083726Y011045D01*
X083800Y011118D02*
X083837Y011118D01*
X086464Y010548D02*
X086575Y010548D01*
X086611Y010512D01*
X086611Y010438D01*
X086575Y010401D01*
X086464Y010401D01*
X086464Y010328D02*
X086464Y010548D01*
X086538Y010401D02*
X086611Y010328D01*
X086685Y010328D02*
X086685Y010548D01*
X086832Y010328D01*
X086832Y010548D01*
X086906Y010438D02*
X087017Y010438D01*
X087053Y010401D01*
X087053Y010365D01*
X087017Y010328D01*
X086943Y010328D01*
X086906Y010365D01*
X086906Y010438D01*
X086980Y010512D01*
X087053Y010548D01*
X088874Y010388D02*
X088985Y010388D01*
X089021Y010352D01*
X089021Y010278D01*
X088985Y010241D01*
X088874Y010241D01*
X088874Y010168D02*
X088874Y010388D01*
X088948Y010241D02*
X089021Y010168D01*
X089095Y010168D02*
X089095Y010388D01*
X089242Y010168D01*
X089242Y010388D01*
X089316Y010388D02*
X089316Y010278D01*
X089390Y010315D01*
X089427Y010315D01*
X089463Y010278D01*
X089463Y010205D01*
X089427Y010168D01*
X089353Y010168D01*
X089316Y010205D01*
X089316Y010388D02*
X089463Y010388D01*
X092224Y011488D02*
X092224Y011708D01*
X092335Y011708D01*
X092371Y011672D01*
X092371Y011598D01*
X092335Y011561D01*
X092224Y011561D01*
X092298Y011561D02*
X092371Y011488D01*
X092445Y011488D02*
X092445Y011708D01*
X092592Y011488D01*
X092592Y011708D01*
X092666Y011672D02*
X092703Y011708D01*
X092777Y011708D01*
X092813Y011672D01*
X092813Y011635D01*
X092666Y011488D01*
X092813Y011488D01*
X089593Y012528D02*
X089446Y012528D01*
X089372Y012528D02*
X089372Y012748D01*
X089446Y012675D02*
X089520Y012748D01*
X089520Y012528D01*
X089372Y012528D02*
X089225Y012748D01*
X089225Y012528D01*
X089151Y012528D02*
X089078Y012601D01*
X089115Y012601D02*
X089004Y012601D01*
X089004Y012528D02*
X089004Y012748D01*
X089115Y012748D01*
X089151Y012712D01*
X089151Y012638D01*
X089115Y012601D01*
X082415Y010083D02*
X082305Y009973D01*
X082451Y009973D01*
X082415Y009863D02*
X082415Y010083D01*
X082230Y010083D02*
X082230Y009863D01*
X082084Y010083D01*
X082084Y009863D01*
X082009Y009863D02*
X081936Y009937D01*
X081973Y009937D02*
X081863Y009937D01*
X081863Y009863D02*
X081863Y010083D01*
X081973Y010083D01*
X082009Y010047D01*
X082009Y009973D01*
X081973Y009937D01*
X079680Y017334D02*
X079533Y017334D01*
X079607Y017334D02*
X079607Y017555D01*
X079533Y017481D01*
X079459Y017518D02*
X079422Y017555D01*
X079349Y017555D01*
X079312Y017518D01*
X079312Y017371D01*
X079349Y017334D01*
X079422Y017334D01*
X079459Y017371D01*
X079238Y017334D02*
X079165Y017334D01*
X079202Y017334D02*
X079202Y017555D01*
X079238Y017555D02*
X079165Y017555D01*
X087434Y018941D02*
X087436Y018968D01*
X087442Y018995D01*
X087451Y019021D01*
X087464Y019045D01*
X087480Y019068D01*
X087499Y019087D01*
X087521Y019104D01*
X087545Y019118D01*
X087570Y019128D01*
X087597Y019135D01*
X087624Y019138D01*
X087652Y019137D01*
X087679Y019132D01*
X087705Y019124D01*
X087729Y019112D01*
X087752Y019096D01*
X087773Y019078D01*
X087790Y019057D01*
X087805Y019033D01*
X087816Y019008D01*
X087824Y018982D01*
X087828Y018955D01*
X087828Y018927D01*
X087824Y018900D01*
X087816Y018874D01*
X087805Y018849D01*
X087790Y018825D01*
X087773Y018804D01*
X087752Y018786D01*
X087730Y018770D01*
X087705Y018758D01*
X087679Y018750D01*
X087652Y018745D01*
X087624Y018744D01*
X087597Y018747D01*
X087570Y018754D01*
X087545Y018764D01*
X087521Y018778D01*
X087499Y018795D01*
X087480Y018814D01*
X087464Y018837D01*
X087451Y018861D01*
X087442Y018887D01*
X087436Y018914D01*
X087434Y018941D01*
X083723Y021046D02*
X083576Y021046D01*
X083723Y021192D01*
X083723Y021229D01*
X083686Y021266D01*
X083613Y021266D01*
X083576Y021229D01*
X083502Y021229D02*
X083465Y021266D01*
X083392Y021266D01*
X083355Y021229D01*
X083355Y021192D01*
X083392Y021156D01*
X083465Y021156D01*
X083502Y021119D01*
X083502Y021082D01*
X083465Y021046D01*
X083392Y021046D01*
X083355Y021082D01*
X019177Y011095D02*
X019030Y011095D01*
X019140Y011205D01*
X019140Y010985D01*
X018956Y011022D02*
X018919Y010985D01*
X018846Y010985D01*
X018809Y011022D01*
X018809Y011168D01*
X018846Y011205D01*
X018919Y011205D01*
X018956Y011168D01*
X018735Y011205D02*
X018662Y011205D01*
X018699Y011205D02*
X018699Y010985D01*
X018735Y010985D02*
X018662Y010985D01*
D15*
X018691Y010916D02*
X018691Y010483D01*
X018691Y010089D02*
X018691Y009656D01*
X019380Y009656D01*
X019380Y009715D01*
X019046Y009833D02*
X019048Y009852D01*
X019053Y009871D01*
X019063Y009887D01*
X019075Y009902D01*
X019090Y009914D01*
X019106Y009924D01*
X019125Y009929D01*
X019144Y009931D01*
X019163Y009929D01*
X019182Y009924D01*
X019198Y009914D01*
X019213Y009902D01*
X019225Y009887D01*
X019235Y009871D01*
X019240Y009852D01*
X019242Y009833D01*
X019240Y009814D01*
X019235Y009795D01*
X019225Y009779D01*
X019213Y009764D01*
X019198Y009752D01*
X019182Y009742D01*
X019163Y009737D01*
X019144Y009735D01*
X019125Y009737D01*
X019106Y009742D01*
X019090Y009752D01*
X019075Y009764D01*
X019063Y009779D01*
X019053Y009795D01*
X019048Y009814D01*
X019046Y009833D01*
X019380Y010109D02*
X019380Y010463D01*
X019380Y010857D02*
X019380Y010916D01*
X018691Y010916D01*
X061618Y013166D02*
X072209Y013166D01*
X072209Y018284D01*
X061618Y018284D01*
X061618Y013166D01*
X063445Y013206D02*
X063445Y018246D01*
X073799Y020647D02*
X073801Y020676D01*
X073807Y020704D01*
X073816Y020731D01*
X073829Y020757D01*
X073845Y020780D01*
X073865Y020802D01*
X073886Y020820D01*
X073911Y020836D01*
X073937Y020848D01*
X073964Y020856D01*
X073992Y020861D01*
X074021Y020862D01*
X074050Y020859D01*
X074078Y020852D01*
X074105Y020842D01*
X074130Y020828D01*
X074153Y020811D01*
X074173Y020791D01*
X074191Y020769D01*
X074206Y020744D01*
X074217Y020718D01*
X074225Y020690D01*
X074229Y020661D01*
X074229Y020633D01*
X074225Y020604D01*
X074217Y020576D01*
X074206Y020550D01*
X074191Y020525D01*
X074173Y020503D01*
X074153Y020483D01*
X074130Y020466D01*
X074105Y020452D01*
X074078Y020442D01*
X074050Y020435D01*
X074021Y020432D01*
X073992Y020433D01*
X073964Y020438D01*
X073937Y020446D01*
X073911Y020458D01*
X073886Y020474D01*
X073865Y020492D01*
X073845Y020514D01*
X073829Y020537D01*
X073816Y020563D01*
X073807Y020590D01*
X073801Y020618D01*
X073799Y020647D01*
X075750Y020646D02*
X075752Y020675D01*
X075758Y020703D01*
X075767Y020730D01*
X075780Y020756D01*
X075796Y020779D01*
X075816Y020801D01*
X075837Y020819D01*
X075862Y020835D01*
X075888Y020847D01*
X075915Y020855D01*
X075943Y020860D01*
X075972Y020861D01*
X076001Y020858D01*
X076029Y020851D01*
X076056Y020841D01*
X076081Y020827D01*
X076104Y020810D01*
X076124Y020790D01*
X076142Y020768D01*
X076157Y020743D01*
X076168Y020717D01*
X076176Y020689D01*
X076180Y020660D01*
X076180Y020632D01*
X076176Y020603D01*
X076168Y020575D01*
X076157Y020549D01*
X076142Y020524D01*
X076124Y020502D01*
X076104Y020482D01*
X076081Y020465D01*
X076056Y020451D01*
X076029Y020441D01*
X076001Y020434D01*
X075972Y020431D01*
X075943Y020432D01*
X075915Y020437D01*
X075888Y020445D01*
X075862Y020457D01*
X075837Y020473D01*
X075816Y020491D01*
X075796Y020513D01*
X075780Y020536D01*
X075767Y020562D01*
X075758Y020589D01*
X075752Y020617D01*
X075750Y020646D01*
X074741Y018972D02*
X074743Y019001D01*
X074749Y019029D01*
X074758Y019056D01*
X074771Y019082D01*
X074787Y019105D01*
X074807Y019127D01*
X074828Y019145D01*
X074853Y019161D01*
X074879Y019173D01*
X074906Y019181D01*
X074934Y019186D01*
X074963Y019187D01*
X074992Y019184D01*
X075020Y019177D01*
X075047Y019167D01*
X075072Y019153D01*
X075095Y019136D01*
X075115Y019116D01*
X075133Y019094D01*
X075148Y019069D01*
X075159Y019043D01*
X075167Y019015D01*
X075171Y018986D01*
X075171Y018958D01*
X075167Y018929D01*
X075159Y018901D01*
X075148Y018875D01*
X075133Y018850D01*
X075115Y018828D01*
X075095Y018808D01*
X075072Y018791D01*
X075047Y018777D01*
X075020Y018767D01*
X074992Y018760D01*
X074963Y018757D01*
X074934Y018758D01*
X074906Y018763D01*
X074879Y018771D01*
X074853Y018783D01*
X074828Y018799D01*
X074807Y018817D01*
X074787Y018839D01*
X074771Y018862D01*
X074758Y018888D01*
X074749Y018915D01*
X074743Y018943D01*
X074741Y018972D01*
X079095Y018661D02*
X079095Y018031D01*
X079174Y018031D01*
X079138Y018194D02*
X079138Y018273D01*
X079295Y018273D01*
X079216Y018194D01*
X079216Y018352D01*
X079138Y018273D01*
X079216Y018194D01*
X079138Y018194D01*
X079216Y018194D02*
X079295Y018194D01*
X079295Y018273D01*
X079216Y018352D01*
X079138Y018352D01*
X079138Y018273D01*
X079216Y018352D02*
X079295Y018352D01*
X079295Y018273D01*
X079174Y018661D02*
X079095Y018661D01*
X080276Y018661D02*
X080355Y018661D01*
X080355Y018031D01*
X080276Y018031D01*
X087489Y017963D02*
X087595Y018069D01*
X087542Y018016D02*
X087860Y017698D01*
X087807Y017645D02*
X087913Y017751D01*
X087971Y017915D02*
X088077Y017915D01*
X088183Y018021D01*
X088183Y018127D01*
X088296Y018240D02*
X088403Y018240D01*
X088509Y018347D01*
X088509Y018453D01*
X088456Y018506D01*
X088349Y018506D01*
X088296Y018453D01*
X088349Y018506D02*
X088349Y018612D01*
X088296Y018665D01*
X088190Y018665D01*
X088084Y018559D01*
X088084Y018453D01*
X087971Y018340D02*
X087865Y018339D01*
X087759Y018233D01*
X087759Y018127D01*
X087971Y017915D01*
X092085Y015866D02*
X092085Y015366D01*
X092585Y015366D01*
X092585Y012366D01*
X092085Y012366D01*
X092085Y015366D01*
X092085Y015866D02*
X093785Y015866D01*
X093785Y011866D01*
X092085Y011866D01*
X092085Y012366D01*
X090254Y012123D02*
X090176Y012123D01*
X090097Y012044D01*
X090018Y012044D01*
X089939Y012123D01*
X089861Y012123D01*
X089782Y012044D01*
X089703Y012044D01*
X089624Y012123D01*
X089546Y012123D01*
X089467Y012044D01*
X089388Y012044D01*
X089309Y012123D01*
X089231Y012123D01*
X089152Y012044D01*
X089073Y012044D01*
X088994Y012123D01*
X088916Y012123D01*
X088916Y011808D01*
X088994Y011808D01*
X089073Y011887D01*
X089152Y011887D01*
X089231Y011808D01*
X089309Y011808D01*
X089388Y011887D01*
X089467Y011887D01*
X089546Y011808D01*
X089624Y011808D01*
X089703Y011887D01*
X089782Y011887D01*
X089861Y011808D01*
X089939Y011808D01*
X090018Y011887D01*
X090097Y011887D01*
X090176Y011808D01*
X090254Y011808D01*
X090254Y012123D01*
X092136Y011083D02*
X092214Y011083D01*
X092293Y011004D01*
X092372Y011004D01*
X092451Y011083D01*
X092529Y011083D01*
X092608Y011004D01*
X092687Y011004D01*
X092766Y011083D01*
X092844Y011083D01*
X092923Y011004D01*
X093002Y011004D01*
X093081Y011083D01*
X093159Y011083D01*
X093238Y011004D01*
X093317Y011004D01*
X093396Y011083D01*
X093474Y011083D01*
X093474Y010768D01*
X093396Y010768D01*
X093317Y010847D01*
X093238Y010847D01*
X093159Y010768D01*
X093081Y010768D01*
X093002Y010847D01*
X092923Y010847D01*
X092844Y010768D01*
X092766Y010768D01*
X092687Y010847D01*
X092608Y010847D01*
X092529Y010768D01*
X092451Y010768D01*
X092372Y010847D01*
X092293Y010847D01*
X092214Y010768D01*
X092136Y010768D01*
X092136Y011083D01*
X087714Y009923D02*
X087636Y009923D01*
X087557Y009844D01*
X087478Y009844D01*
X087399Y009923D01*
X087321Y009923D01*
X087242Y009844D01*
X087163Y009844D01*
X087084Y009923D01*
X087006Y009923D01*
X086927Y009844D01*
X086848Y009844D01*
X086769Y009923D01*
X086691Y009923D01*
X086612Y009844D01*
X086533Y009844D01*
X086454Y009923D01*
X086376Y009923D01*
X086376Y009608D01*
X086454Y009608D01*
X086533Y009687D01*
X086612Y009687D01*
X086691Y009608D01*
X086769Y009608D01*
X086848Y009687D01*
X086927Y009687D01*
X087006Y009608D01*
X087084Y009608D01*
X087163Y009687D01*
X087242Y009687D01*
X087321Y009608D01*
X087399Y009608D01*
X087478Y009687D01*
X087557Y009687D01*
X087636Y009608D01*
X087714Y009608D01*
X087714Y009923D01*
X088786Y009763D02*
X088864Y009763D01*
X088943Y009684D01*
X089022Y009684D01*
X089101Y009763D01*
X089179Y009763D01*
X089258Y009684D01*
X089337Y009684D01*
X089416Y009763D01*
X089494Y009763D01*
X089573Y009684D01*
X089652Y009684D01*
X089731Y009763D01*
X089809Y009763D01*
X089888Y009684D01*
X089967Y009684D01*
X090046Y009763D01*
X090124Y009763D01*
X090124Y009448D01*
X090046Y009448D01*
X089967Y009527D01*
X089888Y009527D01*
X089809Y009448D01*
X089731Y009448D01*
X089652Y009527D01*
X089573Y009527D01*
X089494Y009448D01*
X089416Y009448D01*
X089337Y009527D01*
X089258Y009527D01*
X089179Y009448D01*
X089101Y009448D01*
X089022Y009527D01*
X088943Y009527D01*
X088864Y009448D01*
X088786Y009448D01*
X088786Y009763D01*
X084534Y010288D02*
X084534Y010603D01*
X084456Y010603D01*
X084377Y010524D01*
X084298Y010524D01*
X084219Y010603D01*
X084141Y010603D01*
X084062Y010524D01*
X083983Y010524D01*
X083904Y010603D01*
X083826Y010603D01*
X083747Y010524D01*
X083668Y010524D01*
X083589Y010603D01*
X083511Y010603D01*
X083432Y010524D01*
X083353Y010524D01*
X083274Y010603D01*
X083196Y010603D01*
X083196Y010288D01*
X083274Y010288D01*
X083353Y010367D01*
X083432Y010367D01*
X083511Y010288D01*
X083589Y010288D01*
X083668Y010367D01*
X083747Y010367D01*
X083826Y010288D01*
X083904Y010288D01*
X083983Y010367D01*
X084062Y010367D01*
X084141Y010288D01*
X084219Y010288D01*
X084298Y010367D01*
X084377Y010367D01*
X084456Y010288D01*
X084534Y010288D01*
X082594Y010488D02*
X082516Y010488D01*
X082437Y010567D01*
X082358Y010567D01*
X082279Y010488D01*
X082201Y010488D01*
X082122Y010567D01*
X082043Y010567D01*
X081964Y010488D01*
X081886Y010488D01*
X081807Y010567D01*
X081728Y010567D01*
X081649Y010488D01*
X081571Y010488D01*
X081492Y010567D01*
X081413Y010567D01*
X081334Y010488D01*
X081256Y010488D01*
X081256Y010803D01*
X081334Y010803D01*
X081413Y010724D01*
X081492Y010724D01*
X081571Y010803D01*
X081649Y010803D01*
X081728Y010724D01*
X081807Y010724D01*
X081886Y010803D01*
X081964Y010803D01*
X082043Y010724D01*
X082122Y010724D01*
X082201Y010803D01*
X082279Y010803D01*
X082358Y010724D01*
X082437Y010724D01*
X082516Y010803D01*
X082594Y010803D01*
X082594Y010488D01*
X080774Y012396D02*
X080776Y012419D01*
X080782Y012442D01*
X080791Y012463D01*
X080804Y012483D01*
X080820Y012500D01*
X080838Y012514D01*
X080858Y012525D01*
X080880Y012533D01*
X080903Y012537D01*
X080927Y012537D01*
X080950Y012533D01*
X080972Y012525D01*
X080992Y012514D01*
X081010Y012500D01*
X081026Y012483D01*
X081039Y012463D01*
X081048Y012442D01*
X081054Y012419D01*
X081056Y012396D01*
X081054Y012373D01*
X081048Y012350D01*
X081039Y012329D01*
X081026Y012309D01*
X081010Y012292D01*
X080992Y012278D01*
X080972Y012267D01*
X080950Y012259D01*
X080927Y012255D01*
X080903Y012255D01*
X080880Y012259D01*
X080858Y012267D01*
X080838Y012278D01*
X080820Y012292D01*
X080804Y012309D01*
X080791Y012329D01*
X080782Y012350D01*
X080776Y012373D01*
X080774Y012396D01*
X087945Y020096D02*
X087945Y021596D01*
X092945Y021596D01*
X092945Y020096D01*
X091745Y020096D01*
X091745Y020396D01*
X089145Y020396D01*
X089145Y020096D01*
X087945Y020096D01*
X089145Y020096D02*
X091745Y020096D01*
D16*
X088064Y019279D02*
X087885Y019457D01*
X087713Y019630D02*
X087532Y019811D01*
X087359Y019983D02*
X087178Y020164D01*
X087009Y020334D02*
X086972Y020370D01*
X086966Y020375D02*
X086951Y020387D01*
X086934Y020397D01*
X086916Y020402D01*
X086897Y020404D01*
X086878Y020402D01*
X086859Y020397D01*
X086843Y020387D01*
X086828Y020375D01*
X086828Y020376D02*
X085575Y019123D01*
X085563Y019108D01*
X085553Y019091D01*
X085548Y019073D01*
X085546Y019054D01*
X085548Y019035D01*
X085553Y019016D01*
X085563Y019000D01*
X085575Y018985D01*
X085572Y018987D02*
X085614Y018945D01*
X085786Y018772D02*
X085965Y018594D01*
X086140Y018419D02*
X086318Y018241D01*
X086494Y018065D02*
X086672Y017887D01*
X086844Y017714D02*
X086880Y017678D01*
X086884Y017676D02*
X086899Y017664D01*
X086915Y017654D01*
X086934Y017649D01*
X086953Y017647D01*
X086972Y017649D01*
X086990Y017654D01*
X087007Y017664D01*
X087022Y017676D01*
X087022Y017675D02*
X088272Y018925D01*
X088275Y018929D02*
X088287Y018944D01*
X088297Y018960D01*
X088302Y018979D01*
X088304Y018998D01*
X088302Y019017D01*
X088297Y019035D01*
X088287Y019052D01*
X088275Y019067D01*
X088272Y019070D02*
X088236Y019106D01*
X089169Y018291D02*
X089046Y018168D01*
X089046Y018107D01*
X089108Y018046D01*
X089169Y018046D01*
X089316Y018021D02*
X089439Y017898D01*
X089316Y017837D02*
X089500Y018021D01*
X089316Y018021D01*
X089292Y018168D02*
X089292Y018229D01*
X089230Y018291D01*
X089169Y018291D01*
X083987Y016836D02*
X083987Y016576D01*
X083900Y016576D02*
X084074Y016576D01*
X083900Y016749D02*
X083987Y016836D01*
X083692Y016836D02*
X083692Y016576D01*
X083606Y016576D02*
X083779Y016576D01*
X083606Y016749D02*
X083692Y016836D01*
X083485Y016793D02*
X083441Y016836D01*
X083354Y016836D01*
X083311Y016793D01*
X083311Y016619D01*
X083354Y016576D01*
X083441Y016576D01*
X083485Y016619D01*
X082072Y018166D02*
X082115Y018210D01*
X082115Y018296D01*
X082072Y018340D01*
X082115Y018461D02*
X082115Y018634D01*
X082115Y018548D02*
X081855Y018548D01*
X081942Y018461D01*
X081898Y018340D02*
X081855Y018296D01*
X081855Y018210D01*
X081898Y018166D01*
X082072Y018166D01*
X074843Y016393D02*
X074800Y016436D01*
X074713Y016436D01*
X074670Y016393D01*
X074549Y016393D02*
X074505Y016436D01*
X074418Y016436D01*
X074375Y016393D01*
X074375Y016219D01*
X074418Y016176D01*
X074505Y016176D01*
X074549Y016219D01*
X074670Y016176D02*
X074843Y016349D01*
X074843Y016393D01*
X074843Y016176D02*
X074670Y016176D01*
X079095Y015131D02*
X079095Y015044D01*
X079138Y015001D01*
X079095Y015131D02*
X079138Y015174D01*
X079182Y015174D01*
X079355Y015001D01*
X079355Y015174D01*
X079355Y014880D02*
X079355Y014706D01*
X079355Y014793D02*
X079095Y014793D01*
X079182Y014706D01*
X079138Y014585D02*
X079095Y014542D01*
X079095Y014455D01*
X079138Y014412D01*
X079312Y014412D01*
X079355Y014455D01*
X079355Y014542D01*
X079312Y014585D01*
X070363Y012393D02*
X070363Y012349D01*
X070320Y012306D01*
X070363Y012262D01*
X070363Y012219D01*
X070320Y012176D01*
X070233Y012176D01*
X070190Y012219D01*
X070276Y012306D02*
X070320Y012306D01*
X070363Y012393D02*
X070320Y012436D01*
X070233Y012436D01*
X070190Y012393D01*
X070069Y012393D02*
X070069Y012306D01*
X070025Y012262D01*
X069895Y012262D01*
X069895Y012176D02*
X069895Y012436D01*
X070025Y012436D01*
X070069Y012393D01*
X069982Y012262D02*
X070069Y012176D01*
X021843Y011366D02*
X021670Y011366D01*
X021800Y011496D01*
X021800Y011236D01*
X021549Y011236D02*
X021462Y011322D01*
X021505Y011322D02*
X021375Y011322D01*
X021375Y011236D02*
X021375Y011496D01*
X021505Y011496D01*
X021549Y011453D01*
X021549Y011366D01*
X021505Y011322D01*
D17*
X000260Y005946D02*
X000260Y005801D01*
X000550Y005801D01*
X000550Y005946D01*
X000502Y005994D01*
X000308Y005994D01*
X000260Y005946D01*
X000308Y006095D02*
X000260Y006144D01*
X000260Y006240D01*
X000308Y006289D01*
X000357Y006289D01*
X000405Y006240D01*
X000453Y006289D01*
X000502Y006289D01*
X000550Y006240D01*
X000550Y006144D01*
X000502Y006095D01*
X000405Y006192D02*
X000405Y006240D01*
X000308Y006390D02*
X000260Y006438D01*
X000260Y006535D01*
X000308Y006583D01*
X000357Y006583D01*
X000550Y006390D01*
X000550Y006583D01*
X003220Y006487D02*
X003510Y006487D01*
X003510Y006583D02*
X003510Y006390D01*
X003462Y006289D02*
X003510Y006240D01*
X003510Y006144D01*
X003462Y006095D01*
X003462Y005994D02*
X003268Y005994D01*
X003220Y005946D01*
X003220Y005801D01*
X003510Y005801D01*
X003510Y005946D01*
X003462Y005994D01*
X003268Y006095D02*
X003220Y006144D01*
X003220Y006240D01*
X003268Y006289D01*
X003317Y006289D01*
X003365Y006240D01*
X003413Y006289D01*
X003462Y006289D01*
X003365Y006240D02*
X003365Y006192D01*
X003317Y006390D02*
X003220Y006487D01*
X006180Y006535D02*
X006228Y006583D01*
X006422Y006390D01*
X006470Y006438D01*
X006470Y006535D01*
X006422Y006583D01*
X006228Y006583D01*
X006180Y006535D02*
X006180Y006438D01*
X006228Y006390D01*
X006422Y006390D01*
X006422Y006289D02*
X006470Y006240D01*
X006470Y006144D01*
X006422Y006095D01*
X006422Y005994D02*
X006228Y005994D01*
X006180Y005946D01*
X006180Y005801D01*
X006470Y005801D01*
X006470Y005946D01*
X006422Y005994D01*
X006228Y006095D02*
X006180Y006144D01*
X006180Y006240D01*
X006228Y006289D01*
X006277Y006289D01*
X006325Y006240D01*
X006373Y006289D01*
X006422Y006289D01*
X006325Y006240D02*
X006325Y006192D01*
X009140Y006144D02*
X009188Y006095D01*
X009140Y006144D02*
X009140Y006240D01*
X009188Y006289D01*
X009237Y006289D01*
X009430Y006095D01*
X009430Y006289D01*
X009382Y006390D02*
X009430Y006438D01*
X009430Y006535D01*
X009382Y006583D01*
X009188Y006583D01*
X009140Y006535D01*
X009140Y006438D01*
X009188Y006390D01*
X009237Y006390D01*
X009285Y006438D01*
X009285Y006583D01*
X009188Y005994D02*
X009140Y005946D01*
X009140Y005801D01*
X009430Y005801D01*
X009430Y005946D01*
X009382Y005994D01*
X009188Y005994D01*
X012100Y005946D02*
X012100Y005801D01*
X012390Y005801D01*
X012390Y005946D01*
X012342Y005994D01*
X012148Y005994D01*
X012100Y005946D01*
X012148Y006095D02*
X012100Y006144D01*
X012100Y006240D01*
X012148Y006289D01*
X012197Y006289D01*
X012390Y006095D01*
X012390Y006289D01*
X012342Y006390D02*
X012293Y006390D01*
X012245Y006438D01*
X012245Y006535D01*
X012293Y006583D01*
X012342Y006583D01*
X012390Y006535D01*
X012390Y006438D01*
X012342Y006390D01*
X012245Y006438D02*
X012197Y006390D01*
X012148Y006390D01*
X012100Y006438D01*
X012100Y006535D01*
X012148Y006583D01*
X012197Y006583D01*
X012245Y006535D01*
X015060Y006583D02*
X015060Y006390D01*
X015108Y006289D02*
X015060Y006240D01*
X015060Y006144D01*
X015108Y006095D01*
X015108Y005994D02*
X015060Y005946D01*
X015060Y005801D01*
X015350Y005801D01*
X015350Y005946D01*
X015302Y005994D01*
X015108Y005994D01*
X015350Y006095D02*
X015157Y006289D01*
X015108Y006289D01*
X015302Y006390D02*
X015350Y006390D01*
X015302Y006390D02*
X015108Y006583D01*
X015060Y006583D01*
X015350Y006289D02*
X015350Y006095D01*
X018020Y006144D02*
X018068Y006095D01*
X018020Y006144D02*
X018020Y006240D01*
X018068Y006289D01*
X018117Y006289D01*
X018310Y006095D01*
X018310Y006289D01*
X018262Y006390D02*
X018165Y006390D01*
X018165Y006535D01*
X018213Y006583D01*
X018262Y006583D01*
X018310Y006535D01*
X018310Y006438D01*
X018262Y006390D01*
X018165Y006390D02*
X018068Y006487D01*
X018020Y006583D01*
X018068Y005994D02*
X018020Y005946D01*
X018020Y005801D01*
X018310Y005801D01*
X018310Y005946D01*
X018262Y005994D01*
X018068Y005994D01*
X020980Y005946D02*
X020980Y005801D01*
X021270Y005801D01*
X021270Y005946D01*
X021222Y005994D01*
X021028Y005994D01*
X020980Y005946D01*
X021028Y006095D02*
X020980Y006144D01*
X020980Y006240D01*
X021028Y006289D01*
X021077Y006289D01*
X021270Y006095D01*
X021270Y006289D01*
X021222Y006390D02*
X021270Y006438D01*
X021270Y006535D01*
X021222Y006583D01*
X021125Y006583D01*
X021077Y006535D01*
X021077Y006487D01*
X021125Y006390D01*
X020980Y006390D01*
X020980Y006583D01*
X023940Y006535D02*
X024085Y006390D01*
X024085Y006583D01*
X024230Y006535D02*
X023940Y006535D01*
X023988Y006289D02*
X023940Y006240D01*
X023940Y006144D01*
X023988Y006095D01*
X023988Y005994D02*
X023940Y005946D01*
X023940Y005801D01*
X024230Y005801D01*
X024230Y005946D01*
X024182Y005994D01*
X023988Y005994D01*
X024230Y006095D02*
X024037Y006289D01*
X023988Y006289D01*
X024230Y006289D02*
X024230Y006095D01*
X026900Y006144D02*
X026948Y006095D01*
X026900Y006144D02*
X026900Y006240D01*
X026948Y006289D01*
X026997Y006289D01*
X027190Y006095D01*
X027190Y006289D01*
X027142Y006390D02*
X027190Y006438D01*
X027190Y006535D01*
X027142Y006583D01*
X027093Y006583D01*
X027045Y006535D01*
X027045Y006487D01*
X027045Y006535D02*
X026997Y006583D01*
X026948Y006583D01*
X026900Y006535D01*
X026900Y006438D01*
X026948Y006390D01*
X026948Y005994D02*
X026900Y005946D01*
X026900Y005801D01*
X027190Y005801D01*
X027190Y005946D01*
X027142Y005994D01*
X026948Y005994D01*
X029860Y005946D02*
X029860Y005801D01*
X030150Y005801D01*
X030150Y005946D01*
X030102Y005994D01*
X029908Y005994D01*
X029860Y005946D01*
X029908Y006095D02*
X029860Y006144D01*
X029860Y006240D01*
X029908Y006289D01*
X029957Y006289D01*
X030150Y006095D01*
X030150Y006289D01*
X030150Y006390D02*
X029957Y006583D01*
X029908Y006583D01*
X029860Y006535D01*
X029860Y006438D01*
X029908Y006390D01*
X030150Y006390D02*
X030150Y006583D01*
X032820Y006487D02*
X033110Y006487D01*
X033110Y006583D02*
X033110Y006390D01*
X033110Y006289D02*
X033110Y006095D01*
X032917Y006289D01*
X032868Y006289D01*
X032820Y006240D01*
X032820Y006144D01*
X032868Y006095D01*
X032868Y005994D02*
X032820Y005946D01*
X032820Y005801D01*
X033110Y005801D01*
X033110Y005946D01*
X033062Y005994D01*
X032868Y005994D01*
X032917Y006390D02*
X032820Y006487D01*
X035780Y006535D02*
X035828Y006583D01*
X036022Y006390D01*
X036070Y006438D01*
X036070Y006535D01*
X036022Y006583D01*
X035828Y006583D01*
X035780Y006535D02*
X035780Y006438D01*
X035828Y006390D01*
X036022Y006390D01*
X036070Y006289D02*
X036070Y006095D01*
X035877Y006289D01*
X035828Y006289D01*
X035780Y006240D01*
X035780Y006144D01*
X035828Y006095D01*
X035828Y005994D02*
X035780Y005946D01*
X035780Y005801D01*
X036070Y005801D01*
X036070Y005946D01*
X036022Y005994D01*
X035828Y005994D01*
X038740Y005946D02*
X038740Y005801D01*
X039030Y005801D01*
X039030Y005946D01*
X038982Y005994D01*
X038788Y005994D01*
X038740Y005946D01*
X038837Y006095D02*
X038740Y006192D01*
X039030Y006192D01*
X039030Y006095D02*
X039030Y006289D01*
X038982Y006390D02*
X039030Y006438D01*
X039030Y006535D01*
X038982Y006583D01*
X038788Y006583D01*
X038740Y006535D01*
X038740Y006438D01*
X038788Y006390D01*
X038837Y006390D01*
X038885Y006438D01*
X038885Y006583D01*
X041620Y006535D02*
X041668Y006583D01*
X041717Y006583D01*
X041765Y006535D01*
X041765Y006438D01*
X041717Y006390D01*
X041668Y006390D01*
X041620Y006438D01*
X041620Y006535D01*
X041765Y006535D02*
X041813Y006583D01*
X041862Y006583D01*
X041910Y006535D01*
X041910Y006438D01*
X041862Y006390D01*
X041813Y006390D01*
X041765Y006438D01*
X041910Y006289D02*
X041910Y006095D01*
X041910Y006192D02*
X041620Y006192D01*
X041717Y006095D01*
X041668Y005994D02*
X041620Y005946D01*
X041620Y005801D01*
X041910Y005801D01*
X041910Y005946D01*
X041862Y005994D01*
X041668Y005994D01*
X044500Y005946D02*
X044500Y005801D01*
X044790Y005801D01*
X044790Y005946D01*
X044742Y005994D01*
X044548Y005994D01*
X044500Y005946D01*
X044597Y006095D02*
X044500Y006192D01*
X044790Y006192D01*
X044790Y006095D02*
X044790Y006289D01*
X044790Y006390D02*
X044742Y006390D01*
X044548Y006583D01*
X044500Y006583D01*
X044500Y006390D01*
X047380Y006583D02*
X047428Y006487D01*
X047525Y006390D01*
X047525Y006535D01*
X047573Y006583D01*
X047622Y006583D01*
X047670Y006535D01*
X047670Y006438D01*
X047622Y006390D01*
X047525Y006390D01*
X047670Y006289D02*
X047670Y006095D01*
X047670Y006192D02*
X047380Y006192D01*
X047477Y006095D01*
X047428Y005994D02*
X047380Y005946D01*
X047380Y005801D01*
X047670Y005801D01*
X047670Y005946D01*
X047622Y005994D01*
X047428Y005994D01*
X050260Y005946D02*
X050260Y005801D01*
X050550Y005801D01*
X050550Y005946D01*
X050502Y005994D01*
X050308Y005994D01*
X050260Y005946D01*
X050357Y006095D02*
X050260Y006192D01*
X050550Y006192D01*
X050550Y006095D02*
X050550Y006289D01*
X050502Y006390D02*
X050550Y006438D01*
X050550Y006535D01*
X050502Y006583D01*
X050405Y006583D01*
X050357Y006535D01*
X050357Y006487D01*
X050405Y006390D01*
X050260Y006390D01*
X050260Y006583D01*
X053140Y006535D02*
X053285Y006390D01*
X053285Y006583D01*
X053430Y006535D02*
X053140Y006535D01*
X053140Y006192D02*
X053430Y006192D01*
X053430Y006095D02*
X053430Y006289D01*
X053237Y006095D02*
X053140Y006192D01*
X053188Y005994D02*
X053140Y005946D01*
X053140Y005801D01*
X053430Y005801D01*
X053430Y005946D01*
X053382Y005994D01*
X053188Y005994D01*
X056100Y005946D02*
X056100Y005801D01*
X056390Y005801D01*
X056390Y005946D01*
X056342Y005994D01*
X056148Y005994D01*
X056100Y005946D01*
X056197Y006095D02*
X056100Y006192D01*
X056390Y006192D01*
X056390Y006095D02*
X056390Y006289D01*
X056342Y006390D02*
X056390Y006438D01*
X056390Y006535D01*
X056342Y006583D01*
X056293Y006583D01*
X056245Y006535D01*
X056245Y006487D01*
X056245Y006535D02*
X056197Y006583D01*
X056148Y006583D01*
X056100Y006535D01*
X056100Y006438D01*
X056148Y006390D01*
X059060Y006438D02*
X059108Y006390D01*
X059060Y006438D02*
X059060Y006535D01*
X059108Y006583D01*
X059157Y006583D01*
X059350Y006390D01*
X059350Y006583D01*
X059350Y006289D02*
X059350Y006095D01*
X059350Y006192D02*
X059060Y006192D01*
X059157Y006095D01*
X059108Y005994D02*
X059060Y005946D01*
X059060Y005801D01*
X059350Y005801D01*
X059350Y005946D01*
X059302Y005994D01*
X059108Y005994D01*
X062020Y005946D02*
X062020Y005801D01*
X062310Y005801D01*
X062310Y005946D01*
X062262Y005994D01*
X062068Y005994D01*
X062020Y005946D01*
X062117Y006095D02*
X062020Y006192D01*
X062310Y006192D01*
X062310Y006095D02*
X062310Y006289D01*
X062310Y006390D02*
X062310Y006583D01*
X062310Y006487D02*
X062020Y006487D01*
X062117Y006390D01*
X064980Y006438D02*
X064980Y006535D01*
X065028Y006583D01*
X065222Y006390D01*
X065270Y006438D01*
X065270Y006535D01*
X065222Y006583D01*
X065028Y006583D01*
X064980Y006438D02*
X065028Y006390D01*
X065222Y006390D01*
X065270Y006289D02*
X065270Y006095D01*
X065270Y006192D02*
X064980Y006192D01*
X065077Y006095D01*
X065028Y005994D02*
X064980Y005946D01*
X064980Y005801D01*
X065270Y005801D01*
X065270Y005946D01*
X065222Y005994D01*
X065028Y005994D01*
X067940Y005946D02*
X067940Y005801D01*
X068230Y005801D01*
X068230Y005946D01*
X068182Y005994D01*
X067988Y005994D01*
X067940Y005946D01*
X067988Y006095D02*
X068037Y006095D01*
X068085Y006144D01*
X068085Y006289D01*
X068182Y006289D02*
X067988Y006289D01*
X067940Y006240D01*
X067940Y006144D01*
X067988Y006095D01*
X068182Y006095D02*
X068230Y006144D01*
X068230Y006240D01*
X068182Y006289D01*
X070900Y006240D02*
X070948Y006289D01*
X070997Y006289D01*
X071045Y006240D01*
X071045Y006144D01*
X070997Y006095D01*
X070948Y006095D01*
X070900Y006144D01*
X070900Y006240D01*
X071045Y006240D02*
X071093Y006289D01*
X071142Y006289D01*
X071190Y006240D01*
X071190Y006144D01*
X071142Y006095D01*
X071093Y006095D01*
X071045Y006144D01*
X071142Y005994D02*
X070948Y005994D01*
X070900Y005946D01*
X070900Y005801D01*
X071190Y005801D01*
X071190Y005946D01*
X071142Y005994D01*
X073860Y005946D02*
X073860Y005801D01*
X074150Y005801D01*
X074150Y005946D01*
X074102Y005994D01*
X073908Y005994D01*
X073860Y005946D01*
X073860Y006095D02*
X073860Y006289D01*
X073908Y006289D01*
X074102Y006095D01*
X074150Y006095D01*
X076820Y005946D02*
X076820Y005801D01*
X077110Y005801D01*
X077110Y005946D01*
X077062Y005994D01*
X076868Y005994D01*
X076820Y005946D01*
X076965Y006095D02*
X076965Y006240D01*
X077013Y006289D01*
X077062Y006289D01*
X077110Y006240D01*
X077110Y006144D01*
X077062Y006095D01*
X076965Y006095D01*
X076868Y006192D01*
X076820Y006289D01*
X079780Y006289D02*
X079780Y006095D01*
X079925Y006095D01*
X079877Y006192D01*
X079877Y006240D01*
X079925Y006289D01*
X080022Y006289D01*
X080070Y006240D01*
X080070Y006144D01*
X080022Y006095D01*
X080022Y005994D02*
X079828Y005994D01*
X079780Y005946D01*
X079780Y005801D01*
X080070Y005801D01*
X080070Y005946D01*
X080022Y005994D01*
X082740Y005946D02*
X082740Y005801D01*
X083030Y005801D01*
X083030Y005946D01*
X082982Y005994D01*
X082788Y005994D01*
X082740Y005946D01*
X082885Y006095D02*
X082885Y006289D01*
X083030Y006240D02*
X082740Y006240D01*
X082885Y006095D01*
X085700Y006144D02*
X085700Y006240D01*
X085748Y006289D01*
X085797Y006289D01*
X085845Y006240D01*
X085893Y006289D01*
X085942Y006289D01*
X085990Y006240D01*
X085990Y006144D01*
X085942Y006095D01*
X085942Y005994D02*
X085748Y005994D01*
X085700Y005946D01*
X085700Y005801D01*
X085990Y005801D01*
X085990Y005946D01*
X085942Y005994D01*
X085748Y006095D02*
X085700Y006144D01*
X085845Y006192D02*
X085845Y006240D01*
X088660Y006240D02*
X088660Y006144D01*
X088708Y006095D01*
X088708Y005994D02*
X088660Y005946D01*
X088660Y005801D01*
X088950Y005801D01*
X088950Y005946D01*
X088902Y005994D01*
X088708Y005994D01*
X088660Y006240D02*
X088708Y006289D01*
X088757Y006289D01*
X088950Y006095D01*
X088950Y006289D01*
X091620Y006192D02*
X091910Y006192D01*
X091910Y006095D02*
X091910Y006289D01*
X091717Y006095D02*
X091620Y006192D01*
X091668Y005994D02*
X091620Y005946D01*
X091620Y005801D01*
X091910Y005801D01*
X091910Y005946D01*
X091862Y005994D01*
X091668Y005994D01*
X081390Y014902D02*
X081368Y014881D01*
X081282Y014881D01*
X081260Y014902D01*
X081260Y014946D01*
X081282Y014967D01*
X081325Y015028D02*
X081325Y015093D01*
X081347Y015115D01*
X081368Y015115D01*
X081390Y015093D01*
X081390Y015050D01*
X081368Y015028D01*
X081325Y015028D01*
X081282Y015071D01*
X081260Y015115D01*
X081368Y014967D02*
X081390Y014946D01*
X081390Y014902D01*
X085691Y016715D02*
X085953Y016453D01*
X085910Y016409D02*
X085997Y016496D01*
X086040Y016626D02*
X086127Y016626D01*
X086214Y016714D01*
X086214Y016801D01*
X086344Y016843D02*
X086344Y017192D01*
X086300Y017236D01*
X086213Y017236D01*
X086125Y017149D01*
X086125Y017061D01*
X086040Y016975D02*
X085952Y016976D01*
X085865Y016888D01*
X085865Y016801D01*
X086040Y016626D01*
X085735Y016758D02*
X085648Y016671D01*
X086344Y016843D02*
X086518Y017018D01*
X084343Y016816D02*
X084343Y016785D01*
X084328Y016770D01*
X084297Y016770D01*
X084297Y016739D01*
X084281Y016724D01*
X084251Y016724D01*
X084220Y016755D01*
X084220Y016785D01*
X084177Y016828D02*
X084147Y016828D01*
X084116Y016859D01*
X084116Y016889D01*
X084177Y016951D01*
X084208Y016951D01*
X084239Y016920D01*
X084239Y016889D01*
X084282Y016847D02*
X084312Y016847D01*
X084343Y016816D01*
X084297Y016770D02*
X084281Y016785D01*
D18*
X084094Y016789D02*
X084589Y016294D01*
X083556Y015262D01*
X083061Y015757D01*
X084094Y016789D01*
X084115Y017016D02*
X082815Y017016D01*
X081675Y017376D02*
X081675Y018676D01*
X080575Y018676D02*
X080575Y017376D01*
X078977Y017756D02*
X078977Y019016D01*
X077953Y019016D02*
X077953Y017756D01*
X082815Y018116D02*
X084115Y018116D01*
X088711Y019064D02*
X089206Y019559D01*
X090239Y018527D01*
X089744Y018032D01*
X088711Y019064D01*
X085617Y020097D02*
X085420Y020097D01*
X085617Y020097D02*
X085617Y021475D01*
X082073Y021475D01*
X082073Y020097D01*
X082270Y020097D01*
X085834Y016227D02*
X086056Y016227D01*
X088506Y013777D01*
X088506Y013554D01*
X086056Y011104D01*
X085834Y011104D01*
X083384Y013554D01*
X083384Y013777D01*
X085834Y016227D01*
X082915Y015636D02*
X082915Y014936D01*
X081455Y014936D01*
X081455Y015636D01*
X082915Y015636D01*
X078915Y015216D02*
X078915Y013916D01*
X077815Y013916D02*
X077815Y015216D01*
X075695Y014896D02*
X074395Y014896D01*
X074395Y015996D02*
X075695Y015996D01*
X079641Y014466D02*
X079641Y014387D01*
X079641Y014466D02*
X081610Y014466D01*
X081610Y014387D01*
X081610Y012143D02*
X081610Y012065D01*
X079641Y012065D01*
X079641Y012143D01*
X071295Y011996D02*
X071295Y011296D01*
X069835Y011296D01*
X069835Y011996D01*
X071295Y011996D01*
X022775Y011056D02*
X022775Y010356D01*
X021315Y010356D01*
X021315Y011056D01*
X022775Y011056D01*
D19*
X075158Y015446D03*
X083352Y017566D03*
D20*
X081125Y017912D03*
X078365Y014452D03*
D21*
X079485Y016906D03*
X079725Y019706D03*
D22*
X092965Y021016D02*
X093272Y021476D01*
X093425Y021399D02*
X093502Y021476D01*
X093656Y021476D01*
X093732Y021399D01*
X093732Y021323D01*
X093425Y021016D01*
X093732Y021016D01*
X093272Y021016D02*
X092965Y021476D01*
X064925Y014973D02*
X064925Y014666D01*
X064925Y014513D02*
X064465Y014513D01*
X064618Y014359D01*
X064465Y014206D01*
X064925Y014206D01*
X064618Y014666D02*
X064465Y014819D01*
X064925Y014819D01*
X062972Y015076D02*
X062666Y015076D01*
X062512Y015229D01*
X062666Y015383D01*
X062972Y015383D01*
X062972Y015536D02*
X062512Y015536D01*
X062972Y015843D01*
X062512Y015843D01*
X062512Y015996D02*
X062512Y016303D01*
X062512Y016150D02*
X062972Y016150D01*
X062742Y015383D02*
X062742Y015076D01*
X093105Y011579D02*
X093565Y011579D01*
X093565Y011732D02*
X093565Y011425D01*
X093565Y011272D02*
X093105Y010965D01*
X093105Y011272D02*
X093565Y010965D01*
X093258Y011425D02*
X093105Y011579D01*
D23*
X082445Y013856D03*
D24*
X075617Y019237D02*
X075634Y019188D01*
X075648Y019137D01*
X075657Y019085D01*
X075663Y019033D01*
X075665Y018980D01*
X075663Y018928D01*
X075657Y018875D01*
X075647Y018824D01*
X075633Y018773D01*
X075616Y018723D01*
X075595Y018675D01*
X075570Y018628D01*
X075542Y018584D01*
X075511Y018542D01*
X075477Y018502D01*
X075439Y018465D01*
X075400Y018430D01*
X075357Y018399D01*
X075313Y018371D01*
X075266Y018347D01*
X075218Y018326D01*
X075168Y018308D01*
X075117Y018295D01*
X075066Y018285D01*
X075013Y018279D01*
X074961Y018277D01*
X074908Y018279D01*
X074856Y018285D01*
X074804Y018295D01*
X074753Y018308D01*
X074704Y018326D01*
X074656Y018347D01*
X074609Y018371D01*
X074564Y018399D01*
X074522Y018431D01*
X074482Y018465D01*
X074445Y018502D01*
X074411Y018542D01*
X074379Y018584D01*
X074351Y018629D01*
X074327Y018675D01*
X074306Y018724D01*
X074288Y018773D01*
X074275Y018824D01*
X074265Y018876D01*
X074259Y018928D01*
X074257Y018981D01*
X074259Y019033D01*
X074265Y019085D01*
X074275Y019137D01*
X074288Y019188D01*
X074305Y019238D01*
X074326Y019286D01*
X074351Y019332D01*
X074379Y019377D01*
X074410Y019419D01*
X074444Y019459D01*
X074482Y019497D01*
X074521Y019531D01*
X074564Y019562D01*
X074608Y019590D01*
X074655Y019615D01*
X074703Y019636D01*
X074753Y019653D01*
X074803Y019667D01*
X074855Y019677D01*
X075155Y020175D01*
X075405Y020206D02*
X074805Y020206D01*
X074675Y020382D02*
X074935Y019883D01*
X074293Y019283D02*
X073913Y019942D01*
X075617Y019237D02*
X075997Y019895D01*
X075405Y020206D02*
X075440Y020166D01*
X075477Y020129D01*
X075517Y020095D01*
X075559Y020064D01*
X075604Y020036D01*
X075650Y020011D01*
X075699Y019990D01*
X075748Y019973D01*
X075799Y019959D01*
X075851Y019950D01*
X075903Y019944D01*
X075956Y019942D01*
X076008Y019944D01*
X076061Y019950D01*
X076112Y019960D01*
X076163Y019973D01*
X076213Y019991D01*
X076261Y020012D01*
X076307Y020037D01*
X076352Y020065D01*
X076394Y020096D01*
X076434Y020130D01*
X076471Y020167D01*
X076506Y020207D01*
X076537Y020250D01*
X076565Y020294D01*
X076589Y020341D01*
X076610Y020389D01*
X076628Y020439D01*
X076641Y020489D01*
X076651Y020541D01*
X076657Y020593D01*
X076659Y020646D01*
X076657Y020699D01*
X076651Y020751D01*
X076641Y020803D01*
X076628Y020853D01*
X076610Y020903D01*
X076589Y020951D01*
X076565Y020998D01*
X076537Y021042D01*
X076506Y021085D01*
X076471Y021125D01*
X076434Y021162D01*
X076394Y021196D01*
X076352Y021227D01*
X076307Y021255D01*
X076261Y021280D01*
X076213Y021301D01*
X076163Y021319D01*
X076112Y021332D01*
X076061Y021342D01*
X076008Y021348D01*
X075956Y021350D01*
X075903Y021348D01*
X075851Y021342D01*
X075799Y021333D01*
X075748Y021319D01*
X075699Y021302D01*
X075650Y021281D01*
X075604Y021256D01*
X075559Y021228D01*
X075517Y021197D01*
X075477Y021163D01*
X075440Y021126D01*
X075405Y021086D01*
X074605Y021086D01*
X074675Y020382D02*
X074692Y020431D01*
X074706Y020482D01*
X074715Y020534D01*
X074721Y020586D01*
X074723Y020639D01*
X074721Y020691D01*
X074715Y020744D01*
X074705Y020795D01*
X074691Y020846D01*
X074674Y020896D01*
X074653Y020944D01*
X074628Y020991D01*
X074600Y021035D01*
X074569Y021077D01*
X074535Y021117D01*
X074497Y021154D01*
X074458Y021189D01*
X074415Y021220D01*
X074371Y021248D01*
X074324Y021272D01*
X074276Y021293D01*
X074226Y021311D01*
X074175Y021324D01*
X074124Y021334D01*
X074071Y021340D01*
X074019Y021342D01*
X073966Y021340D01*
X073914Y021334D01*
X073862Y021324D01*
X073811Y021311D01*
X073762Y021293D01*
X073714Y021272D01*
X073667Y021248D01*
X073622Y021220D01*
X073580Y021188D01*
X073540Y021154D01*
X073503Y021117D01*
X073469Y021077D01*
X073437Y021035D01*
X073409Y020990D01*
X073385Y020944D01*
X073364Y020895D01*
X073346Y020846D01*
X073333Y020795D01*
X073323Y020743D01*
X073317Y020691D01*
X073315Y020638D01*
X073317Y020586D01*
X073323Y020534D01*
X073333Y020482D01*
X073346Y020431D01*
X073363Y020381D01*
X073384Y020333D01*
X073409Y020287D01*
X073437Y020242D01*
X073468Y020200D01*
X073502Y020160D01*
X073540Y020122D01*
X073579Y020088D01*
X073622Y020057D01*
X073666Y020029D01*
X073713Y020004D01*
X073761Y019983D01*
X073811Y019966D01*
X073861Y019952D01*
X073913Y019942D01*
M02*
