G75*
G70*
%OFA0B0*%
%FSLAX24Y24*%
%IPPOS*%
%LPD*%
%AMOC8*
5,1,8,0,0,1.08239X$1,22.5*
%
%ADD10R,0.0197X0.0866*%
%ADD11R,0.0512X0.0472*%
%ADD12R,0.0700X0.0900*%
%ADD13R,0.0236X0.0220*%
%ADD14R,0.0220X0.0236*%
%ADD15R,0.0472X0.0512*%
%ADD16R,0.0394X0.0315*%
%ADD17R,0.0472X0.0551*%
%ADD18R,0.0472X0.0984*%
%ADD19R,0.0250X0.0500*%
%ADD20R,0.0591X0.0197*%
%ADD21R,0.0197X0.0591*%
%ADD22R,0.0900X0.0700*%
%ADD23R,0.0787X0.0472*%
%ADD24R,0.0433X0.0394*%
%ADD25R,0.0630X0.0157*%
%ADD26R,0.0394X0.1378*%
%ADD27R,0.1378X0.0394*%
%ADD28R,0.0394X0.0433*%
D10*
X090335Y013839D03*
X090831Y013839D03*
X091331Y013839D03*
X091831Y013839D03*
X091835Y016323D03*
X091335Y016323D03*
X090835Y016323D03*
X090335Y016323D03*
D11*
X082265Y015161D03*
X082265Y014361D03*
X020565Y011381D03*
X020565Y010581D03*
D12*
X074465Y016141D03*
X075665Y016141D03*
X083205Y018261D03*
X084405Y018261D03*
X082385Y012941D03*
X081185Y012941D03*
D13*
G36*
X089027Y012687D02*
X089193Y012521D01*
X089037Y012365D01*
X088871Y012531D01*
X089027Y012687D01*
G37*
G36*
X089250Y012910D02*
X089416Y012744D01*
X089260Y012588D01*
X089094Y012754D01*
X089250Y012910D01*
G37*
G36*
X089472Y013133D02*
X089638Y012967D01*
X089482Y012811D01*
X089316Y012977D01*
X089472Y013133D01*
G37*
G36*
X089695Y013355D02*
X089861Y013189D01*
X089705Y013033D01*
X089539Y013199D01*
X089695Y013355D01*
G37*
G36*
X090254Y012797D02*
X090420Y012631D01*
X090264Y012475D01*
X090098Y012641D01*
X090254Y012797D01*
G37*
G36*
X090031Y012574D02*
X090197Y012408D01*
X090041Y012252D01*
X089875Y012418D01*
X090031Y012574D01*
G37*
G36*
X089808Y012351D02*
X089974Y012185D01*
X089818Y012029D01*
X089652Y012195D01*
X089808Y012351D01*
G37*
G36*
X089585Y012129D02*
X089751Y011963D01*
X089595Y011807D01*
X089429Y011973D01*
X089585Y012129D01*
G37*
X089560Y016399D03*
X089560Y016714D03*
X089560Y017029D03*
X088770Y017029D03*
X088770Y016714D03*
X088770Y016399D03*
X088770Y017344D03*
X089560Y017344D03*
D14*
X086358Y010876D03*
X086043Y010876D03*
X085728Y010876D03*
X085413Y010876D03*
X085413Y010086D03*
X085728Y010086D03*
X086043Y010086D03*
X086358Y010086D03*
D15*
X090995Y012871D03*
X091795Y012871D03*
G36*
X083215Y016452D02*
X083548Y016785D01*
X083909Y016424D01*
X083576Y016091D01*
X083215Y016452D01*
G37*
G36*
X083781Y017018D02*
X084114Y017351D01*
X084475Y016990D01*
X084142Y016657D01*
X083781Y017018D01*
G37*
X069945Y011941D03*
X069145Y011941D03*
D16*
X019558Y011355D03*
X018574Y010981D03*
X019558Y010607D03*
D17*
X001451Y006191D03*
X002140Y006191D03*
X004351Y006191D03*
X005040Y006191D03*
X007251Y006191D03*
X007940Y006191D03*
X010151Y006191D03*
X010840Y006191D03*
X013051Y006191D03*
X013740Y006191D03*
X015951Y006191D03*
X016640Y006191D03*
X018851Y006191D03*
X019540Y006191D03*
X021751Y006191D03*
X022440Y006191D03*
X024651Y006191D03*
X025340Y006191D03*
X027551Y006191D03*
X028240Y006191D03*
X030451Y006191D03*
X031140Y006191D03*
X033351Y006191D03*
X034040Y006191D03*
X036251Y006191D03*
X036940Y006191D03*
X039151Y006191D03*
X039840Y006191D03*
X042051Y006191D03*
X042740Y006191D03*
X044851Y006191D03*
X045540Y006191D03*
X047751Y006191D03*
X048440Y006191D03*
X050651Y006191D03*
X051340Y006191D03*
X053651Y006191D03*
X054340Y006191D03*
X056551Y006191D03*
X057240Y006191D03*
X059451Y006191D03*
X060140Y006191D03*
X062351Y006191D03*
X063040Y006191D03*
X065251Y006191D03*
X065940Y006191D03*
X068151Y006191D03*
X068840Y006191D03*
X071051Y006201D03*
X071740Y006201D03*
X073951Y006191D03*
X074640Y006191D03*
X076851Y006191D03*
X077540Y006191D03*
X079751Y006191D03*
X080440Y006191D03*
X082651Y006191D03*
X083340Y006191D03*
X085551Y006191D03*
X086240Y006191D03*
X088451Y006191D03*
X089140Y006191D03*
X091351Y006191D03*
X092040Y006191D03*
X092040Y007451D03*
X091351Y007451D03*
X089140Y007451D03*
X088451Y007451D03*
X086240Y007451D03*
X085551Y007451D03*
X083340Y007451D03*
X082651Y007451D03*
X080440Y007451D03*
X079751Y007451D03*
X077540Y007451D03*
X076851Y007451D03*
X074640Y007451D03*
X073951Y007451D03*
X071740Y007461D03*
X071051Y007461D03*
X068840Y007451D03*
X068151Y007451D03*
X065940Y007451D03*
X065251Y007451D03*
X063040Y007451D03*
X062351Y007451D03*
X060140Y007451D03*
X059451Y007451D03*
X057240Y007451D03*
X056551Y007451D03*
X054340Y007451D03*
X053651Y007451D03*
X051340Y007451D03*
X050651Y007451D03*
X048440Y007451D03*
X047751Y007451D03*
X045540Y007451D03*
X044851Y007451D03*
X042740Y007451D03*
X042051Y007451D03*
X039840Y007451D03*
X039151Y007451D03*
X036940Y007451D03*
X036251Y007451D03*
X034040Y007451D03*
X033351Y007451D03*
X031140Y007451D03*
X030451Y007451D03*
X028240Y007451D03*
X027551Y007451D03*
X025340Y007451D03*
X024651Y007451D03*
X022440Y007451D03*
X021751Y007451D03*
X019540Y007451D03*
X018851Y007451D03*
X016640Y007451D03*
X015951Y007451D03*
X013740Y007451D03*
X013051Y007451D03*
X010840Y007451D03*
X010151Y007451D03*
X007940Y007451D03*
X007251Y007451D03*
X005040Y007451D03*
X004351Y007451D03*
X002140Y007451D03*
X001451Y007451D03*
D18*
X084541Y020078D03*
X085525Y020078D03*
X086509Y020078D03*
D19*
X080999Y017814D03*
X080625Y017814D03*
X080251Y017814D03*
X080251Y016908D03*
X080625Y016908D03*
X080999Y016908D03*
D20*
G36*
X086743Y017228D02*
X086327Y016812D01*
X086189Y016950D01*
X086605Y017366D01*
X086743Y017228D01*
G37*
G36*
X086966Y017006D02*
X086550Y016590D01*
X086412Y016728D01*
X086828Y017144D01*
X086966Y017006D01*
G37*
G36*
X087189Y016783D02*
X086773Y016367D01*
X086635Y016505D01*
X087051Y016921D01*
X087189Y016783D01*
G37*
G36*
X087411Y016560D02*
X086995Y016144D01*
X086857Y016282D01*
X087273Y016698D01*
X087411Y016560D01*
G37*
G36*
X087634Y016337D02*
X087218Y015921D01*
X087080Y016059D01*
X087496Y016475D01*
X087634Y016337D01*
G37*
G36*
X087857Y016115D02*
X087441Y015699D01*
X087303Y015837D01*
X087719Y016253D01*
X087857Y016115D01*
G37*
G36*
X088080Y015892D02*
X087664Y015476D01*
X087526Y015614D01*
X087942Y016030D01*
X088080Y015892D01*
G37*
G36*
X088302Y015669D02*
X087886Y015253D01*
X087748Y015391D01*
X088164Y015807D01*
X088302Y015669D01*
G37*
G36*
X088525Y015447D02*
X088109Y015031D01*
X087971Y015169D01*
X088387Y015585D01*
X088525Y015447D01*
G37*
G36*
X088748Y015224D02*
X088332Y014808D01*
X088194Y014946D01*
X088610Y015362D01*
X088748Y015224D01*
G37*
G36*
X088970Y015001D02*
X088554Y014585D01*
X088416Y014723D01*
X088832Y015139D01*
X088970Y015001D01*
G37*
G36*
X083514Y013999D02*
X083098Y013583D01*
X082960Y013721D01*
X083376Y014137D01*
X083514Y013999D01*
G37*
G36*
X083737Y013776D02*
X083321Y013360D01*
X083183Y013498D01*
X083599Y013914D01*
X083737Y013776D01*
G37*
G36*
X083959Y013554D02*
X083543Y013138D01*
X083405Y013276D01*
X083821Y013692D01*
X083959Y013554D01*
G37*
G36*
X084182Y013331D02*
X083766Y012915D01*
X083628Y013053D01*
X084044Y013469D01*
X084182Y013331D01*
G37*
G36*
X084405Y013108D02*
X083989Y012692D01*
X083851Y012830D01*
X084267Y013246D01*
X084405Y013108D01*
G37*
G36*
X084628Y012885D02*
X084212Y012469D01*
X084074Y012607D01*
X084490Y013023D01*
X084628Y012885D01*
G37*
G36*
X084850Y012663D02*
X084434Y012247D01*
X084296Y012385D01*
X084712Y012801D01*
X084850Y012663D01*
G37*
G36*
X085073Y012440D02*
X084657Y012024D01*
X084519Y012162D01*
X084935Y012578D01*
X085073Y012440D01*
G37*
G36*
X085296Y012217D02*
X084880Y011801D01*
X084742Y011939D01*
X085158Y012355D01*
X085296Y012217D01*
G37*
G36*
X085518Y011995D02*
X085102Y011579D01*
X084964Y011717D01*
X085380Y012133D01*
X085518Y011995D01*
G37*
G36*
X085741Y011772D02*
X085325Y011356D01*
X085187Y011494D01*
X085603Y011910D01*
X085741Y011772D01*
G37*
D21*
G36*
X086743Y011494D02*
X086605Y011356D01*
X086189Y011772D01*
X086327Y011910D01*
X086743Y011494D01*
G37*
G36*
X086966Y011717D02*
X086828Y011579D01*
X086412Y011995D01*
X086550Y012133D01*
X086966Y011717D01*
G37*
G36*
X087189Y011939D02*
X087051Y011801D01*
X086635Y012217D01*
X086773Y012355D01*
X087189Y011939D01*
G37*
G36*
X087411Y012162D02*
X087273Y012024D01*
X086857Y012440D01*
X086995Y012578D01*
X087411Y012162D01*
G37*
G36*
X087634Y012385D02*
X087496Y012247D01*
X087080Y012663D01*
X087218Y012801D01*
X087634Y012385D01*
G37*
G36*
X087857Y012607D02*
X087719Y012469D01*
X087303Y012885D01*
X087441Y013023D01*
X087857Y012607D01*
G37*
G36*
X088080Y012830D02*
X087942Y012692D01*
X087526Y013108D01*
X087664Y013246D01*
X088080Y012830D01*
G37*
G36*
X088302Y013053D02*
X088164Y012915D01*
X087748Y013331D01*
X087886Y013469D01*
X088302Y013053D01*
G37*
G36*
X088525Y013276D02*
X088387Y013138D01*
X087971Y013554D01*
X088109Y013692D01*
X088525Y013276D01*
G37*
G36*
X088748Y013498D02*
X088610Y013360D01*
X088194Y013776D01*
X088332Y013914D01*
X088748Y013498D01*
G37*
G36*
X088970Y013721D02*
X088832Y013583D01*
X088416Y013999D01*
X088554Y014137D01*
X088970Y013721D01*
G37*
G36*
X083737Y014946D02*
X083599Y014808D01*
X083183Y015224D01*
X083321Y015362D01*
X083737Y014946D01*
G37*
G36*
X083959Y015169D02*
X083821Y015031D01*
X083405Y015447D01*
X083543Y015585D01*
X083959Y015169D01*
G37*
G36*
X084182Y015391D02*
X084044Y015253D01*
X083628Y015669D01*
X083766Y015807D01*
X084182Y015391D01*
G37*
G36*
X084405Y015614D02*
X084267Y015476D01*
X083851Y015892D01*
X083989Y016030D01*
X084405Y015614D01*
G37*
G36*
X084628Y015837D02*
X084490Y015699D01*
X084074Y016115D01*
X084212Y016253D01*
X084628Y015837D01*
G37*
G36*
X084850Y016059D02*
X084712Y015921D01*
X084296Y016337D01*
X084434Y016475D01*
X084850Y016059D01*
G37*
G36*
X085073Y016282D02*
X084935Y016144D01*
X084519Y016560D01*
X084657Y016698D01*
X085073Y016282D01*
G37*
G36*
X085296Y016505D02*
X085158Y016367D01*
X084742Y016783D01*
X084880Y016921D01*
X085296Y016505D01*
G37*
G36*
X085518Y016728D02*
X085380Y016590D01*
X084964Y017006D01*
X085102Y017144D01*
X085518Y016728D01*
G37*
G36*
X085741Y016950D02*
X085603Y016812D01*
X085187Y017228D01*
X085325Y017366D01*
X085741Y016950D01*
G37*
G36*
X083514Y014723D02*
X083376Y014585D01*
X082960Y015001D01*
X083098Y015139D01*
X083514Y014723D01*
G37*
D22*
X081945Y016921D03*
X081945Y018121D03*
D23*
X079445Y018031D03*
X079445Y016771D03*
D24*
X080211Y016161D03*
X080880Y016161D03*
X080960Y018521D03*
X080291Y018521D03*
D25*
X081444Y011976D03*
X081444Y011721D03*
X081444Y011465D03*
X081444Y011209D03*
X081444Y010953D03*
X081444Y010697D03*
X081444Y010441D03*
X081444Y010185D03*
X083767Y010185D03*
X083767Y010441D03*
X083767Y010697D03*
X083767Y010953D03*
X083767Y011209D03*
X083767Y011465D03*
X083767Y011721D03*
X083767Y011976D03*
D26*
X071536Y013468D03*
X070946Y013468D03*
X070355Y013468D03*
X069764Y013468D03*
X069174Y013468D03*
X068583Y013468D03*
X067993Y013468D03*
X067402Y013468D03*
X066812Y013468D03*
X066221Y013468D03*
X065631Y013468D03*
X065040Y013468D03*
X064449Y013468D03*
X064449Y019373D03*
X065040Y019373D03*
X065631Y019373D03*
X066221Y019373D03*
X066812Y019373D03*
X067402Y019373D03*
X067993Y019373D03*
X068583Y019373D03*
X069174Y019373D03*
X069764Y019373D03*
X070355Y019373D03*
X070946Y019373D03*
X071536Y019373D03*
D27*
X072662Y018487D03*
X072662Y017897D03*
X072662Y017306D03*
X072662Y016716D03*
X072662Y016125D03*
X072662Y015535D03*
X072662Y014944D03*
X072662Y014354D03*
D28*
X084625Y011526D03*
X084625Y010856D03*
M02*
