M48
INCH,TZ
VER,1
FMAT,2
T01C0.016F100B1000S6H2000
T02C0.017F100B1000S6H2000
T03C0.03F100B1000S6H2000
T04C0.0315F100B1000S6H2000
T05C0.04F100B1000S6H2000
T06C0.25F100B1000S6H2000
DETECT,ON
ATC,ON
%
T01
X70809Y41240
X71249Y41320
X71729Y41400
X70809Y41880
X81569Y39960
X81969Y39720
X83489
X87089Y38840
X86369Y37640
X89809Y40040
X91249Y40600
X87809Y41000
X90689Y41560
X86889Y43520
X86169Y43480
X82609Y43160
Y42280
X83009Y41240
X91009Y44400
X90729Y44800
X89969Y44520
Y45080
X90369Y45720
X89689Y46040
X88289Y46600
X88849Y47400
X83579Y45190
X25025Y53880
X24585Y53800
X24105Y53720
X25025Y53240
X14265Y55160
X13865Y55400
X12345
X8745Y56280
X9465Y57480
X6025Y55080
X4585Y54520
X8025Y54120
X5145Y53560
X8945Y51600
X9665Y51640
X13225Y51960
Y52840
X12825Y53880
X4825Y50720
X5105Y50320
X5865Y50600
Y50040
X5465Y49400
X6145Y49080
X7545Y48520
X6985Y47720
X12255Y49930
X69909Y99481
X70349Y99561
X70829Y99641
X69909Y100121
X80669Y98201
X81069Y97961
X82589
X86189Y97081
X85469Y95881
X88909Y98281
X90349Y98841
X86909Y99241
X89789Y99801
X85989Y101761
X85269Y101721
X81709Y101401
Y100521
X82109Y99481
X90109Y102641
X89829Y103041
X89069Y102761
Y103321
X89469Y103961
X88789Y104281
X87389Y104841
X87949Y105641
X82679Y103431
X24125Y112121
X23685Y112041
X23205Y111961
X24125Y111481
X13365Y113401
X12965Y113641
X11445
X7845Y114521
X8565Y115721
X5125Y113321
X3685Y112761
X7125Y112361
X4245Y111801
X8045Y109841
X8765Y109881
X12325Y110201
Y111081
X11925Y112121
X3925Y108961
X4205Y108561
X4965Y108841
Y108281
X4565Y107641
X5245Y107321
X6645Y106761
X6085Y105961
X11355Y108171
T02
X78849Y41080
X78049Y40440
X75969Y40920
X75169Y40280
X72769Y40760
X68449Y40680
X67329Y41080
X64529Y40920
X66529Y40440
X63649Y40280
X61249Y40760
X56849Y40600
X54769Y40440
X52689Y40920
X55569Y41080
X51809Y40280
X49729Y40760
X45089Y40600
X43249Y40440
X41169Y40920
X40369Y40280
X37969Y40760
X33649Y40600
X31489Y40440
X29409Y40920
X28609Y40280
X26609Y40760
X22129Y40600
X20049Y40440
X17889Y40920
X17089Y40280
X15089Y40760
X12049Y40600
X9969Y40920
X8609Y40440
X6849Y40760
X5409Y40280
X4209
X2289Y39560
X1743Y38300
X596Y38101
X463Y37579
X809Y37000
X3363Y37579
X3496Y38101
X4643Y38300
X6396Y38101
X6263Y37579
X7543Y38300
X9296Y38101
X9163Y37579
X10443Y38300
X12196Y38101
X12063Y37579
X13343Y38300
X15096Y38101
X16243Y38300
X17996Y38101
X19143Y38300
X20896Y38101
X22043Y38300
X23796Y38101
X24943Y38300
X26696Y38101
X27843Y38300
X29596Y38101
X30743Y38300
X32496Y38101
X33643Y38300
X35396Y38101
X36543Y38300
X38296Y38101
X39443Y38300
X41196Y38101
X42343Y38300
X43996Y38101
X45143Y38300
X46896Y38101
X48043Y38300
X49796Y38101
X50943Y38300
X52796Y38101
X53943Y38300
X55696Y38101
X56843Y38300
X58596Y38101
X59743Y38300
X61496Y38101
X62643Y38300
X64396Y38101
X64263Y37579
X65543Y38300
X67296Y38101
X67163Y37579
X68443Y38300
X70196Y38111
X70063Y37589
X71343Y38310
X73096Y38101
X74243Y38300
X75996Y38101
X77143Y38300
X78896Y38101
X80043Y38300
X81796Y38101
X82943Y38300
X84696Y38101
X85843Y38300
X87596Y38101
X88743Y38300
X90496Y38101
X91643Y38300
X90363Y37579
X87463
X84563
X82129Y37080
X81663Y37579
X78763
X75863
X72963
X73009Y36680
X70529Y36840
X67009Y36360
X64209Y36520
X61363Y36715
X58929Y36840
X58463Y37579
X55563
X52663
X49663
X46763
X43863
X41063
X38163
X35263
X32363
X29463
X26563
X23663
X20763
X17863
X14963
X15009Y36680
X12449Y36840
X10449Y36360
X7489Y36520
X4689Y36680
X17729Y36520
X20529Y36360
X24129Y36840
X26609Y36680
X29489Y36520
X32369Y36360
X35809Y36840
X38129Y36680
X41009Y36520
X43729Y36360
X47249Y36840
X49569Y36680
X52689Y36520
X55489Y36360
X61363Y37579
X75729Y36520
X78689Y36360
X88929Y39800
X87809Y40280
X86769
X84609Y40760
X81009Y40600
X44049Y41080
X32289
X20849
X16985Y54040
X17785Y54680
X19865Y54200
X20665Y54840
X23065Y54360
X27385Y54440
X28505Y54040
X31305Y54200
X29305Y54680
X32185Y54840
X34585Y54360
X38985Y54520
X41065Y54680
X43145Y54200
X40265Y54040
X44025Y54840
X46105Y54360
X50745Y54520
X52585Y54680
X54665Y54200
X55465Y54840
X57865Y54360
X62185Y54520
X64345Y54680
X66425Y54200
X67225Y54840
X69225Y54360
X73705Y54520
X75785Y54680
X77945Y54200
X78745Y54840
X80745Y54360
X83785Y54520
X85865Y54200
X87225Y54680
X88985Y54360
X90425Y54840
X91625
X93545Y55560
X94091Y56820
X95238Y57019
X95371Y57541
X95025Y58120
X92471Y57541
X92338Y57019
X91191Y56820
X89438Y57019
X89571Y57541
X88291Y56820
X86538Y57019
X86671Y57541
X85391Y56820
X83638Y57019
X83771Y57541
X82491Y56820
X80738Y57019
X79591Y56820
X77838Y57019
X76691Y56820
X74938Y57019
X73791Y56820
X72038Y57019
X70891Y56820
X69138Y57019
X67991Y56820
X66238Y57019
X65091Y56820
X63338Y57019
X62191Y56820
X60438Y57019
X59291Y56820
X57538Y57019
X56391Y56820
X54638Y57019
X53491Y56820
X51838Y57019
X50691Y56820
X48938Y57019
X47791Y56820
X46038Y57019
X44891Y56820
X43038Y57019
X41891Y56820
X40138Y57019
X38991Y56820
X37238Y57019
X36091Y56820
X34338Y57019
X33191Y56820
X31438Y57019
X31571Y57541
X30291Y56820
X28538Y57019
X28671Y57541
X27391Y56820
X25638Y57009
X25771Y57531
X24491Y56810
X22738Y57019
X21591Y56820
X19838Y57019
X18691Y56820
X16938Y57019
X15791Y56820
X14038Y57019
X12891Y56820
X11138Y57019
X9991Y56820
X8238Y57019
X7091Y56820
X5338Y57019
X4191Y56820
X5471Y57541
X8371
X11271
X13705Y58040
X14171Y57541
X17071
X19971
X22871
X22825Y58440
X25305Y58280
X28825Y58760
X31625Y58600
X34471Y58405
X36905Y58280
X37371Y57541
X40271
X43171
X46171
X49071
X51971
X54771
X57671
X60571
X63471
X66371
X69271
X72171
X75071
X77971
X80871
X80825Y58440
X83385Y58280
X85385Y58760
X88345Y58600
X91145Y58440
X78105Y58600
X75305Y58760
X71705Y58280
X69225Y58440
X66345Y58600
X63465Y58760
X60025Y58280
X57705Y58440
X54825Y58600
X52105Y58760
X48585Y58280
X46265Y58440
X43145Y58600
X40345Y58760
X34471Y57541
X20105Y58600
X17145Y58760
X6905Y55320
X8025Y54840
X9065
X11225Y54360
X14825Y54520
X51785Y54040
X63545
X74985
X77949Y99321
X77149Y98681
X75069Y99161
X74269Y98521
X71869Y99001
X67549Y98921
X66429Y99321
X63629Y99161
X65629Y98681
X62749Y98521
X60349Y99001
X55949Y98841
X53869Y98681
X51789Y99161
X54669Y99321
X50909Y98521
X48829Y99001
X44189Y98841
X42349Y98681
X40269Y99161
X39469Y98521
X37069Y99001
X32749Y98841
X30589Y98681
X28509Y99161
X27709Y98521
X25709Y99001
X21229Y98841
X19149Y98681
X16989Y99161
X16189Y98521
X14189Y99001
X11149Y98841
X9069Y99161
X7709Y98681
X5949Y99001
X4509Y98521
X3309
X1389Y97801
X843Y96541
X-304Y96342
X-437Y95820
X-91Y95241
X2463Y95820
X2596Y96342
X3743Y96541
X5496Y96342
X5363Y95820
X6643Y96541
X8396Y96342
X8263Y95820
X9543Y96541
X11296Y96342
X11163Y95820
X12443Y96541
X14196Y96342
X15343Y96541
X17096Y96342
X18243Y96541
X19996Y96342
X21143Y96541
X22896Y96342
X24043Y96541
X25796Y96342
X26943Y96541
X28696Y96342
X29843Y96541
X31596Y96342
X32743Y96541
X34496Y96342
X35643Y96541
X37396Y96342
X38543Y96541
X40296Y96342
X41443Y96541
X43096Y96342
X44243Y96541
X45996Y96342
X47143Y96541
X48896Y96342
X50043Y96541
X51896Y96342
X53043Y96541
X54796Y96342
X55943Y96541
X57696Y96342
X58843Y96541
X60596Y96342
X61743Y96541
X63496Y96342
X63363Y95820
X64643Y96541
X66396Y96342
X66263Y95820
X67543Y96541
X69296Y96352
X69163Y95830
X70443Y96551
X72196Y96342
X73343Y96541
X75096Y96342
X76243Y96541
X77996Y96342
X79143Y96541
X80896Y96342
X82043Y96541
X83796Y96342
X84943Y96541
X86696Y96342
X87843Y96541
X89596Y96342
X90743Y96541
X89463Y95820
X86563
X83663
X81229Y95321
X80763Y95820
X77863
X74963
X72063
X72109Y94921
X69629Y95081
X66109Y94601
X63309Y94761
X60463Y94956
X58029Y95081
X57563Y95820
X54663
X51763
X48763
X45863
X42963
X40163
X37263
X34363
X31463
X28563
X25663
X22763
X19863
X16963
X14063
X14109Y94921
X11549Y95081
X9549Y94601
X6589Y94761
X3789Y94921
X16829Y94761
X19629Y94601
X23229Y95081
X25709Y94921
X28589Y94761
X31469Y94601
X34909Y95081
X37229Y94921
X40109Y94761
X42829Y94601
X46349Y95081
X48669Y94921
X51789Y94761
X54589Y94601
X60463Y95820
X74829Y94761
X77789Y94601
X88029Y98041
X86909Y98521
X85869
X83709Y99001
X80109Y98841
X43149Y99321
X31389
X19949
X16085Y112281
X16885Y112921
X18965Y112441
X19765Y113081
X22165Y112601
X26485Y112681
X27605Y112281
X30405Y112441
X28405Y112921
X31285Y113081
X33685Y112601
X38085Y112761
X40165Y112921
X42245Y112441
X39365Y112281
X43125Y113081
X45205Y112601
X49845Y112761
X51685Y112921
X53765Y112441
X54565Y113081
X56965Y112601
X61285Y112761
X63445Y112921
X65525Y112441
X66325Y113081
X68325Y112601
X72805Y112761
X74885Y112921
X77045Y112441
X77845Y113081
X79845Y112601
X82885Y112761
X84965Y112441
X86325Y112921
X88085Y112601
X89525Y113081
X90725
X92645Y113801
X93191Y115061
X94338Y115260
X94471Y115782
X94125Y116361
X91571Y115782
X91438Y115260
X90291Y115061
X88538Y115260
X88671Y115782
X87391Y115061
X85638Y115260
X85771Y115782
X84491Y115061
X82738Y115260
X82871Y115782
X81591Y115061
X79838Y115260
X78691Y115061
X76938Y115260
X75791Y115061
X74038Y115260
X72891Y115061
X71138Y115260
X69991Y115061
X68238Y115260
X67091Y115061
X65338Y115260
X64191Y115061
X62438Y115260
X61291Y115061
X59538Y115260
X58391Y115061
X56638Y115260
X55491Y115061
X53738Y115260
X52591Y115061
X50938Y115260
X49791Y115061
X48038Y115260
X46891Y115061
X45138Y115260
X43991Y115061
X42138Y115260
X40991Y115061
X39238Y115260
X38091Y115061
X36338Y115260
X35191Y115061
X33438Y115260
X32291Y115061
X30538Y115260
X30671Y115782
X29391Y115061
X27638Y115260
X27771Y115782
X26491Y115061
X24738Y115250
X24871Y115772
X23591Y115051
X21838Y115260
X20691Y115061
X18938Y115260
X17791Y115061
X16038Y115260
X14891Y115061
X13138Y115260
X11991Y115061
X10238Y115260
X9091Y115061
X7338Y115260
X6191Y115061
X4438Y115260
X3291Y115061
X4571Y115782
X7471
X10371
X12805Y116281
X13271Y115782
X16171
X19071
X21971
X21925Y116681
X24405Y116521
X27925Y117001
X30725Y116841
X33571Y116646
X36005Y116521
X36471Y115782
X39371
X42271
X45271
X48171
X51071
X53871
X56771
X59671
X62571
X65471
X68371
X71271
X74171
X77071
X79971
X79925Y116681
X82485Y116521
X84485Y117001
X87445Y116841
X90245Y116681
X77205Y116841
X74405Y117001
X70805Y116521
X68325Y116681
X65445Y116841
X62565Y117001
X59125Y116521
X56805Y116681
X53925Y116841
X51205Y117001
X47685Y116521
X45365Y116681
X42245Y116841
X39445Y117001
X33571Y115782
X19205Y116841
X16245Y117001
X6005Y113561
X7125Y113081
X8165
X10325Y112601
X13925Y112761
X50885Y112281
X62645
X74085
T03
X21649Y39500
X18749
X15849
X12949
X10049
X7149
X4249
X1349
X24549
X27449
X30349
X33249
X36149
X39049
X41949
X44749
X47649
X50549
X53549
X56449
X59349
X62249
X65149
X68049
X70949Y39510
X73849Y39500
X76749
X79649
X82549
X85449
X88349
X91249
X74185Y55620
X77085
X79985
X82885
X85785
X88685
X91585
X94485
X71285
X68385
X65485
X62585
X59685
X56785
X53885
X51085
X48185
X45285
X42285
X39385
X36485
X33585
X30685
X27785
X24885Y55610
X21985Y55620
X19085
X16185
X13285
X10385
X7485
X4585
X20749Y97741
X17849
X14949
X12049
X9149
X6249
X3349
X449
X23649
X26549
X29449
X32349
X35249
X38149
X41049
X43849
X46749
X49649
X52649
X55549
X58449
X61349
X64249
X67149
X70049Y97751
X72949Y97741
X75849
X78749
X81649
X84549
X87449
X90349
X73285Y113861
X76185
X79085
X81985
X84885
X87785
X90685
X93585
X70385
X67485
X64585
X61685
X58785
X55885
X52985
X50185
X47285
X44385
X41385
X38485
X35585
X32685
X29785
X26885
X23985Y113851
X21085Y113861
X18185
X15285
X12385
X9485
X6585
X3685
T04
X81809Y42690
Y43240
X83099Y43840
X85289Y43640
X87489Y43840
X88369
X83944Y44820
X86269Y45140
X85429Y45980
X87529Y46560
X86069Y46720
X85509
X83839Y47880
X84359Y48190
X83819Y48470
X84339Y48820
X14025Y52430
Y51880
X12735Y51280
X10545Y51480
X8345Y51280
X7465
X11890Y50300
X9565Y49980
X10405Y49140
X8305Y48560
X9765Y48400
X10325
X11995Y47240
X11475Y46930
X12015Y46650
X11495Y46300
X80909Y100931
Y101481
X82199Y102081
X84389Y101881
X86589Y102081
X87469
X83044Y103061
X85369Y103381
X84529Y104221
X86629Y104801
X85169Y104961
X84609
X82939Y106121
X83459Y106431
X82919Y106711
X83439Y107061
X13125Y110671
Y110121
X11835Y109521
X9645Y109721
X7445Y109521
X6565
X10990Y108541
X8665Y108221
X9505Y107381
X7405Y106801
X8865Y106641
X9425
X11095Y105481
X10575Y105171
X11115Y104891
X10595Y104541
T05
X88249Y48610
X89249Y48510
X90249Y48610
X91249Y48510
X91919Y44380
X91819Y43380
X91919Y42380
X91819Y41380
X7585Y46510
X6585Y46610
X5585Y46510
X4585Y46610
X3915Y50740
X4015Y51740
X3915Y52740
X4015Y53740
X87349Y106851
X88349Y106751
X89349Y106851
X90349Y106751
X91019Y102621
X90919Y101621
X91019Y100621
X90919Y99621
X6685Y104751
X5685Y104851
X4685Y104751
X3685Y104851
X3015Y108981
X3115Y109981
X3015Y110981
X3115Y111981
T06
X2409Y35600
X2729Y41120
X81829Y47180
X93489Y47480
X93609Y38160
X93425Y59520
X93105Y54000
X14005Y47940
X2345Y47640
X2225Y56960
X1509Y93841
X1829Y99361
X80929Y105421
X92589Y105721
X92709Y96401
X92525Y117761
X92205Y112241
X13105Y106181
X1445Y105881
X1325Y115201
M30
