G75*
G70*
%OFA0B0*%
%FSLAX24Y24*%
%IPPOS*%
%LPD*%
%AMOC8*
5,1,8,0,0,1.08239X$1,22.5*
%
%ADD10R,0.0197X0.0866*%
%ADD11R,0.0472X0.0512*%
%ADD12R,0.0700X0.0900*%
%ADD13R,0.0900X0.0700*%
%ADD14C,0.1200*%
%ADD15R,0.0220X0.0236*%
%ADD16R,0.0394X0.0315*%
%ADD17R,0.0472X0.0984*%
%ADD18R,0.0250X0.0500*%
%ADD19R,0.0591X0.0197*%
%ADD20R,0.0197X0.0591*%
%ADD21R,0.0787X0.0472*%
%ADD22R,0.0433X0.0394*%
%ADD23R,0.0630X0.0157*%
%ADD24R,0.0394X0.1378*%
%ADD25R,0.1378X0.0394*%
%ADD26R,0.0740X0.0740*%
%ADD27C,0.0740*%
%ADD28R,0.0394X0.0433*%
%ADD29R,0.0472X0.0551*%
%ADD30C,0.0560*%
%ADD31C,0.0240*%
%ADD32C,0.0080*%
%ADD33C,0.0475*%
%ADD34C,0.0360*%
%ADD35C,0.0220*%
%ADD36C,0.0200*%
%ADD37C,0.0400*%
%ADD38C,0.0320*%
%ADD39C,0.0160*%
%ADD40C,0.0140*%
%ADD41C,0.0300*%
%ADD42C,0.0510*%
%ADD43C,0.0450*%
%ADD44C,0.0650*%
%ADD45C,0.0500*%
%ADD46C,0.0100*%
%ADD47C,0.0120*%
%ADD48C,0.0070*%
%ADD49C,0.0396*%
%ADD50C,0.0360*%
%ADD51C,0.0250*%
%ADD52C,0.0350*%
%ADD53C,0.0436*%
%ADD54C,0.0260*%
%ADD55C,0.0320*%
%ADD56C,0.0591*%
D10*
G36*
X085753Y019053D02*
X085892Y018914D01*
X085281Y018303D01*
X085142Y018442D01*
X085753Y019053D01*
G37*
G36*
X088569Y019748D02*
X088708Y019609D01*
X088097Y018998D01*
X087958Y019137D01*
X088569Y019748D01*
G37*
G36*
X088219Y020099D02*
X088358Y019960D01*
X087747Y019349D01*
X087608Y019488D01*
X088219Y020099D01*
G37*
G36*
X087865Y020453D02*
X088004Y020314D01*
X087393Y019703D01*
X087254Y019842D01*
X087865Y020453D01*
G37*
G36*
X087512Y020806D02*
X087651Y020667D01*
X087040Y020056D01*
X086901Y020195D01*
X087512Y020806D01*
G37*
G36*
X086106Y018699D02*
X086245Y018560D01*
X085634Y017949D01*
X085495Y018088D01*
X086106Y018699D01*
G37*
G36*
X086460Y018346D02*
X086599Y018207D01*
X085988Y017596D01*
X085849Y017735D01*
X086460Y018346D01*
G37*
G36*
X086813Y017992D02*
X086952Y017853D01*
X086341Y017242D01*
X086202Y017381D01*
X086813Y017992D01*
G37*
D11*
G36*
X089772Y018860D02*
X090105Y018527D01*
X089744Y018166D01*
X089411Y018499D01*
X089772Y018860D01*
G37*
G36*
X089206Y019426D02*
X089539Y019093D01*
X089178Y018732D01*
X088845Y019065D01*
X089206Y019426D01*
G37*
G36*
X083761Y016323D02*
X084094Y016656D01*
X084455Y016295D01*
X084122Y015962D01*
X083761Y016323D01*
G37*
G36*
X083195Y015757D02*
X083528Y016090D01*
X083889Y015729D01*
X083556Y015396D01*
X083195Y015757D01*
G37*
X082585Y015286D03*
X081785Y015286D03*
X070965Y011646D03*
X070165Y011646D03*
X022445Y010706D03*
X021645Y010706D03*
D12*
X074445Y015446D03*
X075645Y015446D03*
X082865Y017566D03*
X084065Y017566D03*
D13*
X081125Y017426D03*
X081125Y018626D03*
X078365Y015166D03*
X078365Y013966D03*
D14*
X077265Y011046D03*
X074265Y011046D03*
X088065Y011046D03*
X091065Y011046D03*
X091065Y017546D03*
X088065Y017546D03*
X077265Y017546D03*
X074265Y017546D03*
D15*
X089113Y012361D03*
X089428Y012361D03*
X089743Y012361D03*
X090057Y012361D03*
X090057Y011571D03*
X089743Y011571D03*
X089428Y011571D03*
X089113Y011571D03*
X092333Y011321D03*
X092648Y011321D03*
X092963Y011321D03*
X093277Y011321D03*
X093277Y010531D03*
X092963Y010531D03*
X092648Y010531D03*
X092333Y010531D03*
X089927Y010001D03*
X089613Y010001D03*
X089298Y010001D03*
X088983Y010001D03*
X087517Y010161D03*
X087203Y010161D03*
X086888Y010161D03*
X086573Y010161D03*
X084337Y010051D03*
X084023Y010051D03*
X083708Y010051D03*
X083393Y010051D03*
X082397Y010251D03*
X082083Y010251D03*
X081768Y010251D03*
X081453Y010251D03*
X083393Y010841D03*
X083708Y010841D03*
X084023Y010841D03*
X084337Y010841D03*
X082397Y011041D03*
X082083Y011041D03*
X081768Y011041D03*
X081453Y011041D03*
X086573Y009371D03*
X086888Y009371D03*
X087203Y009371D03*
X087517Y009371D03*
X088983Y009211D03*
X089298Y009211D03*
X089613Y009211D03*
X089927Y009211D03*
D16*
X019538Y009912D03*
X018554Y010286D03*
X019538Y010660D03*
D17*
X082861Y019703D03*
X083845Y019703D03*
X084829Y019703D03*
D18*
X080099Y018798D03*
X079725Y018798D03*
X079351Y018798D03*
X079351Y017893D03*
X079725Y017893D03*
X080099Y017893D03*
D19*
G36*
X086723Y016533D02*
X086307Y016117D01*
X086169Y016255D01*
X086585Y016671D01*
X086723Y016533D01*
G37*
G36*
X086946Y016310D02*
X086530Y015894D01*
X086392Y016032D01*
X086808Y016448D01*
X086946Y016310D01*
G37*
G36*
X087169Y016087D02*
X086753Y015671D01*
X086615Y015809D01*
X087031Y016225D01*
X087169Y016087D01*
G37*
G36*
X087391Y015865D02*
X086975Y015449D01*
X086837Y015587D01*
X087253Y016003D01*
X087391Y015865D01*
G37*
G36*
X087614Y015642D02*
X087198Y015226D01*
X087060Y015364D01*
X087476Y015780D01*
X087614Y015642D01*
G37*
G36*
X087837Y015419D02*
X087421Y015003D01*
X087283Y015141D01*
X087699Y015557D01*
X087837Y015419D01*
G37*
G36*
X088059Y015197D02*
X087643Y014781D01*
X087505Y014919D01*
X087921Y015335D01*
X088059Y015197D01*
G37*
G36*
X088282Y014974D02*
X087866Y014558D01*
X087728Y014696D01*
X088144Y015112D01*
X088282Y014974D01*
G37*
G36*
X088505Y014751D02*
X088089Y014335D01*
X087951Y014473D01*
X088367Y014889D01*
X088505Y014751D01*
G37*
G36*
X088728Y014528D02*
X088312Y014112D01*
X088174Y014250D01*
X088590Y014666D01*
X088728Y014528D01*
G37*
G36*
X088950Y014306D02*
X088534Y013890D01*
X088396Y014028D01*
X088812Y014444D01*
X088950Y014306D01*
G37*
G36*
X083717Y013081D02*
X083301Y012665D01*
X083163Y012803D01*
X083579Y013219D01*
X083717Y013081D01*
G37*
G36*
X083939Y012858D02*
X083523Y012442D01*
X083385Y012580D01*
X083801Y012996D01*
X083939Y012858D01*
G37*
G36*
X083494Y013304D02*
X083078Y012888D01*
X082940Y013026D01*
X083356Y013442D01*
X083494Y013304D01*
G37*
G36*
X084162Y012635D02*
X083746Y012219D01*
X083608Y012357D01*
X084024Y012773D01*
X084162Y012635D01*
G37*
G36*
X084385Y012413D02*
X083969Y011997D01*
X083831Y012135D01*
X084247Y012551D01*
X084385Y012413D01*
G37*
G36*
X084607Y012190D02*
X084191Y011774D01*
X084053Y011912D01*
X084469Y012328D01*
X084607Y012190D01*
G37*
G36*
X084830Y011967D02*
X084414Y011551D01*
X084276Y011689D01*
X084692Y012105D01*
X084830Y011967D01*
G37*
G36*
X085053Y011745D02*
X084637Y011329D01*
X084499Y011467D01*
X084915Y011883D01*
X085053Y011745D01*
G37*
G36*
X085276Y011522D02*
X084860Y011106D01*
X084722Y011244D01*
X085138Y011660D01*
X085276Y011522D01*
G37*
G36*
X085498Y011299D02*
X085082Y010883D01*
X084944Y011021D01*
X085360Y011437D01*
X085498Y011299D01*
G37*
G36*
X085721Y011076D02*
X085305Y010660D01*
X085167Y010798D01*
X085583Y011214D01*
X085721Y011076D01*
G37*
D20*
G36*
X086723Y010798D02*
X086585Y010660D01*
X086169Y011076D01*
X086307Y011214D01*
X086723Y010798D01*
G37*
G36*
X086946Y011021D02*
X086808Y010883D01*
X086392Y011299D01*
X086530Y011437D01*
X086946Y011021D01*
G37*
G36*
X087169Y011244D02*
X087031Y011106D01*
X086615Y011522D01*
X086753Y011660D01*
X087169Y011244D01*
G37*
G36*
X087391Y011467D02*
X087253Y011329D01*
X086837Y011745D01*
X086975Y011883D01*
X087391Y011467D01*
G37*
G36*
X087614Y011689D02*
X087476Y011551D01*
X087060Y011967D01*
X087198Y012105D01*
X087614Y011689D01*
G37*
G36*
X087837Y011912D02*
X087699Y011774D01*
X087283Y012190D01*
X087421Y012328D01*
X087837Y011912D01*
G37*
G36*
X088059Y012135D02*
X087921Y011997D01*
X087505Y012413D01*
X087643Y012551D01*
X088059Y012135D01*
G37*
G36*
X088282Y012357D02*
X088144Y012219D01*
X087728Y012635D01*
X087866Y012773D01*
X088282Y012357D01*
G37*
G36*
X088505Y012580D02*
X088367Y012442D01*
X087951Y012858D01*
X088089Y012996D01*
X088505Y012580D01*
G37*
G36*
X088728Y012803D02*
X088590Y012665D01*
X088174Y013081D01*
X088312Y013219D01*
X088728Y012803D01*
G37*
G36*
X088950Y013026D02*
X088812Y012888D01*
X088396Y013304D01*
X088534Y013442D01*
X088950Y013026D01*
G37*
G36*
X083717Y014250D02*
X083579Y014112D01*
X083163Y014528D01*
X083301Y014666D01*
X083717Y014250D01*
G37*
G36*
X083494Y014028D02*
X083356Y013890D01*
X082940Y014306D01*
X083078Y014444D01*
X083494Y014028D01*
G37*
G36*
X083939Y014473D02*
X083801Y014335D01*
X083385Y014751D01*
X083523Y014889D01*
X083939Y014473D01*
G37*
G36*
X084162Y014696D02*
X084024Y014558D01*
X083608Y014974D01*
X083746Y015112D01*
X084162Y014696D01*
G37*
G36*
X084385Y014919D02*
X084247Y014781D01*
X083831Y015197D01*
X083969Y015335D01*
X084385Y014919D01*
G37*
G36*
X084607Y015141D02*
X084469Y015003D01*
X084053Y015419D01*
X084191Y015557D01*
X084607Y015141D01*
G37*
G36*
X084830Y015364D02*
X084692Y015226D01*
X084276Y015642D01*
X084414Y015780D01*
X084830Y015364D01*
G37*
G36*
X085053Y015587D02*
X084915Y015449D01*
X084499Y015865D01*
X084637Y016003D01*
X085053Y015587D01*
G37*
G36*
X085276Y015809D02*
X085138Y015671D01*
X084722Y016087D01*
X084860Y016225D01*
X085276Y015809D01*
G37*
G36*
X085498Y016032D02*
X085360Y015894D01*
X084944Y016310D01*
X085082Y016448D01*
X085498Y016032D01*
G37*
G36*
X085721Y016255D02*
X085583Y016117D01*
X085167Y016533D01*
X085305Y016671D01*
X085721Y016255D01*
G37*
D21*
X078465Y017756D03*
X078465Y019016D03*
D22*
X079390Y019706D03*
X080060Y019706D03*
X079820Y016906D03*
X079150Y016906D03*
D23*
X079464Y014161D03*
X079464Y013905D03*
X079464Y013649D03*
X079464Y013393D03*
X079464Y013137D03*
X079464Y012881D03*
X079464Y012626D03*
X079464Y012370D03*
X081787Y012370D03*
X081787Y012626D03*
X081787Y012881D03*
X081787Y013137D03*
X081787Y013393D03*
X081787Y013649D03*
X081787Y013905D03*
X081787Y014161D03*
D24*
X071516Y012772D03*
X070925Y012772D03*
X070335Y012772D03*
X069744Y012772D03*
X069154Y012772D03*
X068563Y012772D03*
X067973Y012772D03*
X067382Y012772D03*
X066791Y012772D03*
X066201Y012772D03*
X065610Y012772D03*
X065020Y012772D03*
X064429Y012772D03*
X064429Y018678D03*
X065020Y018678D03*
X065610Y018678D03*
X066201Y018678D03*
X066791Y018678D03*
X067382Y018678D03*
X067973Y018678D03*
X068563Y018678D03*
X069154Y018678D03*
X069744Y018678D03*
X070335Y018678D03*
X070925Y018678D03*
X071516Y018678D03*
D25*
X072642Y017792D03*
X072642Y017201D03*
X072642Y016611D03*
X072642Y016020D03*
X072642Y015430D03*
X072642Y014839D03*
X072642Y014249D03*
X072642Y013658D03*
D26*
X093135Y015366D03*
X088445Y021046D03*
D27*
X089445Y020946D03*
X090445Y021046D03*
X091445Y020946D03*
X092445Y021046D03*
X093035Y014366D03*
X093135Y013366D03*
X093035Y012366D03*
D28*
X082445Y013521D03*
X082445Y014190D03*
D29*
X081405Y007106D03*
X080735Y007106D03*
X078445Y007106D03*
X077775Y007106D03*
X075485Y007106D03*
X074815Y007106D03*
X072525Y007106D03*
X071855Y007106D03*
X069565Y007106D03*
X068895Y007106D03*
X066605Y007106D03*
X065935Y007106D03*
X063645Y007106D03*
X062975Y007106D03*
X060685Y007106D03*
X060015Y007106D03*
X057725Y007106D03*
X057055Y007106D03*
X054765Y007106D03*
X054095Y007106D03*
X051885Y007106D03*
X051215Y007106D03*
X049005Y007106D03*
X048335Y007106D03*
X046125Y007106D03*
X045455Y007106D03*
X043245Y007106D03*
X042575Y007106D03*
X040365Y007106D03*
X039695Y007106D03*
X037405Y007106D03*
X036735Y007106D03*
X034445Y007106D03*
X033775Y007106D03*
X031485Y007106D03*
X030815Y007106D03*
X028525Y007106D03*
X027855Y007106D03*
X025565Y007106D03*
X024895Y007106D03*
X022605Y007106D03*
X021935Y007106D03*
X019645Y007106D03*
X018975Y007106D03*
X016685Y007106D03*
X016015Y007106D03*
X013725Y007106D03*
X013055Y007106D03*
X010765Y007106D03*
X010095Y007106D03*
X007805Y007106D03*
X007135Y007106D03*
X004845Y007106D03*
X004175Y007106D03*
X001885Y007106D03*
X001215Y007106D03*
X001215Y005866D03*
X001885Y005866D03*
X004175Y005866D03*
X004845Y005866D03*
X007135Y005866D03*
X007805Y005866D03*
X010095Y005866D03*
X010765Y005866D03*
X013055Y005866D03*
X013725Y005866D03*
X016015Y005866D03*
X016685Y005866D03*
X018975Y005866D03*
X019645Y005866D03*
X021935Y005866D03*
X022605Y005866D03*
X024895Y005866D03*
X025565Y005866D03*
X027855Y005866D03*
X028525Y005866D03*
X030815Y005866D03*
X031485Y005866D03*
X033775Y005866D03*
X034445Y005866D03*
X036735Y005866D03*
X037405Y005866D03*
X039695Y005866D03*
X040365Y005866D03*
X042575Y005866D03*
X043245Y005866D03*
X045455Y005866D03*
X046125Y005866D03*
X048335Y005866D03*
X049005Y005866D03*
X051215Y005866D03*
X051885Y005866D03*
X054095Y005866D03*
X054765Y005866D03*
X057055Y005866D03*
X057725Y005866D03*
X060015Y005866D03*
X060685Y005866D03*
X062975Y005866D03*
X063645Y005866D03*
X065935Y005866D03*
X066605Y005866D03*
X068895Y005866D03*
X069565Y005866D03*
X071855Y005866D03*
X072525Y005866D03*
X074815Y005866D03*
X075485Y005866D03*
X077775Y005866D03*
X078445Y005866D03*
X080735Y005866D03*
X081405Y005866D03*
X083695Y005866D03*
X084365Y005866D03*
X086655Y005866D03*
X087325Y005866D03*
X089615Y005866D03*
X090285Y005866D03*
X092575Y005866D03*
X093245Y005866D03*
X093245Y007106D03*
X092575Y007106D03*
X090285Y007106D03*
X089615Y007106D03*
X087325Y007106D03*
X086655Y007106D03*
X084365Y007106D03*
X083695Y007106D03*
D30*
X084045Y008086D03*
X081085Y008086D03*
X078125Y008086D03*
X075165Y008086D03*
X072205Y008086D03*
X069245Y008086D03*
X066285Y008086D03*
X063325Y008086D03*
X060365Y008086D03*
X057405Y008086D03*
X054445Y008086D03*
X051565Y008086D03*
X048685Y008086D03*
X045805Y008086D03*
X042925Y008086D03*
X040045Y008086D03*
X037085Y008086D03*
X034125Y008086D03*
X031165Y008086D03*
X028205Y008086D03*
X025245Y008086D03*
X022285Y008086D03*
X019325Y008086D03*
X016365Y008086D03*
X013405Y008086D03*
X010445Y008086D03*
X007485Y008086D03*
X004525Y008086D03*
X001565Y008086D03*
X087005Y008086D03*
X089965Y008086D03*
X092925Y008086D03*
D31*
X088065Y011046D02*
X088065Y011991D01*
X087782Y012274D01*
X079214Y017756D02*
X078465Y017756D01*
X064845Y020206D02*
X064429Y019790D01*
X064429Y018678D01*
X019538Y009912D02*
X019471Y009846D01*
X018325Y009846D01*
X018085Y010086D01*
X018085Y010726D01*
X018565Y010497D02*
X018565Y010286D01*
D32*
X010165Y003366D02*
X009525Y004006D01*
X010725Y003766D02*
X010885Y003926D01*
X012245Y003926D01*
X011685Y003606D02*
X014485Y003606D01*
X014885Y004006D01*
X015925Y002966D01*
X026565Y002966D01*
X026165Y003126D02*
X026485Y003446D01*
X026645Y003446D01*
X026965Y003126D01*
X027845Y003126D01*
X027925Y003046D01*
X029525Y003046D01*
X029605Y003126D01*
X034405Y003126D01*
X033605Y003446D02*
X033445Y003286D01*
X029525Y003286D01*
X029445Y003206D01*
X028005Y003206D01*
X027925Y003286D01*
X027045Y003286D01*
X026725Y003606D01*
X026405Y003606D01*
X026085Y003286D01*
X024485Y003286D01*
X024325Y003446D01*
X022405Y003446D01*
X022245Y003606D01*
X021445Y003606D01*
X021285Y003446D01*
X020965Y003766D02*
X020805Y003606D01*
X020965Y003766D02*
X022325Y003766D01*
X022485Y003606D01*
X024405Y003606D01*
X024565Y003446D01*
X026005Y003446D01*
X026325Y003766D01*
X026805Y003766D01*
X027125Y003446D01*
X028005Y003446D01*
X028085Y003366D01*
X029365Y003366D01*
X029445Y003446D01*
X032725Y003446D01*
X032885Y003606D01*
X033045Y003766D01*
X034325Y003766D01*
X034485Y003606D01*
X036005Y003606D01*
X036245Y003366D01*
X037285Y003366D01*
X037365Y003446D01*
X038085Y003446D01*
X038325Y003206D01*
X039125Y003206D01*
X039205Y003286D01*
X040245Y003286D01*
X040325Y003206D01*
X040885Y003206D01*
X040965Y003286D01*
X044965Y003286D01*
X045125Y003446D01*
X045125Y003606D01*
X045925Y003606D01*
X046085Y003446D01*
X047125Y003446D01*
X047285Y003286D01*
X049765Y003286D01*
X049925Y003126D01*
X055445Y003126D01*
X055765Y003446D01*
X056405Y003446D01*
X056565Y003286D01*
X056725Y003446D01*
X059125Y003446D01*
X059445Y003126D01*
X060005Y003126D01*
X060405Y002726D01*
X061125Y002726D01*
X061525Y003126D01*
X064165Y003126D01*
X064325Y002966D01*
X064885Y002966D01*
X065045Y002806D01*
X067445Y002806D01*
X067925Y003286D01*
X068085Y003446D01*
X070565Y003446D01*
X070885Y003126D01*
X076405Y003126D01*
X076645Y002886D01*
X077045Y002886D01*
X077285Y003126D01*
X080005Y003126D01*
X080165Y003286D01*
X080325Y003446D01*
X081045Y003446D01*
X081365Y003126D01*
X084485Y003126D01*
X084885Y003526D01*
X085365Y003526D01*
X085605Y003766D01*
X086485Y003766D01*
X086565Y003846D01*
X087365Y003846D01*
X087685Y004166D01*
X087285Y004406D02*
X086885Y004006D01*
X086485Y004006D01*
X086405Y003926D01*
X085525Y003926D01*
X085285Y003686D01*
X084805Y003686D01*
X084405Y003286D01*
X082565Y003286D01*
X082405Y003446D01*
X081285Y003446D01*
X081125Y003606D01*
X079925Y003606D01*
X079605Y003286D01*
X076885Y003286D01*
X076805Y003366D01*
X076725Y003286D01*
X070965Y003286D01*
X070645Y003606D01*
X067765Y003606D01*
X067125Y002966D01*
X065525Y002966D01*
X065365Y003126D01*
X064405Y003126D01*
X064245Y003286D01*
X061445Y003286D01*
X061045Y002886D01*
X060485Y002886D01*
X060085Y003286D01*
X059525Y003286D01*
X059205Y003606D01*
X055365Y003606D01*
X055205Y003446D01*
X055045Y003286D01*
X050005Y003286D01*
X049845Y003446D01*
X047365Y003446D01*
X047205Y003606D01*
X046165Y003606D01*
X046005Y003766D01*
X044565Y003766D01*
X044405Y003606D01*
X044245Y003446D01*
X040885Y003446D01*
X040805Y003366D01*
X040405Y003366D01*
X040325Y003446D01*
X039125Y003446D01*
X039045Y003366D01*
X038405Y003366D01*
X038165Y003606D01*
X037285Y003606D01*
X037205Y003526D01*
X036325Y003526D01*
X036085Y003766D01*
X034565Y003766D01*
X034405Y003926D01*
X032645Y003926D01*
X032325Y003606D01*
X029605Y003606D01*
X029445Y003766D01*
X029125Y003766D01*
X028885Y003526D01*
X028165Y003526D01*
X028085Y003606D01*
X027205Y003606D01*
X026885Y003926D01*
X026245Y003926D01*
X025925Y003606D01*
X024645Y003606D01*
X024485Y003766D01*
X022565Y003766D01*
X022405Y003926D01*
X020645Y003926D01*
X020325Y003606D01*
X017925Y003606D01*
X017605Y003926D01*
X017205Y003926D01*
X017205Y003766D01*
X017685Y004086D02*
X018005Y003766D01*
X020245Y003766D01*
X020565Y004086D01*
X022485Y004086D01*
X022645Y003926D01*
X024565Y003926D01*
X024725Y003766D01*
X025845Y003766D01*
X026165Y004086D01*
X027045Y004086D01*
X027365Y003766D01*
X028325Y003766D01*
X028485Y003926D01*
X028485Y004086D01*
X029365Y004086D01*
X029685Y003766D01*
X032245Y003766D01*
X032565Y004086D01*
X034485Y004086D01*
X034645Y003926D01*
X036165Y003926D01*
X036405Y003686D01*
X037125Y003686D01*
X037205Y003766D01*
X038245Y003766D01*
X038485Y003526D01*
X038965Y003526D01*
X039045Y003606D01*
X040405Y003606D01*
X040565Y003766D01*
X041125Y003766D01*
X041285Y003606D01*
X043925Y003606D01*
X044245Y003926D01*
X046085Y003926D01*
X046245Y003766D01*
X047285Y003766D01*
X047445Y003606D01*
X049925Y003606D01*
X050085Y003446D01*
X052885Y003446D01*
X053045Y003606D01*
X053285Y003606D01*
X053445Y003446D01*
X054725Y003446D01*
X055045Y003766D01*
X059285Y003766D01*
X059605Y003446D01*
X060165Y003446D01*
X060565Y003046D01*
X060965Y003046D01*
X061365Y003446D01*
X064725Y003446D01*
X064805Y003526D01*
X065125Y003526D01*
X065205Y003446D01*
X067365Y003446D01*
X067685Y003766D01*
X070725Y003766D01*
X071045Y003446D01*
X076085Y003446D01*
X076245Y003606D01*
X076405Y003606D01*
X076565Y003766D01*
X076885Y003766D01*
X077205Y003446D01*
X079525Y003446D01*
X079845Y003766D01*
X081205Y003766D01*
X081365Y003606D01*
X082485Y003606D01*
X082645Y003446D01*
X084325Y003446D01*
X084725Y003846D01*
X085205Y003846D01*
X085445Y004086D01*
X086325Y004086D01*
X086645Y004406D01*
X085925Y004406D02*
X085765Y004566D01*
X082725Y004566D01*
X082565Y004406D01*
X081765Y004406D01*
X081605Y004566D01*
X079445Y004566D01*
X079125Y004246D01*
X077605Y004246D01*
X077285Y004566D01*
X076005Y004566D01*
X075685Y004246D01*
X075365Y004246D01*
X075045Y004566D01*
X074965Y004566D01*
X074805Y004406D01*
X074645Y004566D01*
X067285Y004566D01*
X066965Y004246D01*
X065605Y004246D01*
X065285Y004566D01*
X064165Y004566D01*
X063845Y004246D01*
X063125Y004246D01*
X062965Y004406D01*
X062805Y004566D01*
X054645Y004566D01*
X054325Y004246D01*
X053845Y004246D01*
X053525Y004566D01*
X052565Y004566D01*
X052245Y004246D01*
X051765Y004246D01*
X051605Y004406D01*
X051125Y004406D01*
X050965Y004566D01*
X047525Y004566D01*
X047365Y004406D01*
X046565Y004406D01*
X046405Y004566D01*
X043925Y004566D01*
X043605Y004246D01*
X041605Y004246D01*
X041285Y004566D01*
X039845Y004566D01*
X039685Y004406D01*
X039525Y004566D01*
X035845Y004566D01*
X035685Y004406D01*
X034885Y004406D01*
X034725Y004566D01*
X032325Y004566D01*
X032005Y004246D01*
X029925Y004246D01*
X029605Y004566D01*
X028005Y004566D01*
X027845Y004406D01*
X027765Y004406D01*
X027605Y004566D01*
X024645Y004566D01*
X024485Y004406D01*
X022885Y004406D01*
X022725Y004566D01*
X020325Y004566D01*
X020005Y004246D01*
X018245Y004246D01*
X017925Y004566D01*
X016245Y004566D01*
X016085Y004406D01*
X015925Y004406D01*
X015765Y004566D01*
X015285Y004566D01*
X014965Y004886D01*
X014805Y004886D01*
X014485Y004566D01*
X011045Y004566D01*
X010885Y004726D01*
X004965Y004726D01*
X004175Y005516D01*
X004175Y005866D01*
X004845Y005866D02*
X004845Y005726D01*
X004845Y005866D02*
X004845Y005086D01*
X005045Y004886D01*
X010965Y004886D01*
X011125Y004726D01*
X014405Y004726D01*
X014725Y005046D01*
X015045Y005046D01*
X015365Y004726D01*
X018245Y004726D01*
X018405Y004566D01*
X018405Y004726D01*
X018725Y004406D01*
X019925Y004406D01*
X020245Y004726D01*
X022805Y004726D01*
X022965Y004566D01*
X024405Y004566D01*
X024565Y004726D01*
X029925Y004726D01*
X030085Y004566D01*
X030405Y004566D01*
X030565Y004406D01*
X031925Y004406D01*
X032245Y004726D01*
X034805Y004726D01*
X034965Y004566D01*
X035605Y004566D01*
X035765Y004726D01*
X041685Y004726D01*
X041845Y004566D01*
X042165Y004566D01*
X042325Y004406D01*
X043525Y004406D01*
X043845Y004726D01*
X046485Y004726D01*
X046645Y004566D01*
X047285Y004566D01*
X047445Y004726D01*
X051925Y004726D01*
X052085Y004566D01*
X052245Y004726D01*
X053605Y004726D01*
X053925Y004406D01*
X054245Y004406D01*
X054565Y004726D01*
X063525Y004726D01*
X063685Y004566D01*
X063845Y004726D01*
X065365Y004726D01*
X065685Y004406D01*
X066885Y004406D01*
X067205Y004726D01*
X075365Y004726D01*
X075525Y004566D01*
X075685Y004726D01*
X077365Y004726D01*
X077685Y004406D01*
X079045Y004406D01*
X079365Y004726D01*
X081685Y004726D01*
X081845Y004566D01*
X082485Y004566D01*
X082645Y004726D01*
X087765Y004726D01*
X087925Y004566D01*
X088485Y004886D02*
X082565Y004886D01*
X082405Y004726D01*
X081925Y004726D01*
X081765Y004886D01*
X079285Y004886D01*
X078965Y004566D01*
X078005Y004566D01*
X077845Y004726D01*
X077685Y004886D01*
X067125Y004886D01*
X066805Y004566D01*
X066485Y004566D01*
X066325Y004726D01*
X065925Y004726D01*
X065765Y004886D01*
X054245Y004886D01*
X054085Y004726D01*
X053925Y004886D01*
X047365Y004886D01*
X047205Y004726D01*
X046725Y004726D01*
X046565Y004886D01*
X043765Y004886D01*
X043445Y004566D01*
X043125Y004566D01*
X042965Y004726D01*
X042565Y004726D01*
X042405Y004886D01*
X035685Y004886D01*
X035525Y004726D01*
X035045Y004726D01*
X034885Y004886D01*
X032165Y004886D01*
X031845Y004566D01*
X031445Y004566D01*
X031285Y004726D01*
X030805Y004726D01*
X030645Y004886D01*
X024485Y004886D01*
X024325Y004726D01*
X023045Y004726D01*
X022885Y004886D01*
X020165Y004886D01*
X019845Y004566D01*
X019525Y004566D01*
X019365Y004726D01*
X018965Y004726D01*
X018805Y004886D01*
X015445Y004886D01*
X015125Y005206D01*
X014645Y005206D01*
X014325Y004886D01*
X011205Y004886D01*
X011045Y005046D01*
X007765Y005046D01*
X007135Y005676D01*
X007135Y005866D01*
X007805Y005866D02*
X009185Y005866D01*
X009845Y005206D01*
X011125Y005206D01*
X011285Y005046D01*
X014245Y005046D01*
X014565Y005366D01*
X015205Y005366D01*
X015525Y005046D01*
X019525Y005046D01*
X019685Y004886D01*
X019845Y005046D01*
X022965Y005046D01*
X023125Y004886D01*
X024245Y004886D01*
X024405Y005046D01*
X031445Y005046D01*
X031605Y004886D01*
X031765Y005046D01*
X034965Y005046D01*
X035125Y004886D01*
X035445Y004886D01*
X035605Y005046D01*
X043125Y005046D01*
X043285Y004886D01*
X043445Y005046D01*
X046645Y005046D01*
X046805Y004886D01*
X047125Y004886D01*
X047285Y005046D01*
X056005Y005046D01*
X056165Y005206D01*
X056325Y005046D01*
X066485Y005046D01*
X066645Y004886D01*
X066805Y005046D01*
X078645Y005046D01*
X078805Y004886D01*
X078965Y005046D01*
X081845Y005046D01*
X082005Y004886D01*
X082325Y004886D01*
X082485Y005046D01*
X090565Y005046D01*
X090725Y004886D01*
X091045Y005046D02*
X090885Y005206D01*
X082165Y005206D01*
X070805Y005206D01*
X070645Y005366D01*
X070485Y005366D01*
X070245Y005366D01*
X070085Y005206D01*
X059525Y005206D01*
X059125Y005606D01*
X058885Y005606D01*
X058725Y005446D01*
X058405Y005446D01*
X058165Y005206D01*
X056725Y005206D01*
X056405Y005526D01*
X055925Y005526D01*
X055605Y005206D01*
X046965Y005206D01*
X035285Y005206D01*
X023445Y005206D01*
X015605Y005206D01*
X015285Y005526D01*
X014485Y005526D01*
X014165Y005206D01*
X011365Y005206D01*
X011205Y005366D01*
X010245Y005366D01*
X010095Y005516D01*
X010095Y005866D01*
X010765Y005866D02*
X011505Y005866D01*
X012005Y005366D01*
X014085Y005366D01*
X014405Y005686D01*
X015365Y005686D01*
X015685Y005366D01*
X023045Y005366D01*
X023445Y005766D01*
X023345Y005866D01*
X022605Y005866D01*
X021935Y005866D02*
X021905Y006026D01*
X021685Y006246D01*
X020805Y006246D01*
X020805Y005686D02*
X020085Y006406D01*
X018325Y006406D01*
X018245Y006326D01*
X017205Y006326D01*
X017045Y006486D01*
X012085Y006486D01*
X011685Y006086D01*
X012325Y005766D02*
X012425Y005866D01*
X013055Y005866D01*
X013725Y005866D02*
X014385Y005866D01*
X014485Y006006D01*
X015205Y006086D02*
X015465Y005866D01*
X016015Y005866D01*
X016685Y005866D02*
X017425Y005866D01*
X017525Y005766D01*
X018165Y005846D02*
X018185Y005866D01*
X018975Y005866D01*
X019645Y005866D02*
X019985Y005866D01*
X020165Y005686D01*
X020805Y005686D02*
X021045Y005686D01*
X021125Y005766D01*
X023445Y005766D02*
X023845Y005366D01*
X034885Y005366D01*
X035285Y005766D01*
X035185Y005866D01*
X034445Y005866D01*
X033775Y005866D02*
X033585Y005866D01*
X033365Y005846D01*
X033045Y005846D01*
X032005Y005686D02*
X031825Y005866D01*
X031485Y005866D01*
X030815Y005866D02*
X030025Y005866D01*
X029925Y005766D01*
X029285Y005686D02*
X029105Y005866D01*
X028525Y005866D01*
X027855Y005866D02*
X027305Y005866D01*
X027125Y005686D01*
X026325Y005686D02*
X026145Y005866D01*
X025565Y005866D01*
X024895Y005866D02*
X024425Y005866D01*
X024325Y005766D01*
X026565Y006086D02*
X026965Y006486D01*
X034885Y006486D01*
X035205Y006166D01*
X035605Y006166D01*
X035845Y006406D01*
X035845Y007206D01*
X036245Y007446D02*
X036085Y007606D01*
X035525Y007606D01*
X035125Y007206D01*
X034445Y007106D02*
X035685Y008346D01*
X036245Y008966D01*
X032965Y008966D01*
X032645Y009286D01*
X032245Y009286D01*
X031925Y008966D01*
X024485Y008966D01*
X023765Y008266D01*
X022605Y007106D01*
X021525Y006646D02*
X023845Y006646D01*
X035365Y006646D01*
X035445Y006566D01*
X036245Y006646D02*
X036405Y006486D01*
X037685Y006486D01*
X038005Y006166D01*
X038565Y006166D01*
X038885Y006486D01*
X040645Y006486D01*
X040965Y006166D01*
X041285Y006166D01*
X041525Y006406D01*
X044005Y006406D01*
X044085Y006486D01*
X046565Y006486D01*
X046725Y006646D01*
X047445Y006646D01*
X047425Y007106D02*
X046125Y007106D01*
X047425Y007106D02*
X047965Y007646D01*
X047965Y008966D01*
X048005Y008966D01*
X050085Y008646D02*
X050085Y008186D01*
X049005Y007106D01*
X050245Y007046D02*
X050245Y007846D01*
X051885Y007166D02*
X052245Y007526D01*
X052245Y008326D01*
X052725Y008806D01*
X053125Y008966D02*
X052725Y009366D01*
X052565Y009366D01*
X052165Y008966D01*
X044405Y008966D01*
X044165Y009206D01*
X044005Y009206D01*
X043765Y008966D01*
X036245Y008966D01*
X033925Y009446D02*
X033605Y009766D01*
X032005Y009766D01*
X031685Y009446D01*
X030405Y009446D01*
X030085Y009766D01*
X029605Y009766D01*
X029285Y009446D01*
X026725Y009446D01*
X026725Y009606D01*
X026725Y009446D02*
X021845Y009446D01*
X021445Y009846D01*
X020165Y009846D01*
X019765Y009446D01*
X018085Y009446D01*
X017765Y009766D01*
X017445Y009766D01*
X017125Y009446D01*
X014805Y009446D01*
X014805Y009606D01*
X014805Y009446D02*
X008405Y009446D01*
X007925Y008966D01*
X005765Y008966D01*
X005365Y008566D01*
X004245Y008566D01*
X003605Y007926D01*
X003605Y006806D01*
X003445Y006646D01*
X002345Y006646D01*
X001885Y007106D01*
X003125Y006966D02*
X003125Y007926D01*
X004945Y007106D02*
X005285Y007446D01*
X005285Y008246D01*
X005845Y008806D01*
X008005Y008806D01*
X008485Y009286D01*
X017605Y009286D01*
X017605Y009446D01*
X017605Y009286D02*
X019845Y009286D01*
X020245Y009686D01*
X021365Y009686D01*
X021765Y009286D01*
X029845Y009286D01*
X029845Y009446D01*
X029845Y009286D02*
X031765Y009286D01*
X032085Y009606D01*
X033525Y009606D01*
X033845Y009286D01*
X042005Y009286D01*
X042005Y009446D01*
X042005Y009286D02*
X043605Y009286D01*
X044005Y009686D01*
X044885Y009686D01*
X045285Y009286D01*
X052005Y009286D01*
X052405Y009686D01*
X053205Y009686D01*
X053365Y009526D01*
X053365Y009446D01*
X053365Y009286D01*
X055205Y009286D01*
X055525Y009606D01*
X056405Y009606D01*
X056725Y009286D01*
X064645Y009286D01*
X064805Y009446D01*
X064965Y009286D01*
X067205Y009286D01*
X067525Y009606D01*
X068085Y009606D01*
X068325Y009366D01*
X068645Y009366D01*
X069085Y009806D01*
X071165Y009806D01*
X072085Y008886D01*
X072245Y008886D01*
X072685Y009326D01*
X073205Y009326D01*
X073525Y009646D01*
X074325Y009646D01*
X074325Y009166D01*
X074485Y009006D01*
X074805Y009006D01*
X075125Y009326D01*
X075685Y009886D01*
X077765Y009886D01*
X078325Y009326D01*
X080285Y009326D01*
X080485Y009126D01*
X081125Y009126D01*
X081965Y008286D01*
X081965Y006926D01*
X082085Y006806D01*
X082965Y006806D01*
X082965Y007646D01*
X083125Y007806D01*
X083125Y008246D01*
X083765Y008886D01*
X084405Y008886D01*
X084765Y008526D01*
X084765Y008246D01*
X085445Y007566D01*
X085885Y007566D01*
X086285Y007966D01*
X086285Y008486D01*
X086685Y008886D01*
X087365Y008886D01*
X088085Y008166D01*
X088485Y008166D01*
X089298Y008978D01*
X089605Y008926D02*
X089613Y008918D01*
X089605Y008926D02*
X090085Y008926D01*
X091125Y007886D01*
X091405Y007886D01*
X091805Y008006D02*
X091805Y008566D01*
X091125Y009246D01*
X091125Y009726D01*
X091085Y009766D01*
X090605Y009766D01*
X089425Y010926D01*
X089205Y010926D01*
X089113Y011018D01*
X089113Y011098D01*
X089125Y011086D01*
X089428Y011188D02*
X089445Y011166D01*
X090685Y009926D01*
X091165Y009926D01*
X091285Y009806D01*
X091285Y009326D01*
X091885Y008726D01*
X093165Y008726D01*
X093545Y008346D01*
X093545Y007606D01*
X093645Y007506D01*
X093645Y007006D01*
X094005Y006646D01*
X093245Y007106D02*
X093245Y007586D01*
X093365Y007706D01*
X093365Y008286D01*
X093125Y008526D01*
X092645Y008526D01*
X092405Y008286D01*
X092405Y008046D01*
X091925Y007606D01*
X091085Y007606D01*
X090245Y008486D01*
X089925Y008486D01*
X089925Y008606D01*
X089925Y008486D02*
X089685Y008486D01*
X088805Y007606D01*
X088165Y007606D01*
X087205Y008566D01*
X086845Y008566D01*
X086605Y008326D01*
X086605Y007806D01*
X085885Y007086D01*
X085445Y007086D01*
X084445Y008086D01*
X084445Y008366D01*
X084245Y008566D01*
X083925Y008566D01*
X083445Y008086D01*
X083445Y007646D01*
X083285Y007486D01*
X083285Y006486D01*
X081845Y006486D01*
X081605Y006726D01*
X081605Y007046D01*
X081605Y008166D01*
X081205Y008566D01*
X080005Y008566D01*
X079605Y008966D01*
X078205Y008966D01*
X077605Y009566D01*
X076045Y009566D01*
X075165Y008686D01*
X074325Y008686D01*
X074005Y009006D01*
X074005Y009326D01*
X073685Y009326D01*
X073365Y009006D01*
X072845Y009006D01*
X072405Y008566D01*
X071925Y008566D01*
X070885Y007526D01*
X069985Y007526D01*
X069565Y007106D01*
X070005Y007046D02*
X070325Y007366D01*
X070645Y007366D01*
X070885Y007126D01*
X070885Y006686D01*
X071045Y006526D01*
X070485Y006966D02*
X070005Y006486D01*
X068165Y006486D01*
X068005Y006326D01*
X068005Y006206D01*
X067805Y006006D01*
X067365Y006006D01*
X067365Y006326D01*
X067205Y006486D01*
X065605Y006486D01*
X065285Y006806D01*
X064405Y006806D01*
X064325Y006726D01*
X065045Y006406D02*
X065545Y005866D01*
X065935Y005866D01*
X066605Y005866D02*
X067025Y005866D01*
X067205Y005686D01*
X068085Y005846D02*
X068225Y005866D01*
X068895Y005866D01*
X069565Y005866D02*
X069625Y005926D01*
X070085Y005926D01*
X070245Y005766D01*
X070245Y005686D01*
X069925Y005366D01*
X059605Y005366D01*
X059205Y005766D01*
X058485Y005766D01*
X058385Y005866D01*
X057725Y005866D01*
X058085Y005366D02*
X058485Y005766D01*
X059605Y006086D02*
X059845Y005846D01*
X059995Y005846D01*
X060015Y005866D01*
X059605Y006086D02*
X059125Y006086D01*
X060685Y005866D02*
X061345Y005866D01*
X061445Y005766D01*
X062245Y005766D02*
X062345Y005866D01*
X062975Y005866D01*
X063645Y005866D02*
X064225Y005866D01*
X064325Y005766D01*
X062165Y006406D02*
X061765Y006806D01*
X061765Y007606D01*
X061765Y008186D02*
X060685Y007106D01*
X058805Y008186D02*
X057725Y007106D01*
X055925Y006886D02*
X055925Y008246D01*
X055685Y008726D02*
X055205Y008246D01*
X055205Y007526D01*
X054785Y007106D01*
X054765Y007106D01*
X052965Y006566D02*
X052885Y008086D01*
X053125Y008966D02*
X055365Y008966D01*
X055525Y009126D01*
X055925Y009126D01*
X056085Y008966D01*
X059765Y008966D01*
X058985Y008186D01*
X058805Y008186D01*
X059765Y008966D02*
X068005Y008966D01*
X068085Y009046D01*
X068885Y009046D01*
X069325Y009486D01*
X071005Y009486D01*
X071925Y008566D01*
X072005Y008726D02*
X072325Y008726D01*
X072765Y009166D01*
X073285Y009166D01*
X073605Y009486D01*
X074165Y009486D01*
X074165Y009086D01*
X074405Y008846D01*
X075085Y008846D01*
X075965Y009726D01*
X077685Y009726D01*
X078245Y009166D01*
X079805Y009166D01*
X080005Y008966D01*
X081045Y008966D01*
X081805Y008206D01*
X081805Y006766D01*
X081925Y006646D01*
X083125Y006646D01*
X083125Y007566D01*
X083285Y007726D01*
X083285Y008166D01*
X083845Y008726D01*
X084325Y008726D01*
X084605Y008446D01*
X084605Y008166D01*
X085385Y007386D01*
X085945Y007386D01*
X086445Y007886D01*
X086445Y008406D01*
X086765Y008726D01*
X087285Y008726D01*
X088245Y007766D01*
X088725Y007766D01*
X089605Y008646D01*
X088983Y008943D02*
X088545Y008506D01*
X088205Y008506D01*
X087965Y008746D01*
X088085Y009126D02*
X088385Y008826D01*
X088085Y009126D02*
X087285Y009126D01*
X087203Y009208D01*
X087203Y009371D01*
X087517Y009371D02*
X087523Y009366D01*
X088325Y009766D02*
X088885Y010326D01*
X089205Y010326D01*
X089245Y010286D01*
X089325Y010486D02*
X089565Y010246D01*
X089565Y010008D02*
X089613Y010001D01*
X089885Y010003D02*
X089927Y010001D01*
X089885Y010186D02*
X089425Y010646D01*
X088845Y010646D01*
X088845Y011446D01*
X088445Y011846D01*
X088329Y012144D02*
X088305Y012144D01*
X088302Y012150D02*
X088308Y012135D01*
X088381Y012166D01*
X088442Y012166D01*
X088327Y012281D01*
X088301Y012281D01*
X087789Y012792D01*
X087789Y012925D01*
X087911Y013046D01*
X087901Y013046D01*
X087784Y013094D01*
X087694Y013184D01*
X087645Y013302D01*
X087645Y013429D01*
X087694Y013547D01*
X087765Y013618D01*
X087765Y013843D01*
X087602Y014006D01*
X087042Y014006D01*
X086925Y014123D01*
X086842Y014206D01*
X086741Y014206D01*
X086624Y014254D01*
X086534Y014344D01*
X086485Y014462D01*
X086485Y014570D01*
X086453Y014493D01*
X086358Y014397D01*
X086233Y014346D01*
X086097Y014346D01*
X085972Y014397D01*
X085877Y014493D01*
X085825Y014618D01*
X085825Y014753D01*
X085877Y014878D01*
X085972Y014974D01*
X086083Y015020D01*
X086676Y015612D01*
X086676Y015653D01*
X086892Y015869D01*
X086894Y015873D01*
X086967Y015946D01*
X086971Y015948D01*
X087187Y016164D01*
X087196Y016164D01*
X087846Y016814D01*
X087635Y016901D01*
X087421Y017115D01*
X087305Y017394D01*
X087305Y017697D01*
X087421Y017976D01*
X087484Y018039D01*
X087055Y018457D01*
X087053Y018458D01*
X086997Y018514D01*
X086941Y018569D01*
X086939Y018571D01*
X086857Y018653D01*
X086795Y018804D01*
X086795Y019116D01*
X086510Y019401D01*
X086505Y019403D01*
X086452Y019459D01*
X086397Y019513D01*
X086396Y019518D01*
X086165Y019758D01*
X086165Y019742D01*
X086131Y019659D01*
X086368Y019422D01*
X086405Y019333D01*
X086405Y019238D01*
X086405Y018667D01*
X086405Y018628D01*
X086406Y018627D01*
X086406Y018507D01*
X086527Y018507D01*
X086759Y018274D01*
X086759Y018141D01*
X086053Y017435D01*
X085921Y017435D01*
X085688Y017668D01*
X085688Y017789D01*
X085567Y017789D01*
X085334Y018021D01*
X085334Y018142D01*
X085214Y018142D01*
X084981Y018375D01*
X084981Y018508D01*
X085429Y018956D01*
X085497Y019043D01*
X085541Y019067D01*
X085552Y019079D01*
X085506Y019126D01*
X085461Y019126D01*
X085344Y019174D01*
X085254Y019264D01*
X085225Y019333D01*
X085225Y019145D01*
X085132Y019051D01*
X084724Y019051D01*
X084791Y018984D01*
X084860Y018816D01*
X084860Y018635D01*
X084791Y018468D01*
X084663Y018340D01*
X084496Y018270D01*
X084314Y018270D01*
X084205Y018316D01*
X083903Y018316D01*
X083753Y018378D01*
X083637Y018493D01*
X083497Y018633D01*
X083435Y018784D01*
X083435Y018947D01*
X083435Y019785D01*
X083449Y019818D01*
X083449Y020090D01*
X083273Y019914D01*
X083270Y019617D01*
X083257Y019587D01*
X083257Y019145D01*
X083163Y019051D01*
X082558Y019051D01*
X082465Y019145D01*
X082465Y019589D01*
X082450Y019626D01*
X082455Y020087D01*
X082455Y020167D01*
X082456Y020169D01*
X082456Y020172D01*
X082465Y020192D01*
X082465Y020261D01*
X082515Y020312D01*
X075475Y020312D01*
X075495Y020293D02*
X075372Y020416D01*
X065031Y020416D01*
X065004Y020443D01*
X064901Y020486D01*
X064789Y020486D01*
X064686Y020443D01*
X064271Y020027D01*
X064192Y019949D01*
X064149Y019846D01*
X064149Y019510D01*
X064072Y019433D01*
X064072Y017923D01*
X064166Y017829D01*
X064692Y017829D01*
X064725Y017861D01*
X064757Y017829D01*
X065283Y017829D01*
X065315Y017861D01*
X065347Y017829D01*
X065874Y017829D01*
X065906Y017861D01*
X065938Y017829D01*
X066464Y017829D01*
X066496Y017861D01*
X066528Y017829D01*
X067055Y017829D01*
X067087Y017861D01*
X067119Y017829D01*
X067645Y017829D01*
X067677Y017861D01*
X067709Y017829D01*
X068236Y017829D01*
X068268Y017861D01*
X068300Y017829D01*
X068826Y017829D01*
X068858Y017861D01*
X068891Y017829D01*
X069417Y017829D01*
X069449Y017861D01*
X069481Y017829D01*
X070007Y017829D01*
X070040Y017861D01*
X070072Y017829D01*
X070598Y017829D01*
X070630Y017861D01*
X070662Y017829D01*
X071188Y017829D01*
X071199Y017839D01*
X071199Y017838D01*
X071142Y017781D01*
X071095Y017667D01*
X071095Y017544D01*
X071095Y015014D01*
X070968Y014887D01*
X070944Y014877D01*
X070854Y014787D01*
X070805Y014669D01*
X070805Y014542D01*
X070815Y014518D01*
X070815Y014212D01*
X070815Y014089D01*
X070862Y013975D01*
X071215Y013622D01*
X071215Y013583D01*
X071159Y013528D01*
X071159Y012017D01*
X071253Y011923D01*
X071779Y011923D01*
X071873Y012017D01*
X071873Y013315D01*
X071887Y013301D01*
X073397Y013301D01*
X073491Y013395D01*
X073491Y013921D01*
X073459Y013953D01*
X073491Y013986D01*
X073491Y014512D01*
X073459Y014544D01*
X073491Y014576D01*
X073491Y015102D01*
X073459Y015134D01*
X073491Y015167D01*
X073491Y015693D01*
X073459Y015725D01*
X073491Y015757D01*
X073491Y016283D01*
X073459Y016316D01*
X073491Y016348D01*
X073491Y016874D01*
X073459Y016906D01*
X073491Y016938D01*
X073491Y017465D01*
X073459Y017497D01*
X073491Y017529D01*
X073491Y018055D01*
X073474Y018072D01*
X073481Y018726D01*
X075045Y018726D01*
X075045Y016795D01*
X074306Y016056D01*
X074029Y016056D01*
X073935Y015962D01*
X073935Y014929D01*
X074029Y014836D01*
X074861Y014836D01*
X074955Y014929D01*
X074955Y015687D01*
X075609Y016340D01*
X075710Y016442D01*
X075734Y016500D01*
X075765Y016469D01*
X075765Y016382D01*
X075814Y016264D01*
X075904Y016174D01*
X076021Y016126D01*
X076149Y016126D01*
X076266Y016174D01*
X076356Y016264D01*
X076405Y016382D01*
X076405Y016509D01*
X076356Y016627D01*
X076266Y016717D01*
X076149Y016766D01*
X076095Y016766D01*
X076095Y019519D01*
X076095Y019693D01*
X075495Y020293D01*
X075554Y020234D02*
X082465Y020234D01*
X082455Y020155D02*
X075632Y020155D01*
X075711Y020077D02*
X082455Y020077D01*
X082454Y019998D02*
X080407Y019998D01*
X080436Y019969D02*
X080342Y020062D01*
X079777Y020062D01*
X079683Y019969D01*
X079683Y019443D01*
X079777Y019349D01*
X079814Y019349D01*
X079814Y018852D01*
X079813Y018849D01*
X079814Y018794D01*
X079814Y018742D01*
X079814Y018556D01*
X079636Y018556D01*
X079636Y018742D01*
X079636Y018855D01*
X079636Y019115D01*
X079542Y019208D01*
X079455Y019208D01*
X079455Y019209D01*
X079337Y019257D01*
X079210Y019257D01*
X079019Y019257D01*
X079019Y019318D01*
X078925Y019412D01*
X078005Y019412D01*
X077911Y019318D01*
X077911Y018713D01*
X078005Y018619D01*
X078538Y018619D01*
X078601Y018557D01*
X078705Y018513D01*
X079066Y018513D01*
X079066Y018482D01*
X079121Y018427D01*
X079121Y018324D01*
X079151Y018294D01*
X079066Y018209D01*
X079066Y018206D01*
X078541Y018206D01*
X078424Y018157D01*
X078419Y018152D01*
X078005Y018152D01*
X077911Y018058D01*
X077911Y017971D01*
X077909Y017976D01*
X077696Y018190D01*
X077416Y018306D01*
X077114Y018306D01*
X076835Y018190D01*
X076621Y017976D01*
X076505Y017697D01*
X076505Y017394D01*
X076621Y017115D01*
X076835Y016901D01*
X077114Y016786D01*
X077416Y016786D01*
X077696Y016901D01*
X077909Y017115D01*
X078011Y017360D01*
X078890Y017360D01*
X078890Y017262D01*
X078868Y017262D01*
X078774Y017169D01*
X078774Y017038D01*
X078500Y016764D01*
X078445Y016632D01*
X078445Y016489D01*
X078445Y016215D01*
X078408Y016125D01*
X078408Y016087D01*
X078189Y015868D01*
X078102Y015781D01*
X078059Y015676D01*
X077849Y015676D01*
X077755Y015582D01*
X077755Y014749D01*
X077849Y014656D01*
X078881Y014656D01*
X078975Y014749D01*
X078975Y015367D01*
X079201Y015140D01*
X079333Y015086D01*
X079426Y015086D01*
X079485Y015026D01*
X079485Y014558D01*
X079522Y014470D01*
X079589Y014402D01*
X079590Y014401D01*
X079416Y014401D01*
X079413Y014400D01*
X079083Y014400D01*
X078989Y014306D01*
X078989Y014050D01*
X078989Y013794D01*
X078989Y013634D01*
X077733Y013636D01*
X077696Y013636D01*
X077638Y013636D01*
X077637Y013636D01*
X077514Y013636D01*
X078989Y013636D01*
X078989Y013715D02*
X077435Y013715D01*
X077357Y013793D02*
X078989Y013793D01*
X078989Y013872D02*
X077278Y013872D01*
X077200Y013950D02*
X078989Y013950D01*
X078989Y014029D02*
X077121Y014029D01*
X077043Y014107D02*
X078989Y014107D01*
X078989Y014186D02*
X076964Y014186D01*
X076886Y014264D02*
X078989Y014264D01*
X079026Y014343D02*
X076807Y014343D01*
X076781Y014369D02*
X076693Y014406D01*
X075053Y014406D01*
X074957Y014406D01*
X074869Y014369D01*
X073546Y013046D01*
X073277Y013046D01*
X073189Y013009D01*
X073122Y012942D01*
X073122Y012942D01*
X072309Y012129D01*
X072242Y012062D01*
X072205Y011973D01*
X072205Y011785D01*
X071786Y011366D01*
X070561Y011366D01*
X070561Y011470D01*
X070570Y011488D01*
X070571Y011498D01*
X070575Y011508D01*
X070575Y011555D01*
X070578Y011603D01*
X070575Y011613D01*
X070575Y011923D01*
X070598Y011923D01*
X070692Y012017D01*
X070692Y013528D01*
X070598Y013621D01*
X070072Y013621D01*
X070039Y013589D01*
X070007Y013621D01*
X069481Y013621D01*
X069449Y013589D01*
X069417Y013621D01*
X068891Y013621D01*
X068858Y013589D01*
X068826Y013621D01*
X068300Y013621D01*
X068268Y013589D01*
X068236Y013621D01*
X067709Y013621D01*
X067677Y013589D01*
X067645Y013621D01*
X067119Y013621D01*
X067087Y013589D01*
X067055Y013621D01*
X066528Y013621D01*
X066496Y013589D01*
X066464Y013621D01*
X065938Y013621D01*
X065906Y013589D01*
X065874Y013621D01*
X065347Y013621D01*
X065315Y013589D01*
X065283Y013621D01*
X064757Y013621D01*
X064725Y013589D01*
X064692Y013621D01*
X064166Y013621D01*
X064072Y013528D01*
X064072Y012554D01*
X064065Y012536D01*
X064065Y011751D01*
X063685Y011751D01*
X063685Y011673D02*
X063991Y011673D01*
X063994Y011680D02*
X063920Y011502D01*
X063920Y011309D01*
X063994Y011131D01*
X064130Y010995D01*
X064309Y010921D01*
X064501Y010921D01*
X064680Y010995D01*
X064816Y011131D01*
X064890Y011309D01*
X064890Y011440D01*
X064920Y011410D01*
X064920Y011309D01*
X064994Y011131D01*
X065130Y010995D01*
X065309Y010921D01*
X065501Y010921D01*
X065680Y010995D01*
X065816Y011131D01*
X065890Y011309D01*
X065890Y011502D01*
X065816Y011680D01*
X065680Y011817D01*
X065501Y011890D01*
X065401Y011890D01*
X065368Y011923D01*
X065874Y011923D01*
X065906Y011955D01*
X065938Y011923D01*
X066464Y011923D01*
X066496Y011955D01*
X066528Y011923D01*
X067055Y011923D01*
X067087Y011955D01*
X067119Y011923D01*
X067645Y011923D01*
X067677Y011955D01*
X067709Y011923D01*
X068236Y011923D01*
X068268Y011955D01*
X068300Y011923D01*
X068826Y011923D01*
X068858Y011955D01*
X068891Y011923D01*
X069417Y011923D01*
X069449Y011955D01*
X069481Y011923D01*
X069769Y011923D01*
X069769Y011366D01*
X068584Y011366D01*
X068565Y011385D01*
X068565Y011429D01*
X068516Y011547D01*
X068426Y011637D01*
X068309Y011686D01*
X068181Y011686D01*
X068064Y011637D01*
X067974Y011547D01*
X067925Y011429D01*
X067925Y011366D01*
X067861Y011366D01*
X067744Y011317D01*
X067654Y011227D01*
X067605Y011109D01*
X067605Y011046D01*
X067541Y011046D01*
X067424Y010997D01*
X067334Y010907D01*
X067285Y010789D01*
X067285Y010662D01*
X067325Y010566D01*
X063687Y010566D01*
X063685Y010566D01*
X063685Y018599D01*
X063866Y018780D01*
X064005Y019115D01*
X064005Y019477D01*
X063866Y019811D01*
X063685Y019993D01*
X063685Y021456D01*
X064028Y021568D01*
X064698Y021662D01*
X065020Y021666D01*
X065041Y021666D01*
X065088Y021664D01*
X065092Y021666D01*
X083894Y021666D01*
X083097Y020886D01*
X083079Y020879D01*
X083037Y020837D01*
X082991Y020801D01*
X082980Y020780D01*
X082577Y020378D01*
X082520Y020322D01*
X082519Y020320D01*
X082517Y020318D01*
X082515Y020312D01*
X082590Y020391D02*
X075397Y020391D01*
X075789Y019998D02*
X079713Y019998D01*
X079683Y019920D02*
X075868Y019920D01*
X075947Y019841D02*
X079683Y019841D01*
X079683Y019763D02*
X076025Y019763D01*
X076095Y019684D02*
X079683Y019684D01*
X079683Y019605D02*
X076095Y019605D01*
X076095Y019527D02*
X079683Y019527D01*
X079683Y019448D02*
X076095Y019448D01*
X076095Y019370D02*
X077963Y019370D01*
X077911Y019291D02*
X076095Y019291D01*
X076095Y019213D02*
X077911Y019213D01*
X077911Y019134D02*
X076095Y019134D01*
X076095Y019056D02*
X077911Y019056D01*
X077911Y018977D02*
X076095Y018977D01*
X076095Y018899D02*
X077911Y018899D01*
X077911Y018820D02*
X076095Y018820D01*
X076095Y018741D02*
X077911Y018741D01*
X077961Y018663D02*
X076095Y018663D01*
X076095Y018584D02*
X078573Y018584D01*
X079066Y018506D02*
X076095Y018506D01*
X076095Y018427D02*
X079121Y018427D01*
X079121Y018349D02*
X076095Y018349D01*
X076095Y018270D02*
X077028Y018270D01*
X076839Y018192D02*
X076095Y018192D01*
X076095Y018113D02*
X076758Y018113D01*
X076679Y018035D02*
X076095Y018035D01*
X076095Y017956D02*
X076612Y017956D01*
X076580Y017877D02*
X076095Y017877D01*
X076095Y017799D02*
X076547Y017799D01*
X076515Y017720D02*
X076095Y017720D01*
X076095Y017642D02*
X076505Y017642D01*
X076505Y017563D02*
X076095Y017563D01*
X076095Y017485D02*
X076505Y017485D01*
X076505Y017406D02*
X076095Y017406D01*
X076095Y017328D02*
X076533Y017328D01*
X076565Y017249D02*
X076095Y017249D01*
X076095Y017171D02*
X076598Y017171D01*
X076644Y017092D02*
X076095Y017092D01*
X076095Y017014D02*
X076722Y017014D01*
X076801Y016935D02*
X076095Y016935D01*
X076095Y016856D02*
X076943Y016856D01*
X076359Y016621D02*
X078445Y016621D01*
X078445Y016542D02*
X076391Y016542D01*
X076405Y016464D02*
X078445Y016464D01*
X078445Y016385D02*
X076405Y016385D01*
X076374Y016307D02*
X078445Y016307D01*
X078445Y016228D02*
X076320Y016228D01*
X076206Y016150D02*
X078418Y016150D01*
X078392Y016071D02*
X075339Y016071D01*
X075261Y015992D02*
X078313Y015992D01*
X078235Y015914D02*
X075182Y015914D01*
X075104Y015835D02*
X078156Y015835D01*
X078092Y015757D02*
X075025Y015757D01*
X074955Y015678D02*
X078060Y015678D01*
X077773Y015600D02*
X074955Y015600D01*
X074955Y015521D02*
X077755Y015521D01*
X077755Y015443D02*
X074955Y015443D01*
X074955Y015364D02*
X077755Y015364D01*
X077755Y015286D02*
X074955Y015286D01*
X074955Y015207D02*
X077755Y015207D01*
X077755Y015128D02*
X074955Y015128D01*
X074955Y015050D02*
X077755Y015050D01*
X077755Y014971D02*
X074955Y014971D01*
X074918Y014893D02*
X077755Y014893D01*
X077755Y014814D02*
X073491Y014814D01*
X073491Y014736D02*
X077769Y014736D01*
X077847Y014657D02*
X073491Y014657D01*
X073491Y014579D02*
X079485Y014579D01*
X079485Y014657D02*
X078883Y014657D01*
X078961Y014736D02*
X079485Y014736D01*
X079485Y014814D02*
X078975Y014814D01*
X078975Y014893D02*
X079485Y014893D01*
X079485Y014971D02*
X078975Y014971D01*
X078975Y015050D02*
X079461Y015050D01*
X079230Y015128D02*
X078975Y015128D01*
X078975Y015207D02*
X079135Y015207D01*
X079056Y015286D02*
X078975Y015286D01*
X078975Y015364D02*
X078977Y015364D01*
X079509Y014500D02*
X073491Y014500D01*
X073491Y014422D02*
X079570Y014422D01*
X082443Y013769D02*
X082451Y013788D01*
X082470Y013814D01*
X082657Y013814D01*
X082685Y013786D01*
X082685Y013742D01*
X082734Y013624D01*
X082824Y013534D01*
X082941Y013486D01*
X083069Y013486D01*
X083186Y013534D01*
X083276Y013624D01*
X083318Y013726D01*
X083642Y013402D01*
X083730Y013366D01*
X083826Y013366D01*
X083872Y013366D01*
X083904Y013334D01*
X083928Y013324D01*
X083899Y013295D01*
X083867Y013265D01*
X083867Y013263D01*
X083814Y013211D01*
X083645Y013380D01*
X083422Y013603D01*
X083290Y013603D01*
X082778Y013092D01*
X082778Y013078D01*
X082666Y012966D01*
X082621Y012966D01*
X082565Y012942D01*
X082565Y013173D01*
X082528Y013262D01*
X082461Y013329D01*
X082373Y013366D01*
X082277Y013366D01*
X082179Y013366D01*
X082168Y013376D01*
X081838Y013376D01*
X081835Y013377D01*
X081739Y013377D01*
X081736Y013376D01*
X081485Y013376D01*
X081485Y013398D01*
X081485Y013410D01*
X082168Y013410D01*
X082262Y013504D01*
X082262Y013665D01*
X082288Y013665D01*
X082306Y013673D01*
X082326Y013676D01*
X082350Y013691D01*
X082376Y013702D01*
X082390Y013716D01*
X082407Y013726D01*
X082423Y013749D01*
X082443Y013769D01*
X082455Y013793D02*
X082678Y013793D01*
X082696Y013715D02*
X082389Y013715D01*
X082262Y013636D02*
X082729Y013636D01*
X082801Y013558D02*
X082262Y013558D01*
X082237Y013479D02*
X083166Y013479D01*
X083210Y013558D02*
X083244Y013558D01*
X083281Y013636D02*
X083408Y013636D01*
X083468Y013558D02*
X083487Y013558D01*
X083546Y013479D02*
X083565Y013479D01*
X083625Y013401D02*
X083646Y013401D01*
X083703Y013322D02*
X083926Y013322D01*
X083847Y013243D02*
X083782Y013243D01*
X084154Y012871D02*
X084238Y012956D01*
X084620Y013326D01*
X084669Y013326D01*
X084786Y013374D01*
X084876Y013464D01*
X084925Y013582D01*
X084925Y013709D01*
X084876Y013827D01*
X084786Y013917D01*
X084669Y013966D01*
X084541Y013966D01*
X084424Y013917D01*
X084334Y013827D01*
X084329Y013815D01*
X084266Y013877D01*
X084149Y013926D01*
X084021Y013926D01*
X083904Y013877D01*
X083875Y013848D01*
X083708Y014015D01*
X083830Y014136D01*
X084004Y014136D01*
X084302Y014136D01*
X084344Y014094D01*
X084461Y014046D01*
X084589Y014046D01*
X084706Y014094D01*
X084796Y014184D01*
X084845Y014302D01*
X084845Y014429D01*
X084796Y014547D01*
X084706Y014637D01*
X084589Y014686D01*
X084461Y014686D01*
X084344Y014637D01*
X084302Y014596D01*
X084289Y014596D01*
X084323Y014629D01*
X084323Y014629D01*
X084546Y014852D01*
X084546Y014985D01*
X084035Y015496D01*
X083902Y015496D01*
X083669Y015263D01*
X083457Y015051D01*
X083280Y014874D01*
X083119Y015036D01*
X082928Y015036D01*
X082181Y015036D01*
X082181Y015608D01*
X082165Y015624D01*
X082165Y015657D01*
X082390Y015882D01*
X082445Y016014D01*
X082445Y016157D01*
X082445Y016361D01*
X083600Y016361D01*
X083600Y016256D01*
X083848Y016008D01*
X083848Y016000D01*
X083848Y015896D01*
X083887Y015801D01*
X084333Y015356D01*
X084333Y015356D01*
X084783Y014905D01*
X084879Y014866D01*
X084982Y014866D01*
X085064Y014866D01*
X085092Y014837D01*
X085217Y014786D01*
X085353Y014786D01*
X085478Y014837D01*
X085573Y014933D01*
X085625Y015058D01*
X085625Y015166D01*
X085709Y015166D01*
X085826Y015214D01*
X085916Y015304D01*
X085925Y015326D01*
X086021Y015286D01*
X086149Y015286D01*
X086266Y015334D01*
X086356Y015424D01*
X086405Y015542D01*
X086405Y015624D01*
X086513Y015733D01*
X086596Y015733D01*
X087107Y016244D01*
X087107Y016377D01*
X086884Y016599D01*
X086652Y016832D01*
X086524Y016832D01*
X086476Y016947D01*
X086386Y017037D01*
X086269Y017086D01*
X086141Y017086D01*
X086024Y017037D01*
X085934Y016947D01*
X085929Y016935D01*
X085928Y016935D01*
X085929Y016935D02*
X085866Y016997D01*
X085749Y017046D01*
X085621Y017046D01*
X085504Y016997D01*
X085414Y016907D01*
X085379Y016824D01*
X085371Y016832D01*
X085238Y016832D01*
X085016Y016609D01*
X084793Y016387D01*
X084570Y016164D01*
X084415Y016009D01*
X084406Y016018D01*
X084616Y016228D01*
X084616Y016361D01*
X084425Y016552D01*
X084425Y016649D01*
X084425Y016956D01*
X084481Y016956D01*
X084575Y017049D01*
X084575Y018082D01*
X084481Y018176D01*
X083649Y018176D01*
X083555Y018082D01*
X083555Y017081D01*
X082445Y017081D01*
X082445Y018317D01*
X082390Y018450D01*
X082289Y018551D01*
X081969Y018871D01*
X081837Y018926D01*
X081735Y018926D01*
X081735Y019010D01*
X081856Y019131D01*
X081930Y019309D01*
X081930Y019502D01*
X081856Y019680D01*
X081720Y019817D01*
X081541Y019890D01*
X081349Y019890D01*
X081170Y019817D01*
X081034Y019680D01*
X080960Y019502D01*
X080960Y019465D01*
X080873Y019378D01*
X080836Y019467D01*
X080746Y019557D01*
X080629Y019606D01*
X080501Y019606D01*
X080436Y019579D01*
X080436Y019969D01*
X080436Y019920D02*
X082453Y019920D01*
X082452Y019841D02*
X081661Y019841D01*
X081774Y019763D02*
X082451Y019763D01*
X082451Y019684D02*
X081852Y019684D01*
X081887Y019605D02*
X082458Y019605D01*
X082465Y019527D02*
X081920Y019527D01*
X081930Y019448D02*
X082465Y019448D01*
X082465Y019370D02*
X081930Y019370D01*
X081922Y019291D02*
X082465Y019291D01*
X082465Y019213D02*
X081890Y019213D01*
X081857Y019134D02*
X082475Y019134D01*
X082554Y019056D02*
X081781Y019056D01*
X081735Y018977D02*
X083435Y018977D01*
X083435Y018899D02*
X081902Y018899D01*
X082020Y018820D02*
X083435Y018820D01*
X083453Y018741D02*
X082098Y018741D01*
X082177Y018663D02*
X083485Y018663D01*
X083546Y018584D02*
X082255Y018584D01*
X082334Y018506D02*
X083625Y018506D01*
X083704Y018427D02*
X082399Y018427D01*
X082432Y018349D02*
X083824Y018349D01*
X083586Y018113D02*
X082445Y018113D01*
X082445Y018035D02*
X083555Y018035D01*
X083555Y017956D02*
X082445Y017956D01*
X082445Y017877D02*
X083555Y017877D01*
X083555Y017799D02*
X082445Y017799D01*
X082445Y017720D02*
X083555Y017720D01*
X083555Y017642D02*
X082445Y017642D01*
X082445Y017563D02*
X083555Y017563D01*
X083555Y017485D02*
X082445Y017485D01*
X082445Y017406D02*
X083555Y017406D01*
X083555Y017328D02*
X082445Y017328D01*
X082445Y017249D02*
X083555Y017249D01*
X083555Y017171D02*
X082445Y017171D01*
X082445Y017092D02*
X083555Y017092D01*
X084425Y016935D02*
X085442Y016935D01*
X085393Y016856D02*
X084425Y016856D01*
X084425Y016778D02*
X085184Y016778D01*
X085106Y016699D02*
X084425Y016699D01*
X084425Y016621D02*
X085027Y016621D01*
X084949Y016542D02*
X084434Y016542D01*
X084513Y016464D02*
X084870Y016464D01*
X084791Y016385D02*
X084591Y016385D01*
X084616Y016307D02*
X084713Y016307D01*
X084634Y016228D02*
X084616Y016228D01*
X084556Y016150D02*
X084537Y016150D01*
X084477Y016071D02*
X084458Y016071D01*
X084010Y015678D02*
X082187Y015678D01*
X082181Y015600D02*
X084089Y015600D01*
X084167Y015521D02*
X082181Y015521D01*
X082181Y015443D02*
X083849Y015443D01*
X083770Y015364D02*
X082181Y015364D01*
X082181Y015286D02*
X083692Y015286D01*
X083669Y015263D02*
X083669Y015263D01*
X083613Y015207D02*
X082181Y015207D01*
X082181Y015128D02*
X083535Y015128D01*
X083456Y015050D02*
X082181Y015050D01*
X083183Y014971D02*
X083378Y014971D01*
X083299Y014893D02*
X083261Y014893D01*
X083662Y014612D02*
X083662Y014588D01*
X084351Y014657D02*
X084393Y014657D01*
X084430Y014736D02*
X085825Y014736D01*
X085825Y014657D02*
X084657Y014657D01*
X084765Y014579D02*
X085841Y014579D01*
X085874Y014500D02*
X084816Y014500D01*
X084845Y014422D02*
X085948Y014422D01*
X085941Y014206D02*
X085824Y014157D01*
X085734Y014067D01*
X085685Y013949D01*
X085685Y013822D01*
X085725Y013726D01*
X085611Y013726D01*
X085610Y013726D01*
X085564Y013726D01*
X085517Y013726D01*
X085516Y013725D01*
X085515Y013725D01*
X085472Y013707D01*
X085429Y013689D01*
X085428Y013688D01*
X085427Y013688D01*
X085395Y013655D01*
X085362Y013622D01*
X085361Y013620D01*
X085109Y013363D01*
X084966Y013363D01*
X084820Y013303D01*
X084708Y013191D01*
X084648Y013045D01*
X084648Y012908D01*
X084589Y012849D01*
X084522Y012782D01*
X084485Y012693D01*
X084485Y012573D01*
X084485Y012540D01*
X084323Y012702D01*
X084154Y012871D01*
X084174Y012851D02*
X084591Y012851D01*
X084648Y012929D02*
X084212Y012929D01*
X084292Y013008D02*
X084648Y013008D01*
X084665Y013086D02*
X084373Y013086D01*
X084454Y013165D02*
X084697Y013165D01*
X084761Y013243D02*
X084535Y013243D01*
X084616Y013322D02*
X084867Y013322D01*
X084812Y013401D02*
X085146Y013401D01*
X085223Y013479D02*
X084882Y013479D01*
X084915Y013558D02*
X085300Y013558D01*
X085376Y013636D02*
X084925Y013636D01*
X084923Y013715D02*
X085490Y013715D01*
X085697Y013793D02*
X084890Y013793D01*
X084831Y013872D02*
X085685Y013872D01*
X085685Y013950D02*
X084706Y013950D01*
X084719Y014107D02*
X085774Y014107D01*
X085718Y014029D02*
X083723Y014029D01*
X083773Y013950D02*
X084504Y013950D01*
X084379Y013872D02*
X084271Y013872D01*
X084331Y014107D02*
X083801Y014107D01*
X083851Y013872D02*
X083899Y013872D01*
X083329Y013715D02*
X083314Y013715D01*
X083087Y013401D02*
X081485Y013401D01*
X082468Y013322D02*
X083009Y013322D01*
X082930Y013243D02*
X082536Y013243D01*
X082565Y013165D02*
X082852Y013165D01*
X082778Y013086D02*
X082565Y013086D01*
X082565Y013008D02*
X082708Y013008D01*
X084253Y012772D02*
X084518Y012772D01*
X084485Y012694D02*
X084331Y012694D01*
X084323Y012702D02*
X084323Y012702D01*
X084410Y012615D02*
X084485Y012615D01*
X085022Y012568D02*
X085124Y012568D01*
X085270Y012629D01*
X085365Y012724D01*
X085365Y011599D01*
X085294Y011599D01*
X084809Y011113D01*
X084779Y011126D01*
X084651Y011126D01*
X084549Y011083D01*
X084514Y011119D01*
X084282Y011119D01*
X084325Y011222D01*
X084325Y011349D01*
X084306Y011396D01*
X084317Y011396D01*
X084344Y011394D01*
X084348Y011390D01*
X084570Y011167D01*
X084703Y011167D01*
X085214Y011678D01*
X085214Y011715D01*
X085248Y011750D01*
X085285Y011838D01*
X085285Y011933D01*
X085285Y012253D01*
X085248Y012342D01*
X085181Y012409D01*
X085022Y012568D01*
X085054Y012537D02*
X085365Y012537D01*
X085365Y012615D02*
X085237Y012615D01*
X085335Y012694D02*
X085365Y012694D01*
X085365Y012458D02*
X085132Y012458D01*
X085211Y012379D02*
X085365Y012379D01*
X085365Y012301D02*
X085265Y012301D01*
X085285Y012222D02*
X085365Y012222D01*
X085365Y012144D02*
X085285Y012144D01*
X085285Y012065D02*
X085365Y012065D01*
X085365Y011987D02*
X085285Y011987D01*
X085285Y011908D02*
X085365Y011908D01*
X085365Y011830D02*
X085282Y011830D01*
X085249Y011751D02*
X085365Y011751D01*
X085365Y011673D02*
X085208Y011673D01*
X085130Y011594D02*
X085290Y011594D01*
X085211Y011515D02*
X085051Y011515D01*
X084973Y011437D02*
X085133Y011437D01*
X085054Y011358D02*
X084894Y011358D01*
X084816Y011280D02*
X084975Y011280D01*
X084897Y011201D02*
X084737Y011201D01*
X084786Y011123D02*
X084818Y011123D01*
X084644Y011123D02*
X084284Y011123D01*
X084316Y011201D02*
X084536Y011201D01*
X084458Y011280D02*
X084325Y011280D01*
X084321Y011358D02*
X084379Y011358D01*
X084348Y011390D02*
X084348Y011390D01*
X083685Y011126D02*
X083605Y011206D01*
X083045Y011206D01*
X082987Y010841D02*
X082725Y010578D01*
X082725Y011766D01*
X083205Y012246D01*
X083325Y012246D01*
X081805Y011726D02*
X081645Y011886D01*
X080485Y011886D01*
X080245Y011646D01*
X079565Y011646D01*
X079405Y011486D01*
X079525Y011166D02*
X079845Y011486D01*
X080325Y011486D01*
X080565Y011726D01*
X081085Y011726D01*
X081245Y011566D01*
X081453Y011078D02*
X081453Y011041D01*
X081625Y010786D02*
X081145Y010786D01*
X080965Y010966D01*
X079245Y010966D01*
X079045Y010766D01*
X079045Y010726D01*
X078885Y010566D01*
X079285Y010366D02*
X079325Y010326D01*
X080565Y010326D01*
X080925Y009966D01*
X081545Y009966D01*
X081825Y009686D01*
X082765Y009686D01*
X083045Y009966D01*
X083045Y010166D01*
X083175Y010296D01*
X083675Y010296D01*
X083708Y010263D01*
X083855Y010456D02*
X083095Y010456D01*
X082885Y010246D01*
X082885Y010046D01*
X082685Y009846D01*
X081925Y009846D01*
X081765Y010006D01*
X081765Y010248D02*
X081768Y010251D01*
X082083Y010251D02*
X082085Y010248D01*
X082085Y010046D02*
X082125Y010006D01*
X082605Y010006D01*
X082725Y010126D01*
X082725Y010326D01*
X083005Y010606D01*
X082725Y010578D02*
X082397Y010251D01*
X081453Y010251D02*
X081448Y010246D01*
X081408Y010286D01*
X081045Y010286D01*
X081005Y010326D01*
X081765Y010606D02*
X079645Y010606D01*
X079605Y010646D01*
X079525Y011166D02*
X079245Y011166D01*
X078925Y011486D01*
X078362Y012222D02*
X078029Y011889D01*
X077962Y011822D01*
X077925Y011733D01*
X077925Y011438D01*
X077909Y011476D01*
X077696Y011690D01*
X077416Y011806D01*
X077114Y011806D01*
X076835Y011690D01*
X076621Y011476D01*
X076505Y011197D01*
X076505Y010894D01*
X076621Y010615D01*
X076835Y010401D01*
X077017Y010326D01*
X075504Y010326D01*
X075608Y010430D01*
X075645Y010518D01*
X075645Y010613D01*
X075645Y011186D01*
X075728Y011270D01*
X075765Y011358D01*
X075765Y011453D01*
X075765Y012126D01*
X075786Y012134D01*
X075876Y012224D01*
X075925Y012342D01*
X075925Y012469D01*
X075876Y012587D01*
X075797Y012666D01*
X075866Y012694D01*
X075956Y012784D01*
X076005Y012902D01*
X076005Y013029D01*
X075982Y013086D01*
X076186Y013086D01*
X076849Y012422D01*
X076937Y012386D01*
X077033Y012386D01*
X079420Y012386D01*
X079511Y012386D01*
X079515Y012387D01*
X079765Y012387D01*
X079765Y012326D01*
X078517Y012326D01*
X078429Y012289D01*
X078362Y012222D01*
X075874Y012222D01*
X075908Y012301D02*
X078458Y012301D01*
X078362Y012222D02*
X078362Y012222D01*
X078284Y012144D02*
X075796Y012144D01*
X075765Y012065D02*
X078205Y012065D01*
X078127Y011987D02*
X075765Y011987D01*
X075765Y011908D02*
X078048Y011908D01*
X077970Y011830D02*
X075765Y011830D01*
X075765Y011751D02*
X076982Y011751D01*
X076817Y011673D02*
X075765Y011673D01*
X075765Y011594D02*
X076739Y011594D01*
X076660Y011515D02*
X075765Y011515D01*
X075765Y011437D02*
X076605Y011437D01*
X076572Y011358D02*
X075765Y011358D01*
X075733Y011280D02*
X076539Y011280D01*
X076507Y011201D02*
X075660Y011201D01*
X075645Y011123D02*
X076505Y011123D01*
X076505Y011044D02*
X075645Y011044D01*
X075645Y010966D02*
X076505Y010966D01*
X076508Y010887D02*
X075645Y010887D01*
X075645Y010809D02*
X076541Y010809D01*
X076573Y010730D02*
X075645Y010730D01*
X075645Y010651D02*
X076606Y010651D01*
X076663Y010573D02*
X075645Y010573D01*
X075635Y010494D02*
X076741Y010494D01*
X076820Y010416D02*
X075595Y010416D01*
X075516Y010337D02*
X076989Y010337D01*
X077845Y010046D02*
X075365Y010046D01*
X075125Y009806D01*
X073445Y009806D01*
X073125Y009486D01*
X072605Y009486D01*
X072165Y009046D01*
X071245Y009966D01*
X069005Y009966D01*
X068565Y009526D01*
X068405Y009526D01*
X068165Y009766D01*
X067445Y009766D01*
X067125Y009446D01*
X065285Y009446D01*
X064965Y009766D01*
X064645Y009766D01*
X064325Y009446D01*
X061765Y009446D01*
X061765Y009606D01*
X061765Y009446D02*
X056805Y009446D01*
X056485Y009766D01*
X055445Y009766D01*
X055125Y009446D01*
X054005Y009446D01*
X053605Y009846D01*
X052325Y009846D01*
X051925Y009446D01*
X050085Y009446D01*
X050085Y009606D01*
X050085Y009446D02*
X045365Y009446D01*
X044965Y009846D01*
X043925Y009846D01*
X043525Y009446D01*
X042645Y009446D01*
X042245Y009846D01*
X041685Y009846D01*
X041285Y009446D01*
X038565Y009446D01*
X038565Y009606D01*
X038565Y009446D02*
X033925Y009446D01*
X033125Y009286D02*
X033125Y009126D01*
X033045Y009126D01*
X032725Y009446D01*
X032165Y009446D01*
X031845Y009126D01*
X021205Y009126D01*
X021205Y009286D01*
X021205Y009126D02*
X021045Y009126D01*
X020645Y009526D01*
X020325Y009526D01*
X019925Y009126D01*
X008805Y009126D01*
X008405Y008726D01*
X008405Y007526D01*
X007985Y007106D01*
X007805Y007106D01*
X008965Y006806D02*
X008965Y008646D01*
X010785Y007106D02*
X012645Y008966D01*
X020005Y008966D01*
X020405Y009366D01*
X020565Y009366D01*
X020965Y008966D01*
X024485Y008966D01*
X026725Y008646D02*
X026725Y008266D01*
X025565Y007106D01*
X026805Y007046D02*
X026805Y007766D01*
X028805Y007686D02*
X028805Y007366D01*
X028525Y007086D01*
X028525Y007106D01*
X029685Y006966D02*
X029685Y007766D01*
X029685Y008566D02*
X028805Y007686D01*
X031485Y007406D02*
X031485Y007106D01*
X031485Y007406D02*
X031845Y007766D01*
X031845Y008326D01*
X032405Y008886D01*
X033125Y009126D02*
X043685Y009126D01*
X043925Y009366D01*
X044245Y009366D01*
X044485Y009126D01*
X044725Y009126D01*
X044725Y009366D01*
X044725Y009126D02*
X052085Y009126D01*
X052485Y009526D01*
X052805Y009526D01*
X053205Y009126D01*
X055285Y009126D01*
X055445Y009286D01*
X056245Y009286D01*
X056405Y009126D01*
X067765Y009126D01*
X067765Y009286D01*
X067845Y009206D01*
X068765Y009206D01*
X069205Y009646D01*
X071085Y009646D01*
X072005Y008726D01*
X071085Y008886D02*
X070645Y009326D01*
X069725Y009326D01*
X069245Y008846D01*
X068925Y008846D01*
X068085Y008006D01*
X068085Y006646D01*
X067965Y006526D01*
X067685Y006526D01*
X067325Y006766D02*
X067765Y007206D01*
X067765Y008166D01*
X067605Y008646D02*
X067205Y008246D01*
X067205Y007706D01*
X066605Y007106D01*
X068285Y006846D02*
X068485Y006646D01*
X069925Y006646D01*
X070005Y006726D01*
X070005Y007046D01*
X068285Y006846D02*
X068285Y007926D01*
X069005Y008646D01*
X070045Y008646D01*
X070445Y009046D01*
X072525Y007246D02*
X073565Y008326D01*
X073645Y008406D01*
X074085Y008686D02*
X074085Y006486D01*
X073965Y006366D01*
X073685Y006686D02*
X073685Y007606D01*
X072525Y007246D02*
X072525Y007106D01*
X075485Y007106D02*
X075485Y007486D01*
X075725Y007726D01*
X075725Y008886D01*
X076085Y009246D01*
X076245Y009246D01*
X076685Y009206D02*
X076725Y009246D01*
X076685Y009206D02*
X076685Y008606D01*
X077005Y008286D01*
X077005Y006726D01*
X076685Y006406D01*
X076685Y006086D01*
X076765Y006006D01*
X077165Y006006D01*
X077525Y006366D01*
X078405Y006366D01*
X078445Y006326D01*
X078445Y005866D01*
X078785Y005866D01*
X078965Y005686D01*
X079845Y006006D02*
X080005Y006006D01*
X080145Y005866D01*
X080735Y005866D01*
X081405Y005866D02*
X081465Y005706D01*
X081525Y005646D01*
X081525Y006126D01*
X081725Y006326D01*
X082845Y006326D01*
X083085Y006086D01*
X083515Y005686D02*
X083695Y005866D01*
X083515Y005686D02*
X082565Y005686D01*
X082445Y005366D02*
X082165Y005646D01*
X081525Y005646D01*
X081245Y005366D01*
X070965Y005366D01*
X070645Y005686D01*
X070245Y005686D01*
X071125Y005766D02*
X071225Y005866D01*
X071855Y005866D01*
X072525Y005866D02*
X073265Y005866D01*
X073365Y005766D01*
X074165Y005686D02*
X074345Y005866D01*
X074815Y005866D01*
X075485Y005866D02*
X076065Y005866D01*
X076165Y005766D01*
X076885Y005686D02*
X077685Y005686D01*
X077705Y005706D01*
X077775Y005866D01*
X077005Y006326D02*
X077365Y006686D01*
X077365Y008126D01*
X077205Y008286D01*
X077205Y009246D01*
X077845Y010046D02*
X078405Y009486D01*
X080365Y009486D01*
X080565Y009286D01*
X081205Y009286D01*
X082125Y008366D01*
X082125Y007086D01*
X082245Y006966D01*
X082805Y006966D01*
X082805Y007726D01*
X082965Y007886D01*
X082965Y008326D01*
X083685Y009046D01*
X084485Y009046D01*
X084925Y008606D01*
X084925Y008486D01*
X085045Y008366D01*
X085045Y008206D01*
X085125Y008126D01*
X085965Y008126D01*
X086125Y008286D01*
X086125Y008546D01*
X086325Y008746D01*
X086325Y008926D01*
X085805Y009006D02*
X085805Y009146D01*
X085685Y009266D01*
X085685Y009976D01*
X086035Y009966D01*
X086573Y009998D02*
X086573Y010161D01*
X086888Y010161D02*
X086888Y009923D01*
X087205Y009926D02*
X087205Y009966D01*
X087203Y009968D01*
X087203Y010161D01*
X087517Y010161D02*
X087563Y010186D01*
X087285Y010466D02*
X087285Y010786D01*
X087185Y010886D01*
X086669Y011160D02*
X086669Y011182D01*
X086245Y011606D01*
X086245Y011926D01*
X086445Y012126D01*
X086445Y012566D01*
X086405Y012646D01*
X086365Y012766D01*
X086285Y012846D01*
X086085Y012846D01*
X085885Y012646D01*
X085885Y010846D01*
X085885Y010806D01*
X085725Y011226D02*
X085444Y010945D01*
X085444Y010937D01*
X085240Y011160D02*
X085221Y011160D01*
X085240Y011160D02*
X085565Y011486D01*
X085565Y013006D01*
X085845Y013006D02*
X085845Y012846D01*
X085725Y012726D01*
X085725Y011226D01*
X086085Y011286D02*
X086085Y012366D01*
X086165Y012446D01*
X087685Y012712D02*
X087685Y012798D01*
X087685Y012893D01*
X087648Y012982D01*
X087408Y013222D01*
X087401Y013229D01*
X087436Y013264D01*
X087485Y013382D01*
X087485Y013509D01*
X087436Y013627D01*
X087346Y013717D01*
X087229Y013766D01*
X087101Y013766D01*
X086984Y013717D01*
X086912Y013646D01*
X086528Y013646D01*
X086325Y013849D01*
X086325Y013949D01*
X086276Y014067D01*
X086186Y014157D01*
X086069Y014206D01*
X085941Y014206D01*
X085894Y014186D02*
X084797Y014186D01*
X084829Y014264D02*
X086614Y014264D01*
X086535Y014343D02*
X084845Y014343D01*
X086116Y014186D02*
X086862Y014186D01*
X086940Y014107D02*
X086236Y014107D01*
X086292Y014029D02*
X087019Y014029D01*
X087125Y014206D02*
X087685Y014206D01*
X087965Y013926D01*
X087965Y013366D01*
X087666Y013479D02*
X087485Y013479D01*
X087485Y013401D02*
X087645Y013401D01*
X087645Y013322D02*
X087460Y013322D01*
X087415Y013243D02*
X087669Y013243D01*
X087713Y013165D02*
X087465Y013165D01*
X087544Y013086D02*
X087803Y013086D01*
X087873Y013008D02*
X087622Y013008D01*
X087670Y012929D02*
X087794Y012929D01*
X087789Y012851D02*
X087685Y012851D01*
X087685Y012772D02*
X087809Y012772D01*
X087888Y012694D02*
X087728Y012694D01*
X087709Y012712D02*
X087685Y012712D01*
X087709Y012712D02*
X087889Y012533D01*
X087941Y012511D01*
X088224Y012228D01*
X088302Y012150D01*
X088230Y012222D02*
X088385Y012222D01*
X088281Y012301D02*
X088151Y012301D01*
X088202Y012379D02*
X088073Y012379D01*
X088123Y012458D02*
X087994Y012458D01*
X087994Y012496D02*
X088005Y012496D01*
X088045Y012537D02*
X087885Y012537D01*
X087806Y012615D02*
X087966Y012615D01*
X088845Y012006D02*
X089125Y012286D01*
X089125Y012366D01*
X089120Y012361D01*
X089113Y012361D01*
X090057Y012361D02*
X090123Y012426D01*
X090445Y012426D01*
X092055Y012772D02*
X092692Y012772D01*
X092735Y012815D02*
X092586Y012666D01*
X092505Y012471D01*
X092505Y012323D01*
X091955Y012873D01*
X091832Y012996D01*
X091198Y012996D01*
X091085Y012883D01*
X091085Y012949D01*
X091036Y013067D01*
X091033Y013071D01*
X092168Y014206D01*
X092285Y014323D01*
X092285Y014843D01*
X092285Y015009D01*
X092168Y015126D01*
X091528Y015126D01*
X091362Y015126D01*
X091282Y015046D01*
X091198Y015046D01*
X091205Y015062D01*
X091205Y015189D01*
X091164Y015288D01*
X091269Y015183D01*
X091383Y015136D01*
X091507Y015136D01*
X092605Y015136D01*
X092605Y014929D01*
X092699Y014836D01*
X093571Y014836D01*
X093665Y014929D01*
X093665Y015802D01*
X093571Y015896D01*
X093405Y015896D01*
X093405Y016517D01*
X093350Y016650D01*
X093249Y016751D01*
X092812Y017188D01*
X092757Y017321D01*
X092640Y017437D01*
X092488Y017501D01*
X092322Y017501D01*
X092170Y017437D01*
X092053Y017321D01*
X091990Y017168D01*
X091990Y017003D01*
X092053Y016851D01*
X092170Y016734D01*
X092303Y016679D01*
X092685Y016297D01*
X092685Y015882D01*
X092605Y015802D01*
X092605Y015756D01*
X091573Y015756D01*
X090235Y017094D01*
X090235Y018407D01*
X090228Y018423D01*
X090266Y018460D01*
X090266Y018593D01*
X089838Y019021D01*
X089705Y019021D01*
X089250Y018565D01*
X089250Y018433D01*
X089615Y018068D01*
X089615Y018015D01*
X088478Y019152D01*
X088869Y019544D01*
X088869Y019676D01*
X088636Y019909D01*
X088518Y019909D01*
X088518Y020027D01*
X088285Y020260D01*
X088153Y020260D01*
X087482Y019589D01*
X087140Y019930D01*
X087811Y020602D01*
X087811Y020734D01*
X087578Y020967D01*
X087511Y020967D01*
X087507Y021362D01*
X088408Y021366D01*
X089116Y021366D01*
X088996Y021246D01*
X088915Y021051D01*
X088915Y020840D01*
X088996Y020645D01*
X089145Y020496D01*
X089340Y020416D01*
X089550Y020416D01*
X089745Y020496D01*
X089894Y020645D01*
X089966Y020818D01*
X089996Y020745D01*
X090145Y020596D01*
X090340Y020516D01*
X090550Y020516D01*
X090745Y020596D01*
X090894Y020745D01*
X090924Y020818D01*
X090996Y020645D01*
X091145Y020496D01*
X091316Y020426D01*
X091198Y020426D01*
X091186Y020437D01*
X091069Y020486D01*
X090941Y020486D01*
X090824Y020437D01*
X090734Y020347D01*
X090685Y020229D01*
X090685Y020102D01*
X090734Y019984D01*
X090824Y019894D01*
X090941Y019846D01*
X091069Y019846D01*
X091186Y019894D01*
X091198Y019906D01*
X092013Y019906D01*
X092117Y019906D01*
X092212Y019945D01*
X092592Y020325D01*
X092665Y020398D01*
X092705Y020494D01*
X092705Y020580D01*
X092745Y020596D01*
X092894Y020745D01*
X092975Y020940D01*
X092975Y021151D01*
X092894Y021346D01*
X092745Y021495D01*
X092550Y021576D01*
X092340Y021576D01*
X092145Y021495D01*
X091996Y021346D01*
X091924Y021173D01*
X091894Y021246D01*
X091745Y021395D01*
X091550Y021476D01*
X091340Y021476D01*
X091145Y021395D01*
X090996Y021246D01*
X090966Y021173D01*
X090894Y021346D01*
X090745Y021495D01*
X090550Y021576D01*
X090340Y021576D01*
X090145Y021495D01*
X089996Y021346D01*
X089924Y021173D01*
X089894Y021246D01*
X089745Y021395D01*
X089685Y021420D01*
X089685Y021493D01*
X089648Y021582D01*
X089581Y021649D01*
X089564Y021666D01*
X094116Y021666D01*
X094118Y021665D01*
X094167Y021666D01*
X094171Y021666D01*
X094427Y021656D01*
X094933Y021556D01*
X095407Y021353D01*
X095827Y021054D01*
X096175Y020673D01*
X096435Y020228D01*
X096596Y019738D01*
X096650Y019226D01*
X096596Y018713D01*
X096435Y018223D01*
X096175Y017778D01*
X095827Y017398D01*
X095407Y017099D01*
X094933Y016895D01*
X094427Y016795D01*
X094170Y016786D01*
X094167Y016786D01*
X094118Y016786D01*
X094116Y016786D01*
X094113Y016786D01*
X094068Y016767D01*
X094021Y016748D01*
X094020Y016747D01*
X094018Y016746D01*
X093983Y016712D01*
X093947Y016677D01*
X093946Y016674D01*
X093945Y016673D01*
X093926Y016628D01*
X093906Y016582D01*
X093906Y016579D01*
X093905Y016577D01*
X093905Y016528D01*
X093904Y016478D01*
X093905Y016476D01*
X093905Y010628D01*
X093725Y010809D01*
X093905Y010809D01*
X093905Y010887D02*
X093725Y010887D01*
X093725Y010809D02*
X093725Y011539D01*
X093749Y011563D01*
X093803Y011694D01*
X093803Y011837D01*
X093749Y011969D01*
X093648Y012069D01*
X093516Y012124D01*
X093508Y012124D01*
X093565Y012260D01*
X093565Y012471D01*
X093484Y012666D01*
X093335Y012815D01*
X093263Y012845D01*
X093435Y012916D01*
X093584Y013065D01*
X093665Y013260D01*
X093665Y013471D01*
X093584Y013666D01*
X093435Y013815D01*
X093240Y013896D01*
X093030Y013896D01*
X092835Y013815D01*
X092686Y013666D01*
X092605Y013471D01*
X092605Y013260D01*
X092686Y013065D01*
X092835Y012916D01*
X092907Y012886D01*
X092735Y012815D01*
X092821Y012851D02*
X091977Y012851D01*
X091898Y012929D02*
X092822Y012929D01*
X092743Y013008D02*
X091061Y013008D01*
X091049Y013086D02*
X092677Y013086D01*
X092644Y013165D02*
X091127Y013165D01*
X091206Y013243D02*
X092612Y013243D01*
X092605Y013322D02*
X091284Y013322D01*
X091363Y013401D02*
X092605Y013401D01*
X092608Y013479D02*
X091441Y013479D01*
X091520Y013558D02*
X092641Y013558D01*
X092673Y013636D02*
X091598Y013636D01*
X091677Y013715D02*
X092735Y013715D01*
X092813Y013793D02*
X091755Y013793D01*
X091834Y013872D02*
X092972Y013872D01*
X093298Y013872D02*
X093905Y013872D01*
X093905Y013950D02*
X091912Y013950D01*
X091991Y014029D02*
X093905Y014029D01*
X093905Y014107D02*
X092070Y014107D01*
X092148Y014186D02*
X093905Y014186D01*
X093905Y014264D02*
X092227Y014264D01*
X092285Y014343D02*
X093905Y014343D01*
X093905Y014422D02*
X092285Y014422D01*
X092285Y014500D02*
X093905Y014500D01*
X093905Y014579D02*
X092285Y014579D01*
X092285Y014657D02*
X093905Y014657D01*
X093905Y014736D02*
X092285Y014736D01*
X092285Y014814D02*
X093905Y014814D01*
X093905Y014893D02*
X093628Y014893D01*
X093665Y014971D02*
X093905Y014971D01*
X093905Y015050D02*
X093665Y015050D01*
X093665Y015128D02*
X093905Y015128D01*
X093905Y015207D02*
X093665Y015207D01*
X093665Y015286D02*
X093905Y015286D01*
X093905Y015364D02*
X093665Y015364D01*
X093665Y015443D02*
X093905Y015443D01*
X093905Y015521D02*
X093665Y015521D01*
X093665Y015600D02*
X093905Y015600D01*
X093905Y015678D02*
X093665Y015678D01*
X093665Y015757D02*
X093905Y015757D01*
X093905Y015835D02*
X093632Y015835D01*
X093405Y015914D02*
X093905Y015914D01*
X093905Y015992D02*
X093405Y015992D01*
X093405Y016071D02*
X093905Y016071D01*
X093905Y016150D02*
X093405Y016150D01*
X093405Y016228D02*
X093905Y016228D01*
X093905Y016307D02*
X093405Y016307D01*
X093405Y016385D02*
X093905Y016385D01*
X093905Y016464D02*
X093405Y016464D01*
X093395Y016542D02*
X093905Y016542D01*
X093923Y016621D02*
X093362Y016621D01*
X093300Y016699D02*
X093971Y016699D01*
X094095Y016778D02*
X093222Y016778D01*
X093143Y016856D02*
X094739Y016856D01*
X095026Y016935D02*
X093065Y016935D01*
X092986Y017014D02*
X095209Y017014D01*
X095391Y017092D02*
X092908Y017092D01*
X092829Y017171D02*
X095508Y017171D01*
X095618Y017249D02*
X092786Y017249D01*
X092750Y017328D02*
X095728Y017328D01*
X095835Y017406D02*
X092671Y017406D01*
X092526Y017485D02*
X095906Y017485D01*
X095978Y017563D02*
X091825Y017563D01*
X091825Y017485D02*
X092284Y017485D01*
X092139Y017406D02*
X091825Y017406D01*
X091825Y017394D02*
X091709Y017115D01*
X091496Y016901D01*
X091216Y016786D01*
X090914Y016786D01*
X090635Y016901D01*
X090421Y017115D01*
X090305Y017394D01*
X090305Y017697D01*
X090421Y017976D01*
X090635Y018190D01*
X090914Y018306D01*
X091216Y018306D01*
X091496Y018190D01*
X091709Y017976D01*
X091825Y017697D01*
X091825Y017394D01*
X091797Y017328D02*
X092060Y017328D01*
X092024Y017249D02*
X091765Y017249D01*
X091732Y017171D02*
X091991Y017171D01*
X091990Y017092D02*
X091686Y017092D01*
X091608Y017014D02*
X091990Y017014D01*
X092018Y016935D02*
X091529Y016935D01*
X091387Y016856D02*
X092051Y016856D01*
X092126Y016778D02*
X090551Y016778D01*
X090473Y016856D02*
X090743Y016856D01*
X090601Y016935D02*
X090394Y016935D01*
X090316Y017014D02*
X090522Y017014D01*
X090444Y017092D02*
X090237Y017092D01*
X090235Y017171D02*
X090398Y017171D01*
X090365Y017249D02*
X090235Y017249D01*
X090235Y017328D02*
X090333Y017328D01*
X090305Y017406D02*
X090235Y017406D01*
X090235Y017485D02*
X090305Y017485D01*
X090305Y017563D02*
X090235Y017563D01*
X090235Y017642D02*
X090305Y017642D01*
X090315Y017720D02*
X090235Y017720D01*
X090235Y017799D02*
X090347Y017799D01*
X090380Y017877D02*
X090235Y017877D01*
X090235Y017956D02*
X090412Y017956D01*
X090479Y018035D02*
X090235Y018035D01*
X090235Y018113D02*
X090558Y018113D01*
X090639Y018192D02*
X090235Y018192D01*
X090235Y018270D02*
X090828Y018270D01*
X091302Y018270D02*
X093426Y018270D01*
X093348Y018349D02*
X090235Y018349D01*
X090233Y018427D02*
X093298Y018427D01*
X093337Y018360D02*
X093599Y018097D01*
X093921Y017912D01*
X094279Y017816D01*
X094651Y017816D01*
X095009Y017912D01*
X095331Y018097D01*
X095593Y018360D01*
X095779Y018681D01*
X095875Y019040D01*
X095875Y019411D01*
X095779Y019770D01*
X095593Y020091D01*
X095331Y020354D01*
X095009Y020540D01*
X094651Y020636D01*
X094279Y020636D01*
X093921Y020540D01*
X093599Y020354D01*
X093337Y020091D01*
X093151Y019770D01*
X093055Y019411D01*
X093055Y019040D01*
X093151Y018681D01*
X093337Y018360D01*
X093252Y018506D02*
X090266Y018506D01*
X090266Y018584D02*
X093207Y018584D01*
X093162Y018663D02*
X090196Y018663D01*
X090117Y018741D02*
X093135Y018741D01*
X093114Y018820D02*
X090039Y018820D01*
X089960Y018899D02*
X093093Y018899D01*
X093072Y018977D02*
X089882Y018977D01*
X089662Y018977D02*
X088653Y018977D01*
X088731Y018899D02*
X089583Y018899D01*
X089505Y018820D02*
X088810Y018820D01*
X088889Y018741D02*
X089426Y018741D01*
X089348Y018663D02*
X088967Y018663D01*
X089046Y018584D02*
X089269Y018584D01*
X089250Y018506D02*
X089124Y018506D01*
X089203Y018427D02*
X089255Y018427D01*
X089281Y018349D02*
X089334Y018349D01*
X089360Y018270D02*
X089412Y018270D01*
X089438Y018192D02*
X089491Y018192D01*
X089517Y018113D02*
X089569Y018113D01*
X089595Y018035D02*
X089615Y018035D01*
X091491Y018192D02*
X093505Y018192D01*
X093584Y018113D02*
X091572Y018113D01*
X091651Y018035D02*
X093708Y018035D01*
X093844Y017956D02*
X091718Y017956D01*
X091750Y017877D02*
X094049Y017877D01*
X094881Y017877D02*
X096233Y017877D01*
X096187Y017799D02*
X091783Y017799D01*
X091815Y017720D02*
X096122Y017720D01*
X096050Y017642D02*
X091825Y017642D01*
X095086Y017956D02*
X096279Y017956D01*
X096325Y018035D02*
X095222Y018035D01*
X095347Y018113D02*
X096371Y018113D01*
X096417Y018192D02*
X095425Y018192D01*
X095504Y018270D02*
X096450Y018270D01*
X096476Y018349D02*
X095582Y018349D01*
X095632Y018427D02*
X096502Y018427D01*
X096528Y018506D02*
X095678Y018506D01*
X095723Y018584D02*
X096554Y018584D01*
X096580Y018663D02*
X095768Y018663D01*
X095795Y018741D02*
X096599Y018741D01*
X096607Y018820D02*
X095816Y018820D01*
X095837Y018899D02*
X096616Y018899D01*
X096624Y018977D02*
X095858Y018977D01*
X095875Y019056D02*
X096632Y019056D01*
X096641Y019134D02*
X095875Y019134D01*
X095875Y019213D02*
X096649Y019213D01*
X096643Y019291D02*
X095875Y019291D01*
X095875Y019370D02*
X096635Y019370D01*
X096627Y019448D02*
X095865Y019448D01*
X095844Y019527D02*
X096618Y019527D01*
X096610Y019605D02*
X095823Y019605D01*
X095802Y019684D02*
X096602Y019684D01*
X096588Y019763D02*
X095781Y019763D01*
X095738Y019841D02*
X096562Y019841D01*
X096536Y019920D02*
X095692Y019920D01*
X095647Y019998D02*
X096511Y019998D01*
X096485Y020077D02*
X095602Y020077D01*
X095529Y020155D02*
X096459Y020155D01*
X096432Y020234D02*
X095451Y020234D01*
X095372Y020312D02*
X096386Y020312D01*
X096340Y020391D02*
X095267Y020391D01*
X095131Y020469D02*
X096294Y020469D01*
X096248Y020548D02*
X094978Y020548D01*
X094685Y020626D02*
X096202Y020626D01*
X096146Y020705D02*
X092854Y020705D01*
X092910Y020784D02*
X096074Y020784D01*
X096002Y020862D02*
X092943Y020862D01*
X092975Y020941D02*
X095930Y020941D01*
X095858Y021019D02*
X092975Y021019D01*
X092975Y021098D02*
X095765Y021098D01*
X095654Y021176D02*
X092965Y021176D01*
X092932Y021255D02*
X095544Y021255D01*
X095434Y021333D02*
X092900Y021333D01*
X092828Y021412D02*
X095269Y021412D01*
X095086Y021490D02*
X092750Y021490D01*
X092566Y021569D02*
X094870Y021569D01*
X094472Y021648D02*
X089583Y021648D01*
X089654Y021569D02*
X090324Y021569D01*
X090140Y021490D02*
X089685Y021490D01*
X089704Y021412D02*
X090062Y021412D01*
X089991Y021333D02*
X089807Y021333D01*
X089885Y021255D02*
X089958Y021255D01*
X089926Y021176D02*
X089923Y021176D01*
X089083Y021333D02*
X087507Y021333D01*
X087508Y021255D02*
X089005Y021255D01*
X088967Y021176D02*
X087509Y021176D01*
X087510Y021098D02*
X088934Y021098D01*
X088915Y021019D02*
X087510Y021019D01*
X087605Y020941D02*
X088915Y020941D01*
X088915Y020862D02*
X087683Y020862D01*
X087762Y020784D02*
X088938Y020784D01*
X088971Y020705D02*
X087811Y020705D01*
X087811Y020626D02*
X089015Y020626D01*
X089093Y020548D02*
X087758Y020548D01*
X087679Y020469D02*
X089210Y020469D01*
X089680Y020469D02*
X090902Y020469D01*
X090778Y020391D02*
X087601Y020391D01*
X087522Y020312D02*
X090719Y020312D01*
X090687Y020234D02*
X088312Y020234D01*
X088390Y020155D02*
X090685Y020155D01*
X090695Y020077D02*
X088469Y020077D01*
X088518Y019998D02*
X090728Y019998D01*
X090799Y019920D02*
X088518Y019920D01*
X088704Y019841D02*
X093192Y019841D01*
X093149Y019763D02*
X088783Y019763D01*
X088861Y019684D02*
X093128Y019684D01*
X093107Y019605D02*
X088869Y019605D01*
X088852Y019527D02*
X093086Y019527D01*
X093065Y019448D02*
X088774Y019448D01*
X088695Y019370D02*
X093055Y019370D01*
X093055Y019291D02*
X088617Y019291D01*
X088538Y019213D02*
X093055Y019213D01*
X093055Y019134D02*
X088496Y019134D01*
X088574Y019056D02*
X093055Y019056D01*
X093238Y019920D02*
X092150Y019920D01*
X092265Y019998D02*
X093283Y019998D01*
X093328Y020077D02*
X092344Y020077D01*
X092422Y020155D02*
X093401Y020155D01*
X093479Y020234D02*
X092501Y020234D01*
X092579Y020312D02*
X093558Y020312D01*
X093663Y020391D02*
X092658Y020391D01*
X092695Y020469D02*
X093799Y020469D01*
X093952Y020548D02*
X092705Y020548D01*
X092775Y020626D02*
X094245Y020626D01*
X092140Y021490D02*
X090750Y021490D01*
X090828Y021412D02*
X091186Y021412D01*
X091083Y021333D02*
X090900Y021333D01*
X090932Y021255D02*
X091005Y021255D01*
X090967Y021176D02*
X090965Y021176D01*
X091704Y021412D02*
X092062Y021412D01*
X091991Y021333D02*
X091807Y021333D01*
X091885Y021255D02*
X091958Y021255D01*
X091926Y021176D02*
X091923Y021176D01*
X092324Y021569D02*
X090566Y021569D01*
X090910Y020784D02*
X090938Y020784D01*
X090971Y020705D02*
X090854Y020705D01*
X090775Y020626D02*
X091015Y020626D01*
X091093Y020548D02*
X090628Y020548D01*
X090262Y020548D02*
X089797Y020548D01*
X089875Y020626D02*
X090115Y020626D01*
X090036Y020705D02*
X089919Y020705D01*
X089952Y020784D02*
X089980Y020784D01*
X091108Y020469D02*
X091210Y020469D01*
X088127Y020234D02*
X087444Y020234D01*
X087365Y020155D02*
X088048Y020155D01*
X087970Y020077D02*
X087286Y020077D01*
X087208Y019998D02*
X087891Y019998D01*
X087813Y019920D02*
X087151Y019920D01*
X087229Y019841D02*
X087734Y019841D01*
X087656Y019763D02*
X087308Y019763D01*
X087386Y019684D02*
X087577Y019684D01*
X087498Y019605D02*
X087465Y019605D01*
X086698Y019213D02*
X086405Y019213D01*
X086405Y019291D02*
X086620Y019291D01*
X086541Y019370D02*
X086390Y019370D01*
X086342Y019448D02*
X086462Y019448D01*
X086387Y019527D02*
X086263Y019527D01*
X086312Y019605D02*
X086185Y019605D01*
X086141Y019684D02*
X086236Y019684D01*
X085305Y019213D02*
X085225Y019213D01*
X085225Y019291D02*
X085243Y019291D01*
X085215Y019134D02*
X085441Y019134D01*
X085520Y019056D02*
X085137Y019056D01*
X085372Y018899D02*
X084826Y018899D01*
X084794Y018977D02*
X085446Y018977D01*
X085293Y018820D02*
X084859Y018820D01*
X084860Y018741D02*
X085215Y018741D01*
X085136Y018663D02*
X084860Y018663D01*
X084839Y018584D02*
X085058Y018584D01*
X084981Y018506D02*
X084807Y018506D01*
X084751Y018427D02*
X084981Y018427D01*
X085007Y018349D02*
X084672Y018349D01*
X084544Y018113D02*
X085334Y018113D01*
X085334Y018035D02*
X084575Y018035D01*
X084575Y017956D02*
X085400Y017956D01*
X085478Y017877D02*
X084575Y017877D01*
X084575Y017799D02*
X085557Y017799D01*
X085688Y017720D02*
X084575Y017720D01*
X084575Y017642D02*
X085714Y017642D01*
X085793Y017563D02*
X084575Y017563D01*
X084575Y017485D02*
X085871Y017485D01*
X086103Y017485D02*
X087305Y017485D01*
X087305Y017563D02*
X086182Y017563D01*
X086260Y017642D02*
X087305Y017642D01*
X087315Y017720D02*
X086339Y017720D01*
X086417Y017799D02*
X087347Y017799D01*
X087380Y017877D02*
X086496Y017877D01*
X086574Y017956D02*
X087412Y017956D01*
X087479Y018035D02*
X086653Y018035D01*
X086731Y018113D02*
X087408Y018113D01*
X087328Y018192D02*
X086759Y018192D01*
X086759Y018270D02*
X087247Y018270D01*
X087166Y018349D02*
X086684Y018349D01*
X086606Y018427D02*
X087086Y018427D01*
X087005Y018506D02*
X086527Y018506D01*
X086406Y018584D02*
X086926Y018584D01*
X086854Y018663D02*
X086405Y018663D01*
X086405Y018741D02*
X086821Y018741D01*
X086795Y018820D02*
X086405Y018820D01*
X086405Y018899D02*
X086795Y018899D01*
X086795Y018977D02*
X086405Y018977D01*
X086405Y019056D02*
X086795Y019056D01*
X086777Y019134D02*
X086405Y019134D01*
X085086Y018270D02*
X082445Y018270D01*
X082445Y018192D02*
X085164Y018192D01*
X084575Y017406D02*
X087305Y017406D01*
X087333Y017328D02*
X084575Y017328D01*
X084575Y017249D02*
X087365Y017249D01*
X087398Y017171D02*
X084575Y017171D01*
X084575Y017092D02*
X087444Y017092D01*
X087522Y017014D02*
X086410Y017014D01*
X086481Y016935D02*
X087601Y016935D01*
X087743Y016856D02*
X086514Y016856D01*
X086706Y016778D02*
X087810Y016778D01*
X087731Y016699D02*
X086784Y016699D01*
X086863Y016621D02*
X087653Y016621D01*
X087574Y016542D02*
X086941Y016542D01*
X087020Y016464D02*
X087495Y016464D01*
X087417Y016385D02*
X087099Y016385D01*
X087107Y016307D02*
X087338Y016307D01*
X087260Y016228D02*
X087091Y016228D01*
X087013Y016150D02*
X087173Y016150D01*
X087094Y016071D02*
X086934Y016071D01*
X086856Y015992D02*
X087016Y015992D01*
X086935Y015914D02*
X086777Y015914D01*
X086699Y015835D02*
X086858Y015835D01*
X086780Y015757D02*
X086620Y015757D01*
X086701Y015678D02*
X086459Y015678D01*
X086405Y015600D02*
X086663Y015600D01*
X086585Y015521D02*
X086396Y015521D01*
X086364Y015443D02*
X086506Y015443D01*
X086427Y015364D02*
X086296Y015364D01*
X086349Y015286D02*
X085897Y015286D01*
X085809Y015207D02*
X086270Y015207D01*
X086192Y015128D02*
X085625Y015128D01*
X085622Y015050D02*
X086113Y015050D01*
X085970Y014971D02*
X085589Y014971D01*
X085533Y014893D02*
X085891Y014893D01*
X085850Y014814D02*
X085422Y014814D01*
X085148Y014814D02*
X084508Y014814D01*
X084546Y014893D02*
X084813Y014893D01*
X084717Y014971D02*
X084546Y014971D01*
X084481Y015050D02*
X084639Y015050D01*
X084560Y015128D02*
X084402Y015128D01*
X084324Y015207D02*
X084481Y015207D01*
X084403Y015286D02*
X084245Y015286D01*
X084167Y015364D02*
X084324Y015364D01*
X084246Y015443D02*
X084088Y015443D01*
X083932Y015757D02*
X082265Y015757D01*
X082344Y015835D02*
X083873Y015835D01*
X083848Y015914D02*
X082404Y015914D01*
X082436Y015992D02*
X083848Y015992D01*
X083785Y016071D02*
X082445Y016071D01*
X082445Y016150D02*
X083706Y016150D01*
X083628Y016228D02*
X082445Y016228D01*
X082445Y016307D02*
X083600Y016307D01*
X085645Y015593D02*
X086446Y016394D01*
X086669Y016171D02*
X086103Y015606D01*
X086085Y015606D01*
X085645Y015593D02*
X085645Y015486D01*
X085845Y016046D02*
X085845Y016406D01*
X086205Y016766D01*
X086000Y017014D02*
X085826Y017014D01*
X085544Y017014D02*
X084539Y017014D01*
X087560Y015280D02*
X088725Y016446D01*
X088845Y016446D01*
X090630Y016699D02*
X092253Y016699D01*
X092361Y016621D02*
X090708Y016621D01*
X090787Y016542D02*
X092439Y016542D01*
X092518Y016464D02*
X090865Y016464D01*
X090944Y016385D02*
X092596Y016385D01*
X092675Y016307D02*
X091022Y016307D01*
X091101Y016228D02*
X092685Y016228D01*
X092685Y016150D02*
X091180Y016150D01*
X091258Y016071D02*
X092685Y016071D01*
X092685Y015992D02*
X091337Y015992D01*
X091415Y015914D02*
X092685Y015914D01*
X092639Y015835D02*
X091494Y015835D01*
X091572Y015757D02*
X092605Y015757D01*
X091245Y015207D02*
X091198Y015207D01*
X091205Y015128D02*
X092605Y015128D01*
X092605Y015050D02*
X092244Y015050D01*
X092285Y014971D02*
X092605Y014971D01*
X092642Y014893D02*
X092285Y014893D01*
X092085Y014926D02*
X091445Y014926D01*
X091245Y014726D01*
X091286Y015050D02*
X091200Y015050D01*
X091165Y015286D02*
X091167Y015286D01*
X090885Y015126D02*
X090885Y015046D01*
X089845Y014006D01*
X089845Y013486D01*
X089885Y013446D01*
X090285Y013766D02*
X090845Y013766D01*
X091685Y014606D01*
X092085Y014406D02*
X092085Y014926D01*
X092085Y014406D02*
X090765Y013086D01*
X090765Y012886D01*
X091085Y012929D02*
X091132Y012929D01*
X092134Y012694D02*
X092613Y012694D01*
X092565Y012615D02*
X092213Y012615D01*
X092291Y012537D02*
X092532Y012537D01*
X092505Y012458D02*
X092370Y012458D01*
X092448Y012379D02*
X092505Y012379D01*
X091685Y011866D02*
X091405Y012146D01*
X091685Y011866D02*
X091685Y011566D01*
X091965Y011286D01*
X091965Y011026D01*
X092065Y010926D01*
X093145Y010926D01*
X093277Y011058D01*
X093277Y011321D01*
X093725Y011358D02*
X093905Y011358D01*
X093905Y011280D02*
X093725Y011280D01*
X093725Y011201D02*
X093905Y011201D01*
X093905Y011123D02*
X093725Y011123D01*
X093725Y011044D02*
X093905Y011044D01*
X093905Y010966D02*
X093725Y010966D01*
X093803Y010730D02*
X093905Y010730D01*
X093905Y010651D02*
X093882Y010651D01*
X093845Y010406D02*
X093605Y010646D01*
X093525Y010726D01*
X093525Y011686D01*
X093445Y011766D01*
X093774Y011908D02*
X093905Y011908D01*
X093905Y011830D02*
X093803Y011830D01*
X093803Y011751D02*
X093905Y011751D01*
X093905Y011673D02*
X093794Y011673D01*
X093761Y011594D02*
X093905Y011594D01*
X093905Y011515D02*
X093725Y011515D01*
X093725Y011437D02*
X093905Y011437D01*
X092008Y011646D02*
X092005Y011646D01*
X093517Y012144D02*
X093905Y012144D01*
X093905Y012222D02*
X093549Y012222D01*
X093565Y012301D02*
X093905Y012301D01*
X093905Y012379D02*
X093565Y012379D01*
X093565Y012458D02*
X093905Y012458D01*
X093905Y012537D02*
X093538Y012537D01*
X093505Y012615D02*
X093905Y012615D01*
X093905Y012694D02*
X093457Y012694D01*
X093378Y012772D02*
X093905Y012772D01*
X093905Y012851D02*
X093277Y012851D01*
X093448Y012929D02*
X093905Y012929D01*
X093905Y013008D02*
X093527Y013008D01*
X093593Y013086D02*
X093905Y013086D01*
X093905Y013165D02*
X093626Y013165D01*
X093658Y013243D02*
X093905Y013243D01*
X093905Y013322D02*
X093665Y013322D01*
X093665Y013401D02*
X093905Y013401D01*
X093905Y013479D02*
X093662Y013479D01*
X093629Y013558D02*
X093905Y013558D01*
X093905Y013636D02*
X093597Y013636D01*
X093536Y013715D02*
X093905Y013715D01*
X093905Y013793D02*
X093457Y013793D01*
X090525Y015486D02*
X089325Y014286D01*
X087765Y013793D02*
X086380Y013793D01*
X086325Y013872D02*
X087736Y013872D01*
X087658Y013950D02*
X086325Y013950D01*
X086459Y013715D02*
X086981Y013715D01*
X087165Y013446D02*
X086445Y013446D01*
X086005Y013886D01*
X086805Y014526D02*
X087125Y014206D01*
X086502Y014422D02*
X086382Y014422D01*
X086456Y014500D02*
X086485Y014500D01*
X086965Y014966D02*
X087205Y014726D01*
X087205Y014526D01*
X086965Y014966D02*
X086965Y015131D01*
X087337Y015503D01*
X087349Y013715D02*
X087765Y013715D01*
X087765Y013636D02*
X087427Y013636D01*
X087465Y013558D02*
X087704Y013558D01*
X085965Y013126D02*
X085845Y013006D01*
X086565Y011846D02*
X086565Y011709D01*
X086892Y011383D01*
X086446Y010937D02*
X086433Y010937D01*
X088225Y010186D02*
X088725Y010646D01*
X088845Y010646D01*
X088805Y010486D02*
X089325Y010486D01*
X088805Y010486D02*
X088245Y009926D01*
X089245Y010013D02*
X089298Y010001D01*
X089725Y011126D02*
X090765Y010086D01*
X091245Y010086D01*
X091445Y009886D01*
X091445Y009406D01*
X091965Y008886D01*
X093245Y008886D01*
X093705Y008426D01*
X093705Y007766D01*
X094145Y007326D01*
X095445Y007326D01*
X096525Y006246D01*
X096525Y004406D01*
X095525Y003406D01*
X093885Y003406D01*
X093045Y004246D01*
X092725Y004086D02*
X092725Y004886D01*
X092565Y005046D01*
X091725Y005046D01*
X091045Y005046D01*
X091125Y005206D02*
X090965Y005366D01*
X082445Y005366D01*
X084365Y005866D02*
X084465Y005766D01*
X084965Y005766D01*
X085485Y005766D01*
X085525Y005806D01*
X085525Y006046D01*
X085965Y005646D02*
X086165Y005846D01*
X086635Y005846D01*
X086655Y005866D01*
X087285Y005906D02*
X087285Y006246D01*
X087205Y006326D01*
X085685Y006326D01*
X085525Y006486D01*
X085045Y006486D02*
X084445Y006486D01*
X084365Y006566D01*
X084365Y007106D01*
X082645Y007406D02*
X082485Y007246D01*
X082645Y007406D02*
X082645Y007806D01*
X082805Y007966D01*
X082805Y008406D01*
X082125Y009086D01*
X082125Y009166D01*
X083485Y009646D02*
X083485Y009686D01*
X083405Y010038D02*
X083393Y010051D01*
X084005Y010046D02*
X084005Y009948D01*
X084005Y010046D02*
X084023Y010051D01*
X084337Y010051D02*
X084343Y010046D01*
X083855Y010456D02*
X084023Y010623D01*
X084023Y010841D01*
X084005Y010858D01*
X083708Y010841D02*
X083685Y010863D01*
X083708Y010841D02*
X083708Y010668D01*
X083645Y010606D01*
X084337Y010841D02*
X084372Y010806D01*
X082405Y011048D02*
X082397Y011041D01*
X082083Y011041D02*
X082083Y011003D01*
X082085Y010926D01*
X081765Y010606D01*
X081625Y010786D02*
X081768Y010928D01*
X081768Y011041D01*
X077925Y011515D02*
X077870Y011515D01*
X077925Y011594D02*
X077791Y011594D01*
X077713Y011673D02*
X077925Y011673D01*
X077932Y011751D02*
X077548Y011751D01*
X075925Y012379D02*
X079765Y012379D01*
X076813Y012458D02*
X075925Y012458D01*
X075897Y012537D02*
X076735Y012537D01*
X076656Y012615D02*
X075848Y012615D01*
X075864Y012694D02*
X076578Y012694D01*
X076499Y012772D02*
X075944Y012772D01*
X075984Y012851D02*
X076421Y012851D01*
X076342Y012929D02*
X076005Y012929D01*
X076005Y013008D02*
X076263Y013008D01*
X073979Y013479D02*
X073491Y013479D01*
X073491Y013401D02*
X073900Y013401D01*
X073822Y013322D02*
X073418Y013322D01*
X073491Y013558D02*
X074058Y013558D01*
X074136Y013636D02*
X073491Y013636D01*
X073491Y013715D02*
X074215Y013715D01*
X074293Y013793D02*
X073491Y013793D01*
X073491Y013872D02*
X074372Y013872D01*
X074450Y013950D02*
X073462Y013950D01*
X073491Y014029D02*
X074529Y014029D01*
X074607Y014107D02*
X073491Y014107D01*
X073491Y014186D02*
X074686Y014186D01*
X074764Y014264D02*
X073491Y014264D01*
X073491Y014343D02*
X074843Y014343D01*
X073972Y014893D02*
X073491Y014893D01*
X073491Y014971D02*
X073935Y014971D01*
X073935Y015050D02*
X073491Y015050D01*
X073465Y015128D02*
X073935Y015128D01*
X073935Y015207D02*
X073491Y015207D01*
X073491Y015286D02*
X073935Y015286D01*
X073935Y015364D02*
X073491Y015364D01*
X073491Y015443D02*
X073935Y015443D01*
X073935Y015521D02*
X073491Y015521D01*
X073491Y015600D02*
X073935Y015600D01*
X073935Y015678D02*
X073491Y015678D01*
X073490Y015757D02*
X073935Y015757D01*
X073935Y015835D02*
X073491Y015835D01*
X073491Y015914D02*
X073935Y015914D01*
X073966Y015992D02*
X073491Y015992D01*
X073491Y016071D02*
X074321Y016071D01*
X074400Y016150D02*
X073491Y016150D01*
X073491Y016228D02*
X074478Y016228D01*
X074557Y016307D02*
X073468Y016307D01*
X073491Y016385D02*
X074635Y016385D01*
X074714Y016464D02*
X073491Y016464D01*
X073491Y016542D02*
X074793Y016542D01*
X074871Y016621D02*
X073491Y016621D01*
X073491Y016699D02*
X074950Y016699D01*
X075028Y016778D02*
X073491Y016778D01*
X073491Y016856D02*
X073943Y016856D01*
X073835Y016901D02*
X073621Y017115D01*
X073505Y017394D01*
X073505Y017697D01*
X073621Y017976D01*
X073835Y018190D01*
X074114Y018306D01*
X074416Y018306D01*
X074696Y018190D01*
X074909Y017976D01*
X075025Y017697D01*
X075025Y017394D01*
X074909Y017115D01*
X074696Y016901D01*
X074416Y016786D01*
X074114Y016786D01*
X073835Y016901D01*
X073801Y016935D02*
X073488Y016935D01*
X073491Y017014D02*
X073722Y017014D01*
X073644Y017092D02*
X073491Y017092D01*
X073491Y017171D02*
X073598Y017171D01*
X073565Y017249D02*
X073491Y017249D01*
X073491Y017328D02*
X073533Y017328D01*
X073505Y017406D02*
X073491Y017406D01*
X073505Y017485D02*
X073471Y017485D01*
X073491Y017563D02*
X073505Y017563D01*
X073505Y017642D02*
X073491Y017642D01*
X073491Y017720D02*
X073515Y017720D01*
X073491Y017799D02*
X073547Y017799D01*
X073580Y017877D02*
X073491Y017877D01*
X073491Y017956D02*
X073612Y017956D01*
X073679Y018035D02*
X073491Y018035D01*
X073475Y018113D02*
X073758Y018113D01*
X073839Y018192D02*
X073476Y018192D01*
X073476Y018270D02*
X074028Y018270D01*
X074502Y018270D02*
X075045Y018270D01*
X075045Y018192D02*
X074691Y018192D01*
X074772Y018113D02*
X075045Y018113D01*
X075045Y018035D02*
X074851Y018035D01*
X074918Y017956D02*
X075045Y017956D01*
X075045Y017877D02*
X074950Y017877D01*
X074983Y017799D02*
X075045Y017799D01*
X075045Y017720D02*
X075015Y017720D01*
X075025Y017642D02*
X075045Y017642D01*
X075045Y017563D02*
X075025Y017563D01*
X075025Y017485D02*
X075045Y017485D01*
X075045Y017406D02*
X075025Y017406D01*
X075045Y017328D02*
X074997Y017328D01*
X074965Y017249D02*
X075045Y017249D01*
X075045Y017171D02*
X074932Y017171D01*
X074886Y017092D02*
X075045Y017092D01*
X075045Y017014D02*
X074808Y017014D01*
X074729Y016935D02*
X075045Y016935D01*
X075045Y016856D02*
X074587Y016856D01*
X075654Y016385D02*
X075765Y016385D01*
X075765Y016464D02*
X075719Y016464D01*
X075796Y016307D02*
X075575Y016307D01*
X075497Y016228D02*
X075850Y016228D01*
X075964Y016150D02*
X075418Y016150D01*
X076095Y016778D02*
X078514Y016778D01*
X078473Y016699D02*
X076284Y016699D01*
X077587Y016856D02*
X078592Y016856D01*
X078671Y016935D02*
X077729Y016935D01*
X077808Y017014D02*
X078749Y017014D01*
X078774Y017092D02*
X077886Y017092D01*
X077932Y017171D02*
X078776Y017171D01*
X078854Y017249D02*
X077965Y017249D01*
X077997Y017328D02*
X078890Y017328D01*
X079214Y017756D02*
X079351Y017893D01*
X079725Y017893D02*
X079725Y017853D01*
X080085Y017907D02*
X080099Y017893D01*
X080112Y017906D01*
X078508Y018192D02*
X077691Y018192D01*
X077772Y018113D02*
X077966Y018113D01*
X077911Y018035D02*
X077851Y018035D01*
X077502Y018270D02*
X079127Y018270D01*
X079636Y018584D02*
X079814Y018584D01*
X079814Y018663D02*
X079636Y018663D01*
X079636Y018741D02*
X079814Y018741D01*
X079813Y018820D02*
X079636Y018820D01*
X079636Y018899D02*
X079814Y018899D01*
X079814Y018977D02*
X079636Y018977D01*
X079636Y019056D02*
X079814Y019056D01*
X079814Y019134D02*
X079616Y019134D01*
X079445Y019213D02*
X079814Y019213D01*
X079814Y019291D02*
X079019Y019291D01*
X078967Y019370D02*
X079756Y019370D01*
X080436Y019605D02*
X080501Y019605D01*
X080436Y019684D02*
X081038Y019684D01*
X081003Y019605D02*
X080629Y019605D01*
X080776Y019527D02*
X080971Y019527D01*
X080943Y019448D02*
X080844Y019448D01*
X081116Y019763D02*
X080436Y019763D01*
X080436Y019841D02*
X081229Y019841D01*
X080099Y019746D02*
X080060Y019706D01*
X079390Y019706D02*
X079390Y019751D01*
X082162Y020595D02*
X082256Y020500D01*
X082380Y020449D01*
X082514Y020449D01*
X082638Y020500D01*
X082733Y020595D01*
X082785Y020719D01*
X082785Y020853D01*
X082733Y020977D01*
X082638Y021071D01*
X082514Y021123D01*
X082380Y021123D01*
X082256Y021071D01*
X082162Y020977D01*
X082110Y020853D01*
X082110Y020719D01*
X082162Y020595D01*
X082148Y020626D02*
X063685Y020626D01*
X063685Y020548D02*
X082208Y020548D01*
X082330Y020469D02*
X064940Y020469D01*
X064750Y020469D02*
X063685Y020469D01*
X063685Y020391D02*
X064634Y020391D01*
X064556Y020312D02*
X063685Y020312D01*
X063685Y020234D02*
X064477Y020234D01*
X064399Y020155D02*
X063685Y020155D01*
X063685Y020077D02*
X064320Y020077D01*
X064242Y019998D02*
X063685Y019998D01*
X063758Y019920D02*
X064180Y019920D01*
X064149Y019841D02*
X063836Y019841D01*
X063887Y019763D02*
X064149Y019763D01*
X064149Y019684D02*
X063919Y019684D01*
X063952Y019605D02*
X064149Y019605D01*
X064149Y019527D02*
X063984Y019527D01*
X064005Y019448D02*
X064088Y019448D01*
X064072Y019370D02*
X064005Y019370D01*
X064005Y019291D02*
X064072Y019291D01*
X064072Y019213D02*
X064005Y019213D01*
X064005Y019134D02*
X064072Y019134D01*
X064072Y019056D02*
X063981Y019056D01*
X063948Y018977D02*
X064072Y018977D01*
X064072Y018899D02*
X063915Y018899D01*
X063883Y018820D02*
X064072Y018820D01*
X064072Y018741D02*
X063828Y018741D01*
X063749Y018663D02*
X064072Y018663D01*
X064072Y018584D02*
X063685Y018584D01*
X063685Y018506D02*
X064072Y018506D01*
X064072Y018427D02*
X063685Y018427D01*
X063685Y018349D02*
X064072Y018349D01*
X064072Y018270D02*
X063685Y018270D01*
X063685Y018192D02*
X064072Y018192D01*
X064072Y018113D02*
X063685Y018113D01*
X063685Y018035D02*
X064072Y018035D01*
X064072Y017956D02*
X063685Y017956D01*
X063685Y017877D02*
X064117Y017877D01*
X063685Y017799D02*
X071160Y017799D01*
X071117Y017720D02*
X063685Y017720D01*
X063685Y017642D02*
X071095Y017642D01*
X071095Y017563D02*
X063685Y017563D01*
X063685Y017485D02*
X071095Y017485D01*
X071095Y017406D02*
X063685Y017406D01*
X063685Y017328D02*
X071095Y017328D01*
X071095Y017249D02*
X063685Y017249D01*
X063685Y017171D02*
X071095Y017171D01*
X071095Y017092D02*
X063685Y017092D01*
X063685Y017014D02*
X071095Y017014D01*
X071095Y016935D02*
X063685Y016935D01*
X063685Y016856D02*
X071095Y016856D01*
X071095Y016778D02*
X063685Y016778D01*
X063685Y016699D02*
X071095Y016699D01*
X071095Y016621D02*
X063685Y016621D01*
X063685Y016542D02*
X071095Y016542D01*
X071095Y016464D02*
X063685Y016464D01*
X063685Y016385D02*
X071095Y016385D01*
X071095Y016307D02*
X063685Y016307D01*
X063685Y016228D02*
X071095Y016228D01*
X071095Y016150D02*
X063685Y016150D01*
X063685Y016071D02*
X071095Y016071D01*
X071095Y015992D02*
X063685Y015992D01*
X063685Y015914D02*
X071095Y015914D01*
X071095Y015835D02*
X063685Y015835D01*
X063685Y015757D02*
X071095Y015757D01*
X071095Y015678D02*
X063685Y015678D01*
X063685Y015600D02*
X071095Y015600D01*
X071095Y015521D02*
X063685Y015521D01*
X063685Y015443D02*
X071095Y015443D01*
X071095Y015364D02*
X063685Y015364D01*
X063685Y015286D02*
X071095Y015286D01*
X071095Y015207D02*
X063685Y015207D01*
X063685Y015128D02*
X071095Y015128D01*
X071095Y015050D02*
X063685Y015050D01*
X063685Y014971D02*
X071052Y014971D01*
X070974Y014893D02*
X063685Y014893D01*
X063685Y014814D02*
X070881Y014814D01*
X070833Y014736D02*
X063685Y014736D01*
X063685Y014657D02*
X070805Y014657D01*
X070805Y014579D02*
X063685Y014579D01*
X063685Y014500D02*
X070815Y014500D01*
X070815Y014422D02*
X063685Y014422D01*
X063685Y014343D02*
X070815Y014343D01*
X070815Y014264D02*
X063685Y014264D01*
X063685Y014186D02*
X070815Y014186D01*
X070815Y014107D02*
X063685Y014107D01*
X063685Y014029D02*
X070840Y014029D01*
X070887Y013950D02*
X063685Y013950D01*
X063685Y013872D02*
X070965Y013872D01*
X071044Y013793D02*
X063685Y013793D01*
X063685Y013715D02*
X071122Y013715D01*
X071201Y013636D02*
X063685Y013636D01*
X063685Y013558D02*
X064103Y013558D01*
X064072Y013479D02*
X063685Y013479D01*
X063685Y013401D02*
X064072Y013401D01*
X064072Y013322D02*
X063685Y013322D01*
X063685Y013243D02*
X064072Y013243D01*
X064072Y013165D02*
X063685Y013165D01*
X063685Y013086D02*
X064072Y013086D01*
X064072Y013008D02*
X063685Y013008D01*
X063685Y012929D02*
X064072Y012929D01*
X064072Y012851D02*
X063685Y012851D01*
X063685Y012772D02*
X064072Y012772D01*
X064072Y012694D02*
X063685Y012694D01*
X063685Y012615D02*
X064072Y012615D01*
X064065Y012537D02*
X063685Y012537D01*
X063685Y012458D02*
X064065Y012458D01*
X064065Y012379D02*
X063685Y012379D01*
X063685Y012301D02*
X064065Y012301D01*
X064065Y012222D02*
X063685Y012222D01*
X063685Y012144D02*
X064065Y012144D01*
X064065Y012065D02*
X063685Y012065D01*
X063685Y011987D02*
X064065Y011987D01*
X064065Y011908D02*
X063685Y011908D01*
X063685Y011830D02*
X064065Y011830D01*
X064065Y011751D02*
X063994Y011680D01*
X063958Y011594D02*
X063685Y011594D01*
X063685Y011515D02*
X063926Y011515D01*
X063920Y011437D02*
X063685Y011437D01*
X063685Y011358D02*
X063920Y011358D01*
X063932Y011280D02*
X063685Y011280D01*
X063685Y011201D02*
X063965Y011201D01*
X064002Y011123D02*
X063685Y011123D01*
X063685Y011044D02*
X064081Y011044D01*
X064200Y010966D02*
X063685Y010966D01*
X063685Y010887D02*
X067326Y010887D01*
X067293Y010809D02*
X063685Y010809D01*
X063685Y010730D02*
X067285Y010730D01*
X067289Y010651D02*
X063685Y010651D01*
X063685Y010573D02*
X067322Y010573D01*
X067392Y010966D02*
X065610Y010966D01*
X065729Y011044D02*
X067538Y011044D01*
X067611Y011123D02*
X065808Y011123D01*
X065845Y011201D02*
X067643Y011201D01*
X067707Y011280D02*
X065878Y011280D01*
X065890Y011358D02*
X067844Y011358D01*
X067928Y011437D02*
X065890Y011437D01*
X065884Y011515D02*
X067961Y011515D01*
X068021Y011594D02*
X065852Y011594D01*
X065819Y011673D02*
X068150Y011673D01*
X068340Y011673D02*
X069769Y011673D01*
X069769Y011751D02*
X065745Y011751D01*
X065648Y011830D02*
X069769Y011830D01*
X069769Y011908D02*
X065383Y011908D01*
X064893Y011437D02*
X064890Y011437D01*
X064890Y011358D02*
X064920Y011358D01*
X064932Y011280D02*
X064878Y011280D01*
X064845Y011201D02*
X064965Y011201D01*
X065002Y011123D02*
X064808Y011123D01*
X064729Y011044D02*
X065081Y011044D01*
X065200Y010966D02*
X064610Y010966D01*
X068469Y011594D02*
X069769Y011594D01*
X069769Y011515D02*
X068529Y011515D01*
X068562Y011437D02*
X069769Y011437D01*
X070561Y011437D02*
X071857Y011437D01*
X071935Y011515D02*
X070575Y011515D01*
X070578Y011594D02*
X072014Y011594D01*
X072093Y011673D02*
X070575Y011673D01*
X070575Y011751D02*
X072171Y011751D01*
X072205Y011830D02*
X070575Y011830D01*
X070575Y011908D02*
X072205Y011908D01*
X072211Y011987D02*
X071842Y011987D01*
X071873Y012065D02*
X072245Y012065D01*
X072324Y012144D02*
X071873Y012144D01*
X071873Y012222D02*
X072402Y012222D01*
X072481Y012301D02*
X071873Y012301D01*
X071873Y012379D02*
X072559Y012379D01*
X072638Y012458D02*
X071873Y012458D01*
X071873Y012537D02*
X072717Y012537D01*
X072795Y012615D02*
X071873Y012615D01*
X071873Y012694D02*
X072874Y012694D01*
X072952Y012772D02*
X071873Y012772D01*
X071873Y012851D02*
X073031Y012851D01*
X073109Y012929D02*
X071873Y012929D01*
X071873Y013008D02*
X073188Y013008D01*
X073586Y013086D02*
X071873Y013086D01*
X071873Y013165D02*
X073665Y013165D01*
X073743Y013243D02*
X071873Y013243D01*
X071159Y013243D02*
X070692Y013243D01*
X070692Y013165D02*
X071159Y013165D01*
X071159Y013086D02*
X070692Y013086D01*
X070692Y013008D02*
X071159Y013008D01*
X071159Y012929D02*
X070692Y012929D01*
X070692Y012851D02*
X071159Y012851D01*
X071159Y012772D02*
X070692Y012772D01*
X070692Y012694D02*
X071159Y012694D01*
X071159Y012615D02*
X070692Y012615D01*
X070692Y012537D02*
X071159Y012537D01*
X071159Y012458D02*
X070692Y012458D01*
X070692Y012379D02*
X071159Y012379D01*
X071159Y012301D02*
X070692Y012301D01*
X070692Y012222D02*
X071159Y012222D01*
X071159Y012144D02*
X070692Y012144D01*
X070692Y012065D02*
X071159Y012065D01*
X071189Y011987D02*
X070661Y011987D01*
X070925Y012572D02*
X070925Y012772D01*
X070335Y012772D02*
X070325Y012603D01*
X073525Y011486D02*
X073885Y011846D01*
X074565Y011846D01*
X074885Y012166D01*
X073525Y011486D02*
X073525Y011286D01*
X072765Y010526D01*
X072765Y010326D01*
X074645Y009326D02*
X075125Y009806D01*
X074085Y008686D02*
X073885Y008886D01*
X073685Y008886D01*
X076645Y007926D02*
X076645Y006806D01*
X078445Y007106D02*
X078445Y007686D01*
X079405Y008646D01*
X079685Y008246D02*
X079685Y006646D01*
X079365Y006326D01*
X081405Y007106D02*
X081465Y007046D01*
X081605Y007046D01*
X087325Y007106D02*
X087465Y006966D01*
X087965Y006966D01*
X090285Y007106D02*
X090385Y007006D01*
X091405Y007006D01*
X091805Y006806D02*
X091405Y006406D01*
X091405Y006006D01*
X091245Y005846D01*
X091245Y005526D01*
X091125Y005206D02*
X091405Y005206D01*
X091565Y005366D01*
X093125Y005366D01*
X093245Y005486D01*
X093245Y005866D01*
X092575Y005866D02*
X092395Y005686D01*
X092315Y005766D01*
X092005Y005766D01*
X091845Y005926D01*
X091085Y006166D02*
X090585Y006166D01*
X090285Y005866D01*
X089615Y005866D02*
X089515Y005766D01*
X088645Y005766D01*
X088085Y005686D02*
X087505Y005686D01*
X087325Y005866D01*
X087285Y005906D01*
X088485Y004886D02*
X088645Y004726D01*
X088805Y004886D01*
X090245Y004886D01*
X090765Y004366D01*
X092005Y004366D01*
X092405Y004206D02*
X092045Y003846D01*
X090005Y003846D01*
X090485Y003246D02*
X090725Y003486D01*
X090485Y003246D02*
X086845Y003246D01*
X086565Y003606D02*
X085685Y003606D01*
X085445Y003366D01*
X084965Y003366D01*
X084565Y002966D01*
X081045Y002966D01*
X080965Y003046D01*
X080805Y003046D01*
X080645Y003046D01*
X080565Y002966D01*
X077365Y002966D01*
X077125Y002726D01*
X076565Y002726D01*
X076325Y002966D01*
X068485Y002966D01*
X068165Y002646D01*
X064965Y002646D01*
X064805Y002806D01*
X064245Y002806D01*
X064085Y002966D01*
X061605Y002966D01*
X061205Y002566D01*
X060325Y002566D01*
X059925Y002966D01*
X059365Y002966D01*
X059205Y003126D01*
X057125Y003126D01*
X056965Y002966D01*
X056405Y002966D01*
X056085Y003286D01*
X055845Y003286D01*
X055525Y002966D01*
X049845Y002966D01*
X049685Y003126D01*
X047205Y003126D01*
X047045Y003286D01*
X045685Y003286D01*
X045525Y003126D01*
X041045Y003126D01*
X040965Y003046D01*
X040245Y003046D01*
X040165Y003126D01*
X039285Y003126D01*
X039205Y003046D01*
X038245Y003046D01*
X038005Y003286D01*
X037445Y003286D01*
X037365Y003206D01*
X036165Y003206D01*
X035925Y003446D01*
X033605Y003446D01*
X032485Y004246D02*
X032165Y003926D01*
X029765Y003926D01*
X029445Y004246D01*
X028325Y004246D01*
X028005Y003926D01*
X027445Y003926D01*
X027125Y004246D01*
X026085Y004246D01*
X025765Y003926D01*
X025445Y003926D01*
X025285Y004086D01*
X024965Y004086D01*
X022725Y004086D01*
X022565Y004246D01*
X020485Y004246D01*
X020165Y003926D01*
X018085Y003926D01*
X017765Y004246D01*
X016485Y004246D01*
X016165Y003926D01*
X015605Y003926D01*
X015285Y004246D01*
X015125Y004246D01*
X014885Y004486D01*
X014645Y004246D01*
X014245Y004246D01*
X013925Y003926D01*
X013605Y003926D01*
X013445Y004086D01*
X013045Y004086D01*
X012885Y004246D01*
X010885Y004246D01*
X010725Y004406D01*
X004325Y004406D01*
X003365Y005366D01*
X001445Y005366D01*
X001215Y005596D01*
X001215Y005866D01*
X001885Y005866D02*
X003105Y005866D01*
X004405Y004566D01*
X010805Y004566D01*
X010965Y004406D01*
X013605Y004406D01*
X013765Y004246D01*
X013925Y004406D01*
X014565Y004406D01*
X014885Y004726D01*
X015205Y004406D01*
X015365Y004406D01*
X015685Y004086D01*
X016085Y004086D01*
X016405Y004406D01*
X017845Y004406D01*
X018165Y004086D01*
X020085Y004086D01*
X020405Y004406D01*
X022645Y004406D01*
X022805Y004246D01*
X024565Y004246D01*
X024725Y004406D01*
X025445Y004406D01*
X025605Y004246D01*
X025765Y004406D01*
X027205Y004406D01*
X027525Y004086D01*
X027925Y004086D01*
X028245Y004406D01*
X029525Y004406D01*
X029845Y004086D01*
X032085Y004086D01*
X032405Y004406D01*
X034645Y004406D01*
X034805Y004246D01*
X035765Y004246D01*
X035925Y004406D01*
X037525Y004406D01*
X037685Y004246D01*
X037845Y004406D01*
X039125Y004406D01*
X039445Y004086D01*
X039925Y004086D01*
X040245Y004406D01*
X041205Y004406D01*
X041525Y004086D01*
X043685Y004086D01*
X044005Y004406D01*
X046325Y004406D01*
X046485Y004246D01*
X047445Y004246D01*
X047605Y004406D01*
X049605Y004406D01*
X049765Y004246D01*
X049925Y004406D01*
X050645Y004406D01*
X050965Y004086D01*
X052325Y004086D01*
X052645Y004406D01*
X053445Y004406D01*
X053765Y004086D01*
X054405Y004086D01*
X054725Y004406D01*
X060565Y004406D01*
X060725Y004246D01*
X060885Y004406D01*
X062405Y004406D01*
X062725Y004086D01*
X063925Y004086D01*
X064245Y004406D01*
X065205Y004406D01*
X065525Y004086D01*
X067045Y004086D01*
X067365Y004406D01*
X072405Y004406D01*
X072565Y004246D01*
X072725Y004406D01*
X074245Y004406D01*
X074565Y004086D01*
X075765Y004086D01*
X076085Y004406D01*
X077205Y004406D01*
X077525Y004086D01*
X079205Y004086D01*
X079525Y004406D01*
X081525Y004406D01*
X081685Y004246D01*
X082645Y004246D01*
X082805Y004406D01*
X084885Y004406D01*
X085045Y004246D01*
X084325Y004086D02*
X083845Y003606D01*
X082725Y003606D01*
X082565Y003766D01*
X081445Y003766D01*
X081285Y003926D01*
X079765Y003926D01*
X079445Y003606D01*
X077285Y003606D01*
X076965Y003926D01*
X076325Y003926D01*
X076005Y003606D01*
X074325Y003606D01*
X074005Y003926D01*
X073205Y003926D01*
X073205Y003766D01*
X073205Y003926D02*
X072885Y003606D01*
X071125Y003606D01*
X070805Y003926D01*
X067605Y003926D01*
X067285Y003606D01*
X065285Y003606D01*
X064965Y003926D01*
X064485Y003926D01*
X064165Y003606D01*
X061285Y003606D01*
X061125Y003446D01*
X060725Y003446D01*
X060565Y003606D01*
X059685Y003606D01*
X059365Y003926D01*
X054965Y003926D01*
X054645Y003606D01*
X053525Y003606D01*
X053205Y003926D01*
X052885Y003926D01*
X052565Y003606D01*
X050165Y003606D01*
X050005Y003766D01*
X048085Y003766D01*
X047925Y003926D01*
X047845Y003926D01*
X046325Y003926D01*
X046165Y004086D01*
X044165Y004086D01*
X043845Y003766D01*
X041365Y003766D01*
X041045Y004086D01*
X040405Y004086D01*
X040085Y003766D01*
X039285Y003766D01*
X039125Y003926D01*
X038645Y003926D01*
X038245Y004246D02*
X037925Y003926D01*
X037205Y003926D01*
X037045Y004086D01*
X036565Y004086D01*
X036405Y004246D01*
X036005Y004246D01*
X035845Y004086D01*
X034725Y004086D01*
X034565Y004246D01*
X032485Y004246D01*
X035285Y005766D02*
X035685Y005366D01*
X046565Y005366D01*
X046965Y005766D01*
X046865Y005866D01*
X046125Y005866D01*
X045455Y005866D02*
X044625Y005866D01*
X044405Y006086D01*
X043845Y005686D02*
X043665Y005866D01*
X043245Y005866D01*
X042575Y005866D02*
X041785Y005866D01*
X041765Y005846D01*
X041125Y005686D02*
X040945Y005866D01*
X040365Y005866D01*
X039695Y005866D02*
X038985Y005866D01*
X038965Y005846D01*
X038165Y005766D02*
X038065Y005866D01*
X037405Y005866D01*
X036735Y005866D02*
X036185Y005866D01*
X036085Y005766D01*
X036245Y006646D02*
X036245Y007446D01*
X037405Y007106D02*
X038565Y008266D01*
X038565Y008566D01*
X040645Y007686D02*
X041525Y008566D01*
X043685Y008326D02*
X043685Y007606D01*
X043245Y007166D01*
X043245Y007106D01*
X044325Y006886D02*
X044325Y008246D01*
X044085Y008726D02*
X043685Y008326D01*
X041525Y007846D02*
X041525Y007206D01*
X041125Y006806D01*
X041125Y006566D01*
X040365Y007106D02*
X040365Y007166D01*
X040645Y007446D01*
X040645Y007686D01*
X038565Y007606D02*
X038565Y006726D01*
X038405Y006566D01*
X038325Y006566D01*
X032645Y007606D02*
X032325Y007286D01*
X032325Y006966D01*
X032645Y007606D02*
X032645Y008246D01*
X021445Y008406D02*
X021445Y006726D01*
X021525Y006646D01*
X020805Y006806D02*
X020805Y008326D01*
X020725Y008726D02*
X020405Y008406D01*
X020405Y006966D01*
X020085Y006646D01*
X018645Y006646D01*
X018565Y006726D01*
X018565Y007766D01*
X018325Y008006D01*
X017685Y008006D01*
X017445Y007766D01*
X017445Y007046D01*
X017045Y006646D01*
X012165Y006646D01*
X011925Y006886D01*
X010785Y007106D02*
X010765Y007106D01*
X013725Y007106D02*
X013825Y007106D01*
X014245Y007526D01*
X014245Y008086D01*
X014805Y008646D01*
X017125Y007846D02*
X017845Y008566D01*
X020165Y008566D02*
X020165Y007606D01*
X019665Y007106D01*
X019645Y007106D01*
X017845Y006646D02*
X017845Y007606D01*
X017125Y007606D02*
X017125Y007846D01*
X017125Y007606D02*
X016685Y007166D01*
X016685Y007106D01*
X015205Y007126D02*
X015045Y006966D01*
X015205Y007126D02*
X015205Y007686D01*
X020165Y008566D02*
X020485Y008886D01*
X020725Y008726D02*
X021125Y008726D01*
X021445Y008406D01*
X006405Y005766D02*
X005925Y005766D01*
X005445Y005286D01*
X006085Y006566D02*
X006005Y006646D01*
X006005Y008406D01*
X004945Y007106D02*
X004845Y007106D01*
X016645Y004086D02*
X016645Y003926D01*
X016645Y004086D02*
X017685Y004086D01*
X021925Y003286D02*
X024245Y003286D01*
X024405Y003126D01*
X026165Y003126D01*
X038245Y004246D02*
X039045Y004246D01*
X039365Y003926D01*
X040005Y003926D01*
X040325Y004246D01*
X041125Y004246D01*
X041445Y003926D01*
X043765Y003926D01*
X044085Y004246D01*
X046245Y004246D01*
X046405Y004086D01*
X047525Y004086D01*
X047685Y004246D01*
X048245Y004246D01*
X048405Y004086D01*
X049365Y004086D01*
X049525Y003926D01*
X049925Y003926D01*
X050245Y004246D01*
X050565Y004246D01*
X050885Y003926D01*
X052405Y003926D01*
X052725Y004246D01*
X053365Y004246D01*
X053685Y003926D01*
X054485Y003926D01*
X054805Y004246D01*
X059765Y004246D01*
X059925Y004086D01*
X060405Y004086D01*
X060565Y003926D01*
X060885Y003926D01*
X061205Y004246D01*
X062325Y004246D01*
X062645Y003926D01*
X064005Y003926D01*
X064325Y004246D01*
X065125Y004246D01*
X065445Y003926D01*
X067125Y003926D01*
X067445Y004246D01*
X071765Y004246D01*
X071925Y004086D01*
X072165Y004086D01*
X072325Y003926D01*
X072725Y003926D01*
X073045Y004246D01*
X074165Y004246D01*
X074485Y003926D01*
X075845Y003926D01*
X076165Y004246D01*
X077125Y004246D01*
X077445Y003926D01*
X079285Y003926D01*
X079605Y004246D01*
X081445Y004246D01*
X081605Y004086D01*
X082965Y004086D01*
X082645Y003926D02*
X081525Y003926D01*
X081365Y004086D01*
X079685Y004086D01*
X079365Y003766D01*
X077365Y003766D01*
X077045Y004086D01*
X076245Y004086D01*
X075925Y003766D01*
X074405Y003766D01*
X074085Y004086D01*
X073125Y004086D01*
X072805Y003766D01*
X071765Y003766D01*
X071445Y004086D01*
X067525Y004086D01*
X067205Y003766D01*
X065365Y003766D01*
X065045Y004086D01*
X064405Y004086D01*
X064085Y003766D01*
X062565Y003766D01*
X062245Y004086D01*
X061285Y004086D01*
X060965Y003766D01*
X059765Y003766D01*
X059445Y004086D01*
X054885Y004086D01*
X054565Y003766D01*
X053605Y003766D01*
X053285Y004086D01*
X052805Y004086D01*
X052485Y003766D01*
X050565Y003766D01*
X050405Y003926D01*
X049445Y002806D02*
X055925Y002806D01*
X056005Y002886D01*
X061285Y004086D02*
X061365Y003926D01*
X058085Y005366D02*
X056805Y005366D01*
X056485Y005686D01*
X055845Y005686D01*
X055525Y005366D01*
X047365Y005366D01*
X046965Y005766D01*
X047525Y006006D02*
X047705Y005866D01*
X048335Y005866D01*
X049005Y005866D02*
X049665Y005866D01*
X049845Y005686D01*
X050565Y005766D02*
X050665Y005866D01*
X051215Y005866D01*
X051885Y005866D02*
X052465Y005866D01*
X052645Y005686D01*
X053285Y005766D02*
X053385Y005866D01*
X054095Y005866D01*
X054765Y005866D02*
X055465Y005866D01*
X055525Y005926D01*
X056005Y006486D02*
X056625Y005866D01*
X057055Y005866D01*
X051885Y007106D02*
X051885Y007166D01*
X061765Y008186D02*
X061765Y008566D01*
X063685Y007766D02*
X063925Y008006D01*
X063925Y008246D01*
X064245Y008566D01*
X064805Y008566D01*
X064405Y008006D02*
X064405Y007926D01*
X065045Y007286D01*
X063685Y007286D02*
X063645Y007246D01*
X063645Y007106D01*
X063685Y007286D02*
X063685Y007766D01*
X071365Y004006D02*
X071365Y003926D01*
X071365Y004006D02*
X071445Y004086D01*
X082645Y003926D02*
X082805Y003766D01*
X083365Y003766D01*
X083685Y004086D01*
X086565Y003606D02*
X086645Y003686D01*
X088685Y003686D01*
X089245Y004246D01*
X092405Y004206D02*
X092405Y004686D01*
X092725Y004086D02*
X093565Y003246D01*
X095605Y003246D01*
X096685Y004326D01*
X096685Y006326D01*
X095505Y007506D01*
X094325Y007506D01*
X093865Y007966D01*
X093865Y008506D01*
X093325Y009046D01*
X092045Y009046D01*
X091605Y009486D01*
X091605Y009966D01*
X091325Y010246D01*
X090845Y010246D01*
X090085Y011006D01*
X090085Y011046D01*
X090045Y011086D01*
X090057Y011098D01*
X089725Y011126D02*
X089743Y011223D01*
X091765Y010486D02*
X091765Y010086D01*
X091925Y009926D01*
X091925Y009766D01*
X092405Y009286D01*
X093685Y009286D01*
X093845Y009446D01*
X093845Y010406D01*
X090715Y009406D02*
X090590Y009531D01*
X088845Y009526D01*
X088805Y009526D01*
X088645Y009366D01*
X088925Y009206D02*
X088938Y009206D01*
X088983Y009211D01*
X090240Y009211D02*
X090285Y009166D01*
X090605Y009256D02*
X090715Y009406D01*
X090605Y009256D02*
X090605Y008686D01*
X090965Y008326D01*
X091485Y008326D01*
X086573Y009371D02*
X086520Y009371D01*
X085365Y009166D02*
X085365Y009846D01*
X085165Y010046D01*
X093652Y012065D02*
X093905Y012065D01*
X093905Y011987D02*
X093730Y011987D01*
X077733Y013636D02*
X077733Y013636D01*
X077514Y013636D02*
X076848Y014302D01*
X076781Y014369D01*
X071189Y013558D02*
X070662Y013558D01*
X070692Y013479D02*
X071159Y013479D01*
X071159Y013401D02*
X070692Y013401D01*
X070692Y013322D02*
X071159Y013322D01*
X065020Y012772D02*
X065005Y012517D01*
X064405Y012468D02*
X064429Y012772D01*
X072456Y017766D02*
X072642Y017792D01*
X072668Y017846D01*
X073477Y018349D02*
X075045Y018349D01*
X075045Y018427D02*
X073478Y018427D01*
X073479Y018506D02*
X075045Y018506D01*
X075045Y018584D02*
X073480Y018584D01*
X073481Y018663D02*
X075045Y018663D01*
X083168Y019056D02*
X083435Y019056D01*
X083435Y019134D02*
X083247Y019134D01*
X083257Y019213D02*
X083435Y019213D01*
X083435Y019291D02*
X083257Y019291D01*
X083257Y019370D02*
X083435Y019370D01*
X083435Y019448D02*
X083257Y019448D01*
X083257Y019527D02*
X083435Y019527D01*
X083435Y019605D02*
X083265Y019605D01*
X083271Y019684D02*
X083435Y019684D01*
X083435Y019763D02*
X083271Y019763D01*
X083272Y019841D02*
X083449Y019841D01*
X083449Y019920D02*
X083279Y019920D01*
X083357Y019998D02*
X083449Y019998D01*
X083449Y020077D02*
X083436Y020077D01*
X082748Y020548D02*
X082686Y020548D01*
X082669Y020469D02*
X082565Y020469D01*
X082746Y020626D02*
X082826Y020626D01*
X082779Y020705D02*
X082905Y020705D01*
X082982Y020784D02*
X082785Y020784D01*
X082781Y020862D02*
X083062Y020862D01*
X083152Y020941D02*
X082748Y020941D01*
X082691Y021019D02*
X083232Y021019D01*
X083313Y021098D02*
X082575Y021098D01*
X082320Y021098D02*
X063685Y021098D01*
X063685Y021176D02*
X083393Y021176D01*
X083473Y021255D02*
X063685Y021255D01*
X063685Y021333D02*
X083554Y021333D01*
X083634Y021412D02*
X063685Y021412D01*
X063791Y021490D02*
X083714Y021490D01*
X083795Y021569D02*
X064038Y021569D01*
X064592Y021648D02*
X083875Y021648D01*
X082204Y021019D02*
X063685Y021019D01*
X063685Y020941D02*
X082147Y020941D01*
X082114Y020862D02*
X063685Y020862D01*
X063685Y020784D02*
X082110Y020784D01*
X082116Y020705D02*
X063685Y020705D01*
X011685Y003606D02*
X011445Y003366D01*
X010165Y003366D01*
D33*
X078805Y016046D03*
X081125Y016646D03*
X082805Y016146D03*
X082805Y018486D03*
X085045Y012966D03*
D34*
X086165Y014686D03*
X085285Y015126D03*
D35*
X060005Y012326D02*
X058845Y011166D01*
X019233Y011166D01*
X018565Y010497D01*
X018085Y010726D02*
X018885Y011526D01*
X058565Y011526D01*
X058965Y011926D01*
D36*
X079150Y016906D02*
X079150Y017311D01*
X079205Y017366D01*
X079605Y017366D01*
X079725Y017486D01*
X079725Y017893D01*
X084108Y016309D02*
X084108Y015948D01*
X084553Y015503D01*
X084930Y015126D01*
X085285Y015126D01*
X084330Y015280D02*
X083868Y015743D01*
X083542Y015743D01*
X087114Y015726D02*
X087125Y015726D01*
X088085Y016686D01*
X088285Y016686D01*
X088645Y016766D01*
X088845Y016966D01*
X090645Y019686D02*
X093765Y016566D01*
X093765Y014566D01*
X093645Y014446D01*
X093115Y014446D01*
X093035Y014366D01*
X093135Y015366D02*
X093055Y015446D01*
X093045Y015456D01*
X087629Y020078D02*
X088537Y021046D01*
X088445Y021046D01*
X091005Y020166D02*
X092065Y020166D01*
X092445Y020546D01*
X092445Y021046D01*
X018565Y010286D02*
X018554Y010286D01*
D37*
X071516Y018015D02*
X071685Y017846D01*
X071765Y017766D01*
X072456Y017766D01*
X072642Y017792D02*
X073111Y017792D01*
X073124Y019034D01*
X073125Y019086D01*
X075405Y019086D01*
X075405Y016646D01*
X074445Y015686D01*
X074445Y015446D01*
X075645Y015446D02*
X075765Y015486D01*
X075925Y015486D01*
X076285Y015486D01*
X076845Y016046D01*
X076845Y016526D01*
X076325Y017046D01*
X076325Y019686D01*
X077005Y020366D01*
X079365Y020366D01*
X081885Y020366D01*
X082125Y020106D01*
X082125Y019066D01*
X082725Y018486D01*
X082805Y018486D01*
X082805Y017646D01*
X082885Y017586D01*
X082865Y017566D01*
X084065Y017566D02*
X084065Y016721D01*
X082090Y016721D01*
X082085Y016886D01*
X082085Y016086D01*
X081805Y015806D01*
X081805Y015486D01*
X081765Y015446D01*
X079405Y015446D01*
X078805Y016046D01*
X078805Y016560D01*
X079150Y016906D01*
X082085Y016886D02*
X082085Y018246D01*
X081765Y018566D01*
X081185Y018566D01*
X081125Y018626D01*
X084065Y016721D02*
X084065Y016346D01*
X084108Y016309D01*
X081805Y015486D02*
X081805Y015306D01*
X081785Y015286D01*
X092405Y017086D02*
X093045Y016446D01*
X093045Y015456D01*
X071516Y018015D02*
X071516Y018678D01*
D38*
X072565Y019046D03*
X080565Y019286D03*
X085525Y019446D03*
X085845Y019806D03*
X091005Y020166D03*
X089925Y016966D03*
X088845Y016966D03*
X088845Y016446D03*
X089005Y016046D03*
X089725Y015909D03*
X090525Y015486D03*
X090885Y015126D03*
X091245Y014726D03*
X091685Y014606D03*
X089325Y014286D03*
X087205Y014526D03*
X086805Y014526D03*
X085045Y014486D03*
X084525Y014366D03*
X085045Y013806D03*
X084605Y013646D03*
X084085Y013606D03*
X083005Y013806D03*
X082925Y013406D03*
X081005Y013806D03*
X080165Y013806D03*
X080085Y013366D03*
X080885Y013086D03*
X080525Y012726D03*
X082685Y012646D03*
X082725Y012246D03*
X083325Y012246D03*
X083565Y011926D03*
X083245Y011606D03*
X084005Y011286D03*
X083045Y011206D03*
X082405Y011486D03*
X081805Y011726D03*
X081245Y011566D03*
X080685Y011446D03*
X079405Y011486D03*
X078925Y011486D03*
X078885Y010566D03*
X079285Y010366D03*
X079605Y010646D03*
X081005Y010326D03*
X083485Y009646D03*
X082125Y009166D03*
X080005Y008966D03*
X079405Y008646D03*
X079685Y008246D03*
X082445Y008086D03*
X082485Y007246D03*
X085045Y006486D03*
X085525Y006486D03*
X085525Y006046D03*
X085965Y005646D03*
X084965Y005766D03*
X083085Y006086D03*
X082565Y005686D03*
X082165Y005206D03*
X079845Y006006D03*
X078965Y005686D03*
X076885Y005686D03*
X076165Y005766D03*
X074165Y005686D03*
X073365Y005766D03*
X071125Y005766D03*
X070485Y005366D03*
X068085Y005846D03*
X067205Y005686D03*
X064325Y005766D03*
X062245Y005766D03*
X061445Y005766D03*
X059125Y006086D03*
X058725Y005446D03*
X056165Y005206D03*
X054085Y004726D03*
X052085Y004566D03*
X051125Y004406D03*
X049765Y004246D03*
X048405Y004086D03*
X047845Y003926D03*
X045685Y003286D03*
X045125Y003446D03*
X044405Y003606D03*
X041845Y004566D03*
X042565Y004726D03*
X043285Y004886D03*
X039685Y004406D03*
X040565Y003766D03*
X038645Y003926D03*
X037685Y004246D03*
X036565Y004086D03*
X033605Y003446D03*
X032885Y003606D03*
X034405Y003126D03*
X029125Y003766D03*
X028485Y003926D03*
X027765Y004406D03*
X025605Y004246D03*
X024965Y004086D03*
X021925Y003286D03*
X021285Y003446D03*
X020805Y003606D03*
X017205Y003766D03*
X016645Y003926D03*
X015925Y004406D03*
X014885Y004006D03*
X013765Y004246D03*
X013045Y004086D03*
X012245Y003926D03*
X010725Y003766D03*
X009525Y004006D03*
X005445Y005286D03*
X006405Y005766D03*
X006085Y006566D03*
X008965Y006806D03*
X011685Y006086D03*
X012325Y005766D03*
X014485Y006006D03*
X015205Y006086D03*
X017525Y005766D03*
X018165Y005846D03*
X020165Y005686D03*
X021125Y005766D03*
X020805Y006246D03*
X020805Y006806D03*
X017845Y006646D03*
X015045Y006966D03*
X015205Y007686D03*
X017845Y007606D03*
X020805Y008326D03*
X020485Y008886D03*
X021205Y009286D03*
X023685Y008646D03*
X026725Y008646D03*
X029685Y008566D03*
X029685Y007766D03*
X026805Y007766D03*
X026805Y007046D03*
X029685Y006966D03*
X032325Y006966D03*
X035125Y007206D03*
X035845Y007206D03*
X035445Y006566D03*
X038325Y006566D03*
X038965Y005846D03*
X038165Y005766D03*
X036085Y005766D03*
X035285Y005206D03*
X033045Y005846D03*
X032005Y005686D03*
X029925Y005766D03*
X029285Y005686D03*
X027125Y005686D03*
X026325Y005686D03*
X026565Y006086D03*
X024325Y005766D03*
X023445Y005206D03*
X019685Y004886D03*
X018965Y004726D03*
X018405Y004566D03*
X026565Y002966D03*
X030085Y004566D03*
X030805Y004726D03*
X031605Y004886D03*
X023845Y006646D03*
X017845Y008566D03*
X014805Y008646D03*
X017605Y009446D03*
X014805Y009606D03*
X008965Y008646D03*
X006005Y008406D03*
X003125Y007926D03*
X003125Y006966D03*
X011925Y006886D03*
X026725Y009606D03*
X029845Y009446D03*
X032405Y008886D03*
X033125Y009286D03*
X035365Y008646D03*
X032645Y008246D03*
X038565Y008566D03*
X041525Y008566D03*
X041525Y007846D03*
X038565Y007606D03*
X041125Y006566D03*
X041765Y005846D03*
X041125Y005686D03*
X043845Y005686D03*
X044405Y006086D03*
X044325Y006886D03*
X047445Y006646D03*
X050245Y007046D03*
X050245Y007846D03*
X052885Y008086D03*
X052725Y008806D03*
X053365Y009446D03*
X055685Y008726D03*
X055925Y008246D03*
X058725Y008646D03*
X056245Y009286D03*
X061765Y009606D03*
X064805Y009446D03*
X067605Y008646D03*
X067765Y009286D03*
X070445Y009046D03*
X071085Y008886D03*
X073685Y008886D03*
X074645Y009326D03*
X075125Y009326D03*
X076245Y009246D03*
X076725Y009246D03*
X077205Y009246D03*
X073645Y008406D03*
X073685Y007606D03*
X076645Y007926D03*
X076645Y006806D03*
X077005Y006326D03*
X073965Y006366D03*
X073685Y006686D03*
X071045Y006526D03*
X070485Y006966D03*
X067685Y006526D03*
X067325Y006766D03*
X065045Y006406D03*
X064325Y006726D03*
X062165Y006406D03*
X065045Y007286D03*
X064405Y008006D03*
X064805Y008566D03*
X067765Y008166D03*
X070645Y008326D03*
X072085Y009686D03*
X072765Y010326D03*
X068445Y010006D03*
X067605Y010726D03*
X067925Y011046D03*
X068245Y011366D03*
X072085Y012206D03*
X074885Y012166D03*
X075605Y012406D03*
X075685Y012966D03*
X076125Y012966D03*
X076565Y014566D03*
X078965Y014566D03*
X080285Y014806D03*
X085645Y015486D03*
X086085Y015606D03*
X086205Y016766D03*
X085685Y016726D03*
X080325Y016886D03*
X076085Y016446D03*
X071125Y014606D03*
X060005Y012326D03*
X058965Y011926D03*
X050085Y009606D03*
X047165Y009886D03*
X044725Y009366D03*
X042005Y009446D03*
X044085Y008726D03*
X044325Y008246D03*
X047165Y008606D03*
X050085Y008646D03*
X055925Y006886D03*
X056005Y006486D03*
X055525Y005926D03*
X053285Y005766D03*
X052645Y005686D03*
X050565Y005766D03*
X049845Y005686D03*
X047525Y006006D03*
X046965Y005206D03*
X050405Y003926D03*
X053045Y003606D03*
X055205Y003446D03*
X056565Y003286D03*
X057125Y003126D03*
X056005Y002886D03*
X060725Y003446D03*
X061365Y003926D03*
X060725Y004246D03*
X059925Y004086D03*
X062965Y004406D03*
X063685Y004566D03*
X065925Y004726D03*
X066645Y004886D03*
X071365Y003926D03*
X071925Y004086D03*
X072565Y004246D03*
X073205Y003766D03*
X074805Y004406D03*
X075525Y004566D03*
X077845Y004726D03*
X078805Y004886D03*
X082965Y004086D03*
X083685Y004086D03*
X084325Y004086D03*
X085045Y004246D03*
X085925Y004406D03*
X086645Y004406D03*
X087285Y004406D03*
X087685Y004166D03*
X087925Y004566D03*
X088645Y004726D03*
X089245Y004246D03*
X090005Y003846D03*
X090725Y003486D03*
X086845Y003246D03*
X092005Y004366D03*
X093045Y004246D03*
X092405Y004686D03*
X091725Y005046D03*
X090725Y004886D03*
X091245Y005526D03*
X091845Y005926D03*
X091085Y006166D03*
X094005Y006646D03*
X091805Y006806D03*
X091405Y007006D03*
X087965Y006966D03*
X091405Y007886D03*
X091805Y008006D03*
X091485Y008326D03*
X089925Y008606D03*
X088385Y008826D03*
X087965Y008746D03*
X086325Y008926D03*
X085805Y009006D03*
X085365Y009166D03*
X085005Y009686D03*
X086215Y009676D03*
X086165Y010246D03*
X086885Y010546D03*
X087185Y010886D03*
X085885Y010846D03*
X084715Y010806D03*
X086565Y011846D03*
X088445Y011846D03*
X088845Y012006D03*
X090445Y012426D03*
X090765Y012886D03*
X089885Y013446D03*
X090285Y013766D03*
X087965Y013366D03*
X087165Y013446D03*
X085965Y013126D03*
X085565Y013006D03*
X086685Y012726D03*
X087085Y012606D03*
X086165Y012446D03*
X085245Y012526D03*
X086005Y013886D03*
X091405Y012146D03*
X092005Y011646D03*
X091765Y010486D03*
X092165Y010126D03*
X092565Y009926D03*
X092965Y009686D03*
X093405Y010126D03*
X090715Y009406D03*
X090285Y009166D03*
X085805Y008526D03*
X085045Y008366D03*
X088485Y008166D03*
X079365Y006326D03*
X088085Y005686D03*
X088645Y005766D03*
X080165Y003286D03*
X080805Y003046D03*
X076805Y003366D03*
X076405Y003606D03*
X068485Y002966D03*
X067925Y003286D03*
X065365Y003126D03*
X064805Y003526D03*
X052965Y006566D03*
X061765Y007606D03*
X061765Y008566D03*
X038565Y009606D03*
X020443Y010660D03*
X017845Y011526D03*
X049445Y002806D03*
D39*
X048335Y007106D02*
X048335Y007736D01*
X048685Y008086D01*
X047165Y008606D02*
X046325Y008606D01*
X045805Y008086D01*
X045455Y007736D01*
X045455Y007106D01*
X042925Y008086D02*
X042575Y007736D01*
X042575Y007106D01*
X039695Y007106D02*
X039695Y007736D01*
X040045Y008086D01*
X037085Y008086D02*
X036735Y007736D01*
X036735Y007106D01*
X034125Y008086D02*
X033775Y007736D01*
X033775Y007106D01*
X031165Y008086D02*
X030815Y007736D01*
X030815Y007106D01*
X027855Y007106D02*
X027855Y007736D01*
X028205Y008086D01*
X025245Y008086D02*
X024895Y007736D01*
X024895Y007106D01*
X022285Y008086D02*
X021935Y007736D01*
X021935Y007106D01*
X019325Y008086D02*
X018975Y007736D01*
X018975Y007106D01*
X016365Y008086D02*
X016015Y007736D01*
X016015Y007106D01*
X013055Y007106D02*
X013055Y007736D01*
X013405Y008086D01*
X010445Y008086D02*
X010095Y007736D01*
X010095Y007106D01*
X007485Y008086D02*
X007135Y007736D01*
X007135Y007106D01*
X004525Y008086D02*
X004175Y007736D01*
X004175Y007106D01*
X001215Y007106D02*
X001215Y007736D01*
X001565Y008086D01*
X000805Y008846D01*
X000805Y010166D01*
X002165Y011526D01*
X003365Y011526D01*
X004325Y010566D01*
X004485Y010726D01*
X004645Y010566D01*
X011045Y010566D01*
X011205Y010726D01*
X011365Y010566D01*
X012325Y011526D01*
X017845Y011526D01*
X022285Y008086D02*
X022845Y008646D01*
X023685Y008646D01*
X034125Y008086D02*
X034685Y008646D01*
X035365Y008646D01*
X047165Y009886D02*
X047605Y010326D01*
X067765Y010326D01*
X067845Y010406D01*
X072325Y010406D01*
X073165Y011326D01*
X073165Y011526D01*
X073725Y012046D01*
X074205Y012046D01*
X075485Y013326D01*
X076285Y013326D01*
X076985Y012626D01*
X079424Y012626D01*
X079464Y012626D01*
X079464Y012881D02*
X079460Y012886D01*
X077125Y012886D01*
X076405Y013606D01*
X075325Y013606D01*
X074045Y012326D01*
X073605Y012326D01*
X072925Y011686D01*
X072925Y011446D01*
X072125Y010646D01*
X067685Y010646D01*
X067605Y010726D01*
X067925Y011046D02*
X068085Y010886D01*
X072005Y010886D01*
X072685Y011566D01*
X072685Y011806D01*
X073445Y012566D01*
X073885Y012566D01*
X075125Y013886D01*
X076525Y013886D01*
X077265Y013146D01*
X079433Y013146D01*
X079464Y013137D01*
X079464Y013393D02*
X077685Y013396D01*
X077415Y013396D01*
X076645Y014166D01*
X075005Y014166D01*
X073645Y012806D01*
X073325Y012806D01*
X072445Y011926D01*
X072445Y011686D01*
X071885Y011126D01*
X068485Y011126D01*
X068245Y011366D01*
X068605Y010166D02*
X072205Y010166D01*
X072405Y009966D01*
X072925Y009966D01*
X073205Y010246D01*
X074645Y010246D01*
X075125Y010726D01*
X075125Y011406D01*
X075245Y011526D01*
X075245Y012606D01*
X075605Y012966D01*
X075685Y012966D01*
X076125Y012966D02*
X076725Y012366D01*
X079460Y012366D01*
X079464Y012370D01*
X080005Y012086D02*
X078565Y012086D01*
X078165Y011686D01*
X078165Y010046D01*
X078525Y009686D01*
X080485Y009686D01*
X080685Y009486D01*
X081325Y009486D01*
X082445Y008366D01*
X082445Y008086D01*
X081085Y008086D02*
X080735Y007736D01*
X080735Y007106D01*
X078125Y008086D02*
X077775Y007736D01*
X077775Y007106D01*
X075165Y008086D02*
X074815Y007736D01*
X074815Y007106D01*
X071855Y007106D02*
X071855Y007736D01*
X072205Y008086D01*
X070645Y008326D02*
X069485Y008326D01*
X069245Y008086D01*
X068895Y007736D01*
X068895Y007106D01*
X066285Y008086D02*
X065935Y007736D01*
X065935Y007106D01*
X063325Y008086D02*
X062975Y007736D01*
X062975Y007106D01*
X060015Y007106D02*
X060015Y007736D01*
X060365Y008086D01*
X058725Y008646D02*
X057965Y008646D01*
X057405Y008086D01*
X057055Y007736D01*
X057055Y007106D01*
X054445Y008086D02*
X054095Y007736D01*
X054095Y007106D01*
X051565Y008086D02*
X051215Y007736D01*
X051215Y007106D01*
X068445Y010006D02*
X068605Y010166D01*
X072085Y009686D02*
X073005Y009686D01*
X073325Y010006D01*
X074845Y010006D01*
X075405Y010566D01*
X075405Y011286D01*
X075525Y011406D01*
X075525Y012286D01*
X075605Y012406D01*
X078445Y011566D02*
X078725Y011846D01*
X080125Y011846D01*
X080365Y012086D01*
X082285Y012086D01*
X082325Y012126D01*
X082325Y013126D01*
X081799Y013126D01*
X081787Y013137D01*
X081787Y012881D02*
X081773Y012876D01*
X081335Y012876D01*
X081245Y012966D01*
X081245Y013446D01*
X080445Y013446D01*
X080445Y013126D01*
X080005Y012686D01*
X080005Y012086D01*
X080525Y012726D02*
X080885Y012366D01*
X081783Y012366D01*
X081787Y012370D01*
X082725Y012246D02*
X082725Y012206D01*
X083205Y012686D01*
X083205Y012707D01*
X083440Y012942D01*
X083662Y012719D02*
X084069Y013126D01*
X084605Y013646D01*
X085045Y013806D02*
X085145Y013806D01*
X085185Y013846D01*
X085525Y014166D01*
X085685Y014326D01*
X086405Y014326D01*
X086605Y014126D01*
X086845Y014126D01*
X086965Y014006D01*
X087605Y014006D01*
X087765Y013846D01*
X087765Y013646D01*
X087605Y013486D01*
X087605Y013046D01*
X087685Y012966D01*
X087685Y012806D01*
X087994Y012496D01*
X087782Y012274D02*
X087445Y012611D01*
X087445Y012846D01*
X087205Y013086D01*
X086485Y013086D01*
X086085Y013486D01*
X085565Y013486D01*
X085045Y012955D01*
X085045Y012966D01*
X084725Y012646D01*
X084725Y012526D01*
X085045Y012206D01*
X085045Y011886D01*
X084776Y011616D01*
X084776Y011606D01*
X084999Y011383D02*
X085261Y011646D01*
X085365Y011766D01*
X085365Y012406D01*
X085245Y012526D01*
X086685Y012526D02*
X086685Y012726D01*
X086685Y012526D02*
X086885Y012326D01*
X086885Y011846D01*
X087114Y011616D01*
X087114Y011606D01*
X087560Y012051D02*
X087085Y012526D01*
X087085Y012606D01*
X088228Y012719D02*
X088586Y012361D01*
X089113Y012361D01*
X089428Y012361D02*
X089428Y012623D01*
X089743Y012748D02*
X089743Y012361D01*
X090057Y012361D02*
X090057Y012783D01*
X090057Y011571D02*
X090057Y011098D01*
X089743Y011223D02*
X089743Y011571D01*
X089428Y011571D02*
X089428Y011188D01*
X089113Y011098D02*
X089113Y011571D01*
X092008Y011646D02*
X092333Y011321D01*
X092648Y011321D02*
X092648Y011563D01*
X092965Y011566D02*
X092963Y011321D01*
X092963Y010531D02*
X092963Y010008D01*
X092965Y009686D01*
X092648Y010008D02*
X092565Y009926D01*
X092648Y010008D02*
X092648Y010531D01*
X092333Y010531D02*
X092333Y010293D01*
X092165Y010126D01*
X093277Y010253D02*
X093405Y010126D01*
X093277Y010253D02*
X093277Y010531D01*
X085385Y008526D02*
X085225Y008686D01*
X085165Y008686D01*
X084565Y009286D01*
X082525Y009286D01*
X082325Y009486D01*
X081705Y009486D01*
X081465Y009726D01*
X080845Y009726D01*
X080645Y009926D01*
X078685Y009926D01*
X078445Y010166D01*
X078445Y011566D01*
X080885Y012726D02*
X080885Y013086D01*
X080085Y013366D02*
X080005Y013446D01*
X080005Y013486D01*
X079841Y013649D01*
X079464Y013649D01*
X079464Y013905D02*
X079464Y013906D01*
X080065Y013906D01*
X080165Y013806D01*
X080650Y014161D02*
X079464Y014161D01*
X078965Y014566D02*
X078365Y013966D01*
X080650Y014161D02*
X081005Y013806D01*
X081365Y014486D02*
X081690Y014161D01*
X081787Y014161D01*
X081787Y013905D02*
X082240Y013905D01*
X082445Y014190D01*
X082660Y014150D01*
X083005Y013806D01*
X083217Y014167D02*
X083778Y013606D01*
X084085Y013606D01*
X082925Y013406D02*
X082596Y013406D01*
X082440Y013401D01*
X082445Y013406D01*
X081799Y013406D01*
X081787Y013393D01*
X082440Y013401D02*
X082445Y013521D01*
X083204Y013165D02*
X082685Y012646D01*
X081787Y012626D02*
X081727Y012626D01*
X080985Y012626D01*
X080885Y012726D01*
X081787Y012881D02*
X081791Y012876D01*
X083204Y013165D02*
X083217Y013165D01*
X088451Y014389D02*
X088469Y014389D01*
X088805Y014726D01*
X089085Y014726D01*
X090125Y015766D01*
X090125Y016046D01*
X089525Y016646D01*
X089505Y017786D01*
X088205Y019086D01*
X088205Y019225D01*
X088333Y019373D01*
X087983Y019724D02*
X087645Y019387D01*
X087645Y019126D01*
X089205Y017586D01*
X089205Y016566D01*
X089365Y016406D01*
X089365Y015806D01*
X088845Y015286D01*
X088456Y015286D01*
X088005Y014835D01*
X087782Y015058D02*
X088765Y016040D01*
X089005Y016046D01*
X089725Y015926D02*
X089725Y015909D01*
X089725Y015766D01*
X088965Y015006D01*
X088621Y015006D01*
X088228Y014612D01*
X086165Y014686D02*
X086165Y014776D01*
X085429Y014486D02*
X085045Y014486D01*
X084605Y014926D01*
X084605Y015006D01*
X084330Y015280D01*
X085429Y014486D02*
X086892Y015948D01*
X086908Y015948D01*
X087205Y016246D01*
X087205Y016990D01*
X086577Y017617D01*
X086757Y017798D01*
X086905Y017946D01*
X086585Y018986D01*
X086165Y019286D02*
X086165Y018619D01*
X085870Y018324D01*
X085517Y018678D02*
X085597Y018758D01*
X085845Y019006D01*
X085845Y019126D01*
X085525Y019446D01*
X085845Y019606D02*
X086165Y019286D01*
X085845Y019606D02*
X085845Y019806D01*
X087276Y020431D02*
X087265Y021601D01*
X088405Y021606D01*
X089285Y021606D01*
X089445Y021446D01*
X089445Y020946D01*
X085657Y018857D02*
X085517Y018678D01*
X079725Y015126D02*
X079405Y015446D01*
X079725Y015126D02*
X079725Y014606D01*
X079845Y014486D01*
X081365Y014486D01*
X085385Y008526D02*
X085805Y008526D01*
X087005Y008086D02*
X087015Y007656D01*
X086645Y007286D01*
X086645Y007206D01*
X086655Y007106D01*
X085925Y006846D02*
X084805Y006846D01*
X084805Y007406D01*
X084565Y007646D01*
X083735Y007646D01*
X083695Y007606D01*
X083695Y007106D01*
X083695Y007606D02*
X083695Y007736D01*
X084045Y008086D01*
X087005Y008086D02*
X087285Y008086D01*
X088005Y007366D01*
X088565Y007366D01*
X088965Y007366D01*
X089685Y008086D01*
X089965Y008086D01*
X089615Y007736D01*
X089615Y007106D01*
X090245Y008086D02*
X090965Y007366D01*
X092005Y007366D01*
X092365Y007726D01*
X092565Y007726D01*
X092925Y008086D01*
X092575Y007736D01*
X092575Y007106D01*
X090245Y008086D02*
X089965Y008086D01*
D40*
X088565Y007366D02*
X088565Y006806D01*
X088365Y006606D01*
X086165Y006606D01*
X085925Y006846D01*
X088578Y009606D02*
X088983Y010001D01*
X086573Y010161D02*
X086520Y010241D01*
X086165Y010246D01*
X086433Y010937D02*
X086085Y011286D01*
X082405Y011486D02*
X082405Y011048D01*
X081453Y011078D02*
X081285Y011246D01*
X080885Y011246D01*
X080685Y011446D01*
X080005Y012086D02*
X080001Y012081D01*
X083023Y014806D02*
X083440Y014389D01*
X083662Y014612D02*
X083909Y014366D01*
X084525Y014366D01*
X083023Y014806D02*
X080285Y014806D01*
X086165Y014776D02*
X087114Y015726D01*
X080085Y017907D02*
X080085Y018246D01*
X080005Y018326D01*
X079445Y018326D01*
X079351Y018420D01*
X079351Y018798D01*
X021645Y010706D02*
X021599Y010660D01*
X020443Y010660D01*
X019538Y010660D01*
D41*
X019925Y010166D02*
X022245Y010166D01*
X022405Y010326D01*
X022405Y010666D01*
X022445Y010706D01*
X019925Y010166D02*
X019671Y009912D01*
X019538Y009912D01*
X070885Y011686D02*
X070925Y011646D01*
X070965Y011646D01*
X070925Y011686D02*
X070925Y012572D01*
X071516Y012772D02*
X071525Y012781D01*
X071525Y013566D01*
X071617Y013658D01*
X071125Y014151D01*
X071125Y014606D01*
X071405Y014886D01*
X071405Y017606D01*
X071645Y017846D01*
X071685Y017846D01*
X078365Y015606D02*
X078805Y016046D01*
X078365Y015606D02*
X078365Y015166D01*
X077365Y014046D02*
X075925Y015486D01*
X075765Y015486D02*
X075765Y014846D01*
X075445Y014526D01*
X074845Y014526D01*
X073485Y013166D01*
X072205Y013166D01*
X072085Y013046D01*
X072085Y012206D01*
X072085Y011846D01*
X071925Y011686D01*
X070925Y011686D01*
X070885Y011686D01*
X071617Y013658D02*
X072642Y013658D01*
X077365Y014046D02*
X078245Y014046D01*
X078365Y013966D01*
X082565Y015286D02*
X082585Y015286D01*
X082585Y015306D02*
X082565Y015286D01*
X082585Y015306D02*
X083105Y015306D01*
X083542Y015743D01*
X089925Y016966D02*
X089925Y018346D01*
X089758Y018513D01*
X089192Y019079D02*
X089545Y019431D01*
X089545Y019826D01*
X088865Y020506D01*
X088445Y021046D01*
X089545Y019826D02*
X090505Y019826D01*
X090645Y019686D01*
X089925Y016966D02*
X091445Y015446D01*
X093055Y015446D01*
D42*
X092405Y017086D03*
D43*
X081445Y019406D02*
X081125Y019086D01*
X081125Y018626D01*
X073124Y019034D02*
X072577Y019034D01*
X072565Y019046D01*
D44*
X081445Y019406D03*
X065405Y011406D03*
X064405Y011406D03*
D45*
X081125Y016646D02*
X081125Y017426D01*
X084385Y018726D02*
X084425Y018686D01*
X084425Y018746D01*
X084405Y018726D01*
X084385Y018726D02*
X083985Y018726D01*
X083845Y018866D01*
X083845Y019703D01*
X082861Y019703D02*
X082865Y020086D01*
X083311Y020531D01*
X083361Y020571D01*
X084255Y021446D01*
X085565Y021446D01*
X086285Y020226D01*
X086745Y019746D01*
X087205Y019286D01*
X087205Y018886D01*
X087285Y018806D01*
X088065Y018046D01*
X088065Y017546D01*
D46*
X085685Y016726D02*
X085485Y016526D01*
X085445Y016446D01*
X085285Y016553D01*
X085444Y016394D01*
X085221Y016171D02*
X085547Y015846D01*
X085645Y015846D01*
X085845Y016046D01*
X088673Y014167D02*
X088885Y013955D01*
X088885Y013366D01*
X089045Y013206D01*
X089645Y013206D01*
X090057Y012783D01*
X089743Y012748D02*
X089525Y012966D01*
X088872Y012966D01*
X088673Y013165D01*
X088451Y012942D02*
X088667Y012726D01*
X089325Y012726D01*
X089428Y012623D01*
X089428Y012361D02*
X089445Y012343D01*
X089445Y012166D01*
X089725Y011886D01*
X090685Y011886D01*
X091385Y012586D01*
X091605Y012586D01*
X092648Y011563D01*
X092725Y011806D02*
X091745Y012786D01*
X091285Y012786D01*
X090585Y012086D01*
X089885Y012086D01*
X089765Y012206D01*
X089765Y012338D01*
X089743Y012361D01*
X092725Y011806D02*
X092765Y011806D01*
X092965Y011606D01*
X092965Y011566D01*
X084553Y011828D02*
X084365Y011640D01*
X084325Y011606D01*
X083245Y011606D01*
X083565Y011926D02*
X083685Y011806D01*
X084085Y011806D01*
X084330Y012051D01*
X081765Y010248D02*
X081765Y010006D01*
X076085Y016446D02*
X075885Y016646D01*
X075885Y019606D01*
X075285Y020206D01*
X064845Y020206D01*
D47*
X084005Y011286D02*
X084005Y010858D01*
X083685Y010863D02*
X083685Y011126D01*
X083393Y010841D02*
X082987Y010841D01*
X084372Y010806D02*
X084715Y010806D01*
X086885Y010546D02*
X086888Y010288D01*
X086888Y010161D01*
X087203Y010161D02*
X087203Y010383D01*
X087285Y010466D01*
X087563Y010186D02*
X088225Y010186D01*
X089245Y010286D02*
X089245Y010013D01*
X089565Y010008D02*
X089565Y010246D01*
X089885Y010186D02*
X089885Y010003D01*
X088645Y009366D02*
X087523Y009366D01*
X086520Y009371D02*
X086215Y009676D01*
X085165Y010046D02*
X084343Y010046D01*
X084228Y009726D02*
X084005Y009948D01*
X084228Y009726D02*
X084965Y009726D01*
X085005Y009686D01*
X083708Y010051D02*
X083708Y010263D01*
X083405Y010038D02*
X083405Y009766D01*
X083485Y009686D01*
X082085Y010046D02*
X082085Y010248D01*
X088983Y009211D02*
X088983Y008943D01*
X089298Y008978D02*
X089298Y009211D01*
X089613Y009211D02*
X089613Y008918D01*
X089605Y008926D02*
X089605Y008646D01*
X089927Y009211D02*
X090240Y009211D01*
D48*
X088578Y009606D02*
X086965Y009606D01*
X086573Y009998D01*
X086365Y009966D02*
X086035Y009966D01*
X086365Y009966D02*
X086555Y009776D01*
X086585Y009776D01*
X086845Y009516D01*
X086845Y009486D01*
X086888Y009443D01*
X086888Y009371D01*
X087045Y009766D02*
X088325Y009766D01*
X088245Y009926D02*
X087205Y009926D01*
X087045Y009766D02*
X086888Y009923D01*
X083645Y010606D02*
X083005Y010606D01*
D49*
X093445Y011766D03*
D50*
X065405Y011406D02*
X065005Y011806D01*
X065005Y012517D01*
X064405Y012468D02*
X064405Y011406D01*
X079390Y019751D02*
X079365Y019886D01*
X079365Y020366D01*
D51*
X079365Y019726D02*
X079365Y019451D01*
X079725Y019091D01*
X079725Y018798D01*
X079351Y018798D02*
X078762Y018798D01*
X078623Y018937D01*
X078465Y019016D01*
X080099Y018798D02*
X080412Y019126D01*
X080565Y019286D01*
X080099Y019746D02*
X080099Y018798D01*
X079390Y019706D02*
X079365Y019726D01*
D52*
X082805Y016146D02*
X083125Y016160D01*
X083542Y015743D01*
D53*
X086585Y018986D03*
D54*
X080572Y017446D02*
X080112Y017906D01*
X080572Y017446D02*
X081045Y017446D01*
X081125Y017426D01*
X070325Y012603D02*
X070285Y012563D01*
X070285Y011566D01*
X070245Y011686D01*
X070165Y011606D01*
X070165Y011646D01*
D55*
X079820Y016906D02*
X080305Y016906D01*
X080325Y016886D01*
X079245Y017886D02*
X078605Y017886D01*
X078645Y017846D01*
X078645Y017806D01*
X078595Y017756D01*
X078465Y017756D01*
X078623Y018937D02*
X079273Y018937D01*
X079285Y018926D01*
D56*
X084405Y018726D03*
M02*
