G04 CAM350 V10.1.0 (Build 363) Date:  Mon Oct 03 20:15:32 2011 *
G04 Database: C:\Projects\AniBike Project\Hardware\AniBike V2.7 BT\EagleDIR\AniBike v2.7 BT\Manufacturing\2V8\ANIBIKE_2V8_Rev1.0.cam *
G04 Layer 7: AniBike_v2.8_BT_MainBoard.GDM *
G04 Composite: BORDER *
%FSLAX24Y24*%
%MOIN*%
%SFA1.000B1.000*%

%MIA0B0*%
%IPPOS*%
%ADD36C,0.02000*%
%ADD83C,0.00000*%
%LNAniBike_v2.8_BT_MainBoard.GDM*%
%LPD*%
G54D36*
X95319Y34852D02*
G01X94259D01*
Y34853D02*
G01X94169Y34848D01*
X94079Y34840*
X93990Y34827*
X93901Y34810*
X93814Y34789*
X93727Y34764*
X93642Y34735*
X93558Y34701*
X93476Y34664*
X93396Y34623*
X93318Y34578*
X93242Y34529*
X93169Y34477*
X93098Y34421*
X93030Y34362*
X92964Y34300*
X92902Y34235*
X92843Y34167*
X92787Y34096*
X92735Y34023*
X92686Y33947*
X92641Y33869*
X92599Y33789*
X92562Y33707*
X92528Y33624*
X92499Y33539*
X92473Y33452*
X92452Y33365*
X92435Y33276*
X92422Y33187*
X92413Y33097*
X92409Y33008*
X92408Y32917*
X92409D02*
G01X3599Y32932D01*
X3448Y32945*
X3296Y32951*
X3145Y32949*
X2994Y32940*
X2843Y32923*
X2693Y32899*
X2545Y32868*
X2398Y32829*
X2253Y32784*
X2111Y32731*
X1972Y32672*
X1835Y32605*
X1702Y32533*
X1573Y32454*
X1447Y32368*
X1326Y32277*
X1210Y32180*
X1098Y32077*
X992Y31969*
X891Y31856*
X796Y31738*
X706Y31616*
X623Y31489*
X545Y31358*
X475Y31224*
X410Y31087*
X353Y30947*
X303Y30804*
X259Y30658*
X223Y30511*
X194Y30362*
X172Y30212*
X158Y30061*
X151Y29910*
Y29758*
X159Y29607*
X174Y29456*
X196Y29306*
X226Y29157*
X263Y29010*
X307Y28865*
X358Y28722*
X416Y28582*
X481Y28445*
X552Y28311*
X630Y28181*
X714Y28055*
X804Y27933*
X900Y27815*
X1002Y27703*
X1109Y27595*
X1221Y27493*
X1338Y27396*
X1459Y27306*
X1585Y27221*
X1714Y27142*
X1848Y27070*
X1985Y27005*
X2124Y26946*
X2267Y26894*
X2412Y26849*
X2559Y26811*
X2707Y26781*
X2857Y26757*
X3008Y26741*
X3159Y26733*
Y26732D02*
G01Y18532D01*
X3027Y18531*
X2895Y18523*
X2764Y18509*
X2634Y18489*
X2505Y18462*
X2377Y18430*
X2251Y18390*
X2127Y18345*
X2006Y18294*
X1887Y18237*
X1771Y18174*
X1658Y18106*
X1549Y18032*
X1443Y17953*
X1342Y17869*
X1244Y17780*
X1152Y17686*
X1063Y17588*
X980Y17486*
X902Y17380*
X829Y17270*
X761Y17157*
X699Y17040*
X643Y16921*
X593Y16799*
X549Y16675*
X511Y16549*
X479Y16421*
X453Y16291*
X434Y16161*
X421Y16030*
X415Y15898*
Y15766*
X421Y15634*
X434Y15503*
X453Y15373*
X479Y15243*
X511Y15115*
X549Y14989*
X593Y14865*
X643Y14743*
X699Y14624*
X761Y14507*
X829Y14394*
X902Y14284*
X980Y14178*
X1063Y14076*
X1152Y13978*
X1244Y13884*
X1342Y13795*
X1443Y13711*
X1549Y13632*
X1658Y13558*
X1771Y13490*
X1887Y13427*
X2006Y13370*
X2127Y13319*
X2251Y13274*
X2377Y13234*
X2505Y13202*
X2634Y13175*
X2764Y13155*
X2895Y13141*
X3027Y13133*
X3159Y13132*
X32279*
X36559Y17132D02*
G01X36573Y17433D01*
X36602Y17733*
X36646Y18032*
X36704Y18327*
X36777Y18620*
X36864Y18908*
X36965Y19192*
X37080Y19471*
X37208Y19744*
X37350Y20010*
X37504Y20269*
X37671Y20520*
X37850Y20762*
X38041Y20996*
X38243Y21219*
X38456Y21433*
X38679Y21636*
X38912Y21827*
X39154Y22007*
X39404Y22175*
X39662Y22331*
X39928Y22473*
X40200Y22603*
X40479Y22719*
X40762Y22821*
X41050Y22909*
X41343Y22982*
X41638Y23042*
X41936Y23086*
X42236Y23117*
X42538Y23132*
X42839*
X94919*
X95025Y23133*
X95131Y23139*
X95236Y23150*
X95341Y23166*
X95445Y23187*
X95548Y23214*
X95649Y23245*
X95749Y23281*
X95846Y23323*
X95942Y23369*
X96035Y23419*
X96126Y23474*
X96213Y23534*
X96298Y23597*
X96380Y23665*
X96458Y23737*
X96532Y23812*
X96603Y23891*
X96670Y23973*
X96732Y24059*
X96791Y24147*
X96845Y24239*
X96894Y24332*
X96939Y24429*
X96979Y24527*
X97014Y24627*
X97044Y24728*
X97069Y24831*
X97089Y24936*
X97104Y25040*
X97114Y25146*
X97119Y25252*
Y32952*
X97120Y33040*
X97116Y33128*
X97108Y33216*
X97095Y33303*
X97079Y33390*
X97058Y33475*
X97034Y33560*
X97005Y33643*
X96973Y33725*
X96937Y33805*
X96896Y33884*
X96853Y33960*
X96805Y34035*
X96754Y34106*
X96700Y34176*
X96643Y34243*
X96582Y34307*
X96518Y34368*
X96452Y34426*
X96383Y34480*
X96311Y34532*
X96237Y34579*
X96161Y34624*
X96083Y34664*
X96003Y34701*
X95921Y34734*
X95838Y34763*
X95754Y34788*
X95668Y34809*
X95582Y34826*
X95495Y34839*
X95407Y34848*
X95319Y34852*
X36559Y17132D02*
G01X36547Y16929D01*
X36525Y16727*
X36493Y16526*
X36452Y16327*
X36401Y16130*
X36340Y15936*
X36269Y15746*
X36190Y15558*
X36101Y15376*
X36004Y15197*
X35898Y15024*
X35783Y14856*
X35661Y14694*
X35530Y14538*
X35392Y14388*
X35247Y14246*
X35095Y14111*
X34937Y13983*
X34773Y13864*
X34602Y13752*
X34427Y13649*
X34247Y13555*
X34062Y13470*
X33874Y13394*
X33682Y13327*
X33487Y13270*
X33289Y13222*
X33089Y13185*
X32888Y13157*
X32685Y13139*
X32482Y13130*
X32279Y13132*
G54D83*
X34979Y15762D02*
G01X34977Y15708D01*
X34971Y15654*
X34961Y15601*
X34948Y15548*
X34931Y15497*
X34910Y15447*
X34885Y15399*
X34857Y15352*
X34826Y15308*
X34792Y15266*
X34755Y15227*
X34715Y15190*
X34672Y15157*
X34627Y15126*
X34580Y15099*
X34532Y15076*
X34481Y15056*
X34430Y15039*
X34377Y15027*
X34324Y15018*
X34270Y15013*
X34215Y15012*
X34161Y15015*
X34108Y15022*
X34055Y15033*
X34002Y15047*
X33951Y15065*
X33902Y15087*
X33854Y15112*
X33808Y15141*
X33764Y15173*
X33723Y15208*
X33685Y15246*
X33649Y15287*
X33616Y15330*
X33586Y15375*
X33560Y15423*
X33537Y15472*
X33518Y15523*
X33503Y15574*
X33491Y15627*
X33483Y15681*
X33479Y15735*
Y15789*
X33483Y15843*
X33491Y15897*
X33503Y15950*
X33518Y16001*
X33537Y16052*
X33560Y16101*
X33586Y16149*
X33616Y16194*
X33649Y16237*
X33685Y16278*
X33723Y16316*
X33764Y16351*
X33808Y16383*
X33854Y16412*
X33902Y16437*
X33951Y16459*
X34002Y16477*
X34055Y16491*
X34108Y16502*
X34161Y16509*
X34215Y16512*
X34270Y16511*
X34324Y16506*
X34377Y16497*
X34430Y16485*
X34481Y16468*
X34532Y16448*
X34580Y16425*
X34627Y16398*
X34672Y16367*
X34715Y16334*
X34755Y16297*
X34792Y16258*
X34826Y16216*
X34857Y16172*
X34885Y16125*
X34910Y16077*
X34931Y16027*
X34948Y15976*
X34961Y15923*
X34971Y15870*
X34977Y15816*
X34979Y15762*
X15054Y14272D02*
G01X15052Y14246D01*
X15046Y14220*
X15036Y14195*
X15023Y14172*
X15007Y14152*
X14987Y14134*
X14965Y14119*
X14942Y14107*
X14916Y14099*
X14890Y14095*
X14864*
X14838Y14099*
X14812Y14107*
X14788Y14119*
X14767Y14134*
X14747Y14152*
X14731Y14172*
X14718Y14195*
X14708Y14220*
X14702Y14246*
X14700Y14272*
X14702Y14298*
X14708Y14324*
X14718Y14349*
X14731Y14372*
X14747Y14392*
X14767Y14410*
X14789Y14425*
X14812Y14437*
X14838Y14445*
X14864Y14449*
X14890*
X14916Y14445*
X14942Y14437*
X14966Y14425*
X14987Y14410*
X15007Y14392*
X15023Y14372*
X15036Y14349*
X15046Y14324*
X15052Y14298*
X15054Y14272*
X12258D02*
G01X12256Y14246D01*
X12250Y14220*
X12240Y14195*
X12227Y14172*
X12211Y14152*
X12191Y14134*
X12169Y14119*
X12146Y14107*
X12120Y14099*
X12094Y14095*
X12068*
X12042Y14099*
X12016Y14107*
X11992Y14119*
X11971Y14134*
X11951Y14152*
X11935Y14172*
X11922Y14195*
X11912Y14220*
X11906Y14246*
X11904Y14272*
X11906Y14298*
X11912Y14324*
X11922Y14349*
X11935Y14372*
X11951Y14392*
X11971Y14410*
X11993Y14425*
X12016Y14437*
X12042Y14445*
X12068Y14449*
X12094*
X12120Y14445*
X12146Y14437*
X12170Y14425*
X12191Y14410*
X12211Y14392*
X12227Y14372*
X12240Y14349*
X12250Y14324*
X12256Y14298*
X12258Y14272*
X4109Y15832D02*
G01X4107Y15762D01*
X4101Y15692*
X4091Y15623*
X4078Y15554*
X4060Y15486*
X4039Y15419*
X4014Y15354*
X3985Y15290*
X3953Y15227*
X3917Y15167*
X3878Y15109*
X3836Y15053*
X3791Y14999*
X3743Y14948*
X3692Y14900*
X3638Y14855*
X3582Y14813*
X3524Y14774*
X3464Y14738*
X3401Y14706*
X3337Y14677*
X3272Y14652*
X3205Y14631*
X3137Y14613*
X3068Y14600*
X2999Y14590*
X2929Y14584*
X2859Y14582*
X2789Y14584*
X2719Y14590*
X2650Y14600*
X2581Y14613*
X2513Y14631*
X2446Y14652*
X2381Y14677*
X2317Y14706*
X2254Y14738*
X2194Y14774*
X2136Y14813*
X2080Y14855*
X2026Y14900*
X1975Y14948*
X1927Y14999*
X1882Y15053*
X1840Y15109*
X1801Y15167*
X1765Y15227*
X1733Y15290*
X1704Y15354*
X1679Y15419*
X1658Y15486*
X1640Y15554*
X1627Y15623*
X1617Y15692*
X1611Y15762*
X1609Y15832*
X1611Y15902*
X1617Y15972*
X1627Y16041*
X1640Y16110*
X1658Y16178*
X1679Y16245*
X1704Y16310*
X1733Y16374*
X1765Y16437*
X1801Y16497*
X1840Y16555*
X1882Y16611*
X1927Y16665*
X1975Y16716*
X2026Y16764*
X2080Y16809*
X2136Y16851*
X2194Y16890*
X2254Y16926*
X2317Y16958*
X2381Y16987*
X2446Y17012*
X2513Y17033*
X2581Y17051*
X2650Y17064*
X2719Y17074*
X2789Y17080*
X2859Y17082*
X2929Y17080*
X2999Y17074*
X3068Y17064*
X3137Y17051*
X3205Y17033*
X3272Y17012*
X3337Y16987*
X3401Y16958*
X3464Y16926*
X3524Y16890*
X3582Y16851*
X3638Y16809*
X3692Y16764*
X3743Y16716*
X3791Y16665*
X3836Y16611*
X3878Y16555*
X3917Y16497*
X3953Y16437*
X3985Y16374*
X4014Y16310*
X4039Y16245*
X4060Y16178*
X4078Y16110*
X4091Y16041*
X4101Y15972*
X4107Y15902*
X4109Y15832*
X3529Y29652D02*
G01X3527Y29582D01*
X3521Y29512*
X3511Y29443*
X3498Y29374*
X3480Y29306*
X3459Y29239*
X3434Y29174*
X3405Y29110*
X3373Y29047*
X3337Y28987*
X3298Y28929*
X3256Y28873*
X3211Y28819*
X3163Y28768*
X3112Y28720*
X3058Y28675*
X3002Y28633*
X2944Y28594*
X2884Y28558*
X2821Y28526*
X2757Y28497*
X2692Y28472*
X2625Y28451*
X2557Y28433*
X2488Y28420*
X2419Y28410*
X2349Y28404*
X2279Y28402*
X2209Y28404*
X2139Y28410*
X2070Y28420*
X2001Y28433*
X1933Y28451*
X1866Y28472*
X1801Y28497*
X1737Y28526*
X1674Y28558*
X1614Y28594*
X1556Y28633*
X1500Y28675*
X1446Y28720*
X1395Y28768*
X1347Y28819*
X1302Y28873*
X1260Y28929*
X1221Y28987*
X1185Y29047*
X1153Y29110*
X1124Y29174*
X1099Y29239*
X1078Y29306*
X1060Y29374*
X1047Y29443*
X1037Y29512*
X1031Y29582*
X1029Y29652*
X1031Y29722*
X1037Y29792*
X1047Y29861*
X1060Y29930*
X1078Y29998*
X1099Y30065*
X1124Y30130*
X1153Y30194*
X1185Y30257*
X1221Y30317*
X1260Y30375*
X1302Y30431*
X1347Y30485*
X1395Y30536*
X1446Y30584*
X1500Y30629*
X1556Y30671*
X1614Y30710*
X1674Y30746*
X1737Y30778*
X1801Y30807*
X1866Y30832*
X1933Y30853*
X2001Y30871*
X2070Y30884*
X2139Y30894*
X2209Y30900*
X2279Y30902*
X2349Y30900*
X2419Y30894*
X2488Y30884*
X2557Y30871*
X2625Y30853*
X2692Y30832*
X2757Y30807*
X2821Y30778*
X2884Y30746*
X2944Y30710*
X3002Y30671*
X3058Y30629*
X3112Y30584*
X3163Y30536*
X3211Y30485*
X3256Y30431*
X3298Y30375*
X3337Y30317*
X3373Y30257*
X3405Y30194*
X3434Y30130*
X3459Y30065*
X3480Y29998*
X3498Y29930*
X3511Y29861*
X3521Y29792*
X3527Y29722*
X3529Y29652*
X95729Y25532D02*
G01X95727Y25462D01*
X95721Y25392*
X95711Y25323*
X95698Y25254*
X95680Y25186*
X95659Y25119*
X95634Y25054*
X95605Y24990*
X95573Y24927*
X95537Y24867*
X95498Y24809*
X95456Y24753*
X95411Y24699*
X95363Y24648*
X95312Y24600*
X95258Y24555*
X95202Y24513*
X95144Y24474*
X95084Y24438*
X95021Y24406*
X94957Y24377*
X94892Y24352*
X94825Y24331*
X94757Y24313*
X94688Y24300*
X94619Y24290*
X94549Y24284*
X94479Y24282*
X94409Y24284*
X94339Y24290*
X94270Y24300*
X94201Y24313*
X94133Y24331*
X94066Y24352*
X94001Y24377*
X93937Y24406*
X93874Y24438*
X93814Y24474*
X93756Y24513*
X93700Y24555*
X93646Y24600*
X93595Y24648*
X93547Y24699*
X93502Y24753*
X93460Y24809*
X93421Y24867*
X93385Y24927*
X93353Y24990*
X93324Y25054*
X93299Y25119*
X93278Y25186*
X93260Y25254*
X93247Y25323*
X93237Y25392*
X93231Y25462*
X93229Y25532*
X93231Y25602*
X93237Y25672*
X93247Y25741*
X93260Y25810*
X93278Y25878*
X93299Y25945*
X93324Y26010*
X93353Y26074*
X93385Y26137*
X93421Y26197*
X93460Y26255*
X93502Y26311*
X93547Y26365*
X93595Y26416*
X93646Y26464*
X93700Y26509*
X93756Y26551*
X93814Y26590*
X93874Y26626*
X93937Y26658*
X94001Y26687*
X94066Y26712*
X94133Y26733*
X94201Y26751*
X94270Y26764*
X94339Y26774*
X94409Y26780*
X94479Y26782*
X94549Y26780*
X94619Y26774*
X94688Y26764*
X94757Y26751*
X94825Y26733*
X94892Y26712*
X94957Y26687*
X95021Y26658*
X95084Y26626*
X95144Y26590*
X95202Y26551*
X95258Y26509*
X95312Y26464*
X95363Y26416*
X95411Y26365*
X95456Y26311*
X95498Y26255*
X95537Y26197*
X95573Y26137*
X95605Y26074*
X95634Y26010*
X95659Y25945*
X95680Y25878*
X95698Y25810*
X95711Y25741*
X95721Y25672*
X95727Y25602*
X95729Y25532*
X96029Y32352D02*
G01X96027Y32282D01*
X96021Y32212*
X96011Y32143*
X95998Y32074*
X95980Y32006*
X95959Y31939*
X95934Y31874*
X95905Y31810*
X95873Y31747*
X95837Y31687*
X95798Y31629*
X95756Y31573*
X95711Y31519*
X95663Y31468*
X95612Y31420*
X95558Y31375*
X95502Y31333*
X95444Y31294*
X95384Y31258*
X95321Y31226*
X95257Y31197*
X95192Y31172*
X95125Y31151*
X95057Y31133*
X94988Y31120*
X94919Y31110*
X94849Y31104*
X94779Y31102*
X94709Y31104*
X94639Y31110*
X94570Y31120*
X94501Y31133*
X94433Y31151*
X94366Y31172*
X94301Y31197*
X94237Y31226*
X94174Y31258*
X94114Y31294*
X94056Y31333*
X94000Y31375*
X93946Y31420*
X93895Y31468*
X93847Y31519*
X93802Y31573*
X93760Y31629*
X93721Y31687*
X93685Y31747*
X93653Y31810*
X93624Y31874*
X93599Y31939*
X93578Y32006*
X93560Y32074*
X93547Y32143*
X93537Y32212*
X93531Y32282*
X93529Y32352*
X93531Y32422*
X93537Y32492*
X93547Y32561*
X93560Y32630*
X93578Y32698*
X93599Y32765*
X93624Y32830*
X93653Y32894*
X93685Y32957*
X93721Y33017*
X93760Y33075*
X93802Y33131*
X93847Y33185*
X93895Y33236*
X93946Y33284*
X94000Y33329*
X94056Y33371*
X94114Y33410*
X94174Y33446*
X94237Y33478*
X94301Y33507*
X94366Y33532*
X94433Y33553*
X94501Y33571*
X94570Y33584*
X94639Y33594*
X94709Y33600*
X94779Y33602*
X94849Y33600*
X94919Y33594*
X94988Y33584*
X95057Y33571*
X95125Y33553*
X95192Y33532*
X95257Y33507*
X95321Y33478*
X95384Y33446*
X95444Y33410*
X95502Y33371*
X95558Y33329*
X95612Y33284*
X95663Y33236*
X95711Y33185*
X95756Y33131*
X95798Y33075*
X95837Y33017*
X95873Y32957*
X95905Y32894*
X95934Y32830*
X95959Y32765*
X95980Y32698*
X95998Y32630*
X96011Y32561*
X96021Y32492*
X96027Y32422*
X96029Y32352*
G54D36*
X2034Y358D02*
G01X3094D01*
Y357D02*
G01X3184Y362D01*
X3274Y370*
X3363Y383*
X3452Y400*
X3539Y421*
X3626Y446*
X3711Y475*
X3795Y509*
X3877Y546*
X3957Y587*
X4035Y632*
X4111Y681*
X4184Y733*
X4255Y789*
X4323Y848*
X4389Y910*
X4451Y975*
X4510Y1043*
X4566Y1114*
X4618Y1187*
X4667Y1263*
X4712Y1341*
X4754Y1421*
X4791Y1503*
X4825Y1586*
X4854Y1671*
X4880Y1758*
X4901Y1845*
X4918Y1934*
X4931Y2023*
X4940Y2113*
X4944Y2202*
X4945Y2293*
X4944D02*
G01X93754Y2278D01*
X93905Y2265*
X94057Y2259*
X94208Y2261*
X94359Y2270*
X94510Y2287*
X94660Y2311*
X94808Y2342*
X94955Y2381*
X95100Y2426*
X95242Y2479*
X95381Y2538*
X95518Y2605*
X95651Y2677*
X95780Y2756*
X95906Y2842*
X96027Y2933*
X96143Y3030*
X96255Y3133*
X96361Y3241*
X96462Y3354*
X96557Y3472*
X96647Y3594*
X96730Y3721*
X96808Y3852*
X96878Y3986*
X96943Y4123*
X97000Y4263*
X97050Y4406*
X97094Y4552*
X97130Y4699*
X97159Y4848*
X97181Y4998*
X97195Y5149*
X97202Y5300*
Y5452*
X97194Y5603*
X97179Y5754*
X97157Y5904*
X97127Y6053*
X97090Y6200*
X97046Y6345*
X96995Y6488*
X96937Y6628*
X96872Y6765*
X96801Y6899*
X96723Y7029*
X96639Y7155*
X96549Y7277*
X96453Y7395*
X96351Y7507*
X96244Y7615*
X96132Y7717*
X96015Y7814*
X95894Y7904*
X95768Y7989*
X95639Y8068*
X95505Y8140*
X95368Y8205*
X95229Y8264*
X95086Y8316*
X94941Y8361*
X94794Y8399*
X94646Y8429*
X94496Y8453*
X94345Y8469*
X94194Y8477*
Y8478D02*
G01Y16678D01*
X94326Y16679*
X94458Y16687*
X94589Y16701*
X94719Y16721*
X94848Y16748*
X94976Y16780*
X95102Y16820*
X95226Y16865*
X95347Y16916*
X95466Y16973*
X95582Y17036*
X95695Y17104*
X95804Y17178*
X95910Y17257*
X96011Y17341*
X96109Y17430*
X96201Y17524*
X96290Y17622*
X96373Y17724*
X96451Y17830*
X96524Y17940*
X96592Y18053*
X96654Y18170*
X96710Y18289*
X96760Y18411*
X96804Y18535*
X96842Y18661*
X96874Y18789*
X96900Y18919*
X96919Y19049*
X96932Y19180*
X96938Y19312*
Y19444*
X96932Y19576*
X96919Y19707*
X96900Y19837*
X96874Y19967*
X96842Y20095*
X96804Y20221*
X96760Y20345*
X96710Y20467*
X96654Y20586*
X96592Y20703*
X96524Y20816*
X96451Y20926*
X96373Y21032*
X96290Y21134*
X96201Y21232*
X96109Y21326*
X96011Y21415*
X95910Y21499*
X95804Y21578*
X95695Y21652*
X95582Y21720*
X95466Y21783*
X95347Y21840*
X95226Y21891*
X95102Y21936*
X94976Y21976*
X94848Y22008*
X94719Y22035*
X94589Y22055*
X94458Y22069*
X94326Y22077*
X94194Y22078*
X65074*
X60794Y18078D02*
G01X60780Y17777D01*
X60751Y17477*
X60707Y17178*
X60649Y16883*
X60576Y16590*
X60489Y16302*
X60388Y16018*
X60273Y15739*
X60145Y15466*
X60003Y15200*
X59849Y14941*
X59682Y14690*
X59503Y14448*
X59312Y14214*
X59110Y13991*
X58897Y13777*
X58674Y13574*
X58441Y13383*
X58199Y13203*
X57949Y13035*
X57691Y12879*
X57425Y12737*
X57153Y12607*
X56874Y12491*
X56591Y12389*
X56303Y12301*
X56010Y12228*
X55715Y12168*
X55417Y12124*
X55117Y12093*
X54815Y12078*
X54514*
X2434*
X2328Y12077*
X2222Y12071*
X2117Y12060*
X2012Y12044*
X1908Y12023*
X1805Y11996*
X1704Y11965*
X1604Y11929*
X1507Y11887*
X1411Y11841*
X1318Y11791*
X1227Y11736*
X1140Y11676*
X1055Y11613*
X973Y11545*
X895Y11473*
X821Y11398*
X750Y11319*
X683Y11237*
X621Y11151*
X562Y11063*
X508Y10971*
X459Y10878*
X414Y10781*
X374Y10683*
X339Y10583*
X309Y10482*
X284Y10379*
X264Y10274*
X249Y10170*
X239Y10064*
X234Y9958*
Y2258*
X233Y2170*
X237Y2082*
X245Y1994*
X258Y1907*
X274Y1820*
X295Y1735*
X319Y1650*
X348Y1567*
X380Y1485*
X416Y1405*
X457Y1326*
X500Y1250*
X548Y1175*
X599Y1104*
X653Y1034*
X710Y967*
X771Y903*
X835Y842*
X901Y784*
X970Y730*
X1042Y678*
X1116Y631*
X1192Y586*
X1270Y546*
X1350Y509*
X1432Y476*
X1515Y447*
X1599Y422*
X1685Y401*
X1771Y384*
X1858Y371*
X1946Y362*
X2034Y358*
X60794Y18078D02*
G01X60806Y18281D01*
X60828Y18483*
X60860Y18684*
X60901Y18883*
X60952Y19080*
X61013Y19274*
X61084Y19464*
X61163Y19652*
X61252Y19834*
X61349Y20013*
X61455Y20186*
X61570Y20354*
X61692Y20516*
X61823Y20672*
X61961Y20822*
X62106Y20964*
X62258Y21099*
X62416Y21227*
X62580Y21346*
X62751Y21458*
X62926Y21561*
X63106Y21655*
X63291Y21740*
X63479Y21816*
X63671Y21883*
X63866Y21940*
X64064Y21988*
X64264Y22025*
X64465Y22053*
X64668Y22071*
X64871Y22080*
X65074Y22078*
G54D83*
X62374Y19448D02*
G01X62376Y19502D01*
X62382Y19556*
X62392Y19609*
X62405Y19662*
X62422Y19713*
X62443Y19763*
X62468Y19811*
X62496Y19858*
X62527Y19902*
X62561Y19944*
X62598Y19983*
X62638Y20020*
X62681Y20053*
X62726Y20084*
X62773Y20111*
X62821Y20134*
X62872Y20154*
X62923Y20171*
X62976Y20183*
X63029Y20192*
X63083Y20197*
X63138Y20198*
X63192Y20195*
X63245Y20188*
X63298Y20177*
X63351Y20163*
X63402Y20145*
X63451Y20123*
X63499Y20098*
X63545Y20069*
X63589Y20037*
X63630Y20002*
X63668Y19964*
X63704Y19923*
X63737Y19880*
X63767Y19835*
X63793Y19787*
X63816Y19738*
X63835Y19687*
X63850Y19636*
X63862Y19583*
X63870Y19529*
X63874Y19475*
Y19421*
X63870Y19367*
X63862Y19313*
X63850Y19260*
X63835Y19209*
X63816Y19158*
X63793Y19109*
X63767Y19061*
X63737Y19016*
X63704Y18973*
X63668Y18932*
X63630Y18894*
X63589Y18859*
X63545Y18827*
X63499Y18798*
X63451Y18773*
X63402Y18751*
X63351Y18733*
X63298Y18719*
X63245Y18708*
X63192Y18701*
X63138Y18698*
X63083Y18699*
X63029Y18704*
X62976Y18713*
X62923Y18725*
X62872Y18742*
X62821Y18762*
X62773Y18785*
X62726Y18812*
X62681Y18843*
X62638Y18876*
X62598Y18913*
X62561Y18952*
X62527Y18994*
X62496Y19038*
X62468Y19085*
X62443Y19133*
X62422Y19183*
X62405Y19234*
X62392Y19287*
X62382Y19340*
X62376Y19394*
X62374Y19448*
X82299Y20938D02*
G01X82301Y20964D01*
X82307Y20990*
X82317Y21015*
X82330Y21038*
X82346Y21058*
X82366Y21076*
X82388Y21091*
X82411Y21103*
X82437Y21111*
X82463Y21115*
X82489*
X82515Y21111*
X82541Y21103*
X82565Y21091*
X82586Y21076*
X82606Y21058*
X82622Y21038*
X82635Y21015*
X82645Y20990*
X82651Y20964*
X82653Y20938*
X82651Y20912*
X82645Y20886*
X82635Y20861*
X82622Y20838*
X82606Y20818*
X82586Y20800*
X82564Y20785*
X82541Y20773*
X82515Y20765*
X82489Y20761*
X82463*
X82437Y20765*
X82411Y20773*
X82387Y20785*
X82366Y20800*
X82346Y20818*
X82330Y20838*
X82317Y20861*
X82307Y20886*
X82301Y20912*
X82299Y20938*
X85095D02*
G01X85097Y20964D01*
X85103Y20990*
X85113Y21015*
X85126Y21038*
X85142Y21058*
X85162Y21076*
X85184Y21091*
X85207Y21103*
X85233Y21111*
X85259Y21115*
X85285*
X85311Y21111*
X85337Y21103*
X85361Y21091*
X85382Y21076*
X85402Y21058*
X85418Y21038*
X85431Y21015*
X85441Y20990*
X85447Y20964*
X85449Y20938*
X85447Y20912*
X85441Y20886*
X85431Y20861*
X85418Y20838*
X85402Y20818*
X85382Y20800*
X85360Y20785*
X85337Y20773*
X85311Y20765*
X85285Y20761*
X85259*
X85233Y20765*
X85207Y20773*
X85183Y20785*
X85162Y20800*
X85142Y20818*
X85126Y20838*
X85113Y20861*
X85103Y20886*
X85097Y20912*
X85095Y20938*
X93244Y19378D02*
G01X93246Y19448D01*
X93252Y19518*
X93262Y19587*
X93275Y19656*
X93293Y19724*
X93314Y19791*
X93339Y19856*
X93368Y19920*
X93400Y19983*
X93436Y20043*
X93475Y20101*
X93517Y20157*
X93562Y20211*
X93610Y20262*
X93661Y20310*
X93715Y20355*
X93771Y20397*
X93829Y20436*
X93889Y20472*
X93952Y20504*
X94016Y20533*
X94081Y20558*
X94148Y20579*
X94216Y20597*
X94285Y20610*
X94354Y20620*
X94424Y20626*
X94494Y20628*
X94564Y20626*
X94634Y20620*
X94703Y20610*
X94772Y20597*
X94840Y20579*
X94907Y20558*
X94972Y20533*
X95036Y20504*
X95099Y20472*
X95159Y20436*
X95217Y20397*
X95273Y20355*
X95327Y20310*
X95378Y20262*
X95426Y20211*
X95471Y20157*
X95513Y20101*
X95552Y20043*
X95588Y19983*
X95620Y19920*
X95649Y19856*
X95674Y19791*
X95695Y19724*
X95713Y19656*
X95726Y19587*
X95736Y19518*
X95742Y19448*
X95744Y19378*
X95742Y19308*
X95736Y19238*
X95726Y19169*
X95713Y19100*
X95695Y19032*
X95674Y18965*
X95649Y18900*
X95620Y18836*
X95588Y18773*
X95552Y18713*
X95513Y18655*
X95471Y18599*
X95426Y18545*
X95378Y18494*
X95327Y18446*
X95273Y18401*
X95217Y18359*
X95159Y18320*
X95099Y18284*
X95036Y18252*
X94972Y18223*
X94907Y18198*
X94840Y18177*
X94772Y18159*
X94703Y18146*
X94634Y18136*
X94564Y18130*
X94494Y18128*
X94424Y18130*
X94354Y18136*
X94285Y18146*
X94216Y18159*
X94148Y18177*
X94081Y18198*
X94016Y18223*
X93952Y18252*
X93889Y18284*
X93829Y18320*
X93771Y18359*
X93715Y18401*
X93661Y18446*
X93610Y18494*
X93562Y18545*
X93517Y18599*
X93475Y18655*
X93436Y18713*
X93400Y18773*
X93368Y18836*
X93339Y18900*
X93314Y18965*
X93293Y19032*
X93275Y19100*
X93262Y19169*
X93252Y19238*
X93246Y19308*
X93244Y19378*
X93824Y5558D02*
G01X93826Y5628D01*
X93832Y5698*
X93842Y5767*
X93855Y5836*
X93873Y5904*
X93894Y5971*
X93919Y6036*
X93948Y6100*
X93980Y6163*
X94016Y6223*
X94055Y6281*
X94097Y6337*
X94142Y6391*
X94190Y6442*
X94241Y6490*
X94295Y6535*
X94351Y6577*
X94409Y6616*
X94469Y6652*
X94532Y6684*
X94596Y6713*
X94661Y6738*
X94728Y6759*
X94796Y6777*
X94865Y6790*
X94934Y6800*
X95004Y6806*
X95074Y6808*
X95144Y6806*
X95214Y6800*
X95283Y6790*
X95352Y6777*
X95420Y6759*
X95487Y6738*
X95552Y6713*
X95616Y6684*
X95679Y6652*
X95739Y6616*
X95797Y6577*
X95853Y6535*
X95907Y6490*
X95958Y6442*
X96006Y6391*
X96051Y6337*
X96093Y6281*
X96132Y6223*
X96168Y6163*
X96200Y6100*
X96229Y6036*
X96254Y5971*
X96275Y5904*
X96293Y5836*
X96306Y5767*
X96316Y5698*
X96322Y5628*
X96324Y5558*
X96322Y5488*
X96316Y5418*
X96306Y5349*
X96293Y5280*
X96275Y5212*
X96254Y5145*
X96229Y5080*
X96200Y5016*
X96168Y4953*
X96132Y4893*
X96093Y4835*
X96051Y4779*
X96006Y4725*
X95958Y4674*
X95907Y4626*
X95853Y4581*
X95797Y4539*
X95739Y4500*
X95679Y4464*
X95616Y4432*
X95552Y4403*
X95487Y4378*
X95420Y4357*
X95352Y4339*
X95283Y4326*
X95214Y4316*
X95144Y4310*
X95074Y4308*
X95004Y4310*
X94934Y4316*
X94865Y4326*
X94796Y4339*
X94728Y4357*
X94661Y4378*
X94596Y4403*
X94532Y4432*
X94469Y4464*
X94409Y4500*
X94351Y4539*
X94295Y4581*
X94241Y4626*
X94190Y4674*
X94142Y4725*
X94097Y4779*
X94055Y4835*
X94016Y4893*
X93980Y4953*
X93948Y5016*
X93919Y5080*
X93894Y5145*
X93873Y5212*
X93855Y5280*
X93842Y5349*
X93832Y5418*
X93826Y5488*
X93824Y5558*
X1624Y9678D02*
G01X1626Y9748D01*
X1632Y9818*
X1642Y9887*
X1655Y9956*
X1673Y10024*
X1694Y10091*
X1719Y10156*
X1748Y10220*
X1780Y10283*
X1816Y10343*
X1855Y10401*
X1897Y10457*
X1942Y10511*
X1990Y10562*
X2041Y10610*
X2095Y10655*
X2151Y10697*
X2209Y10736*
X2269Y10772*
X2332Y10804*
X2396Y10833*
X2461Y10858*
X2528Y10879*
X2596Y10897*
X2665Y10910*
X2734Y10920*
X2804Y10926*
X2874Y10928*
X2944Y10926*
X3014Y10920*
X3083Y10910*
X3152Y10897*
X3220Y10879*
X3287Y10858*
X3352Y10833*
X3416Y10804*
X3479Y10772*
X3539Y10736*
X3597Y10697*
X3653Y10655*
X3707Y10610*
X3758Y10562*
X3806Y10511*
X3851Y10457*
X3893Y10401*
X3932Y10343*
X3968Y10283*
X4000Y10220*
X4029Y10156*
X4054Y10091*
X4075Y10024*
X4093Y9956*
X4106Y9887*
X4116Y9818*
X4122Y9748*
X4124Y9678*
X4122Y9608*
X4116Y9538*
X4106Y9469*
X4093Y9400*
X4075Y9332*
X4054Y9265*
X4029Y9200*
X4000Y9136*
X3968Y9073*
X3932Y9013*
X3893Y8955*
X3851Y8899*
X3806Y8845*
X3758Y8794*
X3707Y8746*
X3653Y8701*
X3597Y8659*
X3539Y8620*
X3479Y8584*
X3416Y8552*
X3352Y8523*
X3287Y8498*
X3220Y8477*
X3152Y8459*
X3083Y8446*
X3014Y8436*
X2944Y8430*
X2874Y8428*
X2804Y8430*
X2734Y8436*
X2665Y8446*
X2596Y8459*
X2528Y8477*
X2461Y8498*
X2396Y8523*
X2332Y8552*
X2269Y8584*
X2209Y8620*
X2151Y8659*
X2095Y8701*
X2041Y8746*
X1990Y8794*
X1942Y8845*
X1897Y8899*
X1855Y8955*
X1816Y9013*
X1780Y9073*
X1748Y9136*
X1719Y9200*
X1694Y9265*
X1673Y9332*
X1655Y9400*
X1642Y9469*
X1632Y9538*
X1626Y9608*
X1624Y9678*
X1324Y2858D02*
G01X1326Y2928D01*
X1332Y2998*
X1342Y3067*
X1355Y3136*
X1373Y3204*
X1394Y3271*
X1419Y3336*
X1448Y3400*
X1480Y3463*
X1516Y3523*
X1555Y3581*
X1597Y3637*
X1642Y3691*
X1690Y3742*
X1741Y3790*
X1795Y3835*
X1851Y3877*
X1909Y3916*
X1969Y3952*
X2032Y3984*
X2096Y4013*
X2161Y4038*
X2228Y4059*
X2296Y4077*
X2365Y4090*
X2434Y4100*
X2504Y4106*
X2574Y4108*
X2644Y4106*
X2714Y4100*
X2783Y4090*
X2852Y4077*
X2920Y4059*
X2987Y4038*
X3052Y4013*
X3116Y3984*
X3179Y3952*
X3239Y3916*
X3297Y3877*
X3353Y3835*
X3407Y3790*
X3458Y3742*
X3506Y3691*
X3551Y3637*
X3593Y3581*
X3632Y3523*
X3668Y3463*
X3700Y3400*
X3729Y3336*
X3754Y3271*
X3775Y3204*
X3793Y3136*
X3806Y3067*
X3816Y2998*
X3822Y2928*
X3824Y2858*
X3822Y2788*
X3816Y2718*
X3806Y2649*
X3793Y2580*
X3775Y2512*
X3754Y2445*
X3729Y2380*
X3700Y2316*
X3668Y2253*
X3632Y2193*
X3593Y2135*
X3551Y2079*
X3506Y2025*
X3458Y1974*
X3407Y1926*
X3353Y1881*
X3297Y1839*
X3239Y1800*
X3179Y1764*
X3116Y1732*
X3052Y1703*
X2987Y1678*
X2920Y1657*
X2852Y1639*
X2783Y1626*
X2714Y1616*
X2644Y1610*
X2574Y1608*
X2504Y1610*
X2434Y1616*
X2365Y1626*
X2296Y1639*
X2228Y1657*
X2161Y1678*
X2096Y1703*
X2032Y1732*
X1969Y1764*
X1909Y1800*
X1851Y1839*
X1795Y1881*
X1741Y1926*
X1690Y1974*
X1642Y2025*
X1597Y2079*
X1555Y2135*
X1516Y2193*
X1480Y2253*
X1448Y2316*
X1419Y2380*
X1394Y2445*
X1373Y2512*
X1355Y2580*
X1342Y2649*
X1332Y2718*
X1326Y2788*
X1324Y2858*
G54D36*
X95392Y68295D02*
G01X94332D01*
Y68296D02*
G01X94242Y68291D01*
X94152Y68283*
X94063Y68270*
X93974Y68253*
X93887Y68232*
X93800Y68207*
X93715Y68178*
X93631Y68144*
X93549Y68107*
X93469Y68066*
X93391Y68021*
X93315Y67972*
X93242Y67920*
X93171Y67864*
X93103Y67805*
X93037Y67743*
X92975Y67678*
X92916Y67610*
X92860Y67539*
X92808Y67466*
X92759Y67390*
X92714Y67312*
X92672Y67232*
X92635Y67150*
X92601Y67067*
X92572Y66982*
X92546Y66895*
X92525Y66808*
X92508Y66719*
X92495Y66630*
X92486Y66540*
X92482Y66451*
X92481Y66360*
X92482D02*
G01X3672Y66375D01*
X3521Y66388*
X3369Y66394*
X3218Y66392*
X3067Y66383*
X2916Y66366*
X2766Y66342*
X2618Y66311*
X2471Y66272*
X2326Y66227*
X2184Y66174*
X2045Y66115*
X1908Y66048*
X1775Y65976*
X1646Y65897*
X1520Y65811*
X1399Y65720*
X1283Y65623*
X1171Y65520*
X1065Y65412*
X964Y65299*
X869Y65181*
X779Y65059*
X696Y64932*
X618Y64801*
X548Y64667*
X483Y64530*
X426Y64390*
X376Y64247*
X332Y64101*
X296Y63954*
X267Y63805*
X245Y63655*
X231Y63504*
X224Y63353*
Y63201*
X232Y63050*
X247Y62899*
X269Y62749*
X299Y62600*
X336Y62453*
X380Y62308*
X431Y62165*
X489Y62025*
X554Y61888*
X625Y61754*
X703Y61624*
X787Y61498*
X877Y61376*
X973Y61258*
X1075Y61146*
X1182Y61038*
X1294Y60936*
X1411Y60839*
X1532Y60749*
X1658Y60664*
X1787Y60585*
X1921Y60513*
X2058Y60448*
X2197Y60389*
X2340Y60337*
X2485Y60292*
X2632Y60254*
X2780Y60224*
X2930Y60200*
X3081Y60184*
X3232Y60176*
Y60175D02*
G01Y51975D01*
X3100Y51974*
X2968Y51966*
X2837Y51952*
X2707Y51932*
X2578Y51905*
X2450Y51873*
X2324Y51833*
X2200Y51788*
X2079Y51737*
X1960Y51680*
X1844Y51617*
X1731Y51549*
X1622Y51475*
X1516Y51396*
X1415Y51312*
X1317Y51223*
X1225Y51129*
X1136Y51031*
X1053Y50929*
X975Y50823*
X902Y50713*
X834Y50600*
X772Y50483*
X716Y50364*
X666Y50242*
X622Y50118*
X584Y49992*
X552Y49864*
X526Y49734*
X507Y49604*
X494Y49473*
X488Y49341*
Y49209*
X494Y49077*
X507Y48946*
X526Y48816*
X552Y48686*
X584Y48558*
X622Y48432*
X666Y48308*
X716Y48186*
X772Y48067*
X834Y47950*
X902Y47837*
X975Y47727*
X1053Y47621*
X1136Y47519*
X1225Y47421*
X1317Y47327*
X1415Y47238*
X1516Y47154*
X1622Y47075*
X1731Y47001*
X1844Y46933*
X1960Y46870*
X2079Y46813*
X2200Y46762*
X2324Y46717*
X2450Y46677*
X2578Y46645*
X2707Y46618*
X2837Y46598*
X2968Y46584*
X3100Y46576*
X3232Y46575*
X32352*
X36632Y50575D02*
G01X36646Y50876D01*
X36675Y51176*
X36719Y51475*
X36777Y51770*
X36850Y52063*
X36937Y52351*
X37038Y52635*
X37153Y52914*
X37281Y53187*
X37423Y53453*
X37577Y53712*
X37744Y53963*
X37923Y54205*
X38114Y54439*
X38316Y54662*
X38529Y54876*
X38752Y55079*
X38985Y55270*
X39227Y55450*
X39477Y55618*
X39735Y55774*
X40001Y55916*
X40273Y56046*
X40552Y56162*
X40835Y56264*
X41123Y56352*
X41416Y56425*
X41711Y56485*
X42009Y56529*
X42309Y56560*
X42611Y56575*
X42912*
X94992*
X95098Y56576*
X95204Y56582*
X95309Y56593*
X95414Y56609*
X95518Y56630*
X95621Y56657*
X95722Y56688*
X95822Y56724*
X95919Y56766*
X96015Y56812*
X96108Y56862*
X96199Y56917*
X96286Y56977*
X96371Y57040*
X96453Y57108*
X96531Y57180*
X96605Y57255*
X96676Y57334*
X96743Y57416*
X96805Y57502*
X96864Y57590*
X96918Y57682*
X96967Y57775*
X97012Y57872*
X97052Y57970*
X97087Y58070*
X97117Y58171*
X97142Y58274*
X97162Y58379*
X97177Y58483*
X97187Y58589*
X97192Y58695*
Y66395*
X97193Y66483*
X97189Y66571*
X97181Y66659*
X97168Y66746*
X97152Y66833*
X97131Y66918*
X97107Y67003*
X97078Y67086*
X97046Y67168*
X97010Y67248*
X96969Y67327*
X96926Y67403*
X96878Y67478*
X96827Y67549*
X96773Y67619*
X96716Y67686*
X96655Y67750*
X96591Y67811*
X96525Y67869*
X96456Y67923*
X96384Y67975*
X96310Y68022*
X96234Y68067*
X96156Y68107*
X96076Y68144*
X95994Y68177*
X95911Y68206*
X95827Y68231*
X95741Y68252*
X95655Y68269*
X95568Y68282*
X95480Y68291*
X95392Y68295*
X36632Y50575D02*
G01X36620Y50372D01*
X36598Y50170*
X36566Y49969*
X36525Y49770*
X36474Y49573*
X36413Y49379*
X36342Y49189*
X36263Y49001*
X36174Y48819*
X36077Y48640*
X35971Y48467*
X35856Y48299*
X35734Y48137*
X35603Y47981*
X35465Y47831*
X35320Y47689*
X35168Y47554*
X35010Y47426*
X34846Y47307*
X34675Y47195*
X34500Y47092*
X34320Y46998*
X34135Y46913*
X33947Y46837*
X33755Y46770*
X33560Y46713*
X33362Y46665*
X33162Y46628*
X32961Y46600*
X32758Y46582*
X32555Y46573*
X32352Y46575*
G54D83*
X35052Y49205D02*
G01X35050Y49151D01*
X35044Y49097*
X35034Y49044*
X35021Y48991*
X35004Y48940*
X34983Y48890*
X34958Y48842*
X34930Y48795*
X34899Y48751*
X34865Y48709*
X34828Y48670*
X34788Y48633*
X34745Y48600*
X34700Y48569*
X34653Y48542*
X34605Y48519*
X34554Y48499*
X34503Y48482*
X34450Y48470*
X34397Y48461*
X34343Y48456*
X34288Y48455*
X34234Y48458*
X34181Y48465*
X34128Y48476*
X34075Y48490*
X34024Y48508*
X33975Y48530*
X33927Y48555*
X33881Y48584*
X33837Y48616*
X33796Y48651*
X33758Y48689*
X33722Y48730*
X33689Y48773*
X33659Y48818*
X33633Y48866*
X33610Y48915*
X33591Y48966*
X33576Y49017*
X33564Y49070*
X33556Y49124*
X33552Y49178*
Y49232*
X33556Y49286*
X33564Y49340*
X33576Y49393*
X33591Y49444*
X33610Y49495*
X33633Y49544*
X33659Y49592*
X33689Y49637*
X33722Y49680*
X33758Y49721*
X33796Y49759*
X33837Y49794*
X33881Y49826*
X33927Y49855*
X33975Y49880*
X34024Y49902*
X34075Y49920*
X34128Y49934*
X34181Y49945*
X34234Y49952*
X34288Y49955*
X34343Y49954*
X34397Y49949*
X34450Y49940*
X34503Y49928*
X34554Y49911*
X34605Y49891*
X34653Y49868*
X34700Y49841*
X34745Y49810*
X34788Y49777*
X34828Y49740*
X34865Y49701*
X34899Y49659*
X34930Y49615*
X34958Y49568*
X34983Y49520*
X35004Y49470*
X35021Y49419*
X35034Y49366*
X35044Y49313*
X35050Y49259*
X35052Y49205*
X15127Y47715D02*
G01X15125Y47689D01*
X15119Y47663*
X15109Y47638*
X15096Y47615*
X15080Y47595*
X15060Y47577*
X15038Y47562*
X15015Y47550*
X14989Y47542*
X14963Y47538*
X14937*
X14911Y47542*
X14885Y47550*
X14861Y47562*
X14840Y47577*
X14820Y47595*
X14804Y47615*
X14791Y47638*
X14781Y47663*
X14775Y47689*
X14773Y47715*
X14775Y47741*
X14781Y47767*
X14791Y47792*
X14804Y47815*
X14820Y47835*
X14840Y47853*
X14862Y47868*
X14885Y47880*
X14911Y47888*
X14937Y47892*
X14963*
X14989Y47888*
X15015Y47880*
X15039Y47868*
X15060Y47853*
X15080Y47835*
X15096Y47815*
X15109Y47792*
X15119Y47767*
X15125Y47741*
X15127Y47715*
X12331D02*
G01X12329Y47689D01*
X12323Y47663*
X12313Y47638*
X12300Y47615*
X12284Y47595*
X12264Y47577*
X12242Y47562*
X12219Y47550*
X12193Y47542*
X12167Y47538*
X12141*
X12115Y47542*
X12089Y47550*
X12065Y47562*
X12044Y47577*
X12024Y47595*
X12008Y47615*
X11995Y47638*
X11985Y47663*
X11979Y47689*
X11977Y47715*
X11979Y47741*
X11985Y47767*
X11995Y47792*
X12008Y47815*
X12024Y47835*
X12044Y47853*
X12066Y47868*
X12089Y47880*
X12115Y47888*
X12141Y47892*
X12167*
X12193Y47888*
X12219Y47880*
X12243Y47868*
X12264Y47853*
X12284Y47835*
X12300Y47815*
X12313Y47792*
X12323Y47767*
X12329Y47741*
X12331Y47715*
X4182Y49275D02*
G01X4180Y49205D01*
X4174Y49135*
X4164Y49066*
X4151Y48997*
X4133Y48929*
X4112Y48862*
X4087Y48797*
X4058Y48733*
X4026Y48670*
X3990Y48610*
X3951Y48552*
X3909Y48496*
X3864Y48442*
X3816Y48391*
X3765Y48343*
X3711Y48298*
X3655Y48256*
X3597Y48217*
X3537Y48181*
X3474Y48149*
X3410Y48120*
X3345Y48095*
X3278Y48074*
X3210Y48056*
X3141Y48043*
X3072Y48033*
X3002Y48027*
X2932Y48025*
X2862Y48027*
X2792Y48033*
X2723Y48043*
X2654Y48056*
X2586Y48074*
X2519Y48095*
X2454Y48120*
X2390Y48149*
X2327Y48181*
X2267Y48217*
X2209Y48256*
X2153Y48298*
X2099Y48343*
X2048Y48391*
X2000Y48442*
X1955Y48496*
X1913Y48552*
X1874Y48610*
X1838Y48670*
X1806Y48733*
X1777Y48797*
X1752Y48862*
X1731Y48929*
X1713Y48997*
X1700Y49066*
X1690Y49135*
X1684Y49205*
X1682Y49275*
X1684Y49345*
X1690Y49415*
X1700Y49484*
X1713Y49553*
X1731Y49621*
X1752Y49688*
X1777Y49753*
X1806Y49817*
X1838Y49880*
X1874Y49940*
X1913Y49998*
X1955Y50054*
X2000Y50108*
X2048Y50159*
X2099Y50207*
X2153Y50252*
X2209Y50294*
X2267Y50333*
X2327Y50369*
X2390Y50401*
X2454Y50430*
X2519Y50455*
X2586Y50476*
X2654Y50494*
X2723Y50507*
X2792Y50517*
X2862Y50523*
X2932Y50525*
X3002Y50523*
X3072Y50517*
X3141Y50507*
X3210Y50494*
X3278Y50476*
X3345Y50455*
X3410Y50430*
X3474Y50401*
X3537Y50369*
X3597Y50333*
X3655Y50294*
X3711Y50252*
X3765Y50207*
X3816Y50159*
X3864Y50108*
X3909Y50054*
X3951Y49998*
X3990Y49940*
X4026Y49880*
X4058Y49817*
X4087Y49753*
X4112Y49688*
X4133Y49621*
X4151Y49553*
X4164Y49484*
X4174Y49415*
X4180Y49345*
X4182Y49275*
X3602Y63095D02*
G01X3600Y63025D01*
X3594Y62955*
X3584Y62886*
X3571Y62817*
X3553Y62749*
X3532Y62682*
X3507Y62617*
X3478Y62553*
X3446Y62490*
X3410Y62430*
X3371Y62372*
X3329Y62316*
X3284Y62262*
X3236Y62211*
X3185Y62163*
X3131Y62118*
X3075Y62076*
X3017Y62037*
X2957Y62001*
X2894Y61969*
X2830Y61940*
X2765Y61915*
X2698Y61894*
X2630Y61876*
X2561Y61863*
X2492Y61853*
X2422Y61847*
X2352Y61845*
X2282Y61847*
X2212Y61853*
X2143Y61863*
X2074Y61876*
X2006Y61894*
X1939Y61915*
X1874Y61940*
X1810Y61969*
X1747Y62001*
X1687Y62037*
X1629Y62076*
X1573Y62118*
X1519Y62163*
X1468Y62211*
X1420Y62262*
X1375Y62316*
X1333Y62372*
X1294Y62430*
X1258Y62490*
X1226Y62553*
X1197Y62617*
X1172Y62682*
X1151Y62749*
X1133Y62817*
X1120Y62886*
X1110Y62955*
X1104Y63025*
X1102Y63095*
X1104Y63165*
X1110Y63235*
X1120Y63304*
X1133Y63373*
X1151Y63441*
X1172Y63508*
X1197Y63573*
X1226Y63637*
X1258Y63700*
X1294Y63760*
X1333Y63818*
X1375Y63874*
X1420Y63928*
X1468Y63979*
X1519Y64027*
X1573Y64072*
X1629Y64114*
X1687Y64153*
X1747Y64189*
X1810Y64221*
X1874Y64250*
X1939Y64275*
X2006Y64296*
X2074Y64314*
X2143Y64327*
X2212Y64337*
X2282Y64343*
X2352Y64345*
X2422Y64343*
X2492Y64337*
X2561Y64327*
X2630Y64314*
X2698Y64296*
X2765Y64275*
X2830Y64250*
X2894Y64221*
X2957Y64189*
X3017Y64153*
X3075Y64114*
X3131Y64072*
X3185Y64027*
X3236Y63979*
X3284Y63928*
X3329Y63874*
X3371Y63818*
X3410Y63760*
X3446Y63700*
X3478Y63637*
X3507Y63573*
X3532Y63508*
X3553Y63441*
X3571Y63373*
X3584Y63304*
X3594Y63235*
X3600Y63165*
X3602Y63095*
X95802Y58975D02*
G01X95800Y58905D01*
X95794Y58835*
X95784Y58766*
X95771Y58697*
X95753Y58629*
X95732Y58562*
X95707Y58497*
X95678Y58433*
X95646Y58370*
X95610Y58310*
X95571Y58252*
X95529Y58196*
X95484Y58142*
X95436Y58091*
X95385Y58043*
X95331Y57998*
X95275Y57956*
X95217Y57917*
X95157Y57881*
X95094Y57849*
X95030Y57820*
X94965Y57795*
X94898Y57774*
X94830Y57756*
X94761Y57743*
X94692Y57733*
X94622Y57727*
X94552Y57725*
X94482Y57727*
X94412Y57733*
X94343Y57743*
X94274Y57756*
X94206Y57774*
X94139Y57795*
X94074Y57820*
X94010Y57849*
X93947Y57881*
X93887Y57917*
X93829Y57956*
X93773Y57998*
X93719Y58043*
X93668Y58091*
X93620Y58142*
X93575Y58196*
X93533Y58252*
X93494Y58310*
X93458Y58370*
X93426Y58433*
X93397Y58497*
X93372Y58562*
X93351Y58629*
X93333Y58697*
X93320Y58766*
X93310Y58835*
X93304Y58905*
X93302Y58975*
X93304Y59045*
X93310Y59115*
X93320Y59184*
X93333Y59253*
X93351Y59321*
X93372Y59388*
X93397Y59453*
X93426Y59517*
X93458Y59580*
X93494Y59640*
X93533Y59698*
X93575Y59754*
X93620Y59808*
X93668Y59859*
X93719Y59907*
X93773Y59952*
X93829Y59994*
X93887Y60033*
X93947Y60069*
X94010Y60101*
X94074Y60130*
X94139Y60155*
X94206Y60176*
X94274Y60194*
X94343Y60207*
X94412Y60217*
X94482Y60223*
X94552Y60225*
X94622Y60223*
X94692Y60217*
X94761Y60207*
X94830Y60194*
X94898Y60176*
X94965Y60155*
X95030Y60130*
X95094Y60101*
X95157Y60069*
X95217Y60033*
X95275Y59994*
X95331Y59952*
X95385Y59907*
X95436Y59859*
X95484Y59808*
X95529Y59754*
X95571Y59698*
X95610Y59640*
X95646Y59580*
X95678Y59517*
X95707Y59453*
X95732Y59388*
X95753Y59321*
X95771Y59253*
X95784Y59184*
X95794Y59115*
X95800Y59045*
X95802Y58975*
X96102Y65795D02*
G01X96100Y65725D01*
X96094Y65655*
X96084Y65586*
X96071Y65517*
X96053Y65449*
X96032Y65382*
X96007Y65317*
X95978Y65253*
X95946Y65190*
X95910Y65130*
X95871Y65072*
X95829Y65016*
X95784Y64962*
X95736Y64911*
X95685Y64863*
X95631Y64818*
X95575Y64776*
X95517Y64737*
X95457Y64701*
X95394Y64669*
X95330Y64640*
X95265Y64615*
X95198Y64594*
X95130Y64576*
X95061Y64563*
X94992Y64553*
X94922Y64547*
X94852Y64545*
X94782Y64547*
X94712Y64553*
X94643Y64563*
X94574Y64576*
X94506Y64594*
X94439Y64615*
X94374Y64640*
X94310Y64669*
X94247Y64701*
X94187Y64737*
X94129Y64776*
X94073Y64818*
X94019Y64863*
X93968Y64911*
X93920Y64962*
X93875Y65016*
X93833Y65072*
X93794Y65130*
X93758Y65190*
X93726Y65253*
X93697Y65317*
X93672Y65382*
X93651Y65449*
X93633Y65517*
X93620Y65586*
X93610Y65655*
X93604Y65725*
X93602Y65795*
X93604Y65865*
X93610Y65935*
X93620Y66004*
X93633Y66073*
X93651Y66141*
X93672Y66208*
X93697Y66273*
X93726Y66337*
X93758Y66400*
X93794Y66460*
X93833Y66518*
X93875Y66574*
X93920Y66628*
X93968Y66679*
X94019Y66727*
X94073Y66772*
X94129Y66814*
X94187Y66853*
X94247Y66889*
X94310Y66921*
X94374Y66950*
X94439Y66975*
X94506Y66996*
X94574Y67014*
X94643Y67027*
X94712Y67037*
X94782Y67043*
X94852Y67045*
X94922Y67043*
X94992Y67037*
X95061Y67027*
X95130Y67014*
X95198Y66996*
X95265Y66975*
X95330Y66950*
X95394Y66921*
X95457Y66889*
X95517Y66853*
X95575Y66814*
X95631Y66772*
X95685Y66727*
X95736Y66679*
X95784Y66628*
X95829Y66574*
X95871Y66518*
X95910Y66460*
X95946Y66400*
X95978Y66337*
X96007Y66273*
X96032Y66208*
X96053Y66141*
X96071Y66073*
X96084Y66004*
X96094Y65935*
X96100Y65865*
X96102Y65795*
G54D36*
X2107Y33801D02*
G01X3167D01*
Y33800D02*
G01X3257Y33805D01*
X3347Y33813*
X3436Y33826*
X3525Y33843*
X3612Y33864*
X3699Y33889*
X3784Y33918*
X3868Y33952*
X3950Y33989*
X4030Y34030*
X4108Y34075*
X4184Y34124*
X4257Y34176*
X4328Y34232*
X4396Y34291*
X4462Y34353*
X4524Y34418*
X4583Y34486*
X4639Y34557*
X4691Y34630*
X4740Y34706*
X4785Y34784*
X4827Y34864*
X4864Y34946*
X4898Y35029*
X4927Y35114*
X4953Y35201*
X4974Y35288*
X4991Y35377*
X5004Y35466*
X5013Y35556*
X5017Y35645*
X5018Y35736*
X5017D02*
G01X93827Y35721D01*
X93978Y35708*
X94130Y35702*
X94281Y35704*
X94432Y35713*
X94583Y35730*
X94733Y35754*
X94881Y35785*
X95028Y35824*
X95173Y35869*
X95315Y35922*
X95454Y35981*
X95591Y36048*
X95724Y36120*
X95853Y36199*
X95979Y36285*
X96100Y36376*
X96216Y36473*
X96328Y36576*
X96434Y36684*
X96535Y36797*
X96630Y36915*
X96720Y37037*
X96803Y37164*
X96881Y37295*
X96951Y37429*
X97016Y37566*
X97073Y37706*
X97123Y37849*
X97167Y37995*
X97203Y38142*
X97232Y38291*
X97254Y38441*
X97268Y38592*
X97275Y38743*
Y38895*
X97267Y39046*
X97252Y39197*
X97230Y39347*
X97200Y39496*
X97163Y39643*
X97119Y39788*
X97068Y39931*
X97010Y40071*
X96945Y40208*
X96874Y40342*
X96796Y40472*
X96712Y40598*
X96622Y40720*
X96526Y40838*
X96424Y40950*
X96317Y41058*
X96205Y41160*
X96088Y41257*
X95967Y41347*
X95841Y41432*
X95712Y41511*
X95578Y41583*
X95441Y41648*
X95302Y41707*
X95159Y41759*
X95014Y41804*
X94867Y41842*
X94719Y41872*
X94569Y41896*
X94418Y41912*
X94267Y41920*
Y41921D02*
G01Y50121D01*
X94399Y50122*
X94531Y50130*
X94662Y50144*
X94792Y50164*
X94921Y50191*
X95049Y50223*
X95175Y50263*
X95299Y50308*
X95420Y50359*
X95539Y50416*
X95655Y50479*
X95768Y50547*
X95877Y50621*
X95983Y50700*
X96084Y50784*
X96182Y50873*
X96274Y50967*
X96363Y51065*
X96446Y51167*
X96524Y51273*
X96597Y51383*
X96665Y51496*
X96727Y51613*
X96783Y51732*
X96833Y51854*
X96877Y51978*
X96915Y52104*
X96947Y52232*
X96973Y52362*
X96992Y52492*
X97005Y52623*
X97011Y52755*
Y52887*
X97005Y53019*
X96992Y53150*
X96973Y53280*
X96947Y53410*
X96915Y53538*
X96877Y53664*
X96833Y53788*
X96783Y53910*
X96727Y54029*
X96665Y54146*
X96597Y54259*
X96524Y54369*
X96446Y54475*
X96363Y54577*
X96274Y54675*
X96182Y54769*
X96084Y54858*
X95983Y54942*
X95877Y55021*
X95768Y55095*
X95655Y55163*
X95539Y55226*
X95420Y55283*
X95299Y55334*
X95175Y55379*
X95049Y55419*
X94921Y55451*
X94792Y55478*
X94662Y55498*
X94531Y55512*
X94399Y55520*
X94267Y55521*
X65147*
X60867Y51521D02*
G01X60853Y51220D01*
X60824Y50920*
X60780Y50621*
X60722Y50326*
X60649Y50033*
X60562Y49745*
X60461Y49461*
X60346Y49182*
X60218Y48909*
X60076Y48643*
X59922Y48384*
X59755Y48133*
X59576Y47891*
X59385Y47657*
X59183Y47434*
X58970Y47220*
X58747Y47017*
X58514Y46826*
X58272Y46646*
X58022Y46478*
X57764Y46322*
X57498Y46180*
X57226Y46050*
X56947Y45934*
X56664Y45832*
X56376Y45744*
X56083Y45671*
X55788Y45611*
X55490Y45567*
X55190Y45536*
X54888Y45521*
X54587*
X2507*
X2401Y45520*
X2295Y45514*
X2190Y45503*
X2085Y45487*
X1981Y45466*
X1878Y45439*
X1777Y45408*
X1677Y45372*
X1580Y45330*
X1484Y45284*
X1391Y45234*
X1300Y45179*
X1213Y45119*
X1128Y45056*
X1046Y44988*
X968Y44916*
X894Y44841*
X823Y44762*
X756Y44680*
X694Y44594*
X635Y44506*
X581Y44414*
X532Y44321*
X487Y44224*
X447Y44126*
X412Y44026*
X382Y43925*
X357Y43822*
X337Y43717*
X322Y43613*
X312Y43507*
X307Y43401*
Y35701*
X306Y35613*
X310Y35525*
X318Y35437*
X331Y35350*
X347Y35263*
X368Y35178*
X392Y35093*
X421Y35010*
X453Y34928*
X489Y34848*
X530Y34769*
X573Y34693*
X621Y34618*
X672Y34547*
X726Y34477*
X783Y34410*
X844Y34346*
X908Y34285*
X974Y34227*
X1043Y34173*
X1115Y34121*
X1189Y34074*
X1265Y34029*
X1343Y33989*
X1423Y33952*
X1505Y33919*
X1588Y33890*
X1672Y33865*
X1758Y33844*
X1844Y33827*
X1931Y33814*
X2019Y33805*
X2107Y33801*
X60867Y51521D02*
G01X60879Y51724D01*
X60901Y51926*
X60933Y52127*
X60974Y52326*
X61025Y52523*
X61086Y52717*
X61157Y52907*
X61236Y53095*
X61325Y53277*
X61422Y53456*
X61528Y53629*
X61643Y53797*
X61765Y53959*
X61896Y54115*
X62034Y54265*
X62179Y54407*
X62331Y54542*
X62489Y54670*
X62653Y54789*
X62824Y54901*
X62999Y55004*
X63179Y55098*
X63364Y55183*
X63552Y55259*
X63744Y55326*
X63939Y55383*
X64137Y55431*
X64337Y55468*
X64538Y55496*
X64741Y55514*
X64944Y55523*
X65147Y55521*
G54D83*
X62447Y52891D02*
G01X62449Y52945D01*
X62455Y52999*
X62465Y53052*
X62478Y53105*
X62495Y53156*
X62516Y53206*
X62541Y53254*
X62569Y53301*
X62600Y53345*
X62634Y53387*
X62671Y53426*
X62711Y53463*
X62754Y53496*
X62799Y53527*
X62846Y53554*
X62894Y53577*
X62945Y53597*
X62996Y53614*
X63049Y53626*
X63102Y53635*
X63156Y53640*
X63211Y53641*
X63265Y53638*
X63318Y53631*
X63371Y53620*
X63424Y53606*
X63475Y53588*
X63524Y53566*
X63572Y53541*
X63618Y53512*
X63662Y53480*
X63703Y53445*
X63741Y53407*
X63777Y53366*
X63810Y53323*
X63840Y53278*
X63866Y53230*
X63889Y53181*
X63908Y53130*
X63923Y53079*
X63935Y53026*
X63943Y52972*
X63947Y52918*
Y52864*
X63943Y52810*
X63935Y52756*
X63923Y52703*
X63908Y52652*
X63889Y52601*
X63866Y52552*
X63840Y52504*
X63810Y52459*
X63777Y52416*
X63741Y52375*
X63703Y52337*
X63662Y52302*
X63618Y52270*
X63572Y52241*
X63524Y52216*
X63475Y52194*
X63424Y52176*
X63371Y52162*
X63318Y52151*
X63265Y52144*
X63211Y52141*
X63156Y52142*
X63102Y52147*
X63049Y52156*
X62996Y52168*
X62945Y52185*
X62894Y52205*
X62846Y52228*
X62799Y52255*
X62754Y52286*
X62711Y52319*
X62671Y52356*
X62634Y52395*
X62600Y52437*
X62569Y52481*
X62541Y52528*
X62516Y52576*
X62495Y52626*
X62478Y52677*
X62465Y52730*
X62455Y52783*
X62449Y52837*
X62447Y52891*
X82372Y54381D02*
G01X82374Y54407D01*
X82380Y54433*
X82390Y54458*
X82403Y54481*
X82419Y54501*
X82439Y54519*
X82461Y54534*
X82484Y54546*
X82510Y54554*
X82536Y54558*
X82562*
X82588Y54554*
X82614Y54546*
X82638Y54534*
X82659Y54519*
X82679Y54501*
X82695Y54481*
X82708Y54458*
X82718Y54433*
X82724Y54407*
X82726Y54381*
X82724Y54355*
X82718Y54329*
X82708Y54304*
X82695Y54281*
X82679Y54261*
X82659Y54243*
X82637Y54228*
X82614Y54216*
X82588Y54208*
X82562Y54204*
X82536*
X82510Y54208*
X82484Y54216*
X82460Y54228*
X82439Y54243*
X82419Y54261*
X82403Y54281*
X82390Y54304*
X82380Y54329*
X82374Y54355*
X82372Y54381*
X85168D02*
G01X85170Y54407D01*
X85176Y54433*
X85186Y54458*
X85199Y54481*
X85215Y54501*
X85235Y54519*
X85257Y54534*
X85280Y54546*
X85306Y54554*
X85332Y54558*
X85358*
X85384Y54554*
X85410Y54546*
X85434Y54534*
X85455Y54519*
X85475Y54501*
X85491Y54481*
X85504Y54458*
X85514Y54433*
X85520Y54407*
X85522Y54381*
X85520Y54355*
X85514Y54329*
X85504Y54304*
X85491Y54281*
X85475Y54261*
X85455Y54243*
X85433Y54228*
X85410Y54216*
X85384Y54208*
X85358Y54204*
X85332*
X85306Y54208*
X85280Y54216*
X85256Y54228*
X85235Y54243*
X85215Y54261*
X85199Y54281*
X85186Y54304*
X85176Y54329*
X85170Y54355*
X85168Y54381*
X93317Y52821D02*
G01X93319Y52891D01*
X93325Y52961*
X93335Y53030*
X93348Y53099*
X93366Y53167*
X93387Y53234*
X93412Y53299*
X93441Y53363*
X93473Y53426*
X93509Y53486*
X93548Y53544*
X93590Y53600*
X93635Y53654*
X93683Y53705*
X93734Y53753*
X93788Y53798*
X93844Y53840*
X93902Y53879*
X93962Y53915*
X94025Y53947*
X94089Y53976*
X94154Y54001*
X94221Y54022*
X94289Y54040*
X94358Y54053*
X94427Y54063*
X94497Y54069*
X94567Y54071*
X94637Y54069*
X94707Y54063*
X94776Y54053*
X94845Y54040*
X94913Y54022*
X94980Y54001*
X95045Y53976*
X95109Y53947*
X95172Y53915*
X95232Y53879*
X95290Y53840*
X95346Y53798*
X95400Y53753*
X95451Y53705*
X95499Y53654*
X95544Y53600*
X95586Y53544*
X95625Y53486*
X95661Y53426*
X95693Y53363*
X95722Y53299*
X95747Y53234*
X95768Y53167*
X95786Y53099*
X95799Y53030*
X95809Y52961*
X95815Y52891*
X95817Y52821*
X95815Y52751*
X95809Y52681*
X95799Y52612*
X95786Y52543*
X95768Y52475*
X95747Y52408*
X95722Y52343*
X95693Y52279*
X95661Y52216*
X95625Y52156*
X95586Y52098*
X95544Y52042*
X95499Y51988*
X95451Y51937*
X95400Y51889*
X95346Y51844*
X95290Y51802*
X95232Y51763*
X95172Y51727*
X95109Y51695*
X95045Y51666*
X94980Y51641*
X94913Y51620*
X94845Y51602*
X94776Y51589*
X94707Y51579*
X94637Y51573*
X94567Y51571*
X94497Y51573*
X94427Y51579*
X94358Y51589*
X94289Y51602*
X94221Y51620*
X94154Y51641*
X94089Y51666*
X94025Y51695*
X93962Y51727*
X93902Y51763*
X93844Y51802*
X93788Y51844*
X93734Y51889*
X93683Y51937*
X93635Y51988*
X93590Y52042*
X93548Y52098*
X93509Y52156*
X93473Y52216*
X93441Y52279*
X93412Y52343*
X93387Y52408*
X93366Y52475*
X93348Y52543*
X93335Y52612*
X93325Y52681*
X93319Y52751*
X93317Y52821*
X93897Y39001D02*
G01X93899Y39071D01*
X93905Y39141*
X93915Y39210*
X93928Y39279*
X93946Y39347*
X93967Y39414*
X93992Y39479*
X94021Y39543*
X94053Y39606*
X94089Y39666*
X94128Y39724*
X94170Y39780*
X94215Y39834*
X94263Y39885*
X94314Y39933*
X94368Y39978*
X94424Y40020*
X94482Y40059*
X94542Y40095*
X94605Y40127*
X94669Y40156*
X94734Y40181*
X94801Y40202*
X94869Y40220*
X94938Y40233*
X95007Y40243*
X95077Y40249*
X95147Y40251*
X95217Y40249*
X95287Y40243*
X95356Y40233*
X95425Y40220*
X95493Y40202*
X95560Y40181*
X95625Y40156*
X95689Y40127*
X95752Y40095*
X95812Y40059*
X95870Y40020*
X95926Y39978*
X95980Y39933*
X96031Y39885*
X96079Y39834*
X96124Y39780*
X96166Y39724*
X96205Y39666*
X96241Y39606*
X96273Y39543*
X96302Y39479*
X96327Y39414*
X96348Y39347*
X96366Y39279*
X96379Y39210*
X96389Y39141*
X96395Y39071*
X96397Y39001*
X96395Y38931*
X96389Y38861*
X96379Y38792*
X96366Y38723*
X96348Y38655*
X96327Y38588*
X96302Y38523*
X96273Y38459*
X96241Y38396*
X96205Y38336*
X96166Y38278*
X96124Y38222*
X96079Y38168*
X96031Y38117*
X95980Y38069*
X95926Y38024*
X95870Y37982*
X95812Y37943*
X95752Y37907*
X95689Y37875*
X95625Y37846*
X95560Y37821*
X95493Y37800*
X95425Y37782*
X95356Y37769*
X95287Y37759*
X95217Y37753*
X95147Y37751*
X95077Y37753*
X95007Y37759*
X94938Y37769*
X94869Y37782*
X94801Y37800*
X94734Y37821*
X94669Y37846*
X94605Y37875*
X94542Y37907*
X94482Y37943*
X94424Y37982*
X94368Y38024*
X94314Y38069*
X94263Y38117*
X94215Y38168*
X94170Y38222*
X94128Y38278*
X94089Y38336*
X94053Y38396*
X94021Y38459*
X93992Y38523*
X93967Y38588*
X93946Y38655*
X93928Y38723*
X93915Y38792*
X93905Y38861*
X93899Y38931*
X93897Y39001*
X1697Y43121D02*
G01X1699Y43191D01*
X1705Y43261*
X1715Y43330*
X1728Y43399*
X1746Y43467*
X1767Y43534*
X1792Y43599*
X1821Y43663*
X1853Y43726*
X1889Y43786*
X1928Y43844*
X1970Y43900*
X2015Y43954*
X2063Y44005*
X2114Y44053*
X2168Y44098*
X2224Y44140*
X2282Y44179*
X2342Y44215*
X2405Y44247*
X2469Y44276*
X2534Y44301*
X2601Y44322*
X2669Y44340*
X2738Y44353*
X2807Y44363*
X2877Y44369*
X2947Y44371*
X3017Y44369*
X3087Y44363*
X3156Y44353*
X3225Y44340*
X3293Y44322*
X3360Y44301*
X3425Y44276*
X3489Y44247*
X3552Y44215*
X3612Y44179*
X3670Y44140*
X3726Y44098*
X3780Y44053*
X3831Y44005*
X3879Y43954*
X3924Y43900*
X3966Y43844*
X4005Y43786*
X4041Y43726*
X4073Y43663*
X4102Y43599*
X4127Y43534*
X4148Y43467*
X4166Y43399*
X4179Y43330*
X4189Y43261*
X4195Y43191*
X4197Y43121*
X4195Y43051*
X4189Y42981*
X4179Y42912*
X4166Y42843*
X4148Y42775*
X4127Y42708*
X4102Y42643*
X4073Y42579*
X4041Y42516*
X4005Y42456*
X3966Y42398*
X3924Y42342*
X3879Y42288*
X3831Y42237*
X3780Y42189*
X3726Y42144*
X3670Y42102*
X3612Y42063*
X3552Y42027*
X3489Y41995*
X3425Y41966*
X3360Y41941*
X3293Y41920*
X3225Y41902*
X3156Y41889*
X3087Y41879*
X3017Y41873*
X2947Y41871*
X2877Y41873*
X2807Y41879*
X2738Y41889*
X2669Y41902*
X2601Y41920*
X2534Y41941*
X2469Y41966*
X2405Y41995*
X2342Y42027*
X2282Y42063*
X2224Y42102*
X2168Y42144*
X2114Y42189*
X2063Y42237*
X2015Y42288*
X1970Y42342*
X1928Y42398*
X1889Y42456*
X1853Y42516*
X1821Y42579*
X1792Y42643*
X1767Y42708*
X1746Y42775*
X1728Y42843*
X1715Y42912*
X1705Y42981*
X1699Y43051*
X1697Y43121*
X1397Y36301D02*
G01X1399Y36371D01*
X1405Y36441*
X1415Y36510*
X1428Y36579*
X1446Y36647*
X1467Y36714*
X1492Y36779*
X1521Y36843*
X1553Y36906*
X1589Y36966*
X1628Y37024*
X1670Y37080*
X1715Y37134*
X1763Y37185*
X1814Y37233*
X1868Y37278*
X1924Y37320*
X1982Y37359*
X2042Y37395*
X2105Y37427*
X2169Y37456*
X2234Y37481*
X2301Y37502*
X2369Y37520*
X2438Y37533*
X2507Y37543*
X2577Y37549*
X2647Y37551*
X2717Y37549*
X2787Y37543*
X2856Y37533*
X2925Y37520*
X2993Y37502*
X3060Y37481*
X3125Y37456*
X3189Y37427*
X3252Y37395*
X3312Y37359*
X3370Y37320*
X3426Y37278*
X3480Y37233*
X3531Y37185*
X3579Y37134*
X3624Y37080*
X3666Y37024*
X3705Y36966*
X3741Y36906*
X3773Y36843*
X3802Y36779*
X3827Y36714*
X3848Y36647*
X3866Y36579*
X3879Y36510*
X3889Y36441*
X3895Y36371*
X3897Y36301*
X3895Y36231*
X3889Y36161*
X3879Y36092*
X3866Y36023*
X3848Y35955*
X3827Y35888*
X3802Y35823*
X3773Y35759*
X3741Y35696*
X3705Y35636*
X3666Y35578*
X3624Y35522*
X3579Y35468*
X3531Y35417*
X3480Y35369*
X3426Y35324*
X3370Y35282*
X3312Y35243*
X3252Y35207*
X3189Y35175*
X3125Y35146*
X3060Y35121*
X2993Y35100*
X2925Y35082*
X2856Y35069*
X2787Y35059*
X2717Y35053*
X2647Y35051*
X2577Y35053*
X2507Y35059*
X2438Y35069*
X2369Y35082*
X2301Y35100*
X2234Y35121*
X2169Y35146*
X2105Y35175*
X2042Y35207*
X1982Y35243*
X1924Y35282*
X1868Y35324*
X1814Y35369*
X1763Y35417*
X1715Y35468*
X1670Y35522*
X1628Y35578*
X1589Y35636*
X1553Y35696*
X1521Y35759*
X1492Y35823*
X1467Y35888*
X1446Y35955*
X1428Y36023*
X1415Y36092*
X1405Y36161*
X1399Y36231*
X1397Y36301*
%LNAniBike_v2.8_BT_SecondaryBoard.GDM*%
G54D36*
X95680Y98060D02*
G01X94620D01*
Y98061D02*
G01X94530Y98056D01*
X94440Y98048*
X94351Y98035*
X94262Y98018*
X94175Y97997*
X94088Y97972*
X94003Y97943*
X93919Y97909*
X93837Y97872*
X93757Y97831*
X93679Y97786*
X93603Y97737*
X93530Y97685*
X93459Y97629*
X93391Y97570*
X93325Y97508*
X93263Y97443*
X93204Y97375*
X93148Y97304*
X93096Y97231*
X93047Y97155*
X93002Y97077*
X92960Y96997*
X92923Y96915*
X92889Y96832*
X92860Y96747*
X92834Y96660*
X92813Y96573*
X92796Y96484*
X92783Y96395*
X92774Y96305*
X92770Y96216*
X92769Y96125*
X92770D02*
G01X3360Y96140D01*
X3205Y96138*
X3051Y96129*
X2897Y96112*
X2744Y96088*
X2593Y96056*
X2443Y96017*
X2295Y95971*
X2150Y95917*
X2008Y95857*
X1868Y95790*
X1733Y95715*
X1600Y95635*
X1472Y95548*
X1349Y95455*
X1230Y95356*
X1116Y95251*
X1007Y95141*
X904Y95026*
X806Y94906*
X715Y94781*
X630Y94652*
X551Y94519*
X478Y94382*
X413Y94242*
X354Y94099*
X302Y93953*
X258Y93805*
X221Y93655*
X191Y93503*
X168Y93350*
X153Y93196*
X146Y93042*
Y92887*
X154Y92732*
X169Y92578*
X192Y92425*
X222Y92274*
X259Y92124*
X304Y91975*
X356Y91830*
X415Y91687*
X481Y91547*
X553Y91410*
X632Y91277*
X718Y91148*
X810Y91024*
X907Y90904*
X1011Y90789*
X1120Y90679*
X1234Y90574*
X1353Y90476*
X1477Y90383*
X1605Y90296*
X1737Y90216*
X1873Y90142*
X2013Y90075*
X2155Y90015*
X2300Y89962*
X2448Y89916*
X2598Y89877*
X2749Y89845*
X2902Y89821*
X3056Y89805*
X3210Y89796*
X3365Y89794*
X3520Y89800*
Y86540*
Y86541D02*
G01X3367Y86547D01*
X3213Y86545*
X3060Y86536*
X2907Y86519*
X2756Y86494*
X2606Y86463*
X2457Y86424*
X2311Y86378*
X2167Y86325*
X2025Y86264*
X1887Y86197*
X1752Y86124*
X1621Y86044*
X1495Y85957*
X1372Y85864*
X1254Y85766*
X1141Y85662*
X1034Y85553*
X931Y85438*
X835Y85318*
X744Y85194*
X660Y85066*
X582Y84934*
X510Y84798*
X446Y84659*
X388Y84517*
X337Y84372*
X293Y84224*
X257Y84075*
X228Y83925*
X206Y83773*
X191Y83620*
X185Y83466*
Y83313*
X193Y83159*
X209Y83007*
X232Y82855*
X263Y82704*
X300Y82556*
X345Y82409*
X397Y82264*
X457Y82123*
X523Y81984*
X595Y81849*
X674Y81717*
X760Y81589*
X851Y81466*
X949Y81348*
X1052Y81234*
X1161Y81125*
X1275Y81022*
X1393Y80925*
X1517Y80833*
X1644Y80748*
X1776Y80669*
X1911Y80596*
X2050Y80531*
X2192Y80472*
X2336Y80420*
X2483Y80375*
X2632Y80337*
X2782Y80307*
X2934Y80284*
X3087Y80268*
X3240Y80260*
X17060*
X20740Y83440D02*
G01X20739Y83577D01*
X20745Y83714*
X20757Y83850*
X20777Y83986*
X20802Y84121*
X20834Y84254*
X20873Y84385*
X20918Y84514*
X20970Y84641*
X21027Y84766*
X21091Y84887*
X21161Y85005*
X21236Y85119*
X21317Y85230*
X21403Y85337*
X21494Y85439*
X21590Y85536*
X21691Y85629*
X21796Y85717*
X21905Y85799*
X22019Y85876*
X22136Y85948*
X22256Y86013*
X22379Y86073*
X22505Y86126*
X22634Y86173*
X22765Y86214*
X22898Y86248*
X23032Y86276*
X23167Y86297*
X23303Y86312*
X23440Y86320*
X95280Y86340*
X97480Y88460D02*
G01Y96160D01*
X97481Y96248*
X97477Y96336*
X97469Y96424*
X97456Y96511*
X97440Y96598*
X97419Y96683*
X97395Y96768*
X97366Y96851*
X97334Y96933*
X97298Y97013*
X97257Y97092*
X97214Y97168*
X97166Y97243*
X97115Y97314*
X97061Y97384*
X97004Y97451*
X96943Y97515*
X96879Y97576*
X96813Y97634*
X96744Y97688*
X96672Y97740*
X96598Y97787*
X96522Y97832*
X96444Y97872*
X96364Y97909*
X96282Y97942*
X96199Y97971*
X96115Y97996*
X96029Y98017*
X95943Y98034*
X95856Y98047*
X95768Y98056*
X95680Y98060*
X97480Y88460D02*
G01X97475Y88354D01*
X97465Y88248*
X97450Y88144*
X97430Y88039*
X97405Y87936*
X97375Y87835*
X97340Y87735*
X97300Y87637*
X97255Y87540*
X97206Y87447*
X97152Y87355*
X97093Y87267*
X97031Y87181*
X96964Y87099*
X96893Y87020*
X96819Y86945*
X96741Y86873*
X96659Y86805*
X96574Y86742*
X96487Y86682*
X96396Y86627*
X96303Y86577*
X96207Y86531*
X96110Y86489*
X96010Y86453*
X95909Y86422*
X95806Y86395*
X95702Y86374*
X95597Y86358*
X95492Y86347*
X95386Y86341*
X95280Y86340*
X20740Y83440D02*
G01X20723Y83272D01*
X20699Y83105*
X20666Y82939*
X20625Y82776*
X20576Y82614*
X20520Y82455*
X20455Y82299*
X20383Y82146*
X20304Y81998*
X20217Y81853*
X20123Y81712*
X20023Y81577*
X19916Y81446*
X19803Y81321*
X19684Y81201*
X19559Y81088*
X19428Y80981*
X19293Y80880*
X19152Y80786*
X19008Y80699*
X18859Y80620*
X18706Y80547*
X18550Y80483*
X18392Y80426*
X18230Y80376*
X18066Y80335*
X17901Y80302*
X17734Y80277*
X17566Y80261*
X17397Y80252*
X17229*
X17060Y80260*
G54D83*
X3750Y83500D02*
G01X3748Y83430D01*
X3742Y83360*
X3732Y83291*
X3719Y83222*
X3701Y83154*
X3680Y83087*
X3655Y83022*
X3626Y82958*
X3594Y82895*
X3558Y82835*
X3519Y82777*
X3477Y82721*
X3432Y82667*
X3384Y82616*
X3333Y82568*
X3279Y82523*
X3223Y82481*
X3165Y82442*
X3105Y82406*
X3042Y82374*
X2978Y82345*
X2913Y82320*
X2846Y82299*
X2778Y82281*
X2709Y82268*
X2640Y82258*
X2570Y82252*
X2500Y82250*
X2430Y82252*
X2360Y82258*
X2291Y82268*
X2222Y82281*
X2154Y82299*
X2087Y82320*
X2022Y82345*
X1958Y82374*
X1895Y82406*
X1835Y82442*
X1777Y82481*
X1721Y82523*
X1667Y82568*
X1616Y82616*
X1568Y82667*
X1523Y82721*
X1481Y82777*
X1442Y82835*
X1406Y82895*
X1374Y82958*
X1345Y83022*
X1320Y83087*
X1299Y83154*
X1281Y83222*
X1268Y83291*
X1258Y83360*
X1252Y83430*
X1250Y83500*
X1252Y83570*
X1258Y83640*
X1268Y83709*
X1281Y83778*
X1299Y83846*
X1320Y83913*
X1345Y83978*
X1374Y84042*
X1406Y84105*
X1442Y84165*
X1481Y84223*
X1523Y84279*
X1568Y84333*
X1616Y84384*
X1667Y84432*
X1721Y84477*
X1777Y84519*
X1835Y84558*
X1895Y84594*
X1958Y84626*
X2022Y84655*
X2087Y84680*
X2154Y84701*
X2222Y84719*
X2291Y84732*
X2360Y84742*
X2430Y84748*
X2500Y84750*
X2570Y84748*
X2640Y84742*
X2709Y84732*
X2778Y84719*
X2846Y84701*
X2913Y84680*
X2978Y84655*
X3042Y84626*
X3105Y84594*
X3165Y84558*
X3223Y84519*
X3279Y84477*
X3333Y84432*
X3384Y84384*
X3432Y84333*
X3477Y84279*
X3519Y84223*
X3558Y84165*
X3594Y84105*
X3626Y84042*
X3655Y83978*
X3680Y83913*
X3701Y83846*
X3719Y83778*
X3732Y83709*
X3742Y83640*
X3748Y83570*
X3750Y83500*
X3890Y92860D02*
G01X3888Y92790D01*
X3882Y92720*
X3872Y92651*
X3859Y92582*
X3841Y92514*
X3820Y92447*
X3795Y92382*
X3766Y92318*
X3734Y92255*
X3698Y92195*
X3659Y92137*
X3617Y92081*
X3572Y92027*
X3524Y91976*
X3473Y91928*
X3419Y91883*
X3363Y91841*
X3305Y91802*
X3245Y91766*
X3182Y91734*
X3118Y91705*
X3053Y91680*
X2986Y91659*
X2918Y91641*
X2849Y91628*
X2780Y91618*
X2710Y91612*
X2640Y91610*
X2570Y91612*
X2500Y91618*
X2431Y91628*
X2362Y91641*
X2294Y91659*
X2227Y91680*
X2162Y91705*
X2098Y91734*
X2035Y91766*
X1975Y91802*
X1917Y91841*
X1861Y91883*
X1807Y91928*
X1756Y91976*
X1708Y92027*
X1663Y92081*
X1621Y92137*
X1582Y92195*
X1546Y92255*
X1514Y92318*
X1485Y92382*
X1460Y92447*
X1439Y92514*
X1421Y92582*
X1408Y92651*
X1398Y92720*
X1392Y92790*
X1390Y92860*
X1392Y92930*
X1398Y93000*
X1408Y93069*
X1421Y93138*
X1439Y93206*
X1460Y93273*
X1485Y93338*
X1514Y93402*
X1546Y93465*
X1582Y93525*
X1621Y93583*
X1663Y93639*
X1708Y93693*
X1756Y93744*
X1807Y93792*
X1861Y93837*
X1917Y93879*
X1975Y93918*
X2035Y93954*
X2098Y93986*
X2162Y94015*
X2227Y94040*
X2294Y94061*
X2362Y94079*
X2431Y94092*
X2500Y94102*
X2570Y94108*
X2640Y94110*
X2710Y94108*
X2780Y94102*
X2849Y94092*
X2918Y94079*
X2986Y94061*
X3053Y94040*
X3118Y94015*
X3182Y93986*
X3245Y93954*
X3305Y93918*
X3363Y93879*
X3419Y93837*
X3473Y93792*
X3524Y93744*
X3572Y93693*
X3617Y93639*
X3659Y93583*
X3698Y93525*
X3734Y93465*
X3766Y93402*
X3795Y93338*
X3820Y93273*
X3841Y93206*
X3859Y93138*
X3872Y93069*
X3882Y93000*
X3888Y92930*
X3890Y92860*
X96010Y88420D02*
G01X96008Y88350D01*
X96002Y88280*
X95992Y88211*
X95979Y88142*
X95961Y88074*
X95940Y88007*
X95915Y87942*
X95886Y87878*
X95854Y87815*
X95818Y87755*
X95779Y87697*
X95737Y87641*
X95692Y87587*
X95644Y87536*
X95593Y87488*
X95539Y87443*
X95483Y87401*
X95425Y87362*
X95365Y87326*
X95302Y87294*
X95238Y87265*
X95173Y87240*
X95106Y87219*
X95038Y87201*
X94969Y87188*
X94900Y87178*
X94830Y87172*
X94760Y87170*
X94690Y87172*
X94620Y87178*
X94551Y87188*
X94482Y87201*
X94414Y87219*
X94347Y87240*
X94282Y87265*
X94218Y87294*
X94155Y87326*
X94095Y87362*
X94037Y87401*
X93981Y87443*
X93927Y87488*
X93876Y87536*
X93828Y87587*
X93783Y87641*
X93741Y87697*
X93702Y87755*
X93666Y87815*
X93634Y87878*
X93605Y87942*
X93580Y88007*
X93559Y88074*
X93541Y88142*
X93528Y88211*
X93518Y88280*
X93512Y88350*
X93510Y88420*
X93512Y88490*
X93518Y88560*
X93528Y88629*
X93541Y88698*
X93559Y88766*
X93580Y88833*
X93605Y88898*
X93634Y88962*
X93666Y89025*
X93702Y89085*
X93741Y89143*
X93783Y89199*
X93828Y89253*
X93876Y89304*
X93927Y89352*
X93981Y89397*
X94037Y89439*
X94095Y89478*
X94155Y89514*
X94218Y89546*
X94282Y89575*
X94347Y89600*
X94414Y89621*
X94482Y89639*
X94551Y89652*
X94620Y89662*
X94690Y89668*
X94760Y89670*
X94830Y89668*
X94900Y89662*
X94969Y89652*
X95038Y89639*
X95106Y89621*
X95173Y89600*
X95238Y89575*
X95302Y89546*
X95365Y89514*
X95425Y89478*
X95483Y89439*
X95539Y89397*
X95593Y89352*
X95644Y89304*
X95692Y89253*
X95737Y89199*
X95779Y89143*
X95818Y89085*
X95854Y89025*
X95886Y88962*
X95915Y88898*
X95940Y88833*
X95961Y88766*
X95979Y88698*
X95992Y88629*
X96002Y88560*
X96008Y88490*
X96010Y88420*
X96390Y95560D02*
G01X96388Y95490D01*
X96382Y95420*
X96372Y95351*
X96359Y95282*
X96341Y95214*
X96320Y95147*
X96295Y95082*
X96266Y95018*
X96234Y94955*
X96198Y94895*
X96159Y94837*
X96117Y94781*
X96072Y94727*
X96024Y94676*
X95973Y94628*
X95919Y94583*
X95863Y94541*
X95805Y94502*
X95745Y94466*
X95682Y94434*
X95618Y94405*
X95553Y94380*
X95486Y94359*
X95418Y94341*
X95349Y94328*
X95280Y94318*
X95210Y94312*
X95140Y94310*
X95070Y94312*
X95000Y94318*
X94931Y94328*
X94862Y94341*
X94794Y94359*
X94727Y94380*
X94662Y94405*
X94598Y94434*
X94535Y94466*
X94475Y94502*
X94417Y94541*
X94361Y94583*
X94307Y94628*
X94256Y94676*
X94208Y94727*
X94163Y94781*
X94121Y94837*
X94082Y94895*
X94046Y94955*
X94014Y95018*
X93985Y95082*
X93960Y95147*
X93939Y95214*
X93921Y95282*
X93908Y95351*
X93898Y95420*
X93892Y95490*
X93890Y95560*
X93892Y95630*
X93898Y95700*
X93908Y95769*
X93921Y95838*
X93939Y95906*
X93960Y95973*
X93985Y96038*
X94014Y96102*
X94046Y96165*
X94082Y96225*
X94121Y96283*
X94163Y96339*
X94208Y96393*
X94256Y96444*
X94307Y96492*
X94361Y96537*
X94417Y96579*
X94475Y96618*
X94535Y96654*
X94598Y96686*
X94662Y96715*
X94727Y96740*
X94794Y96761*
X94862Y96779*
X94931Y96792*
X95000Y96802*
X95070Y96808*
X95140Y96810*
X95210Y96808*
X95280Y96802*
X95349Y96792*
X95418Y96779*
X95486Y96761*
X95553Y96740*
X95618Y96715*
X95682Y96686*
X95745Y96654*
X95805Y96618*
X95863Y96579*
X95919Y96537*
X95973Y96492*
X96024Y96444*
X96072Y96393*
X96117Y96339*
X96159Y96283*
X96198Y96225*
X96234Y96165*
X96266Y96102*
X96295Y96038*
X96320Y95973*
X96341Y95906*
X96359Y95838*
X96372Y95769*
X96382Y95700*
X96388Y95630*
X96390Y95560*
G54D36*
X1870Y67440D02*
G01X2930D01*
Y67439D02*
G01X3020Y67444D01*
X3110Y67452*
X3199Y67465*
X3288Y67482*
X3375Y67503*
X3462Y67528*
X3547Y67557*
X3631Y67591*
X3713Y67628*
X3793Y67669*
X3871Y67714*
X3947Y67763*
X4020Y67815*
X4091Y67871*
X4159Y67930*
X4225Y67992*
X4287Y68057*
X4346Y68125*
X4402Y68196*
X4454Y68269*
X4503Y68345*
X4548Y68423*
X4590Y68503*
X4627Y68585*
X4661Y68668*
X4690Y68753*
X4716Y68840*
X4737Y68927*
X4754Y69016*
X4767Y69105*
X4776Y69195*
X4780Y69284*
X4781Y69375*
X4780D02*
G01X94190Y69360D01*
X94345Y69362*
X94499Y69371*
X94653Y69388*
X94806Y69412*
X94957Y69444*
X95107Y69483*
X95255Y69529*
X95400Y69583*
X95542Y69643*
X95682Y69710*
X95817Y69785*
X95950Y69865*
X96078Y69952*
X96201Y70045*
X96320Y70144*
X96434Y70249*
X96543Y70359*
X96646Y70474*
X96744Y70594*
X96835Y70719*
X96920Y70848*
X96999Y70981*
X97072Y71118*
X97137Y71258*
X97196Y71401*
X97248Y71547*
X97292Y71695*
X97329Y71845*
X97359Y71997*
X97382Y72150*
X97397Y72304*
X97404Y72458*
Y72613*
X97396Y72768*
X97381Y72922*
X97358Y73075*
X97328Y73226*
X97291Y73376*
X97246Y73525*
X97194Y73670*
X97135Y73813*
X97069Y73953*
X96997Y74090*
X96918Y74223*
X96832Y74352*
X96740Y74476*
X96643Y74596*
X96539Y74711*
X96430Y74821*
X96316Y74926*
X96197Y75024*
X96073Y75117*
X95945Y75204*
X95813Y75284*
X95677Y75358*
X95537Y75425*
X95395Y75485*
X95250Y75538*
X95102Y75584*
X94952Y75623*
X94801Y75655*
X94648Y75679*
X94494Y75695*
X94340Y75704*
X94185Y75706*
X94030Y75700*
Y78960*
Y78959D02*
G01X94183Y78953D01*
X94337Y78955*
X94490Y78964*
X94643Y78981*
X94794Y79006*
X94944Y79037*
X95093Y79076*
X95239Y79122*
X95383Y79175*
X95525Y79236*
X95663Y79303*
X95798Y79376*
X95929Y79456*
X96055Y79543*
X96178Y79636*
X96296Y79734*
X96409Y79838*
X96516Y79947*
X96619Y80062*
X96715Y80182*
X96806Y80306*
X96890Y80434*
X96968Y80566*
X97040Y80702*
X97104Y80841*
X97162Y80983*
X97213Y81128*
X97257Y81276*
X97293Y81425*
X97322Y81575*
X97344Y81727*
X97359Y81880*
X97365Y82034*
Y82187*
X97357Y82341*
X97341Y82493*
X97318Y82645*
X97287Y82796*
X97250Y82944*
X97205Y83091*
X97153Y83236*
X97093Y83377*
X97027Y83516*
X96955Y83651*
X96876Y83783*
X96790Y83911*
X96699Y84034*
X96601Y84152*
X96498Y84266*
X96389Y84375*
X96275Y84478*
X96157Y84575*
X96033Y84667*
X95906Y84752*
X95774Y84831*
X95639Y84904*
X95500Y84969*
X95358Y85028*
X95214Y85080*
X95067Y85125*
X94918Y85163*
X94768Y85193*
X94616Y85216*
X94463Y85232*
X94310Y85240*
X80490*
X76810Y82060D02*
G01X76811Y81923D01*
X76805Y81786*
X76793Y81650*
X76773Y81514*
X76748Y81379*
X76716Y81246*
X76677Y81115*
X76632Y80986*
X76580Y80859*
X76523Y80734*
X76459Y80613*
X76389Y80495*
X76314Y80381*
X76233Y80270*
X76147Y80163*
X76056Y80061*
X75960Y79964*
X75859Y79871*
X75754Y79783*
X75645Y79701*
X75531Y79624*
X75414Y79552*
X75294Y79487*
X75171Y79427*
X75045Y79374*
X74916Y79327*
X74785Y79286*
X74652Y79252*
X74518Y79224*
X74383Y79203*
X74247Y79188*
X74110Y79180*
X2270Y79160*
X70Y77040D02*
G01Y69340D01*
X69Y69252*
X73Y69164*
X81Y69076*
X94Y68989*
X110Y68902*
X131Y68817*
X155Y68732*
X184Y68649*
X216Y68567*
X252Y68487*
X293Y68408*
X336Y68332*
X384Y68257*
X435Y68186*
X489Y68116*
X546Y68049*
X607Y67985*
X671Y67924*
X737Y67866*
X806Y67812*
X878Y67760*
X952Y67713*
X1028Y67668*
X1106Y67628*
X1186Y67591*
X1268Y67558*
X1351Y67529*
X1435Y67504*
X1521Y67483*
X1607Y67466*
X1694Y67453*
X1782Y67444*
X1870Y67440*
X70Y77040D02*
G01X75Y77146D01*
X85Y77252*
X100Y77356*
X120Y77461*
X145Y77564*
X175Y77665*
X210Y77765*
X250Y77863*
X295Y77960*
X344Y78053*
X398Y78145*
X457Y78233*
X519Y78319*
X586Y78401*
X657Y78480*
X731Y78555*
X809Y78627*
X891Y78695*
X976Y78758*
X1063Y78818*
X1154Y78873*
X1247Y78923*
X1343Y78969*
X1440Y79011*
X1540Y79047*
X1641Y79078*
X1744Y79105*
X1848Y79126*
X1953Y79142*
X2058Y79153*
X2164Y79159*
X2270Y79160*
X76810Y82060D02*
G01X76827Y82228D01*
X76851Y82395*
X76884Y82561*
X76925Y82724*
X76974Y82886*
X77030Y83045*
X77095Y83201*
X77167Y83354*
X77246Y83502*
X77333Y83647*
X77427Y83788*
X77527Y83923*
X77634Y84054*
X77747Y84179*
X77866Y84299*
X77991Y84412*
X78122Y84519*
X78257Y84620*
X78398Y84714*
X78542Y84801*
X78691Y84880*
X78844Y84953*
X79000Y85017*
X79158Y85074*
X79320Y85124*
X79484Y85165*
X79649Y85198*
X79816Y85223*
X79984Y85239*
X80153Y85248*
X80321*
X80490Y85240*
G54D83*
X93800Y82000D02*
G01X93802Y82070D01*
X93808Y82140*
X93818Y82209*
X93831Y82278*
X93849Y82346*
X93870Y82413*
X93895Y82478*
X93924Y82542*
X93956Y82605*
X93992Y82665*
X94031Y82723*
X94073Y82779*
X94118Y82833*
X94166Y82884*
X94217Y82932*
X94271Y82977*
X94327Y83019*
X94385Y83058*
X94445Y83094*
X94508Y83126*
X94572Y83155*
X94637Y83180*
X94704Y83201*
X94772Y83219*
X94841Y83232*
X94910Y83242*
X94980Y83248*
X95050Y83250*
X95120Y83248*
X95190Y83242*
X95259Y83232*
X95328Y83219*
X95396Y83201*
X95463Y83180*
X95528Y83155*
X95592Y83126*
X95655Y83094*
X95715Y83058*
X95773Y83019*
X95829Y82977*
X95883Y82932*
X95934Y82884*
X95982Y82833*
X96027Y82779*
X96069Y82723*
X96108Y82665*
X96144Y82605*
X96176Y82542*
X96205Y82478*
X96230Y82413*
X96251Y82346*
X96269Y82278*
X96282Y82209*
X96292Y82140*
X96298Y82070*
X96300Y82000*
X96298Y81930*
X96292Y81860*
X96282Y81791*
X96269Y81722*
X96251Y81654*
X96230Y81587*
X96205Y81522*
X96176Y81458*
X96144Y81395*
X96108Y81335*
X96069Y81277*
X96027Y81221*
X95982Y81167*
X95934Y81116*
X95883Y81068*
X95829Y81023*
X95773Y80981*
X95715Y80942*
X95655Y80906*
X95592Y80874*
X95528Y80845*
X95463Y80820*
X95396Y80799*
X95328Y80781*
X95259Y80768*
X95190Y80758*
X95120Y80752*
X95050Y80750*
X94980Y80752*
X94910Y80758*
X94841Y80768*
X94772Y80781*
X94704Y80799*
X94637Y80820*
X94572Y80845*
X94508Y80874*
X94445Y80906*
X94385Y80942*
X94327Y80981*
X94271Y81023*
X94217Y81068*
X94166Y81116*
X94118Y81167*
X94073Y81221*
X94031Y81277*
X93992Y81335*
X93956Y81395*
X93924Y81458*
X93895Y81522*
X93870Y81587*
X93849Y81654*
X93831Y81722*
X93818Y81791*
X93808Y81860*
X93802Y81930*
X93800Y82000*
X93660Y72640D02*
G01X93662Y72710D01*
X93668Y72780*
X93678Y72849*
X93691Y72918*
X93709Y72986*
X93730Y73053*
X93755Y73118*
X93784Y73182*
X93816Y73245*
X93852Y73305*
X93891Y73363*
X93933Y73419*
X93978Y73473*
X94026Y73524*
X94077Y73572*
X94131Y73617*
X94187Y73659*
X94245Y73698*
X94305Y73734*
X94368Y73766*
X94432Y73795*
X94497Y73820*
X94564Y73841*
X94632Y73859*
X94701Y73872*
X94770Y73882*
X94840Y73888*
X94910Y73890*
X94980Y73888*
X95050Y73882*
X95119Y73872*
X95188Y73859*
X95256Y73841*
X95323Y73820*
X95388Y73795*
X95452Y73766*
X95515Y73734*
X95575Y73698*
X95633Y73659*
X95689Y73617*
X95743Y73572*
X95794Y73524*
X95842Y73473*
X95887Y73419*
X95929Y73363*
X95968Y73305*
X96004Y73245*
X96036Y73182*
X96065Y73118*
X96090Y73053*
X96111Y72986*
X96129Y72918*
X96142Y72849*
X96152Y72780*
X96158Y72710*
X96160Y72640*
X96158Y72570*
X96152Y72500*
X96142Y72431*
X96129Y72362*
X96111Y72294*
X96090Y72227*
X96065Y72162*
X96036Y72098*
X96004Y72035*
X95968Y71975*
X95929Y71917*
X95887Y71861*
X95842Y71807*
X95794Y71756*
X95743Y71708*
X95689Y71663*
X95633Y71621*
X95575Y71582*
X95515Y71546*
X95452Y71514*
X95388Y71485*
X95323Y71460*
X95256Y71439*
X95188Y71421*
X95119Y71408*
X95050Y71398*
X94980Y71392*
X94910Y71390*
X94840Y71392*
X94770Y71398*
X94701Y71408*
X94632Y71421*
X94564Y71439*
X94497Y71460*
X94432Y71485*
X94368Y71514*
X94305Y71546*
X94245Y71582*
X94187Y71621*
X94131Y71663*
X94077Y71708*
X94026Y71756*
X93978Y71807*
X93933Y71861*
X93891Y71917*
X93852Y71975*
X93816Y72035*
X93784Y72098*
X93755Y72162*
X93730Y72227*
X93709Y72294*
X93691Y72362*
X93678Y72431*
X93668Y72500*
X93662Y72570*
X93660Y72640*
X1540Y77080D02*
G01X1542Y77150D01*
X1548Y77220*
X1558Y77289*
X1571Y77358*
X1589Y77426*
X1610Y77493*
X1635Y77558*
X1664Y77622*
X1696Y77685*
X1732Y77745*
X1771Y77803*
X1813Y77859*
X1858Y77913*
X1906Y77964*
X1957Y78012*
X2011Y78057*
X2067Y78099*
X2125Y78138*
X2185Y78174*
X2248Y78206*
X2312Y78235*
X2377Y78260*
X2444Y78281*
X2512Y78299*
X2581Y78312*
X2650Y78322*
X2720Y78328*
X2790Y78330*
X2860Y78328*
X2930Y78322*
X2999Y78312*
X3068Y78299*
X3136Y78281*
X3203Y78260*
X3268Y78235*
X3332Y78206*
X3395Y78174*
X3455Y78138*
X3513Y78099*
X3569Y78057*
X3623Y78012*
X3674Y77964*
X3722Y77913*
X3767Y77859*
X3809Y77803*
X3848Y77745*
X3884Y77685*
X3916Y77622*
X3945Y77558*
X3970Y77493*
X3991Y77426*
X4009Y77358*
X4022Y77289*
X4032Y77220*
X4038Y77150*
X4040Y77080*
X4038Y77010*
X4032Y76940*
X4022Y76871*
X4009Y76802*
X3991Y76734*
X3970Y76667*
X3945Y76602*
X3916Y76538*
X3884Y76475*
X3848Y76415*
X3809Y76357*
X3767Y76301*
X3722Y76247*
X3674Y76196*
X3623Y76148*
X3569Y76103*
X3513Y76061*
X3455Y76022*
X3395Y75986*
X3332Y75954*
X3268Y75925*
X3203Y75900*
X3136Y75879*
X3068Y75861*
X2999Y75848*
X2930Y75838*
X2860Y75832*
X2790Y75830*
X2720Y75832*
X2650Y75838*
X2581Y75848*
X2512Y75861*
X2444Y75879*
X2377Y75900*
X2312Y75925*
X2248Y75954*
X2185Y75986*
X2125Y76022*
X2067Y76061*
X2011Y76103*
X1957Y76148*
X1906Y76196*
X1858Y76247*
X1813Y76301*
X1771Y76357*
X1732Y76415*
X1696Y76475*
X1664Y76538*
X1635Y76602*
X1610Y76667*
X1589Y76734*
X1571Y76802*
X1558Y76871*
X1548Y76940*
X1542Y77010*
X1540Y77080*
X1160Y69940D02*
G01X1162Y70010D01*
X1168Y70080*
X1178Y70149*
X1191Y70218*
X1209Y70286*
X1230Y70353*
X1255Y70418*
X1284Y70482*
X1316Y70545*
X1352Y70605*
X1391Y70663*
X1433Y70719*
X1478Y70773*
X1526Y70824*
X1577Y70872*
X1631Y70917*
X1687Y70959*
X1745Y70998*
X1805Y71034*
X1868Y71066*
X1932Y71095*
X1997Y71120*
X2064Y71141*
X2132Y71159*
X2201Y71172*
X2270Y71182*
X2340Y71188*
X2410Y71190*
X2480Y71188*
X2550Y71182*
X2619Y71172*
X2688Y71159*
X2756Y71141*
X2823Y71120*
X2888Y71095*
X2952Y71066*
X3015Y71034*
X3075Y70998*
X3133Y70959*
X3189Y70917*
X3243Y70872*
X3294Y70824*
X3342Y70773*
X3387Y70719*
X3429Y70663*
X3468Y70605*
X3504Y70545*
X3536Y70482*
X3565Y70418*
X3590Y70353*
X3611Y70286*
X3629Y70218*
X3642Y70149*
X3652Y70080*
X3658Y70010*
X3660Y69940*
X3658Y69870*
X3652Y69800*
X3642Y69731*
X3629Y69662*
X3611Y69594*
X3590Y69527*
X3565Y69462*
X3536Y69398*
X3504Y69335*
X3468Y69275*
X3429Y69217*
X3387Y69161*
X3342Y69107*
X3294Y69056*
X3243Y69008*
X3189Y68963*
X3133Y68921*
X3075Y68882*
X3015Y68846*
X2952Y68814*
X2888Y68785*
X2823Y68760*
X2756Y68739*
X2688Y68721*
X2619Y68708*
X2550Y68698*
X2480Y68692*
X2410Y68690*
X2340Y68692*
X2270Y68698*
X2201Y68708*
X2132Y68721*
X2064Y68739*
X1997Y68760*
X1932Y68785*
X1868Y68814*
X1805Y68846*
X1745Y68882*
X1687Y68921*
X1631Y68963*
X1577Y69008*
X1526Y69056*
X1478Y69107*
X1433Y69161*
X1391Y69217*
X1352Y69275*
X1316Y69335*
X1284Y69398*
X1255Y69462*
X1230Y69527*
X1209Y69594*
X1191Y69662*
X1178Y69731*
X1168Y69800*
X1162Y69870*
X1160Y69940*
G54D36*
X95680Y127560D02*
G01X94620D01*
Y127561D02*
G01X94530Y127556D01*
X94440Y127548*
X94351Y127535*
X94262Y127518*
X94175Y127497*
X94088Y127472*
X94003Y127443*
X93919Y127409*
X93837Y127372*
X93757Y127331*
X93679Y127286*
X93603Y127237*
X93530Y127185*
X93459Y127129*
X93391Y127070*
X93325Y127008*
X93263Y126943*
X93204Y126875*
X93148Y126804*
X93096Y126731*
X93047Y126655*
X93002Y126577*
X92960Y126497*
X92923Y126415*
X92889Y126332*
X92860Y126247*
X92834Y126160*
X92813Y126073*
X92796Y125984*
X92783Y125895*
X92774Y125805*
X92770Y125716*
X92769Y125625*
X92770D02*
G01X3360Y125640D01*
X3205Y125638*
X3051Y125629*
X2897Y125612*
X2744Y125588*
X2593Y125556*
X2443Y125517*
X2295Y125471*
X2150Y125417*
X2008Y125357*
X1868Y125290*
X1733Y125215*
X1600Y125135*
X1472Y125048*
X1349Y124955*
X1230Y124856*
X1116Y124751*
X1007Y124641*
X904Y124526*
X806Y124406*
X715Y124281*
X630Y124152*
X551Y124019*
X478Y123882*
X413Y123742*
X354Y123599*
X302Y123453*
X258Y123305*
X221Y123155*
X191Y123003*
X168Y122850*
X153Y122696*
X146Y122542*
Y122387*
X154Y122232*
X169Y122078*
X192Y121925*
X222Y121774*
X259Y121624*
X304Y121475*
X356Y121330*
X415Y121187*
X481Y121047*
X553Y120910*
X632Y120777*
X718Y120648*
X810Y120524*
X907Y120404*
X1011Y120289*
X1120Y120179*
X1234Y120074*
X1353Y119976*
X1477Y119883*
X1605Y119796*
X1737Y119716*
X1873Y119642*
X2013Y119575*
X2155Y119515*
X2300Y119462*
X2448Y119416*
X2598Y119377*
X2749Y119345*
X2902Y119321*
X3056Y119305*
X3210Y119296*
X3365Y119294*
X3520Y119300*
Y116040*
Y116041D02*
G01X3367Y116047D01*
X3213Y116045*
X3060Y116036*
X2907Y116019*
X2756Y115994*
X2606Y115963*
X2457Y115924*
X2311Y115878*
X2167Y115825*
X2025Y115764*
X1887Y115697*
X1752Y115624*
X1621Y115544*
X1495Y115457*
X1372Y115364*
X1254Y115266*
X1141Y115162*
X1034Y115053*
X931Y114938*
X835Y114818*
X744Y114694*
X660Y114566*
X582Y114434*
X510Y114298*
X446Y114159*
X388Y114017*
X337Y113872*
X293Y113724*
X257Y113575*
X228Y113425*
X206Y113273*
X191Y113120*
X185Y112966*
Y112813*
X193Y112659*
X209Y112507*
X232Y112355*
X263Y112204*
X300Y112056*
X345Y111909*
X397Y111764*
X457Y111623*
X523Y111484*
X595Y111349*
X674Y111217*
X760Y111089*
X851Y110966*
X949Y110848*
X1052Y110734*
X1161Y110625*
X1275Y110522*
X1393Y110425*
X1517Y110333*
X1644Y110248*
X1776Y110169*
X1911Y110096*
X2050Y110031*
X2192Y109972*
X2336Y109920*
X2483Y109875*
X2632Y109837*
X2782Y109807*
X2934Y109784*
X3087Y109768*
X3240Y109760*
X17060*
X20740Y112940D02*
G01X20739Y113077D01*
X20745Y113214*
X20757Y113350*
X20777Y113486*
X20802Y113621*
X20834Y113754*
X20873Y113885*
X20918Y114014*
X20970Y114141*
X21027Y114266*
X21091Y114387*
X21161Y114505*
X21236Y114619*
X21317Y114730*
X21403Y114837*
X21494Y114939*
X21590Y115036*
X21691Y115129*
X21796Y115217*
X21905Y115299*
X22019Y115376*
X22136Y115448*
X22256Y115513*
X22379Y115573*
X22505Y115626*
X22634Y115673*
X22765Y115714*
X22898Y115748*
X23032Y115776*
X23167Y115797*
X23303Y115812*
X23440Y115820*
X95280Y115840*
X97480Y117960D02*
G01Y125660D01*
X97481Y125748*
X97477Y125836*
X97469Y125924*
X97456Y126011*
X97440Y126098*
X97419Y126183*
X97395Y126268*
X97366Y126351*
X97334Y126433*
X97298Y126513*
X97257Y126592*
X97214Y126668*
X97166Y126743*
X97115Y126814*
X97061Y126884*
X97004Y126951*
X96943Y127015*
X96879Y127076*
X96813Y127134*
X96744Y127188*
X96672Y127240*
X96598Y127287*
X96522Y127332*
X96444Y127372*
X96364Y127409*
X96282Y127442*
X96199Y127471*
X96115Y127496*
X96029Y127517*
X95943Y127534*
X95856Y127547*
X95768Y127556*
X95680Y127560*
X97480Y117960D02*
G01X97475Y117854D01*
X97465Y117748*
X97450Y117644*
X97430Y117539*
X97405Y117436*
X97375Y117335*
X97340Y117235*
X97300Y117137*
X97255Y117040*
X97206Y116947*
X97152Y116855*
X97093Y116767*
X97031Y116681*
X96964Y116599*
X96893Y116520*
X96819Y116445*
X96741Y116373*
X96659Y116305*
X96574Y116242*
X96487Y116182*
X96396Y116127*
X96303Y116077*
X96207Y116031*
X96110Y115989*
X96010Y115953*
X95909Y115922*
X95806Y115895*
X95702Y115874*
X95597Y115858*
X95492Y115847*
X95386Y115841*
X95280Y115840*
X20740Y112940D02*
G01X20723Y112772D01*
X20699Y112605*
X20666Y112439*
X20625Y112276*
X20576Y112114*
X20520Y111955*
X20455Y111799*
X20383Y111646*
X20304Y111498*
X20217Y111353*
X20123Y111212*
X20023Y111077*
X19916Y110946*
X19803Y110821*
X19684Y110701*
X19559Y110588*
X19428Y110481*
X19293Y110380*
X19152Y110286*
X19008Y110199*
X18859Y110120*
X18706Y110047*
X18550Y109983*
X18392Y109926*
X18230Y109876*
X18066Y109835*
X17901Y109802*
X17734Y109777*
X17566Y109761*
X17397Y109752*
X17229*
X17060Y109760*
G54D83*
X3750Y113000D02*
G01X3748Y112930D01*
X3742Y112860*
X3732Y112791*
X3719Y112722*
X3701Y112654*
X3680Y112587*
X3655Y112522*
X3626Y112458*
X3594Y112395*
X3558Y112335*
X3519Y112277*
X3477Y112221*
X3432Y112167*
X3384Y112116*
X3333Y112068*
X3279Y112023*
X3223Y111981*
X3165Y111942*
X3105Y111906*
X3042Y111874*
X2978Y111845*
X2913Y111820*
X2846Y111799*
X2778Y111781*
X2709Y111768*
X2640Y111758*
X2570Y111752*
X2500Y111750*
X2430Y111752*
X2360Y111758*
X2291Y111768*
X2222Y111781*
X2154Y111799*
X2087Y111820*
X2022Y111845*
X1958Y111874*
X1895Y111906*
X1835Y111942*
X1777Y111981*
X1721Y112023*
X1667Y112068*
X1616Y112116*
X1568Y112167*
X1523Y112221*
X1481Y112277*
X1442Y112335*
X1406Y112395*
X1374Y112458*
X1345Y112522*
X1320Y112587*
X1299Y112654*
X1281Y112722*
X1268Y112791*
X1258Y112860*
X1252Y112930*
X1250Y113000*
X1252Y113070*
X1258Y113140*
X1268Y113209*
X1281Y113278*
X1299Y113346*
X1320Y113413*
X1345Y113478*
X1374Y113542*
X1406Y113605*
X1442Y113665*
X1481Y113723*
X1523Y113779*
X1568Y113833*
X1616Y113884*
X1667Y113932*
X1721Y113977*
X1777Y114019*
X1835Y114058*
X1895Y114094*
X1958Y114126*
X2022Y114155*
X2087Y114180*
X2154Y114201*
X2222Y114219*
X2291Y114232*
X2360Y114242*
X2430Y114248*
X2500Y114250*
X2570Y114248*
X2640Y114242*
X2709Y114232*
X2778Y114219*
X2846Y114201*
X2913Y114180*
X2978Y114155*
X3042Y114126*
X3105Y114094*
X3165Y114058*
X3223Y114019*
X3279Y113977*
X3333Y113932*
X3384Y113884*
X3432Y113833*
X3477Y113779*
X3519Y113723*
X3558Y113665*
X3594Y113605*
X3626Y113542*
X3655Y113478*
X3680Y113413*
X3701Y113346*
X3719Y113278*
X3732Y113209*
X3742Y113140*
X3748Y113070*
X3750Y113000*
X3890Y122360D02*
G01X3888Y122290D01*
X3882Y122220*
X3872Y122151*
X3859Y122082*
X3841Y122014*
X3820Y121947*
X3795Y121882*
X3766Y121818*
X3734Y121755*
X3698Y121695*
X3659Y121637*
X3617Y121581*
X3572Y121527*
X3524Y121476*
X3473Y121428*
X3419Y121383*
X3363Y121341*
X3305Y121302*
X3245Y121266*
X3182Y121234*
X3118Y121205*
X3053Y121180*
X2986Y121159*
X2918Y121141*
X2849Y121128*
X2780Y121118*
X2710Y121112*
X2640Y121110*
X2570Y121112*
X2500Y121118*
X2431Y121128*
X2362Y121141*
X2294Y121159*
X2227Y121180*
X2162Y121205*
X2098Y121234*
X2035Y121266*
X1975Y121302*
X1917Y121341*
X1861Y121383*
X1807Y121428*
X1756Y121476*
X1708Y121527*
X1663Y121581*
X1621Y121637*
X1582Y121695*
X1546Y121755*
X1514Y121818*
X1485Y121882*
X1460Y121947*
X1439Y122014*
X1421Y122082*
X1408Y122151*
X1398Y122220*
X1392Y122290*
X1390Y122360*
X1392Y122430*
X1398Y122500*
X1408Y122569*
X1421Y122638*
X1439Y122706*
X1460Y122773*
X1485Y122838*
X1514Y122902*
X1546Y122965*
X1582Y123025*
X1621Y123083*
X1663Y123139*
X1708Y123193*
X1756Y123244*
X1807Y123292*
X1861Y123337*
X1917Y123379*
X1975Y123418*
X2035Y123454*
X2098Y123486*
X2162Y123515*
X2227Y123540*
X2294Y123561*
X2362Y123579*
X2431Y123592*
X2500Y123602*
X2570Y123608*
X2640Y123610*
X2710Y123608*
X2780Y123602*
X2849Y123592*
X2918Y123579*
X2986Y123561*
X3053Y123540*
X3118Y123515*
X3182Y123486*
X3245Y123454*
X3305Y123418*
X3363Y123379*
X3419Y123337*
X3473Y123292*
X3524Y123244*
X3572Y123193*
X3617Y123139*
X3659Y123083*
X3698Y123025*
X3734Y122965*
X3766Y122902*
X3795Y122838*
X3820Y122773*
X3841Y122706*
X3859Y122638*
X3872Y122569*
X3882Y122500*
X3888Y122430*
X3890Y122360*
X96010Y117920D02*
G01X96008Y117850D01*
X96002Y117780*
X95992Y117711*
X95979Y117642*
X95961Y117574*
X95940Y117507*
X95915Y117442*
X95886Y117378*
X95854Y117315*
X95818Y117255*
X95779Y117197*
X95737Y117141*
X95692Y117087*
X95644Y117036*
X95593Y116988*
X95539Y116943*
X95483Y116901*
X95425Y116862*
X95365Y116826*
X95302Y116794*
X95238Y116765*
X95173Y116740*
X95106Y116719*
X95038Y116701*
X94969Y116688*
X94900Y116678*
X94830Y116672*
X94760Y116670*
X94690Y116672*
X94620Y116678*
X94551Y116688*
X94482Y116701*
X94414Y116719*
X94347Y116740*
X94282Y116765*
X94218Y116794*
X94155Y116826*
X94095Y116862*
X94037Y116901*
X93981Y116943*
X93927Y116988*
X93876Y117036*
X93828Y117087*
X93783Y117141*
X93741Y117197*
X93702Y117255*
X93666Y117315*
X93634Y117378*
X93605Y117442*
X93580Y117507*
X93559Y117574*
X93541Y117642*
X93528Y117711*
X93518Y117780*
X93512Y117850*
X93510Y117920*
X93512Y117990*
X93518Y118060*
X93528Y118129*
X93541Y118198*
X93559Y118266*
X93580Y118333*
X93605Y118398*
X93634Y118462*
X93666Y118525*
X93702Y118585*
X93741Y118643*
X93783Y118699*
X93828Y118753*
X93876Y118804*
X93927Y118852*
X93981Y118897*
X94037Y118939*
X94095Y118978*
X94155Y119014*
X94218Y119046*
X94282Y119075*
X94347Y119100*
X94414Y119121*
X94482Y119139*
X94551Y119152*
X94620Y119162*
X94690Y119168*
X94760Y119170*
X94830Y119168*
X94900Y119162*
X94969Y119152*
X95038Y119139*
X95106Y119121*
X95173Y119100*
X95238Y119075*
X95302Y119046*
X95365Y119014*
X95425Y118978*
X95483Y118939*
X95539Y118897*
X95593Y118852*
X95644Y118804*
X95692Y118753*
X95737Y118699*
X95779Y118643*
X95818Y118585*
X95854Y118525*
X95886Y118462*
X95915Y118398*
X95940Y118333*
X95961Y118266*
X95979Y118198*
X95992Y118129*
X96002Y118060*
X96008Y117990*
X96010Y117920*
X96390Y125060D02*
G01X96388Y124990D01*
X96382Y124920*
X96372Y124851*
X96359Y124782*
X96341Y124714*
X96320Y124647*
X96295Y124582*
X96266Y124518*
X96234Y124455*
X96198Y124395*
X96159Y124337*
X96117Y124281*
X96072Y124227*
X96024Y124176*
X95973Y124128*
X95919Y124083*
X95863Y124041*
X95805Y124002*
X95745Y123966*
X95682Y123934*
X95618Y123905*
X95553Y123880*
X95486Y123859*
X95418Y123841*
X95349Y123828*
X95280Y123818*
X95210Y123812*
X95140Y123810*
X95070Y123812*
X95000Y123818*
X94931Y123828*
X94862Y123841*
X94794Y123859*
X94727Y123880*
X94662Y123905*
X94598Y123934*
X94535Y123966*
X94475Y124002*
X94417Y124041*
X94361Y124083*
X94307Y124128*
X94256Y124176*
X94208Y124227*
X94163Y124281*
X94121Y124337*
X94082Y124395*
X94046Y124455*
X94014Y124518*
X93985Y124582*
X93960Y124647*
X93939Y124714*
X93921Y124782*
X93908Y124851*
X93898Y124920*
X93892Y124990*
X93890Y125060*
X93892Y125130*
X93898Y125200*
X93908Y125269*
X93921Y125338*
X93939Y125406*
X93960Y125473*
X93985Y125538*
X94014Y125602*
X94046Y125665*
X94082Y125725*
X94121Y125783*
X94163Y125839*
X94208Y125893*
X94256Y125944*
X94307Y125992*
X94361Y126037*
X94417Y126079*
X94475Y126118*
X94535Y126154*
X94598Y126186*
X94662Y126215*
X94727Y126240*
X94794Y126261*
X94862Y126279*
X94931Y126292*
X95000Y126302*
X95070Y126308*
X95140Y126310*
X95210Y126308*
X95280Y126302*
X95349Y126292*
X95418Y126279*
X95486Y126261*
X95553Y126240*
X95618Y126215*
X95682Y126186*
X95745Y126154*
X95805Y126118*
X95863Y126079*
X95919Y126037*
X95973Y125992*
X96024Y125944*
X96072Y125893*
X96117Y125839*
X96159Y125783*
X96198Y125725*
X96234Y125665*
X96266Y125602*
X96295Y125538*
X96320Y125473*
X96341Y125406*
X96359Y125338*
X96372Y125269*
X96382Y125200*
X96388Y125130*
X96390Y125060*
G54D36*
X1870Y96940D02*
G01X2930D01*
Y96939D02*
G01X3020Y96944D01*
X3110Y96952*
X3199Y96965*
X3288Y96982*
X3375Y97003*
X3462Y97028*
X3547Y97057*
X3631Y97091*
X3713Y97128*
X3793Y97169*
X3871Y97214*
X3947Y97263*
X4020Y97315*
X4091Y97371*
X4159Y97430*
X4225Y97492*
X4287Y97557*
X4346Y97625*
X4402Y97696*
X4454Y97769*
X4503Y97845*
X4548Y97923*
X4590Y98003*
X4627Y98085*
X4661Y98168*
X4690Y98253*
X4716Y98340*
X4737Y98427*
X4754Y98516*
X4767Y98605*
X4776Y98695*
X4780Y98784*
X4781Y98875*
X4780D02*
G01X94190Y98860D01*
X94345Y98862*
X94499Y98871*
X94653Y98888*
X94806Y98912*
X94957Y98944*
X95107Y98983*
X95255Y99029*
X95400Y99083*
X95542Y99143*
X95682Y99210*
X95817Y99285*
X95950Y99365*
X96078Y99452*
X96201Y99545*
X96320Y99644*
X96434Y99749*
X96543Y99859*
X96646Y99974*
X96744Y100094*
X96835Y100219*
X96920Y100348*
X96999Y100481*
X97072Y100618*
X97137Y100758*
X97196Y100901*
X97248Y101047*
X97292Y101195*
X97329Y101345*
X97359Y101497*
X97382Y101650*
X97397Y101804*
X97404Y101958*
Y102113*
X97396Y102268*
X97381Y102422*
X97358Y102575*
X97328Y102726*
X97291Y102876*
X97246Y103025*
X97194Y103170*
X97135Y103313*
X97069Y103453*
X96997Y103590*
X96918Y103723*
X96832Y103852*
X96740Y103976*
X96643Y104096*
X96539Y104211*
X96430Y104321*
X96316Y104426*
X96197Y104524*
X96073Y104617*
X95945Y104704*
X95813Y104784*
X95677Y104858*
X95537Y104925*
X95395Y104985*
X95250Y105038*
X95102Y105084*
X94952Y105123*
X94801Y105155*
X94648Y105179*
X94494Y105195*
X94340Y105204*
X94185Y105206*
X94030Y105200*
Y108460*
Y108459D02*
G01X94183Y108453D01*
X94337Y108455*
X94490Y108464*
X94643Y108481*
X94794Y108506*
X94944Y108537*
X95093Y108576*
X95239Y108622*
X95383Y108675*
X95525Y108736*
X95663Y108803*
X95798Y108876*
X95929Y108956*
X96055Y109043*
X96178Y109136*
X96296Y109234*
X96409Y109338*
X96516Y109447*
X96619Y109562*
X96715Y109682*
X96806Y109806*
X96890Y109934*
X96968Y110066*
X97040Y110202*
X97104Y110341*
X97162Y110483*
X97213Y110628*
X97257Y110776*
X97293Y110925*
X97322Y111075*
X97344Y111227*
X97359Y111380*
X97365Y111534*
Y111687*
X97357Y111841*
X97341Y111993*
X97318Y112145*
X97287Y112296*
X97250Y112444*
X97205Y112591*
X97153Y112736*
X97093Y112877*
X97027Y113016*
X96955Y113151*
X96876Y113283*
X96790Y113411*
X96699Y113534*
X96601Y113652*
X96498Y113766*
X96389Y113875*
X96275Y113978*
X96157Y114075*
X96033Y114167*
X95906Y114252*
X95774Y114331*
X95639Y114404*
X95500Y114469*
X95358Y114528*
X95214Y114580*
X95067Y114625*
X94918Y114663*
X94768Y114693*
X94616Y114716*
X94463Y114732*
X94310Y114740*
X80490*
X76810Y111560D02*
G01X76811Y111423D01*
X76805Y111286*
X76793Y111150*
X76773Y111014*
X76748Y110879*
X76716Y110746*
X76677Y110615*
X76632Y110486*
X76580Y110359*
X76523Y110234*
X76459Y110113*
X76389Y109995*
X76314Y109881*
X76233Y109770*
X76147Y109663*
X76056Y109561*
X75960Y109464*
X75859Y109371*
X75754Y109283*
X75645Y109201*
X75531Y109124*
X75414Y109052*
X75294Y108987*
X75171Y108927*
X75045Y108874*
X74916Y108827*
X74785Y108786*
X74652Y108752*
X74518Y108724*
X74383Y108703*
X74247Y108688*
X74110Y108680*
X2270Y108660*
X70Y106540D02*
G01Y98840D01*
X69Y98752*
X73Y98664*
X81Y98576*
X94Y98489*
X110Y98402*
X131Y98317*
X155Y98232*
X184Y98149*
X216Y98067*
X252Y97987*
X293Y97908*
X336Y97832*
X384Y97757*
X435Y97686*
X489Y97616*
X546Y97549*
X607Y97485*
X671Y97424*
X737Y97366*
X806Y97312*
X878Y97260*
X952Y97213*
X1028Y97168*
X1106Y97128*
X1186Y97091*
X1268Y97058*
X1351Y97029*
X1435Y97004*
X1521Y96983*
X1607Y96966*
X1694Y96953*
X1782Y96944*
X1870Y96940*
X70Y106540D02*
G01X75Y106646D01*
X85Y106752*
X100Y106856*
X120Y106961*
X145Y107064*
X175Y107165*
X210Y107265*
X250Y107363*
X295Y107460*
X344Y107553*
X398Y107645*
X457Y107733*
X519Y107819*
X586Y107901*
X657Y107980*
X731Y108055*
X809Y108127*
X891Y108195*
X976Y108258*
X1063Y108318*
X1154Y108373*
X1247Y108423*
X1343Y108469*
X1440Y108511*
X1540Y108547*
X1641Y108578*
X1744Y108605*
X1848Y108626*
X1953Y108642*
X2058Y108653*
X2164Y108659*
X2270Y108660*
X76810Y111560D02*
G01X76827Y111728D01*
X76851Y111895*
X76884Y112061*
X76925Y112224*
X76974Y112386*
X77030Y112545*
X77095Y112701*
X77167Y112854*
X77246Y113002*
X77333Y113147*
X77427Y113288*
X77527Y113423*
X77634Y113554*
X77747Y113679*
X77866Y113799*
X77991Y113912*
X78122Y114019*
X78257Y114120*
X78398Y114214*
X78542Y114301*
X78691Y114380*
X78844Y114453*
X79000Y114517*
X79158Y114574*
X79320Y114624*
X79484Y114665*
X79649Y114698*
X79816Y114723*
X79984Y114739*
X80153Y114748*
X80321*
X80490Y114740*
G54D83*
X93800Y111500D02*
G01X93802Y111570D01*
X93808Y111640*
X93818Y111709*
X93831Y111778*
X93849Y111846*
X93870Y111913*
X93895Y111978*
X93924Y112042*
X93956Y112105*
X93992Y112165*
X94031Y112223*
X94073Y112279*
X94118Y112333*
X94166Y112384*
X94217Y112432*
X94271Y112477*
X94327Y112519*
X94385Y112558*
X94445Y112594*
X94508Y112626*
X94572Y112655*
X94637Y112680*
X94704Y112701*
X94772Y112719*
X94841Y112732*
X94910Y112742*
X94980Y112748*
X95050Y112750*
X95120Y112748*
X95190Y112742*
X95259Y112732*
X95328Y112719*
X95396Y112701*
X95463Y112680*
X95528Y112655*
X95592Y112626*
X95655Y112594*
X95715Y112558*
X95773Y112519*
X95829Y112477*
X95883Y112432*
X95934Y112384*
X95982Y112333*
X96027Y112279*
X96069Y112223*
X96108Y112165*
X96144Y112105*
X96176Y112042*
X96205Y111978*
X96230Y111913*
X96251Y111846*
X96269Y111778*
X96282Y111709*
X96292Y111640*
X96298Y111570*
X96300Y111500*
X96298Y111430*
X96292Y111360*
X96282Y111291*
X96269Y111222*
X96251Y111154*
X96230Y111087*
X96205Y111022*
X96176Y110958*
X96144Y110895*
X96108Y110835*
X96069Y110777*
X96027Y110721*
X95982Y110667*
X95934Y110616*
X95883Y110568*
X95829Y110523*
X95773Y110481*
X95715Y110442*
X95655Y110406*
X95592Y110374*
X95528Y110345*
X95463Y110320*
X95396Y110299*
X95328Y110281*
X95259Y110268*
X95190Y110258*
X95120Y110252*
X95050Y110250*
X94980Y110252*
X94910Y110258*
X94841Y110268*
X94772Y110281*
X94704Y110299*
X94637Y110320*
X94572Y110345*
X94508Y110374*
X94445Y110406*
X94385Y110442*
X94327Y110481*
X94271Y110523*
X94217Y110568*
X94166Y110616*
X94118Y110667*
X94073Y110721*
X94031Y110777*
X93992Y110835*
X93956Y110895*
X93924Y110958*
X93895Y111022*
X93870Y111087*
X93849Y111154*
X93831Y111222*
X93818Y111291*
X93808Y111360*
X93802Y111430*
X93800Y111500*
X93660Y102140D02*
G01X93662Y102210D01*
X93668Y102280*
X93678Y102349*
X93691Y102418*
X93709Y102486*
X93730Y102553*
X93755Y102618*
X93784Y102682*
X93816Y102745*
X93852Y102805*
X93891Y102863*
X93933Y102919*
X93978Y102973*
X94026Y103024*
X94077Y103072*
X94131Y103117*
X94187Y103159*
X94245Y103198*
X94305Y103234*
X94368Y103266*
X94432Y103295*
X94497Y103320*
X94564Y103341*
X94632Y103359*
X94701Y103372*
X94770Y103382*
X94840Y103388*
X94910Y103390*
X94980Y103388*
X95050Y103382*
X95119Y103372*
X95188Y103359*
X95256Y103341*
X95323Y103320*
X95388Y103295*
X95452Y103266*
X95515Y103234*
X95575Y103198*
X95633Y103159*
X95689Y103117*
X95743Y103072*
X95794Y103024*
X95842Y102973*
X95887Y102919*
X95929Y102863*
X95968Y102805*
X96004Y102745*
X96036Y102682*
X96065Y102618*
X96090Y102553*
X96111Y102486*
X96129Y102418*
X96142Y102349*
X96152Y102280*
X96158Y102210*
X96160Y102140*
X96158Y102070*
X96152Y102000*
X96142Y101931*
X96129Y101862*
X96111Y101794*
X96090Y101727*
X96065Y101662*
X96036Y101598*
X96004Y101535*
X95968Y101475*
X95929Y101417*
X95887Y101361*
X95842Y101307*
X95794Y101256*
X95743Y101208*
X95689Y101163*
X95633Y101121*
X95575Y101082*
X95515Y101046*
X95452Y101014*
X95388Y100985*
X95323Y100960*
X95256Y100939*
X95188Y100921*
X95119Y100908*
X95050Y100898*
X94980Y100892*
X94910Y100890*
X94840Y100892*
X94770Y100898*
X94701Y100908*
X94632Y100921*
X94564Y100939*
X94497Y100960*
X94432Y100985*
X94368Y101014*
X94305Y101046*
X94245Y101082*
X94187Y101121*
X94131Y101163*
X94077Y101208*
X94026Y101256*
X93978Y101307*
X93933Y101361*
X93891Y101417*
X93852Y101475*
X93816Y101535*
X93784Y101598*
X93755Y101662*
X93730Y101727*
X93709Y101794*
X93691Y101862*
X93678Y101931*
X93668Y102000*
X93662Y102070*
X93660Y102140*
X1540Y106580D02*
G01X1542Y106650D01*
X1548Y106720*
X1558Y106789*
X1571Y106858*
X1589Y106926*
X1610Y106993*
X1635Y107058*
X1664Y107122*
X1696Y107185*
X1732Y107245*
X1771Y107303*
X1813Y107359*
X1858Y107413*
X1906Y107464*
X1957Y107512*
X2011Y107557*
X2067Y107599*
X2125Y107638*
X2185Y107674*
X2248Y107706*
X2312Y107735*
X2377Y107760*
X2444Y107781*
X2512Y107799*
X2581Y107812*
X2650Y107822*
X2720Y107828*
X2790Y107830*
X2860Y107828*
X2930Y107822*
X2999Y107812*
X3068Y107799*
X3136Y107781*
X3203Y107760*
X3268Y107735*
X3332Y107706*
X3395Y107674*
X3455Y107638*
X3513Y107599*
X3569Y107557*
X3623Y107512*
X3674Y107464*
X3722Y107413*
X3767Y107359*
X3809Y107303*
X3848Y107245*
X3884Y107185*
X3916Y107122*
X3945Y107058*
X3970Y106993*
X3991Y106926*
X4009Y106858*
X4022Y106789*
X4032Y106720*
X4038Y106650*
X4040Y106580*
X4038Y106510*
X4032Y106440*
X4022Y106371*
X4009Y106302*
X3991Y106234*
X3970Y106167*
X3945Y106102*
X3916Y106038*
X3884Y105975*
X3848Y105915*
X3809Y105857*
X3767Y105801*
X3722Y105747*
X3674Y105696*
X3623Y105648*
X3569Y105603*
X3513Y105561*
X3455Y105522*
X3395Y105486*
X3332Y105454*
X3268Y105425*
X3203Y105400*
X3136Y105379*
X3068Y105361*
X2999Y105348*
X2930Y105338*
X2860Y105332*
X2790Y105330*
X2720Y105332*
X2650Y105338*
X2581Y105348*
X2512Y105361*
X2444Y105379*
X2377Y105400*
X2312Y105425*
X2248Y105454*
X2185Y105486*
X2125Y105522*
X2067Y105561*
X2011Y105603*
X1957Y105648*
X1906Y105696*
X1858Y105747*
X1813Y105801*
X1771Y105857*
X1732Y105915*
X1696Y105975*
X1664Y106038*
X1635Y106102*
X1610Y106167*
X1589Y106234*
X1571Y106302*
X1558Y106371*
X1548Y106440*
X1542Y106510*
X1540Y106580*
X1160Y99440D02*
G01X1162Y99510D01*
X1168Y99580*
X1178Y99649*
X1191Y99718*
X1209Y99786*
X1230Y99853*
X1255Y99918*
X1284Y99982*
X1316Y100045*
X1352Y100105*
X1391Y100163*
X1433Y100219*
X1478Y100273*
X1526Y100324*
X1577Y100372*
X1631Y100417*
X1687Y100459*
X1745Y100498*
X1805Y100534*
X1868Y100566*
X1932Y100595*
X1997Y100620*
X2064Y100641*
X2132Y100659*
X2201Y100672*
X2270Y100682*
X2340Y100688*
X2410Y100690*
X2480Y100688*
X2550Y100682*
X2619Y100672*
X2688Y100659*
X2756Y100641*
X2823Y100620*
X2888Y100595*
X2952Y100566*
X3015Y100534*
X3075Y100498*
X3133Y100459*
X3189Y100417*
X3243Y100372*
X3294Y100324*
X3342Y100273*
X3387Y100219*
X3429Y100163*
X3468Y100105*
X3504Y100045*
X3536Y99982*
X3565Y99918*
X3590Y99853*
X3611Y99786*
X3629Y99718*
X3642Y99649*
X3652Y99580*
X3658Y99510*
X3660Y99440*
X3658Y99370*
X3652Y99300*
X3642Y99231*
X3629Y99162*
X3611Y99094*
X3590Y99027*
X3565Y98962*
X3536Y98898*
X3504Y98835*
X3468Y98775*
X3429Y98717*
X3387Y98661*
X3342Y98607*
X3294Y98556*
X3243Y98508*
X3189Y98463*
X3133Y98421*
X3075Y98382*
X3015Y98346*
X2952Y98314*
X2888Y98285*
X2823Y98260*
X2756Y98239*
X2688Y98221*
X2619Y98208*
X2550Y98198*
X2480Y98192*
X2410Y98190*
X2340Y98192*
X2270Y98198*
X2201Y98208*
X2132Y98221*
X2064Y98239*
X1997Y98260*
X1932Y98285*
X1868Y98314*
X1805Y98346*
X1745Y98382*
X1687Y98421*
X1631Y98463*
X1577Y98508*
X1526Y98556*
X1478Y98607*
X1433Y98661*
X1391Y98717*
X1352Y98775*
X1316Y98835*
X1284Y98898*
X1255Y98962*
X1230Y99027*
X1209Y99094*
X1191Y99162*
X1178Y99231*
X1168Y99300*
X1162Y99370*
X1160Y99440*
G54D36*
X2058Y126386D02*
G01X3118D01*
Y126385D02*
G01X3208Y126390D01*
X3298Y126398*
X3387Y126411*
X3476Y126428*
X3563Y126449*
X3650Y126474*
X3735Y126503*
X3819Y126537*
X3901Y126574*
X3981Y126615*
X4059Y126660*
X4135Y126709*
X4208Y126761*
X4279Y126817*
X4347Y126876*
X4413Y126938*
X4475Y127003*
X4534Y127071*
X4590Y127142*
X4642Y127215*
X4691Y127291*
X4736Y127369*
X4778Y127449*
X4815Y127531*
X4849Y127614*
X4878Y127699*
X4904Y127786*
X4925Y127873*
X4942Y127962*
X4955Y128051*
X4964Y128141*
X4968Y128230*
X4969Y128321*
X4968D02*
G01X94378Y128306D01*
X94533Y128308*
X94687Y128317*
X94841Y128334*
X94994Y128358*
X95145Y128390*
X95295Y128429*
X95443Y128475*
X95588Y128529*
X95730Y128589*
X95870Y128656*
X96005Y128731*
X96138Y128811*
X96266Y128898*
X96389Y128991*
X96508Y129090*
X96622Y129195*
X96731Y129305*
X96834Y129420*
X96932Y129540*
X97023Y129665*
X97108Y129794*
X97187Y129927*
X97260Y130064*
X97325Y130204*
X97384Y130347*
X97436Y130493*
X97480Y130641*
X97517Y130791*
X97547Y130943*
X97570Y131096*
X97585Y131250*
X97592Y131404*
Y131559*
X97584Y131714*
X97569Y131868*
X97546Y132021*
X97516Y132172*
X97479Y132322*
X97434Y132471*
X97382Y132616*
X97323Y132759*
X97257Y132899*
X97185Y133036*
X97106Y133169*
X97020Y133298*
X96928Y133422*
X96831Y133542*
X96727Y133657*
X96618Y133767*
X96504Y133872*
X96385Y133970*
X96261Y134063*
X96133Y134150*
X96001Y134230*
X95865Y134304*
X95725Y134371*
X95583Y134431*
X95438Y134484*
X95290Y134530*
X95140Y134569*
X94989Y134601*
X94836Y134625*
X94682Y134641*
X94528Y134650*
X94373Y134652*
X94218Y134646*
Y137906*
Y137905D02*
G01X94371Y137899D01*
X94525Y137901*
X94678Y137910*
X94831Y137927*
X94982Y137952*
X95132Y137983*
X95281Y138022*
X95427Y138068*
X95571Y138121*
X95713Y138182*
X95851Y138249*
X95986Y138322*
X96117Y138402*
X96243Y138489*
X96366Y138582*
X96484Y138680*
X96597Y138784*
X96704Y138893*
X96807Y139008*
X96903Y139128*
X96994Y139252*
X97078Y139380*
X97156Y139512*
X97228Y139648*
X97292Y139787*
X97350Y139929*
X97401Y140074*
X97445Y140222*
X97481Y140371*
X97510Y140521*
X97532Y140673*
X97547Y140826*
X97553Y140980*
Y141133*
X97545Y141287*
X97529Y141439*
X97506Y141591*
X97475Y141742*
X97438Y141890*
X97393Y142037*
X97341Y142182*
X97281Y142323*
X97215Y142462*
X97143Y142597*
X97064Y142729*
X96978Y142857*
X96887Y142980*
X96789Y143098*
X96686Y143212*
X96577Y143321*
X96463Y143424*
X96345Y143521*
X96221Y143613*
X96094Y143698*
X95962Y143777*
X95827Y143850*
X95688Y143915*
X95546Y143974*
X95402Y144026*
X95255Y144071*
X95106Y144109*
X94956Y144139*
X94804Y144162*
X94651Y144178*
X94498Y144186*
X80678*
X76998Y141006D02*
G01X76999Y140869D01*
X76993Y140732*
X76981Y140596*
X76961Y140460*
X76936Y140325*
X76904Y140192*
X76865Y140061*
X76820Y139932*
X76768Y139805*
X76711Y139680*
X76647Y139559*
X76577Y139441*
X76502Y139327*
X76421Y139216*
X76335Y139109*
X76244Y139007*
X76148Y138910*
X76047Y138817*
X75942Y138729*
X75833Y138647*
X75719Y138570*
X75602Y138498*
X75482Y138433*
X75359Y138373*
X75233Y138320*
X75104Y138273*
X74973Y138232*
X74840Y138198*
X74706Y138170*
X74571Y138149*
X74435Y138134*
X74298Y138126*
X2458Y138106*
X258Y135986D02*
G01Y128286D01*
X257Y128198*
X261Y128110*
X269Y128022*
X282Y127935*
X298Y127848*
X319Y127763*
X343Y127678*
X372Y127595*
X404Y127513*
X440Y127433*
X481Y127354*
X524Y127278*
X572Y127203*
X623Y127132*
X677Y127062*
X734Y126995*
X795Y126931*
X859Y126870*
X925Y126812*
X994Y126758*
X1066Y126706*
X1140Y126659*
X1216Y126614*
X1294Y126574*
X1374Y126537*
X1456Y126504*
X1539Y126475*
X1623Y126450*
X1709Y126429*
X1795Y126412*
X1882Y126399*
X1970Y126390*
X2058Y126386*
X258Y135986D02*
G01X263Y136092D01*
X273Y136198*
X288Y136302*
X308Y136407*
X333Y136510*
X363Y136611*
X398Y136711*
X438Y136809*
X483Y136906*
X532Y136999*
X586Y137091*
X645Y137179*
X707Y137265*
X774Y137347*
X845Y137426*
X919Y137501*
X997Y137573*
X1079Y137641*
X1164Y137704*
X1251Y137764*
X1342Y137819*
X1435Y137869*
X1531Y137915*
X1628Y137957*
X1728Y137993*
X1829Y138024*
X1932Y138051*
X2036Y138072*
X2141Y138088*
X2246Y138099*
X2352Y138105*
X2458Y138106*
X76998Y141006D02*
G01X77015Y141174D01*
X77039Y141341*
X77072Y141507*
X77113Y141670*
X77162Y141832*
X77218Y141991*
X77283Y142147*
X77355Y142300*
X77434Y142448*
X77521Y142593*
X77615Y142734*
X77715Y142869*
X77822Y143000*
X77935Y143125*
X78054Y143245*
X78179Y143358*
X78310Y143465*
X78445Y143566*
X78586Y143660*
X78730Y143747*
X78879Y143826*
X79032Y143899*
X79188Y143963*
X79346Y144020*
X79508Y144070*
X79672Y144111*
X79837Y144144*
X80004Y144169*
X80172Y144185*
X80341Y144194*
X80509*
X80678Y144186*
G54D83*
X93988Y140946D02*
G01X93990Y141016D01*
X93996Y141086*
X94006Y141155*
X94019Y141224*
X94037Y141292*
X94058Y141359*
X94083Y141424*
X94112Y141488*
X94144Y141551*
X94180Y141611*
X94219Y141669*
X94261Y141725*
X94306Y141779*
X94354Y141830*
X94405Y141878*
X94459Y141923*
X94515Y141965*
X94573Y142004*
X94633Y142040*
X94696Y142072*
X94760Y142101*
X94825Y142126*
X94892Y142147*
X94960Y142165*
X95029Y142178*
X95098Y142188*
X95168Y142194*
X95238Y142196*
X95308Y142194*
X95378Y142188*
X95447Y142178*
X95516Y142165*
X95584Y142147*
X95651Y142126*
X95716Y142101*
X95780Y142072*
X95843Y142040*
X95903Y142004*
X95961Y141965*
X96017Y141923*
X96071Y141878*
X96122Y141830*
X96170Y141779*
X96215Y141725*
X96257Y141669*
X96296Y141611*
X96332Y141551*
X96364Y141488*
X96393Y141424*
X96418Y141359*
X96439Y141292*
X96457Y141224*
X96470Y141155*
X96480Y141086*
X96486Y141016*
X96488Y140946*
X96486Y140876*
X96480Y140806*
X96470Y140737*
X96457Y140668*
X96439Y140600*
X96418Y140533*
X96393Y140468*
X96364Y140404*
X96332Y140341*
X96296Y140281*
X96257Y140223*
X96215Y140167*
X96170Y140113*
X96122Y140062*
X96071Y140014*
X96017Y139969*
X95961Y139927*
X95903Y139888*
X95843Y139852*
X95780Y139820*
X95716Y139791*
X95651Y139766*
X95584Y139745*
X95516Y139727*
X95447Y139714*
X95378Y139704*
X95308Y139698*
X95238Y139696*
X95168Y139698*
X95098Y139704*
X95029Y139714*
X94960Y139727*
X94892Y139745*
X94825Y139766*
X94760Y139791*
X94696Y139820*
X94633Y139852*
X94573Y139888*
X94515Y139927*
X94459Y139969*
X94405Y140014*
X94354Y140062*
X94306Y140113*
X94261Y140167*
X94219Y140223*
X94180Y140281*
X94144Y140341*
X94112Y140404*
X94083Y140468*
X94058Y140533*
X94037Y140600*
X94019Y140668*
X94006Y140737*
X93996Y140806*
X93990Y140876*
X93988Y140946*
X93848Y131586D02*
G01X93850Y131656D01*
X93856Y131726*
X93866Y131795*
X93879Y131864*
X93897Y131932*
X93918Y131999*
X93943Y132064*
X93972Y132128*
X94004Y132191*
X94040Y132251*
X94079Y132309*
X94121Y132365*
X94166Y132419*
X94214Y132470*
X94265Y132518*
X94319Y132563*
X94375Y132605*
X94433Y132644*
X94493Y132680*
X94556Y132712*
X94620Y132741*
X94685Y132766*
X94752Y132787*
X94820Y132805*
X94889Y132818*
X94958Y132828*
X95028Y132834*
X95098Y132836*
X95168Y132834*
X95238Y132828*
X95307Y132818*
X95376Y132805*
X95444Y132787*
X95511Y132766*
X95576Y132741*
X95640Y132712*
X95703Y132680*
X95763Y132644*
X95821Y132605*
X95877Y132563*
X95931Y132518*
X95982Y132470*
X96030Y132419*
X96075Y132365*
X96117Y132309*
X96156Y132251*
X96192Y132191*
X96224Y132128*
X96253Y132064*
X96278Y131999*
X96299Y131932*
X96317Y131864*
X96330Y131795*
X96340Y131726*
X96346Y131656*
X96348Y131586*
X96346Y131516*
X96340Y131446*
X96330Y131377*
X96317Y131308*
X96299Y131240*
X96278Y131173*
X96253Y131108*
X96224Y131044*
X96192Y130981*
X96156Y130921*
X96117Y130863*
X96075Y130807*
X96030Y130753*
X95982Y130702*
X95931Y130654*
X95877Y130609*
X95821Y130567*
X95763Y130528*
X95703Y130492*
X95640Y130460*
X95576Y130431*
X95511Y130406*
X95444Y130385*
X95376Y130367*
X95307Y130354*
X95238Y130344*
X95168Y130338*
X95098Y130336*
X95028Y130338*
X94958Y130344*
X94889Y130354*
X94820Y130367*
X94752Y130385*
X94685Y130406*
X94620Y130431*
X94556Y130460*
X94493Y130492*
X94433Y130528*
X94375Y130567*
X94319Y130609*
X94265Y130654*
X94214Y130702*
X94166Y130753*
X94121Y130807*
X94079Y130863*
X94040Y130921*
X94004Y130981*
X93972Y131044*
X93943Y131108*
X93918Y131173*
X93897Y131240*
X93879Y131308*
X93866Y131377*
X93856Y131446*
X93850Y131516*
X93848Y131586*
X1728Y136026D02*
G01X1730Y136096D01*
X1736Y136166*
X1746Y136235*
X1759Y136304*
X1777Y136372*
X1798Y136439*
X1823Y136504*
X1852Y136568*
X1884Y136631*
X1920Y136691*
X1959Y136749*
X2001Y136805*
X2046Y136859*
X2094Y136910*
X2145Y136958*
X2199Y137003*
X2255Y137045*
X2313Y137084*
X2373Y137120*
X2436Y137152*
X2500Y137181*
X2565Y137206*
X2632Y137227*
X2700Y137245*
X2769Y137258*
X2838Y137268*
X2908Y137274*
X2978Y137276*
X3048Y137274*
X3118Y137268*
X3187Y137258*
X3256Y137245*
X3324Y137227*
X3391Y137206*
X3456Y137181*
X3520Y137152*
X3583Y137120*
X3643Y137084*
X3701Y137045*
X3757Y137003*
X3811Y136958*
X3862Y136910*
X3910Y136859*
X3955Y136805*
X3997Y136749*
X4036Y136691*
X4072Y136631*
X4104Y136568*
X4133Y136504*
X4158Y136439*
X4179Y136372*
X4197Y136304*
X4210Y136235*
X4220Y136166*
X4226Y136096*
X4228Y136026*
X4226Y135956*
X4220Y135886*
X4210Y135817*
X4197Y135748*
X4179Y135680*
X4158Y135613*
X4133Y135548*
X4104Y135484*
X4072Y135421*
X4036Y135361*
X3997Y135303*
X3955Y135247*
X3910Y135193*
X3862Y135142*
X3811Y135094*
X3757Y135049*
X3701Y135007*
X3643Y134968*
X3583Y134932*
X3520Y134900*
X3456Y134871*
X3391Y134846*
X3324Y134825*
X3256Y134807*
X3187Y134794*
X3118Y134784*
X3048Y134778*
X2978Y134776*
X2908Y134778*
X2838Y134784*
X2769Y134794*
X2700Y134807*
X2632Y134825*
X2565Y134846*
X2500Y134871*
X2436Y134900*
X2373Y134932*
X2313Y134968*
X2255Y135007*
X2199Y135049*
X2145Y135094*
X2094Y135142*
X2046Y135193*
X2001Y135247*
X1959Y135303*
X1920Y135361*
X1884Y135421*
X1852Y135484*
X1823Y135548*
X1798Y135613*
X1777Y135680*
X1759Y135748*
X1746Y135817*
X1736Y135886*
X1730Y135956*
X1728Y136026*
X1348Y128886D02*
G01X1350Y128956D01*
X1356Y129026*
X1366Y129095*
X1379Y129164*
X1397Y129232*
X1418Y129299*
X1443Y129364*
X1472Y129428*
X1504Y129491*
X1540Y129551*
X1579Y129609*
X1621Y129665*
X1666Y129719*
X1714Y129770*
X1765Y129818*
X1819Y129863*
X1875Y129905*
X1933Y129944*
X1993Y129980*
X2056Y130012*
X2120Y130041*
X2185Y130066*
X2252Y130087*
X2320Y130105*
X2389Y130118*
X2458Y130128*
X2528Y130134*
X2598Y130136*
X2668Y130134*
X2738Y130128*
X2807Y130118*
X2876Y130105*
X2944Y130087*
X3011Y130066*
X3076Y130041*
X3140Y130012*
X3203Y129980*
X3263Y129944*
X3321Y129905*
X3377Y129863*
X3431Y129818*
X3482Y129770*
X3530Y129719*
X3575Y129665*
X3617Y129609*
X3656Y129551*
X3692Y129491*
X3724Y129428*
X3753Y129364*
X3778Y129299*
X3799Y129232*
X3817Y129164*
X3830Y129095*
X3840Y129026*
X3846Y128956*
X3848Y128886*
X3846Y128816*
X3840Y128746*
X3830Y128677*
X3817Y128608*
X3799Y128540*
X3778Y128473*
X3753Y128408*
X3724Y128344*
X3692Y128281*
X3656Y128221*
X3617Y128163*
X3575Y128107*
X3530Y128053*
X3482Y128002*
X3431Y127954*
X3377Y127909*
X3321Y127867*
X3263Y127828*
X3203Y127792*
X3140Y127760*
X3076Y127731*
X3011Y127706*
X2944Y127685*
X2876Y127667*
X2807Y127654*
X2738Y127644*
X2668Y127638*
X2598Y127636*
X2528Y127638*
X2458Y127644*
X2389Y127654*
X2320Y127667*
X2252Y127685*
X2185Y127706*
X2120Y127731*
X2056Y127760*
X1993Y127792*
X1933Y127828*
X1875Y127867*
X1819Y127909*
X1765Y127954*
X1714Y128002*
X1666Y128053*
X1621Y128107*
X1579Y128163*
X1540Y128221*
X1504Y128281*
X1472Y128344*
X1443Y128408*
X1418Y128473*
X1397Y128540*
X1379Y128608*
X1366Y128677*
X1356Y128746*
X1350Y128816*
X1348Y128886*
M02*
