G75*
G70*
%OFA0B0*%
%FSLAX24Y24*%
%IPPOS*%
%LPD*%
%AMOC8*
5,1,8,0,0,1.08239X$1,22.5*
%
%ADD10R,0.0900X0.0700*%
%ADD11R,0.0700X0.0900*%
%ADD12R,0.0220X0.0236*%
%ADD13R,0.0236X0.0220*%
%ADD14R,0.0472X0.0512*%
%ADD15R,0.0472X0.0551*%
%ADD16R,0.0591X0.0197*%
%ADD17R,0.0197X0.0591*%
%ADD18R,0.0630X0.0157*%
%ADD19R,0.0315X0.0472*%
D10*
X090945Y009286D03*
X090945Y010486D03*
D11*
X082385Y011066D03*
X081185Y011066D03*
D12*
X085413Y008681D03*
X085728Y008681D03*
X086043Y008681D03*
X086358Y008681D03*
X089413Y008461D03*
X089728Y008461D03*
X090043Y008461D03*
X090358Y008461D03*
X090358Y007671D03*
X090043Y007671D03*
X089728Y007671D03*
X089413Y007671D03*
X086358Y007891D03*
X086043Y007891D03*
X085728Y007891D03*
X085413Y007891D03*
D13*
X090530Y012764D03*
X090530Y013079D03*
X091320Y013079D03*
X091320Y012764D03*
X091320Y013394D03*
X091320Y013709D03*
X090530Y013709D03*
X090530Y013394D03*
D14*
X087685Y015206D03*
X086885Y015206D03*
X087535Y008336D03*
X088335Y008336D03*
D15*
X001451Y004317D03*
X002140Y004317D03*
X004351Y004317D03*
X005040Y004317D03*
X007251Y004317D03*
X007940Y004317D03*
X010151Y004317D03*
X010840Y004317D03*
X013051Y004317D03*
X013740Y004317D03*
X015951Y004317D03*
X016640Y004317D03*
X018851Y004317D03*
X019540Y004317D03*
X021751Y004317D03*
X022440Y004317D03*
X024651Y004317D03*
X025340Y004317D03*
X027551Y004317D03*
X028240Y004317D03*
X030451Y004317D03*
X031140Y004317D03*
X033351Y004317D03*
X034040Y004317D03*
X036251Y004317D03*
X036940Y004317D03*
X039151Y004317D03*
X039840Y004317D03*
X042051Y004317D03*
X042740Y004317D03*
X044851Y004317D03*
X045540Y004317D03*
X047751Y004317D03*
X048440Y004317D03*
X050651Y004317D03*
X051340Y004317D03*
X053651Y004317D03*
X054340Y004317D03*
X056551Y004317D03*
X057240Y004317D03*
X059451Y004317D03*
X060140Y004317D03*
X062351Y004317D03*
X063040Y004317D03*
X065251Y004317D03*
X065940Y004317D03*
X068151Y004317D03*
X068840Y004317D03*
X071051Y004327D03*
X071740Y004327D03*
X073951Y004317D03*
X074640Y004317D03*
X076851Y004317D03*
X077540Y004317D03*
X079751Y004317D03*
X080440Y004317D03*
X082651Y004317D03*
X083340Y004317D03*
X085551Y004317D03*
X086240Y004317D03*
X088451Y004317D03*
X089140Y004317D03*
X091351Y004317D03*
X092040Y004317D03*
X092040Y005576D03*
X091351Y005576D03*
X089140Y005576D03*
X088451Y005576D03*
X086240Y005576D03*
X085551Y005576D03*
X083340Y005576D03*
X082651Y005576D03*
X080440Y005576D03*
X079751Y005576D03*
X077540Y005576D03*
X076851Y005576D03*
X074640Y005576D03*
X073951Y005576D03*
X071740Y005586D03*
X071051Y005586D03*
X068840Y005576D03*
X068151Y005576D03*
X065940Y005576D03*
X065251Y005576D03*
X063040Y005576D03*
X062351Y005576D03*
X060140Y005576D03*
X059451Y005576D03*
X057240Y005576D03*
X056551Y005576D03*
X054340Y005576D03*
X053651Y005576D03*
X051340Y005576D03*
X050651Y005576D03*
X048440Y005576D03*
X047751Y005576D03*
X045540Y005576D03*
X044851Y005576D03*
X042740Y005576D03*
X042051Y005576D03*
X039840Y005576D03*
X039151Y005576D03*
X036940Y005576D03*
X036251Y005576D03*
X034040Y005576D03*
X033351Y005576D03*
X031140Y005576D03*
X030451Y005576D03*
X028240Y005576D03*
X027551Y005576D03*
X025340Y005576D03*
X024651Y005576D03*
X022440Y005576D03*
X021751Y005576D03*
X019540Y005576D03*
X018851Y005576D03*
X016640Y005576D03*
X015951Y005576D03*
X013740Y005576D03*
X013051Y005576D03*
X010840Y005576D03*
X010151Y005576D03*
X007940Y005576D03*
X007251Y005576D03*
X005040Y005576D03*
X004351Y005576D03*
X002140Y005576D03*
X001451Y005576D03*
D16*
X085042Y010272D03*
X085042Y010587D03*
X085042Y010902D03*
X085042Y011217D03*
X085042Y011531D03*
X085042Y011846D03*
X085042Y012161D03*
X085042Y012476D03*
X085042Y012791D03*
X085042Y013106D03*
X085042Y013421D03*
X089609Y013421D03*
X089609Y013106D03*
X089609Y012791D03*
X089609Y012476D03*
X089609Y012161D03*
X089609Y011846D03*
X089609Y011531D03*
X089609Y011217D03*
X089609Y010902D03*
X089609Y010587D03*
X089609Y010272D03*
D17*
X088900Y009563D03*
X088585Y009563D03*
X088270Y009563D03*
X087955Y009563D03*
X087640Y009563D03*
X087325Y009563D03*
X087010Y009563D03*
X086695Y009563D03*
X086380Y009563D03*
X086065Y009563D03*
X085750Y009563D03*
X085750Y014130D03*
X086065Y014130D03*
X086380Y014130D03*
X086695Y014130D03*
X087010Y014130D03*
X087325Y014130D03*
X087640Y014130D03*
X087955Y014130D03*
X088270Y014130D03*
X088585Y014130D03*
X088900Y014130D03*
D18*
X083767Y010102D03*
X083767Y009846D03*
X083767Y009590D03*
X083767Y009334D03*
X083767Y009078D03*
X083767Y008822D03*
X083767Y008566D03*
X083767Y008310D03*
X081444Y008310D03*
X081444Y008566D03*
X081444Y008822D03*
X081444Y009078D03*
X081444Y009334D03*
X081444Y009590D03*
X081444Y009846D03*
X081444Y010102D03*
D19*
G36*
X084156Y010482D02*
X083934Y010704D01*
X084266Y011036D01*
X084488Y010814D01*
X084156Y010482D01*
G37*
G36*
X083655Y010983D02*
X083433Y011205D01*
X083765Y011537D01*
X083987Y011315D01*
X083655Y010983D01*
G37*
M02*
