%
M48
M72
T01C0.0160
T02C0.0170
T03C0.0300
T04C0.0315
T05C0.0400
T06C0.2500
%
T01
X71265Y7946
X71705Y8026
X72185Y8106
X71265Y8586
X82025Y6666
X82425Y6426
X83945Y6426
X87545Y5546
X86825Y4346
X90265Y6746
X91705Y7306
X88265Y7706
X91145Y8266
X87345Y10226
X86625Y10186
X83065Y9866
X83065Y8986
X83465Y7946
X91465Y11106
X91185Y11506
X90425Y11226
X90425Y11786
X90825Y12426
X90145Y12746
X88745Y13306
X89305Y14106
X84035Y11896
T02
X79305Y7786
X78505Y7146
X76425Y7626
X75625Y6986
X73225Y7466
X68905Y7386
X67785Y7786
X64985Y7626
X66985Y7146
X64105Y6986
X61705Y7466
X57305Y7306
X55225Y7146
X53145Y7626
X56025Y7786
X52265Y6986
X50185Y7466
X45545Y7306
X43705Y7146
X41625Y7626
X40825Y6986
X38425Y7466
X34105Y7306
X31945Y7146
X29865Y7626
X29065Y6986
X27065Y7466
X22585Y7306
X20505Y7146
X18345Y7626
X17545Y6986
X15545Y7466
X12505Y7306
X10425Y7626
X9065Y7146
X7305Y7466
X5865Y6986
X4665Y6986
X2745Y6266
X2199Y5006
X1052Y4807
X919Y4285
X1265Y3706
X3819Y4285
X3952Y4807
X5099Y5006
X6852Y4807
X6719Y4285
X7999Y5006
X9752Y4807
X9619Y4285
X10899Y5006
X12652Y4807
X12519Y4285
X13799Y5006
X15552Y4807
X16699Y5006
X18452Y4807
X19599Y5006
X21352Y4807
X22499Y5006
X24252Y4807
X25399Y5006
X27152Y4807
X28299Y5006
X30052Y4807
X31199Y5006
X32952Y4807
X34099Y5006
X35852Y4807
X36999Y5006
X38752Y4807
X39899Y5006
X41652Y4807
X42799Y5006
X44452Y4807
X45599Y5006
X47352Y4807
X48499Y5006
X50252Y4807
X51399Y5006
X53252Y4807
X54399Y5006
X56152Y4807
X57299Y5006
X59052Y4807
X60199Y5006
X61952Y4807
X63099Y5006
X64852Y4807
X64719Y4285
X65999Y5006
X67752Y4807
X67619Y4285
X68899Y5006
X70652Y4817
X70519Y4295
X71799Y5016
X73552Y4807
X74699Y5006
X76452Y4807
X77599Y5006
X79352Y4807
X80499Y5006
X82252Y4807
X83399Y5006
X85152Y4807
X86299Y5006
X88052Y4807
X89199Y5006
X90952Y4807
X92099Y5006
X90819Y4285
X87919Y4285
X85019Y4285
X82585Y3786
X82119Y4285
X79219Y4285
X76319Y4285
X73419Y4285
X73465Y3386
X70985Y3546
X67465Y3066
X64665Y3226
X61819Y3421
X59385Y3546
X58919Y4285
X56019Y4285
X53119Y4285
X50119Y4285
X47219Y4285
X44319Y4285
X41519Y4285
X38619Y4285
X35719Y4285
X32819Y4285
X29919Y4285
X27019Y4285
X24119Y4285
X21219Y4285
X18319Y4285
X15419Y4285
X15465Y3386
X12905Y3546
X10905Y3066
X7945Y3226
X5145Y3386
X18185Y3226
X20985Y3066
X24585Y3546
X27065Y3386
X29945Y3226
X32825Y3066
X36265Y3546
X38585Y3386
X41465Y3226
X44185Y3066
X47705Y3546
X50025Y3386
X53145Y3226
X55945Y3066
X61819Y4285
X76185Y3226
X79145Y3066
X89385Y6506
X88265Y6986
X87225Y6986
X85065Y7466
X81465Y7306
X44505Y7786
X32745Y7786
X21305Y7786
T03
X22105Y6206
X19205Y6206
X16305Y6206
X13405Y6206
X10505Y6206
X7605Y6206
X4705Y6206
X1805Y6206
X25005Y6206
X27905Y6206
X30805Y6206
X33705Y6206
X36605Y6206
X39505Y6206
X42405Y6206
X45205Y6206
X48105Y6206
X51005Y6206
X54005Y6206
X56905Y6206
X59805Y6206
X62705Y6206
X65605Y6206
X68505Y6206
X71405Y6216
X74305Y6206
X77205Y6206
X80105Y6206
X83005Y6206
X85905Y6206
X88805Y6206
X91705Y6206
T04
X82265Y9396
X82265Y9946
X83555Y10546
X85745Y10346
X87945Y10546
X88825Y10546
X84400Y11526
X86725Y11846
X85885Y12686
X87985Y13266
X86525Y13426
X85965Y13426
X84295Y14586
X84815Y14896
X84275Y15176
X84795Y15526
T05
X88705Y15316
X89705Y15216
X90705Y15316
X91705Y15216
X92375Y11086
X92275Y10086
X92375Y9086
X92275Y8086
T06
X2865Y2306
X3185Y7826
X82285Y13886
X93945Y14186
X94065Y4866
M30
