M48
INCH,TZ
VER,1
FMAT,2
T01C0.016F100B1000S6H2000
T02C0.02F100B1000S6H2000
T03C0.0236F100B1000S6H2000
T04C0.0276F100B1000S6H2000
T05C0.0315F100B1000S6H2000
T06C0.034F100B1000S6H2000
T07C0.0354F100B1000S6H2000
T08C0.0394F100B1000S6H2000
T09C0.04F100B1000S6H2000
T10C0.0433F100B1000S6H2000
T11C0.07F100B1000S6H2000
T12C0.15F100B1000S6H2000
T13C0.25F100B1000S6H2000
DETECT,ON
ATC,ON
%
T01
X86599Y31292
X85079Y31132
X84279Y30972
X83559Y30812
X82439Y31052
X81399Y30652
X80679Y31132
X80119Y31292
X78919Y30492
X78359Y30332
X77639Y30172
X73879Y29852
X72999Y29292
X70999Y29372
X70199
X70759Y28972
X73479Y28412
X70519Y28012
X67639Y28092
X64999
X62199Y27852
X61479
X61879Y28492
X58999
X58359Y29212
X59159Y29292
X61239
X62039Y29852
X64279Y29212
X65319Y29372
X67399Y29292
X68039Y29372
X66519Y30332
X67239Y30492
X65719Y30172
X68199Y31292
X68839Y31132
X69559Y30652
X71719Y30812
X72359Y30972
X75399Y31772
X76039Y31612
X76519Y31452
X70759Y32092
X64439Y31452
X63719Y31612
X62919Y31932
X60759Y30972
X59639Y30812
X58679Y31132
X56759Y31292
X57639Y30652
X55479Y30492
X54759Y30332
X54039Y30172
X50359Y29852
X49799Y29052
X47479Y29372
X46759Y29292
X44679Y29372
X44039Y29292
X41799Y29132
X41319Y28572
X41399Y28172
X44359Y28492
X47079Y28012
X49879Y28412
X52919Y28972
X53479Y29372
X55559Y29212
X56199Y29372
Y28492
X52999Y28172
X55799Y27212
X58759Y27452
Y26492
X55799
X53239Y26332
X52999Y26812
X50159Y26452
X47239Y26412
X44599Y26252
X44439Y26972
X47079Y27212
X41639Y26332
X41399Y26812
X38599Y26412
X41079Y25772
X43959Y25612
X47239Y25452
X50159Y25172
X52599Y25692
X55319Y25612
X58759Y25452
X61959Y26412
X64199Y25772
X64919Y26172
X64679Y26812
X67639Y26492
Y27292
X70519
X70599Y26412
X73639
X76119Y25772
X76839Y26172
X76519Y26732
X79479Y26492
X82519Y26412
X79719Y25612
X82519Y25452
X88359Y26412
X91319Y26652
X94199Y27132
Y28092
X91239Y28492
X88359Y28252
X85639Y28972
X84999Y29292
X82839Y29052
X82119Y28972
X79799Y29292
X79159Y29212
X77159Y29372
X76199Y29292
X76519Y28812
Y28252
X79479Y28412
X82279Y28092
X82119Y27372
X79479Y27452
X85399Y28172
X90919Y29292
X91879Y29772
X87799Y31052
X67479Y25612
X70599Y25452
X76881Y24398
X79479Y23532
X47559Y30812
X48919Y30972
X49479Y31132
X51639Y31772
X52199Y31612
X52919Y31452
X47879Y32252
X44279Y31452
X42119Y31612
X40759Y31772
X40199Y31932
X41319Y32172
X36599Y31612
X35959Y31132
X36599Y30812
X37399Y30972
X34359Y30652
X33639Y30492
X31399Y30332
X30679Y30172
X26839Y29692
X26199Y29292
X23959
X23159Y29372
X21159Y29292
X20439Y29372
X18359
X17479Y29052
X17959Y28732
X20319
X20679Y28252
X23359Y28692
X23639Y28372
X26279Y28532
X26839Y28092
X29639Y28532
X29999Y28292
X32279Y28652
X32999Y28332
X35159Y28652
X35079Y29292
X35879
X38199Y28972
X38599Y29612
X41159Y29852
X43239Y30332
X45239Y30492
X46199Y30652
X46919Y31132
X32999Y29292
X30119Y29372
X29239Y29212
X32279Y27772
X32919Y27052
X32519Y26492
X29719Y26412
X29559Y25772
X26879Y26012
X26239Y26172
X23639
X22679Y25732
X22199
X21079Y25812
X20599
X20119
X17919Y26412
X17319Y26092
X15199Y25892
X13839Y25412
X12319Y25372
X11109Y25382
X11159Y24812
X10439Y24512
X10139Y24172
X11439Y24212
X12609Y24252
X13319Y23772
X14079Y23452
X14919Y23572
X15519Y23332
X16079Y23492
X16639Y23612
X17919Y23572
X18399
X18439Y24492
X18039Y24692
X17719Y24412
X16319Y24732
X14279Y23852
X10759Y23212
X8879
X8479Y23052
X6879Y22632
X6559Y22172
X7439Y21612
X7039Y21292
X9359Y21692
X10159Y21612
X11359Y21932
X11759Y22052
X10639Y22332
X10239Y22452
X11159Y22612
X12079Y22532
X13759Y23132
X13999Y22812
X14599
X14639Y22412
X16439Y21972
X17239Y21692
X17159Y21252
X16319
X14399Y21652
X13239Y21452
X12719Y21412
X12279Y21252
X11319Y21172
X12799Y20692
X12279Y20572
X10519Y20532
X10119
X7999Y20772
X6079Y20332
X5639Y20452
X6439Y19932
X6799Y19572
X7599Y19149
X8319Y19012
X8479Y18612
Y18092
X7399
X11119Y18292
X11639Y18332
X11239Y19452
X11679Y19572
X17039Y20252
X18359Y20492
X20759
X26199Y20452
X21639Y22092
X21199
X21719Y22652
X22439Y22892
X25239Y22852
X29079Y23692
X29399Y24012
X29719Y24332
X28879Y25052
X32519Y25612
X35559Y25452
Y26492
Y27452
X29559Y26892
X26679Y26732
X23679Y26652
X23639Y27452
X20679Y27132
X17639Y26812
X14879Y26972
X14839Y27812
X12279Y28572
X11799
Y29012
X11359Y29412
X12359Y29292
X14239Y28972
X14759Y29372
X15159Y29852
X18519Y30172
X19479Y30332
X21799Y30492
X22519Y30652
X24119Y31292
X25399Y30972
X25959Y31132
X24759Y30812
X20919Y31452
X20519Y31692
X17159Y31772
X16519Y32012
X14359Y30972
X13639
X12999
X12279Y30812
X11399Y30652
X10679
X10039
X9639Y30892
X9399Y30492
X8679Y30332
X8079Y30812
X7319Y31212
X6599Y31572
X10479Y31812
X5319Y30692
X4279Y30812
X4919Y30372
X5599Y30012
X6599Y30172
X6079Y29532
X5479Y29132
X6239Y28892
X3319Y28412
X5519Y28252
X5919Y28052
X9359Y28092
X5919Y27172
X5519Y27052
X5839Y26732
X7399Y26452
X8939Y26232
X9359Y26312
X10999Y26132
X11519Y26052
X11959Y25892
X11519Y26532
X12279Y26692
X8839Y26892
X7039Y25892
X6609Y25652
X4759Y25132
X5159Y24932
X5559Y24572
X3919Y24932
X4359Y25372
X5319Y23412
X5919Y22912
X14319Y21252
X16799Y22332
X24559Y24732
X25239Y25372
X37319Y22732
X38359Y23132
X21239Y18612
X16999Y18172
X24759Y16012
X16759Y15772
X11799Y15612
X11479Y15252
X6319Y14892
X8679Y29292
X9239Y29372
X28839Y32092
X29399Y31772
X31959Y31932
X32519Y31532
X10754Y3918
X12274Y4078
X13074Y4238
X13794Y4398
X14914Y4158
X15954Y4558
X16674Y4078
X17234Y3918
X18434Y4718
X18994Y4878
X19714Y5038
X23474Y5358
X24354Y5918
X26354Y5838
X27154
X26594Y6238
X23874Y6798
X26834Y7198
X29714Y7118
X32354
X35154Y7358
X35874
X35474Y6718
X38354
X38994Y5998
X38194Y5918
X36114
X35314Y5358
X33074Y5998
X32034Y5838
X29954Y5918
X29314Y5838
X30834Y4878
X30114Y4718
X31634Y5038
X29154Y3918
X28514Y4078
X27794Y4558
X25634Y4398
X24994Y4238
X21954Y3438
X21314Y3598
X20834Y3758
X26594Y3118
X32914Y3758
X33634Y3598
X34434Y3278
X36594Y4238
X37714Y4398
X38674Y4078
X40594Y3918
X39714Y4558
X41874Y4718
X42594Y4878
X43314Y5038
X46994Y5358
X47554Y6158
X49874Y5838
X50594Y5918
X52674Y5838
X53314Y5918
X55554Y6078
X56034Y6638
X55954Y7038
X52994Y6718
X50274Y7198
X47474Y6798
X44434Y6238
X43874Y5838
X41794Y5998
X41154Y5838
Y6718
X44354Y7038
X41554Y7998
X38594Y7758
Y8718
X41554
X44114Y8878
X44354Y8398
X47194Y8758
X50114Y8798
X52754Y8958
X52914Y8238
X50274Y7998
X55714Y8878
X55954Y8398
X58754Y8798
X56274Y9438
X53394Y9598
X50114Y9758
X47194Y10038
X44754Y9518
X42034Y9598
X38594Y9758
X35394Y8798
X33154Y9438
X32434Y9038
X32674Y8398
X29714Y8718
Y7918
X26834
X26754Y8798
X23714
X21234Y9438
X20514Y9038
X20834Y8478
X17874Y8718
X14834Y8798
X17634Y9598
X14834Y9758
X8994Y8798
X6034Y8558
X3154Y8078
Y7118
X6114Y6718
X8994Y6958
X11714Y6238
X12354Y5918
X14514Y6158
X15234Y6238
X17554Y5918
X18194Y5998
X20194Y5838
X21154Y5918
X20834Y6398
Y6958
X17874Y6798
X15074Y7118
X15234Y7838
X17874Y7758
X11954Y7038
X6434Y5918
X5474Y5438
X9554Y4158
X29874Y9598
X26754Y9758
X20472Y10812
X17874Y11678
X49794Y4398
X48434Y4238
X47874Y4078
X45714Y3438
X45154Y3598
X44434Y3758
X49474Y2958
X53074Y3758
X55234Y3598
X56594Y3438
X57154Y3278
X56034Y3038
X60754Y3598
X61394Y4078
X60754Y4398
X59954Y4238
X62994Y4558
X63714Y4718
X65954Y4878
X66674Y5038
X70514Y5518
X71154Y5918
X73394
X74194Y5838
X76194Y5918
X76914Y5838
X78994
X79874Y6158
X79394Y6478
X77034
X76674Y6958
X73994Y6518
X73714Y6838
X71074Y6678
X70514Y7118
X67714Y6678
X67354Y6918
X65074Y6558
X64354Y6878
X62194Y6558
X62274Y5918
X61474
X59154Y6238
X58754Y5598
X56194Y5358
X54114Y4878
X52114Y4718
X51154Y4558
X50434Y4078
X64354Y5918
X67234Y5838
X68114Y5998
X65074Y7438
X64434Y8158
X64834Y8718
X67634Y8798
X67794Y9438
X70474Y9198
X71114Y9038
X73714
X74674Y9478
X75154
X76274Y9398
X76754
X77234
X79434Y8798
X80034Y9118
X82154Y9318
X83514Y9798
X85034Y9838
X86244Y9828
X86194Y10398
X86914Y10698
X87214Y11038
X85914Y10998
X84744Y10958
X84034Y11438
X83274Y11758
X82434Y11638
X81834Y11878
X81274Y11718
X80714Y11598
X79434Y11638
X78954
X78914Y10718
X79314Y10518
X79634Y10798
X81034Y10478
X83074Y11358
X86594Y11998
X88474
X88874Y12158
X90474Y12578
X90794Y13038
X89914Y13598
X90314Y13918
X87994Y13518
X87194Y13598
X85994Y13278
X85594Y13158
X86714Y12878
X87114Y12758
X86194Y12598
X85274Y12678
X83594Y12078
X83354Y12398
X82754
X82714Y12798
X80914Y13238
X80114Y13518
X80194Y13958
X81034
X82954Y13558
X84114Y13758
X84634Y13798
X85074Y13958
X86034Y14038
X84554Y14518
X85074Y14638
X86834Y14678
X87234
X89354Y14438
X91274Y14878
X91714Y14758
X90914Y15278
X90554Y15638
X89754Y16061
X89034Y16198
X88874Y16598
Y17118
X89954
X86234Y16918
X85714Y16878
X86114Y15758
X85674Y15638
X80314Y14958
X78994Y14718
X76594
X71154Y14758
X75714Y13118
X76154
X75634Y12558
X74914Y12318
X72114Y12358
X68274Y11518
X67954Y11198
X67634Y10878
X68474Y10158
X64834Y9598
X61794Y9758
Y8718
Y7758
X67794Y8318
X70674Y8478
X73674Y8558
X73714Y7758
X76674Y8078
X79714Y8398
X82474Y8238
X82514Y7398
X85074Y6638
X85554
Y6198
X85994Y5798
X84994Y5918
X83114Y6238
X82594Y5838
X82194Y5358
X78834Y5038
X77874Y4878
X75554Y4718
X74834Y4558
X73234Y3918
X71954Y4238
X71394Y4078
X72594Y4398
X76434Y3758
X76834Y3518
X80194Y3438
X80834Y3198
X82994Y4238
X83714
X84354
X85074Y4398
X85954Y4558
X86674
X87314
X87714Y4318
X87954Y4718
X88674Y4878
X89274Y4398
X90034Y3998
X90754Y3638
X86874Y3398
X92034Y4518
X93074Y4398
X92434Y4838
X91754Y5198
X90754Y5038
X91274Y5678
X91874Y6078
X91114Y6318
X94034Y6798
X91834Y6958
X91434Y7158
X87994Y7118
X91434Y8038
X91834Y8158
X91514Y8478
X89954Y8758
X88414Y8978
X87994Y8898
X86354Y9078
X85834Y9158
X85394Y9318
X85834Y8678
X85074Y8518
X88514Y8318
X90314Y9318
X90744Y9558
X92594Y10078
X92194Y10278
X91794Y10638
X93434Y10278
X92994Y9838
X92034Y11798
X91434Y12298
X83034Y13958
X80554Y12878
X72794Y10478
X72114Y9838
X60034Y12478
X58994Y12078
X76114Y16598
X80354Y17038
X72594Y19198
X80594Y19438
X85554Y19598
X85874Y19958
X91034Y20318
X88674Y5918
X88114Y5838
X68514Y3118
X67954Y3438
X65394Y3278
X64834Y3678
X86672Y64735
X85152Y64575
X84352Y64415
X83632Y64255
X82512Y64495
X81472Y64095
X80752Y64575
X80192Y64735
X78992Y63935
X78432Y63775
X77712Y63615
X73952Y63295
X73072Y62735
X71072Y62815
X70272
X70832Y62415
X73552Y61855
X70592Y61455
X67712Y61535
X65072
X62272Y61295
X61552
X61952Y61935
X59072
X58432Y62655
X59232Y62735
X61312
X62112Y63295
X64352Y62655
X65392Y62815
X67472Y62735
X68112Y62815
X66592Y63775
X67312Y63935
X65792Y63615
X68272Y64735
X68912Y64575
X69632Y64095
X71792Y64255
X72432Y64415
X75472Y65215
X76112Y65055
X76592Y64895
X70832Y65535
X64512Y64895
X63792Y65055
X62992Y65375
X60832Y64415
X59712Y64255
X58752Y64575
X56832Y64735
X57712Y64095
X55552Y63935
X54832Y63775
X54112Y63615
X50432Y63295
X49872Y62495
X47552Y62815
X46832Y62735
X44752Y62815
X44112Y62735
X41872Y62575
X41392Y62015
X41472Y61615
X44432Y61935
X47152Y61455
X49952Y61855
X52992Y62415
X53552Y62815
X55632Y62655
X56272Y62815
Y61935
X53072Y61615
X55872Y60655
X58832Y60895
Y59935
X55872
X53312Y59775
X53072Y60255
X50232Y59895
X47312Y59855
X44672Y59695
X44512Y60415
X47152Y60655
X41712Y59775
X41472Y60255
X38672Y59855
X41152Y59215
X44032Y59055
X47312Y58895
X50232Y58615
X52672Y59135
X55392Y59055
X58832Y58895
X62032Y59855
X64272Y59215
X64992Y59615
X64752Y60255
X67712Y59935
Y60735
X70592
X70672Y59855
X73712
X76192Y59215
X76912Y59615
X76592Y60175
X79552Y59935
X82592Y59855
X79792Y59055
X82592Y58895
X88432Y59855
X91392Y60095
X94272Y60575
Y61535
X91312Y61935
X88432Y61695
X85712Y62415
X85072Y62735
X82912Y62495
X82192Y62415
X79872Y62735
X79232Y62655
X77232Y62815
X76272Y62735
X76592Y62255
Y61695
X79552Y61855
X82352Y61535
X82192Y60815
X79552Y60895
X85472Y61615
X90992Y62735
X91952Y63215
X87872Y64495
X67552Y59055
X70672Y58895
X76954Y57841
X79552Y56975
X47632Y64255
X48992Y64415
X49552Y64575
X51712Y65215
X52272Y65055
X52992Y64895
X47952Y65695
X44352Y64895
X42192Y65055
X40832Y65215
X40272Y65375
X41392Y65615
X36672Y65055
X36032Y64575
X36672Y64255
X37472Y64415
X34432Y64095
X33712Y63935
X31472Y63775
X30752Y63615
X26912Y63135
X26272Y62735
X24032
X23232Y62815
X21232Y62735
X20512Y62815
X18432
X17552Y62495
X18032Y62175
X20392
X20752Y61695
X23432Y62135
X23712Y61815
X26352Y61975
X26912Y61535
X29712Y61975
X30072Y61735
X32352Y62095
X33072Y61775
X35232Y62095
X35152Y62735
X35952
X38272Y62415
X38672Y63055
X41232Y63295
X43312Y63775
X45312Y63935
X46272Y64095
X46992Y64575
X33072Y62735
X30192Y62815
X29312Y62655
X32352Y61215
X32992Y60495
X32592Y59935
X29792Y59855
X29632Y59215
X26952Y59455
X26312Y59615
X23712
X22752Y59175
X22272
X21152Y59255
X20672
X20192
X17992Y59855
X17392Y59535
X15272Y59335
X13912Y58855
X12392Y58815
X11182Y58825
X11232Y58255
X10512Y57955
X10212Y57615
X11512Y57655
X12682Y57695
X13392Y57215
X14152Y56895
X14992Y57015
X15592Y56775
X16152Y56935
X16712Y57055
X17992Y57015
X18472
X18512Y57935
X18112Y58135
X17792Y57855
X16392Y58175
X14352Y57295
X10832Y56655
X8952
X8552Y56495
X6952Y56075
X6632Y55615
X7512Y55055
X7112Y54735
X9432Y55135
X10232Y55055
X11432Y55375
X11832Y55495
X10712Y55775
X10312Y55895
X11232Y56055
X12152Y55975
X13832Y56575
X14072Y56255
X14672
X14712Y55855
X16512Y55415
X17312Y55135
X17232Y54695
X16392
X14472Y55095
X13312Y54895
X12792Y54855
X12352Y54695
X11392Y54615
X12872Y54135
X12352Y54015
X10592Y53975
X10192
X8072Y54215
X6152Y53775
X5712Y53895
X6512Y53375
X6872Y53015
X7672Y52592
X8392Y52455
X8552Y52055
Y51535
X7472
X11192Y51735
X11712Y51775
X11312Y52895
X11752Y53015
X17112Y53695
X18432Y53935
X20832
X26272Y53895
X21712Y55535
X21272
X21792Y56095
X22512Y56335
X25312Y56295
X29152Y57135
X29472Y57455
X29792Y57775
X28952Y58495
X32592Y59055
X35632Y58895
Y59935
Y60895
X29632Y60335
X26752Y60175
X23752Y60095
X23712Y60895
X20752Y60575
X17712Y60255
X14952Y60415
X14912Y61255
X12352Y62015
X11872
Y62455
X11432Y62855
X12432Y62735
X14312Y62415
X14832Y62815
X15232Y63295
X18592Y63615
X19552Y63775
X21872Y63935
X22592Y64095
X24192Y64735
X25472Y64415
X26032Y64575
X24832Y64255
X20992Y64895
X20592Y65135
X17232Y65215
X16592Y65455
X14432Y64415
X13712
X13072
X12352Y64255
X11472Y64095
X10752
X10112
X9712Y64335
X9472Y63935
X8752Y63775
X8152Y64255
X7392Y64655
X6672Y65015
X10552Y65255
X5392Y64135
X4352Y64255
X4992Y63815
X5672Y63455
X6672Y63615
X6152Y62975
X5552Y62575
X6312Y62335
X3392Y61855
X5592Y61695
X5992Y61495
X9432Y61535
X5992Y60615
X5592Y60495
X5912Y60175
X7472Y59895
X9012Y59675
X9432Y59755
X11072Y59575
X11592Y59495
X12032Y59335
X11592Y59975
X12352Y60135
X8912Y60335
X7112Y59335
X6682Y59095
X4832Y58575
X5232Y58375
X5632Y58015
X3992Y58375
X4432Y58815
X5392Y56855
X5992Y56355
X14392Y54695
X16872Y55775
X24632Y58175
X25312Y58815
X37392Y56175
X38432Y56575
X21312Y52055
X17072Y51615
X24832Y49455
X16832Y49215
X11872Y49055
X11552Y48695
X6392Y48335
X8752Y62735
X9312Y62815
X28912Y65535
X29472Y65215
X32032Y65375
X32592Y64975
X10827Y37361
X12347Y37521
X13147Y37681
X13867Y37841
X14987Y37601
X16027Y38001
X16747Y37521
X17307Y37361
X18507Y38161
X19067Y38321
X19787Y38481
X23547Y38801
X24427Y39361
X26427Y39281
X27227
X26667Y39681
X23947Y40241
X26907Y40641
X29787Y40561
X32427
X35227Y40801
X35947
X35547Y40161
X38427
X39067Y39441
X38267Y39361
X36187
X35387Y38801
X33147Y39441
X32107Y39281
X30027Y39361
X29387Y39281
X30907Y38321
X30187Y38161
X31707Y38481
X29227Y37361
X28587Y37521
X27867Y38001
X25707Y37841
X25067Y37681
X22027Y36881
X21387Y37041
X20907Y37201
X26667Y36561
X32987Y37201
X33707Y37041
X34507Y36721
X36667Y37681
X37787Y37841
X38747Y37521
X40667Y37361
X39787Y38001
X41947Y38161
X42667Y38321
X43387Y38481
X47067Y38801
X47627Y39601
X49947Y39281
X50667Y39361
X52747Y39281
X53387Y39361
X55627Y39521
X56107Y40081
X56027Y40481
X53067Y40161
X50347Y40641
X47547Y40241
X44507Y39681
X43947Y39281
X41867Y39441
X41227Y39281
Y40161
X44427Y40481
X41627Y41441
X38667Y41201
Y42161
X41627
X44187Y42321
X44427Y41841
X47267Y42201
X50187Y42241
X52827Y42401
X52987Y41681
X50347Y41441
X55787Y42321
X56027Y41841
X58827Y42241
X56347Y42881
X53467Y43041
X50187Y43201
X47267Y43481
X44827Y42961
X42107Y43041
X38667Y43201
X35467Y42241
X33227Y42881
X32507Y42481
X32747Y41841
X29787Y42161
Y41361
X26907
X26827Y42241
X23787
X21307Y42881
X20587Y42481
X20907Y41921
X17947Y42161
X14907Y42241
X17707Y43041
X14907Y43201
X9067Y42241
X6107Y42001
X3227Y41521
Y40561
X6187Y40161
X9067Y40401
X11787Y39681
X12427Y39361
X14587Y39601
X15307Y39681
X17627Y39361
X18267Y39441
X20267Y39281
X21227Y39361
X20907Y39841
Y40401
X17947Y40241
X15147Y40561
X15307Y41281
X17947Y41201
X12027Y40481
X6507Y39361
X5547Y38881
X9627Y37601
X29947Y43041
X26827Y43201
X20545Y44255
X17947Y45121
X49867Y37841
X48507Y37681
X47947Y37521
X45787Y36881
X45227Y37041
X44507Y37201
X49547Y36401
X53147Y37201
X55307Y37041
X56667Y36881
X57227Y36721
X56107Y36481
X60827Y37041
X61467Y37521
X60827Y37841
X60027Y37681
X63067Y38001
X63787Y38161
X66027Y38321
X66747Y38481
X70587Y38961
X71227Y39361
X73467
X74267Y39281
X76267Y39361
X76987Y39281
X79067
X79947Y39601
X79467Y39921
X77107
X76747Y40401
X74067Y39961
X73787Y40281
X71147Y40121
X70587Y40561
X67787Y40121
X67427Y40361
X65147Y40001
X64427Y40321
X62267Y40001
X62347Y39361
X61547
X59227Y39681
X58827Y39041
X56267Y38801
X54187Y38321
X52187Y38161
X51227Y38001
X50507Y37521
X64427Y39361
X67307Y39281
X68187Y39441
X65147Y40881
X64507Y41601
X64907Y42161
X67707Y42241
X67867Y42881
X70547Y42641
X71187Y42481
X73787
X74747Y42921
X75227
X76347Y42841
X76827
X77307
X79507Y42241
X80107Y42561
X82227Y42761
X83587Y43241
X85107Y43281
X86317Y43271
X86267Y43841
X86987Y44141
X87287Y44481
X85987Y44441
X84817Y44401
X84107Y44881
X83347Y45201
X82507Y45081
X81907Y45321
X81347Y45161
X80787Y45041
X79507Y45081
X79027
X78987Y44161
X79387Y43961
X79707Y44241
X81107Y43921
X83147Y44801
X86667Y45441
X88547
X88947Y45601
X90547Y46021
X90867Y46481
X89987Y47041
X90387Y47361
X88067Y46961
X87267Y47041
X86067Y46721
X85667Y46601
X86787Y46321
X87187Y46201
X86267Y46041
X85347Y46121
X83667Y45521
X83427Y45841
X82827
X82787Y46241
X80987Y46681
X80187Y46961
X80267Y47401
X81107
X83027Y47001
X84187Y47201
X84707Y47241
X85147Y47401
X86107Y47481
X84627Y47961
X85147Y48081
X86907Y48121
X87307
X89427Y47881
X91347Y48321
X91787Y48201
X90987Y48721
X90627Y49081
X89827Y49504
X89107Y49641
X88947Y50041
Y50561
X90027
X86307Y50361
X85787Y50321
X86187Y49201
X85747Y49081
X80387Y48401
X79067Y48161
X76667
X71227Y48201
X75787Y46561
X76227
X75707Y46001
X74987Y45761
X72187Y45801
X68347Y44961
X68027Y44641
X67707Y44321
X68547Y43601
X64907Y43041
X61867Y43201
Y42161
Y41201
X67867Y41761
X70747Y41921
X73747Y42001
X73787Y41201
X76747Y41521
X79787Y41841
X82547Y41681
X82587Y40841
X85147Y40081
X85627
Y39641
X86067Y39241
X85067Y39361
X83187Y39681
X82667Y39281
X82267Y38801
X78907Y38481
X77947Y38321
X75627Y38161
X74907Y38001
X73307Y37361
X72027Y37681
X71467Y37521
X72667Y37841
X76507Y37201
X76907Y36961
X80267Y36881
X80907Y36641
X83067Y37681
X83787
X84427
X85147Y37841
X86027Y38001
X86747
X87387
X87787Y37761
X88027Y38161
X88747Y38321
X89347Y37841
X90107Y37441
X90827Y37081
X86947Y36841
X92107Y37961
X93147Y37841
X92507Y38281
X91827Y38641
X90827Y38481
X91347Y39121
X91947Y39521
X91187Y39761
X94107Y40241
X91907Y40401
X91507Y40601
X88067Y40561
X91507Y41481
X91907Y41601
X91587Y41921
X90027Y42201
X88487Y42421
X88067Y42341
X86427Y42521
X85907Y42601
X85467Y42761
X85907Y42121
X85147Y41961
X88587Y41761
X90387Y42761
X90817Y43001
X92667Y43521
X92267Y43721
X91867Y44081
X93507Y43721
X93067Y43281
X92107Y45241
X91507Y45741
X83107Y47401
X80627Y46321
X72867Y43921
X72187Y43281
X60107Y45921
X59067Y45521
X76187Y50041
X80427Y50481
X72667Y52641
X80667Y52881
X85627Y53041
X85947Y53401
X91107Y53761
X88747Y39361
X88187Y39281
X68587Y36561
X68027Y36881
X65467Y36721
X64907Y37121
T02
X11159Y20372
X12039Y19932
X86194Y14838
X85314Y15278
X11232Y53815
X12112Y53375
X86267Y48281
X85387Y48721
T03
X3879Y23292
X93474Y11918
X3952Y56735
X93547Y45361
T04
X10739Y16072
X86614Y19138
X10812Y49515
X86687Y52581
T05
X14519Y16572
X16199Y18412
X14519Y18912
X18519Y19012
X12279Y22092
X13279Y26972
X16239
X19199
X22159
X25119
X28079
X31039
X33999
X36959
X39919
X42879
X45759
X48639
X51519
X54399
X57279
X60239
X63199
X66159
X69119
X72079
X75039
X77999
X80959
X83919
X86879
X89839
X92799
X95759
X10319
X7359
X4399
X82834Y18638
X81154Y16798
X82834Y16298
X78834Y16198
X85074Y13118
X84074Y8238
X81114
X78154
X75194
X72234
X69274
X66314
X63354
X60394
X57434
X54474
X51594
X48714
X45834
X42954
X40074
X37114
X34154
X31194
X28234
X25274
X22314
X19354
X16394
X13434
X10474
X7514
X4554
X1594
X87034
X89994
X92954
X14592Y50015
X16272Y51855
X14592Y52355
X18592Y52455
X12352Y55535
X13352Y60415
X16312
X19272
X22232
X25192
X28152
X31112
X34072
X37032
X39992
X42952
X45832
X48712
X51592
X54472
X57352
X60312
X63272
X66232
X69192
X72152
X75112
X78072
X81032
X83992
X86952
X89912
X92872
X95832
X10392
X7432
X4472
X82907Y52081
X81227Y50241
X82907Y49741
X78907Y49641
X85147Y46561
X84147Y41681
X81187
X78227
X75267
X72307
X69347
X66387
X63427
X60467
X57507
X54547
X51667
X48787
X45907
X43027
X40147
X37187
X34227
X31267
X28307
X25347
X22387
X19427
X16467
X13507
X10547
X7587
X4627
X1667
X87107
X90067
X93027
T06
X4919Y17972
X92434Y17238
X4992Y51415
X92507Y50681
T07
X12081Y14272
X14877
X85272Y20938
X82476
X12154Y47715
X14950
X85345Y54381
X82549
T08
X12919Y16332
X84434Y18878
X12992Y49775
X84507Y52321
T09
X7879Y14112
X8879Y14012
X6879
X5879Y14112
X4879Y14012
X4189Y19692
X4289Y20692
X4189Y21692
X4289Y22692
X89474Y21098
X88474Y21198
X90474
X91474Y21098
X92474Y21198
X93164Y15518
X93064Y14518
X93164Y13518
X93064Y12518
X7952Y47555
X8952Y47455
X6952
X5952Y47555
X4952Y47455
X4262Y53135
X4362Y54135
X4262Y55135
X4362Y56135
X89547Y54541
X88547Y54641
X90547
X91547Y54541
X92547Y54641
X93237Y48961
X93137Y47961
X93237Y46961
X93137Y45961
T10
X31919Y23652
X32919
X15879Y15652
X65434Y11558
X64434
X81474Y19558
X31992Y57095
X32992
X15952Y49095
X65507Y45001
X64507
X81547Y53001
T11
X20059Y17512
X23059
X9259
X6259
Y24012
X9259
X20059
X23059
X77294Y17698
X74294
X88094
X91094
Y11198
X88094
X77294
X74294
X20132Y50955
X23132
X9332
X6332
Y57455
X9332
X20132
X23132
X77367Y51141
X74367
X88167
X91167
Y44641
X88167
X77367
X74367
T12
X34229Y15762
X63124Y19448
X34302Y49205
X63197Y52891
T13
X94779Y32352
X94479Y25532
X2859Y15832
X2279Y29652
X2574Y2858
X2874Y9678
X94494Y19378
X95074Y5558
X94852Y65795
X94552Y58975
X2932Y49275
X2352Y63095
X2647Y36301
X2947Y43121
X94567Y52821
X95147Y39001
M30
