G04 CAM350 V10.1.0 (Build 363) Date:  Sun Jan 09 00:50:29 2011 *
G04 Database: c:\projects\anibike project\hardware\anibike v2.7 bt\eagledir\anibike v2.7 bt\manufacturing\panelized_rev1.4.cam *
G04 Layer 7: AniBike_v2.7_BT_MainBoard.GDM *
G04 Composite: BORDER *
%FSLAX24Y24*%
%MOIN*%
%SFA1.000B1.000*%

%MIA0B0*%
%IPPOS*%
%ADD37C,0.02000*%
%ADD86C,0.00000*%
%LNAniBike_v2.7_BT_MainBoard.GDM*%
%LPD*%
G54D37*
X2665Y1981D02*
G01X3465D01*
X385Y3981D02*
G01Y10741D01*
X391Y10837*
X402Y10933*
X418Y11028*
X438Y11122*
X463Y11215*
X492Y11307*
X526Y11397*
X564Y11485*
X607Y11572*
X654Y11656*
X705Y11737*
X759Y11817*
X818Y11893*
X880Y11966*
X946Y12037*
X1015Y12104*
X1088Y12167*
X1163Y12227*
X1241Y12283*
X1322Y12335*
X1406Y12384*
X1491Y12428*
X1579Y12467*
X1669Y12503*
X1760Y12534*
X1852Y12560*
X1946Y12582*
X2041Y12599*
X2136Y12612*
X2232Y12620*
X2329Y12623*
X2425Y12621*
X54505*
X60785Y18621D02*
G01X60797Y18824D01*
X60819Y19026*
X60851Y19227*
X60892Y19426*
X60943Y19623*
X61004Y19817*
X61075Y20007*
X61154Y20195*
X61243Y20377*
X61340Y20556*
X61446Y20729*
X61561Y20897*
X61683Y21059*
X61814Y21215*
X61952Y21365*
X62097Y21507*
X62249Y21642*
X62407Y21770*
X62571Y21889*
X62742Y22001*
X62917Y22104*
X63097Y22198*
X63282Y22283*
X63470Y22359*
X63662Y22426*
X63857Y22483*
X64055Y22531*
X64255Y22568*
X64456Y22596*
X64659Y22614*
X64862Y22623*
X65065Y22621*
X94185*
X94186D02*
G01X94304Y22618D01*
X94422Y22609*
X94539Y22595*
X94656Y22575*
X94771Y22549*
X94885Y22518*
X94997Y22481*
X95108Y22439*
X95216Y22391*
X95322Y22338*
X95425Y22280*
X95525Y22217*
X95622Y22149*
X95715Y22077*
X95805Y22000*
X95891Y21919*
X95973Y21833*
X96051Y21744*
X96124Y21651*
X96192Y21555*
X96256Y21455*
X96315Y21353*
X96369Y21248*
X96417Y21140*
X96460Y21030*
X96498Y20918*
X96530Y20804*
X96557Y20689*
X96578Y20572*
X96594Y20455*
X96603Y20337*
X96607Y20219*
X96605Y20101*
X96597Y19983*
X96584Y19865*
X96565Y19749*
X96540Y19633*
X96509Y19519*
X96473Y19406*
X96432Y19296*
X96385Y19187*
X96333Y19081*
X96276Y18977*
X96213Y18877*
X96146Y18779*
X96075Y18685*
X95998Y18595*
X95918Y18508*
X95833Y18426*
X95745Y18348*
X95652Y18274*
X95557Y18204*
X95458Y18140*
X95355Y18080*
X95251Y18026*
X95143Y17976*
X95033Y17932*
X94922Y17893*
X94808Y17860*
X94693Y17833*
X94577Y17811*
X94460Y17795*
X94342Y17784*
X94224Y17779*
X94106Y17780*
X94105Y17781D02*
G01Y9301D01*
Y9302D02*
G01X94226Y9301D01*
X94347Y9293*
X94467Y9280*
X94587Y9262*
X94705Y9237*
X94822Y9206*
X94938Y9170*
X95052Y9129*
X95163Y9081*
X95272Y9029*
X95378Y8971*
X95482Y8908*
X95582Y8840*
X95679Y8768*
X95772Y8690*
X95861Y8608*
X95947Y8522*
X96027Y8432*
X96104Y8338*
X96176Y8241*
X96242Y8140*
X96304Y8036*
X96361Y7929*
X96413Y7819*
X96459Y7707*
X96499Y7593*
X96534Y7477*
X96563Y7360*
X96587Y7241*
X96605Y7121*
X96616Y7001*
X96622Y6880*
Y6759*
X96616Y6638*
X96605Y6518*
X96587Y6398*
X96564Y6279*
X96534Y6161*
X96499Y6046*
X96459Y5931*
X96413Y5819*
X96362Y5710*
X96305Y5603*
X96243Y5499*
X96176Y5398*
X96104Y5300*
X96028Y5206*
X95947Y5116*
X95862Y5030*
X95773Y4948*
X95680Y4871*
X95583Y4798*
X95483Y4730*
X95379Y4667*
X95273Y4610*
X95164Y4557*
X95052Y4510*
X94939Y4468*
X94823Y4432*
X94706Y4401*
X94588Y4377*
X94468Y4358*
X94348Y4345*
X94227Y4338*
X94106Y4336*
X93985Y4341*
X5655Y4316*
X5656D02*
G01X5657Y4205D01*
X5652Y4094*
X5642Y3984*
X5627Y3874*
X5606Y3764*
X5579Y3657*
X5548Y3550*
X5511Y3445*
X5470Y3342*
X5423Y3241*
X5371Y3143*
X5315Y3047*
X5254Y2954*
X5188Y2865*
X5118Y2778*
X5044Y2695*
X4966Y2616*
X4885Y2541*
X4799Y2470*
X4710Y2403*
X4619Y2340*
X4524Y2283*
X4426Y2229*
X4326Y2181*
X4224Y2138*
X4119Y2100*
X4013Y2067*
X3906Y2039*
X3797Y2016*
X3687Y1999*
X3576Y1987*
X3466Y1981*
X2665D02*
G01X2563Y1976D01*
X2461Y1977*
X2359Y1982*
X2257Y1993*
X2156Y2008*
X2056Y2028*
X1957Y2052*
X1860Y2082*
X1763Y2116*
X1669Y2154*
X1576Y2197*
X1486Y2245*
X1398Y2296*
X1312Y2352*
X1229Y2412*
X1149Y2475*
X1073Y2543*
X999Y2613*
X929Y2688*
X863Y2765*
X800Y2846*
X741Y2930*
X687Y3016*
X636Y3104*
X590Y3196*
X548Y3289*
X511Y3384*
X478Y3480*
X450Y3578*
X426Y3678*
X408Y3778*
X394Y3879*
X385Y3981*
X54505Y12621D02*
G01X54806D01*
X55108Y12636*
X55408Y12667*
X55706Y12711*
X56001Y12771*
X56294Y12844*
X56582Y12932*
X56865Y13034*
X57144Y13150*
X57416Y13280*
X57682Y13422*
X57940Y13578*
X58190Y13746*
X58432Y13926*
X58665Y14117*
X58888Y14320*
X59101Y14534*
X59303Y14757*
X59494Y14991*
X59673Y15233*
X59840Y15484*
X59994Y15743*
X60136Y16009*
X60264Y16282*
X60379Y16561*
X60480Y16845*
X60567Y17133*
X60640Y17426*
X60698Y17721*
X60742Y18020*
X60771Y18320*
X60785Y18621*
G54D86*
X62185Y19351D02*
G01X62187Y19405D01*
X62193Y19459*
X62203Y19512*
X62216Y19565*
X62233Y19616*
X62254Y19666*
X62279Y19714*
X62307Y19761*
X62338Y19805*
X62372Y19847*
X62409Y19886*
X62449Y19923*
X62492Y19956*
X62537Y19987*
X62584Y20014*
X62632Y20037*
X62683Y20057*
X62734Y20074*
X62787Y20086*
X62840Y20095*
X62894Y20100*
X62949Y20101*
X63003Y20098*
X63056Y20091*
X63109Y20080*
X63162Y20066*
X63213Y20048*
X63262Y20026*
X63310Y20001*
X63356Y19972*
X63400Y19940*
X63441Y19905*
X63479Y19867*
X63515Y19826*
X63548Y19783*
X63578Y19738*
X63604Y19690*
X63627Y19641*
X63646Y19590*
X63661Y19539*
X63673Y19486*
X63681Y19432*
X63685Y19378*
Y19324*
X63681Y19270*
X63673Y19216*
X63661Y19163*
X63646Y19112*
X63627Y19061*
X63604Y19012*
X63578Y18964*
X63548Y18919*
X63515Y18876*
X63479Y18835*
X63441Y18797*
X63400Y18762*
X63356Y18730*
X63310Y18701*
X63262Y18676*
X63213Y18654*
X63162Y18636*
X63109Y18622*
X63056Y18611*
X63003Y18604*
X62949Y18601*
X62894Y18602*
X62840Y18607*
X62787Y18616*
X62734Y18628*
X62683Y18645*
X62632Y18665*
X62584Y18688*
X62537Y18715*
X62492Y18746*
X62449Y18779*
X62409Y18816*
X62372Y18855*
X62338Y18897*
X62307Y18941*
X62279Y18988*
X62254Y19036*
X62233Y19086*
X62216Y19137*
X62203Y19190*
X62193Y19243*
X62187Y19297*
X62185Y19351*
X83951Y21161D02*
G01X83953Y21187D01*
X83959Y21213*
X83969Y21238*
X83982Y21261*
X83998Y21281*
X84018Y21299*
X84040Y21314*
X84063Y21326*
X84089Y21334*
X84115Y21338*
X84141*
X84167Y21334*
X84193Y21326*
X84217Y21314*
X84238Y21299*
X84258Y21281*
X84274Y21261*
X84287Y21238*
X84297Y21213*
X84303Y21187*
X84305Y21161*
X84303Y21135*
X84297Y21109*
X84287Y21084*
X84274Y21061*
X84258Y21041*
X84238Y21023*
X84216Y21008*
X84193Y20996*
X84167Y20988*
X84141Y20984*
X84115*
X84089Y20988*
X84063Y20996*
X84039Y21008*
X84018Y21023*
X83998Y21041*
X83982Y21061*
X83969Y21084*
X83959Y21109*
X83953Y21135*
X83951Y21161*
X86746D02*
G01X86748Y21187D01*
X86754Y21213*
X86764Y21238*
X86777Y21261*
X86793Y21281*
X86813Y21299*
X86835Y21314*
X86858Y21326*
X86884Y21334*
X86910Y21338*
X86936*
X86962Y21334*
X86988Y21326*
X87012Y21314*
X87033Y21299*
X87053Y21281*
X87069Y21261*
X87082Y21238*
X87092Y21213*
X87098Y21187*
X87100Y21161*
X87098Y21135*
X87092Y21109*
X87082Y21084*
X87069Y21061*
X87053Y21041*
X87033Y21023*
X87011Y21008*
X86988Y20996*
X86962Y20988*
X86936Y20984*
X86910*
X86884Y20988*
X86858Y20996*
X86834Y21008*
X86813Y21023*
X86793Y21041*
X86777Y21061*
X86764Y21084*
X86754Y21109*
X86748Y21135*
X86746Y21161*
X92915Y20161D02*
G01X92917Y20231D01*
X92923Y20301*
X92933Y20370*
X92946Y20439*
X92964Y20507*
X92985Y20574*
X93010Y20639*
X93039Y20703*
X93071Y20766*
X93107Y20826*
X93146Y20884*
X93188Y20940*
X93233Y20994*
X93281Y21045*
X93332Y21093*
X93386Y21138*
X93442Y21180*
X93500Y21219*
X93560Y21255*
X93623Y21287*
X93687Y21316*
X93752Y21341*
X93819Y21362*
X93887Y21380*
X93956Y21393*
X94025Y21403*
X94095Y21409*
X94165Y21411*
X94235Y21409*
X94305Y21403*
X94374Y21393*
X94443Y21380*
X94511Y21362*
X94578Y21341*
X94643Y21316*
X94707Y21287*
X94770Y21255*
X94830Y21219*
X94888Y21180*
X94944Y21138*
X94998Y21093*
X95049Y21045*
X95097Y20994*
X95142Y20940*
X95184Y20884*
X95223Y20826*
X95259Y20766*
X95291Y20703*
X95320Y20639*
X95345Y20574*
X95366Y20507*
X95384Y20439*
X95397Y20370*
X95407Y20301*
X95413Y20231*
X95415Y20161*
X95413Y20091*
X95407Y20021*
X95397Y19952*
X95384Y19883*
X95366Y19815*
X95345Y19748*
X95320Y19683*
X95291Y19619*
X95259Y19556*
X95223Y19496*
X95184Y19438*
X95142Y19382*
X95097Y19328*
X95049Y19277*
X94998Y19229*
X94944Y19184*
X94888Y19142*
X94830Y19103*
X94770Y19067*
X94707Y19035*
X94643Y19006*
X94578Y18981*
X94511Y18960*
X94443Y18942*
X94374Y18929*
X94305Y18919*
X94235Y18913*
X94165Y18911*
X94095Y18913*
X94025Y18919*
X93956Y18929*
X93887Y18942*
X93819Y18960*
X93752Y18981*
X93687Y19006*
X93623Y19035*
X93560Y19067*
X93500Y19103*
X93442Y19142*
X93386Y19184*
X93332Y19229*
X93281Y19277*
X93233Y19328*
X93188Y19382*
X93146Y19438*
X93107Y19496*
X93071Y19556*
X93039Y19619*
X93010Y19683*
X92985Y19748*
X92964Y19815*
X92946Y19883*
X92933Y19952*
X92923Y20021*
X92917Y20091*
X92915Y20161*
X92855Y6861D02*
G01X92857Y6931D01*
X92863Y7001*
X92873Y7070*
X92886Y7139*
X92904Y7207*
X92925Y7274*
X92950Y7339*
X92979Y7403*
X93011Y7466*
X93047Y7526*
X93086Y7584*
X93128Y7640*
X93173Y7694*
X93221Y7745*
X93272Y7793*
X93326Y7838*
X93382Y7880*
X93440Y7919*
X93500Y7955*
X93563Y7987*
X93627Y8016*
X93692Y8041*
X93759Y8062*
X93827Y8080*
X93896Y8093*
X93965Y8103*
X94035Y8109*
X94105Y8111*
X94175Y8109*
X94245Y8103*
X94314Y8093*
X94383Y8080*
X94451Y8062*
X94518Y8041*
X94583Y8016*
X94647Y7987*
X94710Y7955*
X94770Y7919*
X94828Y7880*
X94884Y7838*
X94938Y7793*
X94989Y7745*
X95037Y7694*
X95082Y7640*
X95124Y7584*
X95163Y7526*
X95199Y7466*
X95231Y7403*
X95260Y7339*
X95285Y7274*
X95306Y7207*
X95324Y7139*
X95337Y7070*
X95347Y7001*
X95353Y6931*
X95355Y6861*
X95353Y6791*
X95347Y6721*
X95337Y6652*
X95324Y6583*
X95306Y6515*
X95285Y6448*
X95260Y6383*
X95231Y6319*
X95199Y6256*
X95163Y6196*
X95124Y6138*
X95082Y6082*
X95037Y6028*
X94989Y5977*
X94938Y5929*
X94884Y5884*
X94828Y5842*
X94770Y5803*
X94710Y5767*
X94647Y5735*
X94583Y5706*
X94518Y5681*
X94451Y5660*
X94383Y5642*
X94314Y5629*
X94245Y5619*
X94175Y5613*
X94105Y5611*
X94035Y5613*
X93965Y5619*
X93896Y5629*
X93827Y5642*
X93759Y5660*
X93692Y5681*
X93627Y5706*
X93563Y5735*
X93500Y5767*
X93440Y5803*
X93382Y5842*
X93326Y5884*
X93272Y5929*
X93221Y5977*
X93173Y6028*
X93128Y6082*
X93086Y6138*
X93047Y6196*
X93011Y6256*
X92979Y6319*
X92950Y6383*
X92925Y6448*
X92904Y6515*
X92886Y6583*
X92873Y6652*
X92863Y6721*
X92857Y6791*
X92855Y6861*
X1895Y9821D02*
G01X1897Y9891D01*
X1903Y9961*
X1913Y10030*
X1926Y10099*
X1944Y10167*
X1965Y10234*
X1990Y10299*
X2019Y10363*
X2051Y10426*
X2087Y10486*
X2126Y10544*
X2168Y10600*
X2213Y10654*
X2261Y10705*
X2312Y10753*
X2366Y10798*
X2422Y10840*
X2480Y10879*
X2540Y10915*
X2603Y10947*
X2667Y10976*
X2732Y11001*
X2799Y11022*
X2867Y11040*
X2936Y11053*
X3005Y11063*
X3075Y11069*
X3145Y11071*
X3215Y11069*
X3285Y11063*
X3354Y11053*
X3423Y11040*
X3491Y11022*
X3558Y11001*
X3623Y10976*
X3687Y10947*
X3750Y10915*
X3810Y10879*
X3868Y10840*
X3924Y10798*
X3978Y10753*
X4029Y10705*
X4077Y10654*
X4122Y10600*
X4164Y10544*
X4203Y10486*
X4239Y10426*
X4271Y10363*
X4300Y10299*
X4325Y10234*
X4346Y10167*
X4364Y10099*
X4377Y10030*
X4387Y9961*
X4393Y9891*
X4395Y9821*
X4393Y9751*
X4387Y9681*
X4377Y9612*
X4364Y9543*
X4346Y9475*
X4325Y9408*
X4300Y9343*
X4271Y9279*
X4239Y9216*
X4203Y9156*
X4164Y9098*
X4122Y9042*
X4077Y8988*
X4029Y8937*
X3978Y8889*
X3924Y8844*
X3868Y8802*
X3810Y8763*
X3750Y8727*
X3687Y8695*
X3623Y8666*
X3558Y8641*
X3491Y8620*
X3423Y8602*
X3354Y8589*
X3285Y8579*
X3215Y8573*
X3145Y8571*
X3075Y8573*
X3005Y8579*
X2936Y8589*
X2867Y8602*
X2799Y8620*
X2732Y8641*
X2667Y8666*
X2603Y8695*
X2540Y8727*
X2480Y8763*
X2422Y8802*
X2366Y8844*
X2312Y8889*
X2261Y8937*
X2213Y8988*
X2168Y9042*
X2126Y9098*
X2087Y9156*
X2051Y9216*
X2019Y9279*
X1990Y9343*
X1965Y9408*
X1944Y9475*
X1926Y9543*
X1913Y9612*
X1903Y9681*
X1897Y9751*
X1895Y9821*
X1775Y4261D02*
G01X1777Y4331D01*
X1783Y4401*
X1793Y4470*
X1806Y4539*
X1824Y4607*
X1845Y4674*
X1870Y4739*
X1899Y4803*
X1931Y4866*
X1967Y4926*
X2006Y4984*
X2048Y5040*
X2093Y5094*
X2141Y5145*
X2192Y5193*
X2246Y5238*
X2302Y5280*
X2360Y5319*
X2420Y5355*
X2483Y5387*
X2547Y5416*
X2612Y5441*
X2679Y5462*
X2747Y5480*
X2816Y5493*
X2885Y5503*
X2955Y5509*
X3025Y5511*
X3095Y5509*
X3165Y5503*
X3234Y5493*
X3303Y5480*
X3371Y5462*
X3438Y5441*
X3503Y5416*
X3567Y5387*
X3630Y5355*
X3690Y5319*
X3748Y5280*
X3804Y5238*
X3858Y5193*
X3909Y5145*
X3957Y5094*
X4002Y5040*
X4044Y4984*
X4083Y4926*
X4119Y4866*
X4151Y4803*
X4180Y4739*
X4205Y4674*
X4226Y4607*
X4244Y4539*
X4257Y4470*
X4267Y4401*
X4273Y4331*
X4275Y4261*
X4273Y4191*
X4267Y4121*
X4257Y4052*
X4244Y3983*
X4226Y3915*
X4205Y3848*
X4180Y3783*
X4151Y3719*
X4119Y3656*
X4083Y3596*
X4044Y3538*
X4002Y3482*
X3957Y3428*
X3909Y3377*
X3858Y3329*
X3804Y3284*
X3748Y3242*
X3690Y3203*
X3630Y3167*
X3567Y3135*
X3503Y3106*
X3438Y3081*
X3371Y3060*
X3303Y3042*
X3234Y3029*
X3165Y3019*
X3095Y3013*
X3025Y3011*
X2955Y3013*
X2885Y3019*
X2816Y3029*
X2747Y3042*
X2679Y3060*
X2612Y3081*
X2547Y3106*
X2483Y3135*
X2420Y3167*
X2360Y3203*
X2302Y3242*
X2246Y3284*
X2192Y3329*
X2141Y3377*
X2093Y3428*
X2048Y3482*
X2006Y3538*
X1967Y3596*
X1931Y3656*
X1899Y3719*
X1870Y3783*
X1845Y3848*
X1824Y3915*
X1806Y3983*
X1793Y4052*
X1783Y4121*
X1777Y4191*
X1775Y4261*
G54D37*
X94102Y34234D02*
G01X93302D01*
X96382Y32234D02*
G01Y25474D01*
X96376Y25378*
X96365Y25282*
X96349Y25187*
X96329Y25093*
X96304Y25000*
X96275Y24908*
X96241Y24818*
X96203Y24730*
X96160Y24643*
X96113Y24559*
X96062Y24478*
X96008Y24398*
X95949Y24322*
X95887Y24249*
X95821Y24178*
X95752Y24111*
X95679Y24048*
X95604Y23988*
X95526Y23932*
X95445Y23880*
X95361Y23831*
X95276Y23787*
X95188Y23748*
X95098Y23712*
X95007Y23681*
X94915Y23655*
X94821Y23633*
X94726Y23616*
X94631Y23603*
X94535Y23595*
X94438Y23592*
X94342Y23594*
X42262*
X35982Y17594D02*
G01X35970Y17391D01*
X35948Y17189*
X35916Y16988*
X35875Y16789*
X35824Y16592*
X35763Y16398*
X35692Y16208*
X35613Y16020*
X35524Y15838*
X35427Y15659*
X35321Y15486*
X35206Y15318*
X35084Y15156*
X34953Y15000*
X34815Y14850*
X34670Y14708*
X34518Y14573*
X34360Y14445*
X34196Y14326*
X34025Y14214*
X33850Y14111*
X33670Y14017*
X33485Y13932*
X33297Y13856*
X33105Y13789*
X32910Y13732*
X32712Y13684*
X32512Y13647*
X32311Y13619*
X32108Y13601*
X31905Y13592*
X31702Y13594*
X2582*
X2581D02*
G01X2463Y13597D01*
X2345Y13606*
X2228Y13620*
X2111Y13640*
X1996Y13666*
X1882Y13697*
X1770Y13734*
X1659Y13776*
X1551Y13824*
X1445Y13877*
X1342Y13935*
X1242Y13998*
X1145Y14066*
X1052Y14138*
X962Y14215*
X876Y14296*
X794Y14382*
X716Y14471*
X643Y14564*
X575Y14660*
X511Y14760*
X452Y14862*
X398Y14967*
X350Y15075*
X307Y15185*
X269Y15297*
X237Y15411*
X210Y15526*
X189Y15643*
X173Y15760*
X164Y15878*
X160Y15996*
X162Y16114*
X170Y16232*
X183Y16350*
X202Y16466*
X227Y16582*
X258Y16696*
X294Y16809*
X335Y16919*
X382Y17028*
X434Y17134*
X491Y17238*
X554Y17338*
X621Y17436*
X692Y17530*
X769Y17620*
X849Y17707*
X934Y17789*
X1022Y17867*
X1115Y17941*
X1210Y18011*
X1309Y18075*
X1412Y18135*
X1516Y18189*
X1624Y18239*
X1734Y18283*
X1845Y18322*
X1959Y18355*
X2074Y18382*
X2190Y18404*
X2307Y18420*
X2425Y18431*
X2543Y18436*
X2661Y18435*
X2662Y18434D02*
G01Y26914D01*
Y26913D02*
G01X2541Y26914D01*
X2420Y26922*
X2300Y26935*
X2180Y26953*
X2062Y26978*
X1945Y27009*
X1829Y27045*
X1715Y27086*
X1604Y27134*
X1495Y27186*
X1389Y27244*
X1285Y27307*
X1185Y27375*
X1088Y27447*
X995Y27525*
X906Y27607*
X820Y27693*
X740Y27783*
X663Y27877*
X591Y27974*
X525Y28075*
X463Y28179*
X406Y28286*
X354Y28396*
X308Y28508*
X268Y28622*
X233Y28738*
X204Y28855*
X180Y28974*
X162Y29094*
X151Y29214*
X145Y29335*
Y29456*
X151Y29577*
X162Y29697*
X180Y29817*
X203Y29936*
X233Y30054*
X268Y30169*
X308Y30284*
X354Y30396*
X405Y30505*
X462Y30612*
X524Y30716*
X591Y30817*
X663Y30915*
X739Y31009*
X820Y31099*
X905Y31185*
X994Y31267*
X1087Y31344*
X1184Y31417*
X1284Y31485*
X1388Y31548*
X1494Y31605*
X1603Y31658*
X1715Y31705*
X1828Y31747*
X1944Y31783*
X2061Y31814*
X2179Y31838*
X2299Y31857*
X2419Y31870*
X2540Y31877*
X2661Y31879*
X2782Y31874*
X91112Y31899*
X91111D02*
G01X91110Y32010D01*
X91115Y32121*
X91125Y32231*
X91140Y32341*
X91161Y32451*
X91188Y32558*
X91219Y32665*
X91256Y32770*
X91297Y32873*
X91344Y32974*
X91396Y33072*
X91452Y33168*
X91513Y33261*
X91579Y33350*
X91649Y33437*
X91723Y33520*
X91801Y33599*
X91882Y33674*
X91968Y33745*
X92057Y33812*
X92148Y33875*
X92243Y33932*
X92341Y33986*
X92441Y34034*
X92543Y34077*
X92648Y34115*
X92754Y34148*
X92861Y34176*
X92970Y34199*
X93080Y34216*
X93191Y34228*
X93301Y34234*
X94102D02*
G01X94204Y34239D01*
X94306Y34238*
X94408Y34233*
X94510Y34222*
X94611Y34207*
X94711Y34187*
X94810Y34163*
X94907Y34133*
X95004Y34099*
X95098Y34061*
X95191Y34018*
X95281Y33970*
X95369Y33919*
X95455Y33863*
X95538Y33803*
X95618Y33740*
X95694Y33672*
X95768Y33602*
X95838Y33527*
X95904Y33450*
X95967Y33369*
X96026Y33285*
X96080Y33199*
X96131Y33111*
X96177Y33019*
X96219Y32926*
X96256Y32831*
X96289Y32735*
X96317Y32637*
X96341Y32537*
X96359Y32437*
X96373Y32336*
X96382Y32234*
X42262Y23594D02*
G01X41961D01*
X41659Y23579*
X41359Y23548*
X41061Y23504*
X40766Y23444*
X40473Y23371*
X40185Y23283*
X39902Y23181*
X39623Y23065*
X39351Y22935*
X39085Y22793*
X38827Y22637*
X38577Y22469*
X38335Y22289*
X38102Y22098*
X37879Y21895*
X37666Y21681*
X37464Y21458*
X37273Y21224*
X37094Y20982*
X36927Y20731*
X36773Y20472*
X36631Y20206*
X36503Y19933*
X36388Y19654*
X36287Y19370*
X36200Y19082*
X36127Y18789*
X36069Y18494*
X36025Y18195*
X35996Y17895*
X35982Y17594*
G54D86*
X34582Y16864D02*
G01X34580Y16810D01*
X34574Y16756*
X34564Y16703*
X34551Y16650*
X34534Y16599*
X34513Y16549*
X34488Y16501*
X34460Y16454*
X34429Y16410*
X34395Y16368*
X34358Y16329*
X34318Y16292*
X34275Y16259*
X34230Y16228*
X34183Y16201*
X34135Y16178*
X34084Y16158*
X34033Y16141*
X33980Y16129*
X33927Y16120*
X33873Y16115*
X33818Y16114*
X33764Y16117*
X33711Y16124*
X33658Y16135*
X33605Y16149*
X33554Y16167*
X33505Y16189*
X33457Y16214*
X33411Y16243*
X33367Y16275*
X33326Y16310*
X33288Y16348*
X33252Y16389*
X33219Y16432*
X33189Y16477*
X33163Y16525*
X33140Y16574*
X33121Y16625*
X33106Y16676*
X33094Y16729*
X33086Y16783*
X33082Y16837*
Y16891*
X33086Y16945*
X33094Y16999*
X33106Y17052*
X33121Y17103*
X33140Y17154*
X33163Y17203*
X33189Y17251*
X33219Y17296*
X33252Y17339*
X33288Y17380*
X33326Y17418*
X33367Y17453*
X33411Y17485*
X33457Y17514*
X33505Y17539*
X33554Y17561*
X33605Y17579*
X33658Y17593*
X33711Y17604*
X33764Y17611*
X33818Y17614*
X33873Y17613*
X33927Y17608*
X33980Y17599*
X34033Y17587*
X34084Y17570*
X34135Y17550*
X34183Y17527*
X34230Y17500*
X34275Y17469*
X34318Y17436*
X34358Y17399*
X34395Y17360*
X34429Y17318*
X34460Y17274*
X34488Y17227*
X34513Y17179*
X34534Y17129*
X34551Y17078*
X34564Y17025*
X34574Y16972*
X34580Y16918*
X34582Y16864*
X12816Y15054D02*
G01X12814Y15028D01*
X12808Y15002*
X12798Y14977*
X12785Y14954*
X12769Y14934*
X12749Y14916*
X12727Y14901*
X12704Y14889*
X12678Y14881*
X12652Y14877*
X12626*
X12600Y14881*
X12574Y14889*
X12550Y14901*
X12529Y14916*
X12509Y14934*
X12493Y14954*
X12480Y14977*
X12470Y15002*
X12464Y15028*
X12462Y15054*
X12464Y15080*
X12470Y15106*
X12480Y15131*
X12493Y15154*
X12509Y15174*
X12529Y15192*
X12551Y15207*
X12574Y15219*
X12600Y15227*
X12626Y15231*
X12652*
X12678Y15227*
X12704Y15219*
X12728Y15207*
X12749Y15192*
X12769Y15174*
X12785Y15154*
X12798Y15131*
X12808Y15106*
X12814Y15080*
X12816Y15054*
X10021D02*
G01X10019Y15028D01*
X10013Y15002*
X10003Y14977*
X9990Y14954*
X9974Y14934*
X9954Y14916*
X9932Y14901*
X9909Y14889*
X9883Y14881*
X9857Y14877*
X9831*
X9805Y14881*
X9779Y14889*
X9755Y14901*
X9734Y14916*
X9714Y14934*
X9698Y14954*
X9685Y14977*
X9675Y15002*
X9669Y15028*
X9667Y15054*
X9669Y15080*
X9675Y15106*
X9685Y15131*
X9698Y15154*
X9714Y15174*
X9734Y15192*
X9756Y15207*
X9779Y15219*
X9805Y15227*
X9831Y15231*
X9857*
X9883Y15227*
X9909Y15219*
X9933Y15207*
X9954Y15192*
X9974Y15174*
X9990Y15154*
X10003Y15131*
X10013Y15106*
X10019Y15080*
X10021Y15054*
X3852Y16054D02*
G01X3850Y15984D01*
X3844Y15914*
X3834Y15845*
X3821Y15776*
X3803Y15708*
X3782Y15641*
X3757Y15576*
X3728Y15512*
X3696Y15449*
X3660Y15389*
X3621Y15331*
X3579Y15275*
X3534Y15221*
X3486Y15170*
X3435Y15122*
X3381Y15077*
X3325Y15035*
X3267Y14996*
X3207Y14960*
X3144Y14928*
X3080Y14899*
X3015Y14874*
X2948Y14853*
X2880Y14835*
X2811Y14822*
X2742Y14812*
X2672Y14806*
X2602Y14804*
X2532Y14806*
X2462Y14812*
X2393Y14822*
X2324Y14835*
X2256Y14853*
X2189Y14874*
X2124Y14899*
X2060Y14928*
X1997Y14960*
X1937Y14996*
X1879Y15035*
X1823Y15077*
X1769Y15122*
X1718Y15170*
X1670Y15221*
X1625Y15275*
X1583Y15331*
X1544Y15389*
X1508Y15449*
X1476Y15512*
X1447Y15576*
X1422Y15641*
X1401Y15708*
X1383Y15776*
X1370Y15845*
X1360Y15914*
X1354Y15984*
X1352Y16054*
X1354Y16124*
X1360Y16194*
X1370Y16263*
X1383Y16332*
X1401Y16400*
X1422Y16467*
X1447Y16532*
X1476Y16596*
X1508Y16659*
X1544Y16719*
X1583Y16777*
X1625Y16833*
X1670Y16887*
X1718Y16938*
X1769Y16986*
X1823Y17031*
X1879Y17073*
X1937Y17112*
X1997Y17148*
X2060Y17180*
X2124Y17209*
X2189Y17234*
X2256Y17255*
X2324Y17273*
X2393Y17286*
X2462Y17296*
X2532Y17302*
X2602Y17304*
X2672Y17302*
X2742Y17296*
X2811Y17286*
X2880Y17273*
X2948Y17255*
X3015Y17234*
X3080Y17209*
X3144Y17180*
X3207Y17148*
X3267Y17112*
X3325Y17073*
X3381Y17031*
X3435Y16986*
X3486Y16938*
X3534Y16887*
X3579Y16833*
X3621Y16777*
X3660Y16719*
X3696Y16659*
X3728Y16596*
X3757Y16532*
X3782Y16467*
X3803Y16400*
X3821Y16332*
X3834Y16263*
X3844Y16194*
X3850Y16124*
X3852Y16054*
X3912Y29354D02*
G01X3910Y29284D01*
X3904Y29214*
X3894Y29145*
X3881Y29076*
X3863Y29008*
X3842Y28941*
X3817Y28876*
X3788Y28812*
X3756Y28749*
X3720Y28689*
X3681Y28631*
X3639Y28575*
X3594Y28521*
X3546Y28470*
X3495Y28422*
X3441Y28377*
X3385Y28335*
X3327Y28296*
X3267Y28260*
X3204Y28228*
X3140Y28199*
X3075Y28174*
X3008Y28153*
X2940Y28135*
X2871Y28122*
X2802Y28112*
X2732Y28106*
X2662Y28104*
X2592Y28106*
X2522Y28112*
X2453Y28122*
X2384Y28135*
X2316Y28153*
X2249Y28174*
X2184Y28199*
X2120Y28228*
X2057Y28260*
X1997Y28296*
X1939Y28335*
X1883Y28377*
X1829Y28422*
X1778Y28470*
X1730Y28521*
X1685Y28575*
X1643Y28631*
X1604Y28689*
X1568Y28749*
X1536Y28812*
X1507Y28876*
X1482Y28941*
X1461Y29008*
X1443Y29076*
X1430Y29145*
X1420Y29214*
X1414Y29284*
X1412Y29354*
X1414Y29424*
X1420Y29494*
X1430Y29563*
X1443Y29632*
X1461Y29700*
X1482Y29767*
X1507Y29832*
X1536Y29896*
X1568Y29959*
X1604Y30019*
X1643Y30077*
X1685Y30133*
X1730Y30187*
X1778Y30238*
X1829Y30286*
X1883Y30331*
X1939Y30373*
X1997Y30412*
X2057Y30448*
X2120Y30480*
X2184Y30509*
X2249Y30534*
X2316Y30555*
X2384Y30573*
X2453Y30586*
X2522Y30596*
X2592Y30602*
X2662Y30604*
X2732Y30602*
X2802Y30596*
X2871Y30586*
X2940Y30573*
X3008Y30555*
X3075Y30534*
X3140Y30509*
X3204Y30480*
X3267Y30448*
X3327Y30412*
X3385Y30373*
X3441Y30331*
X3495Y30286*
X3546Y30238*
X3594Y30187*
X3639Y30133*
X3681Y30077*
X3720Y30019*
X3756Y29959*
X3788Y29896*
X3817Y29832*
X3842Y29767*
X3863Y29700*
X3881Y29632*
X3894Y29563*
X3904Y29494*
X3910Y29424*
X3912Y29354*
X94872Y26394D02*
G01X94870Y26324D01*
X94864Y26254*
X94854Y26185*
X94841Y26116*
X94823Y26048*
X94802Y25981*
X94777Y25916*
X94748Y25852*
X94716Y25789*
X94680Y25729*
X94641Y25671*
X94599Y25615*
X94554Y25561*
X94506Y25510*
X94455Y25462*
X94401Y25417*
X94345Y25375*
X94287Y25336*
X94227Y25300*
X94164Y25268*
X94100Y25239*
X94035Y25214*
X93968Y25193*
X93900Y25175*
X93831Y25162*
X93762Y25152*
X93692Y25146*
X93622Y25144*
X93552Y25146*
X93482Y25152*
X93413Y25162*
X93344Y25175*
X93276Y25193*
X93209Y25214*
X93144Y25239*
X93080Y25268*
X93017Y25300*
X92957Y25336*
X92899Y25375*
X92843Y25417*
X92789Y25462*
X92738Y25510*
X92690Y25561*
X92645Y25615*
X92603Y25671*
X92564Y25729*
X92528Y25789*
X92496Y25852*
X92467Y25916*
X92442Y25981*
X92421Y26048*
X92403Y26116*
X92390Y26185*
X92380Y26254*
X92374Y26324*
X92372Y26394*
X92374Y26464*
X92380Y26534*
X92390Y26603*
X92403Y26672*
X92421Y26740*
X92442Y26807*
X92467Y26872*
X92496Y26936*
X92528Y26999*
X92564Y27059*
X92603Y27117*
X92645Y27173*
X92690Y27227*
X92738Y27278*
X92789Y27326*
X92843Y27371*
X92899Y27413*
X92957Y27452*
X93017Y27488*
X93080Y27520*
X93144Y27549*
X93209Y27574*
X93276Y27595*
X93344Y27613*
X93413Y27626*
X93482Y27636*
X93552Y27642*
X93622Y27644*
X93692Y27642*
X93762Y27636*
X93831Y27626*
X93900Y27613*
X93968Y27595*
X94035Y27574*
X94100Y27549*
X94164Y27520*
X94227Y27488*
X94287Y27452*
X94345Y27413*
X94401Y27371*
X94455Y27326*
X94506Y27278*
X94554Y27227*
X94599Y27173*
X94641Y27117*
X94680Y27059*
X94716Y26999*
X94748Y26936*
X94777Y26872*
X94802Y26807*
X94823Y26740*
X94841Y26672*
X94854Y26603*
X94864Y26534*
X94870Y26464*
X94872Y26394*
X94992Y31954D02*
G01X94990Y31884D01*
X94984Y31814*
X94974Y31745*
X94961Y31676*
X94943Y31608*
X94922Y31541*
X94897Y31476*
X94868Y31412*
X94836Y31349*
X94800Y31289*
X94761Y31231*
X94719Y31175*
X94674Y31121*
X94626Y31070*
X94575Y31022*
X94521Y30977*
X94465Y30935*
X94407Y30896*
X94347Y30860*
X94284Y30828*
X94220Y30799*
X94155Y30774*
X94088Y30753*
X94020Y30735*
X93951Y30722*
X93882Y30712*
X93812Y30706*
X93742Y30704*
X93672Y30706*
X93602Y30712*
X93533Y30722*
X93464Y30735*
X93396Y30753*
X93329Y30774*
X93264Y30799*
X93200Y30828*
X93137Y30860*
X93077Y30896*
X93019Y30935*
X92963Y30977*
X92909Y31022*
X92858Y31070*
X92810Y31121*
X92765Y31175*
X92723Y31231*
X92684Y31289*
X92648Y31349*
X92616Y31412*
X92587Y31476*
X92562Y31541*
X92541Y31608*
X92523Y31676*
X92510Y31745*
X92500Y31814*
X92494Y31884*
X92492Y31954*
X92494Y32024*
X92500Y32094*
X92510Y32163*
X92523Y32232*
X92541Y32300*
X92562Y32367*
X92587Y32432*
X92616Y32496*
X92648Y32559*
X92684Y32619*
X92723Y32677*
X92765Y32733*
X92810Y32787*
X92858Y32838*
X92909Y32886*
X92963Y32931*
X93019Y32973*
X93077Y33012*
X93137Y33048*
X93200Y33080*
X93264Y33109*
X93329Y33134*
X93396Y33155*
X93464Y33173*
X93533Y33186*
X93602Y33196*
X93672Y33202*
X93742Y33204*
X93812Y33202*
X93882Y33196*
X93951Y33186*
X94020Y33173*
X94088Y33155*
X94155Y33134*
X94220Y33109*
X94284Y33080*
X94347Y33048*
X94407Y33012*
X94465Y32973*
X94521Y32931*
X94575Y32886*
X94626Y32838*
X94674Y32787*
X94719Y32733*
X94761Y32677*
X94800Y32619*
X94836Y32559*
X94868Y32496*
X94897Y32432*
X94922Y32367*
X94943Y32300*
X94961Y32232*
X94974Y32163*
X94984Y32094*
X94990Y32024*
X94992Y31954*
G54D37*
X1765Y60222D02*
G01X2565D01*
X-515Y62222D02*
G01Y68982D01*
X-509Y69078*
X-498Y69174*
X-482Y69269*
X-462Y69363*
X-437Y69456*
X-408Y69548*
X-374Y69638*
X-336Y69726*
X-293Y69813*
X-246Y69897*
X-195Y69978*
X-141Y70058*
X-82Y70134*
X-20Y70207*
X46Y70278*
X115Y70345*
X188Y70408*
X263Y70468*
X341Y70524*
X422Y70576*
X506Y70625*
X591Y70669*
X679Y70708*
X769Y70744*
X860Y70775*
X952Y70801*
X1046Y70823*
X1141Y70840*
X1236Y70853*
X1332Y70861*
X1429Y70864*
X1525Y70862*
X53605*
X59885Y76862D02*
G01X59897Y77065D01*
X59919Y77267*
X59951Y77468*
X59992Y77667*
X60043Y77864*
X60104Y78058*
X60175Y78248*
X60254Y78436*
X60343Y78618*
X60440Y78797*
X60546Y78970*
X60661Y79138*
X60783Y79300*
X60914Y79456*
X61052Y79606*
X61197Y79748*
X61349Y79883*
X61507Y80011*
X61671Y80130*
X61842Y80242*
X62017Y80345*
X62197Y80439*
X62382Y80524*
X62570Y80600*
X62762Y80667*
X62957Y80724*
X63155Y80772*
X63355Y80809*
X63556Y80837*
X63759Y80855*
X63962Y80864*
X64165Y80862*
X93285*
X93286D02*
G01X93404Y80859D01*
X93522Y80850*
X93639Y80836*
X93756Y80816*
X93871Y80790*
X93985Y80759*
X94097Y80722*
X94208Y80680*
X94316Y80632*
X94422Y80579*
X94525Y80521*
X94625Y80458*
X94722Y80390*
X94815Y80318*
X94905Y80241*
X94991Y80160*
X95073Y80074*
X95151Y79985*
X95224Y79892*
X95292Y79796*
X95356Y79696*
X95415Y79594*
X95469Y79489*
X95517Y79381*
X95560Y79271*
X95598Y79159*
X95630Y79045*
X95657Y78930*
X95678Y78813*
X95694Y78696*
X95703Y78578*
X95707Y78460*
X95705Y78342*
X95697Y78224*
X95684Y78106*
X95665Y77990*
X95640Y77874*
X95609Y77760*
X95573Y77647*
X95532Y77537*
X95485Y77428*
X95433Y77322*
X95376Y77218*
X95313Y77118*
X95246Y77020*
X95175Y76926*
X95098Y76836*
X95018Y76749*
X94933Y76667*
X94845Y76589*
X94752Y76515*
X94657Y76445*
X94558Y76381*
X94455Y76321*
X94351Y76267*
X94243Y76217*
X94133Y76173*
X94022Y76134*
X93908Y76101*
X93793Y76074*
X93677Y76052*
X93560Y76036*
X93442Y76025*
X93324Y76020*
X93206Y76021*
X93205Y76022D02*
G01Y67542D01*
Y67543D02*
G01X93326Y67542D01*
X93447Y67534*
X93567Y67521*
X93687Y67503*
X93805Y67478*
X93922Y67447*
X94038Y67411*
X94152Y67370*
X94263Y67322*
X94372Y67270*
X94478Y67212*
X94582Y67149*
X94682Y67081*
X94779Y67009*
X94872Y66931*
X94961Y66849*
X95047Y66763*
X95127Y66673*
X95204Y66579*
X95276Y66482*
X95342Y66381*
X95404Y66277*
X95461Y66170*
X95513Y66060*
X95559Y65948*
X95599Y65834*
X95634Y65718*
X95663Y65601*
X95687Y65482*
X95705Y65362*
X95716Y65242*
X95722Y65121*
Y65000*
X95716Y64879*
X95705Y64759*
X95687Y64639*
X95664Y64520*
X95634Y64402*
X95599Y64287*
X95559Y64172*
X95513Y64060*
X95462Y63951*
X95405Y63844*
X95343Y63740*
X95276Y63639*
X95204Y63541*
X95128Y63447*
X95047Y63357*
X94962Y63271*
X94873Y63189*
X94780Y63112*
X94683Y63039*
X94583Y62971*
X94479Y62908*
X94373Y62851*
X94264Y62798*
X94152Y62751*
X94039Y62709*
X93923Y62673*
X93806Y62642*
X93688Y62618*
X93568Y62599*
X93448Y62586*
X93327Y62579*
X93206Y62577*
X93085Y62582*
X4755Y62557*
X4756D02*
G01X4757Y62446D01*
X4752Y62335*
X4742Y62225*
X4727Y62115*
X4706Y62005*
X4679Y61898*
X4648Y61791*
X4611Y61686*
X4570Y61583*
X4523Y61482*
X4471Y61384*
X4415Y61288*
X4354Y61195*
X4288Y61106*
X4218Y61019*
X4144Y60936*
X4066Y60857*
X3985Y60782*
X3899Y60711*
X3810Y60644*
X3719Y60581*
X3624Y60524*
X3526Y60470*
X3426Y60422*
X3324Y60379*
X3219Y60341*
X3113Y60308*
X3006Y60280*
X2897Y60257*
X2787Y60240*
X2676Y60228*
X2566Y60222*
X1765D02*
G01X1663Y60217D01*
X1561Y60218*
X1459Y60223*
X1357Y60234*
X1256Y60249*
X1156Y60269*
X1057Y60293*
X960Y60323*
X863Y60357*
X769Y60395*
X676Y60438*
X586Y60486*
X498Y60537*
X412Y60593*
X329Y60653*
X249Y60716*
X173Y60784*
X99Y60854*
X29Y60929*
X-37Y61006*
X-100Y61087*
X-159Y61171*
X-213Y61257*
X-264Y61345*
X-310Y61437*
X-352Y61530*
X-389Y61625*
X-422Y61721*
X-450Y61819*
X-474Y61919*
X-492Y62019*
X-506Y62120*
X-515Y62222*
X53605Y70862D02*
G01X53906D01*
X54208Y70877*
X54508Y70908*
X54806Y70952*
X55101Y71012*
X55394Y71085*
X55682Y71173*
X55965Y71275*
X56244Y71391*
X56516Y71521*
X56782Y71663*
X57040Y71819*
X57290Y71987*
X57532Y72167*
X57765Y72358*
X57988Y72561*
X58201Y72775*
X58403Y72998*
X58594Y73232*
X58773Y73474*
X58940Y73725*
X59094Y73984*
X59236Y74250*
X59364Y74523*
X59479Y74802*
X59580Y75086*
X59667Y75374*
X59740Y75667*
X59798Y75962*
X59842Y76261*
X59871Y76561*
X59885Y76862*
G54D86*
X61285Y77592D02*
G01X61287Y77646D01*
X61293Y77700*
X61303Y77753*
X61316Y77806*
X61333Y77857*
X61354Y77907*
X61379Y77955*
X61407Y78002*
X61438Y78046*
X61472Y78088*
X61509Y78127*
X61549Y78164*
X61592Y78197*
X61637Y78228*
X61684Y78255*
X61732Y78278*
X61783Y78298*
X61834Y78315*
X61887Y78327*
X61940Y78336*
X61994Y78341*
X62049Y78342*
X62103Y78339*
X62156Y78332*
X62209Y78321*
X62262Y78307*
X62313Y78289*
X62362Y78267*
X62410Y78242*
X62456Y78213*
X62500Y78181*
X62541Y78146*
X62579Y78108*
X62615Y78067*
X62648Y78024*
X62678Y77979*
X62704Y77931*
X62727Y77882*
X62746Y77831*
X62761Y77780*
X62773Y77727*
X62781Y77673*
X62785Y77619*
Y77565*
X62781Y77511*
X62773Y77457*
X62761Y77404*
X62746Y77353*
X62727Y77302*
X62704Y77253*
X62678Y77205*
X62648Y77160*
X62615Y77117*
X62579Y77076*
X62541Y77038*
X62500Y77003*
X62456Y76971*
X62410Y76942*
X62362Y76917*
X62313Y76895*
X62262Y76877*
X62209Y76863*
X62156Y76852*
X62103Y76845*
X62049Y76842*
X61994Y76843*
X61940Y76848*
X61887Y76857*
X61834Y76869*
X61783Y76886*
X61732Y76906*
X61684Y76929*
X61637Y76956*
X61592Y76987*
X61549Y77020*
X61509Y77057*
X61472Y77096*
X61438Y77138*
X61407Y77182*
X61379Y77229*
X61354Y77277*
X61333Y77327*
X61316Y77378*
X61303Y77431*
X61293Y77484*
X61287Y77538*
X61285Y77592*
X83051Y79402D02*
G01X83053Y79428D01*
X83059Y79454*
X83069Y79479*
X83082Y79502*
X83098Y79522*
X83118Y79540*
X83140Y79555*
X83163Y79567*
X83189Y79575*
X83215Y79579*
X83241*
X83267Y79575*
X83293Y79567*
X83317Y79555*
X83338Y79540*
X83358Y79522*
X83374Y79502*
X83387Y79479*
X83397Y79454*
X83403Y79428*
X83405Y79402*
X83403Y79376*
X83397Y79350*
X83387Y79325*
X83374Y79302*
X83358Y79282*
X83338Y79264*
X83316Y79249*
X83293Y79237*
X83267Y79229*
X83241Y79225*
X83215*
X83189Y79229*
X83163Y79237*
X83139Y79249*
X83118Y79264*
X83098Y79282*
X83082Y79302*
X83069Y79325*
X83059Y79350*
X83053Y79376*
X83051Y79402*
X85846D02*
G01X85848Y79428D01*
X85854Y79454*
X85864Y79479*
X85877Y79502*
X85893Y79522*
X85913Y79540*
X85935Y79555*
X85958Y79567*
X85984Y79575*
X86010Y79579*
X86036*
X86062Y79575*
X86088Y79567*
X86112Y79555*
X86133Y79540*
X86153Y79522*
X86169Y79502*
X86182Y79479*
X86192Y79454*
X86198Y79428*
X86200Y79402*
X86198Y79376*
X86192Y79350*
X86182Y79325*
X86169Y79302*
X86153Y79282*
X86133Y79264*
X86111Y79249*
X86088Y79237*
X86062Y79229*
X86036Y79225*
X86010*
X85984Y79229*
X85958Y79237*
X85934Y79249*
X85913Y79264*
X85893Y79282*
X85877Y79302*
X85864Y79325*
X85854Y79350*
X85848Y79376*
X85846Y79402*
X92015Y78402D02*
G01X92017Y78472D01*
X92023Y78542*
X92033Y78611*
X92046Y78680*
X92064Y78748*
X92085Y78815*
X92110Y78880*
X92139Y78944*
X92171Y79007*
X92207Y79067*
X92246Y79125*
X92288Y79181*
X92333Y79235*
X92381Y79286*
X92432Y79334*
X92486Y79379*
X92542Y79421*
X92600Y79460*
X92660Y79496*
X92723Y79528*
X92787Y79557*
X92852Y79582*
X92919Y79603*
X92987Y79621*
X93056Y79634*
X93125Y79644*
X93195Y79650*
X93265Y79652*
X93335Y79650*
X93405Y79644*
X93474Y79634*
X93543Y79621*
X93611Y79603*
X93678Y79582*
X93743Y79557*
X93807Y79528*
X93870Y79496*
X93930Y79460*
X93988Y79421*
X94044Y79379*
X94098Y79334*
X94149Y79286*
X94197Y79235*
X94242Y79181*
X94284Y79125*
X94323Y79067*
X94359Y79007*
X94391Y78944*
X94420Y78880*
X94445Y78815*
X94466Y78748*
X94484Y78680*
X94497Y78611*
X94507Y78542*
X94513Y78472*
X94515Y78402*
X94513Y78332*
X94507Y78262*
X94497Y78193*
X94484Y78124*
X94466Y78056*
X94445Y77989*
X94420Y77924*
X94391Y77860*
X94359Y77797*
X94323Y77737*
X94284Y77679*
X94242Y77623*
X94197Y77569*
X94149Y77518*
X94098Y77470*
X94044Y77425*
X93988Y77383*
X93930Y77344*
X93870Y77308*
X93807Y77276*
X93743Y77247*
X93678Y77222*
X93611Y77201*
X93543Y77183*
X93474Y77170*
X93405Y77160*
X93335Y77154*
X93265Y77152*
X93195Y77154*
X93125Y77160*
X93056Y77170*
X92987Y77183*
X92919Y77201*
X92852Y77222*
X92787Y77247*
X92723Y77276*
X92660Y77308*
X92600Y77344*
X92542Y77383*
X92486Y77425*
X92432Y77470*
X92381Y77518*
X92333Y77569*
X92288Y77623*
X92246Y77679*
X92207Y77737*
X92171Y77797*
X92139Y77860*
X92110Y77924*
X92085Y77989*
X92064Y78056*
X92046Y78124*
X92033Y78193*
X92023Y78262*
X92017Y78332*
X92015Y78402*
X91955Y65102D02*
G01X91957Y65172D01*
X91963Y65242*
X91973Y65311*
X91986Y65380*
X92004Y65448*
X92025Y65515*
X92050Y65580*
X92079Y65644*
X92111Y65707*
X92147Y65767*
X92186Y65825*
X92228Y65881*
X92273Y65935*
X92321Y65986*
X92372Y66034*
X92426Y66079*
X92482Y66121*
X92540Y66160*
X92600Y66196*
X92663Y66228*
X92727Y66257*
X92792Y66282*
X92859Y66303*
X92927Y66321*
X92996Y66334*
X93065Y66344*
X93135Y66350*
X93205Y66352*
X93275Y66350*
X93345Y66344*
X93414Y66334*
X93483Y66321*
X93551Y66303*
X93618Y66282*
X93683Y66257*
X93747Y66228*
X93810Y66196*
X93870Y66160*
X93928Y66121*
X93984Y66079*
X94038Y66034*
X94089Y65986*
X94137Y65935*
X94182Y65881*
X94224Y65825*
X94263Y65767*
X94299Y65707*
X94331Y65644*
X94360Y65580*
X94385Y65515*
X94406Y65448*
X94424Y65380*
X94437Y65311*
X94447Y65242*
X94453Y65172*
X94455Y65102*
X94453Y65032*
X94447Y64962*
X94437Y64893*
X94424Y64824*
X94406Y64756*
X94385Y64689*
X94360Y64624*
X94331Y64560*
X94299Y64497*
X94263Y64437*
X94224Y64379*
X94182Y64323*
X94137Y64269*
X94089Y64218*
X94038Y64170*
X93984Y64125*
X93928Y64083*
X93870Y64044*
X93810Y64008*
X93747Y63976*
X93683Y63947*
X93618Y63922*
X93551Y63901*
X93483Y63883*
X93414Y63870*
X93345Y63860*
X93275Y63854*
X93205Y63852*
X93135Y63854*
X93065Y63860*
X92996Y63870*
X92927Y63883*
X92859Y63901*
X92792Y63922*
X92727Y63947*
X92663Y63976*
X92600Y64008*
X92540Y64044*
X92482Y64083*
X92426Y64125*
X92372Y64170*
X92321Y64218*
X92273Y64269*
X92228Y64323*
X92186Y64379*
X92147Y64437*
X92111Y64497*
X92079Y64560*
X92050Y64624*
X92025Y64689*
X92004Y64756*
X91986Y64824*
X91973Y64893*
X91963Y64962*
X91957Y65032*
X91955Y65102*
X995Y68062D02*
G01X997Y68132D01*
X1003Y68202*
X1013Y68271*
X1026Y68340*
X1044Y68408*
X1065Y68475*
X1090Y68540*
X1119Y68604*
X1151Y68667*
X1187Y68727*
X1226Y68785*
X1268Y68841*
X1313Y68895*
X1361Y68946*
X1412Y68994*
X1466Y69039*
X1522Y69081*
X1580Y69120*
X1640Y69156*
X1703Y69188*
X1767Y69217*
X1832Y69242*
X1899Y69263*
X1967Y69281*
X2036Y69294*
X2105Y69304*
X2175Y69310*
X2245Y69312*
X2315Y69310*
X2385Y69304*
X2454Y69294*
X2523Y69281*
X2591Y69263*
X2658Y69242*
X2723Y69217*
X2787Y69188*
X2850Y69156*
X2910Y69120*
X2968Y69081*
X3024Y69039*
X3078Y68994*
X3129Y68946*
X3177Y68895*
X3222Y68841*
X3264Y68785*
X3303Y68727*
X3339Y68667*
X3371Y68604*
X3400Y68540*
X3425Y68475*
X3446Y68408*
X3464Y68340*
X3477Y68271*
X3487Y68202*
X3493Y68132*
X3495Y68062*
X3493Y67992*
X3487Y67922*
X3477Y67853*
X3464Y67784*
X3446Y67716*
X3425Y67649*
X3400Y67584*
X3371Y67520*
X3339Y67457*
X3303Y67397*
X3264Y67339*
X3222Y67283*
X3177Y67229*
X3129Y67178*
X3078Y67130*
X3024Y67085*
X2968Y67043*
X2910Y67004*
X2850Y66968*
X2787Y66936*
X2723Y66907*
X2658Y66882*
X2591Y66861*
X2523Y66843*
X2454Y66830*
X2385Y66820*
X2315Y66814*
X2245Y66812*
X2175Y66814*
X2105Y66820*
X2036Y66830*
X1967Y66843*
X1899Y66861*
X1832Y66882*
X1767Y66907*
X1703Y66936*
X1640Y66968*
X1580Y67004*
X1522Y67043*
X1466Y67085*
X1412Y67130*
X1361Y67178*
X1313Y67229*
X1268Y67283*
X1226Y67339*
X1187Y67397*
X1151Y67457*
X1119Y67520*
X1090Y67584*
X1065Y67649*
X1044Y67716*
X1026Y67784*
X1013Y67853*
X1003Y67922*
X997Y67992*
X995Y68062*
X875Y62502D02*
G01X877Y62572D01*
X883Y62642*
X893Y62711*
X906Y62780*
X924Y62848*
X945Y62915*
X970Y62980*
X999Y63044*
X1031Y63107*
X1067Y63167*
X1106Y63225*
X1148Y63281*
X1193Y63335*
X1241Y63386*
X1292Y63434*
X1346Y63479*
X1402Y63521*
X1460Y63560*
X1520Y63596*
X1583Y63628*
X1647Y63657*
X1712Y63682*
X1779Y63703*
X1847Y63721*
X1916Y63734*
X1985Y63744*
X2055Y63750*
X2125Y63752*
X2195Y63750*
X2265Y63744*
X2334Y63734*
X2403Y63721*
X2471Y63703*
X2538Y63682*
X2603Y63657*
X2667Y63628*
X2730Y63596*
X2790Y63560*
X2848Y63521*
X2904Y63479*
X2958Y63434*
X3009Y63386*
X3057Y63335*
X3102Y63281*
X3144Y63225*
X3183Y63167*
X3219Y63107*
X3251Y63044*
X3280Y62980*
X3305Y62915*
X3326Y62848*
X3344Y62780*
X3357Y62711*
X3367Y62642*
X3373Y62572*
X3375Y62502*
X3373Y62432*
X3367Y62362*
X3357Y62293*
X3344Y62224*
X3326Y62156*
X3305Y62089*
X3280Y62024*
X3251Y61960*
X3219Y61897*
X3183Y61837*
X3144Y61779*
X3102Y61723*
X3057Y61669*
X3009Y61618*
X2958Y61570*
X2904Y61525*
X2848Y61483*
X2790Y61444*
X2730Y61408*
X2667Y61376*
X2603Y61347*
X2538Y61322*
X2471Y61301*
X2403Y61283*
X2334Y61270*
X2265Y61260*
X2195Y61254*
X2125Y61252*
X2055Y61254*
X1985Y61260*
X1916Y61270*
X1847Y61283*
X1779Y61301*
X1712Y61322*
X1647Y61347*
X1583Y61376*
X1520Y61408*
X1460Y61444*
X1402Y61483*
X1346Y61525*
X1292Y61570*
X1241Y61618*
X1193Y61669*
X1148Y61723*
X1106Y61779*
X1067Y61837*
X1031Y61897*
X999Y61960*
X970Y62024*
X945Y62089*
X924Y62156*
X906Y62224*
X893Y62293*
X883Y62362*
X877Y62432*
X875Y62502*
G54D37*
X93202Y92475D02*
G01X92402D01*
X95482Y90475D02*
G01Y83715D01*
X95476Y83619*
X95465Y83523*
X95449Y83428*
X95429Y83334*
X95404Y83241*
X95375Y83149*
X95341Y83059*
X95303Y82971*
X95260Y82884*
X95213Y82800*
X95162Y82719*
X95108Y82639*
X95049Y82563*
X94987Y82490*
X94921Y82419*
X94852Y82352*
X94779Y82289*
X94704Y82229*
X94626Y82173*
X94545Y82121*
X94461Y82072*
X94376Y82028*
X94288Y81989*
X94198Y81953*
X94107Y81922*
X94015Y81896*
X93921Y81874*
X93826Y81857*
X93731Y81844*
X93635Y81836*
X93538Y81833*
X93442Y81835*
X41362*
X35082Y75835D02*
G01X35070Y75632D01*
X35048Y75430*
X35016Y75229*
X34975Y75030*
X34924Y74833*
X34863Y74639*
X34792Y74449*
X34713Y74261*
X34624Y74079*
X34527Y73900*
X34421Y73727*
X34306Y73559*
X34184Y73397*
X34053Y73241*
X33915Y73091*
X33770Y72949*
X33618Y72814*
X33460Y72686*
X33296Y72567*
X33125Y72455*
X32950Y72352*
X32770Y72258*
X32585Y72173*
X32397Y72097*
X32205Y72030*
X32010Y71973*
X31812Y71925*
X31612Y71888*
X31411Y71860*
X31208Y71842*
X31005Y71833*
X30802Y71835*
X1682*
X1681D02*
G01X1563Y71838D01*
X1445Y71847*
X1328Y71861*
X1211Y71881*
X1096Y71907*
X982Y71938*
X870Y71975*
X759Y72017*
X651Y72065*
X545Y72118*
X442Y72176*
X342Y72239*
X245Y72307*
X152Y72379*
X62Y72456*
X-24Y72537*
X-106Y72623*
X-184Y72712*
X-257Y72805*
X-325Y72901*
X-389Y73001*
X-448Y73103*
X-502Y73208*
X-550Y73316*
X-593Y73426*
X-631Y73538*
X-663Y73652*
X-690Y73767*
X-711Y73884*
X-727Y74001*
X-736Y74119*
X-740Y74237*
X-738Y74355*
X-730Y74473*
X-717Y74591*
X-698Y74707*
X-673Y74823*
X-642Y74937*
X-606Y75050*
X-565Y75160*
X-518Y75269*
X-466Y75375*
X-409Y75479*
X-346Y75579*
X-279Y75677*
X-208Y75771*
X-131Y75861*
X-51Y75948*
X34Y76030*
X122Y76108*
X215Y76182*
X310Y76252*
X409Y76316*
X512Y76376*
X616Y76430*
X724Y76480*
X834Y76524*
X945Y76563*
X1059Y76596*
X1174Y76623*
X1290Y76645*
X1407Y76661*
X1525Y76672*
X1643Y76677*
X1761Y76676*
X1762Y76675D02*
G01Y85155D01*
Y85154D02*
G01X1641Y85155D01*
X1520Y85163*
X1400Y85176*
X1280Y85194*
X1162Y85219*
X1045Y85250*
X929Y85286*
X815Y85327*
X704Y85375*
X595Y85427*
X489Y85485*
X385Y85548*
X285Y85616*
X188Y85688*
X95Y85766*
X6Y85848*
X-80Y85934*
X-160Y86024*
X-237Y86118*
X-309Y86215*
X-375Y86316*
X-437Y86420*
X-494Y86527*
X-546Y86637*
X-592Y86749*
X-632Y86863*
X-667Y86979*
X-696Y87096*
X-720Y87215*
X-738Y87335*
X-749Y87455*
X-755Y87576*
Y87697*
X-749Y87818*
X-738Y87938*
X-720Y88058*
X-697Y88177*
X-667Y88295*
X-632Y88410*
X-592Y88525*
X-546Y88637*
X-495Y88746*
X-438Y88853*
X-376Y88957*
X-309Y89058*
X-237Y89156*
X-161Y89250*
X-80Y89340*
X5Y89426*
X94Y89508*
X187Y89585*
X284Y89658*
X384Y89726*
X488Y89789*
X594Y89846*
X703Y89899*
X815Y89946*
X928Y89988*
X1044Y90024*
X1161Y90055*
X1279Y90079*
X1399Y90098*
X1519Y90111*
X1640Y90118*
X1761Y90120*
X1882Y90115*
X90212Y90140*
X90211D02*
G01X90210Y90251D01*
X90215Y90362*
X90225Y90472*
X90240Y90582*
X90261Y90692*
X90288Y90799*
X90319Y90906*
X90356Y91011*
X90397Y91114*
X90444Y91215*
X90496Y91313*
X90552Y91409*
X90613Y91502*
X90679Y91591*
X90749Y91678*
X90823Y91761*
X90901Y91840*
X90982Y91915*
X91068Y91986*
X91157Y92053*
X91248Y92116*
X91343Y92173*
X91441Y92227*
X91541Y92275*
X91643Y92318*
X91748Y92356*
X91854Y92389*
X91961Y92417*
X92070Y92440*
X92180Y92457*
X92291Y92469*
X92401Y92475*
X93202D02*
G01X93304Y92480D01*
X93406Y92479*
X93508Y92474*
X93610Y92463*
X93711Y92448*
X93811Y92428*
X93910Y92404*
X94007Y92374*
X94104Y92340*
X94198Y92302*
X94291Y92259*
X94381Y92211*
X94469Y92160*
X94555Y92104*
X94638Y92044*
X94718Y91981*
X94794Y91913*
X94868Y91843*
X94938Y91768*
X95004Y91691*
X95067Y91610*
X95126Y91526*
X95180Y91440*
X95231Y91352*
X95277Y91260*
X95319Y91167*
X95356Y91072*
X95389Y90976*
X95417Y90878*
X95441Y90778*
X95459Y90678*
X95473Y90577*
X95482Y90475*
X41362Y81835D02*
G01X41061D01*
X40759Y81820*
X40459Y81789*
X40161Y81745*
X39866Y81685*
X39573Y81612*
X39285Y81524*
X39002Y81422*
X38723Y81306*
X38451Y81176*
X38185Y81034*
X37927Y80878*
X37677Y80710*
X37435Y80530*
X37202Y80339*
X36979Y80136*
X36766Y79922*
X36564Y79699*
X36373Y79465*
X36194Y79223*
X36027Y78972*
X35873Y78713*
X35731Y78447*
X35603Y78174*
X35488Y77895*
X35387Y77611*
X35300Y77323*
X35227Y77030*
X35169Y76735*
X35125Y76436*
X35096Y76136*
X35082Y75835*
G54D86*
X33682Y75105D02*
G01X33680Y75051D01*
X33674Y74997*
X33664Y74944*
X33651Y74891*
X33634Y74840*
X33613Y74790*
X33588Y74742*
X33560Y74695*
X33529Y74651*
X33495Y74609*
X33458Y74570*
X33418Y74533*
X33375Y74500*
X33330Y74469*
X33283Y74442*
X33235Y74419*
X33184Y74399*
X33133Y74382*
X33080Y74370*
X33027Y74361*
X32973Y74356*
X32918Y74355*
X32864Y74358*
X32811Y74365*
X32758Y74376*
X32705Y74390*
X32654Y74408*
X32605Y74430*
X32557Y74455*
X32511Y74484*
X32467Y74516*
X32426Y74551*
X32388Y74589*
X32352Y74630*
X32319Y74673*
X32289Y74718*
X32263Y74766*
X32240Y74815*
X32221Y74866*
X32206Y74917*
X32194Y74970*
X32186Y75024*
X32182Y75078*
Y75132*
X32186Y75186*
X32194Y75240*
X32206Y75293*
X32221Y75344*
X32240Y75395*
X32263Y75444*
X32289Y75492*
X32319Y75537*
X32352Y75580*
X32388Y75621*
X32426Y75659*
X32467Y75694*
X32511Y75726*
X32557Y75755*
X32605Y75780*
X32654Y75802*
X32705Y75820*
X32758Y75834*
X32811Y75845*
X32864Y75852*
X32918Y75855*
X32973Y75854*
X33027Y75849*
X33080Y75840*
X33133Y75828*
X33184Y75811*
X33235Y75791*
X33283Y75768*
X33330Y75741*
X33375Y75710*
X33418Y75677*
X33458Y75640*
X33495Y75601*
X33529Y75559*
X33560Y75515*
X33588Y75468*
X33613Y75420*
X33634Y75370*
X33651Y75319*
X33664Y75266*
X33674Y75213*
X33680Y75159*
X33682Y75105*
X11916Y73295D02*
G01X11914Y73269D01*
X11908Y73243*
X11898Y73218*
X11885Y73195*
X11869Y73175*
X11849Y73157*
X11827Y73142*
X11804Y73130*
X11778Y73122*
X11752Y73118*
X11726*
X11700Y73122*
X11674Y73130*
X11650Y73142*
X11629Y73157*
X11609Y73175*
X11593Y73195*
X11580Y73218*
X11570Y73243*
X11564Y73269*
X11562Y73295*
X11564Y73321*
X11570Y73347*
X11580Y73372*
X11593Y73395*
X11609Y73415*
X11629Y73433*
X11651Y73448*
X11674Y73460*
X11700Y73468*
X11726Y73472*
X11752*
X11778Y73468*
X11804Y73460*
X11828Y73448*
X11849Y73433*
X11869Y73415*
X11885Y73395*
X11898Y73372*
X11908Y73347*
X11914Y73321*
X11916Y73295*
X9121D02*
G01X9119Y73269D01*
X9113Y73243*
X9103Y73218*
X9090Y73195*
X9074Y73175*
X9054Y73157*
X9032Y73142*
X9009Y73130*
X8983Y73122*
X8957Y73118*
X8931*
X8905Y73122*
X8879Y73130*
X8855Y73142*
X8834Y73157*
X8814Y73175*
X8798Y73195*
X8785Y73218*
X8775Y73243*
X8769Y73269*
X8767Y73295*
X8769Y73321*
X8775Y73347*
X8785Y73372*
X8798Y73395*
X8814Y73415*
X8834Y73433*
X8856Y73448*
X8879Y73460*
X8905Y73468*
X8931Y73472*
X8957*
X8983Y73468*
X9009Y73460*
X9033Y73448*
X9054Y73433*
X9074Y73415*
X9090Y73395*
X9103Y73372*
X9113Y73347*
X9119Y73321*
X9121Y73295*
X2952Y74295D02*
G01X2950Y74225D01*
X2944Y74155*
X2934Y74086*
X2921Y74017*
X2903Y73949*
X2882Y73882*
X2857Y73817*
X2828Y73753*
X2796Y73690*
X2760Y73630*
X2721Y73572*
X2679Y73516*
X2634Y73462*
X2586Y73411*
X2535Y73363*
X2481Y73318*
X2425Y73276*
X2367Y73237*
X2307Y73201*
X2244Y73169*
X2180Y73140*
X2115Y73115*
X2048Y73094*
X1980Y73076*
X1911Y73063*
X1842Y73053*
X1772Y73047*
X1702Y73045*
X1632Y73047*
X1562Y73053*
X1493Y73063*
X1424Y73076*
X1356Y73094*
X1289Y73115*
X1224Y73140*
X1160Y73169*
X1097Y73201*
X1037Y73237*
X979Y73276*
X923Y73318*
X869Y73363*
X818Y73411*
X770Y73462*
X725Y73516*
X683Y73572*
X644Y73630*
X608Y73690*
X576Y73753*
X547Y73817*
X522Y73882*
X501Y73949*
X483Y74017*
X470Y74086*
X460Y74155*
X454Y74225*
X452Y74295*
X454Y74365*
X460Y74435*
X470Y74504*
X483Y74573*
X501Y74641*
X522Y74708*
X547Y74773*
X576Y74837*
X608Y74900*
X644Y74960*
X683Y75018*
X725Y75074*
X770Y75128*
X818Y75179*
X869Y75227*
X923Y75272*
X979Y75314*
X1037Y75353*
X1097Y75389*
X1160Y75421*
X1224Y75450*
X1289Y75475*
X1356Y75496*
X1424Y75514*
X1493Y75527*
X1562Y75537*
X1632Y75543*
X1702Y75545*
X1772Y75543*
X1842Y75537*
X1911Y75527*
X1980Y75514*
X2048Y75496*
X2115Y75475*
X2180Y75450*
X2244Y75421*
X2307Y75389*
X2367Y75353*
X2425Y75314*
X2481Y75272*
X2535Y75227*
X2586Y75179*
X2634Y75128*
X2679Y75074*
X2721Y75018*
X2760Y74960*
X2796Y74900*
X2828Y74837*
X2857Y74773*
X2882Y74708*
X2903Y74641*
X2921Y74573*
X2934Y74504*
X2944Y74435*
X2950Y74365*
X2952Y74295*
X3012Y87595D02*
G01X3010Y87525D01*
X3004Y87455*
X2994Y87386*
X2981Y87317*
X2963Y87249*
X2942Y87182*
X2917Y87117*
X2888Y87053*
X2856Y86990*
X2820Y86930*
X2781Y86872*
X2739Y86816*
X2694Y86762*
X2646Y86711*
X2595Y86663*
X2541Y86618*
X2485Y86576*
X2427Y86537*
X2367Y86501*
X2304Y86469*
X2240Y86440*
X2175Y86415*
X2108Y86394*
X2040Y86376*
X1971Y86363*
X1902Y86353*
X1832Y86347*
X1762Y86345*
X1692Y86347*
X1622Y86353*
X1553Y86363*
X1484Y86376*
X1416Y86394*
X1349Y86415*
X1284Y86440*
X1220Y86469*
X1157Y86501*
X1097Y86537*
X1039Y86576*
X983Y86618*
X929Y86663*
X878Y86711*
X830Y86762*
X785Y86816*
X743Y86872*
X704Y86930*
X668Y86990*
X636Y87053*
X607Y87117*
X582Y87182*
X561Y87249*
X543Y87317*
X530Y87386*
X520Y87455*
X514Y87525*
X512Y87595*
X514Y87665*
X520Y87735*
X530Y87804*
X543Y87873*
X561Y87941*
X582Y88008*
X607Y88073*
X636Y88137*
X668Y88200*
X704Y88260*
X743Y88318*
X785Y88374*
X830Y88428*
X878Y88479*
X929Y88527*
X983Y88572*
X1039Y88614*
X1097Y88653*
X1157Y88689*
X1220Y88721*
X1284Y88750*
X1349Y88775*
X1416Y88796*
X1484Y88814*
X1553Y88827*
X1622Y88837*
X1692Y88843*
X1762Y88845*
X1832Y88843*
X1902Y88837*
X1971Y88827*
X2040Y88814*
X2108Y88796*
X2175Y88775*
X2240Y88750*
X2304Y88721*
X2367Y88689*
X2427Y88653*
X2485Y88614*
X2541Y88572*
X2595Y88527*
X2646Y88479*
X2694Y88428*
X2739Y88374*
X2781Y88318*
X2820Y88260*
X2856Y88200*
X2888Y88137*
X2917Y88073*
X2942Y88008*
X2963Y87941*
X2981Y87873*
X2994Y87804*
X3004Y87735*
X3010Y87665*
X3012Y87595*
X93972Y84635D02*
G01X93970Y84565D01*
X93964Y84495*
X93954Y84426*
X93941Y84357*
X93923Y84289*
X93902Y84222*
X93877Y84157*
X93848Y84093*
X93816Y84030*
X93780Y83970*
X93741Y83912*
X93699Y83856*
X93654Y83802*
X93606Y83751*
X93555Y83703*
X93501Y83658*
X93445Y83616*
X93387Y83577*
X93327Y83541*
X93264Y83509*
X93200Y83480*
X93135Y83455*
X93068Y83434*
X93000Y83416*
X92931Y83403*
X92862Y83393*
X92792Y83387*
X92722Y83385*
X92652Y83387*
X92582Y83393*
X92513Y83403*
X92444Y83416*
X92376Y83434*
X92309Y83455*
X92244Y83480*
X92180Y83509*
X92117Y83541*
X92057Y83577*
X91999Y83616*
X91943Y83658*
X91889Y83703*
X91838Y83751*
X91790Y83802*
X91745Y83856*
X91703Y83912*
X91664Y83970*
X91628Y84030*
X91596Y84093*
X91567Y84157*
X91542Y84222*
X91521Y84289*
X91503Y84357*
X91490Y84426*
X91480Y84495*
X91474Y84565*
X91472Y84635*
X91474Y84705*
X91480Y84775*
X91490Y84844*
X91503Y84913*
X91521Y84981*
X91542Y85048*
X91567Y85113*
X91596Y85177*
X91628Y85240*
X91664Y85300*
X91703Y85358*
X91745Y85414*
X91790Y85468*
X91838Y85519*
X91889Y85567*
X91943Y85612*
X91999Y85654*
X92057Y85693*
X92117Y85729*
X92180Y85761*
X92244Y85790*
X92309Y85815*
X92376Y85836*
X92444Y85854*
X92513Y85867*
X92582Y85877*
X92652Y85883*
X92722Y85885*
X92792Y85883*
X92862Y85877*
X92931Y85867*
X93000Y85854*
X93068Y85836*
X93135Y85815*
X93200Y85790*
X93264Y85761*
X93327Y85729*
X93387Y85693*
X93445Y85654*
X93501Y85612*
X93555Y85567*
X93606Y85519*
X93654Y85468*
X93699Y85414*
X93741Y85358*
X93780Y85300*
X93816Y85240*
X93848Y85177*
X93877Y85113*
X93902Y85048*
X93923Y84981*
X93941Y84913*
X93954Y84844*
X93964Y84775*
X93970Y84705*
X93972Y84635*
X94092Y90195D02*
G01X94090Y90125D01*
X94084Y90055*
X94074Y89986*
X94061Y89917*
X94043Y89849*
X94022Y89782*
X93997Y89717*
X93968Y89653*
X93936Y89590*
X93900Y89530*
X93861Y89472*
X93819Y89416*
X93774Y89362*
X93726Y89311*
X93675Y89263*
X93621Y89218*
X93565Y89176*
X93507Y89137*
X93447Y89101*
X93384Y89069*
X93320Y89040*
X93255Y89015*
X93188Y88994*
X93120Y88976*
X93051Y88963*
X92982Y88953*
X92912Y88947*
X92842Y88945*
X92772Y88947*
X92702Y88953*
X92633Y88963*
X92564Y88976*
X92496Y88994*
X92429Y89015*
X92364Y89040*
X92300Y89069*
X92237Y89101*
X92177Y89137*
X92119Y89176*
X92063Y89218*
X92009Y89263*
X91958Y89311*
X91910Y89362*
X91865Y89416*
X91823Y89472*
X91784Y89530*
X91748Y89590*
X91716Y89653*
X91687Y89717*
X91662Y89782*
X91641Y89849*
X91623Y89917*
X91610Y89986*
X91600Y90055*
X91594Y90125*
X91592Y90195*
X91594Y90265*
X91600Y90335*
X91610Y90404*
X91623Y90473*
X91641Y90541*
X91662Y90608*
X91687Y90673*
X91716Y90737*
X91748Y90800*
X91784Y90860*
X91823Y90918*
X91865Y90974*
X91910Y91028*
X91958Y91079*
X92009Y91127*
X92063Y91172*
X92119Y91214*
X92177Y91253*
X92237Y91289*
X92300Y91321*
X92364Y91350*
X92429Y91375*
X92496Y91396*
X92564Y91414*
X92633Y91427*
X92702Y91437*
X92772Y91443*
X92842Y91445*
X92912Y91443*
X92982Y91437*
X93051Y91427*
X93120Y91414*
X93188Y91396*
X93255Y91375*
X93320Y91350*
X93384Y91321*
X93447Y91289*
X93507Y91253*
X93565Y91214*
X93621Y91172*
X93675Y91127*
X93726Y91079*
X93774Y91028*
X93819Y90974*
X93861Y90918*
X93900Y90860*
X93936Y90800*
X93968Y90737*
X93997Y90673*
X94022Y90608*
X94043Y90541*
X94061Y90473*
X94074Y90404*
X94084Y90335*
X94090Y90265*
X94092Y90195*
%LNAniBike_v2.7_BT_SecondaryBoard.GDM*%
G54D37*
X-71Y35720D02*
G01Y42200D01*
Y42201D02*
G01X-65Y42281D01*
X-56Y42360*
X-43Y42439*
X-26Y42517*
X-5Y42595*
X19Y42671*
X47Y42746*
X79Y42820*
X114Y42892*
X152Y42962*
X194Y43030*
X239Y43097*
X287Y43161*
X338Y43222*
X392Y43282*
X448Y43338*
X508Y43392*
X569Y43443*
X633Y43491*
X700Y43536*
X768Y43578*
X838Y43616*
X910Y43651*
X984Y43683*
X1059Y43710*
X1135Y43735*
X1212Y43756*
X1291Y43773*
X1370Y43786*
X1449Y43795*
X1529Y43801*
X1609Y43803*
X1689Y43801*
Y43800D02*
G01X76449D01*
X76580Y43802*
X76712Y43809*
X76842Y43823*
X76972Y43843*
X77101Y43869*
X77228Y43901*
X77354Y43939*
X77478Y43983*
X77599Y44033*
X77718Y44089*
X77834Y44150*
X77947Y44217*
X78057Y44289*
X78164Y44366*
X78266Y44448*
X78364Y44535*
X78459Y44627*
X78548Y44723*
X78634Y44823*
X78714Y44927*
X78789Y45034*
X78859Y45146*
X78924Y45260*
X78983Y45377*
X79036Y45497*
X79084Y45620*
X79126Y45744*
X79161Y45871*
X79191Y45998*
X79215Y46128*
X79232Y46258*
X79244Y46389*
X79249Y46520*
Y46521D02*
G01X79255Y46686D01*
X79269Y46851*
X79290Y47016*
X79320Y47179*
X79357Y47340*
X79401Y47500*
X79454Y47657*
X79513Y47811*
X79580Y47963*
X79654Y48111*
X79735Y48255*
X79823Y48396*
X79918Y48532*
X80018Y48663*
X80125Y48790*
X80238Y48911*
X80357Y49027*
X80480Y49137*
X80609Y49241*
X80743Y49339*
X80881Y49430*
X81024Y49515*
X81170Y49592*
X81320Y49663*
X81473Y49726*
X81629Y49783*
X81787Y49831*
X81948Y49872*
X82110Y49905*
X82274Y49931*
X82438Y49949*
X82604Y49959*
X82769Y49961*
Y49960D02*
G01X93649D01*
Y49961D02*
G01X93768Y49958D01*
X93886Y49949*
X94003Y49935*
X94120Y49915*
X94236Y49889*
X94350Y49858*
X94463Y49821*
X94574Y49779*
X94682Y49731*
X94789Y49679*
X94892Y49621*
X94993Y49558*
X95090Y49490*
X95184Y49418*
X95274Y49341*
X95361Y49260*
X95443Y49175*
X95522Y49086*
X95595Y48993*
X95665Y48897*
X95729Y48797*
X95789Y48695*
X95843Y48590*
X95893Y48482*
X95937Y48372*
X95975Y48260*
X96008Y48146*
X96036Y48031*
X96058Y47914*
X96074Y47797*
X96085Y47678*
X96090Y47560*
X96089Y47441*
X96082Y47323*
X96070Y47205*
X96051Y47088*
X96028Y46972*
X95998Y46857*
X95963Y46744*
X95923Y46632*
X95877Y46523*
X95826Y46416*
X95770Y46311*
X95709Y46210*
X95643Y46111*
X95572Y46016*
X95497Y45925*
X95417Y45837*
X95333Y45753*
X95245Y45673*
X95154Y45598*
X95059Y45527*
X94960Y45461*
X94859Y45400*
X94754Y45344*
X94647Y45293*
X94538Y45247*
X94427Y45206*
X94313Y45171*
X94199Y45142*
X94082Y45118*
X93965Y45100*
X93847Y45087*
X93729Y45080*
Y40600*
X93846Y40597*
X93963Y40589*
X94079Y40575*
X94194Y40555*
X94308Y40530*
X94421Y40499*
X94532Y40463*
X94642Y40421*
X94749Y40375*
X94854Y40323*
X94956Y40266*
X95055Y40204*
X95151Y40138*
X95244Y40067*
X95334Y39991*
X95419Y39912*
X95501Y39828*
X95579Y39741*
X95652Y39649*
X95721Y39555*
X95785Y39457*
X95844Y39356*
X95898Y39253*
X95948Y39146*
X95992Y39038*
X96031Y38928*
X96064Y38816*
X96092Y38702*
X96114Y38587*
X96131Y38472*
X96143Y38355*
X96148Y38238*
Y38122*
X96143Y38005*
X96131Y37888*
X96114Y37773*
X96092Y37658*
X96064Y37544*
X96031Y37432*
X95992Y37322*
X95948Y37214*
X95898Y37107*
X95844Y37004*
X95785Y36903*
X95721Y36805*
X95652Y36711*
X95579Y36619*
X95501Y36532*
X95419Y36448*
X95334Y36369*
X95244Y36293*
X95151Y36222*
X95055Y36156*
X94956Y36094*
X94854Y36037*
X94749Y35985*
X94642Y35939*
X94532Y35897*
X94421Y35861*
X94308Y35830*
X94194Y35805*
X94079Y35785*
X93963Y35771*
X93846Y35763*
X93729Y35760*
X4969*
X4970D02*
G01X4961Y35649D01*
X4946Y35539*
X4926Y35429*
X4901Y35320*
X4871Y35213*
X4836Y35107*
X4795Y35003*
X4750Y34901*
X4700Y34801*
X4646Y34704*
X4586Y34609*
X4523Y34517*
X4455Y34429*
X4383Y34344*
X4307Y34262*
X4227Y34184*
X4143Y34110*
X4056Y34040*
X3966Y33974*
X3873Y33913*
X3777Y33856*
X3679Y33804*
X3578Y33756*
X3474Y33713*
X3369Y33676*
X3263Y33643*
X3155Y33615*
X3045Y33593*
X2935Y33576*
X2824Y33564*
X2713Y33557*
X2601Y33556*
X2490Y33560*
X2489D02*
G01X2377Y33554D01*
X2264Y33552*
X2151Y33556*
X2039Y33565*
X1927Y33580*
X1816Y33600*
X1706Y33625*
X1598Y33655*
X1491Y33691*
X1386Y33731*
X1282Y33777*
X1182Y33827*
X1083Y33882*
X988Y33942*
X895Y34006*
X805Y34074*
X719Y34147*
X637Y34224*
X558Y34304*
X483Y34388*
X412Y34476*
X346Y34567*
X283Y34661*
X226Y34758*
X173Y34857*
X125Y34959*
X81Y35063*
X43Y35169*
X10Y35277*
X-18Y35386*
X-41Y35497*
X-58Y35608*
X-71Y35720*
G54D86*
X1159Y35600D02*
G01X1161Y35670D01*
X1167Y35740*
X1177Y35809*
X1190Y35878*
X1208Y35946*
X1229Y36013*
X1254Y36078*
X1283Y36142*
X1315Y36205*
X1351Y36265*
X1390Y36323*
X1432Y36379*
X1477Y36433*
X1525Y36484*
X1576Y36532*
X1630Y36577*
X1686Y36619*
X1744Y36658*
X1804Y36694*
X1867Y36726*
X1931Y36755*
X1996Y36780*
X2063Y36801*
X2131Y36819*
X2200Y36832*
X2269Y36842*
X2339Y36848*
X2409Y36850*
X2479Y36848*
X2549Y36842*
X2618Y36832*
X2687Y36819*
X2755Y36801*
X2822Y36780*
X2887Y36755*
X2951Y36726*
X3014Y36694*
X3074Y36658*
X3132Y36619*
X3188Y36577*
X3242Y36532*
X3293Y36484*
X3341Y36433*
X3386Y36379*
X3428Y36323*
X3467Y36265*
X3503Y36205*
X3535Y36142*
X3564Y36078*
X3589Y36013*
X3610Y35946*
X3628Y35878*
X3641Y35809*
X3651Y35740*
X3657Y35670*
X3659Y35600*
X3657Y35530*
X3651Y35460*
X3641Y35391*
X3628Y35322*
X3610Y35254*
X3589Y35187*
X3564Y35122*
X3535Y35058*
X3503Y34995*
X3467Y34935*
X3428Y34877*
X3386Y34821*
X3341Y34767*
X3293Y34716*
X3242Y34668*
X3188Y34623*
X3132Y34581*
X3074Y34542*
X3014Y34506*
X2951Y34474*
X2887Y34445*
X2822Y34420*
X2755Y34399*
X2687Y34381*
X2618Y34368*
X2549Y34358*
X2479Y34352*
X2409Y34350*
X2339Y34352*
X2269Y34358*
X2200Y34368*
X2131Y34381*
X2063Y34399*
X1996Y34420*
X1931Y34445*
X1867Y34474*
X1804Y34506*
X1744Y34542*
X1686Y34581*
X1630Y34623*
X1576Y34668*
X1525Y34716*
X1477Y34767*
X1432Y34821*
X1390Y34877*
X1351Y34935*
X1315Y34995*
X1283Y35058*
X1254Y35122*
X1229Y35187*
X1208Y35254*
X1190Y35322*
X1177Y35391*
X1167Y35460*
X1161Y35530*
X1159Y35600*
X1479Y41120D02*
G01X1481Y41190D01*
X1487Y41260*
X1497Y41329*
X1510Y41398*
X1528Y41466*
X1549Y41533*
X1574Y41598*
X1603Y41662*
X1635Y41725*
X1671Y41785*
X1710Y41843*
X1752Y41899*
X1797Y41953*
X1845Y42004*
X1896Y42052*
X1950Y42097*
X2006Y42139*
X2064Y42178*
X2124Y42214*
X2187Y42246*
X2251Y42275*
X2316Y42300*
X2383Y42321*
X2451Y42339*
X2520Y42352*
X2589Y42362*
X2659Y42368*
X2729Y42370*
X2799Y42368*
X2869Y42362*
X2938Y42352*
X3007Y42339*
X3075Y42321*
X3142Y42300*
X3207Y42275*
X3271Y42246*
X3334Y42214*
X3394Y42178*
X3452Y42139*
X3508Y42097*
X3562Y42052*
X3613Y42004*
X3661Y41953*
X3706Y41899*
X3748Y41843*
X3787Y41785*
X3823Y41725*
X3855Y41662*
X3884Y41598*
X3909Y41533*
X3930Y41466*
X3948Y41398*
X3961Y41329*
X3971Y41260*
X3977Y41190*
X3979Y41120*
X3977Y41050*
X3971Y40980*
X3961Y40911*
X3948Y40842*
X3930Y40774*
X3909Y40707*
X3884Y40642*
X3855Y40578*
X3823Y40515*
X3787Y40455*
X3748Y40397*
X3706Y40341*
X3661Y40287*
X3613Y40236*
X3562Y40188*
X3508Y40143*
X3452Y40101*
X3394Y40062*
X3334Y40026*
X3271Y39994*
X3207Y39965*
X3142Y39940*
X3075Y39919*
X3007Y39901*
X2938Y39888*
X2869Y39878*
X2799Y39872*
X2729Y39870*
X2659Y39872*
X2589Y39878*
X2520Y39888*
X2451Y39901*
X2383Y39919*
X2316Y39940*
X2251Y39965*
X2187Y39994*
X2124Y40026*
X2064Y40062*
X2006Y40101*
X1950Y40143*
X1896Y40188*
X1845Y40236*
X1797Y40287*
X1752Y40341*
X1710Y40397*
X1671Y40455*
X1635Y40515*
X1603Y40578*
X1574Y40642*
X1549Y40707*
X1528Y40774*
X1510Y40842*
X1497Y40911*
X1487Y40980*
X1481Y41050*
X1479Y41120*
X80579Y47180D02*
G01X80581Y47250D01*
X80587Y47320*
X80597Y47389*
X80610Y47458*
X80628Y47526*
X80649Y47593*
X80674Y47658*
X80703Y47722*
X80735Y47785*
X80771Y47845*
X80810Y47903*
X80852Y47959*
X80897Y48013*
X80945Y48064*
X80996Y48112*
X81050Y48157*
X81106Y48199*
X81164Y48238*
X81224Y48274*
X81287Y48306*
X81351Y48335*
X81416Y48360*
X81483Y48381*
X81551Y48399*
X81620Y48412*
X81689Y48422*
X81759Y48428*
X81829Y48430*
X81899Y48428*
X81969Y48422*
X82038Y48412*
X82107Y48399*
X82175Y48381*
X82242Y48360*
X82307Y48335*
X82371Y48306*
X82434Y48274*
X82494Y48238*
X82552Y48199*
X82608Y48157*
X82662Y48112*
X82713Y48064*
X82761Y48013*
X82806Y47959*
X82848Y47903*
X82887Y47845*
X82923Y47785*
X82955Y47722*
X82984Y47658*
X83009Y47593*
X83030Y47526*
X83048Y47458*
X83061Y47389*
X83071Y47320*
X83077Y47250*
X83079Y47180*
X83077Y47110*
X83071Y47040*
X83061Y46971*
X83048Y46902*
X83030Y46834*
X83009Y46767*
X82984Y46702*
X82955Y46638*
X82923Y46575*
X82887Y46515*
X82848Y46457*
X82806Y46401*
X82761Y46347*
X82713Y46296*
X82662Y46248*
X82608Y46203*
X82552Y46161*
X82494Y46122*
X82434Y46086*
X82371Y46054*
X82307Y46025*
X82242Y46000*
X82175Y45979*
X82107Y45961*
X82038Y45948*
X81969Y45938*
X81899Y45932*
X81829Y45930*
X81759Y45932*
X81689Y45938*
X81620Y45948*
X81551Y45961*
X81483Y45979*
X81416Y46000*
X81351Y46025*
X81287Y46054*
X81224Y46086*
X81164Y46122*
X81106Y46161*
X81050Y46203*
X80996Y46248*
X80945Y46296*
X80897Y46347*
X80852Y46401*
X80810Y46457*
X80771Y46515*
X80735Y46575*
X80703Y46638*
X80674Y46702*
X80649Y46767*
X80628Y46834*
X80610Y46902*
X80597Y46971*
X80587Y47040*
X80581Y47110*
X80579Y47180*
X92239Y47480D02*
G01X92241Y47550D01*
X92247Y47620*
X92257Y47689*
X92270Y47758*
X92288Y47826*
X92309Y47893*
X92334Y47958*
X92363Y48022*
X92395Y48085*
X92431Y48145*
X92470Y48203*
X92512Y48259*
X92557Y48313*
X92605Y48364*
X92656Y48412*
X92710Y48457*
X92766Y48499*
X92824Y48538*
X92884Y48574*
X92947Y48606*
X93011Y48635*
X93076Y48660*
X93143Y48681*
X93211Y48699*
X93280Y48712*
X93349Y48722*
X93419Y48728*
X93489Y48730*
X93559Y48728*
X93629Y48722*
X93698Y48712*
X93767Y48699*
X93835Y48681*
X93902Y48660*
X93967Y48635*
X94031Y48606*
X94094Y48574*
X94154Y48538*
X94212Y48499*
X94268Y48457*
X94322Y48412*
X94373Y48364*
X94421Y48313*
X94466Y48259*
X94508Y48203*
X94547Y48145*
X94583Y48085*
X94615Y48022*
X94644Y47958*
X94669Y47893*
X94690Y47826*
X94708Y47758*
X94721Y47689*
X94731Y47620*
X94737Y47550*
X94739Y47480*
X94737Y47410*
X94731Y47340*
X94721Y47271*
X94708Y47202*
X94690Y47134*
X94669Y47067*
X94644Y47002*
X94615Y46938*
X94583Y46875*
X94547Y46815*
X94508Y46757*
X94466Y46701*
X94421Y46647*
X94373Y46596*
X94322Y46548*
X94268Y46503*
X94212Y46461*
X94154Y46422*
X94094Y46386*
X94031Y46354*
X93967Y46325*
X93902Y46300*
X93835Y46279*
X93767Y46261*
X93698Y46248*
X93629Y46238*
X93559Y46232*
X93489Y46230*
X93419Y46232*
X93349Y46238*
X93280Y46248*
X93211Y46261*
X93143Y46279*
X93076Y46300*
X93011Y46325*
X92947Y46354*
X92884Y46386*
X92824Y46422*
X92766Y46461*
X92710Y46503*
X92656Y46548*
X92605Y46596*
X92557Y46647*
X92512Y46701*
X92470Y46757*
X92431Y46815*
X92395Y46875*
X92363Y46938*
X92334Y47002*
X92309Y47067*
X92288Y47134*
X92270Y47202*
X92257Y47271*
X92247Y47340*
X92241Y47410*
X92239Y47480*
X92359Y38160D02*
G01X92361Y38230D01*
X92367Y38300*
X92377Y38369*
X92390Y38438*
X92408Y38506*
X92429Y38573*
X92454Y38638*
X92483Y38702*
X92515Y38765*
X92551Y38825*
X92590Y38883*
X92632Y38939*
X92677Y38993*
X92725Y39044*
X92776Y39092*
X92830Y39137*
X92886Y39179*
X92944Y39218*
X93004Y39254*
X93067Y39286*
X93131Y39315*
X93196Y39340*
X93263Y39361*
X93331Y39379*
X93400Y39392*
X93469Y39402*
X93539Y39408*
X93609Y39410*
X93679Y39408*
X93749Y39402*
X93818Y39392*
X93887Y39379*
X93955Y39361*
X94022Y39340*
X94087Y39315*
X94151Y39286*
X94214Y39254*
X94274Y39218*
X94332Y39179*
X94388Y39137*
X94442Y39092*
X94493Y39044*
X94541Y38993*
X94586Y38939*
X94628Y38883*
X94667Y38825*
X94703Y38765*
X94735Y38702*
X94764Y38638*
X94789Y38573*
X94810Y38506*
X94828Y38438*
X94841Y38369*
X94851Y38300*
X94857Y38230*
X94859Y38160*
X94857Y38090*
X94851Y38020*
X94841Y37951*
X94828Y37882*
X94810Y37814*
X94789Y37747*
X94764Y37682*
X94735Y37618*
X94703Y37555*
X94667Y37495*
X94628Y37437*
X94586Y37381*
X94541Y37327*
X94493Y37276*
X94442Y37228*
X94388Y37183*
X94332Y37141*
X94274Y37102*
X94214Y37066*
X94151Y37034*
X94087Y37005*
X94022Y36980*
X93955Y36959*
X93887Y36941*
X93818Y36928*
X93749Y36918*
X93679Y36912*
X93609Y36910*
X93539Y36912*
X93469Y36918*
X93400Y36928*
X93331Y36941*
X93263Y36959*
X93196Y36980*
X93131Y37005*
X93067Y37034*
X93004Y37066*
X92944Y37102*
X92886Y37141*
X92830Y37183*
X92776Y37228*
X92725Y37276*
X92677Y37327*
X92632Y37381*
X92590Y37437*
X92551Y37495*
X92515Y37555*
X92483Y37618*
X92454Y37682*
X92429Y37747*
X92408Y37814*
X92390Y37882*
X92377Y37951*
X92367Y38020*
X92361Y38090*
X92359Y38160*
G54D37*
X95905Y59400D02*
G01Y52920D01*
Y52919D02*
G01X95899Y52839D01*
X95890Y52760*
X95877Y52681*
X95860Y52603*
X95839Y52525*
X95815Y52449*
X95787Y52374*
X95755Y52300*
X95720Y52228*
X95682Y52158*
X95640Y52090*
X95595Y52023*
X95547Y51959*
X95496Y51898*
X95442Y51838*
X95386Y51782*
X95326Y51728*
X95265Y51677*
X95201Y51629*
X95134Y51584*
X95066Y51542*
X94996Y51504*
X94924Y51469*
X94850Y51437*
X94775Y51410*
X94699Y51385*
X94622Y51364*
X94543Y51347*
X94464Y51334*
X94385Y51325*
X94305Y51319*
X94225Y51317*
X94145Y51319*
Y51320D02*
G01X19385D01*
X19254Y51318*
X19122Y51311*
X18992Y51297*
X18862Y51277*
X18733Y51251*
X18606Y51219*
X18480Y51181*
X18356Y51137*
X18235Y51087*
X18116Y51031*
X18000Y50970*
X17887Y50903*
X17777Y50831*
X17670Y50754*
X17568Y50672*
X17470Y50585*
X17375Y50493*
X17286Y50397*
X17200Y50297*
X17120Y50193*
X17045Y50086*
X16975Y49974*
X16910Y49860*
X16851Y49743*
X16798Y49623*
X16750Y49500*
X16708Y49376*
X16673Y49249*
X16643Y49122*
X16619Y48992*
X16602Y48862*
X16590Y48731*
X16585Y48600*
Y48599D02*
G01X16579Y48434D01*
X16565Y48269*
X16544Y48104*
X16514Y47941*
X16477Y47780*
X16433Y47620*
X16380Y47463*
X16321Y47309*
X16254Y47157*
X16180Y47009*
X16099Y46865*
X16011Y46724*
X15916Y46588*
X15816Y46457*
X15709Y46330*
X15596Y46209*
X15477Y46093*
X15354Y45983*
X15225Y45879*
X15091Y45781*
X14953Y45690*
X14810Y45605*
X14664Y45528*
X14514Y45457*
X14361Y45394*
X14205Y45337*
X14047Y45289*
X13886Y45248*
X13724Y45215*
X13560Y45189*
X13396Y45171*
X13230Y45161*
X13065Y45159*
Y45160D02*
G01X2185D01*
Y45159D02*
G01X2066Y45162D01*
X1948Y45171*
X1831Y45185*
X1714Y45205*
X1598Y45231*
X1484Y45262*
X1371Y45299*
X1260Y45341*
X1152Y45389*
X1045Y45441*
X942Y45499*
X841Y45562*
X744Y45630*
X650Y45702*
X560Y45779*
X473Y45860*
X391Y45945*
X312Y46034*
X239Y46127*
X169Y46223*
X105Y46323*
X45Y46425*
X-9Y46530*
X-59Y46638*
X-103Y46748*
X-141Y46860*
X-174Y46974*
X-202Y47089*
X-224Y47206*
X-240Y47323*
X-251Y47442*
X-256Y47560*
X-255Y47679*
X-248Y47797*
X-236Y47915*
X-217Y48032*
X-194Y48148*
X-164Y48263*
X-129Y48376*
X-89Y48488*
X-43Y48597*
X8Y48704*
X64Y48809*
X125Y48910*
X191Y49009*
X262Y49104*
X337Y49195*
X417Y49283*
X501Y49367*
X589Y49447*
X680Y49522*
X775Y49593*
X874Y49659*
X975Y49720*
X1080Y49776*
X1187Y49827*
X1296Y49873*
X1407Y49914*
X1521Y49949*
X1635Y49978*
X1752Y50002*
X1869Y50020*
X1987Y50033*
X2105Y50040*
Y54520*
X1988Y54523*
X1871Y54531*
X1755Y54545*
X1640Y54565*
X1526Y54590*
X1413Y54621*
X1302Y54657*
X1192Y54699*
X1085Y54745*
X980Y54797*
X878Y54854*
X779Y54916*
X683Y54982*
X590Y55053*
X500Y55129*
X415Y55208*
X333Y55292*
X255Y55379*
X182Y55471*
X113Y55565*
X49Y55663*
X-10Y55764*
X-64Y55867*
X-114Y55974*
X-158Y56082*
X-197Y56192*
X-230Y56304*
X-258Y56418*
X-280Y56533*
X-297Y56648*
X-309Y56765*
X-314Y56882*
Y56998*
X-309Y57115*
X-297Y57232*
X-280Y57347*
X-258Y57462*
X-230Y57576*
X-197Y57688*
X-158Y57798*
X-114Y57906*
X-64Y58013*
X-10Y58116*
X49Y58217*
X113Y58315*
X182Y58409*
X255Y58501*
X333Y58588*
X415Y58672*
X500Y58751*
X590Y58827*
X683Y58898*
X779Y58964*
X878Y59026*
X980Y59083*
X1085Y59135*
X1192Y59181*
X1302Y59223*
X1413Y59259*
X1526Y59290*
X1640Y59315*
X1755Y59335*
X1871Y59349*
X1988Y59357*
X2105Y59360*
X90865*
X90864D02*
G01X90873Y59471D01*
X90888Y59581*
X90908Y59691*
X90933Y59800*
X90963Y59907*
X90998Y60013*
X91039Y60117*
X91084Y60219*
X91134Y60319*
X91188Y60416*
X91248Y60511*
X91311Y60603*
X91379Y60691*
X91451Y60776*
X91527Y60858*
X91607Y60936*
X91691Y61010*
X91778Y61080*
X91868Y61146*
X91961Y61207*
X92057Y61264*
X92155Y61316*
X92256Y61364*
X92360Y61407*
X92465Y61444*
X92571Y61477*
X92679Y61505*
X92789Y61527*
X92899Y61544*
X93010Y61556*
X93121Y61563*
X93233Y61564*
X93344Y61560*
X93345D02*
G01X93457Y61566D01*
X93570Y61568*
X93683Y61564*
X93795Y61555*
X93907Y61540*
X94018Y61520*
X94128Y61495*
X94236Y61465*
X94343Y61429*
X94448Y61389*
X94552Y61343*
X94652Y61293*
X94751Y61238*
X94846Y61178*
X94939Y61114*
X95029Y61046*
X95115Y60973*
X95197Y60896*
X95276Y60816*
X95351Y60732*
X95422Y60644*
X95488Y60553*
X95551Y60459*
X95608Y60362*
X95661Y60263*
X95709Y60161*
X95753Y60057*
X95791Y59951*
X95824Y59843*
X95852Y59734*
X95875Y59623*
X95892Y59512*
X95905Y59400*
G54D86*
X94675Y59520D02*
G01X94673Y59450D01*
X94667Y59380*
X94657Y59311*
X94644Y59242*
X94626Y59174*
X94605Y59107*
X94580Y59042*
X94551Y58978*
X94519Y58915*
X94483Y58855*
X94444Y58797*
X94402Y58741*
X94357Y58687*
X94309Y58636*
X94258Y58588*
X94204Y58543*
X94148Y58501*
X94090Y58462*
X94030Y58426*
X93967Y58394*
X93903Y58365*
X93838Y58340*
X93771Y58319*
X93703Y58301*
X93634Y58288*
X93565Y58278*
X93495Y58272*
X93425Y58270*
X93355Y58272*
X93285Y58278*
X93216Y58288*
X93147Y58301*
X93079Y58319*
X93012Y58340*
X92947Y58365*
X92883Y58394*
X92820Y58426*
X92760Y58462*
X92702Y58501*
X92646Y58543*
X92592Y58588*
X92541Y58636*
X92493Y58687*
X92448Y58741*
X92406Y58797*
X92367Y58855*
X92331Y58915*
X92299Y58978*
X92270Y59042*
X92245Y59107*
X92224Y59174*
X92206Y59242*
X92193Y59311*
X92183Y59380*
X92177Y59450*
X92175Y59520*
X92177Y59590*
X92183Y59660*
X92193Y59729*
X92206Y59798*
X92224Y59866*
X92245Y59933*
X92270Y59998*
X92299Y60062*
X92331Y60125*
X92367Y60185*
X92406Y60243*
X92448Y60299*
X92493Y60353*
X92541Y60404*
X92592Y60452*
X92646Y60497*
X92702Y60539*
X92760Y60578*
X92820Y60614*
X92883Y60646*
X92947Y60675*
X93012Y60700*
X93079Y60721*
X93147Y60739*
X93216Y60752*
X93285Y60762*
X93355Y60768*
X93425Y60770*
X93495Y60768*
X93565Y60762*
X93634Y60752*
X93703Y60739*
X93771Y60721*
X93838Y60700*
X93903Y60675*
X93967Y60646*
X94030Y60614*
X94090Y60578*
X94148Y60539*
X94204Y60497*
X94258Y60452*
X94309Y60404*
X94357Y60353*
X94402Y60299*
X94444Y60243*
X94483Y60185*
X94519Y60125*
X94551Y60062*
X94580Y59998*
X94605Y59933*
X94626Y59866*
X94644Y59798*
X94657Y59729*
X94667Y59660*
X94673Y59590*
X94675Y59520*
X94355Y54000D02*
G01X94353Y53930D01*
X94347Y53860*
X94337Y53791*
X94324Y53722*
X94306Y53654*
X94285Y53587*
X94260Y53522*
X94231Y53458*
X94199Y53395*
X94163Y53335*
X94124Y53277*
X94082Y53221*
X94037Y53167*
X93989Y53116*
X93938Y53068*
X93884Y53023*
X93828Y52981*
X93770Y52942*
X93710Y52906*
X93647Y52874*
X93583Y52845*
X93518Y52820*
X93451Y52799*
X93383Y52781*
X93314Y52768*
X93245Y52758*
X93175Y52752*
X93105Y52750*
X93035Y52752*
X92965Y52758*
X92896Y52768*
X92827Y52781*
X92759Y52799*
X92692Y52820*
X92627Y52845*
X92563Y52874*
X92500Y52906*
X92440Y52942*
X92382Y52981*
X92326Y53023*
X92272Y53068*
X92221Y53116*
X92173Y53167*
X92128Y53221*
X92086Y53277*
X92047Y53335*
X92011Y53395*
X91979Y53458*
X91950Y53522*
X91925Y53587*
X91904Y53654*
X91886Y53722*
X91873Y53791*
X91863Y53860*
X91857Y53930*
X91855Y54000*
X91857Y54070*
X91863Y54140*
X91873Y54209*
X91886Y54278*
X91904Y54346*
X91925Y54413*
X91950Y54478*
X91979Y54542*
X92011Y54605*
X92047Y54665*
X92086Y54723*
X92128Y54779*
X92173Y54833*
X92221Y54884*
X92272Y54932*
X92326Y54977*
X92382Y55019*
X92440Y55058*
X92500Y55094*
X92563Y55126*
X92627Y55155*
X92692Y55180*
X92759Y55201*
X92827Y55219*
X92896Y55232*
X92965Y55242*
X93035Y55248*
X93105Y55250*
X93175Y55248*
X93245Y55242*
X93314Y55232*
X93383Y55219*
X93451Y55201*
X93518Y55180*
X93583Y55155*
X93647Y55126*
X93710Y55094*
X93770Y55058*
X93828Y55019*
X93884Y54977*
X93938Y54932*
X93989Y54884*
X94037Y54833*
X94082Y54779*
X94124Y54723*
X94163Y54665*
X94199Y54605*
X94231Y54542*
X94260Y54478*
X94285Y54413*
X94306Y54346*
X94324Y54278*
X94337Y54209*
X94347Y54140*
X94353Y54070*
X94355Y54000*
X15255Y47940D02*
G01X15253Y47870D01*
X15247Y47800*
X15237Y47731*
X15224Y47662*
X15206Y47594*
X15185Y47527*
X15160Y47462*
X15131Y47398*
X15099Y47335*
X15063Y47275*
X15024Y47217*
X14982Y47161*
X14937Y47107*
X14889Y47056*
X14838Y47008*
X14784Y46963*
X14728Y46921*
X14670Y46882*
X14610Y46846*
X14547Y46814*
X14483Y46785*
X14418Y46760*
X14351Y46739*
X14283Y46721*
X14214Y46708*
X14145Y46698*
X14075Y46692*
X14005Y46690*
X13935Y46692*
X13865Y46698*
X13796Y46708*
X13727Y46721*
X13659Y46739*
X13592Y46760*
X13527Y46785*
X13463Y46814*
X13400Y46846*
X13340Y46882*
X13282Y46921*
X13226Y46963*
X13172Y47008*
X13121Y47056*
X13073Y47107*
X13028Y47161*
X12986Y47217*
X12947Y47275*
X12911Y47335*
X12879Y47398*
X12850Y47462*
X12825Y47527*
X12804Y47594*
X12786Y47662*
X12773Y47731*
X12763Y47800*
X12757Y47870*
X12755Y47940*
X12757Y48010*
X12763Y48080*
X12773Y48149*
X12786Y48218*
X12804Y48286*
X12825Y48353*
X12850Y48418*
X12879Y48482*
X12911Y48545*
X12947Y48605*
X12986Y48663*
X13028Y48719*
X13073Y48773*
X13121Y48824*
X13172Y48872*
X13226Y48917*
X13282Y48959*
X13340Y48998*
X13400Y49034*
X13463Y49066*
X13527Y49095*
X13592Y49120*
X13659Y49141*
X13727Y49159*
X13796Y49172*
X13865Y49182*
X13935Y49188*
X14005Y49190*
X14075Y49188*
X14145Y49182*
X14214Y49172*
X14283Y49159*
X14351Y49141*
X14418Y49120*
X14483Y49095*
X14547Y49066*
X14610Y49034*
X14670Y48998*
X14728Y48959*
X14784Y48917*
X14838Y48872*
X14889Y48824*
X14937Y48773*
X14982Y48719*
X15024Y48663*
X15063Y48605*
X15099Y48545*
X15131Y48482*
X15160Y48418*
X15185Y48353*
X15206Y48286*
X15224Y48218*
X15237Y48149*
X15247Y48080*
X15253Y48010*
X15255Y47940*
X3595Y47640D02*
G01X3593Y47570D01*
X3587Y47500*
X3577Y47431*
X3564Y47362*
X3546Y47294*
X3525Y47227*
X3500Y47162*
X3471Y47098*
X3439Y47035*
X3403Y46975*
X3364Y46917*
X3322Y46861*
X3277Y46807*
X3229Y46756*
X3178Y46708*
X3124Y46663*
X3068Y46621*
X3010Y46582*
X2950Y46546*
X2887Y46514*
X2823Y46485*
X2758Y46460*
X2691Y46439*
X2623Y46421*
X2554Y46408*
X2485Y46398*
X2415Y46392*
X2345Y46390*
X2275Y46392*
X2205Y46398*
X2136Y46408*
X2067Y46421*
X1999Y46439*
X1932Y46460*
X1867Y46485*
X1803Y46514*
X1740Y46546*
X1680Y46582*
X1622Y46621*
X1566Y46663*
X1512Y46708*
X1461Y46756*
X1413Y46807*
X1368Y46861*
X1326Y46917*
X1287Y46975*
X1251Y47035*
X1219Y47098*
X1190Y47162*
X1165Y47227*
X1144Y47294*
X1126Y47362*
X1113Y47431*
X1103Y47500*
X1097Y47570*
X1095Y47640*
X1097Y47710*
X1103Y47780*
X1113Y47849*
X1126Y47918*
X1144Y47986*
X1165Y48053*
X1190Y48118*
X1219Y48182*
X1251Y48245*
X1287Y48305*
X1326Y48363*
X1368Y48419*
X1413Y48473*
X1461Y48524*
X1512Y48572*
X1566Y48617*
X1622Y48659*
X1680Y48698*
X1740Y48734*
X1803Y48766*
X1867Y48795*
X1932Y48820*
X1999Y48841*
X2067Y48859*
X2136Y48872*
X2205Y48882*
X2275Y48888*
X2345Y48890*
X2415Y48888*
X2485Y48882*
X2554Y48872*
X2623Y48859*
X2691Y48841*
X2758Y48820*
X2823Y48795*
X2887Y48766*
X2950Y48734*
X3010Y48698*
X3068Y48659*
X3124Y48617*
X3178Y48572*
X3229Y48524*
X3277Y48473*
X3322Y48419*
X3364Y48363*
X3403Y48305*
X3439Y48245*
X3471Y48182*
X3500Y48118*
X3525Y48053*
X3546Y47986*
X3564Y47918*
X3577Y47849*
X3587Y47780*
X3593Y47710*
X3595Y47640*
X3475Y56960D02*
G01X3473Y56890D01*
X3467Y56820*
X3457Y56751*
X3444Y56682*
X3426Y56614*
X3405Y56547*
X3380Y56482*
X3351Y56418*
X3319Y56355*
X3283Y56295*
X3244Y56237*
X3202Y56181*
X3157Y56127*
X3109Y56076*
X3058Y56028*
X3004Y55983*
X2948Y55941*
X2890Y55902*
X2830Y55866*
X2767Y55834*
X2703Y55805*
X2638Y55780*
X2571Y55759*
X2503Y55741*
X2434Y55728*
X2365Y55718*
X2295Y55712*
X2225Y55710*
X2155Y55712*
X2085Y55718*
X2016Y55728*
X1947Y55741*
X1879Y55759*
X1812Y55780*
X1747Y55805*
X1683Y55834*
X1620Y55866*
X1560Y55902*
X1502Y55941*
X1446Y55983*
X1392Y56028*
X1341Y56076*
X1293Y56127*
X1248Y56181*
X1206Y56237*
X1167Y56295*
X1131Y56355*
X1099Y56418*
X1070Y56482*
X1045Y56547*
X1024Y56614*
X1006Y56682*
X993Y56751*
X983Y56820*
X977Y56890*
X975Y56960*
X977Y57030*
X983Y57100*
X993Y57169*
X1006Y57238*
X1024Y57306*
X1045Y57373*
X1070Y57438*
X1099Y57502*
X1131Y57565*
X1167Y57625*
X1206Y57683*
X1248Y57739*
X1293Y57793*
X1341Y57844*
X1392Y57892*
X1446Y57937*
X1502Y57979*
X1560Y58018*
X1620Y58054*
X1683Y58086*
X1747Y58115*
X1812Y58140*
X1879Y58161*
X1947Y58179*
X2016Y58192*
X2085Y58202*
X2155Y58208*
X2225Y58210*
X2295Y58208*
X2365Y58202*
X2434Y58192*
X2503Y58179*
X2571Y58161*
X2638Y58140*
X2703Y58115*
X2767Y58086*
X2830Y58054*
X2890Y58018*
X2948Y57979*
X3004Y57937*
X3058Y57892*
X3109Y57844*
X3157Y57793*
X3202Y57739*
X3244Y57683*
X3283Y57625*
X3319Y57565*
X3351Y57502*
X3380Y57438*
X3405Y57373*
X3426Y57306*
X3444Y57238*
X3457Y57169*
X3467Y57100*
X3473Y57030*
X3475Y56960*
G54D37*
X-971Y93961D02*
G01Y100441D01*
Y100442D02*
G01X-965Y100522D01*
X-956Y100601*
X-943Y100680*
X-926Y100758*
X-905Y100836*
X-881Y100912*
X-853Y100987*
X-821Y101061*
X-786Y101133*
X-748Y101203*
X-706Y101271*
X-661Y101338*
X-613Y101402*
X-562Y101463*
X-508Y101523*
X-452Y101579*
X-392Y101633*
X-331Y101684*
X-267Y101732*
X-200Y101777*
X-132Y101819*
X-62Y101857*
X10Y101892*
X84Y101924*
X159Y101951*
X235Y101976*
X312Y101997*
X391Y102014*
X470Y102027*
X549Y102036*
X629Y102042*
X709Y102044*
X789Y102042*
Y102041D02*
G01X75549D01*
X75680Y102043*
X75812Y102050*
X75942Y102064*
X76072Y102084*
X76201Y102110*
X76328Y102142*
X76454Y102180*
X76578Y102224*
X76699Y102274*
X76818Y102330*
X76934Y102391*
X77047Y102458*
X77157Y102530*
X77264Y102607*
X77366Y102689*
X77464Y102776*
X77559Y102868*
X77648Y102964*
X77734Y103064*
X77814Y103168*
X77889Y103275*
X77959Y103387*
X78024Y103501*
X78083Y103618*
X78136Y103738*
X78184Y103861*
X78226Y103985*
X78261Y104112*
X78291Y104239*
X78315Y104369*
X78332Y104499*
X78344Y104630*
X78349Y104761*
Y104762D02*
G01X78355Y104927D01*
X78369Y105092*
X78390Y105257*
X78420Y105420*
X78457Y105581*
X78501Y105741*
X78554Y105898*
X78613Y106052*
X78680Y106204*
X78754Y106352*
X78835Y106496*
X78923Y106637*
X79018Y106773*
X79118Y106904*
X79225Y107031*
X79338Y107152*
X79457Y107268*
X79580Y107378*
X79709Y107482*
X79843Y107580*
X79981Y107671*
X80124Y107756*
X80270Y107833*
X80420Y107904*
X80573Y107967*
X80729Y108024*
X80887Y108072*
X81048Y108113*
X81210Y108146*
X81374Y108172*
X81538Y108190*
X81704Y108200*
X81869Y108202*
Y108201D02*
G01X92749D01*
Y108202D02*
G01X92868Y108199D01*
X92986Y108190*
X93103Y108176*
X93220Y108156*
X93336Y108130*
X93450Y108099*
X93563Y108062*
X93674Y108020*
X93782Y107972*
X93889Y107920*
X93992Y107862*
X94093Y107799*
X94190Y107731*
X94284Y107659*
X94374Y107582*
X94461Y107501*
X94543Y107416*
X94622Y107327*
X94695Y107234*
X94765Y107138*
X94829Y107038*
X94889Y106936*
X94943Y106831*
X94993Y106723*
X95037Y106613*
X95075Y106501*
X95108Y106387*
X95136Y106272*
X95158Y106155*
X95174Y106038*
X95185Y105919*
X95190Y105801*
X95189Y105682*
X95182Y105564*
X95170Y105446*
X95151Y105329*
X95128Y105213*
X95098Y105098*
X95063Y104985*
X95023Y104873*
X94977Y104764*
X94926Y104657*
X94870Y104552*
X94809Y104451*
X94743Y104352*
X94672Y104257*
X94597Y104166*
X94517Y104078*
X94433Y103994*
X94345Y103914*
X94254Y103839*
X94159Y103768*
X94060Y103702*
X93959Y103641*
X93854Y103585*
X93747Y103534*
X93638Y103488*
X93527Y103447*
X93413Y103412*
X93299Y103383*
X93182Y103359*
X93065Y103341*
X92947Y103328*
X92829Y103321*
Y98841*
X92946Y98838*
X93063Y98830*
X93179Y98816*
X93294Y98796*
X93408Y98771*
X93521Y98740*
X93632Y98704*
X93742Y98662*
X93849Y98616*
X93954Y98564*
X94056Y98507*
X94155Y98445*
X94251Y98379*
X94344Y98308*
X94434Y98232*
X94519Y98153*
X94601Y98069*
X94679Y97982*
X94752Y97890*
X94821Y97796*
X94885Y97698*
X94944Y97597*
X94998Y97494*
X95048Y97387*
X95092Y97279*
X95131Y97169*
X95164Y97057*
X95192Y96943*
X95214Y96828*
X95231Y96713*
X95243Y96596*
X95248Y96479*
Y96363*
X95243Y96246*
X95231Y96129*
X95214Y96014*
X95192Y95899*
X95164Y95785*
X95131Y95673*
X95092Y95563*
X95048Y95455*
X94998Y95348*
X94944Y95245*
X94885Y95144*
X94821Y95046*
X94752Y94952*
X94679Y94860*
X94601Y94773*
X94519Y94689*
X94434Y94610*
X94344Y94534*
X94251Y94463*
X94155Y94397*
X94056Y94335*
X93954Y94278*
X93849Y94226*
X93742Y94180*
X93632Y94138*
X93521Y94102*
X93408Y94071*
X93294Y94046*
X93179Y94026*
X93063Y94012*
X92946Y94004*
X92829Y94001*
X4069*
X4070D02*
G01X4061Y93890D01*
X4046Y93780*
X4026Y93670*
X4001Y93561*
X3971Y93454*
X3936Y93348*
X3895Y93244*
X3850Y93142*
X3800Y93042*
X3746Y92945*
X3686Y92850*
X3623Y92758*
X3555Y92670*
X3483Y92585*
X3407Y92503*
X3327Y92425*
X3243Y92351*
X3156Y92281*
X3066Y92215*
X2973Y92154*
X2877Y92097*
X2779Y92045*
X2678Y91997*
X2574Y91954*
X2469Y91917*
X2363Y91884*
X2255Y91856*
X2145Y91834*
X2035Y91817*
X1924Y91805*
X1813Y91798*
X1701Y91797*
X1590Y91801*
X1589D02*
G01X1477Y91795D01*
X1364Y91793*
X1251Y91797*
X1139Y91806*
X1027Y91821*
X916Y91841*
X806Y91866*
X698Y91896*
X591Y91932*
X486Y91972*
X382Y92018*
X282Y92068*
X183Y92123*
X88Y92183*
X-5Y92247*
X-95Y92315*
X-181Y92388*
X-263Y92465*
X-342Y92545*
X-417Y92629*
X-488Y92717*
X-554Y92808*
X-617Y92902*
X-674Y92999*
X-727Y93098*
X-775Y93200*
X-819Y93304*
X-857Y93410*
X-890Y93518*
X-918Y93627*
X-941Y93738*
X-958Y93849*
X-971Y93961*
G54D86*
X259Y93841D02*
G01X261Y93911D01*
X267Y93981*
X277Y94050*
X290Y94119*
X308Y94187*
X329Y94254*
X354Y94319*
X383Y94383*
X415Y94446*
X451Y94506*
X490Y94564*
X532Y94620*
X577Y94674*
X625Y94725*
X676Y94773*
X730Y94818*
X786Y94860*
X844Y94899*
X904Y94935*
X967Y94967*
X1031Y94996*
X1096Y95021*
X1163Y95042*
X1231Y95060*
X1300Y95073*
X1369Y95083*
X1439Y95089*
X1509Y95091*
X1579Y95089*
X1649Y95083*
X1718Y95073*
X1787Y95060*
X1855Y95042*
X1922Y95021*
X1987Y94996*
X2051Y94967*
X2114Y94935*
X2174Y94899*
X2232Y94860*
X2288Y94818*
X2342Y94773*
X2393Y94725*
X2441Y94674*
X2486Y94620*
X2528Y94564*
X2567Y94506*
X2603Y94446*
X2635Y94383*
X2664Y94319*
X2689Y94254*
X2710Y94187*
X2728Y94119*
X2741Y94050*
X2751Y93981*
X2757Y93911*
X2759Y93841*
X2757Y93771*
X2751Y93701*
X2741Y93632*
X2728Y93563*
X2710Y93495*
X2689Y93428*
X2664Y93363*
X2635Y93299*
X2603Y93236*
X2567Y93176*
X2528Y93118*
X2486Y93062*
X2441Y93008*
X2393Y92957*
X2342Y92909*
X2288Y92864*
X2232Y92822*
X2174Y92783*
X2114Y92747*
X2051Y92715*
X1987Y92686*
X1922Y92661*
X1855Y92640*
X1787Y92622*
X1718Y92609*
X1649Y92599*
X1579Y92593*
X1509Y92591*
X1439Y92593*
X1369Y92599*
X1300Y92609*
X1231Y92622*
X1163Y92640*
X1096Y92661*
X1031Y92686*
X967Y92715*
X904Y92747*
X844Y92783*
X786Y92822*
X730Y92864*
X676Y92909*
X625Y92957*
X577Y93008*
X532Y93062*
X490Y93118*
X451Y93176*
X415Y93236*
X383Y93299*
X354Y93363*
X329Y93428*
X308Y93495*
X290Y93563*
X277Y93632*
X267Y93701*
X261Y93771*
X259Y93841*
X579Y99361D02*
G01X581Y99431D01*
X587Y99501*
X597Y99570*
X610Y99639*
X628Y99707*
X649Y99774*
X674Y99839*
X703Y99903*
X735Y99966*
X771Y100026*
X810Y100084*
X852Y100140*
X897Y100194*
X945Y100245*
X996Y100293*
X1050Y100338*
X1106Y100380*
X1164Y100419*
X1224Y100455*
X1287Y100487*
X1351Y100516*
X1416Y100541*
X1483Y100562*
X1551Y100580*
X1620Y100593*
X1689Y100603*
X1759Y100609*
X1829Y100611*
X1899Y100609*
X1969Y100603*
X2038Y100593*
X2107Y100580*
X2175Y100562*
X2242Y100541*
X2307Y100516*
X2371Y100487*
X2434Y100455*
X2494Y100419*
X2552Y100380*
X2608Y100338*
X2662Y100293*
X2713Y100245*
X2761Y100194*
X2806Y100140*
X2848Y100084*
X2887Y100026*
X2923Y99966*
X2955Y99903*
X2984Y99839*
X3009Y99774*
X3030Y99707*
X3048Y99639*
X3061Y99570*
X3071Y99501*
X3077Y99431*
X3079Y99361*
X3077Y99291*
X3071Y99221*
X3061Y99152*
X3048Y99083*
X3030Y99015*
X3009Y98948*
X2984Y98883*
X2955Y98819*
X2923Y98756*
X2887Y98696*
X2848Y98638*
X2806Y98582*
X2761Y98528*
X2713Y98477*
X2662Y98429*
X2608Y98384*
X2552Y98342*
X2494Y98303*
X2434Y98267*
X2371Y98235*
X2307Y98206*
X2242Y98181*
X2175Y98160*
X2107Y98142*
X2038Y98129*
X1969Y98119*
X1899Y98113*
X1829Y98111*
X1759Y98113*
X1689Y98119*
X1620Y98129*
X1551Y98142*
X1483Y98160*
X1416Y98181*
X1351Y98206*
X1287Y98235*
X1224Y98267*
X1164Y98303*
X1106Y98342*
X1050Y98384*
X996Y98429*
X945Y98477*
X897Y98528*
X852Y98582*
X810Y98638*
X771Y98696*
X735Y98756*
X703Y98819*
X674Y98883*
X649Y98948*
X628Y99015*
X610Y99083*
X597Y99152*
X587Y99221*
X581Y99291*
X579Y99361*
X79679Y105421D02*
G01X79681Y105491D01*
X79687Y105561*
X79697Y105630*
X79710Y105699*
X79728Y105767*
X79749Y105834*
X79774Y105899*
X79803Y105963*
X79835Y106026*
X79871Y106086*
X79910Y106144*
X79952Y106200*
X79997Y106254*
X80045Y106305*
X80096Y106353*
X80150Y106398*
X80206Y106440*
X80264Y106479*
X80324Y106515*
X80387Y106547*
X80451Y106576*
X80516Y106601*
X80583Y106622*
X80651Y106640*
X80720Y106653*
X80789Y106663*
X80859Y106669*
X80929Y106671*
X80999Y106669*
X81069Y106663*
X81138Y106653*
X81207Y106640*
X81275Y106622*
X81342Y106601*
X81407Y106576*
X81471Y106547*
X81534Y106515*
X81594Y106479*
X81652Y106440*
X81708Y106398*
X81762Y106353*
X81813Y106305*
X81861Y106254*
X81906Y106200*
X81948Y106144*
X81987Y106086*
X82023Y106026*
X82055Y105963*
X82084Y105899*
X82109Y105834*
X82130Y105767*
X82148Y105699*
X82161Y105630*
X82171Y105561*
X82177Y105491*
X82179Y105421*
X82177Y105351*
X82171Y105281*
X82161Y105212*
X82148Y105143*
X82130Y105075*
X82109Y105008*
X82084Y104943*
X82055Y104879*
X82023Y104816*
X81987Y104756*
X81948Y104698*
X81906Y104642*
X81861Y104588*
X81813Y104537*
X81762Y104489*
X81708Y104444*
X81652Y104402*
X81594Y104363*
X81534Y104327*
X81471Y104295*
X81407Y104266*
X81342Y104241*
X81275Y104220*
X81207Y104202*
X81138Y104189*
X81069Y104179*
X80999Y104173*
X80929Y104171*
X80859Y104173*
X80789Y104179*
X80720Y104189*
X80651Y104202*
X80583Y104220*
X80516Y104241*
X80451Y104266*
X80387Y104295*
X80324Y104327*
X80264Y104363*
X80206Y104402*
X80150Y104444*
X80096Y104489*
X80045Y104537*
X79997Y104588*
X79952Y104642*
X79910Y104698*
X79871Y104756*
X79835Y104816*
X79803Y104879*
X79774Y104943*
X79749Y105008*
X79728Y105075*
X79710Y105143*
X79697Y105212*
X79687Y105281*
X79681Y105351*
X79679Y105421*
X91339Y105721D02*
G01X91341Y105791D01*
X91347Y105861*
X91357Y105930*
X91370Y105999*
X91388Y106067*
X91409Y106134*
X91434Y106199*
X91463Y106263*
X91495Y106326*
X91531Y106386*
X91570Y106444*
X91612Y106500*
X91657Y106554*
X91705Y106605*
X91756Y106653*
X91810Y106698*
X91866Y106740*
X91924Y106779*
X91984Y106815*
X92047Y106847*
X92111Y106876*
X92176Y106901*
X92243Y106922*
X92311Y106940*
X92380Y106953*
X92449Y106963*
X92519Y106969*
X92589Y106971*
X92659Y106969*
X92729Y106963*
X92798Y106953*
X92867Y106940*
X92935Y106922*
X93002Y106901*
X93067Y106876*
X93131Y106847*
X93194Y106815*
X93254Y106779*
X93312Y106740*
X93368Y106698*
X93422Y106653*
X93473Y106605*
X93521Y106554*
X93566Y106500*
X93608Y106444*
X93647Y106386*
X93683Y106326*
X93715Y106263*
X93744Y106199*
X93769Y106134*
X93790Y106067*
X93808Y105999*
X93821Y105930*
X93831Y105861*
X93837Y105791*
X93839Y105721*
X93837Y105651*
X93831Y105581*
X93821Y105512*
X93808Y105443*
X93790Y105375*
X93769Y105308*
X93744Y105243*
X93715Y105179*
X93683Y105116*
X93647Y105056*
X93608Y104998*
X93566Y104942*
X93521Y104888*
X93473Y104837*
X93422Y104789*
X93368Y104744*
X93312Y104702*
X93254Y104663*
X93194Y104627*
X93131Y104595*
X93067Y104566*
X93002Y104541*
X92935Y104520*
X92867Y104502*
X92798Y104489*
X92729Y104479*
X92659Y104473*
X92589Y104471*
X92519Y104473*
X92449Y104479*
X92380Y104489*
X92311Y104502*
X92243Y104520*
X92176Y104541*
X92111Y104566*
X92047Y104595*
X91984Y104627*
X91924Y104663*
X91866Y104702*
X91810Y104744*
X91756Y104789*
X91705Y104837*
X91657Y104888*
X91612Y104942*
X91570Y104998*
X91531Y105056*
X91495Y105116*
X91463Y105179*
X91434Y105243*
X91409Y105308*
X91388Y105375*
X91370Y105443*
X91357Y105512*
X91347Y105581*
X91341Y105651*
X91339Y105721*
X91459Y96401D02*
G01X91461Y96471D01*
X91467Y96541*
X91477Y96610*
X91490Y96679*
X91508Y96747*
X91529Y96814*
X91554Y96879*
X91583Y96943*
X91615Y97006*
X91651Y97066*
X91690Y97124*
X91732Y97180*
X91777Y97234*
X91825Y97285*
X91876Y97333*
X91930Y97378*
X91986Y97420*
X92044Y97459*
X92104Y97495*
X92167Y97527*
X92231Y97556*
X92296Y97581*
X92363Y97602*
X92431Y97620*
X92500Y97633*
X92569Y97643*
X92639Y97649*
X92709Y97651*
X92779Y97649*
X92849Y97643*
X92918Y97633*
X92987Y97620*
X93055Y97602*
X93122Y97581*
X93187Y97556*
X93251Y97527*
X93314Y97495*
X93374Y97459*
X93432Y97420*
X93488Y97378*
X93542Y97333*
X93593Y97285*
X93641Y97234*
X93686Y97180*
X93728Y97124*
X93767Y97066*
X93803Y97006*
X93835Y96943*
X93864Y96879*
X93889Y96814*
X93910Y96747*
X93928Y96679*
X93941Y96610*
X93951Y96541*
X93957Y96471*
X93959Y96401*
X93957Y96331*
X93951Y96261*
X93941Y96192*
X93928Y96123*
X93910Y96055*
X93889Y95988*
X93864Y95923*
X93835Y95859*
X93803Y95796*
X93767Y95736*
X93728Y95678*
X93686Y95622*
X93641Y95568*
X93593Y95517*
X93542Y95469*
X93488Y95424*
X93432Y95382*
X93374Y95343*
X93314Y95307*
X93251Y95275*
X93187Y95246*
X93122Y95221*
X93055Y95200*
X92987Y95182*
X92918Y95169*
X92849Y95159*
X92779Y95153*
X92709Y95151*
X92639Y95153*
X92569Y95159*
X92500Y95169*
X92431Y95182*
X92363Y95200*
X92296Y95221*
X92231Y95246*
X92167Y95275*
X92104Y95307*
X92044Y95343*
X91986Y95382*
X91930Y95424*
X91876Y95469*
X91825Y95517*
X91777Y95568*
X91732Y95622*
X91690Y95678*
X91651Y95736*
X91615Y95796*
X91583Y95859*
X91554Y95923*
X91529Y95988*
X91508Y96055*
X91490Y96123*
X91477Y96192*
X91467Y96261*
X91461Y96331*
X91459Y96401*
G54D37*
X95005Y117641D02*
G01Y111161D01*
Y111160D02*
G01X94999Y111080D01*
X94990Y111001*
X94977Y110922*
X94960Y110844*
X94939Y110766*
X94915Y110690*
X94887Y110615*
X94855Y110541*
X94820Y110469*
X94782Y110399*
X94740Y110331*
X94695Y110264*
X94647Y110200*
X94596Y110139*
X94542Y110079*
X94486Y110023*
X94426Y109969*
X94365Y109918*
X94301Y109870*
X94234Y109825*
X94166Y109783*
X94096Y109745*
X94024Y109710*
X93950Y109678*
X93875Y109651*
X93799Y109626*
X93722Y109605*
X93643Y109588*
X93564Y109575*
X93485Y109566*
X93405Y109560*
X93325Y109558*
X93245Y109560*
Y109561D02*
G01X18485D01*
X18354Y109559*
X18222Y109552*
X18092Y109538*
X17962Y109518*
X17833Y109492*
X17706Y109460*
X17580Y109422*
X17456Y109378*
X17335Y109328*
X17216Y109272*
X17100Y109211*
X16987Y109144*
X16877Y109072*
X16770Y108995*
X16668Y108913*
X16570Y108826*
X16475Y108734*
X16386Y108638*
X16300Y108538*
X16220Y108434*
X16145Y108327*
X16075Y108215*
X16010Y108101*
X15951Y107984*
X15898Y107864*
X15850Y107741*
X15808Y107617*
X15773Y107490*
X15743Y107363*
X15719Y107233*
X15702Y107103*
X15690Y106972*
X15685Y106841*
Y106840D02*
G01X15679Y106675D01*
X15665Y106510*
X15644Y106345*
X15614Y106182*
X15577Y106021*
X15533Y105861*
X15480Y105704*
X15421Y105550*
X15354Y105398*
X15280Y105250*
X15199Y105106*
X15111Y104965*
X15016Y104829*
X14916Y104698*
X14809Y104571*
X14696Y104450*
X14577Y104334*
X14454Y104224*
X14325Y104120*
X14191Y104022*
X14053Y103931*
X13910Y103846*
X13764Y103769*
X13614Y103698*
X13461Y103635*
X13305Y103578*
X13147Y103530*
X12986Y103489*
X12824Y103456*
X12660Y103430*
X12496Y103412*
X12330Y103402*
X12165Y103400*
Y103401D02*
G01X1285D01*
Y103400D02*
G01X1166Y103403D01*
X1048Y103412*
X931Y103426*
X814Y103446*
X698Y103472*
X584Y103503*
X471Y103540*
X360Y103582*
X252Y103630*
X145Y103682*
X42Y103740*
X-59Y103803*
X-156Y103871*
X-250Y103943*
X-340Y104020*
X-427Y104101*
X-509Y104186*
X-588Y104275*
X-661Y104368*
X-731Y104464*
X-795Y104564*
X-855Y104666*
X-909Y104771*
X-959Y104879*
X-1003Y104989*
X-1041Y105101*
X-1074Y105215*
X-1102Y105330*
X-1124Y105447*
X-1140Y105564*
X-1151Y105683*
X-1156Y105801*
X-1155Y105920*
X-1148Y106038*
X-1136Y106156*
X-1117Y106273*
X-1094Y106389*
X-1064Y106504*
X-1029Y106617*
X-989Y106729*
X-943Y106838*
X-892Y106945*
X-836Y107050*
X-775Y107151*
X-709Y107250*
X-638Y107345*
X-563Y107436*
X-483Y107524*
X-399Y107608*
X-311Y107688*
X-220Y107763*
X-125Y107834*
X-26Y107900*
X75Y107961*
X180Y108017*
X287Y108068*
X396Y108114*
X507Y108155*
X621Y108190*
X735Y108219*
X852Y108243*
X969Y108261*
X1087Y108274*
X1205Y108281*
Y112761*
X1088Y112764*
X971Y112772*
X855Y112786*
X740Y112806*
X626Y112831*
X513Y112862*
X402Y112898*
X292Y112940*
X185Y112986*
X80Y113038*
X-22Y113095*
X-121Y113157*
X-217Y113223*
X-310Y113294*
X-400Y113370*
X-485Y113449*
X-567Y113533*
X-645Y113620*
X-718Y113712*
X-787Y113806*
X-851Y113904*
X-910Y114005*
X-964Y114108*
X-1014Y114215*
X-1058Y114323*
X-1097Y114433*
X-1130Y114545*
X-1158Y114659*
X-1180Y114774*
X-1197Y114889*
X-1209Y115006*
X-1214Y115123*
Y115239*
X-1209Y115356*
X-1197Y115473*
X-1180Y115588*
X-1158Y115703*
X-1130Y115817*
X-1097Y115929*
X-1058Y116039*
X-1014Y116147*
X-964Y116254*
X-910Y116357*
X-851Y116458*
X-787Y116556*
X-718Y116650*
X-645Y116742*
X-567Y116829*
X-485Y116913*
X-400Y116992*
X-310Y117068*
X-217Y117139*
X-121Y117205*
X-22Y117267*
X80Y117324*
X185Y117376*
X292Y117422*
X402Y117464*
X513Y117500*
X626Y117531*
X740Y117556*
X855Y117576*
X971Y117590*
X1088Y117598*
X1205Y117601*
X89965*
X89964D02*
G01X89973Y117712D01*
X89988Y117822*
X90008Y117932*
X90033Y118041*
X90063Y118148*
X90098Y118254*
X90139Y118358*
X90184Y118460*
X90234Y118560*
X90288Y118657*
X90348Y118752*
X90411Y118844*
X90479Y118932*
X90551Y119017*
X90627Y119099*
X90707Y119177*
X90791Y119251*
X90878Y119321*
X90968Y119387*
X91061Y119448*
X91157Y119505*
X91255Y119557*
X91356Y119605*
X91460Y119648*
X91565Y119685*
X91671Y119718*
X91779Y119746*
X91889Y119768*
X91999Y119785*
X92110Y119797*
X92221Y119804*
X92333Y119805*
X92444Y119801*
X92445D02*
G01X92557Y119807D01*
X92670Y119809*
X92783Y119805*
X92895Y119796*
X93007Y119781*
X93118Y119761*
X93228Y119736*
X93336Y119706*
X93443Y119670*
X93548Y119630*
X93652Y119584*
X93752Y119534*
X93851Y119479*
X93946Y119419*
X94039Y119355*
X94129Y119287*
X94215Y119214*
X94297Y119137*
X94376Y119057*
X94451Y118973*
X94522Y118885*
X94588Y118794*
X94651Y118700*
X94708Y118603*
X94761Y118504*
X94809Y118402*
X94853Y118298*
X94891Y118192*
X94924Y118084*
X94952Y117975*
X94975Y117864*
X94992Y117753*
X95005Y117641*
G54D86*
X93775Y117761D02*
G01X93773Y117691D01*
X93767Y117621*
X93757Y117552*
X93744Y117483*
X93726Y117415*
X93705Y117348*
X93680Y117283*
X93651Y117219*
X93619Y117156*
X93583Y117096*
X93544Y117038*
X93502Y116982*
X93457Y116928*
X93409Y116877*
X93358Y116829*
X93304Y116784*
X93248Y116742*
X93190Y116703*
X93130Y116667*
X93067Y116635*
X93003Y116606*
X92938Y116581*
X92871Y116560*
X92803Y116542*
X92734Y116529*
X92665Y116519*
X92595Y116513*
X92525Y116511*
X92455Y116513*
X92385Y116519*
X92316Y116529*
X92247Y116542*
X92179Y116560*
X92112Y116581*
X92047Y116606*
X91983Y116635*
X91920Y116667*
X91860Y116703*
X91802Y116742*
X91746Y116784*
X91692Y116829*
X91641Y116877*
X91593Y116928*
X91548Y116982*
X91506Y117038*
X91467Y117096*
X91431Y117156*
X91399Y117219*
X91370Y117283*
X91345Y117348*
X91324Y117415*
X91306Y117483*
X91293Y117552*
X91283Y117621*
X91277Y117691*
X91275Y117761*
X91277Y117831*
X91283Y117901*
X91293Y117970*
X91306Y118039*
X91324Y118107*
X91345Y118174*
X91370Y118239*
X91399Y118303*
X91431Y118366*
X91467Y118426*
X91506Y118484*
X91548Y118540*
X91593Y118594*
X91641Y118645*
X91692Y118693*
X91746Y118738*
X91802Y118780*
X91860Y118819*
X91920Y118855*
X91983Y118887*
X92047Y118916*
X92112Y118941*
X92179Y118962*
X92247Y118980*
X92316Y118993*
X92385Y119003*
X92455Y119009*
X92525Y119011*
X92595Y119009*
X92665Y119003*
X92734Y118993*
X92803Y118980*
X92871Y118962*
X92938Y118941*
X93003Y118916*
X93067Y118887*
X93130Y118855*
X93190Y118819*
X93248Y118780*
X93304Y118738*
X93358Y118693*
X93409Y118645*
X93457Y118594*
X93502Y118540*
X93544Y118484*
X93583Y118426*
X93619Y118366*
X93651Y118303*
X93680Y118239*
X93705Y118174*
X93726Y118107*
X93744Y118039*
X93757Y117970*
X93767Y117901*
X93773Y117831*
X93775Y117761*
X93455Y112241D02*
G01X93453Y112171D01*
X93447Y112101*
X93437Y112032*
X93424Y111963*
X93406Y111895*
X93385Y111828*
X93360Y111763*
X93331Y111699*
X93299Y111636*
X93263Y111576*
X93224Y111518*
X93182Y111462*
X93137Y111408*
X93089Y111357*
X93038Y111309*
X92984Y111264*
X92928Y111222*
X92870Y111183*
X92810Y111147*
X92747Y111115*
X92683Y111086*
X92618Y111061*
X92551Y111040*
X92483Y111022*
X92414Y111009*
X92345Y110999*
X92275Y110993*
X92205Y110991*
X92135Y110993*
X92065Y110999*
X91996Y111009*
X91927Y111022*
X91859Y111040*
X91792Y111061*
X91727Y111086*
X91663Y111115*
X91600Y111147*
X91540Y111183*
X91482Y111222*
X91426Y111264*
X91372Y111309*
X91321Y111357*
X91273Y111408*
X91228Y111462*
X91186Y111518*
X91147Y111576*
X91111Y111636*
X91079Y111699*
X91050Y111763*
X91025Y111828*
X91004Y111895*
X90986Y111963*
X90973Y112032*
X90963Y112101*
X90957Y112171*
X90955Y112241*
X90957Y112311*
X90963Y112381*
X90973Y112450*
X90986Y112519*
X91004Y112587*
X91025Y112654*
X91050Y112719*
X91079Y112783*
X91111Y112846*
X91147Y112906*
X91186Y112964*
X91228Y113020*
X91273Y113074*
X91321Y113125*
X91372Y113173*
X91426Y113218*
X91482Y113260*
X91540Y113299*
X91600Y113335*
X91663Y113367*
X91727Y113396*
X91792Y113421*
X91859Y113442*
X91927Y113460*
X91996Y113473*
X92065Y113483*
X92135Y113489*
X92205Y113491*
X92275Y113489*
X92345Y113483*
X92414Y113473*
X92483Y113460*
X92551Y113442*
X92618Y113421*
X92683Y113396*
X92747Y113367*
X92810Y113335*
X92870Y113299*
X92928Y113260*
X92984Y113218*
X93038Y113173*
X93089Y113125*
X93137Y113074*
X93182Y113020*
X93224Y112964*
X93263Y112906*
X93299Y112846*
X93331Y112783*
X93360Y112719*
X93385Y112654*
X93406Y112587*
X93424Y112519*
X93437Y112450*
X93447Y112381*
X93453Y112311*
X93455Y112241*
X14355Y106181D02*
G01X14353Y106111D01*
X14347Y106041*
X14337Y105972*
X14324Y105903*
X14306Y105835*
X14285Y105768*
X14260Y105703*
X14231Y105639*
X14199Y105576*
X14163Y105516*
X14124Y105458*
X14082Y105402*
X14037Y105348*
X13989Y105297*
X13938Y105249*
X13884Y105204*
X13828Y105162*
X13770Y105123*
X13710Y105087*
X13647Y105055*
X13583Y105026*
X13518Y105001*
X13451Y104980*
X13383Y104962*
X13314Y104949*
X13245Y104939*
X13175Y104933*
X13105Y104931*
X13035Y104933*
X12965Y104939*
X12896Y104949*
X12827Y104962*
X12759Y104980*
X12692Y105001*
X12627Y105026*
X12563Y105055*
X12500Y105087*
X12440Y105123*
X12382Y105162*
X12326Y105204*
X12272Y105249*
X12221Y105297*
X12173Y105348*
X12128Y105402*
X12086Y105458*
X12047Y105516*
X12011Y105576*
X11979Y105639*
X11950Y105703*
X11925Y105768*
X11904Y105835*
X11886Y105903*
X11873Y105972*
X11863Y106041*
X11857Y106111*
X11855Y106181*
X11857Y106251*
X11863Y106321*
X11873Y106390*
X11886Y106459*
X11904Y106527*
X11925Y106594*
X11950Y106659*
X11979Y106723*
X12011Y106786*
X12047Y106846*
X12086Y106904*
X12128Y106960*
X12173Y107014*
X12221Y107065*
X12272Y107113*
X12326Y107158*
X12382Y107200*
X12440Y107239*
X12500Y107275*
X12563Y107307*
X12627Y107336*
X12692Y107361*
X12759Y107382*
X12827Y107400*
X12896Y107413*
X12965Y107423*
X13035Y107429*
X13105Y107431*
X13175Y107429*
X13245Y107423*
X13314Y107413*
X13383Y107400*
X13451Y107382*
X13518Y107361*
X13583Y107336*
X13647Y107307*
X13710Y107275*
X13770Y107239*
X13828Y107200*
X13884Y107158*
X13938Y107113*
X13989Y107065*
X14037Y107014*
X14082Y106960*
X14124Y106904*
X14163Y106846*
X14199Y106786*
X14231Y106723*
X14260Y106659*
X14285Y106594*
X14306Y106527*
X14324Y106459*
X14337Y106390*
X14347Y106321*
X14353Y106251*
X14355Y106181*
X2695Y105881D02*
G01X2693Y105811D01*
X2687Y105741*
X2677Y105672*
X2664Y105603*
X2646Y105535*
X2625Y105468*
X2600Y105403*
X2571Y105339*
X2539Y105276*
X2503Y105216*
X2464Y105158*
X2422Y105102*
X2377Y105048*
X2329Y104997*
X2278Y104949*
X2224Y104904*
X2168Y104862*
X2110Y104823*
X2050Y104787*
X1987Y104755*
X1923Y104726*
X1858Y104701*
X1791Y104680*
X1723Y104662*
X1654Y104649*
X1585Y104639*
X1515Y104633*
X1445Y104631*
X1375Y104633*
X1305Y104639*
X1236Y104649*
X1167Y104662*
X1099Y104680*
X1032Y104701*
X967Y104726*
X903Y104755*
X840Y104787*
X780Y104823*
X722Y104862*
X666Y104904*
X612Y104949*
X561Y104997*
X513Y105048*
X468Y105102*
X426Y105158*
X387Y105216*
X351Y105276*
X319Y105339*
X290Y105403*
X265Y105468*
X244Y105535*
X226Y105603*
X213Y105672*
X203Y105741*
X197Y105811*
X195Y105881*
X197Y105951*
X203Y106021*
X213Y106090*
X226Y106159*
X244Y106227*
X265Y106294*
X290Y106359*
X319Y106423*
X351Y106486*
X387Y106546*
X426Y106604*
X468Y106660*
X513Y106714*
X561Y106765*
X612Y106813*
X666Y106858*
X722Y106900*
X780Y106939*
X840Y106975*
X903Y107007*
X967Y107036*
X1032Y107061*
X1099Y107082*
X1167Y107100*
X1236Y107113*
X1305Y107123*
X1375Y107129*
X1445Y107131*
X1515Y107129*
X1585Y107123*
X1654Y107113*
X1723Y107100*
X1791Y107082*
X1858Y107061*
X1923Y107036*
X1987Y107007*
X2050Y106975*
X2110Y106939*
X2168Y106900*
X2224Y106858*
X2278Y106813*
X2329Y106765*
X2377Y106714*
X2422Y106660*
X2464Y106604*
X2503Y106546*
X2539Y106486*
X2571Y106423*
X2600Y106359*
X2625Y106294*
X2646Y106227*
X2664Y106159*
X2677Y106090*
X2687Y106021*
X2693Y105951*
X2695Y105881*
X2575Y115201D02*
G01X2573Y115131D01*
X2567Y115061*
X2557Y114992*
X2544Y114923*
X2526Y114855*
X2505Y114788*
X2480Y114723*
X2451Y114659*
X2419Y114596*
X2383Y114536*
X2344Y114478*
X2302Y114422*
X2257Y114368*
X2209Y114317*
X2158Y114269*
X2104Y114224*
X2048Y114182*
X1990Y114143*
X1930Y114107*
X1867Y114075*
X1803Y114046*
X1738Y114021*
X1671Y114000*
X1603Y113982*
X1534Y113969*
X1465Y113959*
X1395Y113953*
X1325Y113951*
X1255Y113953*
X1185Y113959*
X1116Y113969*
X1047Y113982*
X979Y114000*
X912Y114021*
X847Y114046*
X783Y114075*
X720Y114107*
X660Y114143*
X602Y114182*
X546Y114224*
X492Y114269*
X441Y114317*
X393Y114368*
X348Y114422*
X306Y114478*
X267Y114536*
X231Y114596*
X199Y114659*
X170Y114723*
X145Y114788*
X124Y114855*
X106Y114923*
X93Y114992*
X83Y115061*
X77Y115131*
X75Y115201*
X77Y115271*
X83Y115341*
X93Y115410*
X106Y115479*
X124Y115547*
X145Y115614*
X170Y115679*
X199Y115743*
X231Y115806*
X267Y115866*
X306Y115924*
X348Y115980*
X393Y116034*
X441Y116085*
X492Y116133*
X546Y116178*
X602Y116220*
X660Y116259*
X720Y116295*
X783Y116327*
X847Y116356*
X912Y116381*
X979Y116402*
X1047Y116420*
X1116Y116433*
X1185Y116443*
X1255Y116449*
X1325Y116451*
X1395Y116449*
X1465Y116443*
X1534Y116433*
X1603Y116420*
X1671Y116402*
X1738Y116381*
X1803Y116356*
X1867Y116327*
X1930Y116295*
X1990Y116259*
X2048Y116220*
X2104Y116178*
X2158Y116133*
X2209Y116085*
X2257Y116034*
X2302Y115980*
X2344Y115924*
X2383Y115866*
X2419Y115806*
X2451Y115743*
X2480Y115679*
X2505Y115614*
X2526Y115547*
X2544Y115479*
X2557Y115410*
X2567Y115341*
X2573Y115271*
X2575Y115201*
M02*
