M48
INCH,TZ
VER,1
FMAT,2
T01C0.016F100B1000S6H2000
T02C0.017F100B1000S6H2000
T03C0.02F100B1000S6H2000
T04C0.0236F100B1000S6H2000
T05C0.03F100B1000S6H2000
T06C0.0315F100B1000S6H2000
T07C0.0354F100B1000S6H2000
T08C0.04F100B1000S6H2000
T09C0.07F100B1000S6H2000
T10C0.15F100B1000S6H2000
T11C0.25F100B1000S6H2000
DETECT,ON
ATC,ON
%
T01
X21665Y11381
X62665Y12461
X64425Y11941
X65025
X63785Y13021
X72345Y12781
X72825
Y13181
X72665Y12381
X71265Y10461
X71705Y9901
X71265Y9821
X72185Y9981
X82025Y8541
X82425Y8301
X83945
X87545Y7421
X86825Y6221
X90265Y8621
X88265Y9581
X92585Y10221
X83465Y9821
X83065Y10861
Y11741
X86305Y12341
X86585Y12701
X86825Y13021
X87145Y13261
X84905Y13181
X83145Y12861
X83545Y12621
X81785Y13101
X89785Y14741
X92605Y16181
X89165Y16421
X89185Y16821
Y17241
X89225Y17741
X86705Y17941
X86665Y18381
X81385Y17501
X85865Y16221
X81385Y16061
X71225Y16141
Y16701
Y17341
Y15581
X88185Y19781
X75102Y24834
X34102Y23754
X32342Y24274
X31742
X32982Y23194
X24422Y23434
X23942
Y23034
X24102Y23834
X25502Y25754
X25062Y26314
X25502Y26394
X24582Y26234
X14742Y27674
X14342Y27914
X12822
X9222Y28794
X9942Y29994
X6502Y27594
X8502Y26634
X4182Y25994
X13302Y26394
X13702Y25354
Y24474
X10462Y23874
X10182Y23514
X9942Y23194
X9622Y22954
X11862Y23034
X13622Y23354
X13222Y23594
X14982Y23114
X6982Y21474
X4162Y20034
X7602Y19794
X7582Y19394
Y18974
X7542Y18474
X10062Y18274
X10102Y17834
X15382Y18714
X10902Y19994
X15382Y20154
X25542Y20074
Y19514
Y18874
Y20634
X8582Y16434
X20765Y69622
X61765Y70702
X63525Y70182
X64125
X62885Y71262
X71445Y71022
X71925
Y71422
X71765Y70622
X70365Y68702
X70805Y68142
X70365Y68062
X71285Y68222
X81125Y66782
X81525Y66542
X83045
X86645Y65662
X85925Y64462
X89365Y66862
X87365Y67822
X91685Y68462
X82565Y68062
X82165Y69102
Y69982
X85405Y70582
X85685Y70942
X85925Y71262
X86245Y71502
X84005Y71422
X82245Y71102
X82645Y70862
X80885Y71342
X88885Y72982
X91705Y74422
X88265Y74662
X88285Y75062
Y75482
X88325Y75982
X85805Y76182
X85765Y76622
X80485Y75742
X84965Y74462
X80485Y74302
X70325Y74382
Y74942
Y75582
Y73822
X87285Y78022
X74202Y83075
X33202Y81995
X31442Y82515
X30842
X32082Y81435
X23522Y81675
X23042
Y81275
X23202Y82075
X24602Y83995
X24162Y84555
X24602Y84635
X23682Y84475
X13842Y85915
X13442Y86155
X11922
X8322Y87035
X9042Y88235
X5602Y85835
X7602Y84875
X3282Y84235
X12402Y84635
X12802Y83595
Y82715
X9562Y82115
X9282Y81755
X9042Y81435
X8722Y81195
X10962Y81275
X12722Y81595
X12322Y81835
X14082Y81355
X6082Y79715
X3262Y78275
X6702Y78035
X6682Y77635
Y77215
X6642Y76715
X9162Y76515
X9202Y76075
X14482Y76955
X10002Y78235
X14482Y78395
X24642Y78315
Y77755
Y77115
Y78875
X7682Y74675
T02
X79305Y9661
X81465Y9181
X78505Y9021
X76425Y9501
X75625Y8861
X73225Y9341
X68905Y9261
X67785Y9661
X64985Y9501
X66985Y9021
X64105Y8861
X61705Y9341
X57305Y9181
X56025Y9661
X55225Y9021
X53145Y9501
X50185Y9341
X52265Y8861
X45545Y9181
X43705Y9021
X41625Y9501
X44505Y9661
X40825Y8861
X38425Y9341
X34105Y9181
X32745Y9661
X29865Y9501
X31945Y9021
X29065Y8861
X27065Y9341
X22585Y9181
X21305Y9661
X20505Y9021
X18345Y9501
X17545Y8861
X15545Y9341
X12505Y9181
X10425Y9501
X9065Y9021
X7305Y9341
X5865Y8861
X4665
X2825Y8221
X2199Y6880
X3952Y6682
X5099Y6880
X6852Y6682
X7999Y6880
X9752Y6682
X10899Y6880
X12652Y6682
X13799Y6880
X15552Y6682
X16699Y6880
X18452Y6682
X19599Y6880
X21352Y6682
X22499Y6880
X24252Y6682
X25399Y6880
X27152Y6682
X28299Y6880
X30052Y6682
X31199Y6880
X32952Y6682
X32819Y6160
X29919
X27019
X24585Y5421
X27065Y5261
X29945Y5101
X32825Y4941
X36265Y5421
X38585Y5261
X41465Y5101
X44185Y4941
X47705Y5421
X47219Y6160
X47352Y6682
X48499Y6880
X50252Y6682
X51399Y6880
X53252Y6682
X54399Y6880
X56152Y6682
X57299Y6880
X59052Y6682
X60199Y6880
X61952Y6682
X63099Y6880
X64852Y6682
X64719Y6160
X61819
Y5295
X64665Y5101
X67465Y4941
X70985Y5421
X70519Y6170
X70652Y6692
X71799Y6890
X73552Y6682
X74699Y6880
X76452Y6682
X77599Y6880
X79352Y6682
X80499Y6880
X82252Y6682
X83399Y6880
X85152Y6682
X86299Y6880
X88052Y6682
X89199Y6880
X90952Y6682
X92099Y6880
X90819Y6160
X87919
X85019
X82585Y5661
X82119Y6160
X79219
X76319
X73419
X73465Y5261
X76185Y5101
X79145Y4941
X68899Y6880
X67752Y6682
X65999Y6880
X67619Y6160
X59385Y5421
X58919Y6160
X56019
X53119
X50119
X50025Y5261
X53145Y5101
X55945Y4941
X45599Y6880
X44452Y6682
X42799Y6880
X41652Y6682
X41519Y6160
X44319
X39899Y6880
X38752Y6682
X38619Y6160
X36999Y6880
X35852Y6682
X34099Y6880
X35719Y6160
X24119
X21219
X18319
X15419
X12905Y5421
X10905Y4941
X7945Y5101
X5145Y5261
X1225Y5621
X919Y6160
X1052Y6682
X3819Y6160
X6719
X9619
X12519
X15465Y5261
X18185Y5101
X20985Y4941
X85065Y9341
X87225Y8861
X88265
X89385Y8381
X17462Y26554
X15302Y27034
X18262Y27194
X20342Y26714
X21142Y27354
X23542Y26874
X27862Y26954
X28982Y26554
X31782Y26714
X29782Y27194
X32662Y27354
X35062Y26874
X39462Y27034
X40742Y26554
X41542Y27194
X43622Y26714
X46582Y26874
X44502Y27354
X51222Y27034
X53062Y27194
X55142Y26714
X52262Y26554
X55942Y27354
X58342Y26874
X62662Y27034
X64022Y26554
X66902Y26714
X64822Y27194
X67702Y27354
X69702Y26874
X74182Y27034
X75462Y26554
X76262Y27194
X78422Y26714
X79222Y27354
X81222Y26874
X84262Y27034
X86342Y26714
X87702Y27194
X89462Y26874
X90902Y27354
X92102
X93942Y27994
X94568Y29335
X92815Y29533
X91668Y29335
X89915Y29533
X88768Y29335
X87015Y29533
X85868Y29335
X84115Y29533
X82968Y29335
X81215Y29533
X80068Y29335
X78315Y29533
X77168Y29335
X75415Y29533
X74268Y29335
X72515Y29533
X71368Y29335
X69615Y29533
X68468Y29335
X66715Y29533
X65568Y29335
X63815Y29533
X63948Y30055
X66848
X69748
X72182Y30794
X69702Y30954
X66822Y31114
X63942Y31274
X60502Y30794
X58182Y30954
X55302Y31114
X52582Y31274
X49062Y30794
X49548Y30055
X49415Y29533
X48268Y29335
X46515Y29533
X45368Y29335
X43515Y29533
X42368Y29335
X40615Y29533
X39468Y29335
X37715Y29533
X36568Y29335
X34815Y29533
X33668Y29335
X31915Y29533
X32048Y30055
X34948
Y30920
X32102Y31114
X29302Y31274
X25782Y30794
X26248Y30045
X26115Y29523
X24968Y29325
X23215Y29533
X22068Y29335
X20315Y29533
X19168Y29335
X17415Y29533
X16268Y29335
X14515Y29533
X13368Y29335
X11615Y29533
X10468Y29335
X8715Y29533
X7568Y29335
X5815Y29533
X4668Y29335
X5948Y30055
X8848
X11748
X14182Y30554
X14648Y30055
X17548
X20448
X23348
X23302Y30954
X20582Y31114
X17622Y31274
X27868Y29335
X29015Y29533
X30768Y29335
X29148Y30055
X37382Y30794
X37848Y30055
X40748
X43648
X46648
X46742Y30954
X43622Y31114
X40822Y31274
X51168Y29335
X52315Y29533
X53968Y29335
X55115Y29533
X55248Y30055
X52448
X56868Y29335
X58015Y29533
X58148Y30055
X59768Y29335
X60915Y29533
X62668Y29335
X61048Y30055
X72648
X75548
X78448
X81348
X83862Y30794
X85862Y31274
X88822Y31114
X91622Y30954
X95542Y30594
X95848Y30055
X95715Y29533
X92948Y30055
X90048
X87148
X84248
X81302Y30954
X78582Y31114
X75782Y31274
X11702Y26874
X9542Y27354
X8502
X7382Y27834
X78405Y67902
X80565Y67422
X77605Y67262
X75525Y67742
X74725Y67102
X72325Y67582
X68005Y67502
X66885Y67902
X64085Y67742
X66085Y67262
X63205Y67102
X60805Y67582
X56405Y67422
X55125Y67902
X54325Y67262
X52245Y67742
X49285Y67582
X51365Y67102
X44645Y67422
X42805Y67262
X40725Y67742
X43605Y67902
X39925Y67102
X37525Y67582
X33205Y67422
X31845Y67902
X28965Y67742
X31045Y67262
X28165Y67102
X26165Y67582
X21685Y67422
X20405Y67902
X19605Y67262
X17445Y67742
X16645Y67102
X14645Y67582
X11605Y67422
X9525Y67742
X8165Y67262
X6405Y67582
X4965Y67102
X3765
X1925Y66462
X1299Y65121
X3052Y64923
X4199Y65121
X5952Y64923
X7099Y65121
X8852Y64923
X9999Y65121
X11752Y64923
X12899Y65121
X14652Y64923
X15799Y65121
X17552Y64923
X18699Y65121
X20452Y64923
X21599Y65121
X23352Y64923
X24499Y65121
X26252Y64923
X27399Y65121
X29152Y64923
X30299Y65121
X32052Y64923
X31919Y64401
X29019
X26119
X23685Y63662
X26165Y63502
X29045Y63342
X31925Y63182
X35365Y63662
X37685Y63502
X40565Y63342
X43285Y63182
X46805Y63662
X46319Y64401
X46452Y64923
X47599Y65121
X49352Y64923
X50499Y65121
X52352Y64923
X53499Y65121
X55252Y64923
X56399Y65121
X58152Y64923
X59299Y65121
X61052Y64923
X62199Y65121
X63952Y64923
X63819Y64401
X60919
Y63536
X63765Y63342
X66565Y63182
X70085Y63662
X69619Y64411
X69752Y64933
X70899Y65131
X72652Y64923
X73799Y65121
X75552Y64923
X76699Y65121
X78452Y64923
X79599Y65121
X81352Y64923
X82499Y65121
X84252Y64923
X85399Y65121
X87152Y64923
X88299Y65121
X90052Y64923
X91199Y65121
X89919Y64401
X87019
X84119
X81685Y63902
X81219Y64401
X78319
X75419
X72519
X72565Y63502
X75285Y63342
X78245Y63182
X67999Y65121
X66852Y64923
X65099Y65121
X66719Y64401
X58485Y63662
X58019Y64401
X55119
X52219
X49219
X49125Y63502
X52245Y63342
X55045Y63182
X44699Y65121
X43552Y64923
X41899Y65121
X40752Y64923
X40619Y64401
X43419
X38999Y65121
X37852Y64923
X37719Y64401
X36099Y65121
X34952Y64923
X33199Y65121
X34819Y64401
X23219
X20319
X17419
X14519
X12005Y63662
X10005Y63182
X7045Y63342
X4245Y63502
X325Y63862
X19Y64401
X152Y64923
X2919Y64401
X5819
X8719
X11619
X14565Y63502
X17285Y63342
X20085Y63182
X84165Y67582
X86325Y67102
X87365
X88485Y66622
X16562Y84795
X14402Y85275
X17362Y85435
X19442Y84955
X20242Y85595
X22642Y85115
X26962Y85195
X28082Y84795
X30882Y84955
X28882Y85435
X31762Y85595
X34162Y85115
X38562Y85275
X39842Y84795
X40642Y85435
X42722Y84955
X45682Y85115
X43602Y85595
X50322Y85275
X52162Y85435
X54242Y84955
X51362Y84795
X55042Y85595
X57442Y85115
X61762Y85275
X63122Y84795
X66002Y84955
X63922Y85435
X66802Y85595
X68802Y85115
X73282Y85275
X74562Y84795
X75362Y85435
X77522Y84955
X78322Y85595
X80322Y85115
X83362Y85275
X85442Y84955
X86802Y85435
X88562Y85115
X90002Y85595
X91202
X93042Y86235
X93668Y87576
X91915Y87774
X90768Y87576
X89015Y87774
X87868Y87576
X86115Y87774
X84968Y87576
X83215Y87774
X82068Y87576
X80315Y87774
X79168Y87576
X77415Y87774
X76268Y87576
X74515Y87774
X73368Y87576
X71615Y87774
X70468Y87576
X68715Y87774
X67568Y87576
X65815Y87774
X64668Y87576
X62915Y87774
X63048Y88296
X65948
X68848
X71282Y89035
X68802Y89195
X65922Y89355
X63042Y89515
X59602Y89035
X57282Y89195
X54402Y89355
X51682Y89515
X48162Y89035
X48648Y88296
X48515Y87774
X47368Y87576
X45615Y87774
X44468Y87576
X42615Y87774
X41468Y87576
X39715Y87774
X38568Y87576
X36815Y87774
X35668Y87576
X33915Y87774
X32768Y87576
X31015Y87774
X31148Y88296
X34048
Y89161
X31202Y89355
X28402Y89515
X24882Y89035
X25348Y88286
X25215Y87764
X24068Y87566
X22315Y87774
X21168Y87576
X19415Y87774
X18268Y87576
X16515Y87774
X15368Y87576
X13615Y87774
X12468Y87576
X10715Y87774
X9568Y87576
X7815Y87774
X6668Y87576
X4915Y87774
X3768Y87576
X5048Y88296
X7948
X10848
X13282Y88795
X13748Y88296
X16648
X19548
X22448
X22402Y89195
X19682Y89355
X16722Y89515
X26968Y87576
X28115Y87774
X29868Y87576
X28248Y88296
X36482Y89035
X36948Y88296
X39848
X42748
X45748
X45842Y89195
X42722Y89355
X39922Y89515
X50268Y87576
X51415Y87774
X53068Y87576
X54215Y87774
X54348Y88296
X51548
X55968Y87576
X57115Y87774
X57248Y88296
X58868Y87576
X60015Y87774
X61768Y87576
X60148Y88296
X71748
X74648
X77548
X80448
X82962Y89035
X84962Y89515
X87922Y89355
X90722Y89195
X94642Y88835
X94948Y88296
X94815Y87774
X92048Y88296
X89148
X86248
X83348
X80402Y89195
X77682Y89355
X74882Y89515
X10802Y85115
X8642Y85595
X7602
X6482Y86075
T03
X85905Y12501
X86185Y15461
X85305Y15821
X10862Y23714
X10582Y20754
X11462Y20394
X85005Y70742
X85285Y73702
X84405Y74062
X9962Y81955
X9682Y78995
X10562Y78635
T04
X84675Y13941
X84215
X82325Y12121
X82060Y11701
X12092Y22274
X12552
X14442Y24094
X14707Y24514
X83775Y72182
X83315
X81425Y70362
X81160Y69942
X11192Y80515
X11652
X13542Y82335
X13807Y82755
T05
X83005Y8081
X80105
X77205
X74305
X71405Y8091
X68505Y8081
X65605
X62705
X59805
X56905
X54005
X51005
X48105
X45205
X42405
X39505
X36605
X33705
X30805
X27905
X25005
X22105
X19205
X16305
X13405
X10505
X7605
X4705
X1805
X85905
X88805
X91705
X13762Y28134
X16662
X19562
X22462
X25362Y28124
X28262Y28134
X31162
X34062
X36962
X39862
X42762
X45762
X48662
X51562
X54362
X57262
X60162
X63062
X65962
X68862
X71762
X74662
X77562
X80462
X83362
X86262
X89162
X92062
X94962
X10862
X7962
X5062
X82105Y66322
X79205
X76305
X73405
X70505Y66332
X67605Y66322
X64705
X61805
X58905
X56005
X53105
X50105
X47205
X44305
X41505
X38605
X35705
X32805
X29905
X27005
X24105
X21205
X18305
X15405
X12505
X9605
X6705
X3805
X905
X85005
X87905
X90805
X12862Y86375
X15762
X18662
X21562
X24462Y86365
X27362Y86375
X30262
X33162
X36062
X38962
X41862
X44862
X47762
X50662
X53462
X56362
X59262
X62162
X65062
X67962
X70862
X73762
X76662
X79562
X82462
X85362
X88262
X91162
X94062
X9962
X7062
X4162
T06
X85465Y13661
X84265Y14701
X80425Y14461
X79225Y15151
X76985Y14781
X82465Y16061
X83065Y16881
X83785Y18941
X11302Y22554
X12502Y21514
X16342Y21754
X17542Y21064
X19782Y21434
X14302Y20154
X13702Y19334
X12982Y17274
X84565Y71902
X83365Y72942
X79525Y72702
X78325Y73392
X76085Y73022
X81565Y74302
X82165Y75122
X82885Y77182
X10402Y80795
X11602Y79755
X15442Y79995
X16642Y79305
X18882Y79675
X13402Y78395
X12802Y77575
X12082Y75515
T07
X85405Y18251
X84128Y21161
X86923
X11362Y17964
X12639Y15054
X9844
X84505Y76492
X83228Y79402
X86023
X10462Y76205
X11739Y73295
X8944
T08
X88785Y21521
X89785Y21421
X90785Y21521
X91785Y21421
X93155Y14141
X93055Y13141
X93155Y12141
X93055Y11141
X7982Y14694
X6982Y14794
X5982Y14694
X4982Y14794
X3612Y22074
X3712Y23074
X3612Y24074
X3712Y25074
X87885Y79762
X88885Y79662
X89885Y79762
X90885Y79662
X92255Y72382
X92155Y71382
X92255Y70382
X92155Y69382
X7082Y72935
X6082Y73035
X5082Y72935
X4082Y73035
X2712Y80315
X2812Y81315
X2712Y82315
X2812Y83315
T09
X91085Y11741
X88085
X77285
X74285
Y17881
X77285
X88085
X91085
X5682Y24474
X8682
X19482
X22482
Y18334
X19482
X8682
X5682
X90185Y69982
X87185
X76385
X73385
Y76122
X76385
X87185
X90185
X4782Y82715
X7782
X18582
X21582
Y76575
X18582
X7782
X4782
T10
X62935Y19351
X33832Y16864
X62035Y77592
X32932Y75105
T11
X3025Y4261
X3145Y9821
X94105Y6861
X94165Y20161
X93742Y31954
X93622Y26394
X2662Y29354
X2602Y16054
X2125Y62502
X2245Y68062
X93205Y65102
X93265Y78402
X92842Y90195
X92722Y84635
X1762Y87595
X1702Y74295
M30
