G75*
G70*
%OFA0B0*%
%FSLAX24Y24*%
%IPPOS*%
%LPD*%
%AMOC8*
5,1,8,0,0,1.08239X$1,22.5*
%
%ADD10C,0.2580*%
%ADD11C,0.0083*%
%ADD12C,0.0086*%
%ADD13C,0.0081*%
%ADD14C,0.0080*%
%ADD15C,0.0081*%
%ADD16R,0.0820X0.0820*%
%ADD17C,0.0820*%
%ADD18C,0.0081*%
%ADD19C,0.0640*%
D10*
X002545Y002706D03*
X002925Y009846D03*
X095045Y005406D03*
X095185Y014766D03*
D11*
X084094Y016655D02*
X083762Y016323D01*
X084094Y016655D02*
X084454Y016295D01*
X084122Y015963D01*
X083762Y016323D01*
X084040Y016045D02*
X084204Y016045D01*
X084286Y016127D02*
X083958Y016127D01*
X083876Y016209D02*
X084368Y016209D01*
X084450Y016291D02*
X083794Y016291D01*
X083812Y016373D02*
X084376Y016373D01*
X084294Y016455D02*
X083894Y016455D01*
X083976Y016537D02*
X084212Y016537D01*
X084130Y016619D02*
X084058Y016619D01*
X083528Y016089D02*
X083196Y015757D01*
X083528Y016089D02*
X083888Y015729D01*
X083556Y015397D01*
X083196Y015757D01*
X083474Y015479D02*
X083638Y015479D01*
X083720Y015561D02*
X083392Y015561D01*
X083310Y015643D02*
X083802Y015643D01*
X083884Y015725D02*
X083228Y015725D01*
X083246Y015807D02*
X083810Y015807D01*
X083728Y015889D02*
X083328Y015889D01*
X083410Y015971D02*
X083646Y015971D01*
X083564Y016053D02*
X083492Y016053D01*
X081400Y014751D02*
X080930Y014751D01*
X080930Y015261D01*
X081400Y015261D01*
X081400Y014751D01*
X081400Y014833D02*
X080930Y014833D01*
X080930Y014915D02*
X081400Y014915D01*
X081400Y014997D02*
X080930Y014997D01*
X080930Y015079D02*
X081400Y015079D01*
X081400Y015161D02*
X080930Y015161D01*
X080930Y015243D02*
X081400Y015243D01*
X080600Y014751D02*
X080130Y014751D01*
X080130Y015261D01*
X080600Y015261D01*
X080600Y014751D01*
X080600Y014833D02*
X080130Y014833D01*
X080130Y014915D02*
X080600Y014915D01*
X080600Y014997D02*
X080130Y014997D01*
X080130Y015079D02*
X080600Y015079D01*
X080600Y015161D02*
X080130Y015161D01*
X080130Y015243D02*
X080600Y015243D01*
X080500Y006832D02*
X080970Y006832D01*
X080500Y006832D02*
X080500Y007380D01*
X080970Y007380D01*
X080970Y006832D01*
X080970Y006914D02*
X080500Y006914D01*
X080500Y006996D02*
X080970Y006996D01*
X080970Y007078D02*
X080500Y007078D01*
X080500Y007160D02*
X080970Y007160D01*
X080970Y007242D02*
X080500Y007242D01*
X080500Y007324D02*
X080970Y007324D01*
X081170Y006832D02*
X081640Y006832D01*
X081170Y006832D02*
X081170Y007380D01*
X081640Y007380D01*
X081640Y006832D01*
X081640Y006914D02*
X081170Y006914D01*
X081170Y006996D02*
X081640Y006996D01*
X081640Y007078D02*
X081170Y007078D01*
X081170Y007160D02*
X081640Y007160D01*
X081640Y007242D02*
X081170Y007242D01*
X081170Y007324D02*
X081640Y007324D01*
X083460Y006832D02*
X083930Y006832D01*
X083460Y006832D02*
X083460Y007380D01*
X083930Y007380D01*
X083930Y006832D01*
X083930Y006914D02*
X083460Y006914D01*
X083460Y006996D02*
X083930Y006996D01*
X083930Y007078D02*
X083460Y007078D01*
X083460Y007160D02*
X083930Y007160D01*
X083930Y007242D02*
X083460Y007242D01*
X083460Y007324D02*
X083930Y007324D01*
X084130Y006832D02*
X084600Y006832D01*
X084130Y006832D02*
X084130Y007380D01*
X084600Y007380D01*
X084600Y006832D01*
X084600Y006914D02*
X084130Y006914D01*
X084130Y006996D02*
X084600Y006996D01*
X084600Y007078D02*
X084130Y007078D01*
X084130Y007160D02*
X084600Y007160D01*
X084600Y007242D02*
X084130Y007242D01*
X084130Y007324D02*
X084600Y007324D01*
X086420Y006832D02*
X086890Y006832D01*
X086420Y006832D02*
X086420Y007380D01*
X086890Y007380D01*
X086890Y006832D01*
X086890Y006914D02*
X086420Y006914D01*
X086420Y006996D02*
X086890Y006996D01*
X086890Y007078D02*
X086420Y007078D01*
X086420Y007160D02*
X086890Y007160D01*
X086890Y007242D02*
X086420Y007242D01*
X086420Y007324D02*
X086890Y007324D01*
X087090Y006832D02*
X087560Y006832D01*
X087090Y006832D02*
X087090Y007380D01*
X087560Y007380D01*
X087560Y006832D01*
X087560Y006914D02*
X087090Y006914D01*
X087090Y006996D02*
X087560Y006996D01*
X087560Y007078D02*
X087090Y007078D01*
X087090Y007160D02*
X087560Y007160D01*
X087560Y007242D02*
X087090Y007242D01*
X087090Y007324D02*
X087560Y007324D01*
X089380Y006832D02*
X089850Y006832D01*
X089380Y006832D02*
X089380Y007380D01*
X089850Y007380D01*
X089850Y006832D01*
X089850Y006914D02*
X089380Y006914D01*
X089380Y006996D02*
X089850Y006996D01*
X089850Y007078D02*
X089380Y007078D01*
X089380Y007160D02*
X089850Y007160D01*
X089850Y007242D02*
X089380Y007242D01*
X089380Y007324D02*
X089850Y007324D01*
X090050Y006832D02*
X090520Y006832D01*
X090050Y006832D02*
X090050Y007380D01*
X090520Y007380D01*
X090520Y006832D01*
X090520Y006914D02*
X090050Y006914D01*
X090050Y006996D02*
X090520Y006996D01*
X090520Y007078D02*
X090050Y007078D01*
X090050Y007160D02*
X090520Y007160D01*
X090520Y007242D02*
X090050Y007242D01*
X090050Y007324D02*
X090520Y007324D01*
X092340Y006832D02*
X092810Y006832D01*
X092340Y006832D02*
X092340Y007380D01*
X092810Y007380D01*
X092810Y006832D01*
X092810Y006914D02*
X092340Y006914D01*
X092340Y006996D02*
X092810Y006996D01*
X092810Y007078D02*
X092340Y007078D01*
X092340Y007160D02*
X092810Y007160D01*
X092810Y007242D02*
X092340Y007242D01*
X092340Y007324D02*
X092810Y007324D01*
X093010Y006832D02*
X093480Y006832D01*
X093010Y006832D02*
X093010Y007380D01*
X093480Y007380D01*
X093480Y006832D01*
X093480Y006914D02*
X093010Y006914D01*
X093010Y006996D02*
X093480Y006996D01*
X093480Y007078D02*
X093010Y007078D01*
X093010Y007160D02*
X093480Y007160D01*
X093480Y007242D02*
X093010Y007242D01*
X093010Y007324D02*
X093480Y007324D01*
X093480Y005592D02*
X093010Y005592D01*
X093010Y006140D01*
X093480Y006140D01*
X093480Y005592D01*
X093480Y005674D02*
X093010Y005674D01*
X093010Y005756D02*
X093480Y005756D01*
X093480Y005838D02*
X093010Y005838D01*
X093010Y005920D02*
X093480Y005920D01*
X093480Y006002D02*
X093010Y006002D01*
X093010Y006084D02*
X093480Y006084D01*
X092810Y005592D02*
X092340Y005592D01*
X092340Y006140D01*
X092810Y006140D01*
X092810Y005592D01*
X092810Y005674D02*
X092340Y005674D01*
X092340Y005756D02*
X092810Y005756D01*
X092810Y005838D02*
X092340Y005838D01*
X092340Y005920D02*
X092810Y005920D01*
X092810Y006002D02*
X092340Y006002D01*
X092340Y006084D02*
X092810Y006084D01*
X090520Y005592D02*
X090050Y005592D01*
X090050Y006140D01*
X090520Y006140D01*
X090520Y005592D01*
X090520Y005674D02*
X090050Y005674D01*
X090050Y005756D02*
X090520Y005756D01*
X090520Y005838D02*
X090050Y005838D01*
X090050Y005920D02*
X090520Y005920D01*
X090520Y006002D02*
X090050Y006002D01*
X090050Y006084D02*
X090520Y006084D01*
X089850Y005592D02*
X089380Y005592D01*
X089380Y006140D01*
X089850Y006140D01*
X089850Y005592D01*
X089850Y005674D02*
X089380Y005674D01*
X089380Y005756D02*
X089850Y005756D01*
X089850Y005838D02*
X089380Y005838D01*
X089380Y005920D02*
X089850Y005920D01*
X089850Y006002D02*
X089380Y006002D01*
X089380Y006084D02*
X089850Y006084D01*
X087560Y005592D02*
X087090Y005592D01*
X087090Y006140D01*
X087560Y006140D01*
X087560Y005592D01*
X087560Y005674D02*
X087090Y005674D01*
X087090Y005756D02*
X087560Y005756D01*
X087560Y005838D02*
X087090Y005838D01*
X087090Y005920D02*
X087560Y005920D01*
X087560Y006002D02*
X087090Y006002D01*
X087090Y006084D02*
X087560Y006084D01*
X086890Y005592D02*
X086420Y005592D01*
X086420Y006140D01*
X086890Y006140D01*
X086890Y005592D01*
X086890Y005674D02*
X086420Y005674D01*
X086420Y005756D02*
X086890Y005756D01*
X086890Y005838D02*
X086420Y005838D01*
X086420Y005920D02*
X086890Y005920D01*
X086890Y006002D02*
X086420Y006002D01*
X086420Y006084D02*
X086890Y006084D01*
X084600Y005592D02*
X084130Y005592D01*
X084130Y006140D01*
X084600Y006140D01*
X084600Y005592D01*
X084600Y005674D02*
X084130Y005674D01*
X084130Y005756D02*
X084600Y005756D01*
X084600Y005838D02*
X084130Y005838D01*
X084130Y005920D02*
X084600Y005920D01*
X084600Y006002D02*
X084130Y006002D01*
X084130Y006084D02*
X084600Y006084D01*
X083930Y005592D02*
X083460Y005592D01*
X083460Y006140D01*
X083930Y006140D01*
X083930Y005592D01*
X083930Y005674D02*
X083460Y005674D01*
X083460Y005756D02*
X083930Y005756D01*
X083930Y005838D02*
X083460Y005838D01*
X083460Y005920D02*
X083930Y005920D01*
X083930Y006002D02*
X083460Y006002D01*
X083460Y006084D02*
X083930Y006084D01*
X081640Y005592D02*
X081170Y005592D01*
X081170Y006140D01*
X081640Y006140D01*
X081640Y005592D01*
X081640Y005674D02*
X081170Y005674D01*
X081170Y005756D02*
X081640Y005756D01*
X081640Y005838D02*
X081170Y005838D01*
X081170Y005920D02*
X081640Y005920D01*
X081640Y006002D02*
X081170Y006002D01*
X081170Y006084D02*
X081640Y006084D01*
X080970Y005592D02*
X080500Y005592D01*
X080500Y006140D01*
X080970Y006140D01*
X080970Y005592D01*
X080970Y005674D02*
X080500Y005674D01*
X080500Y005756D02*
X080970Y005756D01*
X080970Y005838D02*
X080500Y005838D01*
X080500Y005920D02*
X080970Y005920D01*
X080970Y006002D02*
X080500Y006002D01*
X080500Y006084D02*
X080970Y006084D01*
X078680Y005592D02*
X078210Y005592D01*
X078210Y006140D01*
X078680Y006140D01*
X078680Y005592D01*
X078680Y005674D02*
X078210Y005674D01*
X078210Y005756D02*
X078680Y005756D01*
X078680Y005838D02*
X078210Y005838D01*
X078210Y005920D02*
X078680Y005920D01*
X078680Y006002D02*
X078210Y006002D01*
X078210Y006084D02*
X078680Y006084D01*
X078010Y005592D02*
X077540Y005592D01*
X077540Y006140D01*
X078010Y006140D01*
X078010Y005592D01*
X078010Y005674D02*
X077540Y005674D01*
X077540Y005756D02*
X078010Y005756D01*
X078010Y005838D02*
X077540Y005838D01*
X077540Y005920D02*
X078010Y005920D01*
X078010Y006002D02*
X077540Y006002D01*
X077540Y006084D02*
X078010Y006084D01*
X075720Y005592D02*
X075250Y005592D01*
X075250Y006140D01*
X075720Y006140D01*
X075720Y005592D01*
X075720Y005674D02*
X075250Y005674D01*
X075250Y005756D02*
X075720Y005756D01*
X075720Y005838D02*
X075250Y005838D01*
X075250Y005920D02*
X075720Y005920D01*
X075720Y006002D02*
X075250Y006002D01*
X075250Y006084D02*
X075720Y006084D01*
X075050Y005592D02*
X074580Y005592D01*
X074580Y006140D01*
X075050Y006140D01*
X075050Y005592D01*
X075050Y005674D02*
X074580Y005674D01*
X074580Y005756D02*
X075050Y005756D01*
X075050Y005838D02*
X074580Y005838D01*
X074580Y005920D02*
X075050Y005920D01*
X075050Y006002D02*
X074580Y006002D01*
X074580Y006084D02*
X075050Y006084D01*
X072760Y005592D02*
X072290Y005592D01*
X072290Y006140D01*
X072760Y006140D01*
X072760Y005592D01*
X072760Y005674D02*
X072290Y005674D01*
X072290Y005756D02*
X072760Y005756D01*
X072760Y005838D02*
X072290Y005838D01*
X072290Y005920D02*
X072760Y005920D01*
X072760Y006002D02*
X072290Y006002D01*
X072290Y006084D02*
X072760Y006084D01*
X072090Y005592D02*
X071620Y005592D01*
X071620Y006140D01*
X072090Y006140D01*
X072090Y005592D01*
X072090Y005674D02*
X071620Y005674D01*
X071620Y005756D02*
X072090Y005756D01*
X072090Y005838D02*
X071620Y005838D01*
X071620Y005920D02*
X072090Y005920D01*
X072090Y006002D02*
X071620Y006002D01*
X071620Y006084D02*
X072090Y006084D01*
X069800Y005592D02*
X069330Y005592D01*
X069330Y006140D01*
X069800Y006140D01*
X069800Y005592D01*
X069800Y005674D02*
X069330Y005674D01*
X069330Y005756D02*
X069800Y005756D01*
X069800Y005838D02*
X069330Y005838D01*
X069330Y005920D02*
X069800Y005920D01*
X069800Y006002D02*
X069330Y006002D01*
X069330Y006084D02*
X069800Y006084D01*
X069130Y005592D02*
X068660Y005592D01*
X068660Y006140D01*
X069130Y006140D01*
X069130Y005592D01*
X069130Y005674D02*
X068660Y005674D01*
X068660Y005756D02*
X069130Y005756D01*
X069130Y005838D02*
X068660Y005838D01*
X068660Y005920D02*
X069130Y005920D01*
X069130Y006002D02*
X068660Y006002D01*
X068660Y006084D02*
X069130Y006084D01*
X066840Y005592D02*
X066370Y005592D01*
X066370Y006140D01*
X066840Y006140D01*
X066840Y005592D01*
X066840Y005674D02*
X066370Y005674D01*
X066370Y005756D02*
X066840Y005756D01*
X066840Y005838D02*
X066370Y005838D01*
X066370Y005920D02*
X066840Y005920D01*
X066840Y006002D02*
X066370Y006002D01*
X066370Y006084D02*
X066840Y006084D01*
X066170Y005592D02*
X065700Y005592D01*
X065700Y006140D01*
X066170Y006140D01*
X066170Y005592D01*
X066170Y005674D02*
X065700Y005674D01*
X065700Y005756D02*
X066170Y005756D01*
X066170Y005838D02*
X065700Y005838D01*
X065700Y005920D02*
X066170Y005920D01*
X066170Y006002D02*
X065700Y006002D01*
X065700Y006084D02*
X066170Y006084D01*
X063880Y005592D02*
X063410Y005592D01*
X063410Y006140D01*
X063880Y006140D01*
X063880Y005592D01*
X063880Y005674D02*
X063410Y005674D01*
X063410Y005756D02*
X063880Y005756D01*
X063880Y005838D02*
X063410Y005838D01*
X063410Y005920D02*
X063880Y005920D01*
X063880Y006002D02*
X063410Y006002D01*
X063410Y006084D02*
X063880Y006084D01*
X063210Y005592D02*
X062740Y005592D01*
X062740Y006140D01*
X063210Y006140D01*
X063210Y005592D01*
X063210Y005674D02*
X062740Y005674D01*
X062740Y005756D02*
X063210Y005756D01*
X063210Y005838D02*
X062740Y005838D01*
X062740Y005920D02*
X063210Y005920D01*
X063210Y006002D02*
X062740Y006002D01*
X062740Y006084D02*
X063210Y006084D01*
X060920Y005592D02*
X060450Y005592D01*
X060450Y006140D01*
X060920Y006140D01*
X060920Y005592D01*
X060920Y005674D02*
X060450Y005674D01*
X060450Y005756D02*
X060920Y005756D01*
X060920Y005838D02*
X060450Y005838D01*
X060450Y005920D02*
X060920Y005920D01*
X060920Y006002D02*
X060450Y006002D01*
X060450Y006084D02*
X060920Y006084D01*
X060250Y005592D02*
X059780Y005592D01*
X059780Y006140D01*
X060250Y006140D01*
X060250Y005592D01*
X060250Y005674D02*
X059780Y005674D01*
X059780Y005756D02*
X060250Y005756D01*
X060250Y005838D02*
X059780Y005838D01*
X059780Y005920D02*
X060250Y005920D01*
X060250Y006002D02*
X059780Y006002D01*
X059780Y006084D02*
X060250Y006084D01*
X057960Y005592D02*
X057490Y005592D01*
X057490Y006140D01*
X057960Y006140D01*
X057960Y005592D01*
X057960Y005674D02*
X057490Y005674D01*
X057490Y005756D02*
X057960Y005756D01*
X057960Y005838D02*
X057490Y005838D01*
X057490Y005920D02*
X057960Y005920D01*
X057960Y006002D02*
X057490Y006002D01*
X057490Y006084D02*
X057960Y006084D01*
X057290Y005592D02*
X056820Y005592D01*
X056820Y006140D01*
X057290Y006140D01*
X057290Y005592D01*
X057290Y005674D02*
X056820Y005674D01*
X056820Y005756D02*
X057290Y005756D01*
X057290Y005838D02*
X056820Y005838D01*
X056820Y005920D02*
X057290Y005920D01*
X057290Y006002D02*
X056820Y006002D01*
X056820Y006084D02*
X057290Y006084D01*
X055000Y005592D02*
X054530Y005592D01*
X054530Y006140D01*
X055000Y006140D01*
X055000Y005592D01*
X055000Y005674D02*
X054530Y005674D01*
X054530Y005756D02*
X055000Y005756D01*
X055000Y005838D02*
X054530Y005838D01*
X054530Y005920D02*
X055000Y005920D01*
X055000Y006002D02*
X054530Y006002D01*
X054530Y006084D02*
X055000Y006084D01*
X054330Y005592D02*
X053860Y005592D01*
X053860Y006140D01*
X054330Y006140D01*
X054330Y005592D01*
X054330Y005674D02*
X053860Y005674D01*
X053860Y005756D02*
X054330Y005756D01*
X054330Y005838D02*
X053860Y005838D01*
X053860Y005920D02*
X054330Y005920D01*
X054330Y006002D02*
X053860Y006002D01*
X053860Y006084D02*
X054330Y006084D01*
X052120Y005592D02*
X051650Y005592D01*
X051650Y006140D01*
X052120Y006140D01*
X052120Y005592D01*
X052120Y005674D02*
X051650Y005674D01*
X051650Y005756D02*
X052120Y005756D01*
X052120Y005838D02*
X051650Y005838D01*
X051650Y005920D02*
X052120Y005920D01*
X052120Y006002D02*
X051650Y006002D01*
X051650Y006084D02*
X052120Y006084D01*
X051450Y005592D02*
X050980Y005592D01*
X050980Y006140D01*
X051450Y006140D01*
X051450Y005592D01*
X051450Y005674D02*
X050980Y005674D01*
X050980Y005756D02*
X051450Y005756D01*
X051450Y005838D02*
X050980Y005838D01*
X050980Y005920D02*
X051450Y005920D01*
X051450Y006002D02*
X050980Y006002D01*
X050980Y006084D02*
X051450Y006084D01*
X049240Y005592D02*
X048770Y005592D01*
X048770Y006140D01*
X049240Y006140D01*
X049240Y005592D01*
X049240Y005674D02*
X048770Y005674D01*
X048770Y005756D02*
X049240Y005756D01*
X049240Y005838D02*
X048770Y005838D01*
X048770Y005920D02*
X049240Y005920D01*
X049240Y006002D02*
X048770Y006002D01*
X048770Y006084D02*
X049240Y006084D01*
X048570Y005592D02*
X048100Y005592D01*
X048100Y006140D01*
X048570Y006140D01*
X048570Y005592D01*
X048570Y005674D02*
X048100Y005674D01*
X048100Y005756D02*
X048570Y005756D01*
X048570Y005838D02*
X048100Y005838D01*
X048100Y005920D02*
X048570Y005920D01*
X048570Y006002D02*
X048100Y006002D01*
X048100Y006084D02*
X048570Y006084D01*
X046360Y005592D02*
X045890Y005592D01*
X045890Y006140D01*
X046360Y006140D01*
X046360Y005592D01*
X046360Y005674D02*
X045890Y005674D01*
X045890Y005756D02*
X046360Y005756D01*
X046360Y005838D02*
X045890Y005838D01*
X045890Y005920D02*
X046360Y005920D01*
X046360Y006002D02*
X045890Y006002D01*
X045890Y006084D02*
X046360Y006084D01*
X045690Y005592D02*
X045220Y005592D01*
X045220Y006140D01*
X045690Y006140D01*
X045690Y005592D01*
X045690Y005674D02*
X045220Y005674D01*
X045220Y005756D02*
X045690Y005756D01*
X045690Y005838D02*
X045220Y005838D01*
X045220Y005920D02*
X045690Y005920D01*
X045690Y006002D02*
X045220Y006002D01*
X045220Y006084D02*
X045690Y006084D01*
X043480Y005592D02*
X043010Y005592D01*
X043010Y006140D01*
X043480Y006140D01*
X043480Y005592D01*
X043480Y005674D02*
X043010Y005674D01*
X043010Y005756D02*
X043480Y005756D01*
X043480Y005838D02*
X043010Y005838D01*
X043010Y005920D02*
X043480Y005920D01*
X043480Y006002D02*
X043010Y006002D01*
X043010Y006084D02*
X043480Y006084D01*
X042810Y005592D02*
X042340Y005592D01*
X042340Y006140D01*
X042810Y006140D01*
X042810Y005592D01*
X042810Y005674D02*
X042340Y005674D01*
X042340Y005756D02*
X042810Y005756D01*
X042810Y005838D02*
X042340Y005838D01*
X042340Y005920D02*
X042810Y005920D01*
X042810Y006002D02*
X042340Y006002D01*
X042340Y006084D02*
X042810Y006084D01*
X040600Y005592D02*
X040130Y005592D01*
X040130Y006140D01*
X040600Y006140D01*
X040600Y005592D01*
X040600Y005674D02*
X040130Y005674D01*
X040130Y005756D02*
X040600Y005756D01*
X040600Y005838D02*
X040130Y005838D01*
X040130Y005920D02*
X040600Y005920D01*
X040600Y006002D02*
X040130Y006002D01*
X040130Y006084D02*
X040600Y006084D01*
X039930Y005592D02*
X039460Y005592D01*
X039460Y006140D01*
X039930Y006140D01*
X039930Y005592D01*
X039930Y005674D02*
X039460Y005674D01*
X039460Y005756D02*
X039930Y005756D01*
X039930Y005838D02*
X039460Y005838D01*
X039460Y005920D02*
X039930Y005920D01*
X039930Y006002D02*
X039460Y006002D01*
X039460Y006084D02*
X039930Y006084D01*
X037640Y005592D02*
X037170Y005592D01*
X037170Y006140D01*
X037640Y006140D01*
X037640Y005592D01*
X037640Y005674D02*
X037170Y005674D01*
X037170Y005756D02*
X037640Y005756D01*
X037640Y005838D02*
X037170Y005838D01*
X037170Y005920D02*
X037640Y005920D01*
X037640Y006002D02*
X037170Y006002D01*
X037170Y006084D02*
X037640Y006084D01*
X036970Y005592D02*
X036500Y005592D01*
X036500Y006140D01*
X036970Y006140D01*
X036970Y005592D01*
X036970Y005674D02*
X036500Y005674D01*
X036500Y005756D02*
X036970Y005756D01*
X036970Y005838D02*
X036500Y005838D01*
X036500Y005920D02*
X036970Y005920D01*
X036970Y006002D02*
X036500Y006002D01*
X036500Y006084D02*
X036970Y006084D01*
X034680Y005592D02*
X034210Y005592D01*
X034210Y006140D01*
X034680Y006140D01*
X034680Y005592D01*
X034680Y005674D02*
X034210Y005674D01*
X034210Y005756D02*
X034680Y005756D01*
X034680Y005838D02*
X034210Y005838D01*
X034210Y005920D02*
X034680Y005920D01*
X034680Y006002D02*
X034210Y006002D01*
X034210Y006084D02*
X034680Y006084D01*
X034010Y005592D02*
X033540Y005592D01*
X033540Y006140D01*
X034010Y006140D01*
X034010Y005592D01*
X034010Y005674D02*
X033540Y005674D01*
X033540Y005756D02*
X034010Y005756D01*
X034010Y005838D02*
X033540Y005838D01*
X033540Y005920D02*
X034010Y005920D01*
X034010Y006002D02*
X033540Y006002D01*
X033540Y006084D02*
X034010Y006084D01*
X031720Y005592D02*
X031250Y005592D01*
X031250Y006140D01*
X031720Y006140D01*
X031720Y005592D01*
X031720Y005674D02*
X031250Y005674D01*
X031250Y005756D02*
X031720Y005756D01*
X031720Y005838D02*
X031250Y005838D01*
X031250Y005920D02*
X031720Y005920D01*
X031720Y006002D02*
X031250Y006002D01*
X031250Y006084D02*
X031720Y006084D01*
X031050Y005592D02*
X030580Y005592D01*
X030580Y006140D01*
X031050Y006140D01*
X031050Y005592D01*
X031050Y005674D02*
X030580Y005674D01*
X030580Y005756D02*
X031050Y005756D01*
X031050Y005838D02*
X030580Y005838D01*
X030580Y005920D02*
X031050Y005920D01*
X031050Y006002D02*
X030580Y006002D01*
X030580Y006084D02*
X031050Y006084D01*
X028760Y005592D02*
X028290Y005592D01*
X028290Y006140D01*
X028760Y006140D01*
X028760Y005592D01*
X028760Y005674D02*
X028290Y005674D01*
X028290Y005756D02*
X028760Y005756D01*
X028760Y005838D02*
X028290Y005838D01*
X028290Y005920D02*
X028760Y005920D01*
X028760Y006002D02*
X028290Y006002D01*
X028290Y006084D02*
X028760Y006084D01*
X028090Y005592D02*
X027620Y005592D01*
X027620Y006140D01*
X028090Y006140D01*
X028090Y005592D01*
X028090Y005674D02*
X027620Y005674D01*
X027620Y005756D02*
X028090Y005756D01*
X028090Y005838D02*
X027620Y005838D01*
X027620Y005920D02*
X028090Y005920D01*
X028090Y006002D02*
X027620Y006002D01*
X027620Y006084D02*
X028090Y006084D01*
X025800Y005592D02*
X025330Y005592D01*
X025330Y006140D01*
X025800Y006140D01*
X025800Y005592D01*
X025800Y005674D02*
X025330Y005674D01*
X025330Y005756D02*
X025800Y005756D01*
X025800Y005838D02*
X025330Y005838D01*
X025330Y005920D02*
X025800Y005920D01*
X025800Y006002D02*
X025330Y006002D01*
X025330Y006084D02*
X025800Y006084D01*
X025130Y005592D02*
X024660Y005592D01*
X024660Y006140D01*
X025130Y006140D01*
X025130Y005592D01*
X025130Y005674D02*
X024660Y005674D01*
X024660Y005756D02*
X025130Y005756D01*
X025130Y005838D02*
X024660Y005838D01*
X024660Y005920D02*
X025130Y005920D01*
X025130Y006002D02*
X024660Y006002D01*
X024660Y006084D02*
X025130Y006084D01*
X022840Y005592D02*
X022370Y005592D01*
X022370Y006140D01*
X022840Y006140D01*
X022840Y005592D01*
X022840Y005674D02*
X022370Y005674D01*
X022370Y005756D02*
X022840Y005756D01*
X022840Y005838D02*
X022370Y005838D01*
X022370Y005920D02*
X022840Y005920D01*
X022840Y006002D02*
X022370Y006002D01*
X022370Y006084D02*
X022840Y006084D01*
X022170Y005592D02*
X021700Y005592D01*
X021700Y006140D01*
X022170Y006140D01*
X022170Y005592D01*
X022170Y005674D02*
X021700Y005674D01*
X021700Y005756D02*
X022170Y005756D01*
X022170Y005838D02*
X021700Y005838D01*
X021700Y005920D02*
X022170Y005920D01*
X022170Y006002D02*
X021700Y006002D01*
X021700Y006084D02*
X022170Y006084D01*
X019880Y005592D02*
X019410Y005592D01*
X019410Y006140D01*
X019880Y006140D01*
X019880Y005592D01*
X019880Y005674D02*
X019410Y005674D01*
X019410Y005756D02*
X019880Y005756D01*
X019880Y005838D02*
X019410Y005838D01*
X019410Y005920D02*
X019880Y005920D01*
X019880Y006002D02*
X019410Y006002D01*
X019410Y006084D02*
X019880Y006084D01*
X019210Y005592D02*
X018740Y005592D01*
X018740Y006140D01*
X019210Y006140D01*
X019210Y005592D01*
X019210Y005674D02*
X018740Y005674D01*
X018740Y005756D02*
X019210Y005756D01*
X019210Y005838D02*
X018740Y005838D01*
X018740Y005920D02*
X019210Y005920D01*
X019210Y006002D02*
X018740Y006002D01*
X018740Y006084D02*
X019210Y006084D01*
X016920Y005592D02*
X016450Y005592D01*
X016450Y006140D01*
X016920Y006140D01*
X016920Y005592D01*
X016920Y005674D02*
X016450Y005674D01*
X016450Y005756D02*
X016920Y005756D01*
X016920Y005838D02*
X016450Y005838D01*
X016450Y005920D02*
X016920Y005920D01*
X016920Y006002D02*
X016450Y006002D01*
X016450Y006084D02*
X016920Y006084D01*
X016250Y005592D02*
X015780Y005592D01*
X015780Y006140D01*
X016250Y006140D01*
X016250Y005592D01*
X016250Y005674D02*
X015780Y005674D01*
X015780Y005756D02*
X016250Y005756D01*
X016250Y005838D02*
X015780Y005838D01*
X015780Y005920D02*
X016250Y005920D01*
X016250Y006002D02*
X015780Y006002D01*
X015780Y006084D02*
X016250Y006084D01*
X013960Y005592D02*
X013490Y005592D01*
X013490Y006140D01*
X013960Y006140D01*
X013960Y005592D01*
X013960Y005674D02*
X013490Y005674D01*
X013490Y005756D02*
X013960Y005756D01*
X013960Y005838D02*
X013490Y005838D01*
X013490Y005920D02*
X013960Y005920D01*
X013960Y006002D02*
X013490Y006002D01*
X013490Y006084D02*
X013960Y006084D01*
X013290Y005592D02*
X012820Y005592D01*
X012820Y006140D01*
X013290Y006140D01*
X013290Y005592D01*
X013290Y005674D02*
X012820Y005674D01*
X012820Y005756D02*
X013290Y005756D01*
X013290Y005838D02*
X012820Y005838D01*
X012820Y005920D02*
X013290Y005920D01*
X013290Y006002D02*
X012820Y006002D01*
X012820Y006084D02*
X013290Y006084D01*
X011000Y005592D02*
X010530Y005592D01*
X010530Y006140D01*
X011000Y006140D01*
X011000Y005592D01*
X011000Y005674D02*
X010530Y005674D01*
X010530Y005756D02*
X011000Y005756D01*
X011000Y005838D02*
X010530Y005838D01*
X010530Y005920D02*
X011000Y005920D01*
X011000Y006002D02*
X010530Y006002D01*
X010530Y006084D02*
X011000Y006084D01*
X010330Y005592D02*
X009860Y005592D01*
X009860Y006140D01*
X010330Y006140D01*
X010330Y005592D01*
X010330Y005674D02*
X009860Y005674D01*
X009860Y005756D02*
X010330Y005756D01*
X010330Y005838D02*
X009860Y005838D01*
X009860Y005920D02*
X010330Y005920D01*
X010330Y006002D02*
X009860Y006002D01*
X009860Y006084D02*
X010330Y006084D01*
X008040Y005592D02*
X007570Y005592D01*
X007570Y006140D01*
X008040Y006140D01*
X008040Y005592D01*
X008040Y005674D02*
X007570Y005674D01*
X007570Y005756D02*
X008040Y005756D01*
X008040Y005838D02*
X007570Y005838D01*
X007570Y005920D02*
X008040Y005920D01*
X008040Y006002D02*
X007570Y006002D01*
X007570Y006084D02*
X008040Y006084D01*
X007370Y005592D02*
X006900Y005592D01*
X006900Y006140D01*
X007370Y006140D01*
X007370Y005592D01*
X007370Y005674D02*
X006900Y005674D01*
X006900Y005756D02*
X007370Y005756D01*
X007370Y005838D02*
X006900Y005838D01*
X006900Y005920D02*
X007370Y005920D01*
X007370Y006002D02*
X006900Y006002D01*
X006900Y006084D02*
X007370Y006084D01*
X005080Y005592D02*
X004610Y005592D01*
X004610Y006140D01*
X005080Y006140D01*
X005080Y005592D01*
X005080Y005674D02*
X004610Y005674D01*
X004610Y005756D02*
X005080Y005756D01*
X005080Y005838D02*
X004610Y005838D01*
X004610Y005920D02*
X005080Y005920D01*
X005080Y006002D02*
X004610Y006002D01*
X004610Y006084D02*
X005080Y006084D01*
X004410Y005592D02*
X003940Y005592D01*
X003940Y006140D01*
X004410Y006140D01*
X004410Y005592D01*
X004410Y005674D02*
X003940Y005674D01*
X003940Y005756D02*
X004410Y005756D01*
X004410Y005838D02*
X003940Y005838D01*
X003940Y005920D02*
X004410Y005920D01*
X004410Y006002D02*
X003940Y006002D01*
X003940Y006084D02*
X004410Y006084D01*
X002120Y005592D02*
X001650Y005592D01*
X001650Y006140D01*
X002120Y006140D01*
X002120Y005592D01*
X002120Y005674D02*
X001650Y005674D01*
X001650Y005756D02*
X002120Y005756D01*
X002120Y005838D02*
X001650Y005838D01*
X001650Y005920D02*
X002120Y005920D01*
X002120Y006002D02*
X001650Y006002D01*
X001650Y006084D02*
X002120Y006084D01*
X001450Y005592D02*
X000980Y005592D01*
X000980Y006140D01*
X001450Y006140D01*
X001450Y005592D01*
X001450Y005674D02*
X000980Y005674D01*
X000980Y005756D02*
X001450Y005756D01*
X001450Y005838D02*
X000980Y005838D01*
X000980Y005920D02*
X001450Y005920D01*
X001450Y006002D02*
X000980Y006002D01*
X000980Y006084D02*
X001450Y006084D01*
X001450Y006832D02*
X000980Y006832D01*
X000980Y007380D01*
X001450Y007380D01*
X001450Y006832D01*
X001450Y006914D02*
X000980Y006914D01*
X000980Y006996D02*
X001450Y006996D01*
X001450Y007078D02*
X000980Y007078D01*
X000980Y007160D02*
X001450Y007160D01*
X001450Y007242D02*
X000980Y007242D01*
X000980Y007324D02*
X001450Y007324D01*
X001650Y006832D02*
X002120Y006832D01*
X001650Y006832D02*
X001650Y007380D01*
X002120Y007380D01*
X002120Y006832D01*
X002120Y006914D02*
X001650Y006914D01*
X001650Y006996D02*
X002120Y006996D01*
X002120Y007078D02*
X001650Y007078D01*
X001650Y007160D02*
X002120Y007160D01*
X002120Y007242D02*
X001650Y007242D01*
X001650Y007324D02*
X002120Y007324D01*
X003940Y006832D02*
X004410Y006832D01*
X003940Y006832D02*
X003940Y007380D01*
X004410Y007380D01*
X004410Y006832D01*
X004410Y006914D02*
X003940Y006914D01*
X003940Y006996D02*
X004410Y006996D01*
X004410Y007078D02*
X003940Y007078D01*
X003940Y007160D02*
X004410Y007160D01*
X004410Y007242D02*
X003940Y007242D01*
X003940Y007324D02*
X004410Y007324D01*
X004610Y006832D02*
X005080Y006832D01*
X004610Y006832D02*
X004610Y007380D01*
X005080Y007380D01*
X005080Y006832D01*
X005080Y006914D02*
X004610Y006914D01*
X004610Y006996D02*
X005080Y006996D01*
X005080Y007078D02*
X004610Y007078D01*
X004610Y007160D02*
X005080Y007160D01*
X005080Y007242D02*
X004610Y007242D01*
X004610Y007324D02*
X005080Y007324D01*
X006900Y006832D02*
X007370Y006832D01*
X006900Y006832D02*
X006900Y007380D01*
X007370Y007380D01*
X007370Y006832D01*
X007370Y006914D02*
X006900Y006914D01*
X006900Y006996D02*
X007370Y006996D01*
X007370Y007078D02*
X006900Y007078D01*
X006900Y007160D02*
X007370Y007160D01*
X007370Y007242D02*
X006900Y007242D01*
X006900Y007324D02*
X007370Y007324D01*
X007570Y006832D02*
X008040Y006832D01*
X007570Y006832D02*
X007570Y007380D01*
X008040Y007380D01*
X008040Y006832D01*
X008040Y006914D02*
X007570Y006914D01*
X007570Y006996D02*
X008040Y006996D01*
X008040Y007078D02*
X007570Y007078D01*
X007570Y007160D02*
X008040Y007160D01*
X008040Y007242D02*
X007570Y007242D01*
X007570Y007324D02*
X008040Y007324D01*
X009860Y006832D02*
X010330Y006832D01*
X009860Y006832D02*
X009860Y007380D01*
X010330Y007380D01*
X010330Y006832D01*
X010330Y006914D02*
X009860Y006914D01*
X009860Y006996D02*
X010330Y006996D01*
X010330Y007078D02*
X009860Y007078D01*
X009860Y007160D02*
X010330Y007160D01*
X010330Y007242D02*
X009860Y007242D01*
X009860Y007324D02*
X010330Y007324D01*
X010530Y006832D02*
X011000Y006832D01*
X010530Y006832D02*
X010530Y007380D01*
X011000Y007380D01*
X011000Y006832D01*
X011000Y006914D02*
X010530Y006914D01*
X010530Y006996D02*
X011000Y006996D01*
X011000Y007078D02*
X010530Y007078D01*
X010530Y007160D02*
X011000Y007160D01*
X011000Y007242D02*
X010530Y007242D01*
X010530Y007324D02*
X011000Y007324D01*
X012820Y006832D02*
X013290Y006832D01*
X012820Y006832D02*
X012820Y007380D01*
X013290Y007380D01*
X013290Y006832D01*
X013290Y006914D02*
X012820Y006914D01*
X012820Y006996D02*
X013290Y006996D01*
X013290Y007078D02*
X012820Y007078D01*
X012820Y007160D02*
X013290Y007160D01*
X013290Y007242D02*
X012820Y007242D01*
X012820Y007324D02*
X013290Y007324D01*
X013490Y006832D02*
X013960Y006832D01*
X013490Y006832D02*
X013490Y007380D01*
X013960Y007380D01*
X013960Y006832D01*
X013960Y006914D02*
X013490Y006914D01*
X013490Y006996D02*
X013960Y006996D01*
X013960Y007078D02*
X013490Y007078D01*
X013490Y007160D02*
X013960Y007160D01*
X013960Y007242D02*
X013490Y007242D01*
X013490Y007324D02*
X013960Y007324D01*
X015780Y006832D02*
X016250Y006832D01*
X015780Y006832D02*
X015780Y007380D01*
X016250Y007380D01*
X016250Y006832D01*
X016250Y006914D02*
X015780Y006914D01*
X015780Y006996D02*
X016250Y006996D01*
X016250Y007078D02*
X015780Y007078D01*
X015780Y007160D02*
X016250Y007160D01*
X016250Y007242D02*
X015780Y007242D01*
X015780Y007324D02*
X016250Y007324D01*
X016450Y006832D02*
X016920Y006832D01*
X016450Y006832D02*
X016450Y007380D01*
X016920Y007380D01*
X016920Y006832D01*
X016920Y006914D02*
X016450Y006914D01*
X016450Y006996D02*
X016920Y006996D01*
X016920Y007078D02*
X016450Y007078D01*
X016450Y007160D02*
X016920Y007160D01*
X016920Y007242D02*
X016450Y007242D01*
X016450Y007324D02*
X016920Y007324D01*
X018740Y006832D02*
X019210Y006832D01*
X018740Y006832D02*
X018740Y007380D01*
X019210Y007380D01*
X019210Y006832D01*
X019210Y006914D02*
X018740Y006914D01*
X018740Y006996D02*
X019210Y006996D01*
X019210Y007078D02*
X018740Y007078D01*
X018740Y007160D02*
X019210Y007160D01*
X019210Y007242D02*
X018740Y007242D01*
X018740Y007324D02*
X019210Y007324D01*
X019410Y006832D02*
X019880Y006832D01*
X019410Y006832D02*
X019410Y007380D01*
X019880Y007380D01*
X019880Y006832D01*
X019880Y006914D02*
X019410Y006914D01*
X019410Y006996D02*
X019880Y006996D01*
X019880Y007078D02*
X019410Y007078D01*
X019410Y007160D02*
X019880Y007160D01*
X019880Y007242D02*
X019410Y007242D01*
X019410Y007324D02*
X019880Y007324D01*
X021700Y006832D02*
X022170Y006832D01*
X021700Y006832D02*
X021700Y007380D01*
X022170Y007380D01*
X022170Y006832D01*
X022170Y006914D02*
X021700Y006914D01*
X021700Y006996D02*
X022170Y006996D01*
X022170Y007078D02*
X021700Y007078D01*
X021700Y007160D02*
X022170Y007160D01*
X022170Y007242D02*
X021700Y007242D01*
X021700Y007324D02*
X022170Y007324D01*
X022370Y006832D02*
X022840Y006832D01*
X022370Y006832D02*
X022370Y007380D01*
X022840Y007380D01*
X022840Y006832D01*
X022840Y006914D02*
X022370Y006914D01*
X022370Y006996D02*
X022840Y006996D01*
X022840Y007078D02*
X022370Y007078D01*
X022370Y007160D02*
X022840Y007160D01*
X022840Y007242D02*
X022370Y007242D01*
X022370Y007324D02*
X022840Y007324D01*
X024660Y006832D02*
X025130Y006832D01*
X024660Y006832D02*
X024660Y007380D01*
X025130Y007380D01*
X025130Y006832D01*
X025130Y006914D02*
X024660Y006914D01*
X024660Y006996D02*
X025130Y006996D01*
X025130Y007078D02*
X024660Y007078D01*
X024660Y007160D02*
X025130Y007160D01*
X025130Y007242D02*
X024660Y007242D01*
X024660Y007324D02*
X025130Y007324D01*
X025330Y006832D02*
X025800Y006832D01*
X025330Y006832D02*
X025330Y007380D01*
X025800Y007380D01*
X025800Y006832D01*
X025800Y006914D02*
X025330Y006914D01*
X025330Y006996D02*
X025800Y006996D01*
X025800Y007078D02*
X025330Y007078D01*
X025330Y007160D02*
X025800Y007160D01*
X025800Y007242D02*
X025330Y007242D01*
X025330Y007324D02*
X025800Y007324D01*
X027620Y006832D02*
X028090Y006832D01*
X027620Y006832D02*
X027620Y007380D01*
X028090Y007380D01*
X028090Y006832D01*
X028090Y006914D02*
X027620Y006914D01*
X027620Y006996D02*
X028090Y006996D01*
X028090Y007078D02*
X027620Y007078D01*
X027620Y007160D02*
X028090Y007160D01*
X028090Y007242D02*
X027620Y007242D01*
X027620Y007324D02*
X028090Y007324D01*
X028290Y006832D02*
X028760Y006832D01*
X028290Y006832D02*
X028290Y007380D01*
X028760Y007380D01*
X028760Y006832D01*
X028760Y006914D02*
X028290Y006914D01*
X028290Y006996D02*
X028760Y006996D01*
X028760Y007078D02*
X028290Y007078D01*
X028290Y007160D02*
X028760Y007160D01*
X028760Y007242D02*
X028290Y007242D01*
X028290Y007324D02*
X028760Y007324D01*
X030580Y006832D02*
X031050Y006832D01*
X030580Y006832D02*
X030580Y007380D01*
X031050Y007380D01*
X031050Y006832D01*
X031050Y006914D02*
X030580Y006914D01*
X030580Y006996D02*
X031050Y006996D01*
X031050Y007078D02*
X030580Y007078D01*
X030580Y007160D02*
X031050Y007160D01*
X031050Y007242D02*
X030580Y007242D01*
X030580Y007324D02*
X031050Y007324D01*
X031250Y006832D02*
X031720Y006832D01*
X031250Y006832D02*
X031250Y007380D01*
X031720Y007380D01*
X031720Y006832D01*
X031720Y006914D02*
X031250Y006914D01*
X031250Y006996D02*
X031720Y006996D01*
X031720Y007078D02*
X031250Y007078D01*
X031250Y007160D02*
X031720Y007160D01*
X031720Y007242D02*
X031250Y007242D01*
X031250Y007324D02*
X031720Y007324D01*
X033540Y006832D02*
X034010Y006832D01*
X033540Y006832D02*
X033540Y007380D01*
X034010Y007380D01*
X034010Y006832D01*
X034010Y006914D02*
X033540Y006914D01*
X033540Y006996D02*
X034010Y006996D01*
X034010Y007078D02*
X033540Y007078D01*
X033540Y007160D02*
X034010Y007160D01*
X034010Y007242D02*
X033540Y007242D01*
X033540Y007324D02*
X034010Y007324D01*
X034210Y006832D02*
X034680Y006832D01*
X034210Y006832D02*
X034210Y007380D01*
X034680Y007380D01*
X034680Y006832D01*
X034680Y006914D02*
X034210Y006914D01*
X034210Y006996D02*
X034680Y006996D01*
X034680Y007078D02*
X034210Y007078D01*
X034210Y007160D02*
X034680Y007160D01*
X034680Y007242D02*
X034210Y007242D01*
X034210Y007324D02*
X034680Y007324D01*
X036500Y006832D02*
X036970Y006832D01*
X036500Y006832D02*
X036500Y007380D01*
X036970Y007380D01*
X036970Y006832D01*
X036970Y006914D02*
X036500Y006914D01*
X036500Y006996D02*
X036970Y006996D01*
X036970Y007078D02*
X036500Y007078D01*
X036500Y007160D02*
X036970Y007160D01*
X036970Y007242D02*
X036500Y007242D01*
X036500Y007324D02*
X036970Y007324D01*
X037170Y006832D02*
X037640Y006832D01*
X037170Y006832D02*
X037170Y007380D01*
X037640Y007380D01*
X037640Y006832D01*
X037640Y006914D02*
X037170Y006914D01*
X037170Y006996D02*
X037640Y006996D01*
X037640Y007078D02*
X037170Y007078D01*
X037170Y007160D02*
X037640Y007160D01*
X037640Y007242D02*
X037170Y007242D01*
X037170Y007324D02*
X037640Y007324D01*
X039460Y006832D02*
X039930Y006832D01*
X039460Y006832D02*
X039460Y007380D01*
X039930Y007380D01*
X039930Y006832D01*
X039930Y006914D02*
X039460Y006914D01*
X039460Y006996D02*
X039930Y006996D01*
X039930Y007078D02*
X039460Y007078D01*
X039460Y007160D02*
X039930Y007160D01*
X039930Y007242D02*
X039460Y007242D01*
X039460Y007324D02*
X039930Y007324D01*
X040130Y006832D02*
X040600Y006832D01*
X040130Y006832D02*
X040130Y007380D01*
X040600Y007380D01*
X040600Y006832D01*
X040600Y006914D02*
X040130Y006914D01*
X040130Y006996D02*
X040600Y006996D01*
X040600Y007078D02*
X040130Y007078D01*
X040130Y007160D02*
X040600Y007160D01*
X040600Y007242D02*
X040130Y007242D01*
X040130Y007324D02*
X040600Y007324D01*
X042340Y006832D02*
X042810Y006832D01*
X042340Y006832D02*
X042340Y007380D01*
X042810Y007380D01*
X042810Y006832D01*
X042810Y006914D02*
X042340Y006914D01*
X042340Y006996D02*
X042810Y006996D01*
X042810Y007078D02*
X042340Y007078D01*
X042340Y007160D02*
X042810Y007160D01*
X042810Y007242D02*
X042340Y007242D01*
X042340Y007324D02*
X042810Y007324D01*
X043010Y006832D02*
X043480Y006832D01*
X043010Y006832D02*
X043010Y007380D01*
X043480Y007380D01*
X043480Y006832D01*
X043480Y006914D02*
X043010Y006914D01*
X043010Y006996D02*
X043480Y006996D01*
X043480Y007078D02*
X043010Y007078D01*
X043010Y007160D02*
X043480Y007160D01*
X043480Y007242D02*
X043010Y007242D01*
X043010Y007324D02*
X043480Y007324D01*
X045220Y006832D02*
X045690Y006832D01*
X045220Y006832D02*
X045220Y007380D01*
X045690Y007380D01*
X045690Y006832D01*
X045690Y006914D02*
X045220Y006914D01*
X045220Y006996D02*
X045690Y006996D01*
X045690Y007078D02*
X045220Y007078D01*
X045220Y007160D02*
X045690Y007160D01*
X045690Y007242D02*
X045220Y007242D01*
X045220Y007324D02*
X045690Y007324D01*
X045890Y006832D02*
X046360Y006832D01*
X045890Y006832D02*
X045890Y007380D01*
X046360Y007380D01*
X046360Y006832D01*
X046360Y006914D02*
X045890Y006914D01*
X045890Y006996D02*
X046360Y006996D01*
X046360Y007078D02*
X045890Y007078D01*
X045890Y007160D02*
X046360Y007160D01*
X046360Y007242D02*
X045890Y007242D01*
X045890Y007324D02*
X046360Y007324D01*
X048100Y006832D02*
X048570Y006832D01*
X048100Y006832D02*
X048100Y007380D01*
X048570Y007380D01*
X048570Y006832D01*
X048570Y006914D02*
X048100Y006914D01*
X048100Y006996D02*
X048570Y006996D01*
X048570Y007078D02*
X048100Y007078D01*
X048100Y007160D02*
X048570Y007160D01*
X048570Y007242D02*
X048100Y007242D01*
X048100Y007324D02*
X048570Y007324D01*
X048770Y006832D02*
X049240Y006832D01*
X048770Y006832D02*
X048770Y007380D01*
X049240Y007380D01*
X049240Y006832D01*
X049240Y006914D02*
X048770Y006914D01*
X048770Y006996D02*
X049240Y006996D01*
X049240Y007078D02*
X048770Y007078D01*
X048770Y007160D02*
X049240Y007160D01*
X049240Y007242D02*
X048770Y007242D01*
X048770Y007324D02*
X049240Y007324D01*
X050980Y006832D02*
X051450Y006832D01*
X050980Y006832D02*
X050980Y007380D01*
X051450Y007380D01*
X051450Y006832D01*
X051450Y006914D02*
X050980Y006914D01*
X050980Y006996D02*
X051450Y006996D01*
X051450Y007078D02*
X050980Y007078D01*
X050980Y007160D02*
X051450Y007160D01*
X051450Y007242D02*
X050980Y007242D01*
X050980Y007324D02*
X051450Y007324D01*
X051650Y006832D02*
X052120Y006832D01*
X051650Y006832D02*
X051650Y007380D01*
X052120Y007380D01*
X052120Y006832D01*
X052120Y006914D02*
X051650Y006914D01*
X051650Y006996D02*
X052120Y006996D01*
X052120Y007078D02*
X051650Y007078D01*
X051650Y007160D02*
X052120Y007160D01*
X052120Y007242D02*
X051650Y007242D01*
X051650Y007324D02*
X052120Y007324D01*
X053860Y006832D02*
X054330Y006832D01*
X053860Y006832D02*
X053860Y007380D01*
X054330Y007380D01*
X054330Y006832D01*
X054330Y006914D02*
X053860Y006914D01*
X053860Y006996D02*
X054330Y006996D01*
X054330Y007078D02*
X053860Y007078D01*
X053860Y007160D02*
X054330Y007160D01*
X054330Y007242D02*
X053860Y007242D01*
X053860Y007324D02*
X054330Y007324D01*
X054530Y006832D02*
X055000Y006832D01*
X054530Y006832D02*
X054530Y007380D01*
X055000Y007380D01*
X055000Y006832D01*
X055000Y006914D02*
X054530Y006914D01*
X054530Y006996D02*
X055000Y006996D01*
X055000Y007078D02*
X054530Y007078D01*
X054530Y007160D02*
X055000Y007160D01*
X055000Y007242D02*
X054530Y007242D01*
X054530Y007324D02*
X055000Y007324D01*
X056820Y006832D02*
X057290Y006832D01*
X056820Y006832D02*
X056820Y007380D01*
X057290Y007380D01*
X057290Y006832D01*
X057290Y006914D02*
X056820Y006914D01*
X056820Y006996D02*
X057290Y006996D01*
X057290Y007078D02*
X056820Y007078D01*
X056820Y007160D02*
X057290Y007160D01*
X057290Y007242D02*
X056820Y007242D01*
X056820Y007324D02*
X057290Y007324D01*
X057490Y006832D02*
X057960Y006832D01*
X057490Y006832D02*
X057490Y007380D01*
X057960Y007380D01*
X057960Y006832D01*
X057960Y006914D02*
X057490Y006914D01*
X057490Y006996D02*
X057960Y006996D01*
X057960Y007078D02*
X057490Y007078D01*
X057490Y007160D02*
X057960Y007160D01*
X057960Y007242D02*
X057490Y007242D01*
X057490Y007324D02*
X057960Y007324D01*
X059780Y006832D02*
X060250Y006832D01*
X059780Y006832D02*
X059780Y007380D01*
X060250Y007380D01*
X060250Y006832D01*
X060250Y006914D02*
X059780Y006914D01*
X059780Y006996D02*
X060250Y006996D01*
X060250Y007078D02*
X059780Y007078D01*
X059780Y007160D02*
X060250Y007160D01*
X060250Y007242D02*
X059780Y007242D01*
X059780Y007324D02*
X060250Y007324D01*
X060450Y006832D02*
X060920Y006832D01*
X060450Y006832D02*
X060450Y007380D01*
X060920Y007380D01*
X060920Y006832D01*
X060920Y006914D02*
X060450Y006914D01*
X060450Y006996D02*
X060920Y006996D01*
X060920Y007078D02*
X060450Y007078D01*
X060450Y007160D02*
X060920Y007160D01*
X060920Y007242D02*
X060450Y007242D01*
X060450Y007324D02*
X060920Y007324D01*
X062740Y006832D02*
X063210Y006832D01*
X062740Y006832D02*
X062740Y007380D01*
X063210Y007380D01*
X063210Y006832D01*
X063210Y006914D02*
X062740Y006914D01*
X062740Y006996D02*
X063210Y006996D01*
X063210Y007078D02*
X062740Y007078D01*
X062740Y007160D02*
X063210Y007160D01*
X063210Y007242D02*
X062740Y007242D01*
X062740Y007324D02*
X063210Y007324D01*
X063410Y006832D02*
X063880Y006832D01*
X063410Y006832D02*
X063410Y007380D01*
X063880Y007380D01*
X063880Y006832D01*
X063880Y006914D02*
X063410Y006914D01*
X063410Y006996D02*
X063880Y006996D01*
X063880Y007078D02*
X063410Y007078D01*
X063410Y007160D02*
X063880Y007160D01*
X063880Y007242D02*
X063410Y007242D01*
X063410Y007324D02*
X063880Y007324D01*
X065700Y006832D02*
X066170Y006832D01*
X065700Y006832D02*
X065700Y007380D01*
X066170Y007380D01*
X066170Y006832D01*
X066170Y006914D02*
X065700Y006914D01*
X065700Y006996D02*
X066170Y006996D01*
X066170Y007078D02*
X065700Y007078D01*
X065700Y007160D02*
X066170Y007160D01*
X066170Y007242D02*
X065700Y007242D01*
X065700Y007324D02*
X066170Y007324D01*
X066370Y006832D02*
X066840Y006832D01*
X066370Y006832D02*
X066370Y007380D01*
X066840Y007380D01*
X066840Y006832D01*
X066840Y006914D02*
X066370Y006914D01*
X066370Y006996D02*
X066840Y006996D01*
X066840Y007078D02*
X066370Y007078D01*
X066370Y007160D02*
X066840Y007160D01*
X066840Y007242D02*
X066370Y007242D01*
X066370Y007324D02*
X066840Y007324D01*
X068660Y006832D02*
X069130Y006832D01*
X068660Y006832D02*
X068660Y007380D01*
X069130Y007380D01*
X069130Y006832D01*
X069130Y006914D02*
X068660Y006914D01*
X068660Y006996D02*
X069130Y006996D01*
X069130Y007078D02*
X068660Y007078D01*
X068660Y007160D02*
X069130Y007160D01*
X069130Y007242D02*
X068660Y007242D01*
X068660Y007324D02*
X069130Y007324D01*
X069330Y006832D02*
X069800Y006832D01*
X069330Y006832D02*
X069330Y007380D01*
X069800Y007380D01*
X069800Y006832D01*
X069800Y006914D02*
X069330Y006914D01*
X069330Y006996D02*
X069800Y006996D01*
X069800Y007078D02*
X069330Y007078D01*
X069330Y007160D02*
X069800Y007160D01*
X069800Y007242D02*
X069330Y007242D01*
X069330Y007324D02*
X069800Y007324D01*
X071620Y006832D02*
X072090Y006832D01*
X071620Y006832D02*
X071620Y007380D01*
X072090Y007380D01*
X072090Y006832D01*
X072090Y006914D02*
X071620Y006914D01*
X071620Y006996D02*
X072090Y006996D01*
X072090Y007078D02*
X071620Y007078D01*
X071620Y007160D02*
X072090Y007160D01*
X072090Y007242D02*
X071620Y007242D01*
X071620Y007324D02*
X072090Y007324D01*
X072290Y006832D02*
X072760Y006832D01*
X072290Y006832D02*
X072290Y007380D01*
X072760Y007380D01*
X072760Y006832D01*
X072760Y006914D02*
X072290Y006914D01*
X072290Y006996D02*
X072760Y006996D01*
X072760Y007078D02*
X072290Y007078D01*
X072290Y007160D02*
X072760Y007160D01*
X072760Y007242D02*
X072290Y007242D01*
X072290Y007324D02*
X072760Y007324D01*
X074580Y006832D02*
X075050Y006832D01*
X074580Y006832D02*
X074580Y007380D01*
X075050Y007380D01*
X075050Y006832D01*
X075050Y006914D02*
X074580Y006914D01*
X074580Y006996D02*
X075050Y006996D01*
X075050Y007078D02*
X074580Y007078D01*
X074580Y007160D02*
X075050Y007160D01*
X075050Y007242D02*
X074580Y007242D01*
X074580Y007324D02*
X075050Y007324D01*
X075250Y006832D02*
X075720Y006832D01*
X075250Y006832D02*
X075250Y007380D01*
X075720Y007380D01*
X075720Y006832D01*
X075720Y006914D02*
X075250Y006914D01*
X075250Y006996D02*
X075720Y006996D01*
X075720Y007078D02*
X075250Y007078D01*
X075250Y007160D02*
X075720Y007160D01*
X075720Y007242D02*
X075250Y007242D01*
X075250Y007324D02*
X075720Y007324D01*
X077540Y006832D02*
X078010Y006832D01*
X077540Y006832D02*
X077540Y007380D01*
X078010Y007380D01*
X078010Y006832D01*
X078010Y006914D02*
X077540Y006914D01*
X077540Y006996D02*
X078010Y006996D01*
X078010Y007078D02*
X077540Y007078D01*
X077540Y007160D02*
X078010Y007160D01*
X078010Y007242D02*
X077540Y007242D01*
X077540Y007324D02*
X078010Y007324D01*
X078210Y006832D02*
X078680Y006832D01*
X078210Y006832D02*
X078210Y007380D01*
X078680Y007380D01*
X078680Y006832D01*
X078680Y006914D02*
X078210Y006914D01*
X078210Y006996D02*
X078680Y006996D01*
X078680Y007078D02*
X078210Y007078D01*
X078210Y007160D02*
X078680Y007160D01*
X078680Y007242D02*
X078210Y007242D01*
X078210Y007324D02*
X078680Y007324D01*
D12*
X077718Y013619D02*
X077718Y014313D01*
X078612Y014313D01*
X078612Y013619D01*
X077718Y013619D01*
X077718Y013704D02*
X078612Y013704D01*
X078612Y013789D02*
X077718Y013789D01*
X077718Y013874D02*
X078612Y013874D01*
X078612Y013959D02*
X077718Y013959D01*
X077718Y014044D02*
X078612Y014044D01*
X078612Y014129D02*
X077718Y014129D01*
X077718Y014214D02*
X078612Y014214D01*
X078612Y014299D02*
X077718Y014299D01*
X077718Y014819D02*
X077718Y015513D01*
X078612Y015513D01*
X078612Y014819D01*
X077718Y014819D01*
X077718Y014904D02*
X078612Y014904D01*
X078612Y014989D02*
X077718Y014989D01*
X077718Y015074D02*
X078612Y015074D01*
X078612Y015159D02*
X077718Y015159D01*
X077718Y015244D02*
X078612Y015244D01*
X078612Y015329D02*
X077718Y015329D01*
X077718Y015414D02*
X078612Y015414D01*
X078612Y015499D02*
X077718Y015499D01*
X081898Y015293D02*
X081898Y014599D01*
X081898Y015293D02*
X082792Y015293D01*
X082792Y014599D01*
X081898Y014599D01*
X081898Y014684D02*
X082792Y014684D01*
X082792Y014769D02*
X081898Y014769D01*
X081898Y014854D02*
X082792Y014854D01*
X082792Y014939D02*
X081898Y014939D01*
X081898Y015024D02*
X082792Y015024D01*
X082792Y015109D02*
X081898Y015109D01*
X081898Y015194D02*
X082792Y015194D01*
X082792Y015279D02*
X081898Y015279D01*
X081898Y015799D02*
X081898Y016493D01*
X082792Y016493D01*
X082792Y015799D01*
X081898Y015799D01*
X081898Y015884D02*
X082792Y015884D01*
X082792Y015969D02*
X081898Y015969D01*
X081898Y016054D02*
X082792Y016054D01*
X082792Y016139D02*
X081898Y016139D01*
X081898Y016224D02*
X082792Y016224D01*
X082792Y016309D02*
X081898Y016309D01*
X081898Y016394D02*
X082792Y016394D01*
X082792Y016479D02*
X081898Y016479D01*
D13*
X089223Y012479D02*
X089223Y012243D01*
X089003Y012243D01*
X089003Y012479D01*
X089223Y012479D01*
X089223Y012323D02*
X089003Y012323D01*
X089003Y012403D02*
X089223Y012403D01*
X089538Y012479D02*
X089538Y012243D01*
X089318Y012243D01*
X089318Y012479D01*
X089538Y012479D01*
X089538Y012323D02*
X089318Y012323D01*
X089318Y012403D02*
X089538Y012403D01*
X089853Y012479D02*
X089853Y012243D01*
X089633Y012243D01*
X089633Y012479D01*
X089853Y012479D01*
X089853Y012323D02*
X089633Y012323D01*
X089633Y012403D02*
X089853Y012403D01*
X090167Y012479D02*
X090167Y012243D01*
X089947Y012243D01*
X089947Y012479D01*
X090167Y012479D01*
X090167Y012323D02*
X089947Y012323D01*
X089947Y012403D02*
X090167Y012403D01*
X090167Y011689D02*
X090167Y011453D01*
X089947Y011453D01*
X089947Y011689D01*
X090167Y011689D01*
X090167Y011533D02*
X089947Y011533D01*
X089947Y011613D02*
X090167Y011613D01*
X089853Y011689D02*
X089853Y011453D01*
X089633Y011453D01*
X089633Y011689D01*
X089853Y011689D01*
X089853Y011533D02*
X089633Y011533D01*
X089633Y011613D02*
X089853Y011613D01*
X089538Y011689D02*
X089538Y011453D01*
X089318Y011453D01*
X089318Y011689D01*
X089538Y011689D01*
X089538Y011533D02*
X089318Y011533D01*
X089318Y011613D02*
X089538Y011613D01*
X089223Y011689D02*
X089223Y011453D01*
X089003Y011453D01*
X089003Y011689D01*
X089223Y011689D01*
X089223Y011533D02*
X089003Y011533D01*
X089003Y011613D02*
X089223Y011613D01*
X092443Y011439D02*
X092443Y011203D01*
X092223Y011203D01*
X092223Y011439D01*
X092443Y011439D01*
X092443Y011283D02*
X092223Y011283D01*
X092223Y011363D02*
X092443Y011363D01*
X092758Y011439D02*
X092758Y011203D01*
X092538Y011203D01*
X092538Y011439D01*
X092758Y011439D01*
X092758Y011283D02*
X092538Y011283D01*
X092538Y011363D02*
X092758Y011363D01*
X093073Y011439D02*
X093073Y011203D01*
X092853Y011203D01*
X092853Y011439D01*
X093073Y011439D01*
X093073Y011283D02*
X092853Y011283D01*
X092853Y011363D02*
X093073Y011363D01*
X093387Y011439D02*
X093387Y011203D01*
X093167Y011203D01*
X093167Y011439D01*
X093387Y011439D01*
X093387Y011283D02*
X093167Y011283D01*
X093167Y011363D02*
X093387Y011363D01*
X093387Y010649D02*
X093387Y010413D01*
X093167Y010413D01*
X093167Y010649D01*
X093387Y010649D01*
X093387Y010493D02*
X093167Y010493D01*
X093167Y010573D02*
X093387Y010573D01*
X093073Y010649D02*
X093073Y010413D01*
X092853Y010413D01*
X092853Y010649D01*
X093073Y010649D01*
X093073Y010493D02*
X092853Y010493D01*
X092853Y010573D02*
X093073Y010573D01*
X092758Y010649D02*
X092758Y010413D01*
X092538Y010413D01*
X092538Y010649D01*
X092758Y010649D01*
X092758Y010493D02*
X092538Y010493D01*
X092538Y010573D02*
X092758Y010573D01*
X092443Y010649D02*
X092443Y010413D01*
X092223Y010413D01*
X092223Y010649D01*
X092443Y010649D01*
X092443Y010493D02*
X092223Y010493D01*
X092223Y010573D02*
X092443Y010573D01*
X090037Y010119D02*
X090037Y009883D01*
X089817Y009883D01*
X089817Y010119D01*
X090037Y010119D01*
X090037Y009963D02*
X089817Y009963D01*
X089817Y010043D02*
X090037Y010043D01*
X089723Y010119D02*
X089723Y009883D01*
X089503Y009883D01*
X089503Y010119D01*
X089723Y010119D01*
X089723Y009963D02*
X089503Y009963D01*
X089503Y010043D02*
X089723Y010043D01*
X089408Y010119D02*
X089408Y009883D01*
X089188Y009883D01*
X089188Y010119D01*
X089408Y010119D01*
X089408Y009963D02*
X089188Y009963D01*
X089188Y010043D02*
X089408Y010043D01*
X089093Y010119D02*
X089093Y009883D01*
X088873Y009883D01*
X088873Y010119D01*
X089093Y010119D01*
X089093Y009963D02*
X088873Y009963D01*
X088873Y010043D02*
X089093Y010043D01*
X087627Y010043D02*
X087627Y010279D01*
X087627Y010043D02*
X087407Y010043D01*
X087407Y010279D01*
X087627Y010279D01*
X087627Y010123D02*
X087407Y010123D01*
X087407Y010203D02*
X087627Y010203D01*
X087313Y010279D02*
X087313Y010043D01*
X087093Y010043D01*
X087093Y010279D01*
X087313Y010279D01*
X087313Y010123D02*
X087093Y010123D01*
X087093Y010203D02*
X087313Y010203D01*
X086998Y010279D02*
X086998Y010043D01*
X086778Y010043D01*
X086778Y010279D01*
X086998Y010279D01*
X086998Y010123D02*
X086778Y010123D01*
X086778Y010203D02*
X086998Y010203D01*
X086683Y010279D02*
X086683Y010043D01*
X086463Y010043D01*
X086463Y010279D01*
X086683Y010279D01*
X086683Y010123D02*
X086463Y010123D01*
X086463Y010203D02*
X086683Y010203D01*
X086683Y009489D02*
X086683Y009253D01*
X086463Y009253D01*
X086463Y009489D01*
X086683Y009489D01*
X086683Y009333D02*
X086463Y009333D01*
X086463Y009413D02*
X086683Y009413D01*
X086998Y009489D02*
X086998Y009253D01*
X086778Y009253D01*
X086778Y009489D01*
X086998Y009489D01*
X086998Y009333D02*
X086778Y009333D01*
X086778Y009413D02*
X086998Y009413D01*
X087313Y009489D02*
X087313Y009253D01*
X087093Y009253D01*
X087093Y009489D01*
X087313Y009489D01*
X087313Y009333D02*
X087093Y009333D01*
X087093Y009413D02*
X087313Y009413D01*
X087627Y009489D02*
X087627Y009253D01*
X087407Y009253D01*
X087407Y009489D01*
X087627Y009489D01*
X087627Y009333D02*
X087407Y009333D01*
X087407Y009413D02*
X087627Y009413D01*
X089093Y009329D02*
X089093Y009093D01*
X088873Y009093D01*
X088873Y009329D01*
X089093Y009329D01*
X089093Y009173D02*
X088873Y009173D01*
X088873Y009253D02*
X089093Y009253D01*
X089408Y009329D02*
X089408Y009093D01*
X089188Y009093D01*
X089188Y009329D01*
X089408Y009329D01*
X089408Y009173D02*
X089188Y009173D01*
X089188Y009253D02*
X089408Y009253D01*
X089723Y009329D02*
X089723Y009093D01*
X089503Y009093D01*
X089503Y009329D01*
X089723Y009329D01*
X089723Y009173D02*
X089503Y009173D01*
X089503Y009253D02*
X089723Y009253D01*
X090037Y009329D02*
X090037Y009093D01*
X089817Y009093D01*
X089817Y009329D01*
X090037Y009329D01*
X090037Y009173D02*
X089817Y009173D01*
X089817Y009253D02*
X090037Y009253D01*
X084447Y009933D02*
X084447Y010169D01*
X084447Y009933D02*
X084227Y009933D01*
X084227Y010169D01*
X084447Y010169D01*
X084447Y010013D02*
X084227Y010013D01*
X084227Y010093D02*
X084447Y010093D01*
X084133Y010169D02*
X084133Y009933D01*
X083913Y009933D01*
X083913Y010169D01*
X084133Y010169D01*
X084133Y010013D02*
X083913Y010013D01*
X083913Y010093D02*
X084133Y010093D01*
X083818Y010169D02*
X083818Y009933D01*
X083598Y009933D01*
X083598Y010169D01*
X083818Y010169D01*
X083818Y010013D02*
X083598Y010013D01*
X083598Y010093D02*
X083818Y010093D01*
X083503Y010169D02*
X083503Y009933D01*
X083283Y009933D01*
X083283Y010169D01*
X083503Y010169D01*
X083503Y010013D02*
X083283Y010013D01*
X083283Y010093D02*
X083503Y010093D01*
X082287Y010133D02*
X082287Y010369D01*
X082507Y010369D01*
X082507Y010133D01*
X082287Y010133D01*
X082287Y010213D02*
X082507Y010213D01*
X082507Y010293D02*
X082287Y010293D01*
X081973Y010369D02*
X081973Y010133D01*
X081973Y010369D02*
X082193Y010369D01*
X082193Y010133D01*
X081973Y010133D01*
X081973Y010213D02*
X082193Y010213D01*
X082193Y010293D02*
X081973Y010293D01*
X081658Y010369D02*
X081658Y010133D01*
X081658Y010369D02*
X081878Y010369D01*
X081878Y010133D01*
X081658Y010133D01*
X081658Y010213D02*
X081878Y010213D01*
X081878Y010293D02*
X081658Y010293D01*
X081343Y010369D02*
X081343Y010133D01*
X081343Y010369D02*
X081563Y010369D01*
X081563Y010133D01*
X081343Y010133D01*
X081343Y010213D02*
X081563Y010213D01*
X081563Y010293D02*
X081343Y010293D01*
X083503Y010723D02*
X083503Y010959D01*
X083503Y010723D02*
X083283Y010723D01*
X083283Y010959D01*
X083503Y010959D01*
X083503Y010803D02*
X083283Y010803D01*
X083283Y010883D02*
X083503Y010883D01*
X083818Y010959D02*
X083818Y010723D01*
X083598Y010723D01*
X083598Y010959D01*
X083818Y010959D01*
X083818Y010803D02*
X083598Y010803D01*
X083598Y010883D02*
X083818Y010883D01*
X084133Y010959D02*
X084133Y010723D01*
X083913Y010723D01*
X083913Y010959D01*
X084133Y010959D01*
X084133Y010803D02*
X083913Y010803D01*
X083913Y010883D02*
X084133Y010883D01*
X084447Y010959D02*
X084447Y010723D01*
X084227Y010723D01*
X084227Y010959D01*
X084447Y010959D01*
X084447Y010803D02*
X084227Y010803D01*
X084227Y010883D02*
X084447Y010883D01*
X082287Y010923D02*
X082287Y011159D01*
X082507Y011159D01*
X082507Y010923D01*
X082287Y010923D01*
X082287Y011003D02*
X082507Y011003D01*
X082507Y011083D02*
X082287Y011083D01*
X081973Y011159D02*
X081973Y010923D01*
X081973Y011159D02*
X082193Y011159D01*
X082193Y010923D01*
X081973Y010923D01*
X081973Y011003D02*
X082193Y011003D01*
X082193Y011083D02*
X081973Y011083D01*
X081658Y011159D02*
X081658Y010923D01*
X081658Y011159D02*
X081878Y011159D01*
X081878Y010923D01*
X081658Y010923D01*
X081658Y011003D02*
X081878Y011003D01*
X081878Y011083D02*
X081658Y011083D01*
X081343Y011159D02*
X081343Y010923D01*
X081343Y011159D02*
X081563Y011159D01*
X081563Y010923D01*
X081343Y010923D01*
X081343Y011003D02*
X081563Y011003D01*
X081563Y011083D02*
X081343Y011083D01*
D14*
X084414Y011551D02*
X084830Y011967D01*
X084414Y011551D02*
X084276Y011689D01*
X084692Y012105D01*
X084830Y011967D01*
X084493Y011630D02*
X084335Y011630D01*
X084296Y011709D02*
X084572Y011709D01*
X084651Y011788D02*
X084375Y011788D01*
X084454Y011867D02*
X084730Y011867D01*
X084809Y011946D02*
X084533Y011946D01*
X084612Y012025D02*
X084772Y012025D01*
X084693Y012104D02*
X084691Y012104D01*
X084607Y012190D02*
X084191Y011774D01*
X084053Y011912D01*
X084469Y012328D01*
X084607Y012190D01*
X084270Y011853D02*
X084112Y011853D01*
X084073Y011932D02*
X084349Y011932D01*
X084428Y012011D02*
X084152Y012011D01*
X084231Y012090D02*
X084507Y012090D01*
X084586Y012169D02*
X084310Y012169D01*
X084389Y012248D02*
X084549Y012248D01*
X084470Y012327D02*
X084468Y012327D01*
X084385Y012413D02*
X083969Y011997D01*
X083831Y012135D01*
X084247Y012551D01*
X084385Y012413D01*
X084048Y012076D02*
X083890Y012076D01*
X083851Y012155D02*
X084127Y012155D01*
X084206Y012234D02*
X083930Y012234D01*
X084009Y012313D02*
X084285Y012313D01*
X084364Y012392D02*
X084088Y012392D01*
X084167Y012471D02*
X084327Y012471D01*
X084248Y012550D02*
X084246Y012550D01*
X084162Y012635D02*
X083746Y012219D01*
X083608Y012357D01*
X084024Y012773D01*
X084162Y012635D01*
X083825Y012298D02*
X083667Y012298D01*
X083628Y012377D02*
X083904Y012377D01*
X083983Y012456D02*
X083707Y012456D01*
X083786Y012535D02*
X084062Y012535D01*
X084141Y012614D02*
X083865Y012614D01*
X083944Y012693D02*
X084104Y012693D01*
X084025Y012772D02*
X084023Y012772D01*
X083939Y012858D02*
X083523Y012442D01*
X083385Y012580D01*
X083801Y012996D01*
X083939Y012858D01*
X083602Y012521D02*
X083444Y012521D01*
X083405Y012600D02*
X083681Y012600D01*
X083760Y012679D02*
X083484Y012679D01*
X083563Y012758D02*
X083839Y012758D01*
X083918Y012837D02*
X083642Y012837D01*
X083721Y012916D02*
X083881Y012916D01*
X083802Y012995D02*
X083800Y012995D01*
X083717Y013081D02*
X083301Y012665D01*
X083163Y012803D01*
X083579Y013219D01*
X083717Y013081D01*
X083380Y012744D02*
X083222Y012744D01*
X083183Y012823D02*
X083459Y012823D01*
X083538Y012902D02*
X083262Y012902D01*
X083341Y012981D02*
X083617Y012981D01*
X083696Y013060D02*
X083420Y013060D01*
X083499Y013139D02*
X083659Y013139D01*
X083580Y013218D02*
X083578Y013218D01*
X083494Y013304D02*
X083078Y012888D01*
X082940Y013026D01*
X083356Y013442D01*
X083494Y013304D01*
X083157Y012967D02*
X082999Y012967D01*
X082960Y013046D02*
X083236Y013046D01*
X083315Y013125D02*
X083039Y013125D01*
X083118Y013204D02*
X083394Y013204D01*
X083473Y013283D02*
X083197Y013283D01*
X083276Y013362D02*
X083436Y013362D01*
X083357Y013441D02*
X083355Y013441D01*
X083356Y013890D02*
X083494Y014028D01*
X083356Y013890D02*
X082940Y014306D01*
X083078Y014444D01*
X083494Y014028D01*
X083435Y013969D02*
X083277Y013969D01*
X083198Y014048D02*
X083474Y014048D01*
X083395Y014127D02*
X083119Y014127D01*
X083040Y014206D02*
X083316Y014206D01*
X083237Y014285D02*
X082961Y014285D01*
X082998Y014364D02*
X083158Y014364D01*
X083079Y014443D02*
X083077Y014443D01*
X083579Y014112D02*
X083717Y014250D01*
X083579Y014112D02*
X083163Y014528D01*
X083301Y014666D01*
X083717Y014250D01*
X083658Y014191D02*
X083500Y014191D01*
X083421Y014270D02*
X083697Y014270D01*
X083618Y014349D02*
X083342Y014349D01*
X083263Y014428D02*
X083539Y014428D01*
X083460Y014507D02*
X083184Y014507D01*
X083221Y014586D02*
X083381Y014586D01*
X083302Y014665D02*
X083300Y014665D01*
X083801Y014335D02*
X083939Y014473D01*
X083801Y014335D02*
X083385Y014751D01*
X083523Y014889D01*
X083939Y014473D01*
X083880Y014414D02*
X083722Y014414D01*
X083643Y014493D02*
X083919Y014493D01*
X083840Y014572D02*
X083564Y014572D01*
X083485Y014651D02*
X083761Y014651D01*
X083682Y014730D02*
X083406Y014730D01*
X083443Y014809D02*
X083603Y014809D01*
X083524Y014888D02*
X083522Y014888D01*
X084024Y014558D02*
X084162Y014696D01*
X084024Y014558D02*
X083608Y014974D01*
X083746Y015112D01*
X084162Y014696D01*
X084103Y014637D02*
X083945Y014637D01*
X083866Y014716D02*
X084142Y014716D01*
X084063Y014795D02*
X083787Y014795D01*
X083708Y014874D02*
X083984Y014874D01*
X083905Y014953D02*
X083629Y014953D01*
X083666Y015032D02*
X083826Y015032D01*
X083747Y015111D02*
X083745Y015111D01*
X084247Y014781D02*
X084385Y014919D01*
X084247Y014781D02*
X083831Y015197D01*
X083969Y015335D01*
X084385Y014919D01*
X084326Y014860D02*
X084168Y014860D01*
X084089Y014939D02*
X084365Y014939D01*
X084286Y015018D02*
X084010Y015018D01*
X083931Y015097D02*
X084207Y015097D01*
X084128Y015176D02*
X083852Y015176D01*
X083889Y015255D02*
X084049Y015255D01*
X083970Y015334D02*
X083968Y015334D01*
X084469Y015003D02*
X084607Y015141D01*
X084469Y015003D02*
X084053Y015419D01*
X084191Y015557D01*
X084607Y015141D01*
X084548Y015082D02*
X084390Y015082D01*
X084311Y015161D02*
X084587Y015161D01*
X084508Y015240D02*
X084232Y015240D01*
X084153Y015319D02*
X084429Y015319D01*
X084350Y015398D02*
X084074Y015398D01*
X084111Y015477D02*
X084271Y015477D01*
X084192Y015556D02*
X084190Y015556D01*
X084692Y015226D02*
X084830Y015364D01*
X084692Y015226D02*
X084276Y015642D01*
X084414Y015780D01*
X084830Y015364D01*
X084771Y015305D02*
X084613Y015305D01*
X084534Y015384D02*
X084810Y015384D01*
X084731Y015463D02*
X084455Y015463D01*
X084376Y015542D02*
X084652Y015542D01*
X084573Y015621D02*
X084297Y015621D01*
X084334Y015700D02*
X084494Y015700D01*
X084415Y015779D02*
X084413Y015779D01*
X084915Y015449D02*
X085053Y015587D01*
X084915Y015449D02*
X084499Y015865D01*
X084637Y016003D01*
X085053Y015587D01*
X084994Y015528D02*
X084836Y015528D01*
X084757Y015607D02*
X085033Y015607D01*
X084954Y015686D02*
X084678Y015686D01*
X084599Y015765D02*
X084875Y015765D01*
X084796Y015844D02*
X084520Y015844D01*
X084557Y015923D02*
X084717Y015923D01*
X084638Y016002D02*
X084636Y016002D01*
X085138Y015671D02*
X085276Y015809D01*
X085138Y015671D02*
X084722Y016087D01*
X084860Y016225D01*
X085276Y015809D01*
X085217Y015750D02*
X085059Y015750D01*
X084980Y015829D02*
X085256Y015829D01*
X085177Y015908D02*
X084901Y015908D01*
X084822Y015987D02*
X085098Y015987D01*
X085019Y016066D02*
X084743Y016066D01*
X084780Y016145D02*
X084940Y016145D01*
X084861Y016224D02*
X084859Y016224D01*
X085360Y015894D02*
X085498Y016032D01*
X085360Y015894D02*
X084944Y016310D01*
X085082Y016448D01*
X085498Y016032D01*
X085439Y015973D02*
X085281Y015973D01*
X085202Y016052D02*
X085478Y016052D01*
X085399Y016131D02*
X085123Y016131D01*
X085044Y016210D02*
X085320Y016210D01*
X085241Y016289D02*
X084965Y016289D01*
X085002Y016368D02*
X085162Y016368D01*
X085083Y016447D02*
X085081Y016447D01*
X085583Y016117D02*
X085721Y016255D01*
X085583Y016117D02*
X085167Y016533D01*
X085305Y016671D01*
X085721Y016255D01*
X085662Y016196D02*
X085504Y016196D01*
X085425Y016275D02*
X085701Y016275D01*
X085622Y016354D02*
X085346Y016354D01*
X085267Y016433D02*
X085543Y016433D01*
X085464Y016512D02*
X085188Y016512D01*
X085225Y016591D02*
X085385Y016591D01*
X085306Y016670D02*
X085304Y016670D01*
X086307Y016117D02*
X086723Y016533D01*
X086307Y016117D02*
X086169Y016255D01*
X086585Y016671D01*
X086723Y016533D01*
X086386Y016196D02*
X086228Y016196D01*
X086189Y016275D02*
X086465Y016275D01*
X086544Y016354D02*
X086268Y016354D01*
X086347Y016433D02*
X086623Y016433D01*
X086702Y016512D02*
X086426Y016512D01*
X086505Y016591D02*
X086665Y016591D01*
X086586Y016670D02*
X086584Y016670D01*
X086946Y016310D02*
X086530Y015894D01*
X086392Y016032D01*
X086808Y016448D01*
X086946Y016310D01*
X086609Y015973D02*
X086451Y015973D01*
X086412Y016052D02*
X086688Y016052D01*
X086767Y016131D02*
X086491Y016131D01*
X086570Y016210D02*
X086846Y016210D01*
X086925Y016289D02*
X086649Y016289D01*
X086728Y016368D02*
X086888Y016368D01*
X086809Y016447D02*
X086807Y016447D01*
X087169Y016087D02*
X086753Y015671D01*
X086615Y015809D01*
X087031Y016225D01*
X087169Y016087D01*
X086832Y015750D02*
X086674Y015750D01*
X086635Y015829D02*
X086911Y015829D01*
X086990Y015908D02*
X086714Y015908D01*
X086793Y015987D02*
X087069Y015987D01*
X087148Y016066D02*
X086872Y016066D01*
X086951Y016145D02*
X087111Y016145D01*
X087032Y016224D02*
X087030Y016224D01*
X087391Y015865D02*
X086975Y015449D01*
X086837Y015587D01*
X087253Y016003D01*
X087391Y015865D01*
X087054Y015528D02*
X086896Y015528D01*
X086857Y015607D02*
X087133Y015607D01*
X087212Y015686D02*
X086936Y015686D01*
X087015Y015765D02*
X087291Y015765D01*
X087370Y015844D02*
X087094Y015844D01*
X087173Y015923D02*
X087333Y015923D01*
X087254Y016002D02*
X087252Y016002D01*
X087614Y015642D02*
X087198Y015226D01*
X087060Y015364D01*
X087476Y015780D01*
X087614Y015642D01*
X087277Y015305D02*
X087119Y015305D01*
X087080Y015384D02*
X087356Y015384D01*
X087435Y015463D02*
X087159Y015463D01*
X087238Y015542D02*
X087514Y015542D01*
X087593Y015621D02*
X087317Y015621D01*
X087396Y015700D02*
X087556Y015700D01*
X087477Y015779D02*
X087475Y015779D01*
X087837Y015419D02*
X087421Y015003D01*
X087283Y015141D01*
X087699Y015557D01*
X087837Y015419D01*
X087500Y015082D02*
X087342Y015082D01*
X087303Y015161D02*
X087579Y015161D01*
X087658Y015240D02*
X087382Y015240D01*
X087461Y015319D02*
X087737Y015319D01*
X087816Y015398D02*
X087540Y015398D01*
X087619Y015477D02*
X087779Y015477D01*
X087700Y015556D02*
X087698Y015556D01*
X088059Y015197D02*
X087643Y014781D01*
X087505Y014919D01*
X087921Y015335D01*
X088059Y015197D01*
X087722Y014860D02*
X087564Y014860D01*
X087525Y014939D02*
X087801Y014939D01*
X087880Y015018D02*
X087604Y015018D01*
X087683Y015097D02*
X087959Y015097D01*
X088038Y015176D02*
X087762Y015176D01*
X087841Y015255D02*
X088001Y015255D01*
X087922Y015334D02*
X087920Y015334D01*
X088282Y014974D02*
X087866Y014558D01*
X087728Y014696D01*
X088144Y015112D01*
X088282Y014974D01*
X087945Y014637D02*
X087787Y014637D01*
X087748Y014716D02*
X088024Y014716D01*
X088103Y014795D02*
X087827Y014795D01*
X087906Y014874D02*
X088182Y014874D01*
X088261Y014953D02*
X087985Y014953D01*
X088064Y015032D02*
X088224Y015032D01*
X088145Y015111D02*
X088143Y015111D01*
X088505Y014751D02*
X088089Y014335D01*
X087951Y014473D01*
X088367Y014889D01*
X088505Y014751D01*
X088168Y014414D02*
X088010Y014414D01*
X087971Y014493D02*
X088247Y014493D01*
X088326Y014572D02*
X088050Y014572D01*
X088129Y014651D02*
X088405Y014651D01*
X088484Y014730D02*
X088208Y014730D01*
X088287Y014809D02*
X088447Y014809D01*
X088368Y014888D02*
X088366Y014888D01*
X088728Y014528D02*
X088312Y014112D01*
X088174Y014250D01*
X088590Y014666D01*
X088728Y014528D01*
X088391Y014191D02*
X088233Y014191D01*
X088194Y014270D02*
X088470Y014270D01*
X088549Y014349D02*
X088273Y014349D01*
X088352Y014428D02*
X088628Y014428D01*
X088707Y014507D02*
X088431Y014507D01*
X088510Y014586D02*
X088670Y014586D01*
X088591Y014665D02*
X088589Y014665D01*
X088950Y014306D02*
X088534Y013890D01*
X088396Y014028D01*
X088812Y014444D01*
X088950Y014306D01*
X088613Y013969D02*
X088455Y013969D01*
X088416Y014048D02*
X088692Y014048D01*
X088771Y014127D02*
X088495Y014127D01*
X088574Y014206D02*
X088850Y014206D01*
X088929Y014285D02*
X088653Y014285D01*
X088732Y014364D02*
X088892Y014364D01*
X088813Y014443D02*
X088811Y014443D01*
X088950Y013026D02*
X088812Y012888D01*
X088396Y013304D01*
X088534Y013442D01*
X088950Y013026D01*
X088891Y012967D02*
X088733Y012967D01*
X088654Y013046D02*
X088930Y013046D01*
X088851Y013125D02*
X088575Y013125D01*
X088496Y013204D02*
X088772Y013204D01*
X088693Y013283D02*
X088417Y013283D01*
X088454Y013362D02*
X088614Y013362D01*
X088535Y013441D02*
X088533Y013441D01*
X088728Y012803D02*
X088590Y012665D01*
X088174Y013081D01*
X088312Y013219D01*
X088728Y012803D01*
X088669Y012744D02*
X088511Y012744D01*
X088432Y012823D02*
X088708Y012823D01*
X088629Y012902D02*
X088353Y012902D01*
X088274Y012981D02*
X088550Y012981D01*
X088471Y013060D02*
X088195Y013060D01*
X088232Y013139D02*
X088392Y013139D01*
X088313Y013218D02*
X088311Y013218D01*
X088505Y012580D02*
X088367Y012442D01*
X087951Y012858D01*
X088089Y012996D01*
X088505Y012580D01*
X088446Y012521D02*
X088288Y012521D01*
X088209Y012600D02*
X088485Y012600D01*
X088406Y012679D02*
X088130Y012679D01*
X088051Y012758D02*
X088327Y012758D01*
X088248Y012837D02*
X087972Y012837D01*
X088009Y012916D02*
X088169Y012916D01*
X088090Y012995D02*
X088088Y012995D01*
X088282Y012357D02*
X088144Y012219D01*
X087728Y012635D01*
X087866Y012773D01*
X088282Y012357D01*
X088223Y012298D02*
X088065Y012298D01*
X087986Y012377D02*
X088262Y012377D01*
X088183Y012456D02*
X087907Y012456D01*
X087828Y012535D02*
X088104Y012535D01*
X088025Y012614D02*
X087749Y012614D01*
X087786Y012693D02*
X087946Y012693D01*
X087867Y012772D02*
X087865Y012772D01*
X088059Y012135D02*
X087921Y011997D01*
X087505Y012413D01*
X087643Y012551D01*
X088059Y012135D01*
X088000Y012076D02*
X087842Y012076D01*
X087763Y012155D02*
X088039Y012155D01*
X087960Y012234D02*
X087684Y012234D01*
X087605Y012313D02*
X087881Y012313D01*
X087802Y012392D02*
X087526Y012392D01*
X087563Y012471D02*
X087723Y012471D01*
X087644Y012550D02*
X087642Y012550D01*
X087837Y011912D02*
X087699Y011774D01*
X087283Y012190D01*
X087421Y012328D01*
X087837Y011912D01*
X087778Y011853D02*
X087620Y011853D01*
X087541Y011932D02*
X087817Y011932D01*
X087738Y012011D02*
X087462Y012011D01*
X087383Y012090D02*
X087659Y012090D01*
X087580Y012169D02*
X087304Y012169D01*
X087341Y012248D02*
X087501Y012248D01*
X087422Y012327D02*
X087420Y012327D01*
X087614Y011689D02*
X087476Y011551D01*
X087060Y011967D01*
X087198Y012105D01*
X087614Y011689D01*
X087555Y011630D02*
X087397Y011630D01*
X087318Y011709D02*
X087594Y011709D01*
X087515Y011788D02*
X087239Y011788D01*
X087160Y011867D02*
X087436Y011867D01*
X087357Y011946D02*
X087081Y011946D01*
X087118Y012025D02*
X087278Y012025D01*
X087199Y012104D02*
X087197Y012104D01*
X087391Y011467D02*
X087253Y011329D01*
X086837Y011745D01*
X086975Y011883D01*
X087391Y011467D01*
X087332Y011408D02*
X087174Y011408D01*
X087095Y011487D02*
X087371Y011487D01*
X087292Y011566D02*
X087016Y011566D01*
X086937Y011645D02*
X087213Y011645D01*
X087134Y011724D02*
X086858Y011724D01*
X086895Y011803D02*
X087055Y011803D01*
X086976Y011882D02*
X086974Y011882D01*
X087169Y011244D02*
X087031Y011106D01*
X086615Y011522D01*
X086753Y011660D01*
X087169Y011244D01*
X087110Y011185D02*
X086952Y011185D01*
X086873Y011264D02*
X087149Y011264D01*
X087070Y011343D02*
X086794Y011343D01*
X086715Y011422D02*
X086991Y011422D01*
X086912Y011501D02*
X086636Y011501D01*
X086673Y011580D02*
X086833Y011580D01*
X086754Y011659D02*
X086752Y011659D01*
X086946Y011021D02*
X086808Y010883D01*
X086392Y011299D01*
X086530Y011437D01*
X086946Y011021D01*
X086887Y010962D02*
X086729Y010962D01*
X086650Y011041D02*
X086926Y011041D01*
X086847Y011120D02*
X086571Y011120D01*
X086492Y011199D02*
X086768Y011199D01*
X086689Y011278D02*
X086413Y011278D01*
X086450Y011357D02*
X086610Y011357D01*
X086531Y011436D02*
X086529Y011436D01*
X085276Y011522D02*
X084860Y011106D01*
X084722Y011244D01*
X085138Y011660D01*
X085276Y011522D01*
X084939Y011185D02*
X084781Y011185D01*
X084742Y011264D02*
X085018Y011264D01*
X085097Y011343D02*
X084821Y011343D01*
X084900Y011422D02*
X085176Y011422D01*
X085255Y011501D02*
X084979Y011501D01*
X085058Y011580D02*
X085218Y011580D01*
X085139Y011659D02*
X085137Y011659D01*
X085053Y011745D02*
X084637Y011329D01*
X084499Y011467D01*
X084915Y011883D01*
X085053Y011745D01*
X084716Y011408D02*
X084558Y011408D01*
X084519Y011487D02*
X084795Y011487D01*
X084874Y011566D02*
X084598Y011566D01*
X084677Y011645D02*
X084953Y011645D01*
X085032Y011724D02*
X084756Y011724D01*
X084835Y011803D02*
X084995Y011803D01*
X084916Y011882D02*
X084914Y011882D01*
X085498Y011299D02*
X085082Y010883D01*
X084944Y011021D01*
X085360Y011437D01*
X085498Y011299D01*
X085161Y010962D02*
X085003Y010962D01*
X084964Y011041D02*
X085240Y011041D01*
X085319Y011120D02*
X085043Y011120D01*
X085122Y011199D02*
X085398Y011199D01*
X085477Y011278D02*
X085201Y011278D01*
X085280Y011357D02*
X085440Y011357D01*
X085361Y011436D02*
X085359Y011436D01*
X085721Y011076D02*
X085305Y010660D01*
X085167Y010798D01*
X085583Y011214D01*
X085721Y011076D01*
X085384Y010739D02*
X085226Y010739D01*
X085187Y010818D02*
X085463Y010818D01*
X085542Y010897D02*
X085266Y010897D01*
X085345Y010976D02*
X085621Y010976D01*
X085700Y011055D02*
X085424Y011055D01*
X085503Y011134D02*
X085663Y011134D01*
X085584Y011213D02*
X085582Y011213D01*
X086585Y010660D02*
X086723Y010798D01*
X086585Y010660D02*
X086169Y011076D01*
X086307Y011214D01*
X086723Y010798D01*
X086664Y010739D02*
X086506Y010739D01*
X086427Y010818D02*
X086703Y010818D01*
X086624Y010897D02*
X086348Y010897D01*
X086269Y010976D02*
X086545Y010976D01*
X086466Y011055D02*
X086190Y011055D01*
X086227Y011134D02*
X086387Y011134D01*
X086308Y011213D02*
X086306Y011213D01*
D15*
X082102Y012292D02*
X082102Y012448D01*
X082102Y012292D02*
X081472Y012292D01*
X081472Y012448D01*
X082102Y012448D01*
X082102Y012372D02*
X081472Y012372D01*
X082102Y012548D02*
X082102Y012704D01*
X082102Y012548D02*
X081472Y012548D01*
X081472Y012704D01*
X082102Y012704D01*
X082102Y012628D02*
X081472Y012628D01*
X082102Y012803D02*
X082102Y012959D01*
X082102Y012803D02*
X081472Y012803D01*
X081472Y012959D01*
X082102Y012959D01*
X082102Y012883D02*
X081472Y012883D01*
X082102Y013059D02*
X082102Y013215D01*
X082102Y013059D02*
X081472Y013059D01*
X081472Y013215D01*
X082102Y013215D01*
X082102Y013139D02*
X081472Y013139D01*
X082102Y013315D02*
X082102Y013471D01*
X082102Y013315D02*
X081472Y013315D01*
X081472Y013471D01*
X082102Y013471D01*
X082102Y013395D02*
X081472Y013395D01*
X082102Y013571D02*
X082102Y013727D01*
X082102Y013571D02*
X081472Y013571D01*
X081472Y013727D01*
X082102Y013727D01*
X082102Y013651D02*
X081472Y013651D01*
X082102Y013827D02*
X082102Y013983D01*
X082102Y013827D02*
X081472Y013827D01*
X081472Y013983D01*
X082102Y013983D01*
X082102Y013907D02*
X081472Y013907D01*
X082102Y014083D02*
X082102Y014239D01*
X082102Y014083D02*
X081472Y014083D01*
X081472Y014239D01*
X082102Y014239D01*
X082102Y014163D02*
X081472Y014163D01*
X079779Y014239D02*
X079779Y014083D01*
X079149Y014083D01*
X079149Y014239D01*
X079779Y014239D01*
X079779Y014163D02*
X079149Y014163D01*
X079779Y013983D02*
X079779Y013827D01*
X079149Y013827D01*
X079149Y013983D01*
X079779Y013983D01*
X079779Y013907D02*
X079149Y013907D01*
X079779Y013727D02*
X079779Y013571D01*
X079149Y013571D01*
X079149Y013727D01*
X079779Y013727D01*
X079779Y013651D02*
X079149Y013651D01*
X079779Y013471D02*
X079779Y013315D01*
X079149Y013315D01*
X079149Y013471D01*
X079779Y013471D01*
X079779Y013395D02*
X079149Y013395D01*
X079779Y013215D02*
X079779Y013059D01*
X079149Y013059D01*
X079149Y013215D01*
X079779Y013215D01*
X079779Y013139D02*
X079149Y013139D01*
X079779Y012959D02*
X079779Y012803D01*
X079149Y012803D01*
X079149Y012959D01*
X079779Y012959D01*
X079779Y012883D02*
X079149Y012883D01*
X079779Y012704D02*
X079779Y012548D01*
X079149Y012548D01*
X079149Y012704D01*
X079779Y012704D01*
X079779Y012628D02*
X079149Y012628D01*
X079779Y012448D02*
X079779Y012292D01*
X079149Y012292D01*
X079149Y012448D01*
X079779Y012448D01*
X079779Y012372D02*
X079149Y012372D01*
D16*
X093135Y015366D03*
X088325Y017126D03*
D17*
X089325Y017026D03*
X090325Y017126D03*
X091325Y017026D03*
X092325Y017126D03*
X080925Y017196D03*
X080925Y016056D03*
X093035Y014366D03*
X093135Y013366D03*
X093035Y012366D03*
D18*
X082248Y013305D02*
X082248Y013737D01*
X082642Y013737D01*
X082642Y013305D01*
X082248Y013305D01*
X082248Y013385D02*
X082642Y013385D01*
X082642Y013465D02*
X082248Y013465D01*
X082248Y013545D02*
X082642Y013545D01*
X082642Y013625D02*
X082248Y013625D01*
X082248Y013705D02*
X082642Y013705D01*
X082248Y013974D02*
X082248Y014406D01*
X082642Y014406D01*
X082642Y013974D01*
X082248Y013974D01*
X082248Y014054D02*
X082642Y014054D01*
X082642Y014134D02*
X082248Y014134D01*
X082248Y014214D02*
X082642Y014214D01*
X082642Y014294D02*
X082248Y014294D01*
X082248Y014374D02*
X082642Y014374D01*
D19*
X084045Y008086D03*
X081085Y008086D03*
X078125Y008086D03*
X075165Y008086D03*
X072205Y008086D03*
X069245Y008086D03*
X066285Y008086D03*
X063325Y008086D03*
X060365Y008086D03*
X057405Y008086D03*
X054445Y008086D03*
X051565Y008086D03*
X048685Y008086D03*
X045805Y008086D03*
X042925Y008086D03*
X040045Y008086D03*
X037085Y008086D03*
X034125Y008086D03*
X031165Y008086D03*
X028205Y008086D03*
X025245Y008086D03*
X022285Y008086D03*
X019325Y008086D03*
X016365Y008086D03*
X013405Y008086D03*
X010445Y008086D03*
X007485Y008086D03*
X004525Y008086D03*
X001565Y008086D03*
X087005Y008086D03*
X089965Y008086D03*
X092925Y008086D03*
M02*
