G75*
G70*
%OFA0B0*%
%FSLAX24Y24*%
%IPPOS*%
%LPD*%
%AMOC8*
5,1,8,0,0,1.08239X$1,22.5*
%
%ADD10C,0.0140*%
%ADD11C,0.0200*%
%ADD12C,0.0100*%
%ADD13C,0.0360*%
%ADD14C,0.0030*%
D10*
X079766Y014016D02*
X079766Y014576D01*
X079952Y014576D02*
X079579Y014576D01*
X080223Y014483D02*
X080223Y014389D01*
X080317Y014296D01*
X080597Y014296D01*
X080597Y014016D02*
X080597Y014576D01*
X080317Y014576D01*
X080223Y014483D01*
X080317Y014296D02*
X080223Y014202D01*
X080223Y014109D01*
X080317Y014016D01*
X080597Y014016D01*
X081512Y014109D02*
X081606Y014016D01*
X081793Y014016D01*
X081886Y014109D01*
X081886Y014202D01*
X081793Y014296D01*
X081606Y014296D01*
X081512Y014202D01*
X081512Y014109D01*
X081606Y014296D02*
X081512Y014389D01*
X081512Y014483D01*
X081606Y014576D01*
X081793Y014576D01*
X081886Y014483D01*
X081886Y014389D01*
X081793Y014296D01*
X082157Y014202D02*
X082157Y014576D01*
X082531Y014576D02*
X082531Y014202D01*
X082344Y014016D01*
X082157Y014202D01*
X082801Y014016D02*
X083175Y014016D01*
X082801Y014389D01*
X082801Y014483D01*
X082895Y014576D01*
X083082Y014576D01*
X083175Y014483D01*
D11*
X085835Y014076D02*
X085788Y014025D01*
X085739Y013976D01*
X085687Y013930D01*
X085632Y013887D01*
X085575Y013847D01*
X085516Y013811D01*
X085454Y013778D01*
X085391Y013749D01*
X085327Y013723D01*
X085261Y013701D01*
X085194Y013682D01*
X085126Y013668D01*
X085057Y013657D01*
X084988Y013650D01*
X084919Y013647D01*
X084849Y013648D01*
X084780Y013653D01*
X084711Y013662D01*
X084642Y013675D01*
X084575Y013691D01*
X084508Y013712D01*
X084443Y013736D01*
X084379Y013764D01*
X084317Y013795D01*
X084257Y013830D01*
X084199Y013868D01*
X084143Y013909D01*
X084090Y013954D01*
X084039Y014001D01*
X083991Y014051D01*
X083946Y014104D01*
X083903Y014160D01*
X083865Y014217D01*
X083829Y014277D01*
X083797Y014339D01*
X083768Y014402D01*
X083743Y014467D01*
X083722Y014533D01*
X083704Y014600D01*
X083691Y014668D01*
X083681Y014737D01*
X083675Y014806D01*
X083673Y014876D01*
X083675Y014946D01*
X083681Y015015D01*
X083691Y015084D01*
X083704Y015152D01*
X083722Y015219D01*
X083743Y015285D01*
X083768Y015350D01*
X083797Y015413D01*
X083829Y015475D01*
X083865Y015535D01*
X083903Y015592D01*
X083946Y015648D01*
X083991Y015701D01*
X084039Y015751D01*
X084090Y015798D01*
X084143Y015843D01*
X084199Y015884D01*
X084257Y015922D01*
X084317Y015957D01*
X084379Y015988D01*
X084443Y016016D01*
X084508Y016040D01*
X084575Y016061D01*
X084642Y016077D01*
X084711Y016090D01*
X084780Y016099D01*
X084849Y016104D01*
X084919Y016105D01*
X084988Y016102D01*
X085057Y016095D01*
X085126Y016084D01*
X085194Y016070D01*
X085261Y016051D01*
X085327Y016029D01*
X085391Y016003D01*
X085454Y015974D01*
X085516Y015941D01*
X085575Y015905D01*
X085632Y015865D01*
X085687Y015822D01*
X085739Y015776D01*
X085788Y015727D01*
X085835Y015676D01*
X086235Y015476D01*
X086635Y015476D01*
X087473Y013619D02*
X087405Y013634D01*
X087338Y013652D01*
X087272Y013675D01*
X087208Y013701D01*
X087145Y013730D01*
X087084Y013763D01*
X087024Y013800D01*
X086967Y013840D01*
X086913Y013882D01*
X086861Y013928D01*
X086811Y013977D01*
X086764Y014029D01*
X086721Y014083D01*
X086680Y014140D01*
X086643Y014198D01*
X086609Y014259D01*
X086579Y014321D01*
X086552Y014386D01*
X086529Y014451D01*
X086509Y014518D01*
X086494Y014586D01*
X086482Y014654D01*
X086474Y014723D01*
X086470Y014793D01*
X086471Y014862D01*
X086474Y014932D01*
X086482Y015001D01*
X086494Y015069D01*
X086510Y015137D01*
X086529Y015204D01*
X086552Y015269D01*
X086579Y015334D01*
X086610Y015396D01*
X086644Y015457D01*
X086681Y015515D01*
X086721Y015572D01*
X086765Y015626D01*
X086812Y015677D01*
X086861Y015726D01*
X086914Y015772D01*
X086968Y015815D01*
X087025Y015855D01*
X087084Y015891D01*
X087146Y015924D01*
X087209Y015954D01*
X087273Y015980D01*
X087339Y016002D01*
X087406Y016021D01*
X087474Y016035D01*
X087543Y016046D01*
X087612Y016053D01*
X087681Y016056D01*
X087751Y016055D01*
X087820Y016050D01*
X087889Y016041D01*
X087958Y016029D01*
X088025Y016012D01*
X088092Y015992D01*
X088157Y015968D01*
X088221Y015940D01*
X088283Y015909D01*
X088343Y015874D01*
X088401Y015836D01*
X088457Y015794D01*
X088510Y015750D01*
X088561Y015703D01*
X088609Y015652D01*
X088655Y015600D01*
X088697Y015544D01*
X088736Y015487D01*
X088772Y015427D01*
X088804Y015366D01*
X088832Y015302D01*
X088857Y015237D01*
X088879Y015171D01*
X088896Y015104D01*
X088910Y015036D01*
X088920Y014967D01*
X088926Y014898D01*
X088928Y014828D01*
X088926Y014759D01*
X088920Y014689D01*
X088911Y014621D01*
X088897Y014552D01*
X088879Y014485D01*
X088858Y014419D01*
X088885Y013973D01*
X089085Y013680D01*
X087996Y013080D02*
X087846Y013373D01*
X087473Y013619D01*
X086235Y014276D02*
X085835Y014076D01*
X086235Y014276D02*
X086585Y014276D01*
X087893Y011993D02*
X087872Y012059D01*
X087854Y012126D01*
X087840Y012195D01*
X087831Y012263D01*
X087825Y012333D01*
X087823Y012402D01*
X087825Y012472D01*
X087831Y012541D01*
X087841Y012610D01*
X087855Y012678D01*
X087872Y012745D01*
X087894Y012811D01*
X087919Y012876D01*
X087947Y012940D01*
X087979Y013001D01*
X088015Y013061D01*
X088054Y013118D01*
X088096Y013174D01*
X088142Y013226D01*
X088190Y013277D01*
X088241Y013324D01*
X088294Y013368D01*
X088350Y013410D01*
X088408Y013448D01*
X088468Y013483D01*
X088530Y013514D01*
X088594Y013542D01*
X088659Y013566D01*
X088726Y013586D01*
X088793Y013603D01*
X088862Y013615D01*
X088931Y013624D01*
X089000Y013629D01*
X089070Y013630D01*
X089139Y013627D01*
X089208Y013620D01*
X089277Y013609D01*
X089345Y013595D01*
X089412Y013576D01*
X089478Y013554D01*
X089542Y013528D01*
X089605Y013498D01*
X089667Y013465D01*
X089726Y013429D01*
X089783Y013389D01*
X089837Y013346D01*
X089890Y013300D01*
X089939Y013251D01*
X089986Y013200D01*
X090030Y013146D01*
X090070Y013089D01*
X090107Y013031D01*
X090141Y012970D01*
X090172Y012908D01*
X090199Y012843D01*
X090222Y012778D01*
X090241Y012711D01*
X090257Y012643D01*
X090269Y012575D01*
X090277Y012506D01*
X090280Y012436D01*
X090281Y012367D01*
X090277Y012297D01*
X090269Y012228D01*
X090257Y012160D01*
X090242Y012092D01*
X090222Y012025D01*
X090199Y011960D01*
X090172Y011895D01*
X090142Y011833D01*
X090108Y011772D01*
X090071Y011714D01*
X090030Y011657D01*
X089987Y011603D01*
X089940Y011551D01*
X089890Y011502D01*
X089838Y011456D01*
X089784Y011414D01*
X089727Y011374D01*
X089667Y011337D01*
X089606Y011304D01*
X089543Y011275D01*
X089479Y011249D01*
X089413Y011226D01*
X089346Y011208D01*
X089278Y011193D01*
X089278Y011192D02*
X088905Y010946D01*
X088705Y010553D01*
X086635Y010876D02*
X086682Y010927D01*
X086731Y010976D01*
X086783Y011022D01*
X086838Y011065D01*
X086895Y011105D01*
X086954Y011141D01*
X087016Y011174D01*
X087079Y011203D01*
X087143Y011229D01*
X087209Y011251D01*
X087276Y011270D01*
X087344Y011284D01*
X087413Y011295D01*
X087482Y011302D01*
X087551Y011305D01*
X087621Y011304D01*
X087690Y011299D01*
X087759Y011290D01*
X087828Y011277D01*
X087895Y011261D01*
X087962Y011240D01*
X088027Y011216D01*
X088091Y011188D01*
X088153Y011157D01*
X088213Y011122D01*
X088271Y011084D01*
X088327Y011043D01*
X088380Y010998D01*
X088431Y010951D01*
X088479Y010901D01*
X088524Y010848D01*
X088567Y010792D01*
X088605Y010735D01*
X088641Y010675D01*
X088673Y010613D01*
X088702Y010550D01*
X088727Y010485D01*
X088748Y010419D01*
X088766Y010352D01*
X088779Y010284D01*
X088789Y010215D01*
X088795Y010146D01*
X088797Y010076D01*
X088795Y010006D01*
X088789Y009937D01*
X088779Y009868D01*
X088766Y009800D01*
X088748Y009733D01*
X088727Y009667D01*
X088702Y009602D01*
X088673Y009539D01*
X088641Y009477D01*
X088605Y009417D01*
X088567Y009360D01*
X088524Y009304D01*
X088479Y009251D01*
X088431Y009201D01*
X088380Y009154D01*
X088327Y009109D01*
X088271Y009068D01*
X088213Y009030D01*
X088153Y008995D01*
X088091Y008964D01*
X088027Y008936D01*
X087962Y008912D01*
X087895Y008891D01*
X087828Y008875D01*
X087759Y008862D01*
X087690Y008853D01*
X087621Y008848D01*
X087551Y008847D01*
X087482Y008850D01*
X087413Y008857D01*
X087344Y008868D01*
X087276Y008882D01*
X087209Y008901D01*
X087143Y008923D01*
X087079Y008949D01*
X087016Y008978D01*
X086954Y009011D01*
X086895Y009047D01*
X086838Y009087D01*
X086783Y009130D01*
X086731Y009176D01*
X086682Y009225D01*
X086635Y009276D01*
X086235Y009476D01*
X085835Y009476D01*
X083692Y009464D02*
X083333Y009730D01*
X083089Y009739D01*
X082989Y009717D02*
X083342Y009682D01*
X082989Y009717D02*
X082560Y009590D01*
X083692Y009463D02*
X083729Y009404D01*
X083770Y009348D01*
X083813Y009294D01*
X083860Y009242D01*
X083909Y009193D01*
X083961Y009147D01*
X084015Y009104D01*
X084072Y009064D01*
X084131Y009027D01*
X084192Y008994D01*
X084255Y008964D01*
X084320Y008938D01*
X084386Y008915D01*
X084452Y008897D01*
X084520Y008882D01*
X084589Y008871D01*
X084658Y008863D01*
X084728Y008860D01*
X084797Y008861D01*
X084867Y008866D01*
X084936Y008874D01*
X085004Y008887D01*
X085072Y008903D01*
X085138Y008923D01*
X085203Y008947D01*
X085267Y008974D01*
X085330Y009005D01*
X085390Y009040D01*
X085448Y009078D01*
X085504Y009119D01*
X085558Y009163D01*
X085609Y009210D01*
X085657Y009260D01*
X085703Y009313D01*
X085745Y009368D01*
X085784Y009425D01*
X085820Y009485D01*
X085853Y009546D01*
X085882Y009609D01*
X085907Y009674D01*
X085929Y009740D01*
X085946Y009808D01*
X085960Y009876D01*
X085970Y009944D01*
X085977Y010014D01*
X085979Y010083D01*
X085977Y010153D01*
X085972Y010222D01*
X085962Y010291D01*
X085949Y010359D01*
X085932Y010426D01*
X085911Y010493D01*
X085886Y010558D01*
X085858Y010621D01*
X085826Y010683D01*
X085791Y010743D01*
X085752Y010801D01*
X085710Y010856D01*
X085665Y010909D01*
X085617Y010960D01*
X085567Y011007D01*
X085513Y011052D01*
X085458Y011094D01*
X085400Y011132D01*
X085340Y011167D01*
X085278Y011199D01*
X085214Y011227D01*
X085149Y011251D01*
X085083Y011272D01*
X085015Y011289D01*
X084947Y011302D01*
X084878Y011311D01*
X084809Y011317D01*
X084739Y011318D01*
X084670Y011315D01*
X084601Y011309D01*
X084532Y011298D01*
X084464Y011284D01*
X084397Y011266D01*
X084331Y011244D01*
X084266Y011219D01*
X084203Y011190D01*
X084142Y011157D01*
X084082Y011121D01*
X084025Y011081D01*
X083970Y011039D01*
X083541Y010912D01*
X083188Y010947D01*
X083197Y010899D02*
X083441Y010890D01*
X083197Y010899D02*
X082838Y011166D01*
X082801Y011225D01*
X082760Y011281D01*
X082717Y011335D01*
X082670Y011387D01*
X082621Y011436D01*
X082569Y011482D01*
X082515Y011525D01*
X082458Y011565D01*
X082399Y011602D01*
X082338Y011635D01*
X082275Y011665D01*
X082210Y011691D01*
X082144Y011714D01*
X082078Y011732D01*
X082010Y011747D01*
X081941Y011758D01*
X081872Y011766D01*
X081802Y011769D01*
X081733Y011768D01*
X081663Y011763D01*
X081594Y011755D01*
X081526Y011742D01*
X081458Y011726D01*
X081392Y011706D01*
X081327Y011682D01*
X081263Y011655D01*
X081200Y011624D01*
X081140Y011589D01*
X081082Y011551D01*
X081026Y011510D01*
X080972Y011466D01*
X080921Y011419D01*
X080873Y011369D01*
X080827Y011316D01*
X080785Y011261D01*
X080746Y011204D01*
X080710Y011144D01*
X080677Y011083D01*
X080648Y011020D01*
X080623Y010955D01*
X080601Y010889D01*
X080584Y010821D01*
X080570Y010753D01*
X080560Y010685D01*
X080553Y010615D01*
X080551Y010546D01*
X080553Y010476D01*
X080558Y010407D01*
X080568Y010338D01*
X080581Y010270D01*
X080598Y010203D01*
X080619Y010136D01*
X080644Y010071D01*
X080672Y010008D01*
X080704Y009946D01*
X080739Y009886D01*
X080778Y009828D01*
X080820Y009773D01*
X080865Y009720D01*
X080913Y009669D01*
X080963Y009622D01*
X081017Y009577D01*
X081072Y009535D01*
X081130Y009497D01*
X081190Y009462D01*
X081252Y009430D01*
X081316Y009402D01*
X081381Y009378D01*
X081447Y009357D01*
X081515Y009340D01*
X081583Y009327D01*
X081652Y009318D01*
X081721Y009312D01*
X081791Y009311D01*
X081860Y009314D01*
X081929Y009320D01*
X081998Y009331D01*
X082066Y009345D01*
X082133Y009363D01*
X082199Y009385D01*
X082264Y009410D01*
X082327Y009439D01*
X082388Y009472D01*
X082448Y009508D01*
X082505Y009548D01*
X082560Y009590D01*
X085835Y010676D02*
X086235Y010676D01*
X086635Y010876D01*
X087715Y011303D02*
X087865Y011546D01*
X087892Y011992D01*
D12*
X000665Y006986D02*
X000665Y005886D01*
X000965Y005886D01*
X001465Y005886D02*
X001665Y005886D01*
X002165Y005886D02*
X002465Y006186D01*
X002465Y005886D01*
X002365Y005886D01*
X002265Y005886D01*
X002465Y006086D01*
X002465Y005986D01*
X002365Y005886D01*
X002265Y005886D02*
X002165Y005886D01*
X002465Y006186D02*
X002465Y006986D01*
X002165Y006986D01*
X001665Y006986D02*
X001465Y006986D01*
X000965Y006986D02*
X000665Y006986D01*
X001341Y006486D02*
X001343Y006515D01*
X001349Y006544D01*
X001358Y006572D01*
X001371Y006598D01*
X001387Y006622D01*
X001407Y006644D01*
X001429Y006664D01*
X001453Y006680D01*
X001479Y006693D01*
X001507Y006702D01*
X001536Y006708D01*
X001565Y006710D01*
X001594Y006708D01*
X001623Y006702D01*
X001651Y006693D01*
X001677Y006680D01*
X001701Y006664D01*
X001723Y006644D01*
X001743Y006622D01*
X001759Y006598D01*
X001772Y006572D01*
X001781Y006544D01*
X001787Y006515D01*
X001789Y006486D01*
X001787Y006457D01*
X001781Y006428D01*
X001772Y006400D01*
X001759Y006374D01*
X001743Y006350D01*
X001723Y006328D01*
X001701Y006308D01*
X001677Y006292D01*
X001651Y006279D01*
X001623Y006270D01*
X001594Y006264D01*
X001565Y006262D01*
X001536Y006264D01*
X001507Y006270D01*
X001479Y006279D01*
X001453Y006292D01*
X001429Y006308D01*
X001407Y006328D01*
X001387Y006350D01*
X001371Y006374D01*
X001358Y006400D01*
X001349Y006428D01*
X001343Y006457D01*
X001341Y006486D01*
X003625Y006986D02*
X003625Y005886D01*
X003925Y005886D01*
X004425Y005886D02*
X004625Y005886D01*
X005125Y005886D02*
X005425Y006186D01*
X005425Y005886D01*
X005325Y005886D01*
X005225Y005886D01*
X005425Y006086D01*
X005425Y005986D01*
X005325Y005886D01*
X005225Y005886D02*
X005125Y005886D01*
X005425Y006186D02*
X005425Y006986D01*
X005125Y006986D01*
X004625Y006986D02*
X004425Y006986D01*
X003925Y006986D02*
X003625Y006986D01*
X004301Y006486D02*
X004303Y006515D01*
X004309Y006544D01*
X004318Y006572D01*
X004331Y006598D01*
X004347Y006622D01*
X004367Y006644D01*
X004389Y006664D01*
X004413Y006680D01*
X004439Y006693D01*
X004467Y006702D01*
X004496Y006708D01*
X004525Y006710D01*
X004554Y006708D01*
X004583Y006702D01*
X004611Y006693D01*
X004637Y006680D01*
X004661Y006664D01*
X004683Y006644D01*
X004703Y006622D01*
X004719Y006598D01*
X004732Y006572D01*
X004741Y006544D01*
X004747Y006515D01*
X004749Y006486D01*
X004747Y006457D01*
X004741Y006428D01*
X004732Y006400D01*
X004719Y006374D01*
X004703Y006350D01*
X004683Y006328D01*
X004661Y006308D01*
X004637Y006292D01*
X004611Y006279D01*
X004583Y006270D01*
X004554Y006264D01*
X004525Y006262D01*
X004496Y006264D01*
X004467Y006270D01*
X004439Y006279D01*
X004413Y006292D01*
X004389Y006308D01*
X004367Y006328D01*
X004347Y006350D01*
X004331Y006374D01*
X004318Y006400D01*
X004309Y006428D01*
X004303Y006457D01*
X004301Y006486D01*
X006585Y006986D02*
X006585Y005886D01*
X006885Y005886D01*
X007385Y005886D02*
X007585Y005886D01*
X008085Y005886D02*
X008385Y006186D01*
X008385Y005886D01*
X008285Y005886D01*
X008185Y005886D01*
X008385Y006086D01*
X008385Y005986D01*
X008285Y005886D01*
X008185Y005886D02*
X008085Y005886D01*
X008385Y006186D02*
X008385Y006986D01*
X008085Y006986D01*
X007585Y006986D02*
X007385Y006986D01*
X006885Y006986D02*
X006585Y006986D01*
X007261Y006486D02*
X007263Y006515D01*
X007269Y006544D01*
X007278Y006572D01*
X007291Y006598D01*
X007307Y006622D01*
X007327Y006644D01*
X007349Y006664D01*
X007373Y006680D01*
X007399Y006693D01*
X007427Y006702D01*
X007456Y006708D01*
X007485Y006710D01*
X007514Y006708D01*
X007543Y006702D01*
X007571Y006693D01*
X007597Y006680D01*
X007621Y006664D01*
X007643Y006644D01*
X007663Y006622D01*
X007679Y006598D01*
X007692Y006572D01*
X007701Y006544D01*
X007707Y006515D01*
X007709Y006486D01*
X007707Y006457D01*
X007701Y006428D01*
X007692Y006400D01*
X007679Y006374D01*
X007663Y006350D01*
X007643Y006328D01*
X007621Y006308D01*
X007597Y006292D01*
X007571Y006279D01*
X007543Y006270D01*
X007514Y006264D01*
X007485Y006262D01*
X007456Y006264D01*
X007427Y006270D01*
X007399Y006279D01*
X007373Y006292D01*
X007349Y006308D01*
X007327Y006328D01*
X007307Y006350D01*
X007291Y006374D01*
X007278Y006400D01*
X007269Y006428D01*
X007263Y006457D01*
X007261Y006486D01*
X009545Y006986D02*
X009545Y005886D01*
X009845Y005886D01*
X010345Y005886D02*
X010545Y005886D01*
X011045Y005886D02*
X011345Y006186D01*
X011345Y005886D01*
X011245Y005886D01*
X011145Y005886D01*
X011345Y006086D01*
X011345Y005986D01*
X011245Y005886D01*
X011145Y005886D02*
X011045Y005886D01*
X011345Y006186D02*
X011345Y006986D01*
X011045Y006986D01*
X010545Y006986D02*
X010345Y006986D01*
X009845Y006986D02*
X009545Y006986D01*
X010221Y006486D02*
X010223Y006515D01*
X010229Y006544D01*
X010238Y006572D01*
X010251Y006598D01*
X010267Y006622D01*
X010287Y006644D01*
X010309Y006664D01*
X010333Y006680D01*
X010359Y006693D01*
X010387Y006702D01*
X010416Y006708D01*
X010445Y006710D01*
X010474Y006708D01*
X010503Y006702D01*
X010531Y006693D01*
X010557Y006680D01*
X010581Y006664D01*
X010603Y006644D01*
X010623Y006622D01*
X010639Y006598D01*
X010652Y006572D01*
X010661Y006544D01*
X010667Y006515D01*
X010669Y006486D01*
X010667Y006457D01*
X010661Y006428D01*
X010652Y006400D01*
X010639Y006374D01*
X010623Y006350D01*
X010603Y006328D01*
X010581Y006308D01*
X010557Y006292D01*
X010531Y006279D01*
X010503Y006270D01*
X010474Y006264D01*
X010445Y006262D01*
X010416Y006264D01*
X010387Y006270D01*
X010359Y006279D01*
X010333Y006292D01*
X010309Y006308D01*
X010287Y006328D01*
X010267Y006350D01*
X010251Y006374D01*
X010238Y006400D01*
X010229Y006428D01*
X010223Y006457D01*
X010221Y006486D01*
X012505Y006986D02*
X012505Y005886D01*
X012805Y005886D01*
X013305Y005886D02*
X013505Y005886D01*
X014005Y005886D02*
X014305Y006186D01*
X014305Y005886D01*
X014205Y005886D01*
X014105Y005886D01*
X014305Y006086D01*
X014305Y005986D01*
X014205Y005886D01*
X014105Y005886D02*
X014005Y005886D01*
X014305Y006186D02*
X014305Y006986D01*
X014005Y006986D01*
X013505Y006986D02*
X013305Y006986D01*
X012805Y006986D02*
X012505Y006986D01*
X013181Y006486D02*
X013183Y006515D01*
X013189Y006544D01*
X013198Y006572D01*
X013211Y006598D01*
X013227Y006622D01*
X013247Y006644D01*
X013269Y006664D01*
X013293Y006680D01*
X013319Y006693D01*
X013347Y006702D01*
X013376Y006708D01*
X013405Y006710D01*
X013434Y006708D01*
X013463Y006702D01*
X013491Y006693D01*
X013517Y006680D01*
X013541Y006664D01*
X013563Y006644D01*
X013583Y006622D01*
X013599Y006598D01*
X013612Y006572D01*
X013621Y006544D01*
X013627Y006515D01*
X013629Y006486D01*
X013627Y006457D01*
X013621Y006428D01*
X013612Y006400D01*
X013599Y006374D01*
X013583Y006350D01*
X013563Y006328D01*
X013541Y006308D01*
X013517Y006292D01*
X013491Y006279D01*
X013463Y006270D01*
X013434Y006264D01*
X013405Y006262D01*
X013376Y006264D01*
X013347Y006270D01*
X013319Y006279D01*
X013293Y006292D01*
X013269Y006308D01*
X013247Y006328D01*
X013227Y006350D01*
X013211Y006374D01*
X013198Y006400D01*
X013189Y006428D01*
X013183Y006457D01*
X013181Y006486D01*
X015465Y006986D02*
X015465Y005886D01*
X015765Y005886D01*
X016265Y005886D02*
X016465Y005886D01*
X016965Y005886D02*
X017265Y006186D01*
X017265Y005886D01*
X017165Y005886D01*
X017065Y005886D01*
X017265Y006086D01*
X017265Y005986D01*
X017165Y005886D01*
X017065Y005886D02*
X016965Y005886D01*
X017265Y006186D02*
X017265Y006986D01*
X016965Y006986D01*
X016465Y006986D02*
X016265Y006986D01*
X015765Y006986D02*
X015465Y006986D01*
X016141Y006486D02*
X016143Y006515D01*
X016149Y006544D01*
X016158Y006572D01*
X016171Y006598D01*
X016187Y006622D01*
X016207Y006644D01*
X016229Y006664D01*
X016253Y006680D01*
X016279Y006693D01*
X016307Y006702D01*
X016336Y006708D01*
X016365Y006710D01*
X016394Y006708D01*
X016423Y006702D01*
X016451Y006693D01*
X016477Y006680D01*
X016501Y006664D01*
X016523Y006644D01*
X016543Y006622D01*
X016559Y006598D01*
X016572Y006572D01*
X016581Y006544D01*
X016587Y006515D01*
X016589Y006486D01*
X016587Y006457D01*
X016581Y006428D01*
X016572Y006400D01*
X016559Y006374D01*
X016543Y006350D01*
X016523Y006328D01*
X016501Y006308D01*
X016477Y006292D01*
X016451Y006279D01*
X016423Y006270D01*
X016394Y006264D01*
X016365Y006262D01*
X016336Y006264D01*
X016307Y006270D01*
X016279Y006279D01*
X016253Y006292D01*
X016229Y006308D01*
X016207Y006328D01*
X016187Y006350D01*
X016171Y006374D01*
X016158Y006400D01*
X016149Y006428D01*
X016143Y006457D01*
X016141Y006486D01*
X018425Y006986D02*
X018425Y005886D01*
X018725Y005886D01*
X019225Y005886D02*
X019425Y005886D01*
X019925Y005886D02*
X020225Y006186D01*
X020225Y005886D01*
X020125Y005886D01*
X020025Y005886D01*
X020225Y006086D01*
X020225Y005986D01*
X020125Y005886D01*
X020025Y005886D02*
X019925Y005886D01*
X020225Y006186D02*
X020225Y006986D01*
X019925Y006986D01*
X019425Y006986D02*
X019225Y006986D01*
X018725Y006986D02*
X018425Y006986D01*
X019101Y006486D02*
X019103Y006515D01*
X019109Y006544D01*
X019118Y006572D01*
X019131Y006598D01*
X019147Y006622D01*
X019167Y006644D01*
X019189Y006664D01*
X019213Y006680D01*
X019239Y006693D01*
X019267Y006702D01*
X019296Y006708D01*
X019325Y006710D01*
X019354Y006708D01*
X019383Y006702D01*
X019411Y006693D01*
X019437Y006680D01*
X019461Y006664D01*
X019483Y006644D01*
X019503Y006622D01*
X019519Y006598D01*
X019532Y006572D01*
X019541Y006544D01*
X019547Y006515D01*
X019549Y006486D01*
X019547Y006457D01*
X019541Y006428D01*
X019532Y006400D01*
X019519Y006374D01*
X019503Y006350D01*
X019483Y006328D01*
X019461Y006308D01*
X019437Y006292D01*
X019411Y006279D01*
X019383Y006270D01*
X019354Y006264D01*
X019325Y006262D01*
X019296Y006264D01*
X019267Y006270D01*
X019239Y006279D01*
X019213Y006292D01*
X019189Y006308D01*
X019167Y006328D01*
X019147Y006350D01*
X019131Y006374D01*
X019118Y006400D01*
X019109Y006428D01*
X019103Y006457D01*
X019101Y006486D01*
X021385Y006986D02*
X021385Y005886D01*
X021685Y005886D01*
X022185Y005886D02*
X022385Y005886D01*
X022885Y005886D02*
X023185Y006186D01*
X023185Y005886D01*
X023085Y005886D01*
X022985Y005886D01*
X023185Y006086D01*
X023185Y005986D01*
X023085Y005886D01*
X022985Y005886D02*
X022885Y005886D01*
X023185Y006186D02*
X023185Y006986D01*
X022885Y006986D01*
X022385Y006986D02*
X022185Y006986D01*
X021685Y006986D02*
X021385Y006986D01*
X022061Y006486D02*
X022063Y006515D01*
X022069Y006544D01*
X022078Y006572D01*
X022091Y006598D01*
X022107Y006622D01*
X022127Y006644D01*
X022149Y006664D01*
X022173Y006680D01*
X022199Y006693D01*
X022227Y006702D01*
X022256Y006708D01*
X022285Y006710D01*
X022314Y006708D01*
X022343Y006702D01*
X022371Y006693D01*
X022397Y006680D01*
X022421Y006664D01*
X022443Y006644D01*
X022463Y006622D01*
X022479Y006598D01*
X022492Y006572D01*
X022501Y006544D01*
X022507Y006515D01*
X022509Y006486D01*
X022507Y006457D01*
X022501Y006428D01*
X022492Y006400D01*
X022479Y006374D01*
X022463Y006350D01*
X022443Y006328D01*
X022421Y006308D01*
X022397Y006292D01*
X022371Y006279D01*
X022343Y006270D01*
X022314Y006264D01*
X022285Y006262D01*
X022256Y006264D01*
X022227Y006270D01*
X022199Y006279D01*
X022173Y006292D01*
X022149Y006308D01*
X022127Y006328D01*
X022107Y006350D01*
X022091Y006374D01*
X022078Y006400D01*
X022069Y006428D01*
X022063Y006457D01*
X022061Y006486D01*
X024345Y006986D02*
X024345Y005886D01*
X024645Y005886D01*
X025145Y005886D02*
X025345Y005886D01*
X025845Y005886D02*
X026145Y006186D01*
X026145Y005886D01*
X026045Y005886D01*
X025945Y005886D01*
X026145Y006086D01*
X026145Y005986D01*
X026045Y005886D01*
X025945Y005886D02*
X025845Y005886D01*
X026145Y006186D02*
X026145Y006986D01*
X025845Y006986D01*
X025345Y006986D02*
X025145Y006986D01*
X024645Y006986D02*
X024345Y006986D01*
X025021Y006486D02*
X025023Y006515D01*
X025029Y006544D01*
X025038Y006572D01*
X025051Y006598D01*
X025067Y006622D01*
X025087Y006644D01*
X025109Y006664D01*
X025133Y006680D01*
X025159Y006693D01*
X025187Y006702D01*
X025216Y006708D01*
X025245Y006710D01*
X025274Y006708D01*
X025303Y006702D01*
X025331Y006693D01*
X025357Y006680D01*
X025381Y006664D01*
X025403Y006644D01*
X025423Y006622D01*
X025439Y006598D01*
X025452Y006572D01*
X025461Y006544D01*
X025467Y006515D01*
X025469Y006486D01*
X025467Y006457D01*
X025461Y006428D01*
X025452Y006400D01*
X025439Y006374D01*
X025423Y006350D01*
X025403Y006328D01*
X025381Y006308D01*
X025357Y006292D01*
X025331Y006279D01*
X025303Y006270D01*
X025274Y006264D01*
X025245Y006262D01*
X025216Y006264D01*
X025187Y006270D01*
X025159Y006279D01*
X025133Y006292D01*
X025109Y006308D01*
X025087Y006328D01*
X025067Y006350D01*
X025051Y006374D01*
X025038Y006400D01*
X025029Y006428D01*
X025023Y006457D01*
X025021Y006486D01*
X027305Y006986D02*
X027305Y005886D01*
X027605Y005886D01*
X028105Y005886D02*
X028305Y005886D01*
X028805Y005886D02*
X029105Y006186D01*
X029105Y005886D01*
X029005Y005886D01*
X028905Y005886D01*
X029105Y006086D01*
X029105Y005986D01*
X029005Y005886D01*
X028905Y005886D02*
X028805Y005886D01*
X029105Y006186D02*
X029105Y006986D01*
X028805Y006986D01*
X028305Y006986D02*
X028105Y006986D01*
X027605Y006986D02*
X027305Y006986D01*
X027981Y006486D02*
X027983Y006515D01*
X027989Y006544D01*
X027998Y006572D01*
X028011Y006598D01*
X028027Y006622D01*
X028047Y006644D01*
X028069Y006664D01*
X028093Y006680D01*
X028119Y006693D01*
X028147Y006702D01*
X028176Y006708D01*
X028205Y006710D01*
X028234Y006708D01*
X028263Y006702D01*
X028291Y006693D01*
X028317Y006680D01*
X028341Y006664D01*
X028363Y006644D01*
X028383Y006622D01*
X028399Y006598D01*
X028412Y006572D01*
X028421Y006544D01*
X028427Y006515D01*
X028429Y006486D01*
X028427Y006457D01*
X028421Y006428D01*
X028412Y006400D01*
X028399Y006374D01*
X028383Y006350D01*
X028363Y006328D01*
X028341Y006308D01*
X028317Y006292D01*
X028291Y006279D01*
X028263Y006270D01*
X028234Y006264D01*
X028205Y006262D01*
X028176Y006264D01*
X028147Y006270D01*
X028119Y006279D01*
X028093Y006292D01*
X028069Y006308D01*
X028047Y006328D01*
X028027Y006350D01*
X028011Y006374D01*
X027998Y006400D01*
X027989Y006428D01*
X027983Y006457D01*
X027981Y006486D01*
X030265Y006986D02*
X030265Y005886D01*
X030565Y005886D01*
X031065Y005886D02*
X031265Y005886D01*
X031765Y005886D02*
X032065Y006186D01*
X032065Y005886D01*
X031965Y005886D01*
X031865Y005886D01*
X032065Y006086D01*
X032065Y005986D01*
X031965Y005886D01*
X031865Y005886D02*
X031765Y005886D01*
X032065Y006186D02*
X032065Y006986D01*
X031765Y006986D01*
X031265Y006986D02*
X031065Y006986D01*
X030565Y006986D02*
X030265Y006986D01*
X030941Y006486D02*
X030943Y006515D01*
X030949Y006544D01*
X030958Y006572D01*
X030971Y006598D01*
X030987Y006622D01*
X031007Y006644D01*
X031029Y006664D01*
X031053Y006680D01*
X031079Y006693D01*
X031107Y006702D01*
X031136Y006708D01*
X031165Y006710D01*
X031194Y006708D01*
X031223Y006702D01*
X031251Y006693D01*
X031277Y006680D01*
X031301Y006664D01*
X031323Y006644D01*
X031343Y006622D01*
X031359Y006598D01*
X031372Y006572D01*
X031381Y006544D01*
X031387Y006515D01*
X031389Y006486D01*
X031387Y006457D01*
X031381Y006428D01*
X031372Y006400D01*
X031359Y006374D01*
X031343Y006350D01*
X031323Y006328D01*
X031301Y006308D01*
X031277Y006292D01*
X031251Y006279D01*
X031223Y006270D01*
X031194Y006264D01*
X031165Y006262D01*
X031136Y006264D01*
X031107Y006270D01*
X031079Y006279D01*
X031053Y006292D01*
X031029Y006308D01*
X031007Y006328D01*
X030987Y006350D01*
X030971Y006374D01*
X030958Y006400D01*
X030949Y006428D01*
X030943Y006457D01*
X030941Y006486D01*
X033225Y006986D02*
X033225Y005886D01*
X033525Y005886D01*
X034025Y005886D02*
X034225Y005886D01*
X034725Y005886D02*
X035025Y006186D01*
X035025Y005886D01*
X034925Y005886D01*
X034825Y005886D01*
X035025Y006086D01*
X035025Y005986D01*
X034925Y005886D01*
X034825Y005886D02*
X034725Y005886D01*
X035025Y006186D02*
X035025Y006986D01*
X034725Y006986D01*
X034225Y006986D02*
X034025Y006986D01*
X033525Y006986D02*
X033225Y006986D01*
X033901Y006486D02*
X033903Y006515D01*
X033909Y006544D01*
X033918Y006572D01*
X033931Y006598D01*
X033947Y006622D01*
X033967Y006644D01*
X033989Y006664D01*
X034013Y006680D01*
X034039Y006693D01*
X034067Y006702D01*
X034096Y006708D01*
X034125Y006710D01*
X034154Y006708D01*
X034183Y006702D01*
X034211Y006693D01*
X034237Y006680D01*
X034261Y006664D01*
X034283Y006644D01*
X034303Y006622D01*
X034319Y006598D01*
X034332Y006572D01*
X034341Y006544D01*
X034347Y006515D01*
X034349Y006486D01*
X034347Y006457D01*
X034341Y006428D01*
X034332Y006400D01*
X034319Y006374D01*
X034303Y006350D01*
X034283Y006328D01*
X034261Y006308D01*
X034237Y006292D01*
X034211Y006279D01*
X034183Y006270D01*
X034154Y006264D01*
X034125Y006262D01*
X034096Y006264D01*
X034067Y006270D01*
X034039Y006279D01*
X034013Y006292D01*
X033989Y006308D01*
X033967Y006328D01*
X033947Y006350D01*
X033931Y006374D01*
X033918Y006400D01*
X033909Y006428D01*
X033903Y006457D01*
X033901Y006486D01*
X036185Y006986D02*
X036185Y005886D01*
X036485Y005886D01*
X036985Y005886D02*
X037185Y005886D01*
X037685Y005886D02*
X037985Y006186D01*
X037985Y005886D01*
X037885Y005886D01*
X037785Y005886D01*
X037985Y006086D01*
X037985Y005986D01*
X037885Y005886D01*
X037785Y005886D02*
X037685Y005886D01*
X037985Y006186D02*
X037985Y006986D01*
X037685Y006986D01*
X037185Y006986D02*
X036985Y006986D01*
X036485Y006986D02*
X036185Y006986D01*
X036861Y006486D02*
X036863Y006515D01*
X036869Y006544D01*
X036878Y006572D01*
X036891Y006598D01*
X036907Y006622D01*
X036927Y006644D01*
X036949Y006664D01*
X036973Y006680D01*
X036999Y006693D01*
X037027Y006702D01*
X037056Y006708D01*
X037085Y006710D01*
X037114Y006708D01*
X037143Y006702D01*
X037171Y006693D01*
X037197Y006680D01*
X037221Y006664D01*
X037243Y006644D01*
X037263Y006622D01*
X037279Y006598D01*
X037292Y006572D01*
X037301Y006544D01*
X037307Y006515D01*
X037309Y006486D01*
X037307Y006457D01*
X037301Y006428D01*
X037292Y006400D01*
X037279Y006374D01*
X037263Y006350D01*
X037243Y006328D01*
X037221Y006308D01*
X037197Y006292D01*
X037171Y006279D01*
X037143Y006270D01*
X037114Y006264D01*
X037085Y006262D01*
X037056Y006264D01*
X037027Y006270D01*
X036999Y006279D01*
X036973Y006292D01*
X036949Y006308D01*
X036927Y006328D01*
X036907Y006350D01*
X036891Y006374D01*
X036878Y006400D01*
X036869Y006428D01*
X036863Y006457D01*
X036861Y006486D01*
X039145Y006986D02*
X039145Y005886D01*
X039445Y005886D01*
X039945Y005886D02*
X040145Y005886D01*
X040645Y005886D02*
X040945Y006186D01*
X040945Y005886D01*
X040845Y005886D01*
X040745Y005886D01*
X040945Y006086D01*
X040945Y005986D01*
X040845Y005886D01*
X040745Y005886D02*
X040645Y005886D01*
X040945Y006186D02*
X040945Y006986D01*
X040645Y006986D01*
X040145Y006986D02*
X039945Y006986D01*
X039445Y006986D02*
X039145Y006986D01*
X039821Y006486D02*
X039823Y006515D01*
X039829Y006544D01*
X039838Y006572D01*
X039851Y006598D01*
X039867Y006622D01*
X039887Y006644D01*
X039909Y006664D01*
X039933Y006680D01*
X039959Y006693D01*
X039987Y006702D01*
X040016Y006708D01*
X040045Y006710D01*
X040074Y006708D01*
X040103Y006702D01*
X040131Y006693D01*
X040157Y006680D01*
X040181Y006664D01*
X040203Y006644D01*
X040223Y006622D01*
X040239Y006598D01*
X040252Y006572D01*
X040261Y006544D01*
X040267Y006515D01*
X040269Y006486D01*
X040267Y006457D01*
X040261Y006428D01*
X040252Y006400D01*
X040239Y006374D01*
X040223Y006350D01*
X040203Y006328D01*
X040181Y006308D01*
X040157Y006292D01*
X040131Y006279D01*
X040103Y006270D01*
X040074Y006264D01*
X040045Y006262D01*
X040016Y006264D01*
X039987Y006270D01*
X039959Y006279D01*
X039933Y006292D01*
X039909Y006308D01*
X039887Y006328D01*
X039867Y006350D01*
X039851Y006374D01*
X039838Y006400D01*
X039829Y006428D01*
X039823Y006457D01*
X039821Y006486D01*
X042025Y006986D02*
X042025Y005886D01*
X042325Y005886D01*
X042825Y005886D02*
X043025Y005886D01*
X043525Y005886D02*
X043825Y006186D01*
X043825Y005886D01*
X043725Y005886D01*
X043625Y005886D01*
X043825Y006086D01*
X043825Y005986D01*
X043725Y005886D01*
X043625Y005886D02*
X043525Y005886D01*
X043825Y006186D02*
X043825Y006986D01*
X043525Y006986D01*
X043025Y006986D02*
X042825Y006986D01*
X042325Y006986D02*
X042025Y006986D01*
X042701Y006486D02*
X042703Y006515D01*
X042709Y006544D01*
X042718Y006572D01*
X042731Y006598D01*
X042747Y006622D01*
X042767Y006644D01*
X042789Y006664D01*
X042813Y006680D01*
X042839Y006693D01*
X042867Y006702D01*
X042896Y006708D01*
X042925Y006710D01*
X042954Y006708D01*
X042983Y006702D01*
X043011Y006693D01*
X043037Y006680D01*
X043061Y006664D01*
X043083Y006644D01*
X043103Y006622D01*
X043119Y006598D01*
X043132Y006572D01*
X043141Y006544D01*
X043147Y006515D01*
X043149Y006486D01*
X043147Y006457D01*
X043141Y006428D01*
X043132Y006400D01*
X043119Y006374D01*
X043103Y006350D01*
X043083Y006328D01*
X043061Y006308D01*
X043037Y006292D01*
X043011Y006279D01*
X042983Y006270D01*
X042954Y006264D01*
X042925Y006262D01*
X042896Y006264D01*
X042867Y006270D01*
X042839Y006279D01*
X042813Y006292D01*
X042789Y006308D01*
X042767Y006328D01*
X042747Y006350D01*
X042731Y006374D01*
X042718Y006400D01*
X042709Y006428D01*
X042703Y006457D01*
X042701Y006486D01*
X044905Y006986D02*
X044905Y005886D01*
X045205Y005886D01*
X045705Y005886D02*
X045905Y005886D01*
X046405Y005886D02*
X046705Y006186D01*
X046705Y005886D01*
X046605Y005886D01*
X046505Y005886D01*
X046705Y006086D01*
X046705Y005986D01*
X046605Y005886D01*
X046505Y005886D02*
X046405Y005886D01*
X046705Y006186D02*
X046705Y006986D01*
X046405Y006986D01*
X045905Y006986D02*
X045705Y006986D01*
X045205Y006986D02*
X044905Y006986D01*
X045581Y006486D02*
X045583Y006515D01*
X045589Y006544D01*
X045598Y006572D01*
X045611Y006598D01*
X045627Y006622D01*
X045647Y006644D01*
X045669Y006664D01*
X045693Y006680D01*
X045719Y006693D01*
X045747Y006702D01*
X045776Y006708D01*
X045805Y006710D01*
X045834Y006708D01*
X045863Y006702D01*
X045891Y006693D01*
X045917Y006680D01*
X045941Y006664D01*
X045963Y006644D01*
X045983Y006622D01*
X045999Y006598D01*
X046012Y006572D01*
X046021Y006544D01*
X046027Y006515D01*
X046029Y006486D01*
X046027Y006457D01*
X046021Y006428D01*
X046012Y006400D01*
X045999Y006374D01*
X045983Y006350D01*
X045963Y006328D01*
X045941Y006308D01*
X045917Y006292D01*
X045891Y006279D01*
X045863Y006270D01*
X045834Y006264D01*
X045805Y006262D01*
X045776Y006264D01*
X045747Y006270D01*
X045719Y006279D01*
X045693Y006292D01*
X045669Y006308D01*
X045647Y006328D01*
X045627Y006350D01*
X045611Y006374D01*
X045598Y006400D01*
X045589Y006428D01*
X045583Y006457D01*
X045581Y006486D01*
X047785Y006986D02*
X047785Y005886D01*
X048085Y005886D01*
X048585Y005886D02*
X048785Y005886D01*
X049285Y005886D02*
X049585Y006186D01*
X049585Y005886D01*
X049485Y005886D01*
X049385Y005886D01*
X049585Y006086D01*
X049585Y005986D01*
X049485Y005886D01*
X049385Y005886D02*
X049285Y005886D01*
X049585Y006186D02*
X049585Y006986D01*
X049285Y006986D01*
X048785Y006986D02*
X048585Y006986D01*
X048085Y006986D02*
X047785Y006986D01*
X048461Y006486D02*
X048463Y006515D01*
X048469Y006544D01*
X048478Y006572D01*
X048491Y006598D01*
X048507Y006622D01*
X048527Y006644D01*
X048549Y006664D01*
X048573Y006680D01*
X048599Y006693D01*
X048627Y006702D01*
X048656Y006708D01*
X048685Y006710D01*
X048714Y006708D01*
X048743Y006702D01*
X048771Y006693D01*
X048797Y006680D01*
X048821Y006664D01*
X048843Y006644D01*
X048863Y006622D01*
X048879Y006598D01*
X048892Y006572D01*
X048901Y006544D01*
X048907Y006515D01*
X048909Y006486D01*
X048907Y006457D01*
X048901Y006428D01*
X048892Y006400D01*
X048879Y006374D01*
X048863Y006350D01*
X048843Y006328D01*
X048821Y006308D01*
X048797Y006292D01*
X048771Y006279D01*
X048743Y006270D01*
X048714Y006264D01*
X048685Y006262D01*
X048656Y006264D01*
X048627Y006270D01*
X048599Y006279D01*
X048573Y006292D01*
X048549Y006308D01*
X048527Y006328D01*
X048507Y006350D01*
X048491Y006374D01*
X048478Y006400D01*
X048469Y006428D01*
X048463Y006457D01*
X048461Y006486D01*
X050665Y006986D02*
X050665Y005886D01*
X050965Y005886D01*
X051465Y005886D02*
X051665Y005886D01*
X052165Y005886D02*
X052465Y006186D01*
X052465Y005886D01*
X052365Y005886D01*
X052265Y005886D01*
X052465Y006086D01*
X052465Y005986D01*
X052365Y005886D01*
X052265Y005886D02*
X052165Y005886D01*
X052465Y006186D02*
X052465Y006986D01*
X052165Y006986D01*
X051665Y006986D02*
X051465Y006986D01*
X050965Y006986D02*
X050665Y006986D01*
X051341Y006486D02*
X051343Y006515D01*
X051349Y006544D01*
X051358Y006572D01*
X051371Y006598D01*
X051387Y006622D01*
X051407Y006644D01*
X051429Y006664D01*
X051453Y006680D01*
X051479Y006693D01*
X051507Y006702D01*
X051536Y006708D01*
X051565Y006710D01*
X051594Y006708D01*
X051623Y006702D01*
X051651Y006693D01*
X051677Y006680D01*
X051701Y006664D01*
X051723Y006644D01*
X051743Y006622D01*
X051759Y006598D01*
X051772Y006572D01*
X051781Y006544D01*
X051787Y006515D01*
X051789Y006486D01*
X051787Y006457D01*
X051781Y006428D01*
X051772Y006400D01*
X051759Y006374D01*
X051743Y006350D01*
X051723Y006328D01*
X051701Y006308D01*
X051677Y006292D01*
X051651Y006279D01*
X051623Y006270D01*
X051594Y006264D01*
X051565Y006262D01*
X051536Y006264D01*
X051507Y006270D01*
X051479Y006279D01*
X051453Y006292D01*
X051429Y006308D01*
X051407Y006328D01*
X051387Y006350D01*
X051371Y006374D01*
X051358Y006400D01*
X051349Y006428D01*
X051343Y006457D01*
X051341Y006486D01*
X053545Y006986D02*
X053545Y005886D01*
X053845Y005886D01*
X054345Y005886D02*
X054545Y005886D01*
X055045Y005886D02*
X055345Y006186D01*
X055345Y005886D01*
X055245Y005886D01*
X055145Y005886D01*
X055345Y006086D01*
X055345Y005986D01*
X055245Y005886D01*
X055145Y005886D02*
X055045Y005886D01*
X055345Y006186D02*
X055345Y006986D01*
X055045Y006986D01*
X054545Y006986D02*
X054345Y006986D01*
X053845Y006986D02*
X053545Y006986D01*
X054221Y006486D02*
X054223Y006515D01*
X054229Y006544D01*
X054238Y006572D01*
X054251Y006598D01*
X054267Y006622D01*
X054287Y006644D01*
X054309Y006664D01*
X054333Y006680D01*
X054359Y006693D01*
X054387Y006702D01*
X054416Y006708D01*
X054445Y006710D01*
X054474Y006708D01*
X054503Y006702D01*
X054531Y006693D01*
X054557Y006680D01*
X054581Y006664D01*
X054603Y006644D01*
X054623Y006622D01*
X054639Y006598D01*
X054652Y006572D01*
X054661Y006544D01*
X054667Y006515D01*
X054669Y006486D01*
X054667Y006457D01*
X054661Y006428D01*
X054652Y006400D01*
X054639Y006374D01*
X054623Y006350D01*
X054603Y006328D01*
X054581Y006308D01*
X054557Y006292D01*
X054531Y006279D01*
X054503Y006270D01*
X054474Y006264D01*
X054445Y006262D01*
X054416Y006264D01*
X054387Y006270D01*
X054359Y006279D01*
X054333Y006292D01*
X054309Y006308D01*
X054287Y006328D01*
X054267Y006350D01*
X054251Y006374D01*
X054238Y006400D01*
X054229Y006428D01*
X054223Y006457D01*
X054221Y006486D01*
X056505Y006986D02*
X056505Y005886D01*
X056805Y005886D01*
X057305Y005886D02*
X057505Y005886D01*
X058005Y005886D02*
X058305Y006186D01*
X058305Y005886D01*
X058205Y005886D01*
X058105Y005886D01*
X058305Y006086D01*
X058305Y005986D01*
X058205Y005886D01*
X058105Y005886D02*
X058005Y005886D01*
X058305Y006186D02*
X058305Y006986D01*
X058005Y006986D01*
X057505Y006986D02*
X057305Y006986D01*
X056805Y006986D02*
X056505Y006986D01*
X057181Y006486D02*
X057183Y006515D01*
X057189Y006544D01*
X057198Y006572D01*
X057211Y006598D01*
X057227Y006622D01*
X057247Y006644D01*
X057269Y006664D01*
X057293Y006680D01*
X057319Y006693D01*
X057347Y006702D01*
X057376Y006708D01*
X057405Y006710D01*
X057434Y006708D01*
X057463Y006702D01*
X057491Y006693D01*
X057517Y006680D01*
X057541Y006664D01*
X057563Y006644D01*
X057583Y006622D01*
X057599Y006598D01*
X057612Y006572D01*
X057621Y006544D01*
X057627Y006515D01*
X057629Y006486D01*
X057627Y006457D01*
X057621Y006428D01*
X057612Y006400D01*
X057599Y006374D01*
X057583Y006350D01*
X057563Y006328D01*
X057541Y006308D01*
X057517Y006292D01*
X057491Y006279D01*
X057463Y006270D01*
X057434Y006264D01*
X057405Y006262D01*
X057376Y006264D01*
X057347Y006270D01*
X057319Y006279D01*
X057293Y006292D01*
X057269Y006308D01*
X057247Y006328D01*
X057227Y006350D01*
X057211Y006374D01*
X057198Y006400D01*
X057189Y006428D01*
X057183Y006457D01*
X057181Y006486D01*
X059465Y006986D02*
X059465Y005886D01*
X059765Y005886D01*
X060265Y005886D02*
X060465Y005886D01*
X060965Y005886D02*
X061265Y006186D01*
X061265Y005886D01*
X061165Y005886D01*
X061065Y005886D01*
X061265Y006086D01*
X061265Y005986D01*
X061165Y005886D01*
X061065Y005886D02*
X060965Y005886D01*
X061265Y006186D02*
X061265Y006986D01*
X060965Y006986D01*
X060465Y006986D02*
X060265Y006986D01*
X059765Y006986D02*
X059465Y006986D01*
X060141Y006486D02*
X060143Y006515D01*
X060149Y006544D01*
X060158Y006572D01*
X060171Y006598D01*
X060187Y006622D01*
X060207Y006644D01*
X060229Y006664D01*
X060253Y006680D01*
X060279Y006693D01*
X060307Y006702D01*
X060336Y006708D01*
X060365Y006710D01*
X060394Y006708D01*
X060423Y006702D01*
X060451Y006693D01*
X060477Y006680D01*
X060501Y006664D01*
X060523Y006644D01*
X060543Y006622D01*
X060559Y006598D01*
X060572Y006572D01*
X060581Y006544D01*
X060587Y006515D01*
X060589Y006486D01*
X060587Y006457D01*
X060581Y006428D01*
X060572Y006400D01*
X060559Y006374D01*
X060543Y006350D01*
X060523Y006328D01*
X060501Y006308D01*
X060477Y006292D01*
X060451Y006279D01*
X060423Y006270D01*
X060394Y006264D01*
X060365Y006262D01*
X060336Y006264D01*
X060307Y006270D01*
X060279Y006279D01*
X060253Y006292D01*
X060229Y006308D01*
X060207Y006328D01*
X060187Y006350D01*
X060171Y006374D01*
X060158Y006400D01*
X060149Y006428D01*
X060143Y006457D01*
X060141Y006486D01*
X062425Y006986D02*
X062425Y005886D01*
X062725Y005886D01*
X063225Y005886D02*
X063425Y005886D01*
X063925Y005886D02*
X064225Y006186D01*
X064225Y005886D01*
X064125Y005886D01*
X064025Y005886D01*
X064225Y006086D01*
X064225Y005986D01*
X064125Y005886D01*
X064025Y005886D02*
X063925Y005886D01*
X064225Y006186D02*
X064225Y006986D01*
X063925Y006986D01*
X063425Y006986D02*
X063225Y006986D01*
X062725Y006986D02*
X062425Y006986D01*
X063101Y006486D02*
X063103Y006515D01*
X063109Y006544D01*
X063118Y006572D01*
X063131Y006598D01*
X063147Y006622D01*
X063167Y006644D01*
X063189Y006664D01*
X063213Y006680D01*
X063239Y006693D01*
X063267Y006702D01*
X063296Y006708D01*
X063325Y006710D01*
X063354Y006708D01*
X063383Y006702D01*
X063411Y006693D01*
X063437Y006680D01*
X063461Y006664D01*
X063483Y006644D01*
X063503Y006622D01*
X063519Y006598D01*
X063532Y006572D01*
X063541Y006544D01*
X063547Y006515D01*
X063549Y006486D01*
X063547Y006457D01*
X063541Y006428D01*
X063532Y006400D01*
X063519Y006374D01*
X063503Y006350D01*
X063483Y006328D01*
X063461Y006308D01*
X063437Y006292D01*
X063411Y006279D01*
X063383Y006270D01*
X063354Y006264D01*
X063325Y006262D01*
X063296Y006264D01*
X063267Y006270D01*
X063239Y006279D01*
X063213Y006292D01*
X063189Y006308D01*
X063167Y006328D01*
X063147Y006350D01*
X063131Y006374D01*
X063118Y006400D01*
X063109Y006428D01*
X063103Y006457D01*
X063101Y006486D01*
X065385Y006986D02*
X065385Y005886D01*
X065685Y005886D01*
X066185Y005886D02*
X066385Y005886D01*
X066885Y005886D02*
X067185Y006186D01*
X067185Y005886D01*
X067085Y005886D01*
X066985Y005886D01*
X067185Y006086D01*
X067185Y005986D01*
X067085Y005886D01*
X066985Y005886D02*
X066885Y005886D01*
X067185Y006186D02*
X067185Y006986D01*
X066885Y006986D01*
X066385Y006986D02*
X066185Y006986D01*
X065685Y006986D02*
X065385Y006986D01*
X066061Y006486D02*
X066063Y006515D01*
X066069Y006544D01*
X066078Y006572D01*
X066091Y006598D01*
X066107Y006622D01*
X066127Y006644D01*
X066149Y006664D01*
X066173Y006680D01*
X066199Y006693D01*
X066227Y006702D01*
X066256Y006708D01*
X066285Y006710D01*
X066314Y006708D01*
X066343Y006702D01*
X066371Y006693D01*
X066397Y006680D01*
X066421Y006664D01*
X066443Y006644D01*
X066463Y006622D01*
X066479Y006598D01*
X066492Y006572D01*
X066501Y006544D01*
X066507Y006515D01*
X066509Y006486D01*
X066507Y006457D01*
X066501Y006428D01*
X066492Y006400D01*
X066479Y006374D01*
X066463Y006350D01*
X066443Y006328D01*
X066421Y006308D01*
X066397Y006292D01*
X066371Y006279D01*
X066343Y006270D01*
X066314Y006264D01*
X066285Y006262D01*
X066256Y006264D01*
X066227Y006270D01*
X066199Y006279D01*
X066173Y006292D01*
X066149Y006308D01*
X066127Y006328D01*
X066107Y006350D01*
X066091Y006374D01*
X066078Y006400D01*
X066069Y006428D01*
X066063Y006457D01*
X066061Y006486D01*
X068345Y006986D02*
X068345Y005886D01*
X068645Y005886D01*
X069145Y005886D02*
X069345Y005886D01*
X069845Y005886D02*
X070145Y006186D01*
X070145Y005886D01*
X070045Y005886D01*
X069945Y005886D01*
X070145Y006086D01*
X070145Y005986D01*
X070045Y005886D01*
X069945Y005886D02*
X069845Y005886D01*
X070145Y006186D02*
X070145Y006986D01*
X069845Y006986D01*
X069345Y006986D02*
X069145Y006986D01*
X068645Y006986D02*
X068345Y006986D01*
X069021Y006486D02*
X069023Y006515D01*
X069029Y006544D01*
X069038Y006572D01*
X069051Y006598D01*
X069067Y006622D01*
X069087Y006644D01*
X069109Y006664D01*
X069133Y006680D01*
X069159Y006693D01*
X069187Y006702D01*
X069216Y006708D01*
X069245Y006710D01*
X069274Y006708D01*
X069303Y006702D01*
X069331Y006693D01*
X069357Y006680D01*
X069381Y006664D01*
X069403Y006644D01*
X069423Y006622D01*
X069439Y006598D01*
X069452Y006572D01*
X069461Y006544D01*
X069467Y006515D01*
X069469Y006486D01*
X069467Y006457D01*
X069461Y006428D01*
X069452Y006400D01*
X069439Y006374D01*
X069423Y006350D01*
X069403Y006328D01*
X069381Y006308D01*
X069357Y006292D01*
X069331Y006279D01*
X069303Y006270D01*
X069274Y006264D01*
X069245Y006262D01*
X069216Y006264D01*
X069187Y006270D01*
X069159Y006279D01*
X069133Y006292D01*
X069109Y006308D01*
X069087Y006328D01*
X069067Y006350D01*
X069051Y006374D01*
X069038Y006400D01*
X069029Y006428D01*
X069023Y006457D01*
X069021Y006486D01*
X071305Y006986D02*
X071305Y005886D01*
X071605Y005886D01*
X072105Y005886D02*
X072305Y005886D01*
X072805Y005886D02*
X073105Y006186D01*
X073105Y005886D01*
X073005Y005886D01*
X072905Y005886D01*
X073105Y006086D01*
X073105Y005986D01*
X073005Y005886D01*
X072905Y005886D02*
X072805Y005886D01*
X073105Y006186D02*
X073105Y006986D01*
X072805Y006986D01*
X072305Y006986D02*
X072105Y006986D01*
X071605Y006986D02*
X071305Y006986D01*
X071981Y006486D02*
X071983Y006515D01*
X071989Y006544D01*
X071998Y006572D01*
X072011Y006598D01*
X072027Y006622D01*
X072047Y006644D01*
X072069Y006664D01*
X072093Y006680D01*
X072119Y006693D01*
X072147Y006702D01*
X072176Y006708D01*
X072205Y006710D01*
X072234Y006708D01*
X072263Y006702D01*
X072291Y006693D01*
X072317Y006680D01*
X072341Y006664D01*
X072363Y006644D01*
X072383Y006622D01*
X072399Y006598D01*
X072412Y006572D01*
X072421Y006544D01*
X072427Y006515D01*
X072429Y006486D01*
X072427Y006457D01*
X072421Y006428D01*
X072412Y006400D01*
X072399Y006374D01*
X072383Y006350D01*
X072363Y006328D01*
X072341Y006308D01*
X072317Y006292D01*
X072291Y006279D01*
X072263Y006270D01*
X072234Y006264D01*
X072205Y006262D01*
X072176Y006264D01*
X072147Y006270D01*
X072119Y006279D01*
X072093Y006292D01*
X072069Y006308D01*
X072047Y006328D01*
X072027Y006350D01*
X072011Y006374D01*
X071998Y006400D01*
X071989Y006428D01*
X071983Y006457D01*
X071981Y006486D01*
X074265Y006986D02*
X074265Y005886D01*
X074565Y005886D01*
X075065Y005886D02*
X075265Y005886D01*
X075765Y005886D02*
X076065Y006186D01*
X076065Y005886D01*
X075965Y005886D01*
X075865Y005886D01*
X076065Y006086D01*
X076065Y005986D01*
X075965Y005886D01*
X075865Y005886D02*
X075765Y005886D01*
X076065Y006186D02*
X076065Y006986D01*
X075765Y006986D01*
X075265Y006986D02*
X075065Y006986D01*
X074565Y006986D02*
X074265Y006986D01*
X074941Y006486D02*
X074943Y006515D01*
X074949Y006544D01*
X074958Y006572D01*
X074971Y006598D01*
X074987Y006622D01*
X075007Y006644D01*
X075029Y006664D01*
X075053Y006680D01*
X075079Y006693D01*
X075107Y006702D01*
X075136Y006708D01*
X075165Y006710D01*
X075194Y006708D01*
X075223Y006702D01*
X075251Y006693D01*
X075277Y006680D01*
X075301Y006664D01*
X075323Y006644D01*
X075343Y006622D01*
X075359Y006598D01*
X075372Y006572D01*
X075381Y006544D01*
X075387Y006515D01*
X075389Y006486D01*
X075387Y006457D01*
X075381Y006428D01*
X075372Y006400D01*
X075359Y006374D01*
X075343Y006350D01*
X075323Y006328D01*
X075301Y006308D01*
X075277Y006292D01*
X075251Y006279D01*
X075223Y006270D01*
X075194Y006264D01*
X075165Y006262D01*
X075136Y006264D01*
X075107Y006270D01*
X075079Y006279D01*
X075053Y006292D01*
X075029Y006308D01*
X075007Y006328D01*
X074987Y006350D01*
X074971Y006374D01*
X074958Y006400D01*
X074949Y006428D01*
X074943Y006457D01*
X074941Y006486D01*
X077225Y006986D02*
X077225Y005886D01*
X077525Y005886D01*
X078025Y005886D02*
X078225Y005886D01*
X078725Y005886D02*
X079025Y006186D01*
X079025Y005886D01*
X078925Y005886D01*
X078825Y005886D01*
X079025Y006086D01*
X079025Y005986D01*
X078925Y005886D01*
X078825Y005886D02*
X078725Y005886D01*
X079025Y006186D02*
X079025Y006986D01*
X078725Y006986D01*
X078225Y006986D02*
X078025Y006986D01*
X077525Y006986D02*
X077225Y006986D01*
X077901Y006486D02*
X077903Y006515D01*
X077909Y006544D01*
X077918Y006572D01*
X077931Y006598D01*
X077947Y006622D01*
X077967Y006644D01*
X077989Y006664D01*
X078013Y006680D01*
X078039Y006693D01*
X078067Y006702D01*
X078096Y006708D01*
X078125Y006710D01*
X078154Y006708D01*
X078183Y006702D01*
X078211Y006693D01*
X078237Y006680D01*
X078261Y006664D01*
X078283Y006644D01*
X078303Y006622D01*
X078319Y006598D01*
X078332Y006572D01*
X078341Y006544D01*
X078347Y006515D01*
X078349Y006486D01*
X078347Y006457D01*
X078341Y006428D01*
X078332Y006400D01*
X078319Y006374D01*
X078303Y006350D01*
X078283Y006328D01*
X078261Y006308D01*
X078237Y006292D01*
X078211Y006279D01*
X078183Y006270D01*
X078154Y006264D01*
X078125Y006262D01*
X078096Y006264D01*
X078067Y006270D01*
X078039Y006279D01*
X078013Y006292D01*
X077989Y006308D01*
X077967Y006328D01*
X077947Y006350D01*
X077931Y006374D01*
X077918Y006400D01*
X077909Y006428D01*
X077903Y006457D01*
X077901Y006486D01*
X080185Y006986D02*
X080185Y005886D01*
X080485Y005886D01*
X080985Y005886D02*
X081185Y005886D01*
X081685Y005886D02*
X081985Y006186D01*
X081985Y005886D01*
X081885Y005886D01*
X081785Y005886D01*
X081985Y006086D01*
X081985Y005986D01*
X081885Y005886D01*
X081785Y005886D02*
X081685Y005886D01*
X081985Y006186D02*
X081985Y006986D01*
X081685Y006986D01*
X081185Y006986D02*
X080985Y006986D01*
X080485Y006986D02*
X080185Y006986D01*
X080861Y006486D02*
X080863Y006515D01*
X080869Y006544D01*
X080878Y006572D01*
X080891Y006598D01*
X080907Y006622D01*
X080927Y006644D01*
X080949Y006664D01*
X080973Y006680D01*
X080999Y006693D01*
X081027Y006702D01*
X081056Y006708D01*
X081085Y006710D01*
X081114Y006708D01*
X081143Y006702D01*
X081171Y006693D01*
X081197Y006680D01*
X081221Y006664D01*
X081243Y006644D01*
X081263Y006622D01*
X081279Y006598D01*
X081292Y006572D01*
X081301Y006544D01*
X081307Y006515D01*
X081309Y006486D01*
X081307Y006457D01*
X081301Y006428D01*
X081292Y006400D01*
X081279Y006374D01*
X081263Y006350D01*
X081243Y006328D01*
X081221Y006308D01*
X081197Y006292D01*
X081171Y006279D01*
X081143Y006270D01*
X081114Y006264D01*
X081085Y006262D01*
X081056Y006264D01*
X081027Y006270D01*
X080999Y006279D01*
X080973Y006292D01*
X080949Y006308D01*
X080927Y006328D01*
X080907Y006350D01*
X080891Y006374D01*
X080878Y006400D01*
X080869Y006428D01*
X080863Y006457D01*
X080861Y006486D01*
X083145Y006986D02*
X083145Y005886D01*
X083445Y005886D01*
X083945Y005886D02*
X084145Y005886D01*
X084645Y005886D02*
X084945Y006186D01*
X084945Y005886D01*
X084845Y005886D01*
X084745Y005886D01*
X084945Y006086D01*
X084945Y005986D01*
X084845Y005886D01*
X084745Y005886D02*
X084645Y005886D01*
X084945Y006186D02*
X084945Y006986D01*
X084645Y006986D01*
X084145Y006986D02*
X083945Y006986D01*
X083445Y006986D02*
X083145Y006986D01*
X083821Y006486D02*
X083823Y006515D01*
X083829Y006544D01*
X083838Y006572D01*
X083851Y006598D01*
X083867Y006622D01*
X083887Y006644D01*
X083909Y006664D01*
X083933Y006680D01*
X083959Y006693D01*
X083987Y006702D01*
X084016Y006708D01*
X084045Y006710D01*
X084074Y006708D01*
X084103Y006702D01*
X084131Y006693D01*
X084157Y006680D01*
X084181Y006664D01*
X084203Y006644D01*
X084223Y006622D01*
X084239Y006598D01*
X084252Y006572D01*
X084261Y006544D01*
X084267Y006515D01*
X084269Y006486D01*
X084267Y006457D01*
X084261Y006428D01*
X084252Y006400D01*
X084239Y006374D01*
X084223Y006350D01*
X084203Y006328D01*
X084181Y006308D01*
X084157Y006292D01*
X084131Y006279D01*
X084103Y006270D01*
X084074Y006264D01*
X084045Y006262D01*
X084016Y006264D01*
X083987Y006270D01*
X083959Y006279D01*
X083933Y006292D01*
X083909Y006308D01*
X083887Y006328D01*
X083867Y006350D01*
X083851Y006374D01*
X083838Y006400D01*
X083829Y006428D01*
X083823Y006457D01*
X083821Y006486D01*
X086105Y006986D02*
X086105Y005886D01*
X086405Y005886D01*
X086905Y005886D02*
X087105Y005886D01*
X087605Y005886D02*
X087905Y006186D01*
X087905Y005886D01*
X087805Y005886D01*
X087705Y005886D01*
X087905Y006086D01*
X087905Y005986D01*
X087805Y005886D01*
X087705Y005886D02*
X087605Y005886D01*
X087905Y006186D02*
X087905Y006986D01*
X087605Y006986D01*
X087105Y006986D02*
X086905Y006986D01*
X086405Y006986D02*
X086105Y006986D01*
X086781Y006486D02*
X086783Y006515D01*
X086789Y006544D01*
X086798Y006572D01*
X086811Y006598D01*
X086827Y006622D01*
X086847Y006644D01*
X086869Y006664D01*
X086893Y006680D01*
X086919Y006693D01*
X086947Y006702D01*
X086976Y006708D01*
X087005Y006710D01*
X087034Y006708D01*
X087063Y006702D01*
X087091Y006693D01*
X087117Y006680D01*
X087141Y006664D01*
X087163Y006644D01*
X087183Y006622D01*
X087199Y006598D01*
X087212Y006572D01*
X087221Y006544D01*
X087227Y006515D01*
X087229Y006486D01*
X087227Y006457D01*
X087221Y006428D01*
X087212Y006400D01*
X087199Y006374D01*
X087183Y006350D01*
X087163Y006328D01*
X087141Y006308D01*
X087117Y006292D01*
X087091Y006279D01*
X087063Y006270D01*
X087034Y006264D01*
X087005Y006262D01*
X086976Y006264D01*
X086947Y006270D01*
X086919Y006279D01*
X086893Y006292D01*
X086869Y006308D01*
X086847Y006328D01*
X086827Y006350D01*
X086811Y006374D01*
X086798Y006400D01*
X086789Y006428D01*
X086783Y006457D01*
X086781Y006486D01*
X089065Y006986D02*
X089065Y005886D01*
X089365Y005886D01*
X089865Y005886D02*
X090065Y005886D01*
X090565Y005886D02*
X090865Y006186D01*
X090865Y005886D01*
X090765Y005886D01*
X090665Y005886D01*
X090865Y006086D01*
X090865Y005986D01*
X090765Y005886D01*
X090665Y005886D02*
X090565Y005886D01*
X090865Y006186D02*
X090865Y006986D01*
X090565Y006986D01*
X090065Y006986D02*
X089865Y006986D01*
X089365Y006986D02*
X089065Y006986D01*
X089741Y006486D02*
X089743Y006515D01*
X089749Y006544D01*
X089758Y006572D01*
X089771Y006598D01*
X089787Y006622D01*
X089807Y006644D01*
X089829Y006664D01*
X089853Y006680D01*
X089879Y006693D01*
X089907Y006702D01*
X089936Y006708D01*
X089965Y006710D01*
X089994Y006708D01*
X090023Y006702D01*
X090051Y006693D01*
X090077Y006680D01*
X090101Y006664D01*
X090123Y006644D01*
X090143Y006622D01*
X090159Y006598D01*
X090172Y006572D01*
X090181Y006544D01*
X090187Y006515D01*
X090189Y006486D01*
X090187Y006457D01*
X090181Y006428D01*
X090172Y006400D01*
X090159Y006374D01*
X090143Y006350D01*
X090123Y006328D01*
X090101Y006308D01*
X090077Y006292D01*
X090051Y006279D01*
X090023Y006270D01*
X089994Y006264D01*
X089965Y006262D01*
X089936Y006264D01*
X089907Y006270D01*
X089879Y006279D01*
X089853Y006292D01*
X089829Y006308D01*
X089807Y006328D01*
X089787Y006350D01*
X089771Y006374D01*
X089758Y006400D01*
X089749Y006428D01*
X089743Y006457D01*
X089741Y006486D01*
X092025Y006986D02*
X092025Y005886D01*
X092325Y005886D01*
X092825Y005886D02*
X093025Y005886D01*
X093525Y005886D02*
X093825Y006186D01*
X093825Y005886D01*
X093725Y005886D01*
X093625Y005886D01*
X093825Y006086D01*
X093825Y005986D01*
X093725Y005886D01*
X093625Y005886D02*
X093525Y005886D01*
X093825Y006186D02*
X093825Y006986D01*
X093525Y006986D01*
X093025Y006986D02*
X092825Y006986D01*
X092325Y006986D02*
X092025Y006986D01*
X092701Y006486D02*
X092703Y006515D01*
X092709Y006544D01*
X092718Y006572D01*
X092731Y006598D01*
X092747Y006622D01*
X092767Y006644D01*
X092789Y006664D01*
X092813Y006680D01*
X092839Y006693D01*
X092867Y006702D01*
X092896Y006708D01*
X092925Y006710D01*
X092954Y006708D01*
X092983Y006702D01*
X093011Y006693D01*
X093037Y006680D01*
X093061Y006664D01*
X093083Y006644D01*
X093103Y006622D01*
X093119Y006598D01*
X093132Y006572D01*
X093141Y006544D01*
X093147Y006515D01*
X093149Y006486D01*
X093147Y006457D01*
X093141Y006428D01*
X093132Y006400D01*
X093119Y006374D01*
X093103Y006350D01*
X093083Y006328D01*
X093061Y006308D01*
X093037Y006292D01*
X093011Y006279D01*
X092983Y006270D01*
X092954Y006264D01*
X092925Y006262D01*
X092896Y006264D01*
X092867Y006270D01*
X092839Y006279D01*
X092813Y006292D01*
X092789Y006308D01*
X092767Y006328D01*
X092747Y006350D01*
X092731Y006374D01*
X092718Y006400D01*
X092709Y006428D01*
X092703Y006457D01*
X092701Y006486D01*
X087088Y010076D02*
X087090Y010118D01*
X087096Y010159D01*
X087106Y010200D01*
X087119Y010240D01*
X087136Y010278D01*
X087157Y010314D01*
X087181Y010349D01*
X087208Y010381D01*
X087238Y010410D01*
X087271Y010436D01*
X087305Y010460D01*
X087342Y010479D01*
X087381Y010496D01*
X087421Y010508D01*
X087462Y010517D01*
X087504Y010522D01*
X087545Y010523D01*
X087587Y010520D01*
X087629Y010513D01*
X087669Y010502D01*
X087708Y010488D01*
X087746Y010470D01*
X087782Y010448D01*
X087816Y010424D01*
X087847Y010396D01*
X087876Y010365D01*
X087901Y010332D01*
X087924Y010296D01*
X087943Y010259D01*
X087958Y010220D01*
X087970Y010180D01*
X087978Y010139D01*
X087982Y010097D01*
X087982Y010055D01*
X087978Y010013D01*
X087970Y009972D01*
X087958Y009932D01*
X087943Y009893D01*
X087924Y009856D01*
X087901Y009820D01*
X087876Y009787D01*
X087847Y009756D01*
X087816Y009728D01*
X087782Y009704D01*
X087746Y009682D01*
X087708Y009664D01*
X087669Y009650D01*
X087629Y009639D01*
X087587Y009632D01*
X087545Y009629D01*
X087504Y009630D01*
X087462Y009635D01*
X087421Y009644D01*
X087381Y009656D01*
X087342Y009673D01*
X087305Y009692D01*
X087271Y009716D01*
X087238Y009742D01*
X087208Y009771D01*
X087181Y009803D01*
X087157Y009838D01*
X087136Y009874D01*
X087119Y009912D01*
X087106Y009952D01*
X087096Y009993D01*
X087090Y010034D01*
X087088Y010076D01*
X084270Y010095D02*
X084272Y010137D01*
X084278Y010178D01*
X084288Y010219D01*
X084301Y010259D01*
X084318Y010297D01*
X084339Y010333D01*
X084363Y010368D01*
X084390Y010400D01*
X084420Y010429D01*
X084453Y010455D01*
X084487Y010479D01*
X084524Y010498D01*
X084563Y010515D01*
X084603Y010527D01*
X084644Y010536D01*
X084686Y010541D01*
X084727Y010542D01*
X084769Y010539D01*
X084811Y010532D01*
X084851Y010521D01*
X084890Y010507D01*
X084928Y010489D01*
X084964Y010467D01*
X084998Y010443D01*
X085029Y010415D01*
X085058Y010384D01*
X085083Y010351D01*
X085106Y010315D01*
X085125Y010278D01*
X085140Y010239D01*
X085152Y010199D01*
X085160Y010158D01*
X085164Y010116D01*
X085164Y010074D01*
X085160Y010032D01*
X085152Y009991D01*
X085140Y009951D01*
X085125Y009912D01*
X085106Y009875D01*
X085083Y009839D01*
X085058Y009806D01*
X085029Y009775D01*
X084998Y009747D01*
X084964Y009723D01*
X084928Y009701D01*
X084890Y009683D01*
X084851Y009669D01*
X084811Y009658D01*
X084769Y009651D01*
X084727Y009648D01*
X084686Y009649D01*
X084644Y009654D01*
X084603Y009663D01*
X084563Y009675D01*
X084524Y009692D01*
X084487Y009711D01*
X084453Y009735D01*
X084420Y009761D01*
X084390Y009790D01*
X084363Y009822D01*
X084339Y009857D01*
X084318Y009893D01*
X084301Y009931D01*
X084288Y009971D01*
X084278Y010012D01*
X084272Y010053D01*
X084270Y010095D01*
X081366Y010534D02*
X081368Y010576D01*
X081374Y010617D01*
X081384Y010658D01*
X081397Y010698D01*
X081414Y010736D01*
X081435Y010772D01*
X081459Y010807D01*
X081486Y010839D01*
X081516Y010868D01*
X081549Y010894D01*
X081583Y010918D01*
X081620Y010937D01*
X081659Y010954D01*
X081699Y010966D01*
X081740Y010975D01*
X081782Y010980D01*
X081823Y010981D01*
X081865Y010978D01*
X081907Y010971D01*
X081947Y010960D01*
X081986Y010946D01*
X082024Y010928D01*
X082060Y010906D01*
X082094Y010882D01*
X082125Y010854D01*
X082154Y010823D01*
X082179Y010790D01*
X082202Y010754D01*
X082221Y010717D01*
X082236Y010678D01*
X082248Y010638D01*
X082256Y010597D01*
X082260Y010555D01*
X082260Y010513D01*
X082256Y010471D01*
X082248Y010430D01*
X082236Y010390D01*
X082221Y010351D01*
X082202Y010314D01*
X082179Y010278D01*
X082154Y010245D01*
X082125Y010214D01*
X082094Y010186D01*
X082060Y010162D01*
X082024Y010140D01*
X081986Y010122D01*
X081947Y010108D01*
X081907Y010097D01*
X081865Y010090D01*
X081823Y010087D01*
X081782Y010088D01*
X081740Y010093D01*
X081699Y010102D01*
X081659Y010114D01*
X081620Y010131D01*
X081583Y010150D01*
X081549Y010174D01*
X081516Y010200D01*
X081486Y010229D01*
X081459Y010261D01*
X081435Y010296D01*
X081414Y010332D01*
X081397Y010370D01*
X081384Y010410D01*
X081374Y010451D01*
X081368Y010492D01*
X081366Y010534D01*
X088588Y012372D02*
X088590Y012414D01*
X088596Y012455D01*
X088606Y012496D01*
X088619Y012536D01*
X088636Y012574D01*
X088657Y012610D01*
X088681Y012645D01*
X088708Y012677D01*
X088738Y012706D01*
X088771Y012732D01*
X088805Y012756D01*
X088842Y012775D01*
X088881Y012792D01*
X088921Y012804D01*
X088962Y012813D01*
X089004Y012818D01*
X089045Y012819D01*
X089087Y012816D01*
X089129Y012809D01*
X089169Y012798D01*
X089208Y012784D01*
X089246Y012766D01*
X089282Y012744D01*
X089316Y012720D01*
X089347Y012692D01*
X089376Y012661D01*
X089401Y012628D01*
X089424Y012592D01*
X089443Y012555D01*
X089458Y012516D01*
X089470Y012476D01*
X089478Y012435D01*
X089482Y012393D01*
X089482Y012351D01*
X089478Y012309D01*
X089470Y012268D01*
X089458Y012228D01*
X089443Y012189D01*
X089424Y012152D01*
X089401Y012116D01*
X089376Y012083D01*
X089347Y012052D01*
X089316Y012024D01*
X089282Y012000D01*
X089246Y011978D01*
X089208Y011960D01*
X089169Y011946D01*
X089129Y011935D01*
X089087Y011928D01*
X089045Y011925D01*
X089004Y011926D01*
X088962Y011931D01*
X088921Y011940D01*
X088881Y011952D01*
X088842Y011969D01*
X088805Y011988D01*
X088771Y012012D01*
X088738Y012038D01*
X088708Y012067D01*
X088681Y012099D01*
X088657Y012134D01*
X088636Y012170D01*
X088619Y012208D01*
X088606Y012248D01*
X088596Y012289D01*
X088590Y012330D01*
X088588Y012372D01*
X087268Y014799D02*
X087270Y014841D01*
X087276Y014882D01*
X087286Y014923D01*
X087299Y014963D01*
X087316Y015001D01*
X087337Y015037D01*
X087361Y015072D01*
X087388Y015104D01*
X087418Y015133D01*
X087451Y015159D01*
X087485Y015183D01*
X087522Y015202D01*
X087561Y015219D01*
X087601Y015231D01*
X087642Y015240D01*
X087684Y015245D01*
X087725Y015246D01*
X087767Y015243D01*
X087809Y015236D01*
X087849Y015225D01*
X087888Y015211D01*
X087926Y015193D01*
X087962Y015171D01*
X087996Y015147D01*
X088027Y015119D01*
X088056Y015088D01*
X088081Y015055D01*
X088104Y015019D01*
X088123Y014982D01*
X088138Y014943D01*
X088150Y014903D01*
X088158Y014862D01*
X088162Y014820D01*
X088162Y014778D01*
X088158Y014736D01*
X088150Y014695D01*
X088138Y014655D01*
X088123Y014616D01*
X088104Y014579D01*
X088081Y014543D01*
X088056Y014510D01*
X088027Y014479D01*
X087996Y014451D01*
X087962Y014427D01*
X087926Y014405D01*
X087888Y014387D01*
X087849Y014373D01*
X087809Y014362D01*
X087767Y014355D01*
X087725Y014352D01*
X087684Y014353D01*
X087642Y014358D01*
X087601Y014367D01*
X087561Y014379D01*
X087522Y014396D01*
X087485Y014415D01*
X087451Y014439D01*
X087418Y014465D01*
X087388Y014494D01*
X087361Y014526D01*
X087337Y014561D01*
X087316Y014597D01*
X087299Y014635D01*
X087286Y014675D01*
X087276Y014716D01*
X087270Y014757D01*
X087268Y014799D01*
X084488Y014876D02*
X084490Y014918D01*
X084496Y014959D01*
X084506Y015000D01*
X084519Y015040D01*
X084536Y015078D01*
X084557Y015114D01*
X084581Y015149D01*
X084608Y015181D01*
X084638Y015210D01*
X084671Y015236D01*
X084705Y015260D01*
X084742Y015279D01*
X084781Y015296D01*
X084821Y015308D01*
X084862Y015317D01*
X084904Y015322D01*
X084945Y015323D01*
X084987Y015320D01*
X085029Y015313D01*
X085069Y015302D01*
X085108Y015288D01*
X085146Y015270D01*
X085182Y015248D01*
X085216Y015224D01*
X085247Y015196D01*
X085276Y015165D01*
X085301Y015132D01*
X085324Y015096D01*
X085343Y015059D01*
X085358Y015020D01*
X085370Y014980D01*
X085378Y014939D01*
X085382Y014897D01*
X085382Y014855D01*
X085378Y014813D01*
X085370Y014772D01*
X085358Y014732D01*
X085343Y014693D01*
X085324Y014656D01*
X085301Y014620D01*
X085276Y014587D01*
X085247Y014556D01*
X085216Y014528D01*
X085182Y014504D01*
X085146Y014482D01*
X085108Y014464D01*
X085069Y014450D01*
X085029Y014439D01*
X084987Y014432D01*
X084945Y014429D01*
X084904Y014430D01*
X084862Y014435D01*
X084821Y014444D01*
X084781Y014456D01*
X084742Y014473D01*
X084705Y014492D01*
X084671Y014516D01*
X084638Y014542D01*
X084608Y014571D01*
X084581Y014603D01*
X084557Y014638D01*
X084536Y014674D01*
X084519Y014712D01*
X084506Y014752D01*
X084496Y014793D01*
X084490Y014834D01*
X084488Y014876D01*
D13*
X084543Y013297D02*
X084162Y013297D01*
X084353Y013297D02*
X084353Y012156D01*
X084543Y012156D02*
X084162Y012156D01*
X083622Y012156D02*
X083052Y012156D01*
X082861Y012346D01*
X082861Y012536D01*
X083052Y012726D01*
X083622Y012726D01*
X083052Y012726D02*
X082861Y012916D01*
X082861Y013106D01*
X083052Y013297D01*
X083622Y013297D01*
X083622Y012156D01*
X085163Y012156D02*
X085163Y013297D01*
X085924Y013297D02*
X085163Y012156D01*
X085924Y012156D02*
X085924Y013297D01*
X086544Y012916D02*
X086544Y012156D01*
X087305Y012156D02*
X087305Y012916D01*
X086925Y013297D01*
X086544Y012916D01*
X086544Y012726D02*
X087305Y012726D01*
X082241Y012156D02*
X081861Y012156D01*
X082051Y012156D02*
X082051Y013297D01*
X082241Y013297D02*
X081861Y013297D01*
X081320Y013297D02*
X081320Y012156D01*
X081320Y012536D02*
X080559Y013297D01*
X079939Y013297D02*
X079939Y012156D01*
X079178Y012156D01*
X080559Y012156D02*
X081130Y012726D01*
X079939Y012726D02*
X079559Y012726D01*
X079939Y013297D02*
X079178Y013297D01*
D14*
X079168Y007299D02*
X079120Y007251D01*
X079120Y007154D01*
X079168Y007106D01*
X079265Y007106D01*
X079265Y007251D01*
X079217Y007299D01*
X079168Y007299D01*
X079362Y007203D02*
X079265Y007106D01*
X079362Y007203D02*
X079410Y007299D01*
X079362Y007005D02*
X079410Y006956D01*
X079410Y006811D01*
X079120Y006811D01*
X079120Y006956D01*
X079168Y007005D01*
X079362Y007005D01*
X082080Y006956D02*
X082128Y007005D01*
X082322Y007005D01*
X082370Y006956D01*
X082370Y006811D01*
X082080Y006811D01*
X082080Y006956D01*
X082128Y007106D02*
X082080Y007154D01*
X082080Y007251D01*
X082128Y007299D01*
X082225Y007299D01*
X082274Y007251D01*
X082274Y007203D01*
X082225Y007106D01*
X082370Y007106D01*
X082370Y007299D01*
X085040Y007251D02*
X085330Y007251D01*
X085185Y007106D01*
X085185Y007299D01*
X085088Y007005D02*
X085282Y007005D01*
X085330Y006956D01*
X085330Y006811D01*
X085040Y006811D01*
X085040Y006956D01*
X085088Y007005D01*
X088000Y006956D02*
X088048Y007005D01*
X088242Y007005D01*
X088290Y006956D01*
X088290Y006811D01*
X088000Y006811D01*
X088000Y006956D01*
X088048Y007106D02*
X088000Y007154D01*
X088000Y007251D01*
X088048Y007299D01*
X088097Y007299D01*
X088145Y007251D01*
X088145Y007203D01*
X088145Y007251D02*
X088194Y007299D01*
X088242Y007299D01*
X088290Y007251D01*
X088290Y007154D01*
X088242Y007106D01*
X090960Y007106D02*
X091154Y007299D01*
X091202Y007299D01*
X091250Y007251D01*
X091250Y007154D01*
X091202Y007106D01*
X091202Y007005D02*
X091250Y006956D01*
X091250Y006811D01*
X090960Y006811D01*
X090960Y006956D01*
X091008Y007005D01*
X091202Y007005D01*
X090960Y007106D02*
X090960Y007299D01*
X093920Y007299D02*
X093920Y007106D01*
X093920Y007203D02*
X094210Y007203D01*
X094114Y007106D01*
X094162Y007005D02*
X093968Y007005D01*
X093920Y006956D01*
X093920Y006811D01*
X094210Y006811D01*
X094210Y006956D01*
X094162Y007005D01*
X076450Y006956D02*
X076450Y006811D01*
X076160Y006811D01*
X076160Y006956D01*
X076208Y007005D01*
X076402Y007005D01*
X076450Y006956D01*
X076450Y007106D02*
X076450Y007299D01*
X076402Y007299D01*
X076208Y007106D01*
X076160Y007106D01*
X073490Y007154D02*
X073490Y007251D01*
X073442Y007299D01*
X073394Y007299D01*
X073345Y007251D01*
X073345Y007154D01*
X073394Y007106D01*
X073442Y007106D01*
X073490Y007154D01*
X073345Y007154D02*
X073297Y007106D01*
X073248Y007106D01*
X073200Y007154D01*
X073200Y007251D01*
X073248Y007299D01*
X073297Y007299D01*
X073345Y007251D01*
X073248Y007005D02*
X073442Y007005D01*
X073490Y006956D01*
X073490Y006811D01*
X073200Y006811D01*
X073200Y006956D01*
X073248Y007005D01*
X070530Y006956D02*
X070530Y006811D01*
X070240Y006811D01*
X070240Y006956D01*
X070288Y007005D01*
X070482Y007005D01*
X070530Y006956D01*
X070482Y007106D02*
X070434Y007106D01*
X070385Y007154D01*
X070385Y007299D01*
X070288Y007299D02*
X070482Y007299D01*
X070530Y007251D01*
X070530Y007154D01*
X070482Y007106D01*
X070288Y007106D02*
X070240Y007154D01*
X070240Y007251D01*
X070288Y007299D01*
X067570Y007251D02*
X067570Y007154D01*
X067522Y007106D01*
X067328Y007106D01*
X067522Y007299D01*
X067328Y007299D01*
X067280Y007251D01*
X067280Y007154D01*
X067328Y007106D01*
X067280Y007005D02*
X067280Y006811D01*
X067280Y006908D02*
X067570Y006908D01*
X067474Y006811D01*
X067522Y006710D02*
X067328Y006710D01*
X067280Y006662D01*
X067280Y006517D01*
X067570Y006517D01*
X067570Y006662D01*
X067522Y006710D01*
X067570Y007251D02*
X067522Y007299D01*
X064610Y007203D02*
X064320Y007203D01*
X064320Y007299D02*
X064320Y007106D01*
X064320Y007005D02*
X064320Y006811D01*
X064320Y006908D02*
X064610Y006908D01*
X064514Y006811D01*
X064562Y006710D02*
X064610Y006662D01*
X064610Y006517D01*
X064320Y006517D01*
X064320Y006662D01*
X064368Y006710D01*
X064562Y006710D01*
X064514Y007106D02*
X064610Y007203D01*
X061650Y007251D02*
X061650Y007154D01*
X061602Y007106D01*
X061650Y007251D02*
X061602Y007299D01*
X061554Y007299D01*
X061360Y007106D01*
X061360Y007299D01*
X061360Y007005D02*
X061360Y006811D01*
X061360Y006908D02*
X061650Y006908D01*
X061554Y006811D01*
X061602Y006710D02*
X061650Y006662D01*
X061650Y006517D01*
X061360Y006517D01*
X061360Y006662D01*
X061408Y006710D01*
X061602Y006710D01*
X058690Y006662D02*
X058690Y006517D01*
X058400Y006517D01*
X058400Y006662D01*
X058448Y006710D01*
X058642Y006710D01*
X058690Y006662D01*
X058594Y006811D02*
X058690Y006908D01*
X058400Y006908D01*
X058400Y006811D02*
X058400Y007005D01*
X058448Y007106D02*
X058400Y007154D01*
X058400Y007251D01*
X058448Y007299D01*
X058497Y007299D01*
X058545Y007251D01*
X058545Y007203D01*
X058545Y007251D02*
X058594Y007299D01*
X058642Y007299D01*
X058690Y007251D01*
X058690Y007154D01*
X058642Y007106D01*
X055730Y007251D02*
X055585Y007106D01*
X055585Y007299D01*
X055440Y007251D02*
X055730Y007251D01*
X055440Y007005D02*
X055440Y006811D01*
X055440Y006908D02*
X055730Y006908D01*
X055634Y006811D01*
X055682Y006710D02*
X055488Y006710D01*
X055440Y006662D01*
X055440Y006517D01*
X055730Y006517D01*
X055730Y006662D01*
X055682Y006710D01*
X052850Y006662D02*
X052850Y006517D01*
X052560Y006517D01*
X052560Y006662D01*
X052608Y006710D01*
X052802Y006710D01*
X052850Y006662D01*
X052754Y006811D02*
X052850Y006908D01*
X052560Y006908D01*
X052560Y006811D02*
X052560Y007005D01*
X052608Y007106D02*
X052560Y007154D01*
X052560Y007251D01*
X052608Y007299D01*
X052705Y007299D01*
X052754Y007251D01*
X052754Y007203D01*
X052705Y007106D01*
X052850Y007106D01*
X052850Y007299D01*
X049970Y007299D02*
X049922Y007203D01*
X049825Y007106D01*
X049825Y007251D01*
X049777Y007299D01*
X049728Y007299D01*
X049680Y007251D01*
X049680Y007154D01*
X049728Y007106D01*
X049825Y007106D01*
X049680Y007005D02*
X049680Y006811D01*
X049680Y006908D02*
X049970Y006908D01*
X049874Y006811D01*
X049922Y006710D02*
X049970Y006662D01*
X049970Y006517D01*
X049680Y006517D01*
X049680Y006662D01*
X049728Y006710D01*
X049922Y006710D01*
X047090Y006662D02*
X047090Y006517D01*
X046800Y006517D01*
X046800Y006662D01*
X046848Y006710D01*
X047042Y006710D01*
X047090Y006662D01*
X046994Y006811D02*
X047090Y006908D01*
X046800Y006908D01*
X046800Y006811D02*
X046800Y007005D01*
X046800Y007106D02*
X046848Y007106D01*
X047042Y007299D01*
X047090Y007299D01*
X047090Y007106D01*
X044210Y007154D02*
X044210Y007251D01*
X044162Y007299D01*
X044114Y007299D01*
X044065Y007251D01*
X044065Y007154D01*
X044114Y007106D01*
X044162Y007106D01*
X044210Y007154D01*
X044065Y007154D02*
X044017Y007106D01*
X043968Y007106D01*
X043920Y007154D01*
X043920Y007251D01*
X043968Y007299D01*
X044017Y007299D01*
X044065Y007251D01*
X043920Y007005D02*
X043920Y006811D01*
X043920Y006908D02*
X044210Y006908D01*
X044114Y006811D01*
X044162Y006710D02*
X044210Y006662D01*
X044210Y006517D01*
X043920Y006517D01*
X043920Y006662D01*
X043968Y006710D01*
X044162Y006710D01*
X041330Y006662D02*
X041330Y006517D01*
X041040Y006517D01*
X041040Y006662D01*
X041088Y006710D01*
X041282Y006710D01*
X041330Y006662D01*
X041234Y006811D02*
X041330Y006908D01*
X041040Y006908D01*
X041040Y006811D02*
X041040Y007005D01*
X041088Y007106D02*
X041040Y007154D01*
X041040Y007251D01*
X041088Y007299D01*
X041282Y007299D01*
X041330Y007251D01*
X041330Y007154D01*
X041282Y007106D01*
X041234Y007106D01*
X041185Y007154D01*
X041185Y007299D01*
X038370Y007251D02*
X038370Y007154D01*
X038322Y007106D01*
X038128Y007106D01*
X038322Y007299D01*
X038128Y007299D01*
X038080Y007251D01*
X038080Y007154D01*
X038128Y007106D01*
X038080Y007005D02*
X038080Y006811D01*
X038274Y007005D01*
X038322Y007005D01*
X038370Y006956D01*
X038370Y006860D01*
X038322Y006811D01*
X038322Y006710D02*
X038370Y006662D01*
X038370Y006517D01*
X038080Y006517D01*
X038080Y006662D01*
X038128Y006710D01*
X038322Y006710D01*
X035410Y006662D02*
X035410Y006517D01*
X035120Y006517D01*
X035120Y006662D01*
X035168Y006710D01*
X035362Y006710D01*
X035410Y006662D01*
X035362Y006811D02*
X035410Y006860D01*
X035410Y006956D01*
X035362Y007005D01*
X035314Y007005D01*
X035120Y006811D01*
X035120Y007005D01*
X035120Y007106D02*
X035120Y007299D01*
X035120Y007203D02*
X035410Y007203D01*
X035314Y007106D01*
X038322Y007299D02*
X038370Y007251D01*
X032450Y007251D02*
X032450Y007154D01*
X032402Y007106D01*
X032402Y007005D02*
X032450Y006956D01*
X032450Y006860D01*
X032402Y006811D01*
X032402Y006710D02*
X032450Y006662D01*
X032450Y006517D01*
X032160Y006517D01*
X032160Y006662D01*
X032208Y006710D01*
X032402Y006710D01*
X032160Y006811D02*
X032354Y007005D01*
X032402Y007005D01*
X032160Y007005D02*
X032160Y006811D01*
X032160Y007106D02*
X032354Y007299D01*
X032402Y007299D01*
X032450Y007251D01*
X032160Y007299D02*
X032160Y007106D01*
X029490Y007154D02*
X029490Y007251D01*
X029442Y007299D01*
X029394Y007299D01*
X029345Y007251D01*
X029297Y007299D01*
X029248Y007299D01*
X029200Y007251D01*
X029200Y007154D01*
X029248Y007106D01*
X029200Y007005D02*
X029200Y006811D01*
X029394Y007005D01*
X029442Y007005D01*
X029490Y006956D01*
X029490Y006860D01*
X029442Y006811D01*
X029442Y006710D02*
X029490Y006662D01*
X029490Y006517D01*
X029200Y006517D01*
X029200Y006662D01*
X029248Y006710D01*
X029442Y006710D01*
X029442Y007106D02*
X029490Y007154D01*
X029345Y007203D02*
X029345Y007251D01*
X026530Y007251D02*
X026385Y007106D01*
X026385Y007299D01*
X026240Y007251D02*
X026530Y007251D01*
X026482Y007005D02*
X026530Y006956D01*
X026530Y006860D01*
X026482Y006811D01*
X026482Y006710D02*
X026530Y006662D01*
X026530Y006517D01*
X026240Y006517D01*
X026240Y006662D01*
X026288Y006710D01*
X026482Y006710D01*
X026240Y006811D02*
X026434Y007005D01*
X026482Y007005D01*
X026240Y007005D02*
X026240Y006811D01*
X023570Y006860D02*
X023522Y006811D01*
X023570Y006860D02*
X023570Y006956D01*
X023522Y007005D01*
X023474Y007005D01*
X023280Y006811D01*
X023280Y007005D01*
X023328Y007106D02*
X023280Y007154D01*
X023280Y007251D01*
X023328Y007299D01*
X023425Y007299D01*
X023474Y007251D01*
X023474Y007203D01*
X023425Y007106D01*
X023570Y007106D01*
X023570Y007299D01*
X023522Y006710D02*
X023570Y006662D01*
X023570Y006517D01*
X023280Y006517D01*
X023280Y006662D01*
X023328Y006710D01*
X023522Y006710D01*
X020610Y006662D02*
X020610Y006517D01*
X020320Y006517D01*
X020320Y006662D01*
X020368Y006710D01*
X020562Y006710D01*
X020610Y006662D01*
X020562Y006811D02*
X020610Y006860D01*
X020610Y006956D01*
X020562Y007005D01*
X020514Y007005D01*
X020320Y006811D01*
X020320Y007005D01*
X020368Y007106D02*
X020320Y007154D01*
X020320Y007251D01*
X020368Y007299D01*
X020417Y007299D01*
X020465Y007251D01*
X020465Y007106D01*
X020368Y007106D01*
X020465Y007106D02*
X020562Y007203D01*
X020610Y007299D01*
X017650Y007299D02*
X017650Y007106D01*
X017602Y007005D02*
X017650Y006956D01*
X017650Y006860D01*
X017602Y006811D01*
X017602Y006710D02*
X017650Y006662D01*
X017650Y006517D01*
X017360Y006517D01*
X017360Y006662D01*
X017408Y006710D01*
X017602Y006710D01*
X017360Y006811D02*
X017554Y007005D01*
X017602Y007005D01*
X017408Y007106D02*
X017360Y007106D01*
X017408Y007106D02*
X017602Y007299D01*
X017650Y007299D01*
X017360Y007005D02*
X017360Y006811D01*
X014690Y006860D02*
X014642Y006811D01*
X014690Y006860D02*
X014690Y006956D01*
X014642Y007005D01*
X014594Y007005D01*
X014400Y006811D01*
X014400Y007005D01*
X014448Y007106D02*
X014497Y007106D01*
X014545Y007154D01*
X014545Y007251D01*
X014497Y007299D01*
X014448Y007299D01*
X014400Y007251D01*
X014400Y007154D01*
X014448Y007106D01*
X014545Y007154D02*
X014594Y007106D01*
X014642Y007106D01*
X014690Y007154D01*
X014690Y007251D01*
X014642Y007299D01*
X014594Y007299D01*
X014545Y007251D01*
X014448Y006710D02*
X014642Y006710D01*
X014690Y006662D01*
X014690Y006517D01*
X014400Y006517D01*
X014400Y006662D01*
X014448Y006710D01*
X011730Y006662D02*
X011730Y006517D01*
X011440Y006517D01*
X011440Y006662D01*
X011488Y006710D01*
X011682Y006710D01*
X011730Y006662D01*
X011682Y006811D02*
X011730Y006860D01*
X011730Y006956D01*
X011682Y007005D01*
X011634Y007005D01*
X011440Y006811D01*
X011440Y007005D01*
X011488Y007106D02*
X011440Y007154D01*
X011440Y007251D01*
X011488Y007299D01*
X011682Y007299D01*
X011730Y007251D01*
X011730Y007154D01*
X011682Y007106D01*
X011634Y007106D01*
X011585Y007154D01*
X011585Y007299D01*
X008770Y007251D02*
X008770Y007154D01*
X008722Y007106D01*
X008528Y007106D01*
X008722Y007299D01*
X008528Y007299D01*
X008480Y007251D01*
X008480Y007154D01*
X008528Y007106D01*
X008528Y007005D02*
X008480Y006956D01*
X008480Y006860D01*
X008528Y006811D01*
X008528Y006710D02*
X008722Y006710D01*
X008770Y006662D01*
X008770Y006517D01*
X008480Y006517D01*
X008480Y006662D01*
X008528Y006710D01*
X008722Y006811D02*
X008770Y006860D01*
X008770Y006956D01*
X008722Y007005D01*
X008674Y007005D01*
X008625Y006956D01*
X008577Y007005D01*
X008528Y007005D01*
X008625Y006956D02*
X008625Y006908D01*
X008770Y007251D02*
X008722Y007299D01*
X005810Y007203D02*
X005520Y007203D01*
X005520Y007299D02*
X005520Y007106D01*
X005568Y007005D02*
X005520Y006956D01*
X005520Y006860D01*
X005568Y006811D01*
X005568Y006710D02*
X005762Y006710D01*
X005810Y006662D01*
X005810Y006517D01*
X005520Y006517D01*
X005520Y006662D01*
X005568Y006710D01*
X005762Y006811D02*
X005810Y006860D01*
X005810Y006956D01*
X005762Y007005D01*
X005714Y007005D01*
X005665Y006956D01*
X005617Y007005D01*
X005568Y007005D01*
X005665Y006956D02*
X005665Y006908D01*
X005714Y007106D02*
X005810Y007203D01*
X002850Y007251D02*
X002850Y007154D01*
X002802Y007106D01*
X002802Y007005D02*
X002754Y007005D01*
X002705Y006956D01*
X002657Y007005D01*
X002608Y007005D01*
X002560Y006956D01*
X002560Y006860D01*
X002608Y006811D01*
X002608Y006710D02*
X002802Y006710D01*
X002850Y006662D01*
X002850Y006517D01*
X002560Y006517D01*
X002560Y006662D01*
X002608Y006710D01*
X002802Y006811D02*
X002850Y006860D01*
X002850Y006956D01*
X002802Y007005D01*
X002705Y006956D02*
X002705Y006908D01*
X002560Y007106D02*
X002754Y007299D01*
X002802Y007299D01*
X002850Y007251D01*
X002560Y007299D02*
X002560Y007106D01*
M02*
