G75*
G70*
%OFA0B0*%
%FSLAX24Y24*%
%IPPOS*%
%LPD*%
%AMOC8*
5,1,8,0,0,1.08239X$1,22.5*
%
%ADD10C,0.0100*%
%ADD11C,0.0220*%
%ADD12C,0.0140*%
%ADD13C,0.0010*%
%ADD14C,0.0030*%
%ADD15C,0.0080*%
%ADD16C,0.0060*%
%ADD17R,0.1100X0.0148*%
%ADD18C,0.0050*%
%ADD19C,0.0020*%
%ADD20C,0.0040*%
%ADD21R,0.0300X0.0180*%
%ADD22C,0.0160*%
D10*
X000665Y005886D02*
X000765Y005886D01*
X000865Y005886D01*
X000665Y006086D01*
X000665Y005986D01*
X000665Y006086D01*
X000665Y006186D01*
X000965Y005886D01*
X000865Y005886D01*
X000765Y005886D02*
X000665Y005986D01*
X000665Y005886D01*
X000665Y006186D02*
X000665Y006986D01*
X000965Y006986D01*
X001465Y006986D02*
X001665Y006986D01*
X002165Y006986D02*
X002465Y006986D01*
X002465Y005886D01*
X002165Y005886D01*
X001665Y005886D02*
X001465Y005886D01*
X003625Y005886D02*
X003725Y005886D01*
X003825Y005886D01*
X003625Y006086D01*
X003625Y005986D01*
X003625Y006086D01*
X003625Y006186D01*
X003925Y005886D01*
X003825Y005886D01*
X003725Y005886D02*
X003625Y005986D01*
X003625Y005886D01*
X003625Y006186D02*
X003625Y006986D01*
X003925Y006986D01*
X004425Y006986D02*
X004625Y006986D01*
X005125Y006986D02*
X005425Y006986D01*
X005425Y005886D01*
X005125Y005886D01*
X004625Y005886D02*
X004425Y005886D01*
X006585Y005886D02*
X006685Y005886D01*
X006785Y005886D01*
X006585Y006086D01*
X006585Y005986D01*
X006585Y006086D01*
X006585Y006186D01*
X006885Y005886D01*
X006785Y005886D01*
X006685Y005886D02*
X006585Y005986D01*
X006585Y005886D01*
X006585Y006186D02*
X006585Y006986D01*
X006885Y006986D01*
X007385Y006986D02*
X007585Y006986D01*
X008085Y006986D02*
X008385Y006986D01*
X008385Y005886D01*
X008085Y005886D01*
X007585Y005886D02*
X007385Y005886D01*
X009545Y005886D02*
X009645Y005886D01*
X009745Y005886D01*
X009545Y006086D01*
X009545Y005986D01*
X009545Y006086D01*
X009545Y006186D01*
X009845Y005886D01*
X009745Y005886D01*
X009645Y005886D02*
X009545Y005986D01*
X009545Y005886D01*
X009545Y006186D02*
X009545Y006986D01*
X009845Y006986D01*
X010345Y006986D02*
X010545Y006986D01*
X011045Y006986D02*
X011345Y006986D01*
X011345Y005886D01*
X011045Y005886D01*
X010545Y005886D02*
X010345Y005886D01*
X012505Y005886D02*
X012605Y005886D01*
X012705Y005886D01*
X012505Y006086D01*
X012505Y005986D01*
X012505Y006086D01*
X012505Y006186D01*
X012805Y005886D01*
X012705Y005886D01*
X012605Y005886D02*
X012505Y005986D01*
X012505Y005886D01*
X012505Y006186D02*
X012505Y006986D01*
X012805Y006986D01*
X013305Y006986D02*
X013505Y006986D01*
X014005Y006986D02*
X014305Y006986D01*
X014305Y005886D01*
X014005Y005886D01*
X013505Y005886D02*
X013305Y005886D01*
X015465Y005886D02*
X015565Y005886D01*
X015665Y005886D01*
X015465Y006086D01*
X015465Y005986D01*
X015465Y006086D01*
X015465Y006186D01*
X015765Y005886D01*
X015665Y005886D01*
X015565Y005886D02*
X015465Y005986D01*
X015465Y005886D01*
X015465Y006186D02*
X015465Y006986D01*
X015765Y006986D01*
X016265Y006986D02*
X016465Y006986D01*
X016965Y006986D02*
X017265Y006986D01*
X017265Y005886D01*
X016965Y005886D01*
X016465Y005886D02*
X016265Y005886D01*
X018425Y005886D02*
X018525Y005886D01*
X018625Y005886D01*
X018425Y006086D01*
X018425Y005986D01*
X018425Y006086D01*
X018425Y006186D01*
X018725Y005886D01*
X018625Y005886D01*
X018525Y005886D02*
X018425Y005986D01*
X018425Y005886D01*
X018425Y006186D02*
X018425Y006986D01*
X018725Y006986D01*
X019225Y006986D02*
X019425Y006986D01*
X019925Y006986D02*
X020225Y006986D01*
X020225Y005886D01*
X019925Y005886D01*
X019425Y005886D02*
X019225Y005886D01*
X021385Y005886D02*
X021485Y005886D01*
X021585Y005886D01*
X021385Y006086D01*
X021385Y005986D01*
X021385Y006086D01*
X021385Y006186D01*
X021685Y005886D01*
X021585Y005886D01*
X021485Y005886D02*
X021385Y005986D01*
X021385Y005886D01*
X021385Y006186D02*
X021385Y006986D01*
X021685Y006986D01*
X022185Y006986D02*
X022385Y006986D01*
X022885Y006986D02*
X023185Y006986D01*
X023185Y005886D01*
X022885Y005886D01*
X022385Y005886D02*
X022185Y005886D01*
X024345Y005886D02*
X024445Y005886D01*
X024545Y005886D01*
X024345Y006086D01*
X024345Y005986D01*
X024345Y006086D01*
X024345Y006186D01*
X024645Y005886D01*
X024545Y005886D01*
X024445Y005886D02*
X024345Y005986D01*
X024345Y005886D01*
X024345Y006186D02*
X024345Y006986D01*
X024645Y006986D01*
X025145Y006986D02*
X025345Y006986D01*
X025845Y006986D02*
X026145Y006986D01*
X026145Y005886D01*
X025845Y005886D01*
X025345Y005886D02*
X025145Y005886D01*
X027305Y005886D02*
X027405Y005886D01*
X027505Y005886D01*
X027305Y006086D01*
X027305Y005986D01*
X027305Y006086D01*
X027305Y006186D01*
X027605Y005886D01*
X027505Y005886D01*
X027405Y005886D02*
X027305Y005986D01*
X027305Y005886D01*
X027305Y006186D02*
X027305Y006986D01*
X027605Y006986D01*
X028105Y006986D02*
X028305Y006986D01*
X028805Y006986D02*
X029105Y006986D01*
X029105Y005886D01*
X028805Y005886D01*
X028305Y005886D02*
X028105Y005886D01*
X030265Y005886D02*
X030365Y005886D01*
X030465Y005886D01*
X030265Y006086D01*
X030265Y005986D01*
X030265Y006086D01*
X030265Y006186D01*
X030565Y005886D01*
X030465Y005886D01*
X030365Y005886D02*
X030265Y005986D01*
X030265Y005886D01*
X030265Y006186D02*
X030265Y006986D01*
X030565Y006986D01*
X031065Y006986D02*
X031265Y006986D01*
X031765Y006986D02*
X032065Y006986D01*
X032065Y005886D01*
X031765Y005886D01*
X031265Y005886D02*
X031065Y005886D01*
X033225Y005886D02*
X033325Y005886D01*
X033425Y005886D01*
X033225Y006086D01*
X033225Y005986D01*
X033225Y006086D01*
X033225Y006186D01*
X033525Y005886D01*
X033425Y005886D01*
X033325Y005886D02*
X033225Y005986D01*
X033225Y005886D01*
X033225Y006186D02*
X033225Y006986D01*
X033525Y006986D01*
X034025Y006986D02*
X034225Y006986D01*
X034725Y006986D02*
X035025Y006986D01*
X035025Y005886D01*
X034725Y005886D01*
X034225Y005886D02*
X034025Y005886D01*
X036185Y005886D02*
X036285Y005886D01*
X036385Y005886D01*
X036185Y006086D01*
X036185Y005986D01*
X036185Y006086D01*
X036185Y006186D01*
X036485Y005886D01*
X036385Y005886D01*
X036285Y005886D02*
X036185Y005986D01*
X036185Y005886D01*
X036185Y006186D02*
X036185Y006986D01*
X036485Y006986D01*
X036985Y006986D02*
X037185Y006986D01*
X037685Y006986D02*
X037985Y006986D01*
X037985Y005886D01*
X037685Y005886D01*
X037185Y005886D02*
X036985Y005886D01*
X039145Y005886D02*
X039245Y005886D01*
X039345Y005886D01*
X039145Y006086D01*
X039145Y005986D01*
X039145Y006086D01*
X039145Y006186D01*
X039445Y005886D01*
X039345Y005886D01*
X039245Y005886D02*
X039145Y005986D01*
X039145Y005886D01*
X039145Y006186D02*
X039145Y006986D01*
X039445Y006986D01*
X039945Y006986D02*
X040145Y006986D01*
X040645Y006986D02*
X040945Y006986D01*
X040945Y005886D01*
X040645Y005886D01*
X040145Y005886D02*
X039945Y005886D01*
X042025Y005886D02*
X042125Y005886D01*
X042225Y005886D01*
X042025Y006086D01*
X042025Y005986D01*
X042025Y006086D01*
X042025Y006186D01*
X042325Y005886D01*
X042225Y005886D01*
X042125Y005886D02*
X042025Y005986D01*
X042025Y005886D01*
X042025Y006186D02*
X042025Y006986D01*
X042325Y006986D01*
X042825Y006986D02*
X043025Y006986D01*
X043525Y006986D02*
X043825Y006986D01*
X043825Y005886D01*
X043525Y005886D01*
X043025Y005886D02*
X042825Y005886D01*
X044905Y005886D02*
X045005Y005886D01*
X045105Y005886D01*
X044905Y006086D01*
X044905Y005986D01*
X044905Y006086D01*
X044905Y006186D01*
X045205Y005886D01*
X045105Y005886D01*
X045005Y005886D02*
X044905Y005986D01*
X044905Y005886D01*
X044905Y006186D02*
X044905Y006986D01*
X045205Y006986D01*
X045705Y006986D02*
X045905Y006986D01*
X046405Y006986D02*
X046705Y006986D01*
X046705Y005886D01*
X046405Y005886D01*
X045905Y005886D02*
X045705Y005886D01*
X047785Y005886D02*
X047885Y005886D01*
X047985Y005886D01*
X047785Y006086D01*
X047785Y005986D01*
X047785Y006086D01*
X047785Y006186D01*
X048085Y005886D01*
X047985Y005886D01*
X047885Y005886D02*
X047785Y005986D01*
X047785Y005886D01*
X047785Y006186D02*
X047785Y006986D01*
X048085Y006986D01*
X048585Y006986D02*
X048785Y006986D01*
X049285Y006986D02*
X049585Y006986D01*
X049585Y005886D01*
X049285Y005886D01*
X048785Y005886D02*
X048585Y005886D01*
X050665Y005886D02*
X050765Y005886D01*
X050865Y005886D01*
X050665Y006086D01*
X050665Y005986D01*
X050665Y006086D01*
X050665Y006186D01*
X050965Y005886D01*
X050865Y005886D01*
X050765Y005886D02*
X050665Y005986D01*
X050665Y005886D01*
X050665Y006186D02*
X050665Y006986D01*
X050965Y006986D01*
X051465Y006986D02*
X051665Y006986D01*
X052165Y006986D02*
X052465Y006986D01*
X052465Y005886D01*
X052165Y005886D01*
X051665Y005886D02*
X051465Y005886D01*
X053545Y005886D02*
X053645Y005886D01*
X053745Y005886D01*
X053545Y006086D01*
X053545Y005986D01*
X053545Y006086D01*
X053545Y006186D01*
X053845Y005886D01*
X053745Y005886D01*
X053645Y005886D02*
X053545Y005986D01*
X053545Y005886D01*
X053545Y006186D02*
X053545Y006986D01*
X053845Y006986D01*
X054345Y006986D02*
X054545Y006986D01*
X055045Y006986D02*
X055345Y006986D01*
X055345Y005886D01*
X055045Y005886D01*
X054545Y005886D02*
X054345Y005886D01*
X056505Y005886D02*
X056605Y005886D01*
X056705Y005886D01*
X056505Y006086D01*
X056505Y005986D01*
X056505Y006086D01*
X056505Y006186D01*
X056805Y005886D01*
X056705Y005886D01*
X056605Y005886D02*
X056505Y005986D01*
X056505Y005886D01*
X056505Y006186D02*
X056505Y006986D01*
X056805Y006986D01*
X057305Y006986D02*
X057505Y006986D01*
X058005Y006986D02*
X058305Y006986D01*
X058305Y005886D01*
X058005Y005886D01*
X057505Y005886D02*
X057305Y005886D01*
X059465Y005886D02*
X059565Y005886D01*
X059665Y005886D01*
X059465Y006086D01*
X059465Y005986D01*
X059465Y006086D01*
X059465Y006186D01*
X059765Y005886D01*
X059665Y005886D01*
X059565Y005886D02*
X059465Y005986D01*
X059465Y005886D01*
X059465Y006186D02*
X059465Y006986D01*
X059765Y006986D01*
X060265Y006986D02*
X060465Y006986D01*
X060965Y006986D02*
X061265Y006986D01*
X061265Y005886D01*
X060965Y005886D01*
X060465Y005886D02*
X060265Y005886D01*
X062425Y005886D02*
X062525Y005886D01*
X062625Y005886D01*
X062425Y006086D01*
X062425Y005986D01*
X062425Y006086D01*
X062425Y006186D01*
X062725Y005886D01*
X062625Y005886D01*
X062525Y005886D02*
X062425Y005986D01*
X062425Y005886D01*
X062425Y006186D02*
X062425Y006986D01*
X062725Y006986D01*
X063225Y006986D02*
X063425Y006986D01*
X063925Y006986D02*
X064225Y006986D01*
X064225Y005886D01*
X063925Y005886D01*
X063425Y005886D02*
X063225Y005886D01*
X065385Y005886D02*
X065485Y005886D01*
X065585Y005886D01*
X065385Y006086D01*
X065385Y005986D01*
X065385Y006086D01*
X065385Y006186D01*
X065685Y005886D01*
X065585Y005886D01*
X065485Y005886D02*
X065385Y005986D01*
X065385Y005886D01*
X065385Y006186D02*
X065385Y006986D01*
X065685Y006986D01*
X066185Y006986D02*
X066385Y006986D01*
X066885Y006986D02*
X067185Y006986D01*
X067185Y005886D01*
X066885Y005886D01*
X066385Y005886D02*
X066185Y005886D01*
X068345Y005886D02*
X068445Y005886D01*
X068545Y005886D01*
X068345Y006086D01*
X068345Y005986D01*
X068345Y006086D01*
X068345Y006186D01*
X068645Y005886D01*
X068545Y005886D01*
X068445Y005886D02*
X068345Y005986D01*
X068345Y005886D01*
X068345Y006186D02*
X068345Y006986D01*
X068645Y006986D01*
X069145Y006986D02*
X069345Y006986D01*
X069845Y006986D02*
X070145Y006986D01*
X070145Y005886D01*
X069845Y005886D01*
X069345Y005886D02*
X069145Y005886D01*
X071305Y005886D02*
X071405Y005886D01*
X071505Y005886D01*
X071305Y006086D01*
X071305Y005986D01*
X071305Y006086D01*
X071305Y006186D01*
X071605Y005886D01*
X071505Y005886D01*
X071405Y005886D02*
X071305Y005986D01*
X071305Y005886D01*
X071305Y006186D02*
X071305Y006986D01*
X071605Y006986D01*
X072105Y006986D02*
X072305Y006986D01*
X072805Y006986D02*
X073105Y006986D01*
X073105Y005886D01*
X072805Y005886D01*
X072305Y005886D02*
X072105Y005886D01*
X074265Y005886D02*
X074365Y005886D01*
X074465Y005886D01*
X074265Y006086D01*
X074265Y005986D01*
X074265Y006086D01*
X074265Y006186D01*
X074565Y005886D01*
X074465Y005886D01*
X074365Y005886D02*
X074265Y005986D01*
X074265Y005886D01*
X074265Y006186D02*
X074265Y006986D01*
X074565Y006986D01*
X075065Y006986D02*
X075265Y006986D01*
X075765Y006986D02*
X076065Y006986D01*
X076065Y005886D01*
X075765Y005886D01*
X075265Y005886D02*
X075065Y005886D01*
X077225Y005886D02*
X077325Y005886D01*
X077425Y005886D01*
X077225Y006086D01*
X077225Y005986D01*
X077225Y006086D01*
X077225Y006186D01*
X077525Y005886D01*
X077425Y005886D01*
X077325Y005886D02*
X077225Y005986D01*
X077225Y005886D01*
X077225Y006186D02*
X077225Y006986D01*
X077525Y006986D01*
X078025Y006986D02*
X078225Y006986D01*
X078725Y006986D02*
X079025Y006986D01*
X079025Y005886D01*
X078725Y005886D01*
X078225Y005886D02*
X078025Y005886D01*
X080185Y005886D02*
X080285Y005886D01*
X080385Y005886D01*
X080185Y006086D01*
X080185Y005986D01*
X080185Y006086D01*
X080185Y006186D01*
X080485Y005886D01*
X080385Y005886D01*
X080285Y005886D02*
X080185Y005986D01*
X080185Y005886D01*
X080185Y006186D02*
X080185Y006986D01*
X080485Y006986D01*
X080985Y006986D02*
X081185Y006986D01*
X081685Y006986D02*
X081985Y006986D01*
X081985Y005886D01*
X081685Y005886D01*
X081185Y005886D02*
X080985Y005886D01*
X083145Y005886D02*
X083245Y005886D01*
X083345Y005886D01*
X083145Y006086D01*
X083145Y005986D01*
X083145Y006086D01*
X083145Y006186D01*
X083445Y005886D01*
X083345Y005886D01*
X083245Y005886D02*
X083145Y005986D01*
X083145Y005886D01*
X083145Y006186D02*
X083145Y006986D01*
X083445Y006986D01*
X083945Y006986D02*
X084145Y006986D01*
X084645Y006986D02*
X084945Y006986D01*
X084945Y005886D01*
X084645Y005886D01*
X084145Y005886D02*
X083945Y005886D01*
X086105Y005886D02*
X086205Y005886D01*
X086305Y005886D01*
X086105Y006086D01*
X086105Y005986D01*
X086105Y006086D01*
X086105Y006186D01*
X086405Y005886D01*
X086305Y005886D01*
X086205Y005886D02*
X086105Y005986D01*
X086105Y005886D01*
X086105Y006186D02*
X086105Y006986D01*
X086405Y006986D01*
X086905Y006986D02*
X087105Y006986D01*
X087605Y006986D02*
X087905Y006986D01*
X087905Y005886D01*
X087605Y005886D01*
X087105Y005886D02*
X086905Y005886D01*
X089065Y005886D02*
X089165Y005886D01*
X089265Y005886D01*
X089065Y006086D01*
X089065Y005986D01*
X089065Y006086D01*
X089065Y006186D01*
X089365Y005886D01*
X089265Y005886D01*
X089165Y005886D02*
X089065Y005986D01*
X089065Y005886D01*
X089065Y006186D02*
X089065Y006986D01*
X089365Y006986D01*
X089865Y006986D02*
X090065Y006986D01*
X090565Y006986D02*
X090865Y006986D01*
X090865Y005886D01*
X090565Y005886D01*
X090065Y005886D02*
X089865Y005886D01*
X092025Y005886D02*
X092125Y005886D01*
X092225Y005886D01*
X092025Y006086D01*
X092025Y005986D01*
X092025Y006086D01*
X092025Y006186D01*
X092325Y005886D01*
X092225Y005886D01*
X092125Y005886D02*
X092025Y005986D01*
X092025Y005886D01*
X092025Y006186D02*
X092025Y006986D01*
X092325Y006986D01*
X092825Y006986D02*
X093025Y006986D01*
X093525Y006986D02*
X093825Y006986D01*
X093825Y005886D01*
X093525Y005886D01*
X093025Y005886D02*
X092825Y005886D01*
X081215Y012096D02*
X081215Y014446D01*
X083607Y013666D02*
X083609Y013686D01*
X083614Y013706D01*
X083624Y013724D01*
X083636Y013741D01*
X083651Y013755D01*
X083669Y013765D01*
X083688Y013773D01*
X083708Y013777D01*
X083728Y013777D01*
X083748Y013773D01*
X083767Y013765D01*
X083785Y013755D01*
X083800Y013741D01*
X083812Y013724D01*
X083822Y013706D01*
X083827Y013686D01*
X083829Y013666D01*
X083827Y013646D01*
X083822Y013626D01*
X083812Y013608D01*
X083800Y013591D01*
X083785Y013577D01*
X083767Y013567D01*
X083748Y013559D01*
X083728Y013555D01*
X083708Y013555D01*
X083688Y013559D01*
X083669Y013567D01*
X083651Y013577D01*
X083636Y013591D01*
X083624Y013608D01*
X083614Y013626D01*
X083609Y013646D01*
X083607Y013666D01*
X011767Y009151D02*
X011500Y009151D01*
X011634Y009151D02*
X011634Y009551D01*
X011500Y009418D01*
X011307Y009151D02*
X011040Y009151D01*
X011173Y009151D02*
X011173Y009551D01*
X011040Y009418D01*
X010846Y009484D02*
X010579Y009217D01*
X010646Y009151D01*
X010780Y009151D01*
X010846Y009217D01*
X010846Y009484D01*
X010780Y009551D01*
X010646Y009551D01*
X010579Y009484D01*
X010579Y009217D01*
X010386Y009151D02*
X010119Y009151D01*
X010386Y009418D01*
X010386Y009484D01*
X010319Y009551D01*
X010186Y009551D01*
X010119Y009484D01*
X009485Y009418D02*
X009485Y009284D01*
X009352Y009151D01*
X009158Y009217D02*
X009092Y009151D01*
X008958Y009151D01*
X008891Y009217D01*
X008891Y009484D01*
X008958Y009551D01*
X009092Y009551D01*
X009158Y009484D01*
X009352Y009551D02*
X009485Y009418D01*
X008718Y009551D02*
X008585Y009418D01*
X008585Y009284D01*
X008718Y009151D01*
X007961Y009151D02*
X007894Y009151D01*
X007894Y009217D01*
X007961Y009217D01*
X007961Y009151D01*
X007701Y009151D02*
X007701Y009551D01*
X007567Y009418D01*
X007434Y009551D01*
X007434Y009151D01*
X006780Y009217D02*
X006780Y009484D01*
X006713Y009551D01*
X006513Y009551D01*
X006513Y009151D01*
X006713Y009151D01*
X006780Y009217D01*
X006340Y009151D02*
X006206Y009151D01*
X006273Y009151D02*
X006273Y009551D01*
X006206Y009551D02*
X006340Y009551D01*
X006013Y009551D02*
X006013Y009284D01*
X005879Y009151D01*
X005746Y009284D01*
X005746Y009551D01*
X005552Y009418D02*
X005552Y009151D01*
X005552Y009351D02*
X005285Y009351D01*
X005285Y009418D02*
X005419Y009551D01*
X005552Y009418D01*
X005285Y009418D02*
X005285Y009151D01*
X005092Y009217D02*
X005092Y009484D01*
X005025Y009551D01*
X004825Y009551D01*
X004825Y009151D01*
X005025Y009151D01*
X005092Y009217D01*
D11*
X071955Y009196D02*
X072542Y009196D01*
X072542Y009343D02*
X072542Y008756D01*
X072968Y008756D02*
X072968Y009636D01*
X073555Y008756D01*
X073555Y009636D01*
X073981Y009636D02*
X074274Y009636D01*
X074127Y009636D02*
X074127Y008756D01*
X073981Y008756D02*
X074274Y008756D01*
X074656Y008756D02*
X075096Y008756D01*
X075243Y008902D01*
X075243Y009049D01*
X075096Y009196D01*
X074656Y009196D01*
X075096Y009196D02*
X075243Y009343D01*
X075243Y009490D01*
X075096Y009636D01*
X074656Y009636D01*
X074656Y008756D01*
X075669Y008756D02*
X075962Y008756D01*
X075816Y008756D02*
X075816Y009636D01*
X075962Y009636D02*
X075669Y009636D01*
X076344Y009636D02*
X076344Y008756D01*
X076344Y009049D02*
X076931Y009636D01*
X077357Y009636D02*
X077357Y008756D01*
X077944Y008756D01*
X076931Y008756D02*
X076491Y009196D01*
X077357Y009196D02*
X077650Y009196D01*
X077357Y009636D02*
X077944Y009636D01*
X072542Y009343D02*
X072249Y009636D01*
X071955Y009343D01*
X071955Y008756D01*
D12*
X073595Y010236D02*
X073969Y010609D01*
X073969Y010703D01*
X073875Y010796D01*
X073688Y010796D01*
X073595Y010703D01*
X074240Y010796D02*
X074240Y010422D01*
X074426Y010236D01*
X074613Y010422D01*
X074613Y010796D01*
X074884Y010703D02*
X074884Y010609D01*
X074977Y010516D01*
X075164Y010516D01*
X075258Y010422D01*
X075258Y010329D01*
X075164Y010236D01*
X074977Y010236D01*
X074884Y010329D01*
X074884Y010422D01*
X074977Y010516D01*
X075164Y010516D02*
X075258Y010609D01*
X075258Y010703D01*
X075164Y010796D01*
X074977Y010796D01*
X074884Y010703D01*
X076173Y010796D02*
X076453Y010796D01*
X076547Y010703D01*
X076547Y010609D01*
X076453Y010516D01*
X076173Y010516D01*
X076173Y010236D02*
X076173Y010796D01*
X076453Y010516D02*
X076547Y010422D01*
X076547Y010329D01*
X076453Y010236D01*
X076173Y010236D01*
X077004Y010236D02*
X077004Y010796D01*
X076818Y010796D02*
X077191Y010796D01*
X073969Y010236D02*
X073595Y010236D01*
D13*
X082750Y013916D02*
X082750Y013991D01*
X082775Y014016D01*
X082825Y014016D01*
X082850Y013991D01*
X082850Y013916D01*
X082900Y013916D02*
X082750Y013916D01*
X082850Y013966D02*
X082900Y014016D01*
X082875Y014063D02*
X082900Y014088D01*
X082900Y014138D01*
X082875Y014163D01*
X082825Y014163D01*
X082800Y014138D01*
X082800Y014113D01*
X082825Y014063D01*
X082750Y014063D01*
X082750Y014163D01*
X080320Y015891D02*
X080170Y015891D01*
X080170Y015966D01*
X080195Y015991D01*
X080245Y015991D01*
X080270Y015966D01*
X080270Y015891D01*
X080270Y015941D02*
X080320Y015991D01*
X080320Y016038D02*
X080170Y016138D01*
X080170Y016185D02*
X080170Y016260D01*
X080195Y016285D01*
X080295Y016285D01*
X080320Y016260D01*
X080320Y016185D01*
X080170Y016185D01*
X080170Y016038D02*
X080320Y016138D01*
X080170Y016971D02*
X080170Y017071D01*
X080170Y017118D02*
X080320Y017218D01*
X080320Y017265D02*
X080320Y017340D01*
X080295Y017365D01*
X080195Y017365D01*
X080170Y017340D01*
X080170Y017265D01*
X080320Y017265D01*
X080320Y017118D02*
X080170Y017218D01*
X080170Y017021D02*
X080320Y017021D01*
X088090Y016641D02*
X088090Y016541D01*
X088140Y016491D01*
X088190Y016541D01*
X088190Y016641D01*
X088237Y016616D02*
X088237Y016516D01*
X088262Y016491D01*
X088312Y016491D01*
X088337Y016516D01*
X088385Y016516D02*
X088410Y016491D01*
X088460Y016491D01*
X088485Y016516D01*
X088485Y016616D02*
X088460Y016641D01*
X088410Y016641D01*
X088385Y016616D01*
X088385Y016516D01*
X088337Y016616D02*
X088312Y016641D01*
X088262Y016641D01*
X088237Y016616D01*
X089128Y017476D02*
X089153Y017451D01*
X089203Y017451D01*
X089228Y017476D01*
X089228Y017526D01*
X089178Y017526D01*
X089128Y017576D02*
X089128Y017476D01*
X089128Y017576D02*
X089153Y017601D01*
X089203Y017601D01*
X089228Y017576D01*
X089275Y017601D02*
X089375Y017451D01*
X089375Y017601D01*
X089423Y017601D02*
X089498Y017601D01*
X089523Y017576D01*
X089523Y017476D01*
X089498Y017451D01*
X089423Y017451D01*
X089423Y017601D01*
X089275Y017601D02*
X089275Y017451D01*
X092370Y015540D02*
X092370Y015465D01*
X092520Y015465D01*
X092520Y015540D01*
X092495Y015565D01*
X092395Y015565D01*
X092370Y015540D01*
X092370Y015418D02*
X092520Y015418D01*
X092370Y015318D01*
X092520Y015318D01*
X092495Y015271D02*
X092445Y015271D01*
X092445Y015221D01*
X092495Y015271D02*
X092520Y015246D01*
X092520Y015196D01*
X092495Y015171D01*
X092395Y015171D01*
X092370Y015196D01*
X092370Y015246D01*
X092395Y015271D01*
X092395Y014565D02*
X092370Y014540D01*
X092370Y014490D01*
X092395Y014465D01*
X092495Y014465D01*
X092520Y014490D01*
X092520Y014540D01*
X092495Y014565D01*
X092495Y014418D02*
X092520Y014393D01*
X092520Y014343D01*
X092495Y014318D01*
X092395Y014318D01*
X092370Y014343D01*
X092370Y014393D01*
X092395Y014418D01*
X092370Y014271D02*
X092470Y014271D01*
X092520Y014221D01*
X092470Y014171D01*
X092370Y014171D01*
D14*
X000260Y005946D02*
X000260Y005801D01*
X000550Y005801D01*
X000550Y005946D01*
X000502Y005994D01*
X000308Y005994D01*
X000260Y005946D01*
X000308Y006095D02*
X000260Y006144D01*
X000260Y006240D01*
X000308Y006289D01*
X000357Y006289D01*
X000405Y006240D01*
X000453Y006289D01*
X000502Y006289D01*
X000550Y006240D01*
X000550Y006144D01*
X000502Y006095D01*
X000405Y006192D02*
X000405Y006240D01*
X000308Y006390D02*
X000260Y006438D01*
X000260Y006535D01*
X000308Y006583D01*
X000357Y006583D01*
X000550Y006390D01*
X000550Y006583D01*
X003220Y006487D02*
X003510Y006487D01*
X003510Y006583D02*
X003510Y006390D01*
X003462Y006289D02*
X003510Y006240D01*
X003510Y006144D01*
X003462Y006095D01*
X003462Y005994D02*
X003268Y005994D01*
X003220Y005946D01*
X003220Y005801D01*
X003510Y005801D01*
X003510Y005946D01*
X003462Y005994D01*
X003268Y006095D02*
X003220Y006144D01*
X003220Y006240D01*
X003268Y006289D01*
X003317Y006289D01*
X003365Y006240D01*
X003413Y006289D01*
X003462Y006289D01*
X003365Y006240D02*
X003365Y006192D01*
X003317Y006390D02*
X003220Y006487D01*
X006180Y006438D02*
X006180Y006535D01*
X006228Y006583D01*
X006422Y006390D01*
X006470Y006438D01*
X006470Y006535D01*
X006422Y006583D01*
X006228Y006583D01*
X006180Y006438D02*
X006228Y006390D01*
X006422Y006390D01*
X006422Y006289D02*
X006373Y006289D01*
X006325Y006240D01*
X006325Y006192D01*
X006325Y006240D02*
X006277Y006289D01*
X006228Y006289D01*
X006180Y006240D01*
X006180Y006144D01*
X006228Y006095D01*
X006228Y005994D02*
X006180Y005946D01*
X006180Y005801D01*
X006470Y005801D01*
X006470Y005946D01*
X006422Y005994D01*
X006228Y005994D01*
X006422Y006095D02*
X006470Y006144D01*
X006470Y006240D01*
X006422Y006289D01*
X009140Y006240D02*
X009140Y006144D01*
X009188Y006095D01*
X009188Y005994D02*
X009140Y005946D01*
X009140Y005801D01*
X009430Y005801D01*
X009430Y005946D01*
X009382Y005994D01*
X009188Y005994D01*
X009140Y006240D02*
X009188Y006289D01*
X009237Y006289D01*
X009430Y006095D01*
X009430Y006289D01*
X009382Y006390D02*
X009430Y006438D01*
X009430Y006535D01*
X009382Y006583D01*
X009188Y006583D01*
X009140Y006535D01*
X009140Y006438D01*
X009188Y006390D01*
X009237Y006390D01*
X009285Y006438D01*
X009285Y006583D01*
X012100Y006535D02*
X012100Y006438D01*
X012148Y006390D01*
X012197Y006390D01*
X012245Y006438D01*
X012245Y006535D01*
X012293Y006583D01*
X012342Y006583D01*
X012390Y006535D01*
X012390Y006438D01*
X012342Y006390D01*
X012293Y006390D01*
X012245Y006438D01*
X012245Y006535D02*
X012197Y006583D01*
X012148Y006583D01*
X012100Y006535D01*
X012148Y006289D02*
X012100Y006240D01*
X012100Y006144D01*
X012148Y006095D01*
X012148Y005994D02*
X012100Y005946D01*
X012100Y005801D01*
X012390Y005801D01*
X012390Y005946D01*
X012342Y005994D01*
X012148Y005994D01*
X012390Y006095D02*
X012197Y006289D01*
X012148Y006289D01*
X012390Y006289D02*
X012390Y006095D01*
X015060Y006144D02*
X015108Y006095D01*
X015060Y006144D02*
X015060Y006240D01*
X015108Y006289D01*
X015157Y006289D01*
X015350Y006095D01*
X015350Y006289D01*
X015350Y006390D02*
X015302Y006390D01*
X015108Y006583D01*
X015060Y006583D01*
X015060Y006390D01*
X015108Y005994D02*
X015060Y005946D01*
X015060Y005801D01*
X015350Y005801D01*
X015350Y005946D01*
X015302Y005994D01*
X015108Y005994D01*
X018020Y005946D02*
X018020Y005801D01*
X018310Y005801D01*
X018310Y005946D01*
X018262Y005994D01*
X018068Y005994D01*
X018020Y005946D01*
X018068Y006095D02*
X018020Y006144D01*
X018020Y006240D01*
X018068Y006289D01*
X018117Y006289D01*
X018310Y006095D01*
X018310Y006289D01*
X018262Y006390D02*
X018165Y006390D01*
X018165Y006535D01*
X018213Y006583D01*
X018262Y006583D01*
X018310Y006535D01*
X018310Y006438D01*
X018262Y006390D01*
X018165Y006390D02*
X018068Y006487D01*
X018020Y006583D01*
X020980Y006583D02*
X020980Y006390D01*
X021125Y006390D01*
X021077Y006487D01*
X021077Y006535D01*
X021125Y006583D01*
X021222Y006583D01*
X021270Y006535D01*
X021270Y006438D01*
X021222Y006390D01*
X021270Y006289D02*
X021270Y006095D01*
X021077Y006289D01*
X021028Y006289D01*
X020980Y006240D01*
X020980Y006144D01*
X021028Y006095D01*
X021028Y005994D02*
X020980Y005946D01*
X020980Y005801D01*
X021270Y005801D01*
X021270Y005946D01*
X021222Y005994D01*
X021028Y005994D01*
X023940Y005946D02*
X023940Y005801D01*
X024230Y005801D01*
X024230Y005946D01*
X024182Y005994D01*
X023988Y005994D01*
X023940Y005946D01*
X023988Y006095D02*
X023940Y006144D01*
X023940Y006240D01*
X023988Y006289D01*
X024037Y006289D01*
X024230Y006095D01*
X024230Y006289D01*
X024085Y006390D02*
X024085Y006583D01*
X024230Y006535D02*
X023940Y006535D01*
X024085Y006390D01*
X026900Y006438D02*
X026900Y006535D01*
X026948Y006583D01*
X026997Y006583D01*
X027045Y006535D01*
X027093Y006583D01*
X027142Y006583D01*
X027190Y006535D01*
X027190Y006438D01*
X027142Y006390D01*
X027190Y006289D02*
X027190Y006095D01*
X026997Y006289D01*
X026948Y006289D01*
X026900Y006240D01*
X026900Y006144D01*
X026948Y006095D01*
X026948Y005994D02*
X026900Y005946D01*
X026900Y005801D01*
X027190Y005801D01*
X027190Y005946D01*
X027142Y005994D01*
X026948Y005994D01*
X026948Y006390D02*
X026900Y006438D01*
X027045Y006487D02*
X027045Y006535D01*
X029860Y006535D02*
X029860Y006438D01*
X029908Y006390D01*
X029908Y006289D02*
X029860Y006240D01*
X029860Y006144D01*
X029908Y006095D01*
X029908Y005994D02*
X029860Y005946D01*
X029860Y005801D01*
X030150Y005801D01*
X030150Y005946D01*
X030102Y005994D01*
X029908Y005994D01*
X030150Y006095D02*
X029957Y006289D01*
X029908Y006289D01*
X030150Y006289D02*
X030150Y006095D01*
X030150Y006390D02*
X029957Y006583D01*
X029908Y006583D01*
X029860Y006535D01*
X030150Y006583D02*
X030150Y006390D01*
X032820Y006487D02*
X033110Y006487D01*
X033110Y006583D02*
X033110Y006390D01*
X033110Y006289D02*
X033110Y006095D01*
X032917Y006289D01*
X032868Y006289D01*
X032820Y006240D01*
X032820Y006144D01*
X032868Y006095D01*
X032868Y005994D02*
X032820Y005946D01*
X032820Y005801D01*
X033110Y005801D01*
X033110Y005946D01*
X033062Y005994D01*
X032868Y005994D01*
X032917Y006390D02*
X032820Y006487D01*
X035780Y006438D02*
X035780Y006535D01*
X035828Y006583D01*
X036022Y006390D01*
X036070Y006438D01*
X036070Y006535D01*
X036022Y006583D01*
X035828Y006583D01*
X035780Y006438D02*
X035828Y006390D01*
X036022Y006390D01*
X036070Y006289D02*
X036070Y006095D01*
X035877Y006289D01*
X035828Y006289D01*
X035780Y006240D01*
X035780Y006144D01*
X035828Y006095D01*
X035828Y005994D02*
X035780Y005946D01*
X035780Y005801D01*
X036070Y005801D01*
X036070Y005946D01*
X036022Y005994D01*
X035828Y005994D01*
X038740Y005946D02*
X038740Y005801D01*
X039030Y005801D01*
X039030Y005946D01*
X038982Y005994D01*
X038788Y005994D01*
X038740Y005946D01*
X038837Y006095D02*
X038740Y006192D01*
X039030Y006192D01*
X039030Y006095D02*
X039030Y006289D01*
X038982Y006390D02*
X039030Y006438D01*
X039030Y006535D01*
X038982Y006583D01*
X038788Y006583D01*
X038740Y006535D01*
X038740Y006438D01*
X038788Y006390D01*
X038837Y006390D01*
X038885Y006438D01*
X038885Y006583D01*
X041620Y006535D02*
X041620Y006438D01*
X041668Y006390D01*
X041717Y006390D01*
X041765Y006438D01*
X041765Y006535D01*
X041813Y006583D01*
X041862Y006583D01*
X041910Y006535D01*
X041910Y006438D01*
X041862Y006390D01*
X041813Y006390D01*
X041765Y006438D01*
X041765Y006535D02*
X041717Y006583D01*
X041668Y006583D01*
X041620Y006535D01*
X041620Y006192D02*
X041910Y006192D01*
X041910Y006095D02*
X041910Y006289D01*
X041717Y006095D02*
X041620Y006192D01*
X041668Y005994D02*
X041620Y005946D01*
X041620Y005801D01*
X041910Y005801D01*
X041910Y005946D01*
X041862Y005994D01*
X041668Y005994D01*
X044500Y005946D02*
X044500Y005801D01*
X044790Y005801D01*
X044790Y005946D01*
X044742Y005994D01*
X044548Y005994D01*
X044500Y005946D01*
X044597Y006095D02*
X044500Y006192D01*
X044790Y006192D01*
X044790Y006095D02*
X044790Y006289D01*
X044790Y006390D02*
X044742Y006390D01*
X044548Y006583D01*
X044500Y006583D01*
X044500Y006390D01*
X047380Y006583D02*
X047428Y006487D01*
X047525Y006390D01*
X047525Y006535D01*
X047573Y006583D01*
X047622Y006583D01*
X047670Y006535D01*
X047670Y006438D01*
X047622Y006390D01*
X047525Y006390D01*
X047670Y006289D02*
X047670Y006095D01*
X047670Y006192D02*
X047380Y006192D01*
X047477Y006095D01*
X047428Y005994D02*
X047380Y005946D01*
X047380Y005801D01*
X047670Y005801D01*
X047670Y005946D01*
X047622Y005994D01*
X047428Y005994D01*
X050260Y005946D02*
X050260Y005801D01*
X050550Y005801D01*
X050550Y005946D01*
X050502Y005994D01*
X050308Y005994D01*
X050260Y005946D01*
X050357Y006095D02*
X050260Y006192D01*
X050550Y006192D01*
X050550Y006095D02*
X050550Y006289D01*
X050502Y006390D02*
X050550Y006438D01*
X050550Y006535D01*
X050502Y006583D01*
X050405Y006583D01*
X050357Y006535D01*
X050357Y006487D01*
X050405Y006390D01*
X050260Y006390D01*
X050260Y006583D01*
X053140Y006535D02*
X053285Y006390D01*
X053285Y006583D01*
X053430Y006535D02*
X053140Y006535D01*
X053140Y006192D02*
X053430Y006192D01*
X053430Y006095D02*
X053430Y006289D01*
X053237Y006095D02*
X053140Y006192D01*
X053188Y005994D02*
X053140Y005946D01*
X053140Y005801D01*
X053430Y005801D01*
X053430Y005946D01*
X053382Y005994D01*
X053188Y005994D01*
X056100Y005946D02*
X056100Y005801D01*
X056390Y005801D01*
X056390Y005946D01*
X056342Y005994D01*
X056148Y005994D01*
X056100Y005946D01*
X056197Y006095D02*
X056100Y006192D01*
X056390Y006192D01*
X056390Y006095D02*
X056390Y006289D01*
X056342Y006390D02*
X056390Y006438D01*
X056390Y006535D01*
X056342Y006583D01*
X056293Y006583D01*
X056245Y006535D01*
X056245Y006487D01*
X056245Y006535D02*
X056197Y006583D01*
X056148Y006583D01*
X056100Y006535D01*
X056100Y006438D01*
X056148Y006390D01*
X059060Y006438D02*
X059108Y006390D01*
X059060Y006438D02*
X059060Y006535D01*
X059108Y006583D01*
X059157Y006583D01*
X059350Y006390D01*
X059350Y006583D01*
X059350Y006289D02*
X059350Y006095D01*
X059350Y006192D02*
X059060Y006192D01*
X059157Y006095D01*
X059108Y005994D02*
X059060Y005946D01*
X059060Y005801D01*
X059350Y005801D01*
X059350Y005946D01*
X059302Y005994D01*
X059108Y005994D01*
X062020Y005946D02*
X062020Y005801D01*
X062310Y005801D01*
X062310Y005946D01*
X062262Y005994D01*
X062068Y005994D01*
X062020Y005946D01*
X062117Y006095D02*
X062020Y006192D01*
X062310Y006192D01*
X062310Y006095D02*
X062310Y006289D01*
X062310Y006390D02*
X062310Y006583D01*
X062310Y006487D02*
X062020Y006487D01*
X062117Y006390D01*
X064980Y006438D02*
X064980Y006535D01*
X065028Y006583D01*
X065222Y006390D01*
X065270Y006438D01*
X065270Y006535D01*
X065222Y006583D01*
X065028Y006583D01*
X064980Y006438D02*
X065028Y006390D01*
X065222Y006390D01*
X065270Y006289D02*
X065270Y006095D01*
X065270Y006192D02*
X064980Y006192D01*
X065077Y006095D01*
X065028Y005994D02*
X064980Y005946D01*
X064980Y005801D01*
X065270Y005801D01*
X065270Y005946D01*
X065222Y005994D01*
X065028Y005994D01*
X067940Y005946D02*
X067940Y005801D01*
X068230Y005801D01*
X068230Y005946D01*
X068182Y005994D01*
X067988Y005994D01*
X067940Y005946D01*
X067988Y006095D02*
X068037Y006095D01*
X068085Y006144D01*
X068085Y006289D01*
X068182Y006289D02*
X067988Y006289D01*
X067940Y006240D01*
X067940Y006144D01*
X067988Y006095D01*
X068182Y006095D02*
X068230Y006144D01*
X068230Y006240D01*
X068182Y006289D01*
X070900Y006240D02*
X070948Y006289D01*
X070997Y006289D01*
X071045Y006240D01*
X071045Y006144D01*
X070997Y006095D01*
X070948Y006095D01*
X070900Y006144D01*
X070900Y006240D01*
X071045Y006240D02*
X071093Y006289D01*
X071142Y006289D01*
X071190Y006240D01*
X071190Y006144D01*
X071142Y006095D01*
X071093Y006095D01*
X071045Y006144D01*
X071142Y005994D02*
X070948Y005994D01*
X070900Y005946D01*
X070900Y005801D01*
X071190Y005801D01*
X071190Y005946D01*
X071142Y005994D01*
X073860Y005946D02*
X073860Y005801D01*
X074150Y005801D01*
X074150Y005946D01*
X074102Y005994D01*
X073908Y005994D01*
X073860Y005946D01*
X073860Y006095D02*
X073860Y006289D01*
X073908Y006289D01*
X074102Y006095D01*
X074150Y006095D01*
X076820Y005946D02*
X076820Y005801D01*
X077110Y005801D01*
X077110Y005946D01*
X077062Y005994D01*
X076868Y005994D01*
X076820Y005946D01*
X076965Y006095D02*
X076965Y006240D01*
X077013Y006289D01*
X077062Y006289D01*
X077110Y006240D01*
X077110Y006144D01*
X077062Y006095D01*
X076965Y006095D01*
X076868Y006192D01*
X076820Y006289D01*
X079780Y006289D02*
X079780Y006095D01*
X079925Y006095D01*
X079877Y006192D01*
X079877Y006240D01*
X079925Y006289D01*
X080022Y006289D01*
X080070Y006240D01*
X080070Y006144D01*
X080022Y006095D01*
X080022Y005994D02*
X079828Y005994D01*
X079780Y005946D01*
X079780Y005801D01*
X080070Y005801D01*
X080070Y005946D01*
X080022Y005994D01*
X082740Y005946D02*
X082740Y005801D01*
X083030Y005801D01*
X083030Y005946D01*
X082982Y005994D01*
X082788Y005994D01*
X082740Y005946D01*
X082885Y006095D02*
X082885Y006289D01*
X083030Y006240D02*
X082740Y006240D01*
X082885Y006095D01*
X085700Y006144D02*
X085700Y006240D01*
X085748Y006289D01*
X085797Y006289D01*
X085845Y006240D01*
X085893Y006289D01*
X085942Y006289D01*
X085990Y006240D01*
X085990Y006144D01*
X085942Y006095D01*
X085942Y005994D02*
X085748Y005994D01*
X085700Y005946D01*
X085700Y005801D01*
X085990Y005801D01*
X085990Y005946D01*
X085942Y005994D01*
X085748Y006095D02*
X085700Y006144D01*
X085845Y006192D02*
X085845Y006240D01*
X088660Y006240D02*
X088660Y006144D01*
X088708Y006095D01*
X088708Y005994D02*
X088660Y005946D01*
X088660Y005801D01*
X088950Y005801D01*
X088950Y005946D01*
X088902Y005994D01*
X088708Y005994D01*
X088660Y006240D02*
X088708Y006289D01*
X088757Y006289D01*
X088950Y006095D01*
X088950Y006289D01*
X091620Y006192D02*
X091910Y006192D01*
X091910Y006095D02*
X091910Y006289D01*
X091717Y006095D02*
X091620Y006192D01*
X091668Y005994D02*
X091620Y005946D01*
X091620Y005801D01*
X091910Y005801D01*
X091910Y005946D01*
X091862Y005994D01*
X091668Y005994D01*
X079970Y014622D02*
X079970Y014666D01*
X079948Y014687D01*
X079948Y014748D02*
X079970Y014770D01*
X079970Y014813D01*
X079948Y014835D01*
X079927Y014835D01*
X079905Y014813D01*
X079905Y014748D01*
X079948Y014748D01*
X079905Y014748D02*
X079862Y014791D01*
X079840Y014835D01*
X079862Y014687D02*
X079840Y014666D01*
X079840Y014622D01*
X079862Y014601D01*
X079948Y014601D01*
X079970Y014622D01*
X085691Y016715D02*
X085953Y016453D01*
X085910Y016409D02*
X085997Y016496D01*
X086040Y016626D02*
X086127Y016626D01*
X086214Y016714D01*
X086214Y016801D01*
X086344Y016843D02*
X086344Y017192D01*
X086300Y017236D01*
X086213Y017236D01*
X086125Y017149D01*
X086125Y017061D01*
X086040Y016975D02*
X085952Y016976D01*
X085865Y016888D01*
X085865Y016801D01*
X086040Y016626D01*
X085735Y016758D02*
X085648Y016671D01*
X086344Y016843D02*
X086518Y017018D01*
X084343Y016816D02*
X084343Y016785D01*
X084328Y016770D01*
X084297Y016770D01*
X084297Y016739D01*
X084281Y016724D01*
X084251Y016724D01*
X084220Y016755D01*
X084220Y016785D01*
X084177Y016828D02*
X084147Y016828D01*
X084116Y016859D01*
X084116Y016889D01*
X084177Y016951D01*
X084208Y016951D01*
X084239Y016920D01*
X084239Y016889D01*
X084282Y016847D02*
X084312Y016847D01*
X084343Y016816D01*
X084297Y016770D02*
X084281Y016785D01*
D15*
X084094Y016789D02*
X084589Y016294D01*
X083556Y015262D01*
X083061Y015757D01*
X084094Y016789D01*
X082895Y016196D02*
X082895Y014896D01*
X081795Y014896D02*
X081795Y016196D01*
X081425Y016376D02*
X081425Y015876D01*
X081175Y015626D01*
X080675Y015626D01*
X080425Y015876D01*
X080425Y016376D01*
X080675Y016626D01*
X080425Y016876D01*
X080425Y017376D01*
X080675Y017626D01*
X081175Y017626D01*
X081425Y017376D01*
X081425Y016876D01*
X081175Y016626D01*
X081425Y016376D01*
X083384Y013777D02*
X085834Y016227D01*
X086056Y016227D01*
X088506Y013777D01*
X088506Y013554D01*
X086056Y011104D01*
X085834Y011104D01*
X083384Y013554D01*
X083384Y013777D01*
X081610Y014387D02*
X081610Y014466D01*
X079641Y014466D01*
X079641Y014387D01*
X080035Y014656D02*
X080035Y015356D01*
X081495Y015356D01*
X081495Y014656D01*
X080035Y014656D01*
X078715Y015216D02*
X078715Y013916D01*
X077615Y013916D02*
X077615Y015216D01*
X079641Y012143D02*
X079641Y012065D01*
X081610Y012065D01*
X081610Y012143D01*
D16*
X079155Y014455D02*
X079112Y014412D01*
X078938Y014412D01*
X078895Y014455D01*
X078895Y014542D01*
X078938Y014585D01*
X078982Y014706D02*
X078895Y014793D01*
X079155Y014793D01*
X079155Y014706D02*
X079155Y014880D01*
X079155Y015001D02*
X078982Y015174D01*
X078938Y015174D01*
X078895Y015131D01*
X078895Y015044D01*
X078938Y015001D01*
X079155Y015001D02*
X079155Y015174D01*
X079112Y014585D02*
X079155Y014542D01*
X079155Y014455D01*
X083075Y015435D02*
X083118Y015392D01*
X083292Y015392D01*
X083335Y015435D01*
X083335Y015522D01*
X083292Y015565D01*
X083335Y015686D02*
X083335Y015860D01*
X083335Y015773D02*
X083075Y015773D01*
X083162Y015686D01*
X083118Y015565D02*
X083075Y015522D01*
X083075Y015435D01*
X083162Y015981D02*
X083075Y016068D01*
X083335Y016068D01*
X083335Y016154D02*
X083335Y015981D01*
D17*
X082345Y015432D03*
X078165Y014452D03*
D18*
X080774Y012396D02*
X080776Y012419D01*
X080782Y012442D01*
X080791Y012463D01*
X080804Y012483D01*
X080820Y012500D01*
X080838Y012514D01*
X080858Y012525D01*
X080880Y012533D01*
X080903Y012537D01*
X080927Y012537D01*
X080950Y012533D01*
X080972Y012525D01*
X080992Y012514D01*
X081010Y012500D01*
X081026Y012483D01*
X081039Y012463D01*
X081048Y012442D01*
X081054Y012419D01*
X081056Y012396D01*
X081054Y012373D01*
X081048Y012350D01*
X081039Y012329D01*
X081026Y012309D01*
X081010Y012292D01*
X080992Y012278D01*
X080972Y012267D01*
X080950Y012259D01*
X080927Y012255D01*
X080903Y012255D01*
X080880Y012259D01*
X080858Y012267D01*
X080838Y012278D01*
X080820Y012292D01*
X080804Y012309D01*
X080791Y012329D01*
X080782Y012350D01*
X080776Y012373D01*
X080774Y012396D01*
X080070Y010966D02*
X080072Y010995D01*
X080078Y011023D01*
X080087Y011050D01*
X080100Y011076D01*
X080116Y011099D01*
X080136Y011121D01*
X080157Y011139D01*
X080182Y011155D01*
X080208Y011167D01*
X080235Y011175D01*
X080263Y011180D01*
X080292Y011181D01*
X080321Y011178D01*
X080349Y011171D01*
X080376Y011161D01*
X080401Y011147D01*
X080424Y011130D01*
X080444Y011110D01*
X080462Y011088D01*
X080477Y011063D01*
X080488Y011037D01*
X080496Y011009D01*
X080500Y010980D01*
X080500Y010952D01*
X080496Y010923D01*
X080488Y010895D01*
X080477Y010869D01*
X080462Y010844D01*
X080444Y010822D01*
X080424Y010802D01*
X080401Y010785D01*
X080376Y010771D01*
X080349Y010761D01*
X080321Y010754D01*
X080292Y010751D01*
X080263Y010752D01*
X080235Y010757D01*
X080208Y010765D01*
X080182Y010777D01*
X080157Y010793D01*
X080136Y010811D01*
X080116Y010833D01*
X080100Y010856D01*
X080087Y010882D01*
X080078Y010909D01*
X080072Y010937D01*
X080070Y010966D01*
X081256Y010803D02*
X081256Y010488D01*
X081334Y010488D01*
X081413Y010567D01*
X081492Y010567D01*
X081571Y010488D01*
X081649Y010488D01*
X081728Y010567D01*
X081807Y010567D01*
X081886Y010488D01*
X081964Y010488D01*
X082043Y010567D01*
X082122Y010567D01*
X082201Y010488D01*
X082279Y010488D01*
X082358Y010567D01*
X082437Y010567D01*
X082516Y010488D01*
X082594Y010488D01*
X082594Y010803D01*
X082516Y010803D01*
X082437Y010724D01*
X082358Y010724D01*
X082279Y010803D01*
X082201Y010803D01*
X082122Y010724D01*
X082043Y010724D01*
X081964Y010803D01*
X081886Y010803D01*
X081807Y010724D01*
X081728Y010724D01*
X081649Y010803D01*
X081571Y010803D01*
X081492Y010724D01*
X081413Y010724D01*
X081334Y010803D01*
X081256Y010803D01*
X083196Y010603D02*
X083196Y010288D01*
X083274Y010288D01*
X083353Y010367D01*
X083432Y010367D01*
X083511Y010288D01*
X083589Y010288D01*
X083668Y010367D01*
X083747Y010367D01*
X083826Y010288D01*
X083904Y010288D01*
X083983Y010367D01*
X084062Y010367D01*
X084141Y010288D01*
X084219Y010288D01*
X084298Y010367D01*
X084377Y010367D01*
X084456Y010288D01*
X084534Y010288D01*
X084534Y010603D01*
X084456Y010603D01*
X084377Y010524D01*
X084298Y010524D01*
X084219Y010603D01*
X084141Y010603D01*
X084062Y010524D01*
X083983Y010524D01*
X083904Y010603D01*
X083826Y010603D01*
X083747Y010524D01*
X083668Y010524D01*
X083589Y010603D01*
X083511Y010603D01*
X083432Y010524D01*
X083353Y010524D01*
X083274Y010603D01*
X083196Y010603D01*
X086376Y009923D02*
X086454Y009923D01*
X086533Y009844D01*
X086612Y009844D01*
X086691Y009923D01*
X086769Y009923D01*
X086848Y009844D01*
X086927Y009844D01*
X087006Y009923D01*
X087084Y009923D01*
X087163Y009844D01*
X087242Y009844D01*
X087321Y009923D01*
X087399Y009923D01*
X087478Y009844D01*
X087557Y009844D01*
X087636Y009923D01*
X087714Y009923D01*
X087714Y009608D01*
X087636Y009608D01*
X087557Y009687D01*
X087478Y009687D01*
X087399Y009608D01*
X087321Y009608D01*
X087242Y009687D01*
X087163Y009687D01*
X087084Y009608D01*
X087006Y009608D01*
X086927Y009687D01*
X086848Y009687D01*
X086769Y009608D01*
X086691Y009608D01*
X086612Y009687D01*
X086533Y009687D01*
X086454Y009608D01*
X086376Y009608D01*
X086376Y009923D01*
X088786Y009763D02*
X088786Y009448D01*
X088864Y009448D01*
X088943Y009527D01*
X089022Y009527D01*
X089101Y009448D01*
X089179Y009448D01*
X089258Y009527D01*
X089337Y009527D01*
X089416Y009448D01*
X089494Y009448D01*
X089573Y009527D01*
X089652Y009527D01*
X089731Y009448D01*
X089809Y009448D01*
X089888Y009527D01*
X089967Y009527D01*
X090046Y009448D01*
X090124Y009448D01*
X090124Y009763D01*
X090046Y009763D01*
X089967Y009684D01*
X089888Y009684D01*
X089809Y009763D01*
X089731Y009763D01*
X089652Y009684D01*
X089573Y009684D01*
X089494Y009763D01*
X089416Y009763D01*
X089337Y009684D01*
X089258Y009684D01*
X089179Y009763D01*
X089101Y009763D01*
X089022Y009684D01*
X088943Y009684D01*
X088864Y009763D01*
X088786Y009763D01*
X092136Y010768D02*
X092214Y010768D01*
X092293Y010847D01*
X092372Y010847D01*
X092451Y010768D01*
X092529Y010768D01*
X092608Y010847D01*
X092687Y010847D01*
X092766Y010768D01*
X092844Y010768D01*
X092923Y010847D01*
X093002Y010847D01*
X093081Y010768D01*
X093159Y010768D01*
X093238Y010847D01*
X093317Y010847D01*
X093396Y010768D01*
X093474Y010768D01*
X093474Y011083D01*
X093396Y011083D01*
X093317Y011004D01*
X093238Y011004D01*
X093159Y011083D01*
X093081Y011083D01*
X093002Y011004D01*
X092923Y011004D01*
X092844Y011083D01*
X092766Y011083D01*
X092687Y011004D01*
X092608Y011004D01*
X092529Y011083D01*
X092451Y011083D01*
X092372Y011004D01*
X092293Y011004D01*
X092214Y011083D01*
X092136Y011083D01*
X092136Y010768D01*
X092085Y011866D02*
X092085Y012366D01*
X092585Y012366D01*
X092585Y015366D01*
X092085Y015366D01*
X092085Y015866D01*
X093785Y015866D01*
X093785Y011866D01*
X092085Y011866D01*
X092085Y012366D02*
X092085Y015366D01*
X091625Y016176D02*
X089025Y016176D01*
X089025Y016476D01*
X091625Y016476D01*
X091625Y016176D01*
X092825Y016176D01*
X092825Y017676D01*
X087825Y017676D01*
X087825Y016176D01*
X089025Y016176D01*
X082120Y016375D02*
X082045Y016300D01*
X082120Y016375D02*
X082120Y016450D01*
X082045Y016525D01*
X081670Y016525D01*
X081670Y016450D02*
X081670Y016600D01*
X081670Y016760D02*
X081670Y016985D01*
X081745Y017060D01*
X081895Y017060D01*
X081970Y016985D01*
X081970Y016760D01*
X082120Y016760D02*
X081670Y016760D01*
X081820Y017220D02*
X081670Y017370D01*
X082120Y017370D01*
X082120Y017220D02*
X082120Y017520D01*
X088916Y012123D02*
X088994Y012123D01*
X089073Y012044D01*
X089152Y012044D01*
X089231Y012123D01*
X089309Y012123D01*
X089388Y012044D01*
X089467Y012044D01*
X089546Y012123D01*
X089624Y012123D01*
X089703Y012044D01*
X089782Y012044D01*
X089861Y012123D01*
X089939Y012123D01*
X090018Y012044D01*
X090097Y012044D01*
X090176Y012123D01*
X090254Y012123D01*
X090254Y011808D01*
X090176Y011808D01*
X090097Y011887D01*
X090018Y011887D01*
X089939Y011808D01*
X089861Y011808D01*
X089782Y011887D01*
X089703Y011887D01*
X089624Y011808D01*
X089546Y011808D01*
X089467Y011887D01*
X089388Y011887D01*
X089309Y011808D01*
X089231Y011808D01*
X089152Y011887D01*
X089073Y011887D01*
X088994Y011808D01*
X088916Y011808D01*
X088916Y012123D01*
X078119Y010967D02*
X078121Y010996D01*
X078127Y011024D01*
X078136Y011051D01*
X078149Y011077D01*
X078165Y011100D01*
X078185Y011122D01*
X078206Y011140D01*
X078231Y011156D01*
X078257Y011168D01*
X078284Y011176D01*
X078312Y011181D01*
X078341Y011182D01*
X078370Y011179D01*
X078398Y011172D01*
X078425Y011162D01*
X078450Y011148D01*
X078473Y011131D01*
X078493Y011111D01*
X078511Y011089D01*
X078526Y011064D01*
X078537Y011038D01*
X078545Y011010D01*
X078549Y010981D01*
X078549Y010953D01*
X078545Y010924D01*
X078537Y010896D01*
X078526Y010870D01*
X078511Y010845D01*
X078493Y010823D01*
X078473Y010803D01*
X078450Y010786D01*
X078425Y010772D01*
X078398Y010762D01*
X078370Y010755D01*
X078341Y010752D01*
X078312Y010753D01*
X078284Y010758D01*
X078257Y010766D01*
X078231Y010778D01*
X078206Y010794D01*
X078185Y010812D01*
X078165Y010834D01*
X078149Y010857D01*
X078136Y010883D01*
X078127Y010910D01*
X078121Y010938D01*
X078119Y010967D01*
X079061Y009292D02*
X079063Y009321D01*
X079069Y009349D01*
X079078Y009376D01*
X079091Y009402D01*
X079107Y009425D01*
X079127Y009447D01*
X079148Y009465D01*
X079173Y009481D01*
X079199Y009493D01*
X079226Y009501D01*
X079254Y009506D01*
X079283Y009507D01*
X079312Y009504D01*
X079340Y009497D01*
X079367Y009487D01*
X079392Y009473D01*
X079415Y009456D01*
X079435Y009436D01*
X079453Y009414D01*
X079468Y009389D01*
X079479Y009363D01*
X079487Y009335D01*
X079491Y009306D01*
X079491Y009278D01*
X079487Y009249D01*
X079479Y009221D01*
X079468Y009195D01*
X079453Y009170D01*
X079435Y009148D01*
X079415Y009128D01*
X079392Y009111D01*
X079367Y009097D01*
X079340Y009087D01*
X079312Y009080D01*
X079283Y009077D01*
X079254Y009078D01*
X079226Y009083D01*
X079199Y009091D01*
X079173Y009103D01*
X079148Y009119D01*
X079127Y009137D01*
X079107Y009159D01*
X079091Y009182D01*
X079078Y009208D01*
X079069Y009235D01*
X079063Y009263D01*
X079061Y009292D01*
D19*
X081863Y009863D02*
X081863Y010083D01*
X081973Y010083D01*
X082009Y010047D01*
X082009Y009973D01*
X081973Y009937D01*
X081863Y009937D01*
X081936Y009937D02*
X082009Y009863D01*
X082084Y009863D02*
X082084Y010083D01*
X082230Y009863D01*
X082230Y010083D01*
X082305Y009973D02*
X082451Y009973D01*
X082415Y009863D02*
X082415Y010083D01*
X082305Y009973D01*
X086464Y010328D02*
X086464Y010548D01*
X086575Y010548D01*
X086611Y010512D01*
X086611Y010438D01*
X086575Y010401D01*
X086464Y010401D01*
X086538Y010401D02*
X086611Y010328D01*
X086685Y010328D02*
X086685Y010548D01*
X086832Y010328D01*
X086832Y010548D01*
X086906Y010438D02*
X086980Y010512D01*
X087053Y010548D01*
X087017Y010438D02*
X086906Y010438D01*
X086906Y010365D01*
X086943Y010328D01*
X087017Y010328D01*
X087053Y010365D01*
X087053Y010401D01*
X087017Y010438D01*
X088874Y010388D02*
X088874Y010168D01*
X088874Y010241D02*
X088985Y010241D01*
X089021Y010278D01*
X089021Y010352D01*
X088985Y010388D01*
X088874Y010388D01*
X088948Y010241D02*
X089021Y010168D01*
X089095Y010168D02*
X089095Y010388D01*
X089242Y010168D01*
X089242Y010388D01*
X089316Y010388D02*
X089316Y010278D01*
X089390Y010315D01*
X089427Y010315D01*
X089463Y010278D01*
X089463Y010205D01*
X089427Y010168D01*
X089353Y010168D01*
X089316Y010205D01*
X089316Y010388D02*
X089463Y010388D01*
X092224Y011488D02*
X092224Y011708D01*
X092335Y011708D01*
X092371Y011672D01*
X092371Y011598D01*
X092335Y011561D01*
X092224Y011561D01*
X092298Y011561D02*
X092371Y011488D01*
X092445Y011488D02*
X092445Y011708D01*
X092592Y011488D01*
X092592Y011708D01*
X092666Y011672D02*
X092703Y011708D01*
X092777Y011708D01*
X092813Y011672D01*
X092813Y011635D01*
X092666Y011488D01*
X092813Y011488D01*
X089593Y012528D02*
X089446Y012528D01*
X089372Y012528D02*
X089372Y012748D01*
X089446Y012675D02*
X089520Y012748D01*
X089520Y012528D01*
X089372Y012528D02*
X089225Y012748D01*
X089225Y012528D01*
X089151Y012528D02*
X089078Y012601D01*
X089115Y012601D02*
X089004Y012601D01*
X089004Y012528D02*
X089004Y012748D01*
X089115Y012748D01*
X089151Y012712D01*
X089151Y012638D01*
X089115Y012601D01*
X083873Y011192D02*
X083837Y011228D01*
X083763Y011228D01*
X083726Y011192D01*
X083652Y011228D02*
X083652Y011008D01*
X083505Y011228D01*
X083505Y011008D01*
X083431Y011008D02*
X083358Y011081D01*
X083395Y011081D02*
X083284Y011081D01*
X083284Y011008D02*
X083284Y011228D01*
X083395Y011228D01*
X083431Y011192D01*
X083431Y011118D01*
X083395Y011081D01*
X083726Y011045D02*
X083763Y011008D01*
X083837Y011008D01*
X083873Y011045D01*
X083873Y011081D01*
X083837Y011118D01*
X083800Y011118D01*
X083837Y011118D02*
X083873Y011155D01*
X083873Y011192D01*
X081201Y011802D02*
X081164Y011766D01*
X081091Y011766D01*
X081054Y011802D01*
X081054Y011876D02*
X081127Y011912D01*
X081164Y011912D01*
X081201Y011876D01*
X081201Y011802D01*
X081054Y011876D02*
X081054Y011986D01*
X081201Y011986D01*
X080980Y011949D02*
X080943Y011986D01*
X080870Y011986D01*
X080833Y011949D01*
X080833Y011802D01*
X080870Y011766D01*
X080943Y011766D01*
X080980Y011802D01*
X080759Y011766D02*
X080686Y011766D01*
X080722Y011766D02*
X080722Y011986D01*
X080686Y011986D02*
X080759Y011986D01*
D20*
X093105Y011579D02*
X093258Y011425D01*
X093105Y011272D02*
X093565Y010965D01*
X093565Y011272D02*
X093105Y010965D01*
X093565Y011425D02*
X093565Y011732D01*
X093565Y011579D02*
X093105Y011579D01*
X093152Y017096D02*
X092845Y017556D01*
X093152Y017556D02*
X092845Y017096D01*
X093305Y017096D02*
X093612Y017403D01*
X093612Y017479D01*
X093536Y017556D01*
X093382Y017556D01*
X093305Y017479D01*
X093305Y017096D02*
X093612Y017096D01*
D21*
X082445Y013856D03*
D22*
X079725Y011406D02*
X078925Y011406D01*
X078995Y010702D02*
X079012Y010751D01*
X079026Y010802D01*
X079035Y010854D01*
X079041Y010906D01*
X079043Y010959D01*
X079041Y011011D01*
X079035Y011064D01*
X079025Y011115D01*
X079011Y011166D01*
X078994Y011216D01*
X078973Y011264D01*
X078948Y011311D01*
X078920Y011355D01*
X078889Y011397D01*
X078855Y011437D01*
X078817Y011474D01*
X078778Y011509D01*
X078735Y011540D01*
X078691Y011568D01*
X078644Y011592D01*
X078596Y011613D01*
X078546Y011631D01*
X078495Y011644D01*
X078444Y011654D01*
X078391Y011660D01*
X078339Y011662D01*
X078286Y011660D01*
X078234Y011654D01*
X078182Y011644D01*
X078131Y011631D01*
X078082Y011613D01*
X078034Y011592D01*
X077987Y011568D01*
X077942Y011540D01*
X077900Y011508D01*
X077860Y011474D01*
X077823Y011437D01*
X077789Y011397D01*
X077757Y011355D01*
X077729Y011310D01*
X077705Y011264D01*
X077684Y011215D01*
X077666Y011166D01*
X077653Y011115D01*
X077643Y011063D01*
X077637Y011011D01*
X077635Y010958D01*
X077637Y010906D01*
X077643Y010854D01*
X077653Y010802D01*
X077666Y010751D01*
X077683Y010701D01*
X077704Y010653D01*
X077729Y010607D01*
X077757Y010562D01*
X077788Y010520D01*
X077822Y010480D01*
X077860Y010442D01*
X077899Y010408D01*
X077942Y010377D01*
X077986Y010349D01*
X078033Y010324D01*
X078081Y010303D01*
X078131Y010286D01*
X078181Y010272D01*
X078233Y010262D01*
X078613Y009603D01*
X079175Y009997D02*
X079475Y010495D01*
X079725Y010526D02*
X079125Y010526D01*
X078995Y010702D02*
X079255Y010203D01*
X079937Y009557D02*
X080317Y010215D01*
X079725Y010526D02*
X079760Y010486D01*
X079797Y010449D01*
X079837Y010415D01*
X079879Y010384D01*
X079924Y010356D01*
X079970Y010331D01*
X080019Y010310D01*
X080068Y010293D01*
X080119Y010279D01*
X080171Y010270D01*
X080223Y010264D01*
X080276Y010262D01*
X080328Y010264D01*
X080381Y010270D01*
X080432Y010280D01*
X080483Y010293D01*
X080533Y010311D01*
X080581Y010332D01*
X080627Y010357D01*
X080672Y010385D01*
X080714Y010416D01*
X080754Y010450D01*
X080791Y010487D01*
X080826Y010527D01*
X080857Y010570D01*
X080885Y010614D01*
X080909Y010661D01*
X080930Y010709D01*
X080948Y010759D01*
X080961Y010809D01*
X080971Y010861D01*
X080977Y010913D01*
X080979Y010966D01*
X080977Y011019D01*
X080971Y011071D01*
X080961Y011123D01*
X080948Y011173D01*
X080930Y011223D01*
X080909Y011271D01*
X080885Y011318D01*
X080857Y011362D01*
X080826Y011405D01*
X080791Y011445D01*
X080754Y011482D01*
X080714Y011516D01*
X080672Y011547D01*
X080627Y011575D01*
X080581Y011600D01*
X080533Y011621D01*
X080483Y011639D01*
X080432Y011652D01*
X080381Y011662D01*
X080328Y011668D01*
X080276Y011670D01*
X080223Y011668D01*
X080171Y011662D01*
X080119Y011653D01*
X080068Y011639D01*
X080019Y011622D01*
X079970Y011601D01*
X079924Y011576D01*
X079879Y011548D01*
X079837Y011517D01*
X079797Y011483D01*
X079760Y011446D01*
X079725Y011406D01*
X079175Y009997D02*
X079123Y009987D01*
X079073Y009973D01*
X079023Y009956D01*
X078975Y009935D01*
X078928Y009910D01*
X078884Y009882D01*
X078841Y009851D01*
X078802Y009817D01*
X078764Y009779D01*
X078730Y009739D01*
X078699Y009697D01*
X078671Y009652D01*
X078646Y009606D01*
X078625Y009558D01*
X078608Y009508D01*
X078595Y009457D01*
X078585Y009405D01*
X078579Y009353D01*
X078577Y009301D01*
X078579Y009248D01*
X078585Y009196D01*
X078595Y009144D01*
X078608Y009093D01*
X078626Y009044D01*
X078647Y008995D01*
X078671Y008949D01*
X078699Y008904D01*
X078731Y008862D01*
X078765Y008822D01*
X078802Y008785D01*
X078842Y008751D01*
X078884Y008719D01*
X078929Y008691D01*
X078976Y008667D01*
X079024Y008646D01*
X079073Y008628D01*
X079124Y008615D01*
X079176Y008605D01*
X079228Y008599D01*
X079281Y008597D01*
X079333Y008599D01*
X079386Y008605D01*
X079437Y008615D01*
X079488Y008628D01*
X079538Y008646D01*
X079586Y008667D01*
X079633Y008691D01*
X079677Y008719D01*
X079720Y008750D01*
X079759Y008785D01*
X079797Y008822D01*
X079831Y008862D01*
X079862Y008904D01*
X079890Y008948D01*
X079915Y008995D01*
X079936Y009043D01*
X079953Y009093D01*
X079967Y009144D01*
X079977Y009195D01*
X079983Y009248D01*
X079985Y009300D01*
X079983Y009353D01*
X079977Y009405D01*
X079968Y009457D01*
X079954Y009508D01*
X079937Y009557D01*
M02*
