%
M48
M72
T01C0.0160
T02C0.0200
T03C0.0236
T04C0.0315
T05C0.0400
T06C0.2500
%
T01
X10725Y3766
X12245Y3926
X13045Y4086
X13765Y4246
X14885Y4006
X15925Y4406
X16645Y3926
X17205Y3766
X18405Y4566
X18965Y4726
X19685Y4886
X23445Y5206
X24325Y5766
X26325Y5686
X27125Y5686
X26565Y6086
X23845Y6646
X26805Y7046
X29685Y6966
X32325Y6966
X35125Y7206
X35845Y7206
X35445Y6566
X38325Y6566
X38965Y5846
X38165Y5766
X36085Y5766
X35285Y5206
X33045Y5846
X32005Y5686
X29925Y5766
X29285Y5686
X30805Y4726
X30085Y4566
X31605Y4886
X29125Y3766
X28485Y3926
X27765Y4406
X25605Y4246
X24965Y4086
X21925Y3286
X21285Y3446
X20805Y3606
X26565Y2966
X32885Y3606
X33605Y3446
X34405Y3126
X36565Y4086
X37685Y4246
X38645Y3926
X40565Y3766
X39685Y4406
X41845Y4566
X42565Y4726
X43285Y4886
X46965Y5206
X47525Y6006
X49845Y5686
X50565Y5766
X52645Y5686
X53285Y5766
X55525Y5926
X56005Y6486
X55925Y6886
X52965Y6566
X50245Y7046
X47445Y6646
X44405Y6086
X43845Y5686
X41765Y5846
X41125Y5686
X41125Y6566
X44325Y6886
X41525Y7846
X38565Y7606
X38565Y8566
X41525Y8566
X44085Y8726
X44325Y8246
X47165Y8606
X50085Y8646
X52725Y8806
X52885Y8086
X50245Y7846
X55685Y8726
X55925Y8246
X58725Y8646
X56245Y9286
X53365Y9446
X50085Y9606
X47165Y9886
X44725Y9366
X42005Y9446
X38565Y9606
X35365Y8646
X33125Y9286
X32405Y8886
X32645Y8246
X29685Y8566
X29685Y7766
X26805Y7766
X26725Y8646
X23685Y8646
X21205Y9286
X20485Y8886
X20805Y8326
X17845Y8566
X14805Y8646
X17605Y9446
X18165Y10246
X14805Y9606
X8965Y8646
X6005Y8406
X3125Y7926
X3125Y6966
X6085Y6566
X8965Y6806
X11685Y6086
X12325Y5766
X14485Y6006
X15205Y6086
X17525Y5766
X18165Y5846
X20165Y5686
X21125Y5766
X20805Y6246
X20805Y6806
X17845Y6646
X15045Y6966
X15205Y7686
X17845Y7606
X11925Y6886
X6405Y5766
X5445Y5286
X9525Y4006
X29845Y9446
X26725Y9606
X49765Y4246
X48405Y4086
X47845Y3926
X45685Y3286
X45125Y3446
X44405Y3606
X49445Y2806
X53045Y3606
X55205Y3446
X56565Y3286
X57125Y3126
X56005Y2886
X60725Y3446
X61365Y3926
X59925Y4086
X60725Y4246
X62965Y4406
X63685Y4566
X65925Y4726
X66645Y4886
X70485Y5366
X71125Y5766
X73365Y5766
X74165Y5686
X76165Y5766
X76885Y5686
X78965Y5686
X79845Y6006
X79365Y6326
X77005Y6326
X76645Y6806
X73965Y6366
X73685Y6686
X71045Y6526
X70485Y6966
X67685Y6526
X67325Y6766
X65045Y6406
X64325Y6726
X62165Y6406
X62245Y5766
X61445Y5766
X59125Y6086
X58725Y5446
X56165Y5206
X54085Y4726
X52085Y4566
X51125Y4406
X50405Y3926
X64325Y5766
X67205Y5686
X68085Y5846
X65045Y7286
X64405Y8006
X64805Y8566
X67605Y8646
X67765Y9286
X70445Y9046
X71085Y8886
X73685Y8886
X74645Y9326
X75125Y9326
X76245Y9246
X76725Y9246
X77205Y9246
X79405Y8646
X80005Y8966
X82125Y9166
X83485Y9646
X85005Y9686
X86215Y9676
X86165Y10246
X86885Y10546
X87185Y10886
X85885Y10846
X84715Y10806
X84125Y11206
X83285Y11566
X83605Y11886
X82405Y11446
X81805Y11446
X83005Y11206
X80005Y11966
X79605Y11806
X78285Y12006
X78605Y12286
X77965Y11686
X80525Y12726
X80885Y13086
X80085Y13366
X80165Y13806
X81005Y13806
X82925Y13406
X84085Y13606
X84605Y13646
X85045Y13806
X86005Y13886
X87165Y13446
X87965Y13366
X89885Y13446
X90285Y13766
X90765Y12886
X90445Y12426
X91405Y12146
X88845Y12006
X88445Y11846
X86565Y11846
X86165Y12446
X86685Y12726
X87085Y12606
X85965Y13126
X85565Y13006
X85245Y12526
X83325Y12246
X82725Y12246
X82685Y12646
X83005Y13806
X85045Y14486
X86805Y14526
X87205Y14526
X89325Y14286
X91245Y14726
X91685Y14606
X90885Y15126
X90325Y15286
X88605Y15846
X86085Y15606
X85645Y15486
X90885Y16366
X86205Y16766
X85685Y16726
X79685Y15206
X78885Y14446
X92005Y11646
X91765Y10486
X92165Y10126
X92565Y9926
X92965Y9686
X93405Y10126
X90715Y9406
X90285Y9166
X88385Y8826
X87965Y8746
X86325Y8926
X85805Y9006
X85365Y9166
X85805Y8526
X85045Y8366
X82445Y8086
X82485Y7246
X85045Y6486
X85525Y6486
X85525Y6046
X85965Y5646
X84965Y5766
X83085Y6086
X82565Y5686
X82165Y5206
X78805Y4886
X77845Y4726
X75525Y4566
X74805Y4406
X73205Y3766
X71925Y4086
X71365Y3926
X72565Y4246
X76405Y3606
X76805Y3366
X80165Y3286
X80805Y3046
X82965Y4086
X83685Y4086
X84325Y4086
X85045Y4246
X85925Y4406
X86645Y4406
X87285Y4406
X87685Y4166
X87925Y4566
X88645Y4726
X89245Y4246
X90005Y3846
X90725Y3486
X86845Y3246
X92005Y4366
X93045Y4246
X92405Y4686
X91725Y5046
X90725Y4886
X91245Y5526
X91845Y5926
X91085Y6166
X94005Y6646
X91805Y6806
X91405Y7006
X91405Y7886
X91805Y8006
X91485Y8326
X89925Y8606
X88485Y8166
X87965Y6966
X88085Y5686
X88645Y5766
X79685Y8246
X76645Y7926
X73685Y7606
X70645Y8326
X73645Y8406
X72085Y9686
X72765Y10326
X74365Y10486
X74845Y10446
X75645Y10326
X78885Y10566
X79285Y10366
X79605Y10646
X81005Y10326
X68445Y10006
X67525Y10486
X66965Y10726
X66325Y10966
X61765Y9606
X64805Y9446
X61765Y8566
X61765Y7606
X67765Y8166
X64805Y3526
X65365Y3126
X67925Y3286
X68485Y2966
T02
X86165Y14686
X85285Y15126
X84805Y16886
X82405Y17526
T03
X93445Y11766
T04
X85045Y12966
X84045Y8086
X81085Y8086
X78125Y8086
X75165Y8086
X72205Y8086
X69245Y8086
X66285Y8086
X63325Y8086
X60365Y8086
X57405Y8086
X54445Y8086
X51565Y8086
X48685Y8086
X45805Y8086
X42925Y8086
X40045Y8086
X37085Y8086
X34125Y8086
X31165Y8086
X28205Y8086
X25245Y8086
X22285Y8086
X19325Y8086
X16365Y8086
X13405Y8086
X10445Y8086
X7485Y8086
X4525Y8086
X1565Y8086
X87005Y8086
X89965Y8086
X92925Y8086
T05
X93035Y12366
X93135Y13366
X93035Y14366
X93135Y15366
X91325Y17026
X90325Y17126
X89325Y17026
X88325Y17126
X92325Y17126
X80925Y17196
X80925Y16056
T06
X2545Y2706
X2925Y9846
X95045Y5406
X95185Y14766
M30
