G75*
G70*
%OFA0B0*%
%FSLAX24Y24*%
%IPPOS*%
%LPD*%
%AMOC8*
5,1,8,0,0,1.08239X$1,22.5*
%
%ADD10R,0.0472X0.0551*%
%ADD11C,0.0370*%
%ADD12C,0.0560*%
%ADD13R,0.0740X0.0740*%
%ADD14C,0.0740*%
%ADD15C,0.0475*%
%ADD16C,0.0160*%
%ADD17C,0.0320*%
%ADD18C,0.0320*%
%ADD19C,0.0080*%
%ADD20C,0.0330*%
%ADD21C,0.0100*%
%ADD22C,0.0500*%
D10*
X001451Y004317D03*
X002140Y004317D03*
X004351Y004317D03*
X005040Y004317D03*
X007251Y004317D03*
X007940Y004317D03*
X010151Y004317D03*
X010840Y004317D03*
X013051Y004317D03*
X013740Y004317D03*
X015951Y004317D03*
X016640Y004317D03*
X018851Y004317D03*
X019540Y004317D03*
X021751Y004317D03*
X022440Y004317D03*
X024651Y004317D03*
X025340Y004317D03*
X027551Y004317D03*
X028240Y004317D03*
X030451Y004317D03*
X031140Y004317D03*
X033351Y004317D03*
X034040Y004317D03*
X036251Y004317D03*
X036940Y004317D03*
X039151Y004317D03*
X039840Y004317D03*
X042051Y004317D03*
X042740Y004317D03*
X044851Y004317D03*
X045540Y004317D03*
X047751Y004317D03*
X048440Y004317D03*
X050651Y004317D03*
X051340Y004317D03*
X053651Y004317D03*
X054340Y004317D03*
X056551Y004317D03*
X057240Y004317D03*
X059451Y004317D03*
X060140Y004317D03*
X062351Y004317D03*
X063040Y004317D03*
X065251Y004317D03*
X065940Y004317D03*
X068151Y004317D03*
X068840Y004317D03*
X071051Y004327D03*
X071740Y004327D03*
X073951Y004317D03*
X074640Y004317D03*
X076851Y004317D03*
X077540Y004317D03*
X079751Y004317D03*
X080440Y004317D03*
X082651Y004317D03*
X083340Y004317D03*
X085551Y004317D03*
X086240Y004317D03*
X088451Y004317D03*
X089140Y004317D03*
X091351Y004317D03*
X092040Y004317D03*
X092040Y005576D03*
X091351Y005576D03*
X089140Y005576D03*
X088451Y005576D03*
X086240Y005576D03*
X085551Y005576D03*
X083340Y005576D03*
X082651Y005576D03*
X080440Y005576D03*
X079751Y005576D03*
X077540Y005576D03*
X076851Y005576D03*
X074640Y005576D03*
X073951Y005576D03*
X071740Y005586D03*
X071051Y005586D03*
X068840Y005576D03*
X068151Y005576D03*
X065940Y005576D03*
X065251Y005576D03*
X063040Y005576D03*
X062351Y005576D03*
X060140Y005576D03*
X059451Y005576D03*
X057240Y005576D03*
X056551Y005576D03*
X054340Y005576D03*
X053651Y005576D03*
X051340Y005576D03*
X050651Y005576D03*
X048440Y005576D03*
X047751Y005576D03*
X045540Y005576D03*
X044851Y005576D03*
X042740Y005576D03*
X042051Y005576D03*
X039840Y005576D03*
X039151Y005576D03*
X036940Y005576D03*
X036251Y005576D03*
X034040Y005576D03*
X033351Y005576D03*
X031140Y005576D03*
X030451Y005576D03*
X028240Y005576D03*
X027551Y005576D03*
X025340Y005576D03*
X024651Y005576D03*
X022440Y005576D03*
X021751Y005576D03*
X019540Y005576D03*
X018851Y005576D03*
X016640Y005576D03*
X015951Y005576D03*
X013740Y005576D03*
X013051Y005576D03*
X010840Y005576D03*
X010151Y005576D03*
X007940Y005576D03*
X007251Y005576D03*
X005040Y005576D03*
X004351Y005576D03*
X002140Y005576D03*
X001451Y005576D03*
D11*
X002199Y005006D03*
X001052Y004807D03*
X000919Y004285D03*
X003819Y004285D03*
X003952Y004807D03*
X005099Y005006D03*
X006852Y004807D03*
X006719Y004285D03*
X007999Y005006D03*
X009752Y004807D03*
X009619Y004285D03*
X010899Y005006D03*
X012652Y004807D03*
X012519Y004285D03*
X013799Y005006D03*
X015552Y004807D03*
X016699Y005006D03*
X018452Y004807D03*
X019599Y005006D03*
X021352Y004807D03*
X022499Y005006D03*
X024252Y004807D03*
X025399Y005006D03*
X027152Y004807D03*
X028299Y005006D03*
X030052Y004807D03*
X031199Y005006D03*
X032952Y004807D03*
X034099Y005006D03*
X035852Y004807D03*
X036999Y005006D03*
X038752Y004807D03*
X039899Y005006D03*
X041652Y004807D03*
X042799Y005006D03*
X044452Y004807D03*
X045599Y005006D03*
X047352Y004807D03*
X048499Y005006D03*
X050252Y004807D03*
X051399Y005006D03*
X053252Y004807D03*
X054399Y005006D03*
X056152Y004807D03*
X057299Y005006D03*
X059052Y004807D03*
X060199Y005006D03*
X061952Y004807D03*
X063099Y005006D03*
X064852Y004807D03*
X064719Y004285D03*
X065999Y005006D03*
X067752Y004807D03*
X067619Y004285D03*
X068899Y005006D03*
X070652Y004817D03*
X070519Y004295D03*
X071799Y005016D03*
X073552Y004807D03*
X074699Y005006D03*
X076452Y004807D03*
X077599Y005006D03*
X079352Y004807D03*
X080499Y005006D03*
X082252Y004807D03*
X083399Y005006D03*
X085152Y004807D03*
X086299Y005006D03*
X088052Y004807D03*
X089199Y005006D03*
X090952Y004807D03*
X092099Y005006D03*
X090819Y004285D03*
X087919Y004285D03*
X085019Y004285D03*
X082119Y004285D03*
X079219Y004285D03*
X076319Y004285D03*
X073419Y004285D03*
X061819Y004285D03*
X058919Y004285D03*
X056019Y004285D03*
X053119Y004285D03*
X050119Y004285D03*
X047219Y004285D03*
X044319Y004285D03*
X041519Y004285D03*
X038619Y004285D03*
X035719Y004285D03*
X032819Y004285D03*
X029919Y004285D03*
X027019Y004285D03*
X024119Y004285D03*
X021219Y004285D03*
X018319Y004285D03*
X015419Y004285D03*
D12*
X016305Y006206D03*
X013405Y006206D03*
X010505Y006206D03*
X007605Y006206D03*
X004705Y006206D03*
X001805Y006206D03*
X019205Y006206D03*
X022105Y006206D03*
X025005Y006206D03*
X027905Y006206D03*
X030805Y006206D03*
X033705Y006206D03*
X036605Y006206D03*
X039505Y006206D03*
X042405Y006206D03*
X045205Y006206D03*
X048105Y006206D03*
X051005Y006206D03*
X054005Y006206D03*
X056905Y006206D03*
X059805Y006206D03*
X062705Y006206D03*
X065605Y006206D03*
X068505Y006206D03*
X071405Y006216D03*
X074305Y006206D03*
X077205Y006206D03*
X080105Y006206D03*
X083005Y006206D03*
X085905Y006206D03*
X088805Y006206D03*
X091705Y006206D03*
D13*
X092275Y008086D03*
X091705Y015216D03*
D14*
X090705Y015316D03*
X089705Y015216D03*
X088705Y015316D03*
X092375Y011086D03*
X092275Y010086D03*
X092375Y009086D03*
D15*
X085745Y010346D03*
X087945Y010546D03*
X088825Y010546D03*
X084400Y011526D03*
X086725Y011846D03*
X085885Y012686D03*
X087985Y013266D03*
X086525Y013426D03*
X085965Y013426D03*
X084295Y014586D03*
X084815Y014896D03*
X084275Y015176D03*
X084795Y015526D03*
X083555Y010546D03*
X082265Y009946D03*
X082265Y009396D03*
D16*
X081892Y009226D02*
X081513Y009226D01*
X081417Y009226D01*
X081329Y009190D01*
X080726Y008586D01*
X080145Y008586D01*
X080145Y014178D01*
X080380Y014727D01*
X080735Y015245D01*
X081183Y015684D01*
X081709Y016026D01*
X082291Y016259D01*
X082908Y016375D01*
X083221Y016386D01*
X083226Y016386D01*
X083278Y016386D01*
X083279Y016386D01*
X094049Y016386D01*
X094105Y016386D01*
X094345Y016373D01*
X094812Y016268D01*
X095244Y016062D01*
X095620Y015766D01*
X095922Y015395D01*
X096135Y014966D01*
X096248Y014500D01*
X096256Y014022D01*
X096158Y013553D01*
X095960Y013117D01*
X095670Y012736D01*
X095304Y012428D01*
X094878Y012208D01*
X094415Y012087D01*
X094178Y012066D01*
X094129Y012066D01*
X094125Y012065D01*
X094120Y012064D01*
X094074Y012044D01*
X094027Y012024D01*
X094023Y012020D01*
X094019Y012018D01*
X093984Y011982D01*
X093948Y011945D01*
X093946Y011941D01*
X093943Y011937D01*
X093925Y011889D01*
X093905Y011842D01*
X093905Y011837D01*
X093904Y011833D01*
X093905Y011781D01*
X093905Y007826D01*
X091468Y007826D01*
X091307Y007987D01*
X091326Y007995D01*
X091416Y008085D01*
X091918Y008586D01*
X092197Y008586D01*
X092270Y008556D01*
X092481Y008556D01*
X092675Y008637D01*
X092824Y008786D01*
X092905Y008981D01*
X092905Y009192D01*
X092824Y009387D01*
X092675Y009536D01*
X092503Y009607D01*
X092575Y009637D01*
X092724Y009786D01*
X092805Y009981D01*
X092805Y010192D01*
X092724Y010387D01*
X092575Y010536D01*
X092503Y010566D01*
X092675Y010637D01*
X092824Y010786D01*
X092905Y010981D01*
X092905Y011192D01*
X092824Y011387D01*
X092675Y011536D01*
X092481Y011616D01*
X092270Y011616D01*
X092075Y011536D01*
X091926Y011387D01*
X091845Y011192D01*
X091845Y010981D01*
X091926Y010786D01*
X092075Y010637D01*
X092147Y010607D01*
X091975Y010536D01*
X091826Y010387D01*
X091745Y010192D01*
X091745Y009981D01*
X091826Y009786D01*
X091975Y009637D01*
X092147Y009566D01*
X092075Y009536D01*
X091926Y009387D01*
X091860Y009226D01*
X091849Y009226D01*
X091721Y009226D01*
X091604Y009178D01*
X090964Y008538D01*
X090945Y008519D01*
X090945Y010184D01*
X091548Y010786D01*
X091562Y010800D01*
X091646Y010835D01*
X091736Y010925D01*
X091785Y011043D01*
X091785Y011170D01*
X091736Y011288D01*
X091646Y011378D01*
X091529Y011426D01*
X091498Y011426D01*
X091505Y011443D01*
X091505Y011570D01*
X091456Y011688D01*
X091366Y011778D01*
X091249Y011826D01*
X091121Y011826D01*
X091004Y011778D01*
X090914Y011688D01*
X090865Y011570D01*
X090865Y011469D01*
X090728Y011332D01*
X090696Y011408D01*
X090606Y011498D01*
X090585Y011506D01*
X090606Y011515D01*
X090696Y011605D01*
X090745Y011723D01*
X090745Y011850D01*
X090696Y011968D01*
X090673Y011991D01*
X090788Y012106D01*
X090889Y012106D01*
X091006Y012155D01*
X091096Y012245D01*
X091145Y012363D01*
X091145Y012490D01*
X091096Y012608D01*
X091006Y012698D01*
X090889Y012746D01*
X090761Y012746D01*
X090644Y012698D01*
X090554Y012608D01*
X090505Y012490D01*
X090505Y012389D01*
X090345Y012229D01*
X090345Y012494D01*
X090416Y012565D01*
X090465Y012683D01*
X090465Y012810D01*
X090416Y012928D01*
X090326Y013018D01*
X090209Y013066D01*
X090081Y013066D01*
X089964Y013018D01*
X089874Y012928D01*
X089825Y012810D01*
X089825Y012683D01*
X089874Y012565D01*
X089945Y012494D01*
X089945Y011424D01*
X090062Y011306D01*
X090105Y011264D01*
X090105Y011163D01*
X090154Y011045D01*
X090244Y010955D01*
X090320Y010924D01*
X089862Y010466D01*
X089745Y010349D01*
X089745Y007826D01*
X088562Y007826D01*
X088536Y007888D01*
X088446Y007978D01*
X088329Y008026D01*
X088201Y008026D01*
X088084Y007978D01*
X087994Y007888D01*
X087969Y007826D01*
X087868Y007826D01*
X087708Y007986D01*
X087542Y007986D01*
X086742Y007986D01*
X086625Y007869D01*
X086582Y007826D01*
X085708Y007826D01*
X085628Y007906D01*
X085942Y007906D01*
X086108Y007906D01*
X086505Y008304D01*
X086505Y008469D01*
X086505Y009890D01*
X086561Y009866D01*
X086689Y009866D01*
X086806Y009915D01*
X086896Y010005D01*
X086945Y010123D01*
X086945Y010250D01*
X086922Y010306D01*
X087135Y010520D01*
X087135Y010469D01*
X087074Y010408D01*
X087025Y010290D01*
X087025Y010163D01*
X087074Y010045D01*
X087164Y009955D01*
X087281Y009906D01*
X087409Y009906D01*
X087526Y009955D01*
X087616Y010045D01*
X087665Y010163D01*
X087665Y010290D01*
X087616Y010408D01*
X087555Y010469D01*
X087555Y010659D01*
X090415Y013519D01*
X090415Y013693D01*
X090415Y014913D01*
X090405Y014923D01*
X090405Y015509D01*
X090415Y015519D01*
X090415Y015693D01*
X090112Y015996D01*
X089938Y015996D01*
X089298Y015996D01*
X089175Y015873D01*
X089036Y015735D01*
X089005Y015766D01*
X088811Y015846D01*
X088600Y015846D01*
X088405Y015766D01*
X088256Y015617D01*
X088175Y015422D01*
X088175Y015211D01*
X088256Y015016D01*
X088405Y014867D01*
X088600Y014786D01*
X088811Y014786D01*
X089005Y014867D01*
X089154Y015016D01*
X089184Y015089D01*
X089256Y014916D01*
X089405Y014767D01*
X089495Y014730D01*
X089495Y014369D01*
X089486Y014378D01*
X089369Y014426D01*
X089241Y014426D01*
X089124Y014378D01*
X089053Y014306D01*
X088748Y014306D01*
X088705Y014349D01*
X088588Y014466D01*
X087902Y014466D01*
X087785Y014349D01*
X086935Y013499D01*
X086935Y013508D01*
X086873Y013659D01*
X086757Y013774D01*
X086607Y013836D01*
X084745Y013836D01*
X084745Y014437D01*
X084785Y014476D01*
X084897Y014476D01*
X085047Y014539D01*
X085163Y014654D01*
X085225Y014805D01*
X085225Y014968D01*
X085215Y014992D01*
X085215Y015608D01*
X085153Y015759D01*
X085037Y015874D01*
X084887Y015936D01*
X084724Y015936D01*
X084573Y015874D01*
X084458Y015759D01*
X084295Y015596D01*
X084194Y015596D01*
X084043Y015534D01*
X083928Y015419D01*
X083865Y015268D01*
X083865Y015105D01*
X083865Y014515D01*
X083925Y014370D01*
X083925Y013345D01*
X083925Y013176D01*
X083185Y012436D01*
X082977Y012436D01*
X082814Y012436D01*
X082663Y012374D01*
X082602Y012313D01*
X082600Y012312D01*
X082544Y012255D01*
X082488Y012199D01*
X082487Y012197D01*
X081972Y011673D01*
X081918Y011619D01*
X081917Y011617D01*
X081916Y011616D01*
X081885Y011540D01*
X081855Y011468D01*
X081855Y011466D01*
X081854Y011464D01*
X081855Y011383D01*
X081855Y010028D01*
X081855Y009315D01*
X081892Y009226D01*
X081857Y009311D02*
X080145Y009311D01*
X080145Y009469D02*
X081855Y009469D01*
X081855Y009628D02*
X080145Y009628D01*
X080145Y009786D02*
X081855Y009786D01*
X081855Y009945D02*
X080145Y009945D01*
X080145Y010104D02*
X081855Y010104D01*
X081855Y010262D02*
X080145Y010262D01*
X080145Y010421D02*
X081855Y010421D01*
X081855Y010579D02*
X080145Y010579D01*
X080145Y010738D02*
X081855Y010738D01*
X081855Y010896D02*
X080145Y010896D01*
X080145Y011055D02*
X081855Y011055D01*
X081855Y011213D02*
X080145Y011213D01*
X080145Y011372D02*
X081855Y011372D01*
X081881Y011530D02*
X080145Y011530D01*
X080145Y011689D02*
X081988Y011689D01*
X082144Y011848D02*
X080145Y011848D01*
X080145Y012006D02*
X082299Y012006D01*
X082455Y012165D02*
X080145Y012165D01*
X080145Y012323D02*
X082612Y012323D01*
X082568Y012482D02*
X083231Y012482D01*
X083389Y012640D02*
X082987Y012640D01*
X082837Y012554D02*
X083163Y012742D01*
X083429Y013008D01*
X083618Y013334D01*
X083715Y013698D01*
X083715Y014075D01*
X083618Y014438D01*
X083429Y014764D01*
X083163Y015031D01*
X082837Y015219D01*
X082473Y015316D01*
X082097Y015316D01*
X081733Y015219D01*
X081407Y015031D01*
X081141Y014764D01*
X080953Y014438D01*
X080855Y014075D01*
X080855Y013698D01*
X080953Y013334D01*
X081141Y013008D01*
X081407Y012742D01*
X081733Y012554D01*
X082097Y012456D01*
X082473Y012456D01*
X082837Y012554D01*
X083220Y012799D02*
X083548Y012799D01*
X083706Y012957D02*
X083378Y012957D01*
X083491Y013116D02*
X083865Y013116D01*
X083925Y013274D02*
X083583Y013274D01*
X083644Y013433D02*
X083925Y013433D01*
X083925Y013591D02*
X083687Y013591D01*
X083715Y013750D02*
X083925Y013750D01*
X083925Y013909D02*
X083715Y013909D01*
X083715Y014067D02*
X083925Y014067D01*
X083925Y014226D02*
X083675Y014226D01*
X083632Y014384D02*
X083919Y014384D01*
X083865Y014543D02*
X083557Y014543D01*
X083466Y014701D02*
X083865Y014701D01*
X083865Y014860D02*
X083334Y014860D01*
X083176Y015018D02*
X083865Y015018D01*
X083865Y015177D02*
X082910Y015177D01*
X083893Y015335D02*
X080827Y015335D01*
X080688Y015177D02*
X081660Y015177D01*
X081395Y015018D02*
X080580Y015018D01*
X080471Y014860D02*
X081236Y014860D01*
X081104Y014701D02*
X080369Y014701D01*
X080301Y014543D02*
X081013Y014543D01*
X080938Y014384D02*
X080233Y014384D01*
X080166Y014226D02*
X080896Y014226D01*
X080855Y014067D02*
X080145Y014067D01*
X080145Y013909D02*
X080855Y013909D01*
X080855Y013750D02*
X080145Y013750D01*
X080145Y013591D02*
X080884Y013591D01*
X080926Y013433D02*
X080145Y013433D01*
X080145Y013274D02*
X080987Y013274D01*
X081079Y013116D02*
X080145Y013116D01*
X080145Y012957D02*
X081192Y012957D01*
X081351Y012799D02*
X080145Y012799D01*
X080145Y012640D02*
X081584Y012640D01*
X082003Y012482D02*
X080145Y012482D01*
X082675Y011219D02*
X083066Y011616D01*
X083206Y011616D01*
X082999Y011409D01*
X082998Y011409D01*
X082967Y011377D01*
X082932Y011342D01*
X082931Y011341D01*
X082914Y011299D01*
X082895Y011254D01*
X082895Y011253D01*
X082895Y011252D01*
X082895Y011208D01*
X082895Y011159D01*
X082896Y011158D01*
X082904Y010146D01*
X082884Y010138D01*
X082794Y010048D01*
X082745Y009930D01*
X082745Y009803D01*
X082794Y009685D01*
X082884Y009595D01*
X083001Y009546D01*
X083129Y009546D01*
X083246Y009595D01*
X083336Y009685D01*
X083385Y009803D01*
X083385Y009900D01*
X083386Y009901D01*
X083385Y009945D01*
X085945Y009945D01*
X085945Y009786D02*
X083378Y009786D01*
X083385Y009945D02*
X083385Y009994D01*
X083385Y009995D01*
X083376Y011108D01*
X083882Y011614D01*
X083971Y011576D01*
X084099Y011576D01*
X084216Y011625D01*
X084306Y011715D01*
X084355Y011833D01*
X084355Y011960D01*
X084306Y012078D01*
X084216Y012168D01*
X084117Y012209D01*
X084683Y012774D01*
X084745Y012925D01*
X084745Y013016D01*
X086452Y013016D01*
X086062Y012626D01*
X085945Y012509D01*
X085945Y008709D01*
X085702Y008466D01*
X081308Y008466D01*
X081285Y008466D01*
X081565Y008746D01*
X082853Y008746D01*
X082884Y008715D01*
X083001Y008666D01*
X083129Y008666D01*
X083246Y008715D01*
X083336Y008805D01*
X083385Y008923D01*
X083385Y009050D01*
X083336Y009168D01*
X083246Y009258D01*
X083129Y009306D01*
X083001Y009306D01*
X082884Y009258D01*
X082853Y009226D01*
X082639Y009226D01*
X082675Y009315D01*
X082675Y010028D01*
X082675Y011219D01*
X082675Y011213D02*
X082895Y011213D01*
X082931Y011341D02*
X082931Y011341D01*
X082961Y011372D02*
X082826Y011372D01*
X082981Y011530D02*
X083120Y011530D01*
X083135Y011206D02*
X083145Y009946D01*
X083065Y009866D01*
X082851Y009628D02*
X082675Y009628D01*
X082675Y009786D02*
X082752Y009786D01*
X082751Y009945D02*
X082675Y009945D01*
X082675Y010104D02*
X082850Y010104D01*
X082903Y010262D02*
X082675Y010262D01*
X082675Y010421D02*
X082901Y010421D01*
X082900Y010579D02*
X082675Y010579D01*
X082675Y010738D02*
X082899Y010738D01*
X082898Y010896D02*
X082675Y010896D01*
X082675Y011055D02*
X082896Y011055D01*
X083135Y011206D02*
X083825Y011896D01*
X084035Y011896D01*
X084336Y012006D02*
X085945Y012006D01*
X085945Y011848D02*
X084355Y011848D01*
X084280Y011689D02*
X085945Y011689D01*
X085945Y011530D02*
X083799Y011530D01*
X083640Y011372D02*
X085945Y011372D01*
X085945Y011213D02*
X083481Y011213D01*
X083376Y011055D02*
X085945Y011055D01*
X085945Y010896D02*
X083378Y010896D01*
X083379Y010738D02*
X085945Y010738D01*
X085945Y010579D02*
X083380Y010579D01*
X083381Y010421D02*
X085945Y010421D01*
X085945Y010262D02*
X083383Y010262D01*
X083384Y010104D02*
X085945Y010104D01*
X085745Y010346D02*
X085745Y012546D01*
X085885Y012686D01*
X086062Y012626D02*
X086062Y012626D01*
X086076Y012640D02*
X084549Y012640D01*
X084693Y012799D02*
X086235Y012799D01*
X086393Y012957D02*
X084745Y012957D01*
X084390Y012482D02*
X085945Y012482D01*
X085945Y012323D02*
X084232Y012323D01*
X084220Y012165D02*
X085945Y012165D01*
X086505Y012165D02*
X088186Y012165D01*
X088028Y012006D02*
X086505Y012006D01*
X086505Y011848D02*
X087869Y011848D01*
X087711Y011689D02*
X086505Y011689D01*
X086505Y011530D02*
X087552Y011530D01*
X087394Y011372D02*
X086505Y011372D01*
X086505Y011213D02*
X087235Y011213D01*
X087077Y011055D02*
X086505Y011055D01*
X086505Y010896D02*
X086918Y010896D01*
X086760Y010738D02*
X086505Y010738D01*
X086505Y010579D02*
X086601Y010579D01*
X086505Y010483D02*
X086505Y012224D01*
X088065Y013784D01*
X088441Y013408D01*
X088425Y013370D01*
X088425Y013243D01*
X088474Y013125D01*
X088564Y013035D01*
X088681Y012986D01*
X088809Y012986D01*
X088926Y013035D01*
X089016Y013125D01*
X089065Y013243D01*
X089065Y013370D01*
X089016Y013488D01*
X088926Y013578D01*
X088809Y013626D01*
X088788Y013626D01*
X088348Y014066D01*
X088422Y014066D01*
X088582Y013906D01*
X088748Y013906D01*
X089053Y013906D01*
X089124Y013835D01*
X089241Y013786D01*
X089369Y013786D01*
X089486Y013835D01*
X089495Y013844D01*
X089495Y013473D01*
X086505Y010483D01*
X086940Y010262D02*
X087025Y010262D01*
X087036Y010421D02*
X087087Y010421D01*
X087050Y010104D02*
X086937Y010104D01*
X086836Y009945D02*
X087188Y009945D01*
X087502Y009945D02*
X089745Y009945D01*
X089745Y009786D02*
X086505Y009786D01*
X086505Y009628D02*
X089745Y009628D01*
X089745Y009469D02*
X086505Y009469D01*
X086505Y009311D02*
X089745Y009311D01*
X089745Y009152D02*
X086505Y009152D01*
X086505Y008994D02*
X089745Y008994D01*
X089745Y008835D02*
X086505Y008835D01*
X086505Y008677D02*
X089745Y008677D01*
X089745Y008518D02*
X086505Y008518D01*
X086505Y008360D02*
X089745Y008360D01*
X089745Y008201D02*
X086403Y008201D01*
X086244Y008042D02*
X089745Y008042D01*
X089745Y007884D02*
X088538Y007884D01*
X087992Y007884D02*
X087811Y007884D01*
X086640Y007884D02*
X085651Y007884D01*
X085754Y008518D02*
X081336Y008518D01*
X081495Y008677D02*
X082977Y008677D01*
X083153Y008677D02*
X085913Y008677D01*
X085945Y008835D02*
X083349Y008835D01*
X083385Y008994D02*
X085945Y008994D01*
X085945Y009152D02*
X083343Y009152D01*
X083065Y008986D02*
X081465Y008986D01*
X080825Y008346D01*
X072425Y008346D01*
X072185Y008106D01*
X071265Y007946D02*
X071265Y008586D01*
X070454Y006466D02*
X081145Y006466D01*
X081145Y004066D01*
X080836Y004066D01*
X080836Y004658D01*
X080742Y004752D01*
X080733Y004752D01*
X080791Y004810D01*
X080844Y004937D01*
X080844Y005074D01*
X080791Y005201D01*
X080694Y005298D01*
X080568Y005350D01*
X080430Y005350D01*
X080303Y005298D01*
X080222Y005216D01*
X080147Y005292D01*
X080147Y005918D01*
X080053Y006012D01*
X079448Y006012D01*
X079355Y005918D01*
X079355Y005234D01*
X079448Y005141D01*
X079421Y005152D01*
X079283Y005152D01*
X079157Y005100D01*
X079060Y005003D01*
X079007Y004876D01*
X079007Y004739D01*
X079060Y004612D01*
X079074Y004598D01*
X079024Y004577D01*
X078927Y004480D01*
X078874Y004354D01*
X078874Y004216D01*
X078927Y004090D01*
X078950Y004066D01*
X077936Y004066D01*
X077936Y004658D01*
X077842Y004752D01*
X077833Y004752D01*
X077891Y004810D01*
X077944Y004937D01*
X077944Y005074D01*
X077891Y005201D01*
X077794Y005298D01*
X077668Y005350D01*
X077530Y005350D01*
X077403Y005298D01*
X077307Y005202D01*
X077247Y005262D01*
X077247Y005918D01*
X077153Y006012D01*
X076548Y006012D01*
X076455Y005918D01*
X076455Y005234D01*
X076548Y005141D01*
X076521Y005152D01*
X076383Y005152D01*
X076257Y005100D01*
X076160Y005003D01*
X076107Y004876D01*
X076107Y004739D01*
X076160Y004612D01*
X076174Y004598D01*
X076124Y004577D01*
X076027Y004480D01*
X075974Y004354D01*
X075974Y004216D01*
X076027Y004090D01*
X076050Y004066D01*
X075036Y004066D01*
X075036Y004658D01*
X074942Y004752D01*
X074933Y004752D01*
X074991Y004810D01*
X075044Y004937D01*
X075044Y005074D01*
X074991Y005201D01*
X074894Y005298D01*
X074768Y005350D01*
X074630Y005350D01*
X074503Y005298D01*
X074417Y005211D01*
X074347Y005282D01*
X074347Y005918D01*
X074253Y006012D01*
X073648Y006012D01*
X073555Y005918D01*
X073555Y005234D01*
X073648Y005141D01*
X073621Y005152D01*
X073483Y005152D01*
X073357Y005100D01*
X073260Y005003D01*
X073207Y004876D01*
X073207Y004739D01*
X073260Y004612D01*
X073274Y004598D01*
X073224Y004577D01*
X073127Y004480D01*
X073074Y004354D01*
X073074Y004216D01*
X073127Y004090D01*
X073150Y004066D01*
X072136Y004066D01*
X072136Y004668D01*
X072042Y004762D01*
X072033Y004762D01*
X072091Y004820D01*
X072144Y004947D01*
X072144Y005084D01*
X072091Y005211D01*
X071994Y005308D01*
X071868Y005360D01*
X071730Y005360D01*
X071603Y005308D01*
X071522Y005226D01*
X071447Y005302D01*
X071447Y005928D01*
X071353Y006022D01*
X070898Y006022D01*
X070454Y006466D01*
X070463Y006457D02*
X081145Y006457D01*
X081145Y006299D02*
X070621Y006299D01*
X070780Y006140D02*
X081145Y006140D01*
X081145Y005981D02*
X080084Y005981D01*
X080147Y005823D02*
X081145Y005823D01*
X081145Y005664D02*
X080147Y005664D01*
X080147Y005506D02*
X081145Y005506D01*
X081145Y005347D02*
X080575Y005347D01*
X080422Y005347D02*
X080147Y005347D01*
X080440Y005576D02*
X080440Y005872D01*
X080105Y006206D01*
X077205Y006206D01*
X074305Y006206D01*
X074258Y006159D01*
X071463Y006159D01*
X071740Y005882D01*
X071740Y005586D01*
X071698Y005347D02*
X071447Y005347D01*
X071447Y005506D02*
X073555Y005506D01*
X073555Y005664D02*
X071447Y005664D01*
X071447Y005823D02*
X073555Y005823D01*
X073618Y005981D02*
X071394Y005981D01*
X071463Y006159D02*
X071405Y006216D01*
X069785Y006140D02*
X059170Y006140D01*
X059298Y006012D02*
X058844Y006466D01*
X069785Y006466D01*
X069785Y004066D01*
X069236Y004066D01*
X069236Y004658D01*
X069142Y004752D01*
X069133Y004752D01*
X069191Y004810D01*
X069244Y004937D01*
X069244Y005074D01*
X069191Y005201D01*
X069094Y005298D01*
X068968Y005350D01*
X068830Y005350D01*
X068703Y005298D01*
X068637Y005231D01*
X068547Y005322D01*
X068547Y005918D01*
X068453Y006012D01*
X067848Y006012D01*
X067755Y005918D01*
X067755Y005234D01*
X067848Y005141D01*
X067821Y005152D01*
X067683Y005152D01*
X067557Y005100D01*
X067460Y005003D01*
X067407Y004876D01*
X067407Y004739D01*
X067460Y004612D01*
X067474Y004598D01*
X067424Y004577D01*
X067327Y004480D01*
X067274Y004354D01*
X067274Y004216D01*
X067327Y004090D01*
X067350Y004066D01*
X066336Y004066D01*
X066336Y004658D01*
X066242Y004752D01*
X066233Y004752D01*
X066291Y004810D01*
X066344Y004937D01*
X066344Y005074D01*
X066291Y005201D01*
X066194Y005298D01*
X066068Y005350D01*
X065930Y005350D01*
X065803Y005298D01*
X065707Y005201D01*
X065647Y005262D01*
X065647Y005918D01*
X065553Y006012D01*
X064948Y006012D01*
X064855Y005918D01*
X064855Y005234D01*
X064948Y005141D01*
X064921Y005152D01*
X064783Y005152D01*
X064657Y005100D01*
X064560Y005003D01*
X064507Y004876D01*
X064507Y004739D01*
X064560Y004612D01*
X064574Y004598D01*
X064524Y004577D01*
X064427Y004480D01*
X064374Y004354D01*
X064374Y004216D01*
X064427Y004090D01*
X064450Y004066D01*
X063436Y004066D01*
X063436Y004658D01*
X063342Y004752D01*
X063333Y004752D01*
X063391Y004810D01*
X063444Y004937D01*
X063444Y005074D01*
X063391Y005201D01*
X063294Y005298D01*
X063168Y005350D01*
X063030Y005350D01*
X062903Y005298D01*
X062817Y005211D01*
X062747Y005281D01*
X062747Y005918D01*
X062653Y006012D01*
X062048Y006012D01*
X061955Y005918D01*
X061955Y005234D01*
X062048Y005141D01*
X062021Y005152D01*
X061883Y005152D01*
X061757Y005100D01*
X061660Y005003D01*
X061607Y004876D01*
X061607Y004739D01*
X061660Y004612D01*
X061674Y004598D01*
X061624Y004577D01*
X061527Y004480D01*
X061474Y004354D01*
X061474Y004216D01*
X061527Y004090D01*
X061550Y004066D01*
X060536Y004066D01*
X060536Y004658D01*
X060442Y004752D01*
X060433Y004752D01*
X060491Y004810D01*
X060544Y004937D01*
X060544Y005074D01*
X060491Y005201D01*
X060394Y005298D01*
X060268Y005350D01*
X060130Y005350D01*
X060003Y005298D01*
X059927Y005221D01*
X059847Y005302D01*
X059847Y005918D01*
X059753Y006012D01*
X059298Y006012D01*
X059012Y006299D02*
X069785Y006299D01*
X069785Y006457D02*
X058853Y006457D01*
X058105Y006457D02*
X047153Y006457D01*
X047144Y006466D02*
X058105Y006466D01*
X058105Y004066D01*
X057636Y004066D01*
X057636Y004658D01*
X057542Y004752D01*
X057533Y004752D01*
X057591Y004810D01*
X057644Y004937D01*
X057644Y005074D01*
X057591Y005201D01*
X057494Y005298D01*
X057368Y005350D01*
X057230Y005350D01*
X057103Y005298D01*
X057037Y005231D01*
X056947Y005321D01*
X056947Y005918D01*
X056853Y006012D01*
X056248Y006012D01*
X056155Y005918D01*
X056155Y005234D01*
X056248Y005141D01*
X056221Y005152D01*
X056083Y005152D01*
X055957Y005100D01*
X055860Y005003D01*
X055807Y004876D01*
X055807Y004739D01*
X055860Y004612D01*
X055874Y004598D01*
X055824Y004577D01*
X055727Y004480D01*
X055674Y004354D01*
X055674Y004216D01*
X055727Y004090D01*
X055750Y004066D01*
X054736Y004066D01*
X054736Y004658D01*
X054642Y004752D01*
X054633Y004752D01*
X054691Y004810D01*
X054744Y004937D01*
X054744Y005074D01*
X054691Y005201D01*
X054594Y005298D01*
X054468Y005350D01*
X054330Y005350D01*
X054203Y005298D01*
X054107Y005201D01*
X054047Y005262D01*
X054047Y005918D01*
X053953Y006012D01*
X053348Y006012D01*
X053255Y005918D01*
X053255Y005234D01*
X053348Y005141D01*
X053321Y005152D01*
X053183Y005152D01*
X053057Y005100D01*
X052960Y005003D01*
X052907Y004876D01*
X052907Y004739D01*
X052960Y004612D01*
X052974Y004598D01*
X052924Y004577D01*
X052827Y004480D01*
X052774Y004354D01*
X052774Y004216D01*
X052827Y004090D01*
X052850Y004066D01*
X051736Y004066D01*
X051736Y004658D01*
X051642Y004752D01*
X051633Y004752D01*
X051691Y004810D01*
X051744Y004937D01*
X051744Y005074D01*
X051691Y005201D01*
X051594Y005298D01*
X051468Y005350D01*
X051330Y005350D01*
X051203Y005298D01*
X051127Y005221D01*
X051047Y005302D01*
X051047Y005918D01*
X050953Y006012D01*
X050348Y006012D01*
X050255Y005918D01*
X050255Y005234D01*
X050348Y005141D01*
X050321Y005152D01*
X050183Y005152D01*
X050057Y005100D01*
X049960Y005003D01*
X049907Y004876D01*
X049907Y004739D01*
X049960Y004612D01*
X049974Y004598D01*
X049924Y004577D01*
X049827Y004480D01*
X049774Y004354D01*
X049774Y004216D01*
X049827Y004090D01*
X049850Y004066D01*
X048836Y004066D01*
X048836Y004658D01*
X048742Y004752D01*
X048733Y004752D01*
X048791Y004810D01*
X048844Y004937D01*
X048844Y005074D01*
X048791Y005201D01*
X048694Y005298D01*
X048568Y005350D01*
X048430Y005350D01*
X048303Y005298D01*
X048237Y005231D01*
X048147Y005322D01*
X048147Y005918D01*
X048053Y006012D01*
X047598Y006012D01*
X047144Y006466D01*
X047311Y006299D02*
X058105Y006299D01*
X058105Y006140D02*
X047470Y006140D01*
X048084Y005981D02*
X050318Y005981D01*
X050255Y005823D02*
X048147Y005823D01*
X048147Y005664D02*
X050255Y005664D01*
X050255Y005506D02*
X048147Y005506D01*
X048147Y005347D02*
X048422Y005347D01*
X048575Y005347D02*
X050255Y005347D01*
X050300Y005189D02*
X048796Y005189D01*
X048844Y005030D02*
X049987Y005030D01*
X049907Y004872D02*
X048817Y004872D01*
X048781Y004713D02*
X049918Y004713D01*
X049901Y004555D02*
X048836Y004555D01*
X048836Y004396D02*
X049792Y004396D01*
X049774Y004237D02*
X048836Y004237D01*
X048836Y004079D02*
X049838Y004079D01*
X051736Y004079D02*
X052838Y004079D01*
X052774Y004237D02*
X051736Y004237D01*
X051736Y004396D02*
X052792Y004396D01*
X052901Y004555D02*
X051736Y004555D01*
X051681Y004713D02*
X052918Y004713D01*
X052907Y004872D02*
X051717Y004872D01*
X051744Y005030D02*
X052987Y005030D01*
X053300Y005189D02*
X051696Y005189D01*
X051475Y005347D02*
X053255Y005347D01*
X053255Y005506D02*
X051047Y005506D01*
X051047Y005664D02*
X053255Y005664D01*
X053255Y005823D02*
X051047Y005823D01*
X050984Y005981D02*
X053318Y005981D01*
X053984Y005981D02*
X056218Y005981D01*
X056155Y005823D02*
X054047Y005823D01*
X054047Y005664D02*
X056155Y005664D01*
X056155Y005506D02*
X054047Y005506D01*
X054047Y005347D02*
X054322Y005347D01*
X054475Y005347D02*
X056155Y005347D01*
X056200Y005189D02*
X054696Y005189D01*
X054744Y005030D02*
X055887Y005030D01*
X055807Y004872D02*
X054717Y004872D01*
X054681Y004713D02*
X055818Y004713D01*
X055801Y004555D02*
X054736Y004555D01*
X054736Y004396D02*
X055692Y004396D01*
X055674Y004237D02*
X054736Y004237D01*
X054736Y004079D02*
X055738Y004079D01*
X057636Y004079D02*
X058105Y004079D01*
X058105Y004237D02*
X057636Y004237D01*
X057636Y004396D02*
X058105Y004396D01*
X058105Y004555D02*
X057636Y004555D01*
X057581Y004713D02*
X058105Y004713D01*
X058105Y004872D02*
X057617Y004872D01*
X057644Y005030D02*
X058105Y005030D01*
X058105Y005189D02*
X057596Y005189D01*
X057375Y005347D02*
X058105Y005347D01*
X058105Y005506D02*
X056947Y005506D01*
X056947Y005664D02*
X058105Y005664D01*
X058105Y005823D02*
X056947Y005823D01*
X056884Y005981D02*
X058105Y005981D01*
X057240Y005872D02*
X057240Y005576D01*
X057222Y005347D02*
X056947Y005347D01*
X057240Y005872D02*
X056905Y006206D01*
X054005Y006206D01*
X051005Y006206D01*
X048105Y006206D01*
X048440Y005872D01*
X048440Y005576D01*
X046425Y005506D02*
X045247Y005506D01*
X045247Y005664D02*
X046425Y005664D01*
X046425Y005823D02*
X045247Y005823D01*
X045247Y005918D02*
X045153Y006012D01*
X044548Y006012D01*
X044455Y005918D01*
X044455Y005234D01*
X044548Y005141D01*
X044521Y005152D01*
X044383Y005152D01*
X044257Y005100D01*
X044160Y005003D01*
X044107Y004876D01*
X044107Y004739D01*
X044160Y004612D01*
X044174Y004598D01*
X044124Y004577D01*
X044027Y004480D01*
X043974Y004354D01*
X043974Y004216D01*
X044027Y004090D01*
X044050Y004066D01*
X043136Y004066D01*
X043136Y004658D01*
X043042Y004752D01*
X043033Y004752D01*
X043091Y004810D01*
X043144Y004937D01*
X043144Y005074D01*
X043091Y005201D01*
X042994Y005298D01*
X042868Y005350D01*
X042730Y005350D01*
X042603Y005298D01*
X042507Y005201D01*
X042447Y005262D01*
X042447Y005918D01*
X042353Y006012D01*
X041748Y006012D01*
X041655Y005918D01*
X041655Y005234D01*
X041748Y005141D01*
X041721Y005152D01*
X041583Y005152D01*
X041457Y005100D01*
X041360Y005003D01*
X041307Y004876D01*
X041307Y004739D01*
X041360Y004612D01*
X041374Y004598D01*
X041324Y004577D01*
X041227Y004480D01*
X041174Y004354D01*
X041174Y004216D01*
X041227Y004090D01*
X041250Y004066D01*
X040236Y004066D01*
X040236Y004658D01*
X040142Y004752D01*
X040133Y004752D01*
X040191Y004810D01*
X040244Y004937D01*
X040244Y005074D01*
X040191Y005201D01*
X040094Y005298D01*
X039968Y005350D01*
X039830Y005350D01*
X039703Y005298D01*
X039617Y005211D01*
X039547Y005282D01*
X039547Y005918D01*
X039453Y006012D01*
X038848Y006012D01*
X038755Y005918D01*
X038755Y005234D01*
X038848Y005141D01*
X038821Y005152D01*
X038683Y005152D01*
X038557Y005100D01*
X038460Y005003D01*
X038407Y004876D01*
X038407Y004739D01*
X038460Y004612D01*
X038474Y004598D01*
X038424Y004577D01*
X038327Y004480D01*
X038274Y004354D01*
X038274Y004216D01*
X038327Y004090D01*
X038350Y004066D01*
X037336Y004066D01*
X037336Y004658D01*
X037242Y004752D01*
X037233Y004752D01*
X037291Y004810D01*
X037344Y004937D01*
X037344Y005074D01*
X037291Y005201D01*
X037194Y005298D01*
X037068Y005350D01*
X036930Y005350D01*
X036803Y005298D01*
X036727Y005222D01*
X036647Y005302D01*
X036647Y005918D01*
X036553Y006012D01*
X036098Y006012D01*
X035644Y006466D01*
X046425Y006466D01*
X046425Y004066D01*
X045936Y004066D01*
X045936Y004658D01*
X045842Y004752D01*
X045833Y004752D01*
X045891Y004810D01*
X045944Y004937D01*
X045944Y005074D01*
X045891Y005201D01*
X045794Y005298D01*
X045668Y005350D01*
X045530Y005350D01*
X045403Y005298D01*
X045307Y005201D01*
X045247Y005262D01*
X045247Y005918D01*
X045184Y005981D02*
X046425Y005981D01*
X046425Y006140D02*
X035970Y006140D01*
X035811Y006299D02*
X046425Y006299D01*
X046425Y006457D02*
X035653Y006457D01*
X034905Y006457D02*
X024053Y006457D01*
X024044Y006466D02*
X034905Y006466D01*
X034905Y004066D01*
X034436Y004066D01*
X034436Y004658D01*
X034342Y004752D01*
X034333Y004752D01*
X034391Y004810D01*
X034444Y004937D01*
X034444Y005074D01*
X034391Y005201D01*
X034294Y005298D01*
X034168Y005350D01*
X034030Y005350D01*
X033903Y005298D01*
X033806Y005201D01*
X033805Y005196D01*
X033792Y005196D01*
X033747Y005242D01*
X033747Y005918D01*
X033653Y006012D01*
X033048Y006012D01*
X032955Y005918D01*
X032955Y005234D01*
X033048Y005141D01*
X033021Y005152D01*
X032883Y005152D01*
X032757Y005100D01*
X032660Y005003D01*
X032607Y004876D01*
X032607Y004739D01*
X032660Y004612D01*
X032674Y004598D01*
X032624Y004577D01*
X032527Y004480D01*
X032474Y004354D01*
X032474Y004216D01*
X032527Y004090D01*
X032550Y004066D01*
X031536Y004066D01*
X031536Y004658D01*
X031442Y004752D01*
X031433Y004752D01*
X031491Y004810D01*
X031544Y004937D01*
X031544Y005074D01*
X031491Y005201D01*
X031394Y005298D01*
X031268Y005350D01*
X031130Y005350D01*
X031003Y005298D01*
X030907Y005201D01*
X030847Y005261D01*
X030847Y005918D01*
X030753Y006012D01*
X030148Y006012D01*
X030055Y005918D01*
X030055Y005234D01*
X030148Y005141D01*
X030121Y005152D01*
X029983Y005152D01*
X029857Y005100D01*
X029760Y005003D01*
X029707Y004876D01*
X029707Y004739D01*
X029760Y004612D01*
X029774Y004598D01*
X029724Y004577D01*
X029627Y004480D01*
X029574Y004354D01*
X029574Y004216D01*
X029627Y004090D01*
X029650Y004066D01*
X028636Y004066D01*
X028636Y004658D01*
X028542Y004752D01*
X028533Y004752D01*
X028591Y004810D01*
X028644Y004937D01*
X028644Y005074D01*
X028591Y005201D01*
X028494Y005298D01*
X028368Y005350D01*
X028230Y005350D01*
X028103Y005298D01*
X028017Y005211D01*
X027947Y005282D01*
X027947Y005918D01*
X027853Y006012D01*
X027248Y006012D01*
X027155Y005918D01*
X027155Y005234D01*
X027248Y005141D01*
X027221Y005152D01*
X027083Y005152D01*
X026957Y005100D01*
X026860Y005003D01*
X026807Y004876D01*
X026807Y004739D01*
X026860Y004612D01*
X026874Y004598D01*
X026824Y004577D01*
X026727Y004480D01*
X026674Y004354D01*
X026674Y004216D01*
X026727Y004090D01*
X026750Y004066D01*
X025736Y004066D01*
X025736Y004658D01*
X025642Y004752D01*
X025633Y004752D01*
X025691Y004810D01*
X025744Y004937D01*
X025744Y005074D01*
X025691Y005201D01*
X025594Y005298D01*
X025468Y005350D01*
X025330Y005350D01*
X025203Y005298D01*
X025127Y005221D01*
X025047Y005301D01*
X025047Y005918D01*
X024953Y006012D01*
X024498Y006012D01*
X024044Y006466D01*
X024212Y006299D02*
X034905Y006299D01*
X034905Y006140D02*
X024370Y006140D01*
X024984Y005981D02*
X027218Y005981D01*
X027155Y005823D02*
X025047Y005823D01*
X025047Y005664D02*
X027155Y005664D01*
X027155Y005506D02*
X025047Y005506D01*
X025047Y005347D02*
X025322Y005347D01*
X025475Y005347D02*
X027155Y005347D01*
X027200Y005189D02*
X025696Y005189D01*
X025744Y005030D02*
X026887Y005030D01*
X026807Y004872D02*
X025717Y004872D01*
X025681Y004713D02*
X026818Y004713D01*
X026801Y004555D02*
X025736Y004555D01*
X025736Y004396D02*
X026692Y004396D01*
X026674Y004237D02*
X025736Y004237D01*
X025736Y004079D02*
X026738Y004079D01*
X028636Y004079D02*
X029638Y004079D01*
X029574Y004237D02*
X028636Y004237D01*
X028636Y004396D02*
X029592Y004396D01*
X029701Y004555D02*
X028636Y004555D01*
X028581Y004713D02*
X029718Y004713D01*
X029707Y004872D02*
X028617Y004872D01*
X028644Y005030D02*
X029787Y005030D01*
X030100Y005189D02*
X028596Y005189D01*
X028375Y005347D02*
X030055Y005347D01*
X030055Y005506D02*
X027947Y005506D01*
X027947Y005664D02*
X030055Y005664D01*
X030055Y005823D02*
X027947Y005823D01*
X027884Y005981D02*
X030118Y005981D01*
X030784Y005981D02*
X033018Y005981D01*
X032955Y005823D02*
X030847Y005823D01*
X030847Y005664D02*
X032955Y005664D01*
X032955Y005506D02*
X030847Y005506D01*
X030847Y005347D02*
X031122Y005347D01*
X031275Y005347D02*
X032955Y005347D01*
X033000Y005189D02*
X031496Y005189D01*
X031544Y005030D02*
X032687Y005030D01*
X032607Y004872D02*
X031517Y004872D01*
X031481Y004713D02*
X032618Y004713D01*
X032601Y004555D02*
X031536Y004555D01*
X031536Y004396D02*
X032492Y004396D01*
X032474Y004237D02*
X031536Y004237D01*
X031536Y004079D02*
X032538Y004079D01*
X034436Y004079D02*
X034905Y004079D01*
X034905Y004237D02*
X034436Y004237D01*
X034436Y004396D02*
X034905Y004396D01*
X034905Y004555D02*
X034436Y004555D01*
X034381Y004713D02*
X034905Y004713D01*
X034905Y004872D02*
X034417Y004872D01*
X034444Y005030D02*
X034905Y005030D01*
X034905Y005189D02*
X034396Y005189D01*
X034175Y005347D02*
X034905Y005347D01*
X034905Y005506D02*
X033747Y005506D01*
X033747Y005664D02*
X034905Y005664D01*
X034905Y005823D02*
X033747Y005823D01*
X033684Y005981D02*
X034905Y005981D01*
X034040Y005872D02*
X034040Y005576D01*
X034022Y005347D02*
X033747Y005347D01*
X034040Y005872D02*
X033705Y006206D01*
X030805Y006206D01*
X027905Y006206D01*
X025005Y006206D01*
X025340Y005872D01*
X025340Y005576D01*
X023225Y005506D02*
X022147Y005506D01*
X022147Y005664D02*
X023225Y005664D01*
X023225Y005823D02*
X022147Y005823D01*
X022147Y005918D02*
X022053Y006012D01*
X021448Y006012D01*
X021355Y005918D01*
X021355Y005234D01*
X021448Y005141D01*
X021421Y005152D01*
X021283Y005152D01*
X021157Y005100D01*
X021060Y005003D01*
X021007Y004876D01*
X021007Y004739D01*
X021060Y004612D01*
X021074Y004598D01*
X021024Y004577D01*
X020927Y004480D01*
X020874Y004354D01*
X020874Y004216D01*
X020927Y004090D01*
X020950Y004066D01*
X019936Y004066D01*
X019936Y004658D01*
X019842Y004752D01*
X019833Y004752D01*
X019891Y004810D01*
X019944Y004937D01*
X019944Y005074D01*
X019891Y005201D01*
X019794Y005298D01*
X019668Y005350D01*
X019530Y005350D01*
X019403Y005298D01*
X019307Y005201D01*
X019247Y005261D01*
X019247Y005918D01*
X019153Y006012D01*
X018548Y006012D01*
X018455Y005918D01*
X018455Y005234D01*
X018548Y005141D01*
X018521Y005152D01*
X018383Y005152D01*
X018257Y005100D01*
X018160Y005003D01*
X018107Y004876D01*
X018107Y004739D01*
X018160Y004612D01*
X018174Y004598D01*
X018124Y004577D01*
X018027Y004480D01*
X017974Y004354D01*
X017974Y004216D01*
X018027Y004090D01*
X018050Y004066D01*
X017036Y004066D01*
X017036Y004658D01*
X016942Y004752D01*
X016933Y004752D01*
X016991Y004810D01*
X017044Y004937D01*
X017044Y005074D01*
X016991Y005201D01*
X016894Y005298D01*
X016768Y005350D01*
X016630Y005350D01*
X016503Y005298D01*
X016417Y005211D01*
X016347Y005282D01*
X016347Y005918D01*
X016253Y006012D01*
X015648Y006012D01*
X015555Y005918D01*
X015555Y005234D01*
X015648Y005141D01*
X015621Y005152D01*
X015483Y005152D01*
X015357Y005100D01*
X015260Y005003D01*
X015207Y004876D01*
X015207Y004739D01*
X015260Y004612D01*
X015274Y004598D01*
X015224Y004577D01*
X015127Y004480D01*
X015074Y004354D01*
X015074Y004216D01*
X015127Y004090D01*
X015150Y004066D01*
X014136Y004066D01*
X014136Y004658D01*
X014042Y004752D01*
X014033Y004752D01*
X014091Y004810D01*
X014144Y004937D01*
X014144Y005074D01*
X014091Y005201D01*
X013994Y005298D01*
X013868Y005350D01*
X013730Y005350D01*
X013603Y005298D01*
X013527Y005221D01*
X013447Y005301D01*
X013447Y005918D01*
X013353Y006012D01*
X012898Y006012D01*
X012444Y006466D01*
X023225Y006466D01*
X023225Y004066D01*
X022836Y004066D01*
X022836Y004658D01*
X022742Y004752D01*
X022733Y004752D01*
X022791Y004810D01*
X022844Y004937D01*
X022844Y005074D01*
X022791Y005201D01*
X022694Y005298D01*
X022568Y005350D01*
X022430Y005350D01*
X022303Y005298D01*
X022237Y005231D01*
X022147Y005322D01*
X022147Y005918D01*
X022084Y005981D02*
X023225Y005981D01*
X023225Y006140D02*
X012770Y006140D01*
X012612Y006299D02*
X023225Y006299D01*
X023225Y006457D02*
X012453Y006457D01*
X011705Y006457D02*
X004299Y006457D01*
X004308Y006466D02*
X011705Y006466D01*
X011705Y004066D01*
X011236Y004066D01*
X011236Y004658D01*
X011142Y004752D01*
X011133Y004752D01*
X011191Y004810D01*
X011244Y004937D01*
X011244Y005074D01*
X011191Y005201D01*
X011094Y005298D01*
X010968Y005350D01*
X010830Y005350D01*
X010703Y005298D01*
X010637Y005231D01*
X010547Y005322D01*
X010547Y005918D01*
X010453Y006012D01*
X009848Y006012D01*
X009755Y005918D01*
X009755Y005234D01*
X009848Y005141D01*
X009821Y005152D01*
X009683Y005152D01*
X009557Y005100D01*
X009460Y005003D01*
X009407Y004876D01*
X009407Y004739D01*
X009460Y004612D01*
X009474Y004598D01*
X009424Y004577D01*
X009327Y004480D01*
X009274Y004354D01*
X009274Y004216D01*
X009327Y004090D01*
X009350Y004066D01*
X008336Y004066D01*
X008336Y004658D01*
X008242Y004752D01*
X008233Y004752D01*
X008291Y004810D01*
X008344Y004937D01*
X008344Y005074D01*
X008291Y005201D01*
X008194Y005298D01*
X008068Y005350D01*
X007930Y005350D01*
X007803Y005298D01*
X007747Y005241D01*
X007647Y005342D01*
X007647Y005918D01*
X007553Y006012D01*
X006948Y006012D01*
X006855Y005918D01*
X006855Y005234D01*
X006948Y005141D01*
X006921Y005152D01*
X006783Y005152D01*
X006657Y005100D01*
X006560Y005003D01*
X006507Y004876D01*
X006507Y004739D01*
X006560Y004612D01*
X006574Y004598D01*
X006524Y004577D01*
X006427Y004480D01*
X006374Y004354D01*
X006374Y004216D01*
X006427Y004090D01*
X006450Y004066D01*
X005436Y004066D01*
X005436Y004658D01*
X005342Y004752D01*
X005333Y004752D01*
X005391Y004810D01*
X005444Y004937D01*
X005444Y005074D01*
X005391Y005201D01*
X005294Y005298D01*
X005168Y005350D01*
X005030Y005350D01*
X004903Y005298D01*
X004817Y005211D01*
X004747Y005282D01*
X004747Y005918D01*
X004653Y006012D01*
X004048Y006012D01*
X003955Y005918D01*
X003955Y005234D01*
X004048Y005141D01*
X004021Y005152D01*
X003883Y005152D01*
X003757Y005100D01*
X003660Y005003D01*
X003607Y004876D01*
X003607Y004739D01*
X003660Y004612D01*
X003674Y004598D01*
X003624Y004577D01*
X003527Y004480D01*
X003474Y004354D01*
X003474Y004216D01*
X003527Y004090D01*
X003550Y004066D01*
X002536Y004066D01*
X002536Y004658D01*
X002442Y004752D01*
X002433Y004752D01*
X002491Y004810D01*
X002544Y004937D01*
X002544Y005074D01*
X002491Y005201D01*
X002394Y005298D01*
X002268Y005350D01*
X002130Y005350D01*
X002003Y005298D01*
X001927Y005221D01*
X001847Y005301D01*
X001847Y005918D01*
X001753Y006012D01*
X001148Y006012D01*
X001055Y005918D01*
X001055Y005234D01*
X001148Y005141D01*
X001121Y005152D01*
X000983Y005152D01*
X000857Y005100D01*
X000760Y005003D01*
X000707Y004876D01*
X000707Y004739D01*
X000760Y004612D01*
X000774Y004598D01*
X000724Y004577D01*
X000665Y004519D01*
X000665Y008896D01*
X000686Y009075D01*
X000797Y009424D01*
X000995Y009732D01*
X001266Y009978D01*
X001591Y010146D01*
X001949Y010224D01*
X002114Y010226D01*
X002139Y010226D01*
X002187Y010224D01*
X002194Y010226D01*
X011705Y010226D01*
X011705Y007749D01*
X011622Y007666D01*
X010750Y007666D01*
X010750Y007691D01*
X010701Y007811D01*
X010609Y007902D01*
X010490Y007951D01*
X010361Y007951D01*
X010241Y007902D01*
X010150Y007811D01*
X010100Y007691D01*
X010100Y007562D01*
X010123Y007506D01*
X009788Y007506D01*
X009468Y007826D01*
X009302Y007826D01*
X008742Y007826D01*
X008625Y007709D01*
X008262Y007346D01*
X007708Y007346D01*
X007630Y007424D01*
X007630Y007531D01*
X007581Y007651D01*
X007489Y007742D01*
X007370Y007791D01*
X007241Y007791D01*
X007121Y007742D01*
X007030Y007651D01*
X006980Y007531D01*
X006980Y007402D01*
X007030Y007282D01*
X007121Y007191D01*
X007132Y007186D01*
X006428Y007186D01*
X006108Y007506D01*
X005942Y007506D01*
X005622Y007506D01*
X005505Y007389D01*
X005345Y007229D01*
X005345Y007064D01*
X005345Y007026D01*
X004990Y007026D01*
X004990Y007051D01*
X004941Y007171D01*
X004849Y007262D01*
X004730Y007311D01*
X004601Y007311D01*
X004518Y007277D01*
X004615Y007638D01*
X004615Y008015D01*
X004518Y008378D01*
X004329Y008704D01*
X004063Y008971D01*
X003737Y009159D01*
X003373Y009256D01*
X002997Y009256D01*
X002633Y009159D01*
X002307Y008971D01*
X002041Y008704D01*
X001853Y008378D01*
X001755Y008015D01*
X001755Y007638D01*
X001853Y007274D01*
X002041Y006948D01*
X002307Y006682D01*
X002557Y006538D01*
X002470Y006451D01*
X002420Y006331D01*
X002420Y006202D01*
X002470Y006082D01*
X002561Y005991D01*
X002681Y005941D01*
X002810Y005941D01*
X002929Y005991D01*
X003005Y006066D01*
X003908Y006066D01*
X004025Y006184D01*
X004308Y006466D01*
X004140Y006299D02*
X011705Y006299D01*
X011705Y006140D02*
X003982Y006140D01*
X004105Y006186D02*
X003665Y005746D01*
X002785Y005746D01*
X002325Y006206D01*
X001805Y006206D01*
X002140Y005872D01*
X002140Y005576D01*
X002122Y005347D02*
X001847Y005347D01*
X001847Y005506D02*
X003955Y005506D01*
X003955Y005664D02*
X001847Y005664D01*
X001847Y005823D02*
X003955Y005823D01*
X004018Y005981D02*
X002906Y005981D01*
X002584Y005981D02*
X001784Y005981D01*
X001118Y005981D02*
X000665Y005981D01*
X000665Y005823D02*
X001055Y005823D01*
X001055Y005664D02*
X000665Y005664D01*
X000665Y005506D02*
X001055Y005506D01*
X001055Y005347D02*
X000665Y005347D01*
X000665Y005189D02*
X001100Y005189D01*
X000787Y005030D02*
X000665Y005030D01*
X000665Y004872D02*
X000707Y004872D01*
X000718Y004713D02*
X000665Y004713D01*
X000665Y004555D02*
X000701Y004555D01*
X002481Y004713D02*
X003618Y004713D01*
X003607Y004872D02*
X002517Y004872D01*
X002544Y005030D02*
X003687Y005030D01*
X004000Y005189D02*
X002496Y005189D01*
X002275Y005347D02*
X003955Y005347D01*
X004747Y005347D02*
X005022Y005347D01*
X005175Y005347D02*
X006855Y005347D01*
X006855Y005506D02*
X004747Y005506D01*
X004747Y005664D02*
X006855Y005664D01*
X006855Y005823D02*
X004747Y005823D01*
X004684Y005981D02*
X006918Y005981D01*
X007584Y005981D02*
X009818Y005981D01*
X009755Y005823D02*
X007647Y005823D01*
X007647Y005664D02*
X009755Y005664D01*
X009755Y005506D02*
X007647Y005506D01*
X007647Y005347D02*
X007922Y005347D01*
X008075Y005347D02*
X009755Y005347D01*
X009800Y005189D02*
X008296Y005189D01*
X008344Y005030D02*
X009487Y005030D01*
X009407Y004872D02*
X008317Y004872D01*
X008281Y004713D02*
X009418Y004713D01*
X009401Y004555D02*
X008336Y004555D01*
X008336Y004396D02*
X009292Y004396D01*
X009274Y004237D02*
X008336Y004237D01*
X008336Y004079D02*
X009338Y004079D01*
X011236Y004079D02*
X011705Y004079D01*
X011705Y004237D02*
X011236Y004237D01*
X011236Y004396D02*
X011705Y004396D01*
X011705Y004555D02*
X011236Y004555D01*
X011181Y004713D02*
X011705Y004713D01*
X011705Y004872D02*
X011217Y004872D01*
X011244Y005030D02*
X011705Y005030D01*
X011705Y005189D02*
X011196Y005189D01*
X010975Y005347D02*
X011705Y005347D01*
X011705Y005506D02*
X010547Y005506D01*
X010547Y005664D02*
X011705Y005664D01*
X011705Y005823D02*
X010547Y005823D01*
X010484Y005981D02*
X011705Y005981D01*
X010840Y005872D02*
X010505Y006206D01*
X007605Y006206D01*
X004705Y006206D01*
X004105Y006186D01*
X004705Y006206D02*
X005040Y005872D01*
X005040Y005576D01*
X005396Y005189D02*
X006900Y005189D01*
X006587Y005030D02*
X005444Y005030D01*
X005417Y004872D02*
X006507Y004872D01*
X006518Y004713D02*
X005381Y004713D01*
X005436Y004555D02*
X006501Y004555D01*
X006392Y004396D02*
X005436Y004396D01*
X005436Y004237D02*
X006374Y004237D01*
X006438Y004079D02*
X005436Y004079D01*
X003601Y004555D02*
X002536Y004555D01*
X002536Y004396D02*
X003492Y004396D01*
X003474Y004237D02*
X002536Y004237D01*
X002536Y004079D02*
X003538Y004079D01*
X007940Y005576D02*
X007940Y005872D01*
X007605Y006206D01*
X010547Y005347D02*
X010822Y005347D01*
X010840Y005576D02*
X010840Y005872D01*
X013384Y005981D02*
X015618Y005981D01*
X015555Y005823D02*
X013447Y005823D01*
X013447Y005664D02*
X015555Y005664D01*
X015555Y005506D02*
X013447Y005506D01*
X013447Y005347D02*
X013722Y005347D01*
X013875Y005347D02*
X015555Y005347D01*
X015600Y005189D02*
X014096Y005189D01*
X014144Y005030D02*
X015287Y005030D01*
X015207Y004872D02*
X014117Y004872D01*
X014081Y004713D02*
X015218Y004713D01*
X015201Y004555D02*
X014136Y004555D01*
X014136Y004396D02*
X015092Y004396D01*
X015074Y004237D02*
X014136Y004237D01*
X014136Y004079D02*
X015138Y004079D01*
X017036Y004079D02*
X018038Y004079D01*
X017974Y004237D02*
X017036Y004237D01*
X017036Y004396D02*
X017992Y004396D01*
X018101Y004555D02*
X017036Y004555D01*
X016981Y004713D02*
X018118Y004713D01*
X018107Y004872D02*
X017017Y004872D01*
X017044Y005030D02*
X018187Y005030D01*
X018500Y005189D02*
X016996Y005189D01*
X016775Y005347D02*
X018455Y005347D01*
X018455Y005506D02*
X016347Y005506D01*
X016347Y005664D02*
X018455Y005664D01*
X018455Y005823D02*
X016347Y005823D01*
X016284Y005981D02*
X018518Y005981D01*
X019184Y005981D02*
X021418Y005981D01*
X021355Y005823D02*
X019247Y005823D01*
X019247Y005664D02*
X021355Y005664D01*
X021355Y005506D02*
X019247Y005506D01*
X019247Y005347D02*
X019522Y005347D01*
X019675Y005347D02*
X021355Y005347D01*
X021400Y005189D02*
X019896Y005189D01*
X019944Y005030D02*
X021087Y005030D01*
X021007Y004872D02*
X019917Y004872D01*
X019881Y004713D02*
X021018Y004713D01*
X021001Y004555D02*
X019936Y004555D01*
X019936Y004396D02*
X020892Y004396D01*
X020874Y004237D02*
X019936Y004237D01*
X019936Y004079D02*
X020938Y004079D01*
X022836Y004079D02*
X023225Y004079D01*
X023225Y004237D02*
X022836Y004237D01*
X022836Y004396D02*
X023225Y004396D01*
X023225Y004555D02*
X022836Y004555D01*
X022781Y004713D02*
X023225Y004713D01*
X023225Y004872D02*
X022817Y004872D01*
X022844Y005030D02*
X023225Y005030D01*
X023225Y005189D02*
X022796Y005189D01*
X022575Y005347D02*
X023225Y005347D01*
X022422Y005347D02*
X022147Y005347D01*
X022440Y005576D02*
X022440Y005872D01*
X022105Y006206D01*
X019205Y006206D01*
X016305Y006206D01*
X013405Y006206D01*
X013740Y005872D01*
X013740Y005576D01*
X016347Y005347D02*
X016622Y005347D01*
X016640Y005576D02*
X016640Y005872D01*
X016305Y006206D01*
X019205Y006206D02*
X019540Y005872D01*
X019540Y005576D01*
X011681Y007725D02*
X010736Y007725D01*
X010627Y007884D02*
X011705Y007884D01*
X011705Y008042D02*
X004608Y008042D01*
X004615Y007884D02*
X010223Y007884D01*
X010114Y007725D02*
X009569Y007725D01*
X009728Y007567D02*
X010100Y007567D01*
X008641Y007725D02*
X007506Y007725D01*
X007615Y007567D02*
X008483Y007567D01*
X008324Y007408D02*
X007646Y007408D01*
X007062Y007250D02*
X006365Y007250D01*
X006206Y007408D02*
X006980Y007408D01*
X006995Y007567D02*
X004596Y007567D01*
X004615Y007725D02*
X007105Y007725D01*
X005524Y007408D02*
X004554Y007408D01*
X004861Y007250D02*
X005366Y007250D01*
X005345Y007091D02*
X004974Y007091D01*
X002476Y006457D02*
X000665Y006457D01*
X000665Y006299D02*
X002420Y006299D01*
X002446Y006140D02*
X000665Y006140D01*
X000665Y006616D02*
X002422Y006616D01*
X002215Y006774D02*
X000665Y006774D01*
X000665Y006933D02*
X002057Y006933D01*
X001958Y007091D02*
X000665Y007091D01*
X000665Y007250D02*
X001867Y007250D01*
X001817Y007408D02*
X000665Y007408D01*
X000665Y007567D02*
X001774Y007567D01*
X001755Y007725D02*
X000665Y007725D01*
X000665Y007884D02*
X001755Y007884D01*
X001763Y008042D02*
X000665Y008042D01*
X000665Y008201D02*
X001805Y008201D01*
X001848Y008360D02*
X000665Y008360D01*
X000665Y008518D02*
X001933Y008518D01*
X002025Y008677D02*
X000665Y008677D01*
X000665Y008835D02*
X002172Y008835D01*
X002347Y008994D02*
X000676Y008994D01*
X000710Y009152D02*
X002622Y009152D01*
X003749Y009152D02*
X011705Y009152D01*
X011705Y008994D02*
X004023Y008994D01*
X004199Y008835D02*
X011705Y008835D01*
X011705Y008677D02*
X004346Y008677D01*
X004437Y008518D02*
X011705Y008518D01*
X011705Y008360D02*
X004523Y008360D01*
X004565Y008201D02*
X011705Y008201D01*
X011705Y009311D02*
X000761Y009311D01*
X000826Y009469D02*
X011705Y009469D01*
X011705Y009628D02*
X000928Y009628D01*
X001055Y009786D02*
X011705Y009786D01*
X011705Y009945D02*
X001229Y009945D01*
X001509Y010104D02*
X011705Y010104D01*
X027905Y006206D02*
X028240Y005872D01*
X028240Y005576D01*
X028222Y005347D02*
X027947Y005347D01*
X030805Y006206D02*
X031140Y005872D01*
X031140Y005576D01*
X036584Y005981D02*
X038818Y005981D01*
X038755Y005823D02*
X036647Y005823D01*
X036647Y005664D02*
X038755Y005664D01*
X038755Y005506D02*
X036647Y005506D01*
X036647Y005347D02*
X036922Y005347D01*
X037075Y005347D02*
X038755Y005347D01*
X038800Y005189D02*
X037296Y005189D01*
X037344Y005030D02*
X038487Y005030D01*
X038407Y004872D02*
X037317Y004872D01*
X037281Y004713D02*
X038418Y004713D01*
X038401Y004555D02*
X037336Y004555D01*
X037336Y004396D02*
X038292Y004396D01*
X038274Y004237D02*
X037336Y004237D01*
X037336Y004079D02*
X038338Y004079D01*
X040236Y004079D02*
X041238Y004079D01*
X041174Y004237D02*
X040236Y004237D01*
X040236Y004396D02*
X041192Y004396D01*
X041301Y004555D02*
X040236Y004555D01*
X040181Y004713D02*
X041318Y004713D01*
X041307Y004872D02*
X040217Y004872D01*
X040244Y005030D02*
X041387Y005030D01*
X041700Y005189D02*
X040196Y005189D01*
X039975Y005347D02*
X041655Y005347D01*
X041655Y005506D02*
X039547Y005506D01*
X039547Y005664D02*
X041655Y005664D01*
X041655Y005823D02*
X039547Y005823D01*
X039484Y005981D02*
X041718Y005981D01*
X042384Y005981D02*
X044518Y005981D01*
X044455Y005823D02*
X042447Y005823D01*
X042447Y005664D02*
X044455Y005664D01*
X044455Y005506D02*
X042447Y005506D01*
X042447Y005347D02*
X042722Y005347D01*
X042875Y005347D02*
X044455Y005347D01*
X044500Y005189D02*
X043096Y005189D01*
X043144Y005030D02*
X044187Y005030D01*
X044107Y004872D02*
X043117Y004872D01*
X043081Y004713D02*
X044118Y004713D01*
X044101Y004555D02*
X043136Y004555D01*
X043136Y004396D02*
X043992Y004396D01*
X043974Y004237D02*
X043136Y004237D01*
X043136Y004079D02*
X044038Y004079D01*
X045936Y004079D02*
X046425Y004079D01*
X046425Y004237D02*
X045936Y004237D01*
X045936Y004396D02*
X046425Y004396D01*
X046425Y004555D02*
X045936Y004555D01*
X045881Y004713D02*
X046425Y004713D01*
X046425Y004872D02*
X045917Y004872D01*
X045944Y005030D02*
X046425Y005030D01*
X046425Y005189D02*
X045896Y005189D01*
X045675Y005347D02*
X046425Y005347D01*
X045522Y005347D02*
X045247Y005347D01*
X045540Y005576D02*
X045540Y005872D01*
X045205Y006206D01*
X042405Y006206D01*
X039505Y006206D01*
X036605Y006206D01*
X036940Y005872D01*
X036940Y005576D01*
X039547Y005347D02*
X039822Y005347D01*
X039840Y005576D02*
X039840Y005872D01*
X039505Y006206D01*
X042405Y006206D02*
X042740Y005872D01*
X042740Y005576D01*
X051005Y006206D02*
X051340Y005872D01*
X051340Y005576D01*
X051322Y005347D02*
X051047Y005347D01*
X054005Y006206D02*
X054340Y005872D01*
X054340Y005576D01*
X059784Y005981D02*
X062018Y005981D01*
X061955Y005823D02*
X059847Y005823D01*
X059847Y005664D02*
X061955Y005664D01*
X061955Y005506D02*
X059847Y005506D01*
X059847Y005347D02*
X060122Y005347D01*
X060275Y005347D02*
X061955Y005347D01*
X062000Y005189D02*
X060496Y005189D01*
X060544Y005030D02*
X061687Y005030D01*
X061607Y004872D02*
X060517Y004872D01*
X060481Y004713D02*
X061618Y004713D01*
X061601Y004555D02*
X060536Y004555D01*
X060536Y004396D02*
X061492Y004396D01*
X061474Y004237D02*
X060536Y004237D01*
X060536Y004079D02*
X061538Y004079D01*
X063436Y004079D02*
X064438Y004079D01*
X064374Y004237D02*
X063436Y004237D01*
X063436Y004396D02*
X064392Y004396D01*
X064501Y004555D02*
X063436Y004555D01*
X063381Y004713D02*
X064518Y004713D01*
X064507Y004872D02*
X063417Y004872D01*
X063444Y005030D02*
X064587Y005030D01*
X064900Y005189D02*
X063396Y005189D01*
X063175Y005347D02*
X064855Y005347D01*
X064855Y005506D02*
X062747Y005506D01*
X062747Y005664D02*
X064855Y005664D01*
X064855Y005823D02*
X062747Y005823D01*
X062684Y005981D02*
X064918Y005981D01*
X065584Y005981D02*
X067818Y005981D01*
X067755Y005823D02*
X065647Y005823D01*
X065647Y005664D02*
X067755Y005664D01*
X067755Y005506D02*
X065647Y005506D01*
X065647Y005347D02*
X065922Y005347D01*
X066075Y005347D02*
X067755Y005347D01*
X067800Y005189D02*
X066296Y005189D01*
X066344Y005030D02*
X067487Y005030D01*
X067407Y004872D02*
X066317Y004872D01*
X066281Y004713D02*
X067418Y004713D01*
X067401Y004555D02*
X066336Y004555D01*
X066336Y004396D02*
X067292Y004396D01*
X067274Y004237D02*
X066336Y004237D01*
X066336Y004079D02*
X067338Y004079D01*
X069236Y004079D02*
X069785Y004079D01*
X069785Y004237D02*
X069236Y004237D01*
X069236Y004396D02*
X069785Y004396D01*
X069785Y004555D02*
X069236Y004555D01*
X069181Y004713D02*
X069785Y004713D01*
X069785Y004872D02*
X069217Y004872D01*
X069244Y005030D02*
X069785Y005030D01*
X069785Y005189D02*
X069196Y005189D01*
X068975Y005347D02*
X069785Y005347D01*
X069785Y005506D02*
X068547Y005506D01*
X068547Y005664D02*
X069785Y005664D01*
X069785Y005823D02*
X068547Y005823D01*
X068484Y005981D02*
X069785Y005981D01*
X068840Y005872D02*
X068505Y006206D01*
X065605Y006206D01*
X062705Y006206D01*
X059805Y006206D01*
X060140Y005872D01*
X060140Y005576D01*
X062747Y005347D02*
X063022Y005347D01*
X063040Y005576D02*
X063040Y005872D01*
X062705Y006206D01*
X065605Y006206D02*
X065940Y005872D01*
X065940Y005576D01*
X068547Y005347D02*
X068822Y005347D01*
X068840Y005576D02*
X068840Y005872D01*
X071899Y005347D02*
X073555Y005347D01*
X073600Y005189D02*
X072101Y005189D01*
X072144Y005030D02*
X073287Y005030D01*
X073207Y004872D02*
X072113Y004872D01*
X072091Y004713D02*
X073218Y004713D01*
X073201Y004555D02*
X072136Y004555D01*
X072136Y004396D02*
X073092Y004396D01*
X073074Y004237D02*
X072136Y004237D01*
X072136Y004079D02*
X073138Y004079D01*
X075036Y004079D02*
X076038Y004079D01*
X075974Y004237D02*
X075036Y004237D01*
X075036Y004396D02*
X075992Y004396D01*
X076101Y004555D02*
X075036Y004555D01*
X074981Y004713D02*
X076118Y004713D01*
X076107Y004872D02*
X075017Y004872D01*
X075044Y005030D02*
X076187Y005030D01*
X076500Y005189D02*
X074996Y005189D01*
X074775Y005347D02*
X076455Y005347D01*
X076455Y005506D02*
X074347Y005506D01*
X074347Y005664D02*
X076455Y005664D01*
X076455Y005823D02*
X074347Y005823D01*
X074284Y005981D02*
X076518Y005981D01*
X077184Y005981D02*
X079418Y005981D01*
X079355Y005823D02*
X077247Y005823D01*
X077247Y005664D02*
X079355Y005664D01*
X079355Y005506D02*
X077247Y005506D01*
X077247Y005347D02*
X077522Y005347D01*
X077675Y005347D02*
X079355Y005347D01*
X079400Y005189D02*
X077896Y005189D01*
X077944Y005030D02*
X079087Y005030D01*
X079007Y004872D02*
X077917Y004872D01*
X077881Y004713D02*
X079018Y004713D01*
X079001Y004555D02*
X077936Y004555D01*
X077936Y004396D02*
X078892Y004396D01*
X078874Y004237D02*
X077936Y004237D01*
X077936Y004079D02*
X078938Y004079D01*
X080836Y004079D02*
X081145Y004079D01*
X081145Y004237D02*
X080836Y004237D01*
X080836Y004396D02*
X081145Y004396D01*
X081145Y004555D02*
X080836Y004555D01*
X080781Y004713D02*
X081145Y004713D01*
X081145Y004872D02*
X080817Y004872D01*
X080844Y005030D02*
X081145Y005030D01*
X081145Y005189D02*
X080796Y005189D01*
X083047Y005292D02*
X083047Y005918D01*
X082953Y006012D01*
X082498Y006012D01*
X082404Y006106D01*
X082489Y006106D01*
X082606Y006155D01*
X082696Y006245D01*
X082745Y006363D01*
X082745Y006464D01*
X082748Y006466D01*
X083622Y006466D01*
X083625Y006464D01*
X083625Y006363D01*
X083674Y006245D01*
X083764Y006155D01*
X083881Y006106D01*
X084009Y006106D01*
X084126Y006155D01*
X084216Y006245D01*
X084265Y006363D01*
X084265Y006490D01*
X084216Y006608D01*
X084198Y006626D01*
X086982Y006626D01*
X087148Y006626D01*
X087183Y006661D01*
X087290Y006661D01*
X087409Y006711D01*
X087501Y006802D01*
X087505Y006813D01*
X087505Y006664D01*
X087622Y006546D01*
X087745Y006424D01*
X087862Y006306D01*
X088588Y006306D01*
X088705Y006424D01*
X088748Y006466D01*
X088902Y006466D01*
X089062Y006306D01*
X089126Y006306D01*
X089201Y006231D01*
X089321Y006181D01*
X089450Y006181D01*
X089569Y006231D01*
X089594Y006255D01*
X089622Y006226D01*
X089782Y006066D01*
X089948Y006066D01*
X091148Y006066D01*
X091265Y006184D01*
X091548Y006466D01*
X091782Y006466D01*
X092305Y005944D01*
X092305Y005448D01*
X092223Y005328D01*
X092168Y005350D01*
X092030Y005350D01*
X091903Y005298D01*
X091822Y005216D01*
X091747Y005292D01*
X091747Y005918D01*
X091653Y006012D01*
X091048Y006012D01*
X090955Y005918D01*
X090955Y005234D01*
X091048Y005141D01*
X091021Y005152D01*
X090883Y005152D01*
X090757Y005100D01*
X090660Y005003D01*
X090607Y004876D01*
X090607Y004739D01*
X090660Y004612D01*
X090674Y004598D01*
X090624Y004577D01*
X090527Y004480D01*
X090474Y004354D01*
X090474Y004216D01*
X090503Y004147D01*
X090422Y004066D01*
X089536Y004066D01*
X089536Y004658D01*
X089442Y004752D01*
X089433Y004752D01*
X089491Y004810D01*
X089544Y004937D01*
X089544Y005074D01*
X089491Y005201D01*
X089394Y005298D01*
X089268Y005350D01*
X089130Y005350D01*
X089003Y005298D01*
X088942Y005236D01*
X088847Y005331D01*
X088847Y005918D01*
X088753Y006012D01*
X088148Y006012D01*
X088055Y005918D01*
X088055Y005234D01*
X088148Y005141D01*
X088121Y005152D01*
X087983Y005152D01*
X087857Y005100D01*
X087760Y005003D01*
X087707Y004876D01*
X087707Y004739D01*
X087760Y004612D01*
X087774Y004598D01*
X087724Y004577D01*
X087627Y004480D01*
X087574Y004354D01*
X087574Y004258D01*
X087382Y004066D01*
X086985Y004066D01*
X087006Y004075D01*
X087096Y004165D01*
X087145Y004283D01*
X087145Y004384D01*
X087745Y004984D01*
X087745Y005149D01*
X087745Y005294D01*
X087816Y005365D01*
X087865Y005483D01*
X087865Y005610D01*
X087816Y005728D01*
X087726Y005818D01*
X087609Y005866D01*
X087481Y005866D01*
X087364Y005818D01*
X087274Y005728D01*
X087225Y005610D01*
X087225Y005483D01*
X087274Y005365D01*
X087345Y005294D01*
X087345Y005149D01*
X086862Y004666D01*
X086761Y004666D01*
X086644Y004618D01*
X086636Y004610D01*
X086636Y004658D01*
X086542Y004752D01*
X086533Y004752D01*
X086591Y004810D01*
X086644Y004937D01*
X086644Y005074D01*
X086591Y005201D01*
X086494Y005298D01*
X086368Y005350D01*
X086230Y005350D01*
X086103Y005298D01*
X086022Y005216D01*
X085947Y005291D01*
X085947Y005918D01*
X085853Y006012D01*
X085248Y006012D01*
X085155Y005918D01*
X085155Y005234D01*
X085248Y005141D01*
X085221Y005152D01*
X085083Y005152D01*
X084957Y005100D01*
X084860Y005003D01*
X084807Y004876D01*
X084807Y004739D01*
X084860Y004612D01*
X084874Y004598D01*
X084824Y004577D01*
X084731Y004485D01*
X084521Y004485D01*
X084404Y004368D01*
X084102Y004066D01*
X083736Y004066D01*
X083736Y004658D01*
X083642Y004752D01*
X083633Y004752D01*
X083691Y004810D01*
X083744Y004937D01*
X083744Y005074D01*
X083691Y005201D01*
X083594Y005298D01*
X083468Y005350D01*
X083330Y005350D01*
X083203Y005298D01*
X083122Y005216D01*
X083047Y005292D01*
X083047Y005347D02*
X083322Y005347D01*
X083475Y005347D02*
X085155Y005347D01*
X085155Y005506D02*
X083047Y005506D01*
X083047Y005664D02*
X085155Y005664D01*
X085155Y005823D02*
X083047Y005823D01*
X082984Y005981D02*
X085218Y005981D01*
X085884Y005981D02*
X088118Y005981D01*
X088055Y005823D02*
X087714Y005823D01*
X087843Y005664D02*
X088055Y005664D01*
X088055Y005506D02*
X087865Y005506D01*
X087799Y005347D02*
X088055Y005347D01*
X088100Y005189D02*
X087745Y005189D01*
X087745Y005030D02*
X087787Y005030D01*
X087707Y004872D02*
X087633Y004872D01*
X087718Y004713D02*
X087475Y004713D01*
X087316Y004555D02*
X087701Y004555D01*
X087592Y004396D02*
X087158Y004396D01*
X087126Y004237D02*
X087553Y004237D01*
X087395Y004079D02*
X087010Y004079D01*
X084801Y004555D02*
X083736Y004555D01*
X083736Y004396D02*
X084432Y004396D01*
X084273Y004237D02*
X083736Y004237D01*
X083736Y004079D02*
X084115Y004079D01*
X083681Y004713D02*
X084818Y004713D01*
X084807Y004872D02*
X083717Y004872D01*
X083744Y005030D02*
X084887Y005030D01*
X085200Y005189D02*
X083696Y005189D01*
X083340Y005576D02*
X083340Y005872D01*
X083005Y006206D01*
X083525Y006206D01*
X083705Y006026D01*
X084345Y006026D01*
X084505Y006186D01*
X085905Y006206D01*
X088805Y006206D01*
X088805Y006206D01*
X089140Y005872D01*
X089140Y005576D01*
X089122Y005347D02*
X088847Y005347D01*
X088847Y005506D02*
X090955Y005506D01*
X090955Y005664D02*
X088847Y005664D01*
X088847Y005823D02*
X090955Y005823D01*
X091018Y005981D02*
X088784Y005981D01*
X088985Y006026D02*
X088805Y006206D01*
X088985Y006026D02*
X091465Y006026D01*
X091645Y006206D01*
X091705Y006206D01*
X092040Y005872D01*
X092040Y005576D01*
X092022Y005347D02*
X091747Y005347D01*
X091747Y005506D02*
X092305Y005506D01*
X092305Y005664D02*
X091747Y005664D01*
X091747Y005823D02*
X092305Y005823D01*
X092267Y005981D02*
X091684Y005981D01*
X092109Y006140D02*
X091222Y006140D01*
X091380Y006299D02*
X091950Y006299D01*
X091792Y006457D02*
X091539Y006457D01*
X089709Y006140D02*
X084090Y006140D01*
X084239Y006299D02*
X089134Y006299D01*
X088912Y006457D02*
X088739Y006457D01*
X087712Y006457D02*
X084265Y006457D01*
X084209Y006616D02*
X087553Y006616D01*
X087505Y006774D02*
X087472Y006774D01*
X086240Y005872D02*
X085905Y006206D01*
X085947Y005823D02*
X087376Y005823D01*
X087248Y005664D02*
X085947Y005664D01*
X085947Y005506D02*
X087225Y005506D01*
X087292Y005347D02*
X086375Y005347D01*
X086222Y005347D02*
X085947Y005347D01*
X086240Y005576D02*
X086240Y005872D01*
X083801Y006140D02*
X082570Y006140D01*
X082719Y006299D02*
X083652Y006299D01*
X083625Y006457D02*
X082745Y006457D01*
X086596Y005189D02*
X087345Y005189D01*
X087226Y005030D02*
X086644Y005030D01*
X086617Y004872D02*
X087068Y004872D01*
X086909Y004713D02*
X086581Y004713D01*
X089481Y004713D02*
X090618Y004713D01*
X090607Y004872D02*
X089517Y004872D01*
X089544Y005030D02*
X090687Y005030D01*
X091000Y005189D02*
X089496Y005189D01*
X089275Y005347D02*
X090955Y005347D01*
X092175Y005347D02*
X092236Y005347D01*
X090601Y004555D02*
X089536Y004555D01*
X089536Y004396D02*
X090492Y004396D01*
X090474Y004237D02*
X089536Y004237D01*
X089536Y004079D02*
X090435Y004079D01*
X077540Y005576D02*
X077540Y005872D01*
X077205Y006206D01*
X074640Y005872D02*
X074640Y005576D01*
X074622Y005347D02*
X074347Y005347D01*
X074640Y005872D02*
X074305Y006206D01*
X080145Y008677D02*
X080816Y008677D01*
X080975Y008835D02*
X080145Y008835D01*
X080145Y008994D02*
X081133Y008994D01*
X081292Y009152D02*
X080145Y009152D01*
X082673Y009311D02*
X085945Y009311D01*
X085945Y009469D02*
X082675Y009469D01*
X083279Y009628D02*
X085945Y009628D01*
X087641Y010104D02*
X089745Y010104D01*
X089745Y010262D02*
X087665Y010262D01*
X087604Y010421D02*
X089817Y010421D01*
X089975Y010579D02*
X087555Y010579D01*
X087633Y010738D02*
X090134Y010738D01*
X090292Y010896D02*
X087792Y010896D01*
X087950Y011055D02*
X090150Y011055D01*
X090105Y011213D02*
X088109Y011213D01*
X088268Y011372D02*
X089997Y011372D01*
X089945Y011530D02*
X088426Y011530D01*
X088585Y011689D02*
X089945Y011689D01*
X089945Y011848D02*
X088743Y011848D01*
X088902Y012006D02*
X089945Y012006D01*
X089945Y012165D02*
X089060Y012165D01*
X089219Y012323D02*
X089945Y012323D01*
X089945Y012482D02*
X089377Y012482D01*
X089536Y012640D02*
X089843Y012640D01*
X089825Y012799D02*
X089694Y012799D01*
X089853Y012957D02*
X089904Y012957D01*
X090012Y013116D02*
X092993Y013116D01*
X093067Y013042D02*
X093393Y012854D01*
X093757Y012756D01*
X094133Y012756D01*
X094497Y012854D01*
X094823Y013042D01*
X095089Y013308D01*
X095278Y013634D01*
X095375Y013998D01*
X095375Y014375D01*
X095278Y014738D01*
X095089Y015064D01*
X094823Y015331D01*
X094497Y015519D01*
X094133Y015616D01*
X093757Y015616D01*
X093393Y015519D01*
X093067Y015331D01*
X092801Y015064D01*
X092613Y014738D01*
X092515Y014375D01*
X092515Y013998D01*
X092613Y013634D01*
X092801Y013308D01*
X093067Y013042D01*
X093214Y012957D02*
X090387Y012957D01*
X090465Y012799D02*
X093599Y012799D01*
X094291Y012799D02*
X095718Y012799D01*
X095838Y012957D02*
X094676Y012957D01*
X094897Y013116D02*
X095959Y013116D01*
X096031Y013274D02*
X095055Y013274D01*
X095161Y013433D02*
X096104Y013433D01*
X096166Y013591D02*
X095253Y013591D01*
X095309Y013750D02*
X096200Y013750D01*
X096233Y013909D02*
X095351Y013909D01*
X095375Y014067D02*
X096255Y014067D01*
X096253Y014226D02*
X095375Y014226D01*
X095373Y014384D02*
X096250Y014384D01*
X096238Y014543D02*
X095330Y014543D01*
X095288Y014701D02*
X096199Y014701D01*
X096161Y014860D02*
X095208Y014860D01*
X095116Y015018D02*
X096109Y015018D01*
X096030Y015177D02*
X094977Y015177D01*
X094815Y015335D02*
X095952Y015335D01*
X095842Y015494D02*
X094540Y015494D01*
X095713Y015653D02*
X092235Y015653D01*
X092141Y015746D01*
X091269Y015746D01*
X091175Y015653D01*
X091175Y014780D01*
X091269Y014686D01*
X092141Y014686D01*
X092235Y014780D01*
X092235Y015653D01*
X092235Y015494D02*
X093350Y015494D01*
X093075Y015335D02*
X092235Y015335D01*
X092235Y015177D02*
X092913Y015177D01*
X092774Y015018D02*
X092235Y015018D01*
X092235Y014860D02*
X092683Y014860D01*
X092603Y014701D02*
X092156Y014701D01*
X092560Y014543D02*
X090415Y014543D01*
X090415Y014701D02*
X091254Y014701D01*
X091175Y014860D02*
X090415Y014860D01*
X090405Y015018D02*
X091175Y015018D01*
X091175Y015177D02*
X090405Y015177D01*
X090405Y015335D02*
X091175Y015335D01*
X091175Y015494D02*
X090405Y015494D01*
X090415Y015653D02*
X091175Y015653D01*
X090297Y015811D02*
X095563Y015811D01*
X095361Y015970D02*
X090139Y015970D01*
X089271Y015970D02*
X081623Y015970D01*
X081379Y015811D02*
X084510Y015811D01*
X084351Y015653D02*
X081152Y015653D01*
X080990Y015494D02*
X084003Y015494D01*
X085197Y015653D02*
X088292Y015653D01*
X088205Y015494D02*
X085215Y015494D01*
X085215Y015335D02*
X088175Y015335D01*
X088189Y015177D02*
X085215Y015177D01*
X085215Y015018D02*
X088255Y015018D01*
X088423Y014860D02*
X085225Y014860D01*
X085182Y014701D02*
X089495Y014701D01*
X089495Y014543D02*
X085051Y014543D01*
X084745Y014384D02*
X087820Y014384D01*
X087785Y014349D02*
X087785Y014349D01*
X087662Y014226D02*
X084745Y014226D01*
X084745Y014067D02*
X087503Y014067D01*
X087345Y013909D02*
X084745Y013909D01*
X086781Y013750D02*
X087186Y013750D01*
X087027Y013591D02*
X086901Y013591D01*
X087714Y013433D02*
X088416Y013433D01*
X088425Y013274D02*
X087556Y013274D01*
X087397Y013116D02*
X088483Y013116D01*
X088821Y012799D02*
X087080Y012799D01*
X086922Y012640D02*
X088662Y012640D01*
X088504Y012482D02*
X086763Y012482D01*
X086605Y012323D02*
X088345Y012323D01*
X087865Y013266D02*
X086725Y011846D01*
X090345Y012323D02*
X090439Y012323D01*
X090505Y012482D02*
X090345Y012482D01*
X090448Y012640D02*
X090586Y012640D01*
X091064Y012640D02*
X095556Y012640D01*
X095368Y012482D02*
X091145Y012482D01*
X091129Y012323D02*
X095101Y012323D01*
X094711Y012165D02*
X091016Y012165D01*
X090688Y012006D02*
X094007Y012006D01*
X093907Y011848D02*
X090745Y011848D01*
X090731Y011689D02*
X090915Y011689D01*
X090865Y011530D02*
X090622Y011530D01*
X090711Y011372D02*
X090768Y011372D01*
X091505Y011530D02*
X092070Y011530D01*
X091920Y011372D02*
X091652Y011372D01*
X091767Y011213D02*
X091854Y011213D01*
X091845Y011055D02*
X091785Y011055D01*
X091708Y010896D02*
X091880Y010896D01*
X091974Y010738D02*
X091499Y010738D01*
X091341Y010579D02*
X092080Y010579D01*
X091860Y010421D02*
X091182Y010421D01*
X091024Y010262D02*
X091774Y010262D01*
X091745Y010104D02*
X090945Y010104D01*
X090945Y009945D02*
X091760Y009945D01*
X091826Y009786D02*
X090945Y009786D01*
X090945Y009628D02*
X091997Y009628D01*
X092009Y009469D02*
X090945Y009469D01*
X090945Y009311D02*
X091894Y009311D01*
X091578Y009152D02*
X090945Y009152D01*
X090945Y008994D02*
X091420Y008994D01*
X091261Y008835D02*
X090945Y008835D01*
X090945Y008677D02*
X091103Y008677D01*
X091849Y008518D02*
X093905Y008518D01*
X093905Y008360D02*
X091691Y008360D01*
X091532Y008201D02*
X093905Y008201D01*
X093905Y008042D02*
X091374Y008042D01*
X091411Y007884D02*
X093905Y007884D01*
X093905Y008677D02*
X092715Y008677D01*
X092845Y008835D02*
X093905Y008835D01*
X093905Y008994D02*
X092905Y008994D01*
X092905Y009152D02*
X093905Y009152D01*
X093905Y009311D02*
X092856Y009311D01*
X092742Y009469D02*
X093905Y009469D01*
X093905Y009628D02*
X092553Y009628D01*
X092725Y009786D02*
X093905Y009786D01*
X093905Y009945D02*
X092790Y009945D01*
X092805Y010104D02*
X093905Y010104D01*
X093905Y010262D02*
X092776Y010262D01*
X092691Y010421D02*
X093905Y010421D01*
X093905Y010579D02*
X092535Y010579D01*
X092776Y010738D02*
X093905Y010738D01*
X093905Y010896D02*
X092870Y010896D01*
X092905Y011055D02*
X093905Y011055D01*
X093905Y011213D02*
X092896Y011213D01*
X092831Y011372D02*
X093905Y011372D01*
X093905Y011530D02*
X092681Y011530D01*
X093905Y011689D02*
X091455Y011689D01*
X088825Y010546D02*
X087945Y010546D01*
X087239Y012957D02*
X088979Y012957D01*
X089007Y013116D02*
X089138Y013116D01*
X089065Y013274D02*
X089296Y013274D01*
X089455Y013433D02*
X089039Y013433D01*
X088893Y013591D02*
X089495Y013591D01*
X089495Y013750D02*
X088664Y013750D01*
X088580Y013909D02*
X088506Y013909D01*
X088257Y013591D02*
X087873Y013591D01*
X088032Y013750D02*
X088099Y013750D01*
X087985Y013266D02*
X087865Y013266D01*
X090170Y013274D02*
X092835Y013274D01*
X092729Y013433D02*
X090329Y013433D01*
X090415Y013591D02*
X092637Y013591D01*
X092582Y013750D02*
X090415Y013750D01*
X090415Y013909D02*
X092539Y013909D01*
X092515Y014067D02*
X090415Y014067D01*
X090415Y014226D02*
X092515Y014226D01*
X092518Y014384D02*
X090415Y014384D01*
X089495Y014384D02*
X089471Y014384D01*
X089140Y014384D02*
X088670Y014384D01*
X088988Y014860D02*
X089312Y014860D01*
X089214Y015018D02*
X089155Y015018D01*
X089113Y015811D02*
X088896Y015811D01*
X088514Y015811D02*
X085100Y015811D01*
X082438Y016287D02*
X094727Y016287D01*
X095105Y016128D02*
X081964Y016128D01*
D17*
X090705Y015316D02*
X090705Y014866D01*
X091625Y013946D01*
X091625Y012906D01*
X093145Y011386D01*
X093145Y008666D01*
X092585Y008106D01*
X092295Y008106D01*
X092275Y008086D01*
X091785Y008906D02*
X091145Y008266D01*
X091785Y008906D02*
X092195Y008906D01*
X092375Y009086D01*
D18*
X091145Y008266D03*
X088265Y007706D03*
X090265Y006746D03*
X091705Y007306D03*
X087545Y005546D03*
X083945Y006426D03*
X082425Y006426D03*
X082025Y006666D03*
X083465Y007946D03*
X083065Y008986D03*
X083065Y009866D03*
X086625Y010186D03*
X087345Y010226D03*
X090425Y011226D03*
X091185Y011506D03*
X091465Y011106D03*
X090425Y011786D03*
X090825Y012426D03*
X090145Y012746D03*
X088745Y013306D03*
X089305Y014106D03*
X084035Y011896D03*
X071265Y008586D03*
X071705Y008026D03*
X071265Y007946D03*
X072185Y008106D03*
X086825Y004346D03*
D19*
X087545Y005066D01*
X087545Y005546D01*
X088052Y004807D02*
X088649Y004807D01*
X089140Y004317D01*
X087919Y004285D02*
X087884Y004285D01*
X087465Y003866D01*
X084425Y003866D01*
X084265Y003706D01*
X083305Y003706D01*
X082905Y003306D01*
X082265Y003306D01*
X082185Y003386D01*
X076345Y003386D01*
X076185Y003226D01*
X076025Y003386D01*
X074025Y003386D01*
X073705Y003066D01*
X073305Y003066D01*
X072985Y003386D01*
X071545Y003386D01*
X071225Y003066D01*
X070665Y003066D01*
X070345Y003386D01*
X064825Y003386D01*
X064665Y003226D01*
X064505Y003386D01*
X062265Y003386D01*
X061945Y003066D01*
X061625Y003066D01*
X061305Y003386D01*
X060025Y003386D01*
X059705Y003066D01*
X059145Y003066D01*
X058825Y003386D01*
X053305Y003386D01*
X053145Y003226D01*
X052985Y003386D01*
X050505Y003386D01*
X050185Y003066D01*
X049865Y003066D01*
X049545Y003386D01*
X048265Y003386D01*
X047945Y003066D01*
X047465Y003066D01*
X047145Y003386D01*
X041625Y003386D01*
X041465Y003226D01*
X041305Y003386D01*
X039145Y003386D01*
X038825Y003066D01*
X038345Y003066D01*
X038025Y003386D01*
X036825Y003386D01*
X036505Y003066D01*
X036025Y003066D01*
X035705Y003386D01*
X030105Y003386D01*
X029945Y003226D01*
X029785Y003386D01*
X027545Y003386D01*
X027225Y003066D01*
X026905Y003066D01*
X026585Y003386D01*
X025225Y003386D01*
X024905Y003066D01*
X024345Y003066D01*
X024025Y003386D01*
X018345Y003386D01*
X018185Y003226D01*
X018025Y003386D01*
X015945Y003386D01*
X015625Y003066D01*
X015305Y003066D01*
X014985Y003386D01*
X013465Y003386D01*
X013145Y003066D01*
X012665Y003066D01*
X012345Y003386D01*
X008105Y003386D01*
X007945Y003226D01*
X005305Y003546D02*
X012425Y003546D01*
X012745Y003226D01*
X013065Y003226D01*
X013385Y003546D01*
X015305Y003546D01*
X015465Y003386D01*
X015625Y003546D01*
X024105Y003546D01*
X024425Y003226D01*
X024825Y003226D01*
X025145Y003546D01*
X026905Y003546D01*
X027065Y003386D01*
X027225Y003546D01*
X035785Y003546D01*
X036105Y003226D01*
X036425Y003226D01*
X036745Y003546D01*
X038425Y003546D01*
X038585Y003386D01*
X038745Y003546D01*
X047225Y003546D01*
X047545Y003226D01*
X047865Y003226D01*
X048185Y003546D01*
X049865Y003546D01*
X050025Y003386D01*
X050185Y003546D01*
X058905Y003546D01*
X059225Y003226D01*
X059625Y003226D01*
X059945Y003546D01*
X061625Y003546D01*
X061785Y003386D01*
X061819Y003421D01*
X061945Y003546D01*
X070425Y003546D01*
X070745Y003226D01*
X071145Y003226D01*
X071465Y003546D01*
X073305Y003546D01*
X073465Y003386D01*
X073625Y003546D01*
X082265Y003546D01*
X082345Y003466D01*
X082825Y003466D01*
X083225Y003866D01*
X084185Y003866D01*
X084604Y004285D01*
X085019Y004285D01*
X085749Y004807D02*
X086240Y004317D01*
X085749Y004807D02*
X085152Y004807D01*
X083340Y004317D02*
X082849Y004807D01*
X082252Y004807D01*
X082619Y004285D02*
X082201Y003866D01*
X071305Y003866D01*
X059705Y003866D01*
X048025Y003866D01*
X036585Y003866D01*
X024825Y003866D01*
X013145Y003866D01*
X001625Y003866D01*
X001545Y003946D01*
X001545Y004222D01*
X001451Y004317D01*
X001649Y004807D02*
X002140Y004317D01*
X001649Y004807D02*
X001052Y004807D01*
X003952Y004807D02*
X004549Y004807D01*
X005040Y004317D01*
X006852Y004807D02*
X007449Y004807D01*
X007940Y004317D01*
X009752Y004807D02*
X010349Y004807D01*
X010840Y004317D01*
X012652Y004807D02*
X013249Y004807D01*
X013740Y004317D01*
X013065Y004302D02*
X013051Y004317D01*
X013065Y004302D02*
X013065Y003946D01*
X013145Y003866D01*
X013065Y003706D02*
X024425Y003706D01*
X024585Y003546D01*
X024745Y003706D01*
X036105Y003706D01*
X036265Y003546D01*
X036425Y003706D01*
X047545Y003706D01*
X047705Y003546D01*
X047865Y003706D01*
X059225Y003706D01*
X059385Y003546D01*
X059545Y003706D01*
X070825Y003706D01*
X070985Y003546D01*
X071145Y003706D01*
X082345Y003706D01*
X082425Y003786D01*
X082585Y003786D01*
X082985Y003146D02*
X083385Y003546D01*
X084345Y003546D01*
X084505Y003706D01*
X087625Y003706D01*
X087785Y003866D01*
X090505Y003866D01*
X090819Y004181D01*
X090819Y004285D01*
X091549Y004807D02*
X092040Y004317D01*
X092075Y004317D01*
X092665Y005186D01*
X092665Y006106D01*
X091945Y006826D01*
X091385Y006826D01*
X090985Y006426D01*
X089945Y006426D01*
X089865Y006506D01*
X089865Y006746D01*
X089625Y006986D01*
X088825Y006986D01*
X088505Y007306D01*
X088105Y007306D01*
X087945Y007466D01*
X088025Y007466D01*
X088265Y007706D01*
X087945Y007466D02*
X087625Y007786D01*
X086825Y007786D01*
X086505Y007466D01*
X085785Y007466D01*
X085305Y007946D01*
X084825Y007946D01*
X084505Y007626D01*
X082105Y007626D01*
X081785Y007946D01*
X081145Y007946D01*
X080825Y007626D01*
X079465Y007626D01*
X079305Y007786D01*
X079065Y007786D01*
X078905Y007946D01*
X078105Y007946D01*
X077785Y007626D01*
X076905Y007626D01*
X076585Y007946D01*
X075145Y007946D01*
X074825Y007626D01*
X073785Y007626D01*
X073465Y007946D01*
X072985Y007946D01*
X072665Y007626D01*
X069705Y007626D01*
X069305Y008026D01*
X068585Y008026D01*
X068185Y007626D01*
X067945Y007626D01*
X067785Y007786D01*
X067545Y007786D01*
X067385Y007946D01*
X066585Y007946D01*
X066265Y007626D01*
X065465Y007626D01*
X065145Y007946D01*
X063625Y007946D01*
X063305Y007626D01*
X062265Y007626D01*
X061945Y007946D01*
X061465Y007946D01*
X061145Y007626D01*
X057945Y007626D01*
X057625Y007946D01*
X056985Y007946D01*
X056665Y007626D01*
X056185Y007626D01*
X056025Y007786D01*
X055785Y007786D01*
X055625Y007946D01*
X054825Y007946D01*
X054505Y007626D01*
X053625Y007626D01*
X053305Y007946D01*
X051785Y007946D01*
X051465Y007626D01*
X050745Y007626D01*
X050425Y007946D01*
X049945Y007946D01*
X049625Y007626D01*
X046185Y007626D01*
X045865Y007946D01*
X045225Y007946D01*
X044905Y007626D01*
X044585Y007626D01*
X044425Y007786D01*
X044265Y007786D01*
X044105Y007946D01*
X043305Y007946D01*
X042985Y007626D01*
X042105Y007626D01*
X041785Y007946D01*
X040345Y007946D01*
X040025Y007626D01*
X038985Y007626D01*
X038665Y007946D01*
X038185Y007946D01*
X037865Y007626D01*
X034825Y007626D01*
X034505Y007946D01*
X033785Y007946D01*
X033465Y007626D01*
X032905Y007626D01*
X032745Y007786D01*
X032505Y007786D01*
X032345Y007946D01*
X031545Y007946D01*
X031225Y007626D01*
X030345Y007626D01*
X030025Y007946D01*
X028505Y007946D01*
X028185Y007626D01*
X027625Y007626D01*
X027305Y007946D01*
X026825Y007946D01*
X026505Y007626D01*
X023225Y007626D01*
X022905Y007946D01*
X022265Y007946D01*
X021945Y007626D01*
X021465Y007626D01*
X021305Y007786D01*
X021065Y007786D01*
X020905Y007946D01*
X020105Y007946D01*
X019785Y007626D01*
X018905Y007626D01*
X018585Y007946D01*
X017065Y007946D01*
X016745Y007626D01*
X016105Y007626D01*
X015785Y007946D01*
X015305Y007946D01*
X014985Y007626D01*
X013145Y007626D01*
X012825Y007946D01*
X012185Y007946D01*
X011705Y007466D01*
X010585Y007466D01*
X010425Y007626D01*
X009705Y007306D02*
X009385Y007626D01*
X008825Y007626D01*
X008345Y007146D01*
X007625Y007146D01*
X007305Y007466D01*
X006345Y006986D02*
X006025Y007306D01*
X005705Y007306D01*
X005545Y007146D01*
X005545Y006906D01*
X005465Y006826D01*
X004825Y006826D01*
X004665Y006986D01*
X005865Y006986D02*
X006025Y006826D01*
X017385Y006826D01*
X017545Y006986D01*
X017705Y006826D01*
X028825Y006826D01*
X028985Y006986D01*
X029065Y006986D01*
X029225Y006826D01*
X040585Y006826D01*
X040745Y006986D01*
X040825Y006986D01*
X040985Y006826D01*
X052025Y006826D01*
X052185Y006986D01*
X052265Y006986D01*
X052425Y006826D01*
X063865Y006826D01*
X064025Y006986D01*
X064105Y006986D01*
X064265Y006826D01*
X075465Y006826D01*
X075625Y006986D01*
X075785Y006826D01*
X082025Y006826D01*
X082025Y006666D01*
X082025Y006826D02*
X087065Y006826D01*
X087225Y006986D01*
X087065Y007306D02*
X086745Y006986D01*
X078665Y006986D01*
X078505Y007146D01*
X078345Y006986D01*
X076105Y006986D01*
X075785Y007306D01*
X075465Y007306D01*
X075145Y006986D01*
X067145Y006986D01*
X066985Y007146D01*
X066825Y006986D01*
X064585Y006986D01*
X064265Y007306D01*
X063945Y007306D01*
X063625Y006986D01*
X055385Y006986D01*
X055225Y007146D01*
X055065Y006986D01*
X052745Y006986D01*
X052425Y007306D01*
X052105Y007306D01*
X051785Y006986D01*
X043865Y006986D01*
X043705Y007146D01*
X043545Y006986D01*
X041305Y006986D01*
X040985Y007306D01*
X040665Y007306D01*
X040345Y006986D01*
X032105Y006986D01*
X031945Y007146D01*
X031865Y007146D01*
X031705Y006986D01*
X029545Y006986D01*
X029225Y007306D01*
X028825Y007306D01*
X028505Y006986D01*
X020665Y006986D01*
X020505Y007146D01*
X020505Y007066D01*
X020425Y006986D01*
X018025Y006986D01*
X017705Y007306D01*
X017385Y007306D01*
X017065Y006986D01*
X009225Y006986D01*
X009065Y007146D01*
X008905Y007466D02*
X008425Y006986D01*
X006345Y006986D01*
X004225Y006666D02*
X003825Y006266D01*
X002745Y006266D01*
X004225Y006666D02*
X011961Y006666D01*
X023561Y006666D01*
X035161Y006666D01*
X046661Y006666D01*
X058361Y006666D01*
X069971Y006666D01*
X081561Y006666D01*
X082651Y005576D01*
X082425Y006426D02*
X082665Y006666D01*
X083705Y006666D01*
X083945Y006426D01*
X084905Y007306D02*
X081945Y007306D01*
X081625Y007626D01*
X081305Y007626D01*
X080985Y007306D01*
X079065Y007306D01*
X078745Y007626D01*
X078265Y007626D01*
X077945Y007306D01*
X076265Y007306D01*
X075945Y007626D01*
X075305Y007626D01*
X074985Y007306D01*
X073385Y007306D01*
X073225Y007466D01*
X073065Y007306D01*
X069545Y007306D01*
X069145Y007706D01*
X068745Y007706D01*
X068345Y007306D01*
X067545Y007306D01*
X067225Y007626D01*
X066745Y007626D01*
X066425Y007306D01*
X064745Y007306D01*
X064425Y007626D01*
X063785Y007626D01*
X063465Y007306D01*
X061865Y007306D01*
X061705Y007466D01*
X061545Y007306D01*
X057785Y007306D01*
X057465Y007626D01*
X057145Y007626D01*
X056825Y007306D01*
X055785Y007306D01*
X055465Y007626D01*
X054985Y007626D01*
X054665Y007306D01*
X052905Y007306D01*
X052585Y007626D01*
X051945Y007626D01*
X051625Y007306D01*
X050345Y007306D01*
X050185Y007466D01*
X050025Y007306D01*
X046025Y007306D01*
X045705Y007626D01*
X045385Y007626D01*
X045065Y007306D01*
X044265Y007306D01*
X043945Y007626D01*
X043465Y007626D01*
X043145Y007306D01*
X041465Y007306D01*
X041145Y007626D01*
X040505Y007626D01*
X040185Y007306D01*
X038585Y007306D01*
X038425Y007466D01*
X038265Y007306D01*
X034665Y007306D01*
X034345Y007626D01*
X033945Y007626D01*
X033625Y007306D01*
X032505Y007306D01*
X032185Y007626D01*
X031705Y007626D01*
X031385Y007306D01*
X029705Y007306D01*
X029385Y007626D01*
X028665Y007626D01*
X028345Y007306D01*
X027225Y007306D01*
X027065Y007466D01*
X026905Y007306D01*
X023065Y007306D01*
X022745Y007626D01*
X022425Y007626D01*
X022105Y007306D01*
X021065Y007306D01*
X020745Y007626D01*
X020265Y007626D01*
X019945Y007306D01*
X018185Y007306D01*
X017865Y007626D01*
X017225Y007626D01*
X016905Y007306D01*
X015705Y007306D01*
X015545Y007466D01*
X015385Y007306D01*
X012985Y007306D01*
X012665Y007626D01*
X012345Y007626D01*
X011865Y007146D01*
X009625Y007146D01*
X009305Y007466D01*
X008905Y007466D01*
X009705Y007306D02*
X011785Y007306D01*
X012265Y007786D01*
X012745Y007786D01*
X013065Y007466D01*
X015065Y007466D01*
X015385Y007786D01*
X015705Y007786D01*
X016025Y007466D01*
X016825Y007466D01*
X017145Y007786D01*
X017945Y007786D01*
X018105Y007626D01*
X018345Y007626D01*
X018505Y007466D01*
X019865Y007466D01*
X020185Y007786D01*
X020825Y007786D01*
X021145Y007466D01*
X022025Y007466D01*
X022345Y007786D01*
X022825Y007786D01*
X023145Y007466D01*
X026585Y007466D01*
X026905Y007786D01*
X027225Y007786D01*
X027545Y007466D01*
X028265Y007466D01*
X028585Y007786D01*
X029545Y007786D01*
X029705Y007626D01*
X029865Y007626D01*
X030025Y007466D01*
X031305Y007466D01*
X031625Y007786D01*
X032265Y007786D01*
X032585Y007466D01*
X033545Y007466D01*
X033865Y007786D01*
X034425Y007786D01*
X034745Y007466D01*
X037945Y007466D01*
X038265Y007786D01*
X038585Y007786D01*
X038905Y007466D01*
X040105Y007466D01*
X040425Y007786D01*
X041225Y007786D01*
X041385Y007626D01*
X041625Y007626D01*
X041785Y007466D01*
X043065Y007466D01*
X043385Y007786D01*
X044025Y007786D01*
X044345Y007466D01*
X044985Y007466D01*
X045305Y007786D01*
X045785Y007786D01*
X046105Y007466D01*
X049705Y007466D01*
X050025Y007786D01*
X050345Y007786D01*
X050665Y007466D01*
X051545Y007466D01*
X051865Y007786D01*
X052665Y007786D01*
X052825Y007626D01*
X053145Y007626D01*
X053305Y007466D01*
X054585Y007466D01*
X054905Y007786D01*
X055545Y007786D01*
X055865Y007466D01*
X056745Y007466D01*
X057065Y007786D01*
X057545Y007786D01*
X057865Y007466D01*
X061225Y007466D01*
X061545Y007786D01*
X061865Y007786D01*
X062185Y007466D01*
X063385Y007466D01*
X063705Y007786D01*
X064505Y007786D01*
X064665Y007626D01*
X064985Y007626D01*
X065145Y007466D01*
X066345Y007466D01*
X066665Y007786D01*
X067305Y007786D01*
X067625Y007466D01*
X068265Y007466D01*
X068665Y007866D01*
X069225Y007866D01*
X069625Y007466D01*
X072745Y007466D01*
X073065Y007786D01*
X073385Y007786D01*
X073705Y007466D01*
X074905Y007466D01*
X075225Y007786D01*
X076025Y007786D01*
X076185Y007626D01*
X076345Y007626D01*
X076505Y007466D01*
X077865Y007466D01*
X078185Y007786D01*
X078825Y007786D01*
X079145Y007466D01*
X080905Y007466D01*
X081225Y007786D01*
X081705Y007786D01*
X082025Y007466D01*
X084585Y007466D01*
X084905Y007786D01*
X085225Y007786D01*
X085705Y007306D01*
X086585Y007306D01*
X086905Y007626D01*
X087545Y007626D01*
X088185Y006986D01*
X088265Y006986D01*
X088585Y006826D02*
X088425Y006666D01*
X088025Y006666D01*
X087865Y006826D01*
X087865Y007066D01*
X087465Y007466D01*
X086985Y007466D01*
X086665Y007146D01*
X081625Y007146D01*
X081465Y007306D01*
X081305Y007146D01*
X078985Y007146D01*
X078665Y007466D01*
X078345Y007466D01*
X078025Y007146D01*
X076185Y007146D01*
X075865Y007466D01*
X075385Y007466D01*
X075065Y007146D01*
X068905Y007146D01*
X068905Y007386D01*
X068905Y007146D02*
X067465Y007146D01*
X067145Y007466D01*
X066825Y007466D01*
X066505Y007146D01*
X064665Y007146D01*
X064345Y007466D01*
X063865Y007466D01*
X063545Y007146D01*
X057465Y007146D01*
X057305Y007306D01*
X057145Y007146D01*
X055705Y007146D01*
X055385Y007466D01*
X055065Y007466D01*
X054745Y007146D01*
X052825Y007146D01*
X052505Y007466D01*
X052025Y007466D01*
X051705Y007146D01*
X045705Y007146D01*
X045545Y007306D01*
X045385Y007146D01*
X044185Y007146D01*
X043865Y007466D01*
X043545Y007466D01*
X043225Y007146D01*
X041385Y007146D01*
X041065Y007466D01*
X040585Y007466D01*
X040265Y007146D01*
X034265Y007146D01*
X034105Y007306D01*
X033945Y007146D01*
X032425Y007146D01*
X032105Y007466D01*
X031785Y007466D01*
X031465Y007146D01*
X029625Y007146D01*
X029305Y007466D01*
X028745Y007466D01*
X028425Y007146D01*
X022745Y007146D01*
X022585Y007306D01*
X022425Y007146D01*
X020985Y007146D01*
X020665Y007466D01*
X020345Y007466D01*
X020025Y007146D01*
X018105Y007146D01*
X017785Y007466D01*
X017305Y007466D01*
X016985Y007146D01*
X012665Y007146D01*
X012505Y007306D01*
X011961Y006666D02*
X013051Y005576D01*
X015552Y004807D02*
X016149Y004807D01*
X016640Y004317D01*
X018452Y004807D02*
X019049Y004807D01*
X019540Y004317D01*
X021352Y004807D02*
X021949Y004807D01*
X022440Y004317D01*
X024252Y004807D02*
X024849Y004807D01*
X025340Y004317D01*
X024825Y003866D02*
X024651Y004041D01*
X024651Y004317D01*
X027152Y004807D02*
X027749Y004807D01*
X028240Y004317D01*
X030052Y004807D02*
X030649Y004807D01*
X031140Y004317D01*
X032952Y004807D02*
X033549Y004807D01*
X034040Y004317D01*
X035852Y004807D02*
X036449Y004807D01*
X036940Y004317D01*
X036585Y003866D02*
X036251Y004201D01*
X036251Y004317D01*
X038752Y004807D02*
X039349Y004807D01*
X039840Y004317D01*
X041652Y004807D02*
X042249Y004807D01*
X042740Y004317D01*
X044452Y004807D02*
X045049Y004807D01*
X045540Y004317D01*
X047352Y004807D02*
X047949Y004807D01*
X048440Y004317D01*
X048025Y003866D02*
X047751Y004141D01*
X047751Y004317D01*
X050252Y004807D02*
X050849Y004807D01*
X051340Y004317D01*
X053252Y004807D02*
X053849Y004807D01*
X054340Y004317D01*
X056152Y004807D02*
X056749Y004807D01*
X057240Y004317D01*
X059052Y004807D02*
X059649Y004807D01*
X060140Y004317D01*
X059705Y003866D02*
X059451Y004121D01*
X059451Y004317D01*
X061952Y004807D02*
X062549Y004807D01*
X063040Y004317D01*
X064852Y004807D02*
X065449Y004807D01*
X065940Y004317D01*
X067752Y004807D02*
X068349Y004807D01*
X068840Y004317D01*
X070652Y004817D02*
X071249Y004817D01*
X071740Y004327D01*
X071305Y003866D02*
X071051Y004121D01*
X071051Y004327D01*
X073552Y004807D02*
X074149Y004807D01*
X074640Y004317D01*
X076452Y004807D02*
X077049Y004807D01*
X077540Y004317D01*
X079352Y004807D02*
X079949Y004807D01*
X080440Y004317D01*
X079305Y003226D02*
X082105Y003226D01*
X082185Y003146D01*
X082985Y003146D01*
X079305Y003226D02*
X079145Y003066D01*
X078985Y003226D01*
X076665Y003226D01*
X076345Y002906D01*
X076025Y002906D01*
X075705Y003226D01*
X074105Y003226D01*
X073785Y002906D01*
X073225Y002906D01*
X072905Y003226D01*
X071625Y003226D01*
X071305Y002906D01*
X070585Y002906D01*
X070265Y003226D01*
X067625Y003226D01*
X067465Y003066D01*
X067305Y003226D01*
X065145Y003226D01*
X064825Y002906D01*
X064505Y002906D01*
X064185Y003226D01*
X062345Y003226D01*
X062025Y002906D01*
X061545Y002906D01*
X061225Y003226D01*
X060105Y003226D01*
X059785Y002906D01*
X059065Y002906D01*
X058745Y003226D01*
X056105Y003226D01*
X055945Y003066D01*
X055785Y003226D01*
X053625Y003226D01*
X053305Y002906D01*
X052985Y002906D01*
X052665Y003226D01*
X050585Y003226D01*
X050265Y002906D01*
X049705Y002906D01*
X049385Y003226D01*
X048345Y003226D01*
X048025Y002906D01*
X047385Y002906D01*
X047065Y003226D01*
X044345Y003226D01*
X044185Y003066D01*
X044025Y003226D01*
X041945Y003226D01*
X041625Y002906D01*
X041305Y002906D01*
X040985Y003226D01*
X039225Y003226D01*
X038905Y002906D01*
X038265Y002906D01*
X037945Y003226D01*
X036905Y003226D01*
X036585Y002906D01*
X035945Y002906D01*
X035625Y003226D01*
X032985Y003226D01*
X032825Y003066D01*
X032665Y003226D01*
X030505Y003226D01*
X030185Y002906D01*
X029785Y002906D01*
X029465Y003226D01*
X027625Y003226D01*
X027305Y002906D01*
X026825Y002906D01*
X026505Y003226D01*
X025305Y003226D01*
X024985Y002906D01*
X024265Y002906D01*
X023945Y003226D01*
X021145Y003226D01*
X020985Y003066D01*
X020825Y003226D01*
X018745Y003226D01*
X018425Y002906D01*
X018025Y002906D01*
X017705Y003226D01*
X016025Y003226D01*
X015705Y002906D01*
X015225Y002906D01*
X014905Y003226D01*
X013545Y003226D01*
X013225Y002906D01*
X012585Y002906D01*
X012265Y003226D01*
X011065Y003226D01*
X010905Y003066D01*
X012745Y003706D02*
X012905Y003546D01*
X013065Y003706D01*
X012745Y003706D02*
X001265Y003706D01*
X005145Y003386D02*
X005305Y003546D01*
X023561Y006666D02*
X024651Y005576D01*
X035161Y006666D02*
X036251Y005576D01*
X044425Y007786D02*
X044505Y007786D01*
X046661Y006666D02*
X047751Y005576D01*
X058361Y006666D02*
X059451Y005576D01*
X069971Y006666D02*
X071051Y005586D01*
X076345Y007626D02*
X076425Y007626D01*
X079505Y008146D02*
X072865Y008146D01*
X072505Y007786D01*
X071945Y007786D01*
X071705Y008026D01*
X079505Y008146D02*
X079865Y007786D01*
X080745Y007786D01*
X081225Y008266D01*
X085785Y008266D01*
X086145Y008626D01*
X086145Y012426D01*
X087985Y014266D01*
X088505Y014266D01*
X088665Y014106D01*
X089305Y014106D01*
X088745Y013386D02*
X088065Y014066D01*
X086305Y012306D01*
X086305Y008386D01*
X086025Y008106D01*
X084745Y008106D01*
X084425Y007786D01*
X083625Y007786D01*
X083465Y007946D01*
X084905Y007306D02*
X085065Y007466D01*
X087065Y007306D02*
X087385Y007306D01*
X087705Y006986D01*
X087705Y006746D01*
X087945Y006506D01*
X088505Y006506D01*
X088665Y006666D01*
X088985Y006666D01*
X089145Y006506D01*
X089385Y006506D01*
X089705Y006426D02*
X089705Y006666D01*
X089545Y006826D01*
X088585Y006826D01*
X089945Y007066D02*
X089945Y010266D01*
X091185Y011506D01*
X090425Y011226D02*
X090145Y011506D01*
X090145Y012746D01*
X090825Y012426D02*
X090425Y012026D01*
X090425Y011786D01*
X091465Y011106D02*
X091465Y010986D01*
X090745Y010266D01*
X090745Y008026D01*
X090825Y007946D01*
X091065Y007946D01*
X091705Y007306D01*
X090265Y006746D02*
X089945Y007066D01*
X091065Y006266D02*
X091465Y006666D01*
X091865Y006666D01*
X092505Y006026D01*
X092505Y005386D01*
X092244Y005006D01*
X092099Y005006D01*
X091549Y004807D02*
X090952Y004807D01*
X091065Y006266D02*
X089865Y006266D01*
X089705Y006426D01*
X088745Y013306D02*
X088745Y013386D01*
X090205Y014826D02*
X090205Y015606D01*
D20*
X010905Y003066D03*
X012905Y003546D03*
X015465Y003386D03*
X018185Y003226D03*
X020985Y003066D03*
X024585Y003546D03*
X027065Y003386D03*
X029945Y003226D03*
X032825Y003066D03*
X036265Y003546D03*
X038585Y003386D03*
X041465Y003226D03*
X044185Y003066D03*
X047705Y003546D03*
X050025Y003386D03*
X053145Y003226D03*
X055945Y003066D03*
X059385Y003546D03*
X061819Y003421D03*
X064665Y003226D03*
X067465Y003066D03*
X070985Y003546D03*
X073465Y003386D03*
X076185Y003226D03*
X079145Y003066D03*
X082585Y003786D03*
X089385Y006506D03*
X088265Y006986D03*
X087225Y006986D03*
X085065Y007466D03*
X081465Y007306D03*
X079305Y007786D03*
X078505Y007146D03*
X076425Y007626D03*
X075625Y006986D03*
X073225Y007466D03*
X068905Y007386D03*
X067785Y007786D03*
X064985Y007626D03*
X066985Y007146D03*
X064105Y006986D03*
X061705Y007466D03*
X057305Y007306D03*
X055225Y007146D03*
X053145Y007626D03*
X056025Y007786D03*
X052265Y006986D03*
X050185Y007466D03*
X045545Y007306D03*
X043705Y007146D03*
X041625Y007626D03*
X040825Y006986D03*
X038425Y007466D03*
X034105Y007306D03*
X031945Y007146D03*
X029865Y007626D03*
X029065Y006986D03*
X027065Y007466D03*
X022585Y007306D03*
X020505Y007146D03*
X018345Y007626D03*
X017545Y006986D03*
X015545Y007466D03*
X012505Y007306D03*
X010425Y007626D03*
X009065Y007146D03*
X007305Y007466D03*
X005865Y006986D03*
X004665Y006986D03*
X002745Y006266D03*
X001265Y003706D03*
X005145Y003386D03*
X007945Y003226D03*
X021305Y007786D03*
X032745Y007786D03*
X044505Y007786D03*
D21*
X044851Y005576D02*
X044851Y005361D01*
X045225Y004986D01*
X045580Y004986D01*
X045599Y005006D01*
X047751Y005421D02*
X048185Y004986D01*
X048480Y004986D01*
X048499Y005006D01*
X047751Y005421D02*
X047751Y005576D01*
X050651Y005576D02*
X050651Y005401D01*
X051065Y004986D01*
X051380Y004986D01*
X051399Y005006D01*
X053651Y005361D02*
X054025Y004986D01*
X054380Y004986D01*
X054399Y005006D01*
X053651Y005361D02*
X053651Y005576D01*
X056551Y005576D02*
X056551Y005421D01*
X056985Y004986D01*
X057280Y004986D01*
X057299Y005006D01*
X059451Y005401D02*
X059865Y004986D01*
X060180Y004986D01*
X060199Y005006D01*
X059451Y005401D02*
X059451Y005576D01*
X062351Y005576D02*
X062351Y005381D01*
X062745Y004986D01*
X063080Y004986D01*
X063099Y005006D01*
X065251Y005361D02*
X065625Y004986D01*
X065980Y004986D01*
X065999Y005006D01*
X065251Y005361D02*
X065251Y005576D01*
X068151Y005576D02*
X068151Y005421D01*
X068585Y004986D01*
X068880Y004986D01*
X068899Y005006D01*
X071051Y005401D02*
X071465Y004986D01*
X071770Y004986D01*
X071799Y005016D01*
X071051Y005401D02*
X071051Y005586D01*
X073951Y005576D02*
X073951Y005381D01*
X074345Y004986D01*
X074680Y004986D01*
X074699Y005006D01*
X073951Y004317D02*
X073919Y004285D01*
X073419Y004285D01*
X071051Y004327D02*
X071019Y004295D01*
X070519Y004295D01*
X068151Y004317D02*
X068119Y004285D01*
X067619Y004285D01*
X065251Y004317D02*
X065219Y004285D01*
X064719Y004285D01*
X062351Y004317D02*
X062319Y004285D01*
X061819Y004285D01*
X059451Y004317D02*
X059419Y004285D01*
X058919Y004285D01*
X056551Y004317D02*
X056519Y004285D01*
X056019Y004285D01*
X053651Y004317D02*
X053619Y004285D01*
X053119Y004285D01*
X050651Y004317D02*
X050619Y004285D01*
X050119Y004285D01*
X047751Y004317D02*
X047719Y004285D01*
X047219Y004285D01*
X044851Y004317D02*
X044819Y004285D01*
X044319Y004285D01*
X042799Y005006D02*
X042780Y004986D01*
X042425Y004986D01*
X042051Y005361D01*
X042051Y005576D01*
X039899Y005006D02*
X039880Y004986D01*
X039545Y004986D01*
X039151Y005381D01*
X039151Y005576D01*
X036999Y005006D02*
X036980Y004986D01*
X036665Y004986D01*
X036251Y005401D01*
X036251Y005576D01*
X034099Y005006D02*
X034080Y004986D01*
X033705Y004986D01*
X033351Y005341D01*
X033351Y005576D01*
X031199Y005006D02*
X031180Y004986D01*
X030825Y004986D01*
X030451Y005361D01*
X030451Y005576D01*
X027945Y004986D02*
X027551Y005381D01*
X027551Y005576D01*
X027945Y004986D02*
X028280Y004986D01*
X028299Y005006D01*
X027551Y004317D02*
X027519Y004285D01*
X027019Y004285D01*
X024651Y004317D02*
X024619Y004285D01*
X024119Y004285D01*
X021751Y004317D02*
X021719Y004285D01*
X021219Y004285D01*
X018851Y004317D02*
X018819Y004285D01*
X018319Y004285D01*
X015951Y004317D02*
X015919Y004285D01*
X015419Y004285D01*
X013051Y004317D02*
X013019Y004285D01*
X012519Y004285D01*
X010151Y004317D02*
X010119Y004285D01*
X009619Y004285D01*
X007251Y004317D02*
X007219Y004285D01*
X006719Y004285D01*
X004351Y004317D02*
X004319Y004285D01*
X003819Y004285D01*
X001451Y004317D02*
X001419Y004285D01*
X000919Y004285D01*
X001865Y004986D02*
X002180Y004986D01*
X002199Y005006D01*
X001865Y004986D02*
X001451Y005401D01*
X001451Y005576D01*
X004351Y005576D02*
X004351Y005381D01*
X004745Y004986D01*
X005080Y004986D01*
X005099Y005006D01*
X007251Y005441D02*
X007705Y004986D01*
X007980Y004986D01*
X007999Y005006D01*
X007251Y005441D02*
X007251Y005576D01*
X010151Y005576D02*
X010151Y005421D01*
X010585Y004986D01*
X010880Y004986D01*
X010899Y005006D01*
X013051Y005401D02*
X013465Y004986D01*
X013780Y004986D01*
X013799Y005006D01*
X013051Y005401D02*
X013051Y005576D01*
X015951Y005576D02*
X015951Y005381D01*
X016345Y004986D01*
X016680Y004986D01*
X016699Y005006D01*
X018851Y005361D02*
X018851Y005576D01*
X018851Y005361D02*
X019225Y004986D01*
X019580Y004986D01*
X019599Y005006D01*
X021751Y005421D02*
X021751Y005576D01*
X021751Y005421D02*
X022185Y004986D01*
X022480Y004986D01*
X022499Y005006D01*
X024651Y005401D02*
X024651Y005576D01*
X024651Y005401D02*
X025065Y004986D01*
X025380Y004986D01*
X025399Y005006D01*
X029919Y004285D02*
X030419Y004285D01*
X030451Y004317D01*
X032819Y004285D02*
X033319Y004285D01*
X033351Y004317D01*
X035719Y004285D02*
X036219Y004285D01*
X036251Y004317D01*
X038619Y004285D02*
X039119Y004285D01*
X039151Y004317D01*
X041519Y004285D02*
X042019Y004285D01*
X042051Y004317D01*
X076319Y004285D02*
X076819Y004285D01*
X076851Y004317D01*
X079219Y004285D02*
X079719Y004285D01*
X079751Y004317D01*
X082119Y004285D02*
X082619Y004285D01*
X082651Y004317D01*
X085019Y004285D02*
X085519Y004285D01*
X085551Y004317D01*
X085975Y004966D02*
X086260Y004966D01*
X086299Y005006D01*
X085975Y004966D02*
X085551Y005391D01*
X085551Y005576D01*
X083055Y004986D02*
X082651Y005391D01*
X082651Y005576D01*
X083055Y004986D02*
X083380Y004986D01*
X083399Y005006D01*
X080499Y005006D02*
X080498Y005006D01*
X080135Y005006D01*
X079751Y005391D01*
X079751Y005576D01*
X077599Y005006D02*
X077580Y004986D01*
X077225Y004986D01*
X076851Y005361D01*
X076851Y005576D01*
X087919Y004285D02*
X088419Y004285D01*
X088451Y004317D01*
X088875Y005006D02*
X089198Y005006D01*
X089199Y005006D01*
X088875Y005006D02*
X088451Y005431D01*
X088451Y005576D01*
X091351Y005576D02*
X091351Y005391D01*
X091775Y004966D01*
X092060Y004966D01*
X092099Y005006D01*
X091351Y004317D02*
X091319Y004285D01*
X090819Y004285D01*
X087345Y010226D02*
X087345Y010746D01*
X090205Y013606D01*
X090205Y014826D01*
X089705Y015216D02*
X089705Y013386D01*
X086625Y010306D01*
X086625Y010186D01*
X088705Y015316D02*
X088915Y015316D01*
X089385Y015786D01*
X090025Y015786D01*
X090205Y015606D01*
D22*
X084805Y015526D02*
X084805Y014896D01*
X084815Y014886D01*
X084615Y014886D01*
X084305Y014576D01*
X084275Y014596D02*
X084275Y015186D01*
X084465Y015186D01*
X084805Y015526D01*
X084275Y014596D02*
X084335Y014536D01*
X084335Y013426D01*
X084335Y013006D01*
X083355Y012026D01*
X082895Y012026D01*
X082835Y011966D01*
X082265Y011386D01*
X082265Y009946D01*
X082265Y009396D01*
X084335Y013426D02*
X086525Y013426D01*
M02*
