G75*
G70*
%OFA0B0*%
%FSLAX24Y24*%
%IPPOS*%
%LPD*%
%AMOC8*
5,1,8,0,0,1.08239X$1,22.5*
%
%ADD10C,0.2580*%
%ADD11C,0.0086*%
%ADD12C,0.0081*%
%ADD13C,0.0083*%
%ADD14C,0.0450*%
%ADD15C,0.0640*%
%ADD16C,0.0080*%
%ADD17C,0.0081*%
%ADD18R,0.0820X0.0820*%
%ADD19C,0.0820*%
%ADD20C,0.0083*%
D10*
X002865Y002306D03*
X003185Y007826D03*
X082285Y013886D03*
X093945Y014186D03*
X094065Y004866D03*
D11*
X090498Y008939D02*
X090498Y009633D01*
X091392Y009633D01*
X091392Y008939D01*
X090498Y008939D01*
X090498Y009024D02*
X091392Y009024D01*
X091392Y009109D02*
X090498Y009109D01*
X090498Y009194D02*
X091392Y009194D01*
X091392Y009279D02*
X090498Y009279D01*
X090498Y009364D02*
X091392Y009364D01*
X091392Y009449D02*
X090498Y009449D01*
X090498Y009534D02*
X091392Y009534D01*
X091392Y009619D02*
X090498Y009619D01*
X090498Y010139D02*
X090498Y010833D01*
X091392Y010833D01*
X091392Y010139D01*
X090498Y010139D01*
X090498Y010224D02*
X091392Y010224D01*
X091392Y010309D02*
X090498Y010309D01*
X090498Y010394D02*
X091392Y010394D01*
X091392Y010479D02*
X090498Y010479D01*
X090498Y010564D02*
X091392Y010564D01*
X091392Y010649D02*
X090498Y010649D01*
X090498Y010734D02*
X091392Y010734D01*
X091392Y010819D02*
X090498Y010819D01*
X082732Y011513D02*
X082038Y011513D01*
X082732Y011513D02*
X082732Y010619D01*
X082038Y010619D01*
X082038Y011513D01*
X082038Y010704D02*
X082732Y010704D01*
X082732Y010789D02*
X082038Y010789D01*
X082038Y010874D02*
X082732Y010874D01*
X082732Y010959D02*
X082038Y010959D01*
X082038Y011044D02*
X082732Y011044D01*
X082732Y011129D02*
X082038Y011129D01*
X082038Y011214D02*
X082732Y011214D01*
X082732Y011299D02*
X082038Y011299D01*
X082038Y011384D02*
X082732Y011384D01*
X082732Y011469D02*
X082038Y011469D01*
X081532Y011513D02*
X080838Y011513D01*
X081532Y011513D02*
X081532Y010619D01*
X080838Y010619D01*
X080838Y011513D01*
X080838Y010704D02*
X081532Y010704D01*
X081532Y010789D02*
X080838Y010789D01*
X080838Y010874D02*
X081532Y010874D01*
X081532Y010959D02*
X080838Y010959D01*
X080838Y011044D02*
X081532Y011044D01*
X081532Y011129D02*
X080838Y011129D01*
X080838Y011214D02*
X081532Y011214D01*
X081532Y011299D02*
X080838Y011299D01*
X080838Y011384D02*
X081532Y011384D01*
X081532Y011469D02*
X080838Y011469D01*
D12*
X090412Y012874D02*
X090648Y012874D01*
X090648Y012654D01*
X090412Y012654D01*
X090412Y012874D01*
X090412Y012734D02*
X090648Y012734D01*
X090648Y012814D02*
X090412Y012814D01*
X090412Y013189D02*
X090648Y013189D01*
X090648Y012969D01*
X090412Y012969D01*
X090412Y013189D01*
X090412Y013049D02*
X090648Y013049D01*
X090648Y013129D02*
X090412Y013129D01*
X090412Y013504D02*
X090648Y013504D01*
X090648Y013284D01*
X090412Y013284D01*
X090412Y013504D01*
X090412Y013364D02*
X090648Y013364D01*
X090648Y013444D02*
X090412Y013444D01*
X090412Y013819D02*
X090648Y013819D01*
X090648Y013599D01*
X090412Y013599D01*
X090412Y013819D01*
X090412Y013679D02*
X090648Y013679D01*
X090648Y013759D02*
X090412Y013759D01*
X091202Y013819D02*
X091438Y013819D01*
X091438Y013599D01*
X091202Y013599D01*
X091202Y013819D01*
X091202Y013679D02*
X091438Y013679D01*
X091438Y013759D02*
X091202Y013759D01*
X091202Y013504D02*
X091438Y013504D01*
X091438Y013284D01*
X091202Y013284D01*
X091202Y013504D01*
X091202Y013364D02*
X091438Y013364D01*
X091438Y013444D02*
X091202Y013444D01*
X091202Y013189D02*
X091438Y013189D01*
X091438Y012969D01*
X091202Y012969D01*
X091202Y013189D01*
X091202Y013049D02*
X091438Y013049D01*
X091438Y013129D02*
X091202Y013129D01*
X091202Y012874D02*
X091438Y012874D01*
X091438Y012654D01*
X091202Y012654D01*
X091202Y012874D01*
X091202Y012734D02*
X091438Y012734D01*
X091438Y012814D02*
X091202Y012814D01*
X086468Y008799D02*
X086468Y008563D01*
X086248Y008563D01*
X086248Y008799D01*
X086468Y008799D01*
X086468Y008643D02*
X086248Y008643D01*
X086248Y008723D02*
X086468Y008723D01*
X086153Y008799D02*
X086153Y008563D01*
X085933Y008563D01*
X085933Y008799D01*
X086153Y008799D01*
X086153Y008643D02*
X085933Y008643D01*
X085933Y008723D02*
X086153Y008723D01*
X085838Y008799D02*
X085838Y008563D01*
X085618Y008563D01*
X085618Y008799D01*
X085838Y008799D01*
X085838Y008643D02*
X085618Y008643D01*
X085618Y008723D02*
X085838Y008723D01*
X085523Y008799D02*
X085523Y008563D01*
X085303Y008563D01*
X085303Y008799D01*
X085523Y008799D01*
X085523Y008643D02*
X085303Y008643D01*
X085303Y008723D02*
X085523Y008723D01*
X085523Y008009D02*
X085523Y007773D01*
X085303Y007773D01*
X085303Y008009D01*
X085523Y008009D01*
X085523Y007853D02*
X085303Y007853D01*
X085303Y007933D02*
X085523Y007933D01*
X085838Y008009D02*
X085838Y007773D01*
X085618Y007773D01*
X085618Y008009D01*
X085838Y008009D01*
X085838Y007853D02*
X085618Y007853D01*
X085618Y007933D02*
X085838Y007933D01*
X086153Y008009D02*
X086153Y007773D01*
X085933Y007773D01*
X085933Y008009D01*
X086153Y008009D01*
X086153Y007853D02*
X085933Y007853D01*
X085933Y007933D02*
X086153Y007933D01*
X086468Y008009D02*
X086468Y007773D01*
X086248Y007773D01*
X086248Y008009D01*
X086468Y008009D01*
X086468Y007853D02*
X086248Y007853D01*
X086248Y007933D02*
X086468Y007933D01*
X089523Y007789D02*
X089523Y007553D01*
X089303Y007553D01*
X089303Y007789D01*
X089523Y007789D01*
X089523Y007633D02*
X089303Y007633D01*
X089303Y007713D02*
X089523Y007713D01*
X089838Y007789D02*
X089838Y007553D01*
X089618Y007553D01*
X089618Y007789D01*
X089838Y007789D01*
X089838Y007633D02*
X089618Y007633D01*
X089618Y007713D02*
X089838Y007713D01*
X090153Y007789D02*
X090153Y007553D01*
X089933Y007553D01*
X089933Y007789D01*
X090153Y007789D01*
X090153Y007633D02*
X089933Y007633D01*
X089933Y007713D02*
X090153Y007713D01*
X090468Y007789D02*
X090468Y007553D01*
X090248Y007553D01*
X090248Y007789D01*
X090468Y007789D01*
X090468Y007633D02*
X090248Y007633D01*
X090248Y007713D02*
X090468Y007713D01*
X090468Y008343D02*
X090468Y008579D01*
X090468Y008343D02*
X090248Y008343D01*
X090248Y008579D01*
X090468Y008579D01*
X090468Y008423D02*
X090248Y008423D01*
X090248Y008503D02*
X090468Y008503D01*
X090153Y008579D02*
X090153Y008343D01*
X089933Y008343D01*
X089933Y008579D01*
X090153Y008579D01*
X090153Y008423D02*
X089933Y008423D01*
X089933Y008503D02*
X090153Y008503D01*
X089838Y008579D02*
X089838Y008343D01*
X089618Y008343D01*
X089618Y008579D01*
X089838Y008579D01*
X089838Y008423D02*
X089618Y008423D01*
X089618Y008503D02*
X089838Y008503D01*
X089523Y008579D02*
X089523Y008343D01*
X089303Y008343D01*
X089303Y008579D01*
X089523Y008579D01*
X089523Y008423D02*
X089303Y008423D01*
X089303Y008503D02*
X089523Y008503D01*
D13*
X088570Y008081D02*
X088100Y008081D01*
X088100Y008591D01*
X088570Y008591D01*
X088570Y008081D01*
X088570Y008163D02*
X088100Y008163D01*
X088100Y008245D02*
X088570Y008245D01*
X088570Y008327D02*
X088100Y008327D01*
X088100Y008409D02*
X088570Y008409D01*
X088570Y008491D02*
X088100Y008491D01*
X088100Y008573D02*
X088570Y008573D01*
X087770Y008081D02*
X087300Y008081D01*
X087300Y008591D01*
X087770Y008591D01*
X087770Y008081D01*
X087770Y008163D02*
X087300Y008163D01*
X087300Y008245D02*
X087770Y008245D01*
X087770Y008327D02*
X087300Y008327D01*
X087300Y008409D02*
X087770Y008409D01*
X087770Y008491D02*
X087300Y008491D01*
X087300Y008573D02*
X087770Y008573D01*
X088216Y005302D02*
X088686Y005302D01*
X088216Y005302D02*
X088216Y005850D01*
X088686Y005850D01*
X088686Y005302D01*
X088686Y005384D02*
X088216Y005384D01*
X088216Y005466D02*
X088686Y005466D01*
X088686Y005548D02*
X088216Y005548D01*
X088216Y005630D02*
X088686Y005630D01*
X088686Y005712D02*
X088216Y005712D01*
X088216Y005794D02*
X088686Y005794D01*
X088905Y005302D02*
X089375Y005302D01*
X088905Y005302D02*
X088905Y005850D01*
X089375Y005850D01*
X089375Y005302D01*
X089375Y005384D02*
X088905Y005384D01*
X088905Y005466D02*
X089375Y005466D01*
X089375Y005548D02*
X088905Y005548D01*
X088905Y005630D02*
X089375Y005630D01*
X089375Y005712D02*
X088905Y005712D01*
X088905Y005794D02*
X089375Y005794D01*
X091116Y005302D02*
X091586Y005302D01*
X091116Y005302D02*
X091116Y005850D01*
X091586Y005850D01*
X091586Y005302D01*
X091586Y005384D02*
X091116Y005384D01*
X091116Y005466D02*
X091586Y005466D01*
X091586Y005548D02*
X091116Y005548D01*
X091116Y005630D02*
X091586Y005630D01*
X091586Y005712D02*
X091116Y005712D01*
X091116Y005794D02*
X091586Y005794D01*
X091805Y005302D02*
X092275Y005302D01*
X091805Y005302D02*
X091805Y005850D01*
X092275Y005850D01*
X092275Y005302D01*
X092275Y005384D02*
X091805Y005384D01*
X091805Y005466D02*
X092275Y005466D01*
X092275Y005548D02*
X091805Y005548D01*
X091805Y005630D02*
X092275Y005630D01*
X092275Y005712D02*
X091805Y005712D01*
X091805Y005794D02*
X092275Y005794D01*
X086475Y005302D02*
X086005Y005302D01*
X086005Y005850D01*
X086475Y005850D01*
X086475Y005302D01*
X086475Y005384D02*
X086005Y005384D01*
X086005Y005466D02*
X086475Y005466D01*
X086475Y005548D02*
X086005Y005548D01*
X086005Y005630D02*
X086475Y005630D01*
X086475Y005712D02*
X086005Y005712D01*
X086005Y005794D02*
X086475Y005794D01*
X085786Y005302D02*
X085316Y005302D01*
X085316Y005850D01*
X085786Y005850D01*
X085786Y005302D01*
X085786Y005384D02*
X085316Y005384D01*
X085316Y005466D02*
X085786Y005466D01*
X085786Y005548D02*
X085316Y005548D01*
X085316Y005630D02*
X085786Y005630D01*
X085786Y005712D02*
X085316Y005712D01*
X085316Y005794D02*
X085786Y005794D01*
X083575Y005302D02*
X083105Y005302D01*
X083105Y005850D01*
X083575Y005850D01*
X083575Y005302D01*
X083575Y005384D02*
X083105Y005384D01*
X083105Y005466D02*
X083575Y005466D01*
X083575Y005548D02*
X083105Y005548D01*
X083105Y005630D02*
X083575Y005630D01*
X083575Y005712D02*
X083105Y005712D01*
X083105Y005794D02*
X083575Y005794D01*
X082886Y005302D02*
X082416Y005302D01*
X082416Y005850D01*
X082886Y005850D01*
X082886Y005302D01*
X082886Y005384D02*
X082416Y005384D01*
X082416Y005466D02*
X082886Y005466D01*
X082886Y005548D02*
X082416Y005548D01*
X082416Y005630D02*
X082886Y005630D01*
X082886Y005712D02*
X082416Y005712D01*
X082416Y005794D02*
X082886Y005794D01*
X080675Y005302D02*
X080205Y005302D01*
X080205Y005850D01*
X080675Y005850D01*
X080675Y005302D01*
X080675Y005384D02*
X080205Y005384D01*
X080205Y005466D02*
X080675Y005466D01*
X080675Y005548D02*
X080205Y005548D01*
X080205Y005630D02*
X080675Y005630D01*
X080675Y005712D02*
X080205Y005712D01*
X080205Y005794D02*
X080675Y005794D01*
X079986Y005302D02*
X079516Y005302D01*
X079516Y005850D01*
X079986Y005850D01*
X079986Y005302D01*
X079986Y005384D02*
X079516Y005384D01*
X079516Y005466D02*
X079986Y005466D01*
X079986Y005548D02*
X079516Y005548D01*
X079516Y005630D02*
X079986Y005630D01*
X079986Y005712D02*
X079516Y005712D01*
X079516Y005794D02*
X079986Y005794D01*
X077775Y005302D02*
X077305Y005302D01*
X077305Y005850D01*
X077775Y005850D01*
X077775Y005302D01*
X077775Y005384D02*
X077305Y005384D01*
X077305Y005466D02*
X077775Y005466D01*
X077775Y005548D02*
X077305Y005548D01*
X077305Y005630D02*
X077775Y005630D01*
X077775Y005712D02*
X077305Y005712D01*
X077305Y005794D02*
X077775Y005794D01*
X077086Y005302D02*
X076616Y005302D01*
X076616Y005850D01*
X077086Y005850D01*
X077086Y005302D01*
X077086Y005384D02*
X076616Y005384D01*
X076616Y005466D02*
X077086Y005466D01*
X077086Y005548D02*
X076616Y005548D01*
X076616Y005630D02*
X077086Y005630D01*
X077086Y005712D02*
X076616Y005712D01*
X076616Y005794D02*
X077086Y005794D01*
X074875Y005302D02*
X074405Y005302D01*
X074405Y005850D01*
X074875Y005850D01*
X074875Y005302D01*
X074875Y005384D02*
X074405Y005384D01*
X074405Y005466D02*
X074875Y005466D01*
X074875Y005548D02*
X074405Y005548D01*
X074405Y005630D02*
X074875Y005630D01*
X074875Y005712D02*
X074405Y005712D01*
X074405Y005794D02*
X074875Y005794D01*
X074186Y005302D02*
X073716Y005302D01*
X073716Y005850D01*
X074186Y005850D01*
X074186Y005302D01*
X074186Y005384D02*
X073716Y005384D01*
X073716Y005466D02*
X074186Y005466D01*
X074186Y005548D02*
X073716Y005548D01*
X073716Y005630D02*
X074186Y005630D01*
X074186Y005712D02*
X073716Y005712D01*
X073716Y005794D02*
X074186Y005794D01*
X071975Y005312D02*
X071505Y005312D01*
X071505Y005860D01*
X071975Y005860D01*
X071975Y005312D01*
X071975Y005394D02*
X071505Y005394D01*
X071505Y005476D02*
X071975Y005476D01*
X071975Y005558D02*
X071505Y005558D01*
X071505Y005640D02*
X071975Y005640D01*
X071975Y005722D02*
X071505Y005722D01*
X071505Y005804D02*
X071975Y005804D01*
X071286Y005312D02*
X070816Y005312D01*
X070816Y005860D01*
X071286Y005860D01*
X071286Y005312D01*
X071286Y005394D02*
X070816Y005394D01*
X070816Y005476D02*
X071286Y005476D01*
X071286Y005558D02*
X070816Y005558D01*
X070816Y005640D02*
X071286Y005640D01*
X071286Y005722D02*
X070816Y005722D01*
X070816Y005804D02*
X071286Y005804D01*
X069075Y005302D02*
X068605Y005302D01*
X068605Y005850D01*
X069075Y005850D01*
X069075Y005302D01*
X069075Y005384D02*
X068605Y005384D01*
X068605Y005466D02*
X069075Y005466D01*
X069075Y005548D02*
X068605Y005548D01*
X068605Y005630D02*
X069075Y005630D01*
X069075Y005712D02*
X068605Y005712D01*
X068605Y005794D02*
X069075Y005794D01*
X068386Y005302D02*
X067916Y005302D01*
X067916Y005850D01*
X068386Y005850D01*
X068386Y005302D01*
X068386Y005384D02*
X067916Y005384D01*
X067916Y005466D02*
X068386Y005466D01*
X068386Y005548D02*
X067916Y005548D01*
X067916Y005630D02*
X068386Y005630D01*
X068386Y005712D02*
X067916Y005712D01*
X067916Y005794D02*
X068386Y005794D01*
X066175Y005302D02*
X065705Y005302D01*
X065705Y005850D01*
X066175Y005850D01*
X066175Y005302D01*
X066175Y005384D02*
X065705Y005384D01*
X065705Y005466D02*
X066175Y005466D01*
X066175Y005548D02*
X065705Y005548D01*
X065705Y005630D02*
X066175Y005630D01*
X066175Y005712D02*
X065705Y005712D01*
X065705Y005794D02*
X066175Y005794D01*
X065486Y005302D02*
X065016Y005302D01*
X065016Y005850D01*
X065486Y005850D01*
X065486Y005302D01*
X065486Y005384D02*
X065016Y005384D01*
X065016Y005466D02*
X065486Y005466D01*
X065486Y005548D02*
X065016Y005548D01*
X065016Y005630D02*
X065486Y005630D01*
X065486Y005712D02*
X065016Y005712D01*
X065016Y005794D02*
X065486Y005794D01*
X063275Y005302D02*
X062805Y005302D01*
X062805Y005850D01*
X063275Y005850D01*
X063275Y005302D01*
X063275Y005384D02*
X062805Y005384D01*
X062805Y005466D02*
X063275Y005466D01*
X063275Y005548D02*
X062805Y005548D01*
X062805Y005630D02*
X063275Y005630D01*
X063275Y005712D02*
X062805Y005712D01*
X062805Y005794D02*
X063275Y005794D01*
X062586Y005302D02*
X062116Y005302D01*
X062116Y005850D01*
X062586Y005850D01*
X062586Y005302D01*
X062586Y005384D02*
X062116Y005384D01*
X062116Y005466D02*
X062586Y005466D01*
X062586Y005548D02*
X062116Y005548D01*
X062116Y005630D02*
X062586Y005630D01*
X062586Y005712D02*
X062116Y005712D01*
X062116Y005794D02*
X062586Y005794D01*
X060375Y005302D02*
X059905Y005302D01*
X059905Y005850D01*
X060375Y005850D01*
X060375Y005302D01*
X060375Y005384D02*
X059905Y005384D01*
X059905Y005466D02*
X060375Y005466D01*
X060375Y005548D02*
X059905Y005548D01*
X059905Y005630D02*
X060375Y005630D01*
X060375Y005712D02*
X059905Y005712D01*
X059905Y005794D02*
X060375Y005794D01*
X059686Y005302D02*
X059216Y005302D01*
X059216Y005850D01*
X059686Y005850D01*
X059686Y005302D01*
X059686Y005384D02*
X059216Y005384D01*
X059216Y005466D02*
X059686Y005466D01*
X059686Y005548D02*
X059216Y005548D01*
X059216Y005630D02*
X059686Y005630D01*
X059686Y005712D02*
X059216Y005712D01*
X059216Y005794D02*
X059686Y005794D01*
X057475Y005302D02*
X057005Y005302D01*
X057005Y005850D01*
X057475Y005850D01*
X057475Y005302D01*
X057475Y005384D02*
X057005Y005384D01*
X057005Y005466D02*
X057475Y005466D01*
X057475Y005548D02*
X057005Y005548D01*
X057005Y005630D02*
X057475Y005630D01*
X057475Y005712D02*
X057005Y005712D01*
X057005Y005794D02*
X057475Y005794D01*
X056786Y005302D02*
X056316Y005302D01*
X056316Y005850D01*
X056786Y005850D01*
X056786Y005302D01*
X056786Y005384D02*
X056316Y005384D01*
X056316Y005466D02*
X056786Y005466D01*
X056786Y005548D02*
X056316Y005548D01*
X056316Y005630D02*
X056786Y005630D01*
X056786Y005712D02*
X056316Y005712D01*
X056316Y005794D02*
X056786Y005794D01*
X054575Y005302D02*
X054105Y005302D01*
X054105Y005850D01*
X054575Y005850D01*
X054575Y005302D01*
X054575Y005384D02*
X054105Y005384D01*
X054105Y005466D02*
X054575Y005466D01*
X054575Y005548D02*
X054105Y005548D01*
X054105Y005630D02*
X054575Y005630D01*
X054575Y005712D02*
X054105Y005712D01*
X054105Y005794D02*
X054575Y005794D01*
X053886Y005302D02*
X053416Y005302D01*
X053416Y005850D01*
X053886Y005850D01*
X053886Y005302D01*
X053886Y005384D02*
X053416Y005384D01*
X053416Y005466D02*
X053886Y005466D01*
X053886Y005548D02*
X053416Y005548D01*
X053416Y005630D02*
X053886Y005630D01*
X053886Y005712D02*
X053416Y005712D01*
X053416Y005794D02*
X053886Y005794D01*
X051575Y005302D02*
X051105Y005302D01*
X051105Y005850D01*
X051575Y005850D01*
X051575Y005302D01*
X051575Y005384D02*
X051105Y005384D01*
X051105Y005466D02*
X051575Y005466D01*
X051575Y005548D02*
X051105Y005548D01*
X051105Y005630D02*
X051575Y005630D01*
X051575Y005712D02*
X051105Y005712D01*
X051105Y005794D02*
X051575Y005794D01*
X050886Y005302D02*
X050416Y005302D01*
X050416Y005850D01*
X050886Y005850D01*
X050886Y005302D01*
X050886Y005384D02*
X050416Y005384D01*
X050416Y005466D02*
X050886Y005466D01*
X050886Y005548D02*
X050416Y005548D01*
X050416Y005630D02*
X050886Y005630D01*
X050886Y005712D02*
X050416Y005712D01*
X050416Y005794D02*
X050886Y005794D01*
X048675Y005302D02*
X048205Y005302D01*
X048205Y005850D01*
X048675Y005850D01*
X048675Y005302D01*
X048675Y005384D02*
X048205Y005384D01*
X048205Y005466D02*
X048675Y005466D01*
X048675Y005548D02*
X048205Y005548D01*
X048205Y005630D02*
X048675Y005630D01*
X048675Y005712D02*
X048205Y005712D01*
X048205Y005794D02*
X048675Y005794D01*
X047986Y005302D02*
X047516Y005302D01*
X047516Y005850D01*
X047986Y005850D01*
X047986Y005302D01*
X047986Y005384D02*
X047516Y005384D01*
X047516Y005466D02*
X047986Y005466D01*
X047986Y005548D02*
X047516Y005548D01*
X047516Y005630D02*
X047986Y005630D01*
X047986Y005712D02*
X047516Y005712D01*
X047516Y005794D02*
X047986Y005794D01*
X045775Y005302D02*
X045305Y005302D01*
X045305Y005850D01*
X045775Y005850D01*
X045775Y005302D01*
X045775Y005384D02*
X045305Y005384D01*
X045305Y005466D02*
X045775Y005466D01*
X045775Y005548D02*
X045305Y005548D01*
X045305Y005630D02*
X045775Y005630D01*
X045775Y005712D02*
X045305Y005712D01*
X045305Y005794D02*
X045775Y005794D01*
X045086Y005302D02*
X044616Y005302D01*
X044616Y005850D01*
X045086Y005850D01*
X045086Y005302D01*
X045086Y005384D02*
X044616Y005384D01*
X044616Y005466D02*
X045086Y005466D01*
X045086Y005548D02*
X044616Y005548D01*
X044616Y005630D02*
X045086Y005630D01*
X045086Y005712D02*
X044616Y005712D01*
X044616Y005794D02*
X045086Y005794D01*
X042975Y005302D02*
X042505Y005302D01*
X042505Y005850D01*
X042975Y005850D01*
X042975Y005302D01*
X042975Y005384D02*
X042505Y005384D01*
X042505Y005466D02*
X042975Y005466D01*
X042975Y005548D02*
X042505Y005548D01*
X042505Y005630D02*
X042975Y005630D01*
X042975Y005712D02*
X042505Y005712D01*
X042505Y005794D02*
X042975Y005794D01*
X042286Y005302D02*
X041816Y005302D01*
X041816Y005850D01*
X042286Y005850D01*
X042286Y005302D01*
X042286Y005384D02*
X041816Y005384D01*
X041816Y005466D02*
X042286Y005466D01*
X042286Y005548D02*
X041816Y005548D01*
X041816Y005630D02*
X042286Y005630D01*
X042286Y005712D02*
X041816Y005712D01*
X041816Y005794D02*
X042286Y005794D01*
X040075Y005302D02*
X039605Y005302D01*
X039605Y005850D01*
X040075Y005850D01*
X040075Y005302D01*
X040075Y005384D02*
X039605Y005384D01*
X039605Y005466D02*
X040075Y005466D01*
X040075Y005548D02*
X039605Y005548D01*
X039605Y005630D02*
X040075Y005630D01*
X040075Y005712D02*
X039605Y005712D01*
X039605Y005794D02*
X040075Y005794D01*
X039386Y005302D02*
X038916Y005302D01*
X038916Y005850D01*
X039386Y005850D01*
X039386Y005302D01*
X039386Y005384D02*
X038916Y005384D01*
X038916Y005466D02*
X039386Y005466D01*
X039386Y005548D02*
X038916Y005548D01*
X038916Y005630D02*
X039386Y005630D01*
X039386Y005712D02*
X038916Y005712D01*
X038916Y005794D02*
X039386Y005794D01*
X037175Y005302D02*
X036705Y005302D01*
X036705Y005850D01*
X037175Y005850D01*
X037175Y005302D01*
X037175Y005384D02*
X036705Y005384D01*
X036705Y005466D02*
X037175Y005466D01*
X037175Y005548D02*
X036705Y005548D01*
X036705Y005630D02*
X037175Y005630D01*
X037175Y005712D02*
X036705Y005712D01*
X036705Y005794D02*
X037175Y005794D01*
X036486Y005302D02*
X036016Y005302D01*
X036016Y005850D01*
X036486Y005850D01*
X036486Y005302D01*
X036486Y005384D02*
X036016Y005384D01*
X036016Y005466D02*
X036486Y005466D01*
X036486Y005548D02*
X036016Y005548D01*
X036016Y005630D02*
X036486Y005630D01*
X036486Y005712D02*
X036016Y005712D01*
X036016Y005794D02*
X036486Y005794D01*
X034275Y005302D02*
X033805Y005302D01*
X033805Y005850D01*
X034275Y005850D01*
X034275Y005302D01*
X034275Y005384D02*
X033805Y005384D01*
X033805Y005466D02*
X034275Y005466D01*
X034275Y005548D02*
X033805Y005548D01*
X033805Y005630D02*
X034275Y005630D01*
X034275Y005712D02*
X033805Y005712D01*
X033805Y005794D02*
X034275Y005794D01*
X033586Y005302D02*
X033116Y005302D01*
X033116Y005850D01*
X033586Y005850D01*
X033586Y005302D01*
X033586Y005384D02*
X033116Y005384D01*
X033116Y005466D02*
X033586Y005466D01*
X033586Y005548D02*
X033116Y005548D01*
X033116Y005630D02*
X033586Y005630D01*
X033586Y005712D02*
X033116Y005712D01*
X033116Y005794D02*
X033586Y005794D01*
X031375Y005302D02*
X030905Y005302D01*
X030905Y005850D01*
X031375Y005850D01*
X031375Y005302D01*
X031375Y005384D02*
X030905Y005384D01*
X030905Y005466D02*
X031375Y005466D01*
X031375Y005548D02*
X030905Y005548D01*
X030905Y005630D02*
X031375Y005630D01*
X031375Y005712D02*
X030905Y005712D01*
X030905Y005794D02*
X031375Y005794D01*
X030686Y005302D02*
X030216Y005302D01*
X030216Y005850D01*
X030686Y005850D01*
X030686Y005302D01*
X030686Y005384D02*
X030216Y005384D01*
X030216Y005466D02*
X030686Y005466D01*
X030686Y005548D02*
X030216Y005548D01*
X030216Y005630D02*
X030686Y005630D01*
X030686Y005712D02*
X030216Y005712D01*
X030216Y005794D02*
X030686Y005794D01*
X028475Y005302D02*
X028005Y005302D01*
X028005Y005850D01*
X028475Y005850D01*
X028475Y005302D01*
X028475Y005384D02*
X028005Y005384D01*
X028005Y005466D02*
X028475Y005466D01*
X028475Y005548D02*
X028005Y005548D01*
X028005Y005630D02*
X028475Y005630D01*
X028475Y005712D02*
X028005Y005712D01*
X028005Y005794D02*
X028475Y005794D01*
X027786Y005302D02*
X027316Y005302D01*
X027316Y005850D01*
X027786Y005850D01*
X027786Y005302D01*
X027786Y005384D02*
X027316Y005384D01*
X027316Y005466D02*
X027786Y005466D01*
X027786Y005548D02*
X027316Y005548D01*
X027316Y005630D02*
X027786Y005630D01*
X027786Y005712D02*
X027316Y005712D01*
X027316Y005794D02*
X027786Y005794D01*
X025575Y005302D02*
X025105Y005302D01*
X025105Y005850D01*
X025575Y005850D01*
X025575Y005302D01*
X025575Y005384D02*
X025105Y005384D01*
X025105Y005466D02*
X025575Y005466D01*
X025575Y005548D02*
X025105Y005548D01*
X025105Y005630D02*
X025575Y005630D01*
X025575Y005712D02*
X025105Y005712D01*
X025105Y005794D02*
X025575Y005794D01*
X024886Y005302D02*
X024416Y005302D01*
X024416Y005850D01*
X024886Y005850D01*
X024886Y005302D01*
X024886Y005384D02*
X024416Y005384D01*
X024416Y005466D02*
X024886Y005466D01*
X024886Y005548D02*
X024416Y005548D01*
X024416Y005630D02*
X024886Y005630D01*
X024886Y005712D02*
X024416Y005712D01*
X024416Y005794D02*
X024886Y005794D01*
X022675Y005302D02*
X022205Y005302D01*
X022205Y005850D01*
X022675Y005850D01*
X022675Y005302D01*
X022675Y005384D02*
X022205Y005384D01*
X022205Y005466D02*
X022675Y005466D01*
X022675Y005548D02*
X022205Y005548D01*
X022205Y005630D02*
X022675Y005630D01*
X022675Y005712D02*
X022205Y005712D01*
X022205Y005794D02*
X022675Y005794D01*
X021986Y005302D02*
X021516Y005302D01*
X021516Y005850D01*
X021986Y005850D01*
X021986Y005302D01*
X021986Y005384D02*
X021516Y005384D01*
X021516Y005466D02*
X021986Y005466D01*
X021986Y005548D02*
X021516Y005548D01*
X021516Y005630D02*
X021986Y005630D01*
X021986Y005712D02*
X021516Y005712D01*
X021516Y005794D02*
X021986Y005794D01*
X019775Y005302D02*
X019305Y005302D01*
X019305Y005850D01*
X019775Y005850D01*
X019775Y005302D01*
X019775Y005384D02*
X019305Y005384D01*
X019305Y005466D02*
X019775Y005466D01*
X019775Y005548D02*
X019305Y005548D01*
X019305Y005630D02*
X019775Y005630D01*
X019775Y005712D02*
X019305Y005712D01*
X019305Y005794D02*
X019775Y005794D01*
X019086Y005302D02*
X018616Y005302D01*
X018616Y005850D01*
X019086Y005850D01*
X019086Y005302D01*
X019086Y005384D02*
X018616Y005384D01*
X018616Y005466D02*
X019086Y005466D01*
X019086Y005548D02*
X018616Y005548D01*
X018616Y005630D02*
X019086Y005630D01*
X019086Y005712D02*
X018616Y005712D01*
X018616Y005794D02*
X019086Y005794D01*
X016875Y005302D02*
X016405Y005302D01*
X016405Y005850D01*
X016875Y005850D01*
X016875Y005302D01*
X016875Y005384D02*
X016405Y005384D01*
X016405Y005466D02*
X016875Y005466D01*
X016875Y005548D02*
X016405Y005548D01*
X016405Y005630D02*
X016875Y005630D01*
X016875Y005712D02*
X016405Y005712D01*
X016405Y005794D02*
X016875Y005794D01*
X016186Y005302D02*
X015716Y005302D01*
X015716Y005850D01*
X016186Y005850D01*
X016186Y005302D01*
X016186Y005384D02*
X015716Y005384D01*
X015716Y005466D02*
X016186Y005466D01*
X016186Y005548D02*
X015716Y005548D01*
X015716Y005630D02*
X016186Y005630D01*
X016186Y005712D02*
X015716Y005712D01*
X015716Y005794D02*
X016186Y005794D01*
X013975Y005302D02*
X013505Y005302D01*
X013505Y005850D01*
X013975Y005850D01*
X013975Y005302D01*
X013975Y005384D02*
X013505Y005384D01*
X013505Y005466D02*
X013975Y005466D01*
X013975Y005548D02*
X013505Y005548D01*
X013505Y005630D02*
X013975Y005630D01*
X013975Y005712D02*
X013505Y005712D01*
X013505Y005794D02*
X013975Y005794D01*
X013286Y005302D02*
X012816Y005302D01*
X012816Y005850D01*
X013286Y005850D01*
X013286Y005302D01*
X013286Y005384D02*
X012816Y005384D01*
X012816Y005466D02*
X013286Y005466D01*
X013286Y005548D02*
X012816Y005548D01*
X012816Y005630D02*
X013286Y005630D01*
X013286Y005712D02*
X012816Y005712D01*
X012816Y005794D02*
X013286Y005794D01*
X011075Y005302D02*
X010605Y005302D01*
X010605Y005850D01*
X011075Y005850D01*
X011075Y005302D01*
X011075Y005384D02*
X010605Y005384D01*
X010605Y005466D02*
X011075Y005466D01*
X011075Y005548D02*
X010605Y005548D01*
X010605Y005630D02*
X011075Y005630D01*
X011075Y005712D02*
X010605Y005712D01*
X010605Y005794D02*
X011075Y005794D01*
X010386Y005302D02*
X009916Y005302D01*
X009916Y005850D01*
X010386Y005850D01*
X010386Y005302D01*
X010386Y005384D02*
X009916Y005384D01*
X009916Y005466D02*
X010386Y005466D01*
X010386Y005548D02*
X009916Y005548D01*
X009916Y005630D02*
X010386Y005630D01*
X010386Y005712D02*
X009916Y005712D01*
X009916Y005794D02*
X010386Y005794D01*
X008175Y005302D02*
X007705Y005302D01*
X007705Y005850D01*
X008175Y005850D01*
X008175Y005302D01*
X008175Y005384D02*
X007705Y005384D01*
X007705Y005466D02*
X008175Y005466D01*
X008175Y005548D02*
X007705Y005548D01*
X007705Y005630D02*
X008175Y005630D01*
X008175Y005712D02*
X007705Y005712D01*
X007705Y005794D02*
X008175Y005794D01*
X007486Y005302D02*
X007016Y005302D01*
X007016Y005850D01*
X007486Y005850D01*
X007486Y005302D01*
X007486Y005384D02*
X007016Y005384D01*
X007016Y005466D02*
X007486Y005466D01*
X007486Y005548D02*
X007016Y005548D01*
X007016Y005630D02*
X007486Y005630D01*
X007486Y005712D02*
X007016Y005712D01*
X007016Y005794D02*
X007486Y005794D01*
X005275Y005302D02*
X004805Y005302D01*
X004805Y005850D01*
X005275Y005850D01*
X005275Y005302D01*
X005275Y005384D02*
X004805Y005384D01*
X004805Y005466D02*
X005275Y005466D01*
X005275Y005548D02*
X004805Y005548D01*
X004805Y005630D02*
X005275Y005630D01*
X005275Y005712D02*
X004805Y005712D01*
X004805Y005794D02*
X005275Y005794D01*
X004586Y005302D02*
X004116Y005302D01*
X004116Y005850D01*
X004586Y005850D01*
X004586Y005302D01*
X004586Y005384D02*
X004116Y005384D01*
X004116Y005466D02*
X004586Y005466D01*
X004586Y005548D02*
X004116Y005548D01*
X004116Y005630D02*
X004586Y005630D01*
X004586Y005712D02*
X004116Y005712D01*
X004116Y005794D02*
X004586Y005794D01*
X002375Y005302D02*
X001905Y005302D01*
X001905Y005850D01*
X002375Y005850D01*
X002375Y005302D01*
X002375Y005384D02*
X001905Y005384D01*
X001905Y005466D02*
X002375Y005466D01*
X002375Y005548D02*
X001905Y005548D01*
X001905Y005630D02*
X002375Y005630D01*
X002375Y005712D02*
X001905Y005712D01*
X001905Y005794D02*
X002375Y005794D01*
X001686Y005302D02*
X001216Y005302D01*
X001216Y005850D01*
X001686Y005850D01*
X001686Y005302D01*
X001686Y005384D02*
X001216Y005384D01*
X001216Y005466D02*
X001686Y005466D01*
X001686Y005548D02*
X001216Y005548D01*
X001216Y005630D02*
X001686Y005630D01*
X001686Y005712D02*
X001216Y005712D01*
X001216Y005794D02*
X001686Y005794D01*
X001686Y004043D02*
X001216Y004043D01*
X001216Y004591D01*
X001686Y004591D01*
X001686Y004043D01*
X001686Y004125D02*
X001216Y004125D01*
X001216Y004207D02*
X001686Y004207D01*
X001686Y004289D02*
X001216Y004289D01*
X001216Y004371D02*
X001686Y004371D01*
X001686Y004453D02*
X001216Y004453D01*
X001216Y004535D02*
X001686Y004535D01*
X001905Y004043D02*
X002375Y004043D01*
X001905Y004043D02*
X001905Y004591D01*
X002375Y004591D01*
X002375Y004043D01*
X002375Y004125D02*
X001905Y004125D01*
X001905Y004207D02*
X002375Y004207D01*
X002375Y004289D02*
X001905Y004289D01*
X001905Y004371D02*
X002375Y004371D01*
X002375Y004453D02*
X001905Y004453D01*
X001905Y004535D02*
X002375Y004535D01*
X004116Y004043D02*
X004586Y004043D01*
X004116Y004043D02*
X004116Y004591D01*
X004586Y004591D01*
X004586Y004043D01*
X004586Y004125D02*
X004116Y004125D01*
X004116Y004207D02*
X004586Y004207D01*
X004586Y004289D02*
X004116Y004289D01*
X004116Y004371D02*
X004586Y004371D01*
X004586Y004453D02*
X004116Y004453D01*
X004116Y004535D02*
X004586Y004535D01*
X004805Y004043D02*
X005275Y004043D01*
X004805Y004043D02*
X004805Y004591D01*
X005275Y004591D01*
X005275Y004043D01*
X005275Y004125D02*
X004805Y004125D01*
X004805Y004207D02*
X005275Y004207D01*
X005275Y004289D02*
X004805Y004289D01*
X004805Y004371D02*
X005275Y004371D01*
X005275Y004453D02*
X004805Y004453D01*
X004805Y004535D02*
X005275Y004535D01*
X007016Y004043D02*
X007486Y004043D01*
X007016Y004043D02*
X007016Y004591D01*
X007486Y004591D01*
X007486Y004043D01*
X007486Y004125D02*
X007016Y004125D01*
X007016Y004207D02*
X007486Y004207D01*
X007486Y004289D02*
X007016Y004289D01*
X007016Y004371D02*
X007486Y004371D01*
X007486Y004453D02*
X007016Y004453D01*
X007016Y004535D02*
X007486Y004535D01*
X007705Y004043D02*
X008175Y004043D01*
X007705Y004043D02*
X007705Y004591D01*
X008175Y004591D01*
X008175Y004043D01*
X008175Y004125D02*
X007705Y004125D01*
X007705Y004207D02*
X008175Y004207D01*
X008175Y004289D02*
X007705Y004289D01*
X007705Y004371D02*
X008175Y004371D01*
X008175Y004453D02*
X007705Y004453D01*
X007705Y004535D02*
X008175Y004535D01*
X009916Y004043D02*
X010386Y004043D01*
X009916Y004043D02*
X009916Y004591D01*
X010386Y004591D01*
X010386Y004043D01*
X010386Y004125D02*
X009916Y004125D01*
X009916Y004207D02*
X010386Y004207D01*
X010386Y004289D02*
X009916Y004289D01*
X009916Y004371D02*
X010386Y004371D01*
X010386Y004453D02*
X009916Y004453D01*
X009916Y004535D02*
X010386Y004535D01*
X010605Y004043D02*
X011075Y004043D01*
X010605Y004043D02*
X010605Y004591D01*
X011075Y004591D01*
X011075Y004043D01*
X011075Y004125D02*
X010605Y004125D01*
X010605Y004207D02*
X011075Y004207D01*
X011075Y004289D02*
X010605Y004289D01*
X010605Y004371D02*
X011075Y004371D01*
X011075Y004453D02*
X010605Y004453D01*
X010605Y004535D02*
X011075Y004535D01*
X012816Y004043D02*
X013286Y004043D01*
X012816Y004043D02*
X012816Y004591D01*
X013286Y004591D01*
X013286Y004043D01*
X013286Y004125D02*
X012816Y004125D01*
X012816Y004207D02*
X013286Y004207D01*
X013286Y004289D02*
X012816Y004289D01*
X012816Y004371D02*
X013286Y004371D01*
X013286Y004453D02*
X012816Y004453D01*
X012816Y004535D02*
X013286Y004535D01*
X013505Y004043D02*
X013975Y004043D01*
X013505Y004043D02*
X013505Y004591D01*
X013975Y004591D01*
X013975Y004043D01*
X013975Y004125D02*
X013505Y004125D01*
X013505Y004207D02*
X013975Y004207D01*
X013975Y004289D02*
X013505Y004289D01*
X013505Y004371D02*
X013975Y004371D01*
X013975Y004453D02*
X013505Y004453D01*
X013505Y004535D02*
X013975Y004535D01*
X015716Y004043D02*
X016186Y004043D01*
X015716Y004043D02*
X015716Y004591D01*
X016186Y004591D01*
X016186Y004043D01*
X016186Y004125D02*
X015716Y004125D01*
X015716Y004207D02*
X016186Y004207D01*
X016186Y004289D02*
X015716Y004289D01*
X015716Y004371D02*
X016186Y004371D01*
X016186Y004453D02*
X015716Y004453D01*
X015716Y004535D02*
X016186Y004535D01*
X016405Y004043D02*
X016875Y004043D01*
X016405Y004043D02*
X016405Y004591D01*
X016875Y004591D01*
X016875Y004043D01*
X016875Y004125D02*
X016405Y004125D01*
X016405Y004207D02*
X016875Y004207D01*
X016875Y004289D02*
X016405Y004289D01*
X016405Y004371D02*
X016875Y004371D01*
X016875Y004453D02*
X016405Y004453D01*
X016405Y004535D02*
X016875Y004535D01*
X018616Y004043D02*
X019086Y004043D01*
X018616Y004043D02*
X018616Y004591D01*
X019086Y004591D01*
X019086Y004043D01*
X019086Y004125D02*
X018616Y004125D01*
X018616Y004207D02*
X019086Y004207D01*
X019086Y004289D02*
X018616Y004289D01*
X018616Y004371D02*
X019086Y004371D01*
X019086Y004453D02*
X018616Y004453D01*
X018616Y004535D02*
X019086Y004535D01*
X019305Y004043D02*
X019775Y004043D01*
X019305Y004043D02*
X019305Y004591D01*
X019775Y004591D01*
X019775Y004043D01*
X019775Y004125D02*
X019305Y004125D01*
X019305Y004207D02*
X019775Y004207D01*
X019775Y004289D02*
X019305Y004289D01*
X019305Y004371D02*
X019775Y004371D01*
X019775Y004453D02*
X019305Y004453D01*
X019305Y004535D02*
X019775Y004535D01*
X021516Y004043D02*
X021986Y004043D01*
X021516Y004043D02*
X021516Y004591D01*
X021986Y004591D01*
X021986Y004043D01*
X021986Y004125D02*
X021516Y004125D01*
X021516Y004207D02*
X021986Y004207D01*
X021986Y004289D02*
X021516Y004289D01*
X021516Y004371D02*
X021986Y004371D01*
X021986Y004453D02*
X021516Y004453D01*
X021516Y004535D02*
X021986Y004535D01*
X022205Y004043D02*
X022675Y004043D01*
X022205Y004043D02*
X022205Y004591D01*
X022675Y004591D01*
X022675Y004043D01*
X022675Y004125D02*
X022205Y004125D01*
X022205Y004207D02*
X022675Y004207D01*
X022675Y004289D02*
X022205Y004289D01*
X022205Y004371D02*
X022675Y004371D01*
X022675Y004453D02*
X022205Y004453D01*
X022205Y004535D02*
X022675Y004535D01*
X024416Y004043D02*
X024886Y004043D01*
X024416Y004043D02*
X024416Y004591D01*
X024886Y004591D01*
X024886Y004043D01*
X024886Y004125D02*
X024416Y004125D01*
X024416Y004207D02*
X024886Y004207D01*
X024886Y004289D02*
X024416Y004289D01*
X024416Y004371D02*
X024886Y004371D01*
X024886Y004453D02*
X024416Y004453D01*
X024416Y004535D02*
X024886Y004535D01*
X025105Y004043D02*
X025575Y004043D01*
X025105Y004043D02*
X025105Y004591D01*
X025575Y004591D01*
X025575Y004043D01*
X025575Y004125D02*
X025105Y004125D01*
X025105Y004207D02*
X025575Y004207D01*
X025575Y004289D02*
X025105Y004289D01*
X025105Y004371D02*
X025575Y004371D01*
X025575Y004453D02*
X025105Y004453D01*
X025105Y004535D02*
X025575Y004535D01*
X027316Y004043D02*
X027786Y004043D01*
X027316Y004043D02*
X027316Y004591D01*
X027786Y004591D01*
X027786Y004043D01*
X027786Y004125D02*
X027316Y004125D01*
X027316Y004207D02*
X027786Y004207D01*
X027786Y004289D02*
X027316Y004289D01*
X027316Y004371D02*
X027786Y004371D01*
X027786Y004453D02*
X027316Y004453D01*
X027316Y004535D02*
X027786Y004535D01*
X028005Y004043D02*
X028475Y004043D01*
X028005Y004043D02*
X028005Y004591D01*
X028475Y004591D01*
X028475Y004043D01*
X028475Y004125D02*
X028005Y004125D01*
X028005Y004207D02*
X028475Y004207D01*
X028475Y004289D02*
X028005Y004289D01*
X028005Y004371D02*
X028475Y004371D01*
X028475Y004453D02*
X028005Y004453D01*
X028005Y004535D02*
X028475Y004535D01*
X030216Y004043D02*
X030686Y004043D01*
X030216Y004043D02*
X030216Y004591D01*
X030686Y004591D01*
X030686Y004043D01*
X030686Y004125D02*
X030216Y004125D01*
X030216Y004207D02*
X030686Y004207D01*
X030686Y004289D02*
X030216Y004289D01*
X030216Y004371D02*
X030686Y004371D01*
X030686Y004453D02*
X030216Y004453D01*
X030216Y004535D02*
X030686Y004535D01*
X030905Y004043D02*
X031375Y004043D01*
X030905Y004043D02*
X030905Y004591D01*
X031375Y004591D01*
X031375Y004043D01*
X031375Y004125D02*
X030905Y004125D01*
X030905Y004207D02*
X031375Y004207D01*
X031375Y004289D02*
X030905Y004289D01*
X030905Y004371D02*
X031375Y004371D01*
X031375Y004453D02*
X030905Y004453D01*
X030905Y004535D02*
X031375Y004535D01*
X033116Y004043D02*
X033586Y004043D01*
X033116Y004043D02*
X033116Y004591D01*
X033586Y004591D01*
X033586Y004043D01*
X033586Y004125D02*
X033116Y004125D01*
X033116Y004207D02*
X033586Y004207D01*
X033586Y004289D02*
X033116Y004289D01*
X033116Y004371D02*
X033586Y004371D01*
X033586Y004453D02*
X033116Y004453D01*
X033116Y004535D02*
X033586Y004535D01*
X033805Y004043D02*
X034275Y004043D01*
X033805Y004043D02*
X033805Y004591D01*
X034275Y004591D01*
X034275Y004043D01*
X034275Y004125D02*
X033805Y004125D01*
X033805Y004207D02*
X034275Y004207D01*
X034275Y004289D02*
X033805Y004289D01*
X033805Y004371D02*
X034275Y004371D01*
X034275Y004453D02*
X033805Y004453D01*
X033805Y004535D02*
X034275Y004535D01*
X036016Y004043D02*
X036486Y004043D01*
X036016Y004043D02*
X036016Y004591D01*
X036486Y004591D01*
X036486Y004043D01*
X036486Y004125D02*
X036016Y004125D01*
X036016Y004207D02*
X036486Y004207D01*
X036486Y004289D02*
X036016Y004289D01*
X036016Y004371D02*
X036486Y004371D01*
X036486Y004453D02*
X036016Y004453D01*
X036016Y004535D02*
X036486Y004535D01*
X036705Y004043D02*
X037175Y004043D01*
X036705Y004043D02*
X036705Y004591D01*
X037175Y004591D01*
X037175Y004043D01*
X037175Y004125D02*
X036705Y004125D01*
X036705Y004207D02*
X037175Y004207D01*
X037175Y004289D02*
X036705Y004289D01*
X036705Y004371D02*
X037175Y004371D01*
X037175Y004453D02*
X036705Y004453D01*
X036705Y004535D02*
X037175Y004535D01*
X038916Y004043D02*
X039386Y004043D01*
X038916Y004043D02*
X038916Y004591D01*
X039386Y004591D01*
X039386Y004043D01*
X039386Y004125D02*
X038916Y004125D01*
X038916Y004207D02*
X039386Y004207D01*
X039386Y004289D02*
X038916Y004289D01*
X038916Y004371D02*
X039386Y004371D01*
X039386Y004453D02*
X038916Y004453D01*
X038916Y004535D02*
X039386Y004535D01*
X039605Y004043D02*
X040075Y004043D01*
X039605Y004043D02*
X039605Y004591D01*
X040075Y004591D01*
X040075Y004043D01*
X040075Y004125D02*
X039605Y004125D01*
X039605Y004207D02*
X040075Y004207D01*
X040075Y004289D02*
X039605Y004289D01*
X039605Y004371D02*
X040075Y004371D01*
X040075Y004453D02*
X039605Y004453D01*
X039605Y004535D02*
X040075Y004535D01*
X041816Y004043D02*
X042286Y004043D01*
X041816Y004043D02*
X041816Y004591D01*
X042286Y004591D01*
X042286Y004043D01*
X042286Y004125D02*
X041816Y004125D01*
X041816Y004207D02*
X042286Y004207D01*
X042286Y004289D02*
X041816Y004289D01*
X041816Y004371D02*
X042286Y004371D01*
X042286Y004453D02*
X041816Y004453D01*
X041816Y004535D02*
X042286Y004535D01*
X042505Y004043D02*
X042975Y004043D01*
X042505Y004043D02*
X042505Y004591D01*
X042975Y004591D01*
X042975Y004043D01*
X042975Y004125D02*
X042505Y004125D01*
X042505Y004207D02*
X042975Y004207D01*
X042975Y004289D02*
X042505Y004289D01*
X042505Y004371D02*
X042975Y004371D01*
X042975Y004453D02*
X042505Y004453D01*
X042505Y004535D02*
X042975Y004535D01*
X044616Y004043D02*
X045086Y004043D01*
X044616Y004043D02*
X044616Y004591D01*
X045086Y004591D01*
X045086Y004043D01*
X045086Y004125D02*
X044616Y004125D01*
X044616Y004207D02*
X045086Y004207D01*
X045086Y004289D02*
X044616Y004289D01*
X044616Y004371D02*
X045086Y004371D01*
X045086Y004453D02*
X044616Y004453D01*
X044616Y004535D02*
X045086Y004535D01*
X045305Y004043D02*
X045775Y004043D01*
X045305Y004043D02*
X045305Y004591D01*
X045775Y004591D01*
X045775Y004043D01*
X045775Y004125D02*
X045305Y004125D01*
X045305Y004207D02*
X045775Y004207D01*
X045775Y004289D02*
X045305Y004289D01*
X045305Y004371D02*
X045775Y004371D01*
X045775Y004453D02*
X045305Y004453D01*
X045305Y004535D02*
X045775Y004535D01*
X047516Y004043D02*
X047986Y004043D01*
X047516Y004043D02*
X047516Y004591D01*
X047986Y004591D01*
X047986Y004043D01*
X047986Y004125D02*
X047516Y004125D01*
X047516Y004207D02*
X047986Y004207D01*
X047986Y004289D02*
X047516Y004289D01*
X047516Y004371D02*
X047986Y004371D01*
X047986Y004453D02*
X047516Y004453D01*
X047516Y004535D02*
X047986Y004535D01*
X048205Y004043D02*
X048675Y004043D01*
X048205Y004043D02*
X048205Y004591D01*
X048675Y004591D01*
X048675Y004043D01*
X048675Y004125D02*
X048205Y004125D01*
X048205Y004207D02*
X048675Y004207D01*
X048675Y004289D02*
X048205Y004289D01*
X048205Y004371D02*
X048675Y004371D01*
X048675Y004453D02*
X048205Y004453D01*
X048205Y004535D02*
X048675Y004535D01*
X050416Y004043D02*
X050886Y004043D01*
X050416Y004043D02*
X050416Y004591D01*
X050886Y004591D01*
X050886Y004043D01*
X050886Y004125D02*
X050416Y004125D01*
X050416Y004207D02*
X050886Y004207D01*
X050886Y004289D02*
X050416Y004289D01*
X050416Y004371D02*
X050886Y004371D01*
X050886Y004453D02*
X050416Y004453D01*
X050416Y004535D02*
X050886Y004535D01*
X051105Y004043D02*
X051575Y004043D01*
X051105Y004043D02*
X051105Y004591D01*
X051575Y004591D01*
X051575Y004043D01*
X051575Y004125D02*
X051105Y004125D01*
X051105Y004207D02*
X051575Y004207D01*
X051575Y004289D02*
X051105Y004289D01*
X051105Y004371D02*
X051575Y004371D01*
X051575Y004453D02*
X051105Y004453D01*
X051105Y004535D02*
X051575Y004535D01*
X053416Y004043D02*
X053886Y004043D01*
X053416Y004043D02*
X053416Y004591D01*
X053886Y004591D01*
X053886Y004043D01*
X053886Y004125D02*
X053416Y004125D01*
X053416Y004207D02*
X053886Y004207D01*
X053886Y004289D02*
X053416Y004289D01*
X053416Y004371D02*
X053886Y004371D01*
X053886Y004453D02*
X053416Y004453D01*
X053416Y004535D02*
X053886Y004535D01*
X054105Y004043D02*
X054575Y004043D01*
X054105Y004043D02*
X054105Y004591D01*
X054575Y004591D01*
X054575Y004043D01*
X054575Y004125D02*
X054105Y004125D01*
X054105Y004207D02*
X054575Y004207D01*
X054575Y004289D02*
X054105Y004289D01*
X054105Y004371D02*
X054575Y004371D01*
X054575Y004453D02*
X054105Y004453D01*
X054105Y004535D02*
X054575Y004535D01*
X056316Y004043D02*
X056786Y004043D01*
X056316Y004043D02*
X056316Y004591D01*
X056786Y004591D01*
X056786Y004043D01*
X056786Y004125D02*
X056316Y004125D01*
X056316Y004207D02*
X056786Y004207D01*
X056786Y004289D02*
X056316Y004289D01*
X056316Y004371D02*
X056786Y004371D01*
X056786Y004453D02*
X056316Y004453D01*
X056316Y004535D02*
X056786Y004535D01*
X057005Y004043D02*
X057475Y004043D01*
X057005Y004043D02*
X057005Y004591D01*
X057475Y004591D01*
X057475Y004043D01*
X057475Y004125D02*
X057005Y004125D01*
X057005Y004207D02*
X057475Y004207D01*
X057475Y004289D02*
X057005Y004289D01*
X057005Y004371D02*
X057475Y004371D01*
X057475Y004453D02*
X057005Y004453D01*
X057005Y004535D02*
X057475Y004535D01*
X059216Y004043D02*
X059686Y004043D01*
X059216Y004043D02*
X059216Y004591D01*
X059686Y004591D01*
X059686Y004043D01*
X059686Y004125D02*
X059216Y004125D01*
X059216Y004207D02*
X059686Y004207D01*
X059686Y004289D02*
X059216Y004289D01*
X059216Y004371D02*
X059686Y004371D01*
X059686Y004453D02*
X059216Y004453D01*
X059216Y004535D02*
X059686Y004535D01*
X059905Y004043D02*
X060375Y004043D01*
X059905Y004043D02*
X059905Y004591D01*
X060375Y004591D01*
X060375Y004043D01*
X060375Y004125D02*
X059905Y004125D01*
X059905Y004207D02*
X060375Y004207D01*
X060375Y004289D02*
X059905Y004289D01*
X059905Y004371D02*
X060375Y004371D01*
X060375Y004453D02*
X059905Y004453D01*
X059905Y004535D02*
X060375Y004535D01*
X062116Y004043D02*
X062586Y004043D01*
X062116Y004043D02*
X062116Y004591D01*
X062586Y004591D01*
X062586Y004043D01*
X062586Y004125D02*
X062116Y004125D01*
X062116Y004207D02*
X062586Y004207D01*
X062586Y004289D02*
X062116Y004289D01*
X062116Y004371D02*
X062586Y004371D01*
X062586Y004453D02*
X062116Y004453D01*
X062116Y004535D02*
X062586Y004535D01*
X062805Y004043D02*
X063275Y004043D01*
X062805Y004043D02*
X062805Y004591D01*
X063275Y004591D01*
X063275Y004043D01*
X063275Y004125D02*
X062805Y004125D01*
X062805Y004207D02*
X063275Y004207D01*
X063275Y004289D02*
X062805Y004289D01*
X062805Y004371D02*
X063275Y004371D01*
X063275Y004453D02*
X062805Y004453D01*
X062805Y004535D02*
X063275Y004535D01*
X065016Y004043D02*
X065486Y004043D01*
X065016Y004043D02*
X065016Y004591D01*
X065486Y004591D01*
X065486Y004043D01*
X065486Y004125D02*
X065016Y004125D01*
X065016Y004207D02*
X065486Y004207D01*
X065486Y004289D02*
X065016Y004289D01*
X065016Y004371D02*
X065486Y004371D01*
X065486Y004453D02*
X065016Y004453D01*
X065016Y004535D02*
X065486Y004535D01*
X065705Y004043D02*
X066175Y004043D01*
X065705Y004043D02*
X065705Y004591D01*
X066175Y004591D01*
X066175Y004043D01*
X066175Y004125D02*
X065705Y004125D01*
X065705Y004207D02*
X066175Y004207D01*
X066175Y004289D02*
X065705Y004289D01*
X065705Y004371D02*
X066175Y004371D01*
X066175Y004453D02*
X065705Y004453D01*
X065705Y004535D02*
X066175Y004535D01*
X067916Y004043D02*
X068386Y004043D01*
X067916Y004043D02*
X067916Y004591D01*
X068386Y004591D01*
X068386Y004043D01*
X068386Y004125D02*
X067916Y004125D01*
X067916Y004207D02*
X068386Y004207D01*
X068386Y004289D02*
X067916Y004289D01*
X067916Y004371D02*
X068386Y004371D01*
X068386Y004453D02*
X067916Y004453D01*
X067916Y004535D02*
X068386Y004535D01*
X068605Y004043D02*
X069075Y004043D01*
X068605Y004043D02*
X068605Y004591D01*
X069075Y004591D01*
X069075Y004043D01*
X069075Y004125D02*
X068605Y004125D01*
X068605Y004207D02*
X069075Y004207D01*
X069075Y004289D02*
X068605Y004289D01*
X068605Y004371D02*
X069075Y004371D01*
X069075Y004453D02*
X068605Y004453D01*
X068605Y004535D02*
X069075Y004535D01*
X070816Y004053D02*
X071286Y004053D01*
X070816Y004053D02*
X070816Y004601D01*
X071286Y004601D01*
X071286Y004053D01*
X071286Y004135D02*
X070816Y004135D01*
X070816Y004217D02*
X071286Y004217D01*
X071286Y004299D02*
X070816Y004299D01*
X070816Y004381D02*
X071286Y004381D01*
X071286Y004463D02*
X070816Y004463D01*
X070816Y004545D02*
X071286Y004545D01*
X071505Y004053D02*
X071975Y004053D01*
X071505Y004053D02*
X071505Y004601D01*
X071975Y004601D01*
X071975Y004053D01*
X071975Y004135D02*
X071505Y004135D01*
X071505Y004217D02*
X071975Y004217D01*
X071975Y004299D02*
X071505Y004299D01*
X071505Y004381D02*
X071975Y004381D01*
X071975Y004463D02*
X071505Y004463D01*
X071505Y004545D02*
X071975Y004545D01*
X073716Y004043D02*
X074186Y004043D01*
X073716Y004043D02*
X073716Y004591D01*
X074186Y004591D01*
X074186Y004043D01*
X074186Y004125D02*
X073716Y004125D01*
X073716Y004207D02*
X074186Y004207D01*
X074186Y004289D02*
X073716Y004289D01*
X073716Y004371D02*
X074186Y004371D01*
X074186Y004453D02*
X073716Y004453D01*
X073716Y004535D02*
X074186Y004535D01*
X074405Y004043D02*
X074875Y004043D01*
X074405Y004043D02*
X074405Y004591D01*
X074875Y004591D01*
X074875Y004043D01*
X074875Y004125D02*
X074405Y004125D01*
X074405Y004207D02*
X074875Y004207D01*
X074875Y004289D02*
X074405Y004289D01*
X074405Y004371D02*
X074875Y004371D01*
X074875Y004453D02*
X074405Y004453D01*
X074405Y004535D02*
X074875Y004535D01*
X076616Y004043D02*
X077086Y004043D01*
X076616Y004043D02*
X076616Y004591D01*
X077086Y004591D01*
X077086Y004043D01*
X077086Y004125D02*
X076616Y004125D01*
X076616Y004207D02*
X077086Y004207D01*
X077086Y004289D02*
X076616Y004289D01*
X076616Y004371D02*
X077086Y004371D01*
X077086Y004453D02*
X076616Y004453D01*
X076616Y004535D02*
X077086Y004535D01*
X077305Y004043D02*
X077775Y004043D01*
X077305Y004043D02*
X077305Y004591D01*
X077775Y004591D01*
X077775Y004043D01*
X077775Y004125D02*
X077305Y004125D01*
X077305Y004207D02*
X077775Y004207D01*
X077775Y004289D02*
X077305Y004289D01*
X077305Y004371D02*
X077775Y004371D01*
X077775Y004453D02*
X077305Y004453D01*
X077305Y004535D02*
X077775Y004535D01*
X079516Y004043D02*
X079986Y004043D01*
X079516Y004043D02*
X079516Y004591D01*
X079986Y004591D01*
X079986Y004043D01*
X079986Y004125D02*
X079516Y004125D01*
X079516Y004207D02*
X079986Y004207D01*
X079986Y004289D02*
X079516Y004289D01*
X079516Y004371D02*
X079986Y004371D01*
X079986Y004453D02*
X079516Y004453D01*
X079516Y004535D02*
X079986Y004535D01*
X080205Y004043D02*
X080675Y004043D01*
X080205Y004043D02*
X080205Y004591D01*
X080675Y004591D01*
X080675Y004043D01*
X080675Y004125D02*
X080205Y004125D01*
X080205Y004207D02*
X080675Y004207D01*
X080675Y004289D02*
X080205Y004289D01*
X080205Y004371D02*
X080675Y004371D01*
X080675Y004453D02*
X080205Y004453D01*
X080205Y004535D02*
X080675Y004535D01*
X082416Y004043D02*
X082886Y004043D01*
X082416Y004043D02*
X082416Y004591D01*
X082886Y004591D01*
X082886Y004043D01*
X082886Y004125D02*
X082416Y004125D01*
X082416Y004207D02*
X082886Y004207D01*
X082886Y004289D02*
X082416Y004289D01*
X082416Y004371D02*
X082886Y004371D01*
X082886Y004453D02*
X082416Y004453D01*
X082416Y004535D02*
X082886Y004535D01*
X083105Y004043D02*
X083575Y004043D01*
X083105Y004043D02*
X083105Y004591D01*
X083575Y004591D01*
X083575Y004043D01*
X083575Y004125D02*
X083105Y004125D01*
X083105Y004207D02*
X083575Y004207D01*
X083575Y004289D02*
X083105Y004289D01*
X083105Y004371D02*
X083575Y004371D01*
X083575Y004453D02*
X083105Y004453D01*
X083105Y004535D02*
X083575Y004535D01*
X085316Y004043D02*
X085786Y004043D01*
X085316Y004043D02*
X085316Y004591D01*
X085786Y004591D01*
X085786Y004043D01*
X085786Y004125D02*
X085316Y004125D01*
X085316Y004207D02*
X085786Y004207D01*
X085786Y004289D02*
X085316Y004289D01*
X085316Y004371D02*
X085786Y004371D01*
X085786Y004453D02*
X085316Y004453D01*
X085316Y004535D02*
X085786Y004535D01*
X086005Y004043D02*
X086475Y004043D01*
X086005Y004043D02*
X086005Y004591D01*
X086475Y004591D01*
X086475Y004043D01*
X086475Y004125D02*
X086005Y004125D01*
X086005Y004207D02*
X086475Y004207D01*
X086475Y004289D02*
X086005Y004289D01*
X086005Y004371D02*
X086475Y004371D01*
X086475Y004453D02*
X086005Y004453D01*
X086005Y004535D02*
X086475Y004535D01*
X088216Y004043D02*
X088686Y004043D01*
X088216Y004043D02*
X088216Y004591D01*
X088686Y004591D01*
X088686Y004043D01*
X088686Y004125D02*
X088216Y004125D01*
X088216Y004207D02*
X088686Y004207D01*
X088686Y004289D02*
X088216Y004289D01*
X088216Y004371D02*
X088686Y004371D01*
X088686Y004453D02*
X088216Y004453D01*
X088216Y004535D02*
X088686Y004535D01*
X088905Y004043D02*
X089375Y004043D01*
X088905Y004043D02*
X088905Y004591D01*
X089375Y004591D01*
X089375Y004043D01*
X089375Y004125D02*
X088905Y004125D01*
X088905Y004207D02*
X089375Y004207D01*
X089375Y004289D02*
X088905Y004289D01*
X088905Y004371D02*
X089375Y004371D01*
X089375Y004453D02*
X088905Y004453D01*
X088905Y004535D02*
X089375Y004535D01*
X091116Y004043D02*
X091586Y004043D01*
X091116Y004043D02*
X091116Y004591D01*
X091586Y004591D01*
X091586Y004043D01*
X091586Y004125D02*
X091116Y004125D01*
X091116Y004207D02*
X091586Y004207D01*
X091586Y004289D02*
X091116Y004289D01*
X091116Y004371D02*
X091586Y004371D01*
X091586Y004453D02*
X091116Y004453D01*
X091116Y004535D02*
X091586Y004535D01*
X091805Y004043D02*
X092275Y004043D01*
X091805Y004043D02*
X091805Y004591D01*
X092275Y004591D01*
X092275Y004043D01*
X092275Y004125D02*
X091805Y004125D01*
X091805Y004207D02*
X092275Y004207D01*
X092275Y004289D02*
X091805Y004289D01*
X091805Y004371D02*
X092275Y004371D01*
X092275Y004453D02*
X091805Y004453D01*
X091805Y004535D02*
X092275Y004535D01*
X087920Y015461D02*
X087450Y015461D01*
X087920Y015461D02*
X087920Y014951D01*
X087450Y014951D01*
X087450Y015461D01*
X087450Y015033D02*
X087920Y015033D01*
X087920Y015115D02*
X087450Y015115D01*
X087450Y015197D02*
X087920Y015197D01*
X087920Y015279D02*
X087450Y015279D01*
X087450Y015361D02*
X087920Y015361D01*
X087920Y015443D02*
X087450Y015443D01*
X087120Y015461D02*
X086650Y015461D01*
X087120Y015461D02*
X087120Y014951D01*
X086650Y014951D01*
X086650Y015461D01*
X086650Y015033D02*
X087120Y015033D01*
X087120Y015115D02*
X086650Y015115D01*
X086650Y015197D02*
X087120Y015197D01*
X087120Y015279D02*
X086650Y015279D01*
X086650Y015361D02*
X087120Y015361D01*
X087120Y015443D02*
X086650Y015443D01*
D14*
X086299Y005006D03*
X085152Y004807D03*
X085019Y004285D03*
X083399Y005006D03*
X082252Y004807D03*
X082119Y004285D03*
X080499Y005006D03*
X079352Y004807D03*
X079219Y004285D03*
X077599Y005006D03*
X076452Y004807D03*
X076319Y004285D03*
X074699Y005006D03*
X073552Y004807D03*
X071799Y005016D03*
X070652Y004817D03*
X068899Y005006D03*
X067752Y004807D03*
X065999Y005006D03*
X064852Y004807D03*
X063099Y005006D03*
X061952Y004807D03*
X061819Y004285D03*
X059052Y004807D03*
X060199Y005006D03*
X058919Y004285D03*
X056152Y004807D03*
X057299Y005006D03*
X056019Y004285D03*
X053252Y004807D03*
X054399Y005006D03*
X053119Y004285D03*
X051399Y005006D03*
X050252Y004807D03*
X050119Y004285D03*
X047352Y004807D03*
X048499Y005006D03*
X047219Y004285D03*
X045599Y005006D03*
X044452Y004807D03*
X044319Y004285D03*
X042799Y005006D03*
X041652Y004807D03*
X041519Y004285D03*
X039899Y005006D03*
X038752Y004807D03*
X038619Y004285D03*
X036999Y005006D03*
X035852Y004807D03*
X035719Y004285D03*
X034099Y005006D03*
X032952Y004807D03*
X032819Y004285D03*
X031199Y005006D03*
X030052Y004807D03*
X029919Y004285D03*
X028299Y005006D03*
X027152Y004807D03*
X027019Y004285D03*
X025399Y005006D03*
X024252Y004807D03*
X024119Y004285D03*
X022499Y005006D03*
X021352Y004807D03*
X021219Y004285D03*
X019599Y005006D03*
X018452Y004807D03*
X018319Y004285D03*
X016699Y005006D03*
X015552Y004807D03*
X013799Y005006D03*
X012652Y004807D03*
X010899Y005006D03*
X009752Y004807D03*
X007999Y005006D03*
X006852Y004807D03*
X005099Y005006D03*
X003952Y004807D03*
X003819Y004285D03*
X001052Y004807D03*
X002199Y005006D03*
X000919Y004285D03*
X006719Y004285D03*
X009619Y004285D03*
X012519Y004285D03*
X015419Y004285D03*
X064719Y004285D03*
X067619Y004285D03*
X070519Y004295D03*
X073419Y004285D03*
X087919Y004285D03*
X088052Y004807D03*
X089199Y005006D03*
X090952Y004807D03*
X092099Y005006D03*
X090819Y004285D03*
D15*
X091705Y006206D03*
X088805Y006206D03*
X085905Y006206D03*
X083005Y006206D03*
X080105Y006206D03*
X077205Y006206D03*
X074305Y006206D03*
X071405Y006216D03*
X068505Y006206D03*
X065605Y006206D03*
X062705Y006206D03*
X059805Y006206D03*
X056905Y006206D03*
X054005Y006206D03*
X051005Y006206D03*
X048105Y006206D03*
X045205Y006206D03*
X042405Y006206D03*
X039505Y006206D03*
X036605Y006206D03*
X033705Y006206D03*
X030805Y006206D03*
X027905Y006206D03*
X025005Y006206D03*
X022105Y006206D03*
X019205Y006206D03*
X016305Y006206D03*
X013405Y006206D03*
X010505Y006206D03*
X007605Y006206D03*
X004705Y006206D03*
X001805Y006206D03*
D16*
X084747Y010174D02*
X085337Y010174D01*
X084747Y010174D02*
X084747Y010370D01*
X085337Y010370D01*
X085337Y010174D01*
X085337Y010253D02*
X084747Y010253D01*
X084747Y010332D02*
X085337Y010332D01*
X085337Y010489D02*
X084747Y010489D01*
X084747Y010685D01*
X085337Y010685D01*
X085337Y010489D01*
X085337Y010568D02*
X084747Y010568D01*
X084747Y010647D02*
X085337Y010647D01*
X085337Y010804D02*
X084747Y010804D01*
X084747Y011000D01*
X085337Y011000D01*
X085337Y010804D01*
X085337Y010883D02*
X084747Y010883D01*
X084747Y010962D02*
X085337Y010962D01*
X085337Y011119D02*
X084747Y011119D01*
X084747Y011315D01*
X085337Y011315D01*
X085337Y011119D01*
X085337Y011198D02*
X084747Y011198D01*
X084747Y011277D02*
X085337Y011277D01*
X085337Y011433D02*
X084747Y011433D01*
X084747Y011629D01*
X085337Y011629D01*
X085337Y011433D01*
X085337Y011512D02*
X084747Y011512D01*
X084747Y011591D02*
X085337Y011591D01*
X085337Y011748D02*
X084747Y011748D01*
X084747Y011944D01*
X085337Y011944D01*
X085337Y011748D01*
X085337Y011827D02*
X084747Y011827D01*
X084747Y011906D02*
X085337Y011906D01*
X085337Y012063D02*
X084747Y012063D01*
X084747Y012259D01*
X085337Y012259D01*
X085337Y012063D01*
X085337Y012142D02*
X084747Y012142D01*
X084747Y012221D02*
X085337Y012221D01*
X085337Y012378D02*
X084747Y012378D01*
X084747Y012574D01*
X085337Y012574D01*
X085337Y012378D01*
X085337Y012457D02*
X084747Y012457D01*
X084747Y012536D02*
X085337Y012536D01*
X085337Y012693D02*
X084747Y012693D01*
X084747Y012889D01*
X085337Y012889D01*
X085337Y012693D01*
X085337Y012772D02*
X084747Y012772D01*
X084747Y012851D02*
X085337Y012851D01*
X085337Y013008D02*
X084747Y013008D01*
X084747Y013204D01*
X085337Y013204D01*
X085337Y013008D01*
X085337Y013087D02*
X084747Y013087D01*
X084747Y013166D02*
X085337Y013166D01*
X085337Y013323D02*
X084747Y013323D01*
X084747Y013519D01*
X085337Y013519D01*
X085337Y013323D01*
X085337Y013402D02*
X084747Y013402D01*
X084747Y013481D02*
X085337Y013481D01*
X085652Y013835D02*
X085848Y013835D01*
X085652Y013835D02*
X085652Y014425D01*
X085848Y014425D01*
X085848Y013835D01*
X085848Y013914D02*
X085652Y013914D01*
X085652Y013993D02*
X085848Y013993D01*
X085848Y014072D02*
X085652Y014072D01*
X085652Y014151D02*
X085848Y014151D01*
X085848Y014230D02*
X085652Y014230D01*
X085652Y014309D02*
X085848Y014309D01*
X085848Y014388D02*
X085652Y014388D01*
X085967Y013835D02*
X086163Y013835D01*
X085967Y013835D02*
X085967Y014425D01*
X086163Y014425D01*
X086163Y013835D01*
X086163Y013914D02*
X085967Y013914D01*
X085967Y013993D02*
X086163Y013993D01*
X086163Y014072D02*
X085967Y014072D01*
X085967Y014151D02*
X086163Y014151D01*
X086163Y014230D02*
X085967Y014230D01*
X085967Y014309D02*
X086163Y014309D01*
X086163Y014388D02*
X085967Y014388D01*
X086282Y013835D02*
X086478Y013835D01*
X086282Y013835D02*
X086282Y014425D01*
X086478Y014425D01*
X086478Y013835D01*
X086478Y013914D02*
X086282Y013914D01*
X086282Y013993D02*
X086478Y013993D01*
X086478Y014072D02*
X086282Y014072D01*
X086282Y014151D02*
X086478Y014151D01*
X086478Y014230D02*
X086282Y014230D01*
X086282Y014309D02*
X086478Y014309D01*
X086478Y014388D02*
X086282Y014388D01*
X086597Y013835D02*
X086793Y013835D01*
X086597Y013835D02*
X086597Y014425D01*
X086793Y014425D01*
X086793Y013835D01*
X086793Y013914D02*
X086597Y013914D01*
X086597Y013993D02*
X086793Y013993D01*
X086793Y014072D02*
X086597Y014072D01*
X086597Y014151D02*
X086793Y014151D01*
X086793Y014230D02*
X086597Y014230D01*
X086597Y014309D02*
X086793Y014309D01*
X086793Y014388D02*
X086597Y014388D01*
X086912Y013835D02*
X087108Y013835D01*
X086912Y013835D02*
X086912Y014425D01*
X087108Y014425D01*
X087108Y013835D01*
X087108Y013914D02*
X086912Y013914D01*
X086912Y013993D02*
X087108Y013993D01*
X087108Y014072D02*
X086912Y014072D01*
X086912Y014151D02*
X087108Y014151D01*
X087108Y014230D02*
X086912Y014230D01*
X086912Y014309D02*
X087108Y014309D01*
X087108Y014388D02*
X086912Y014388D01*
X087227Y013835D02*
X087423Y013835D01*
X087227Y013835D02*
X087227Y014425D01*
X087423Y014425D01*
X087423Y013835D01*
X087423Y013914D02*
X087227Y013914D01*
X087227Y013993D02*
X087423Y013993D01*
X087423Y014072D02*
X087227Y014072D01*
X087227Y014151D02*
X087423Y014151D01*
X087423Y014230D02*
X087227Y014230D01*
X087227Y014309D02*
X087423Y014309D01*
X087423Y014388D02*
X087227Y014388D01*
X087542Y013835D02*
X087738Y013835D01*
X087542Y013835D02*
X087542Y014425D01*
X087738Y014425D01*
X087738Y013835D01*
X087738Y013914D02*
X087542Y013914D01*
X087542Y013993D02*
X087738Y013993D01*
X087738Y014072D02*
X087542Y014072D01*
X087542Y014151D02*
X087738Y014151D01*
X087738Y014230D02*
X087542Y014230D01*
X087542Y014309D02*
X087738Y014309D01*
X087738Y014388D02*
X087542Y014388D01*
X087857Y013835D02*
X088053Y013835D01*
X087857Y013835D02*
X087857Y014425D01*
X088053Y014425D01*
X088053Y013835D01*
X088053Y013914D02*
X087857Y013914D01*
X087857Y013993D02*
X088053Y013993D01*
X088053Y014072D02*
X087857Y014072D01*
X087857Y014151D02*
X088053Y014151D01*
X088053Y014230D02*
X087857Y014230D01*
X087857Y014309D02*
X088053Y014309D01*
X088053Y014388D02*
X087857Y014388D01*
X088172Y013835D02*
X088368Y013835D01*
X088172Y013835D02*
X088172Y014425D01*
X088368Y014425D01*
X088368Y013835D01*
X088368Y013914D02*
X088172Y013914D01*
X088172Y013993D02*
X088368Y013993D01*
X088368Y014072D02*
X088172Y014072D01*
X088172Y014151D02*
X088368Y014151D01*
X088368Y014230D02*
X088172Y014230D01*
X088172Y014309D02*
X088368Y014309D01*
X088368Y014388D02*
X088172Y014388D01*
X088487Y013835D02*
X088683Y013835D01*
X088487Y013835D02*
X088487Y014425D01*
X088683Y014425D01*
X088683Y013835D01*
X088683Y013914D02*
X088487Y013914D01*
X088487Y013993D02*
X088683Y013993D01*
X088683Y014072D02*
X088487Y014072D01*
X088487Y014151D02*
X088683Y014151D01*
X088683Y014230D02*
X088487Y014230D01*
X088487Y014309D02*
X088683Y014309D01*
X088683Y014388D02*
X088487Y014388D01*
X088802Y013835D02*
X088998Y013835D01*
X088802Y013835D02*
X088802Y014425D01*
X088998Y014425D01*
X088998Y013835D01*
X088998Y013914D02*
X088802Y013914D01*
X088802Y013993D02*
X088998Y013993D01*
X088998Y014072D02*
X088802Y014072D01*
X088802Y014151D02*
X088998Y014151D01*
X088998Y014230D02*
X088802Y014230D01*
X088802Y014309D02*
X088998Y014309D01*
X088998Y014388D02*
X088802Y014388D01*
X089314Y013323D02*
X089904Y013323D01*
X089314Y013323D02*
X089314Y013519D01*
X089904Y013519D01*
X089904Y013323D01*
X089904Y013402D02*
X089314Y013402D01*
X089314Y013481D02*
X089904Y013481D01*
X089904Y013008D02*
X089314Y013008D01*
X089314Y013204D01*
X089904Y013204D01*
X089904Y013008D01*
X089904Y013087D02*
X089314Y013087D01*
X089314Y013166D02*
X089904Y013166D01*
X089904Y012693D02*
X089314Y012693D01*
X089314Y012889D01*
X089904Y012889D01*
X089904Y012693D01*
X089904Y012772D02*
X089314Y012772D01*
X089314Y012851D02*
X089904Y012851D01*
X089904Y012378D02*
X089314Y012378D01*
X089314Y012574D01*
X089904Y012574D01*
X089904Y012378D01*
X089904Y012457D02*
X089314Y012457D01*
X089314Y012536D02*
X089904Y012536D01*
X089904Y012063D02*
X089314Y012063D01*
X089314Y012259D01*
X089904Y012259D01*
X089904Y012063D01*
X089904Y012142D02*
X089314Y012142D01*
X089314Y012221D02*
X089904Y012221D01*
X089904Y011748D02*
X089314Y011748D01*
X089314Y011944D01*
X089904Y011944D01*
X089904Y011748D01*
X089904Y011827D02*
X089314Y011827D01*
X089314Y011906D02*
X089904Y011906D01*
X089904Y011433D02*
X089314Y011433D01*
X089314Y011629D01*
X089904Y011629D01*
X089904Y011433D01*
X089904Y011512D02*
X089314Y011512D01*
X089314Y011591D02*
X089904Y011591D01*
X089904Y011119D02*
X089314Y011119D01*
X089314Y011315D01*
X089904Y011315D01*
X089904Y011119D01*
X089904Y011198D02*
X089314Y011198D01*
X089314Y011277D02*
X089904Y011277D01*
X089904Y010804D02*
X089314Y010804D01*
X089314Y011000D01*
X089904Y011000D01*
X089904Y010804D01*
X089904Y010883D02*
X089314Y010883D01*
X089314Y010962D02*
X089904Y010962D01*
X089904Y010489D02*
X089314Y010489D01*
X089314Y010685D01*
X089904Y010685D01*
X089904Y010489D01*
X089904Y010568D02*
X089314Y010568D01*
X089314Y010647D02*
X089904Y010647D01*
X089904Y010174D02*
X089314Y010174D01*
X089314Y010370D01*
X089904Y010370D01*
X089904Y010174D01*
X089904Y010253D02*
X089314Y010253D01*
X089314Y010332D02*
X089904Y010332D01*
X088998Y009268D02*
X088802Y009268D01*
X088802Y009858D01*
X088998Y009858D01*
X088998Y009268D01*
X088998Y009347D02*
X088802Y009347D01*
X088802Y009426D02*
X088998Y009426D01*
X088998Y009505D02*
X088802Y009505D01*
X088802Y009584D02*
X088998Y009584D01*
X088998Y009663D02*
X088802Y009663D01*
X088802Y009742D02*
X088998Y009742D01*
X088998Y009821D02*
X088802Y009821D01*
X088683Y009268D02*
X088487Y009268D01*
X088487Y009858D01*
X088683Y009858D01*
X088683Y009268D01*
X088683Y009347D02*
X088487Y009347D01*
X088487Y009426D02*
X088683Y009426D01*
X088683Y009505D02*
X088487Y009505D01*
X088487Y009584D02*
X088683Y009584D01*
X088683Y009663D02*
X088487Y009663D01*
X088487Y009742D02*
X088683Y009742D01*
X088683Y009821D02*
X088487Y009821D01*
X088368Y009268D02*
X088172Y009268D01*
X088172Y009858D01*
X088368Y009858D01*
X088368Y009268D01*
X088368Y009347D02*
X088172Y009347D01*
X088172Y009426D02*
X088368Y009426D01*
X088368Y009505D02*
X088172Y009505D01*
X088172Y009584D02*
X088368Y009584D01*
X088368Y009663D02*
X088172Y009663D01*
X088172Y009742D02*
X088368Y009742D01*
X088368Y009821D02*
X088172Y009821D01*
X088053Y009268D02*
X087857Y009268D01*
X087857Y009858D01*
X088053Y009858D01*
X088053Y009268D01*
X088053Y009347D02*
X087857Y009347D01*
X087857Y009426D02*
X088053Y009426D01*
X088053Y009505D02*
X087857Y009505D01*
X087857Y009584D02*
X088053Y009584D01*
X088053Y009663D02*
X087857Y009663D01*
X087857Y009742D02*
X088053Y009742D01*
X088053Y009821D02*
X087857Y009821D01*
X087738Y009268D02*
X087542Y009268D01*
X087542Y009858D01*
X087738Y009858D01*
X087738Y009268D01*
X087738Y009347D02*
X087542Y009347D01*
X087542Y009426D02*
X087738Y009426D01*
X087738Y009505D02*
X087542Y009505D01*
X087542Y009584D02*
X087738Y009584D01*
X087738Y009663D02*
X087542Y009663D01*
X087542Y009742D02*
X087738Y009742D01*
X087738Y009821D02*
X087542Y009821D01*
X087423Y009268D02*
X087227Y009268D01*
X087227Y009858D01*
X087423Y009858D01*
X087423Y009268D01*
X087423Y009347D02*
X087227Y009347D01*
X087227Y009426D02*
X087423Y009426D01*
X087423Y009505D02*
X087227Y009505D01*
X087227Y009584D02*
X087423Y009584D01*
X087423Y009663D02*
X087227Y009663D01*
X087227Y009742D02*
X087423Y009742D01*
X087423Y009821D02*
X087227Y009821D01*
X087108Y009268D02*
X086912Y009268D01*
X086912Y009858D01*
X087108Y009858D01*
X087108Y009268D01*
X087108Y009347D02*
X086912Y009347D01*
X086912Y009426D02*
X087108Y009426D01*
X087108Y009505D02*
X086912Y009505D01*
X086912Y009584D02*
X087108Y009584D01*
X087108Y009663D02*
X086912Y009663D01*
X086912Y009742D02*
X087108Y009742D01*
X087108Y009821D02*
X086912Y009821D01*
X086793Y009268D02*
X086597Y009268D01*
X086597Y009858D01*
X086793Y009858D01*
X086793Y009268D01*
X086793Y009347D02*
X086597Y009347D01*
X086597Y009426D02*
X086793Y009426D01*
X086793Y009505D02*
X086597Y009505D01*
X086597Y009584D02*
X086793Y009584D01*
X086793Y009663D02*
X086597Y009663D01*
X086597Y009742D02*
X086793Y009742D01*
X086793Y009821D02*
X086597Y009821D01*
X086478Y009268D02*
X086282Y009268D01*
X086282Y009858D01*
X086478Y009858D01*
X086478Y009268D01*
X086478Y009347D02*
X086282Y009347D01*
X086282Y009426D02*
X086478Y009426D01*
X086478Y009505D02*
X086282Y009505D01*
X086282Y009584D02*
X086478Y009584D01*
X086478Y009663D02*
X086282Y009663D01*
X086282Y009742D02*
X086478Y009742D01*
X086478Y009821D02*
X086282Y009821D01*
X086163Y009268D02*
X085967Y009268D01*
X085967Y009858D01*
X086163Y009858D01*
X086163Y009268D01*
X086163Y009347D02*
X085967Y009347D01*
X085967Y009426D02*
X086163Y009426D01*
X086163Y009505D02*
X085967Y009505D01*
X085967Y009584D02*
X086163Y009584D01*
X086163Y009663D02*
X085967Y009663D01*
X085967Y009742D02*
X086163Y009742D01*
X086163Y009821D02*
X085967Y009821D01*
X085848Y009268D02*
X085652Y009268D01*
X085652Y009858D01*
X085848Y009858D01*
X085848Y009268D01*
X085848Y009347D02*
X085652Y009347D01*
X085652Y009426D02*
X085848Y009426D01*
X085848Y009505D02*
X085652Y009505D01*
X085652Y009584D02*
X085848Y009584D01*
X085848Y009663D02*
X085652Y009663D01*
X085652Y009742D02*
X085848Y009742D01*
X085848Y009821D02*
X085652Y009821D01*
D17*
X084082Y009768D02*
X084082Y009924D01*
X084082Y009768D02*
X083452Y009768D01*
X083452Y009924D01*
X084082Y009924D01*
X084082Y009848D02*
X083452Y009848D01*
X084082Y010024D02*
X084082Y010180D01*
X084082Y010024D02*
X083452Y010024D01*
X083452Y010180D01*
X084082Y010180D01*
X084082Y010104D02*
X083452Y010104D01*
X084082Y009668D02*
X084082Y009512D01*
X083452Y009512D01*
X083452Y009668D01*
X084082Y009668D01*
X084082Y009592D02*
X083452Y009592D01*
X084082Y009412D02*
X084082Y009256D01*
X083452Y009256D01*
X083452Y009412D01*
X084082Y009412D01*
X084082Y009336D02*
X083452Y009336D01*
X084082Y009156D02*
X084082Y009000D01*
X083452Y009000D01*
X083452Y009156D01*
X084082Y009156D01*
X084082Y009080D02*
X083452Y009080D01*
X084082Y008900D02*
X084082Y008744D01*
X083452Y008744D01*
X083452Y008900D01*
X084082Y008900D01*
X084082Y008824D02*
X083452Y008824D01*
X084082Y008644D02*
X084082Y008488D01*
X083452Y008488D01*
X083452Y008644D01*
X084082Y008644D01*
X084082Y008568D02*
X083452Y008568D01*
X084082Y008388D02*
X084082Y008232D01*
X083452Y008232D01*
X083452Y008388D01*
X084082Y008388D01*
X084082Y008312D02*
X083452Y008312D01*
X081759Y008388D02*
X081759Y008232D01*
X081129Y008232D01*
X081129Y008388D01*
X081759Y008388D01*
X081759Y008312D02*
X081129Y008312D01*
X081759Y008488D02*
X081759Y008644D01*
X081759Y008488D02*
X081129Y008488D01*
X081129Y008644D01*
X081759Y008644D01*
X081759Y008568D02*
X081129Y008568D01*
X081759Y008744D02*
X081759Y008900D01*
X081759Y008744D02*
X081129Y008744D01*
X081129Y008900D01*
X081759Y008900D01*
X081759Y008824D02*
X081129Y008824D01*
X081759Y009000D02*
X081759Y009156D01*
X081759Y009000D02*
X081129Y009000D01*
X081129Y009156D01*
X081759Y009156D01*
X081759Y009080D02*
X081129Y009080D01*
X081759Y009256D02*
X081759Y009412D01*
X081759Y009256D02*
X081129Y009256D01*
X081129Y009412D01*
X081759Y009412D01*
X081759Y009336D02*
X081129Y009336D01*
X081759Y009512D02*
X081759Y009668D01*
X081759Y009512D02*
X081129Y009512D01*
X081129Y009668D01*
X081759Y009668D01*
X081759Y009592D02*
X081129Y009592D01*
X081759Y009768D02*
X081759Y009924D01*
X081759Y009768D02*
X081129Y009768D01*
X081129Y009924D01*
X081759Y009924D01*
X081759Y009848D02*
X081129Y009848D01*
X081759Y010024D02*
X081759Y010180D01*
X081759Y010024D02*
X081129Y010024D01*
X081129Y010180D01*
X081759Y010180D01*
X081759Y010104D02*
X081129Y010104D01*
D18*
X092275Y008086D03*
X091705Y015216D03*
D19*
X090705Y015316D03*
X089705Y015216D03*
X088705Y015316D03*
X092375Y011086D03*
X092275Y010086D03*
X092375Y009086D03*
D20*
X084156Y010483D02*
X083935Y010704D01*
X084266Y011035D01*
X084487Y010814D01*
X084156Y010483D01*
X084238Y010565D02*
X084074Y010565D01*
X083992Y010647D02*
X084320Y010647D01*
X084402Y010729D02*
X083960Y010729D01*
X084042Y010811D02*
X084484Y010811D01*
X084408Y010893D02*
X084124Y010893D01*
X084206Y010975D02*
X084326Y010975D01*
X083655Y010984D02*
X083434Y011205D01*
X083765Y011536D01*
X083986Y011315D01*
X083655Y010984D01*
X083737Y011066D02*
X083573Y011066D01*
X083491Y011148D02*
X083819Y011148D01*
X083901Y011230D02*
X083459Y011230D01*
X083541Y011312D02*
X083983Y011312D01*
X083907Y011394D02*
X083623Y011394D01*
X083705Y011476D02*
X083825Y011476D01*
M02*
